<svg width="17" height="18" viewBox="0 0 17 18" fill="none" xmlns="http://www.w3.org/2000/svg">
<path d="M8.66306 5.39027C8.39063 5.10552 8.39063 4.64383 8.66306 4.35908C8.93549 4.07432 9.37719 4.07432 9.64962 4.35908L13.8352 8.73408C14.0993 9.01012 14.1086 9.45461 13.8562 9.74239L10.0194 14.1174C9.75904 14.4142 9.31776 14.4343 9.03376 14.1622C8.74975 13.8901 8.73056 13.4288 8.9909 13.132L12.3764 9.2716L8.66306 5.39027Z" fill="#524DF5"/>
<path opacity="0.3" d="M3.77976 5.39027C3.50733 5.10552 3.50733 4.64383 3.77976 4.35908C4.05219 4.07432 4.49389 4.07432 4.76632 4.35908L8.95193 8.73408C9.21602 9.01012 9.22526 9.45461 8.97289 9.74239L5.13608 14.1174C4.87574 14.4142 4.43446 14.4343 4.15046 14.1622C3.86645 13.8901 3.84726 13.4288 4.1076 13.132L7.49307 9.2716L3.77976 5.39027Z" fill="#524DF5"/>
</svg>
