<svg width="25" height="25" viewBox="0 0 25 25" fill="none" xmlns="http://www.w3.org/2000/svg">
<rect opacity="0.3" width="2.08333" height="14.5833" rx="1" transform="matrix(0 -1 -1 0 19.7917 13.5415)" fill="url(#paint0_linear_46_417)" fill-opacity="0.8"/>
<path d="M13.2366 18.0133C13.6434 18.4201 13.6434 19.0796 13.2366 19.4864C12.8298 19.8932 12.1702 19.8932 11.7634 19.4864L5.51343 13.2364C5.11907 12.8421 5.10528 12.2071 5.48213 11.796L11.2113 5.54596C11.6 5.12188 12.259 5.09323 12.683 5.48197C13.1071 5.87071 13.1358 6.52964 12.747 6.95372L7.69181 12.4685L13.2366 18.0133Z" fill="url(#paint1_linear_46_417)" fill-opacity="0.8"/>
<defs>
<linearGradient id="paint0_linear_46_417" x1="2.89073e-08" y1="0.666059" x2="2.14326" y2="0.675294" gradientUnits="userSpaceOnUse">
<stop stop-color="#524DF5"/>
<stop offset="0.935908" stop-color="#9A1AFF"/>
</linearGradient>
<linearGradient id="paint1_linear_46_417" x1="5.58893" y1="19.7915" x2="6.37864" y2="4.83008" gradientUnits="userSpaceOnUse">
<stop stop-color="#524DF5"/>
<stop offset="0.935908" stop-color="#9A1AFF"/>
</linearGradient>
</defs>
</svg>
