<svg width="22" height="29" viewBox="0 0 22 29" fill="none" xmlns="http://www.w3.org/2000/svg">
<path opacity="0.6" d="M14.0956 25.8281C14.0956 27.5772 12.6679 29 10.9128 29C9.15773 29 7.72998 27.5772 7.72998 25.8281C7.72998 25.136 7.94993 24.4778 8.36658 23.925C8.5382 23.6967 8.8082 23.5625 9.09406 23.5625H12.7316C13.0175 23.5625 13.2875 23.6967 13.4591 23.925C13.8756 24.4778 14.0956 25.136 14.0956 25.8281Z" fill="white"/>
<path opacity="0.6" d="M10.9127 5.43744C12.4194 5.43744 13.6408 4.22023 13.6408 2.71872C13.6408 1.21721 12.4194 0 10.9127 0C9.40599 0 8.18457 1.21721 8.18457 2.71872C8.18457 4.22023 9.40599 5.43744 10.9127 5.43744Z" fill="white"/>
<path d="M21.8252 20.8437V24.4687C21.8252 24.9694 21.4182 25.375 20.9157 25.375H0.90937C0.406964 25.375 0 24.9694 0 24.4687V20.8437C0 20.343 0.406964 19.9374 0.90937 19.9374C1.91251 19.9374 2.72817 19.1247 2.72817 18.125V11.86C2.72817 7.33496 6.3867 3.6408 10.883 3.62494H10.9131C13.0939 3.62494 15.1441 4.46894 16.6894 6.0039C18.2421 7.54564 19.0969 9.5972 19.0969 11.7812V18.125C19.0969 19.1248 19.9127 19.9375 20.9157 19.9375C21.4182 19.9374 21.8252 20.343 21.8252 20.8437Z" fill="white"/>
<path d="M6.36543 11.7813C5.86325 11.7813 5.45605 11.3755 5.45605 10.875C5.45605 8.37646 7.49584 6.34375 10.003 6.34375C10.5051 6.34375 10.9123 6.74954 10.9123 7.25005C10.9123 7.7505 10.5051 8.15629 10.003 8.15629C8.49869 8.15629 7.2748 9.37597 7.2748 10.8751C7.2748 11.3755 6.86766 11.7813 6.36543 11.7813Z" fill="white"/>
</svg>
