<svg width="25" height="25" viewBox="0 0 25 25" fill="none" xmlns="http://www.w3.org/2000/svg">
<g clip-path="url(#clip0_80_1799)">
<path d="M8.87723 12.5001L4.05954 17.3168L4.05947 17.3169C3.57882 17.7976 3.30879 18.4495 3.30879 19.1292C3.30879 19.809 3.57882 20.4609 4.05947 20.9415C4.54013 21.4222 5.19204 21.6922 5.87179 21.6922C6.55154 21.6922 7.20345 21.4222 7.6841 20.9415L7.6843 20.9413L12.4995 16.1234L17.3167 20.9415L17.3168 20.9415C17.7974 21.4222 18.4493 21.6922 19.1291 21.6922C19.8088 21.6922 20.4607 21.4222 20.9414 20.9415C21.422 20.4609 21.6921 19.809 21.6921 19.1292C21.6921 18.4495 21.4221 17.7976 20.9414 17.3169L20.9413 17.3168L16.1227 12.5L20.9403 7.68327L20.9405 7.68304C21.1784 7.44502 21.3671 7.16247 21.4958 6.85153C21.6245 6.54059 21.6908 6.20734 21.6907 5.8708C21.6906 5.53428 21.6242 5.20106 21.4954 4.89017C21.3665 4.57929 21.1777 4.29683 20.9397 4.05893C20.7016 3.82102 20.4191 3.63232 20.1082 3.50361C19.7972 3.3749 19.464 3.3087 19.1274 3.30878C18.7909 3.30885 18.4577 3.37522 18.1468 3.50408C17.836 3.63292 17.5535 3.82171 17.3157 4.05968C17.3156 4.05971 17.3156 4.05975 17.3156 4.05978L12.4998 8.8764L7.6886 4.06515C7.45375 3.82366 7.17357 3.63082 6.86406 3.4977C6.55149 3.36326 6.21527 3.29241 5.87503 3.28929C5.53479 3.28618 5.19733 3.35085 4.88235 3.47955C4.56736 3.60825 4.28117 3.79838 4.04046 4.03887C3.79974 4.27936 3.60934 4.56537 3.48034 4.88023C3.35135 5.19509 3.28635 5.53249 3.28915 5.87274C3.29194 6.21298 3.36247 6.54926 3.49662 6.86196C3.62953 7.17177 3.82225 7.45228 4.06371 7.68744L8.87723 12.5001Z" fill="white" stroke="#201F2C" stroke-width="2"/>
</g>
<defs>
<clipPath id="clip0_80_1799">
<rect width="25" height="25" fill="white"/>
</clipPath>
</defs>
</svg>
