<svg width="30" height="30" viewBox="0 0 30 30" fill="none" xmlns="http://www.w3.org/2000/svg">
<g clip-path="url(#clip0_266_3836)">
<path d="M28 56C43.464 56 56 43.464 56 28C56 12.536 43.464 0 28 0C12.536 0 0 12.536 0 28C0 43.464 12.536 56 28 56Z" fill="#524DF5"/>
<path d="M28 44.4138C37.0651 44.4138 44.4138 37.0651 44.4138 28C44.4138 18.9349 37.0651 11.5862 28 11.5862C18.9349 11.5862 11.5862 18.9349 11.5862 28C11.5862 37.0651 18.9349 44.4138 28 44.4138Z" fill="#EFF2FA"/>
<path d="M27.9999 9.65514C38.1315 9.65514 46.3448 17.8684 46.3448 28C46.3448 38.1315 38.1315 46.3448 27.9999 46.3448C17.8684 46.3448 9.65514 38.1315 9.65514 28C9.65514 17.8684 17.8684 9.65514 27.9999 9.65514ZM27.9999 7.72412C16.8197 7.72412 7.72412 16.8197 7.72412 28C7.72412 39.1802 16.8197 48.2758 27.9999 48.2758C39.1801 48.2758 48.2758 39.1802 48.2758 28C48.2758 16.8197 39.1801 7.72412 27.9999 7.72412Z" fill="#9A1AFF"/>
<path d="M28 0C26.3528 0 24.7416 0.150391 23.1724 0.423281V4.87539C23.1724 5.60842 23.8211 6.18111 24.5451 6.06638C25.6711 5.88788 26.8245 5.79316 28 5.79316C29.1754 5.79316 30.3288 5.88788 31.4548 6.06638C32.1788 6.18111 32.8275 5.60853 32.8275 4.87539V0.423281C31.2583 0.150391 29.6471 0 28 0Z" fill="#EFF2FA"/>
<path d="M23.1724 51.1246V55.5767C24.7416 55.8496 26.3528 56 28 56C29.6471 56 31.2583 55.8496 32.8275 55.5767V51.1246C32.8275 50.3916 32.1788 49.8189 31.4548 49.9336C30.3288 50.1121 29.1754 50.2068 28 50.2068C26.8245 50.2068 25.6711 50.1121 24.5451 49.9336C23.8211 49.8189 23.1724 50.3916 23.1724 51.1246Z" fill="#EFF2FA"/>
<path d="M56 28C56 26.3528 55.8496 24.7416 55.5767 23.1724H51.1246C50.3916 23.1724 49.8189 23.8211 49.9336 24.5451C50.1121 25.6711 50.2068 26.8245 50.2068 28C50.2068 29.1754 50.1121 30.3288 49.9336 31.4548C49.8189 32.1788 50.3915 32.8275 51.1246 32.8275H55.5767C55.8496 31.2583 56 29.6471 56 28Z" fill="#EFF2FA"/>
<path d="M4.87539 23.1724H0.423281C0.150391 24.7416 0 26.3528 0 28C0 29.6471 0.150391 31.2583 0.423281 32.8275H4.87539C5.60842 32.8275 6.18111 32.1788 6.06637 31.4548C5.88787 30.3288 5.79316 29.1754 5.79316 28C5.79316 26.8245 5.88787 25.6711 6.06637 24.5451C6.18111 23.8211 5.60842 23.1724 4.87539 23.1724Z" fill="#EFF2FA"/>
<path d="M47.7992 8.20102C46.6344 7.03628 45.3888 6.00334 44.0863 5.08667L40.9381 8.23481C40.4197 8.75314 40.4736 9.61687 41.0666 10.0476C41.9891 10.7175 42.8715 11.4662 43.7027 12.2973C44.5339 13.1285 45.2825 14.011 45.9525 14.9335C46.3832 15.5265 47.2468 15.5803 47.7652 15.062L50.9134 11.9139C49.9967 10.6114 48.9639 9.36586 47.7992 8.20102Z" fill="#EFF2FA"/>
<path d="M8.23481 40.9379L5.08667 44.086C6.00334 45.3884 7.03628 46.6341 8.20101 47.7989C9.36575 48.9636 10.6114 49.9965 11.9139 50.9132L15.062 47.7651C15.5803 47.2467 15.5265 46.383 14.9335 45.9523C14.011 45.2824 13.1286 44.5337 12.2973 43.7025C11.4662 42.8714 10.7175 41.9889 10.0476 41.0664C9.61687 40.4734 8.75325 40.4194 8.23481 40.9379Z" fill="#EFF2FA"/>
<path d="M47.7992 47.7992C48.9639 46.6344 49.9968 45.3888 50.9135 44.0863L47.7652 40.9381C47.2469 40.4197 46.3832 40.4736 45.9525 41.0666C45.2825 41.9891 44.5339 42.8715 43.7027 43.7027C42.8716 44.5339 41.9891 45.2825 41.0666 45.9525C40.4736 46.3832 40.4197 47.2468 40.9381 47.7652L44.0862 50.9134C45.3888 49.9967 46.6343 48.9639 47.7992 47.7992Z" fill="#EFF2FA"/>
<path d="M15.062 8.2347L11.9139 5.08667C10.6113 6.00334 9.36575 7.03617 8.2009 8.20091C7.03606 9.36564 6.00323 10.6113 5.08667 11.9138L8.2347 15.0619C8.75303 15.5802 9.61676 15.5264 10.0475 14.9334C10.7174 14.0109 11.4661 13.1285 12.2972 12.2972C13.1284 11.4661 14.0109 10.7174 14.9334 10.0475C15.5266 9.61677 15.5804 8.75314 15.062 8.2347Z" fill="#EFF2FA"/>
<path d="M5.69897 38.6858C6.4988 38.6858 7.1472 38.0374 7.1472 37.2375C7.1472 36.4377 6.4988 35.7893 5.69897 35.7893C4.89913 35.7893 4.25073 36.4377 4.25073 37.2375C4.25073 38.0374 4.89913 38.6858 5.69897 38.6858Z" fill="#EFF2FA"/>
<path d="M50.301 20.2107C51.1009 20.2107 51.7493 19.5623 51.7493 18.7624C51.7493 17.9626 51.1009 17.3142 50.301 17.3142C49.5012 17.3142 48.8528 17.9626 48.8528 18.7624C48.8528 19.5623 49.5012 20.2107 50.301 20.2107Z" fill="#EFF2FA"/>
<path d="M18.7624 7.1472C19.5623 7.1472 20.2107 6.4988 20.2107 5.69897C20.2107 4.89913 19.5623 4.25073 18.7624 4.25073C17.9626 4.25073 17.3142 4.89913 17.3142 5.69897C17.3142 6.4988 17.9626 7.1472 18.7624 7.1472Z" fill="#EFF2FA"/>
<path d="M37.2375 51.749C38.0374 51.749 38.6858 51.1006 38.6858 50.3008C38.6858 49.5009 38.0374 48.8525 37.2375 48.8525C36.4377 48.8525 35.7893 49.5009 35.7893 50.3008C35.7893 51.1006 36.4377 51.749 37.2375 51.749Z" fill="#EFF2FA"/>
<path d="M5.69897 20.2107C6.4988 20.2107 7.1472 19.5623 7.1472 18.7624C7.1472 17.9626 6.4988 17.3142 5.69897 17.3142C4.89913 17.3142 4.25073 17.9626 4.25073 18.7624C4.25073 19.5623 4.89913 20.2107 5.69897 20.2107Z" fill="#EFF2FA"/>
<path d="M50.301 38.6858C51.1009 38.6858 51.7493 38.0374 51.7493 37.2375C51.7493 36.4377 51.1009 35.7893 50.301 35.7893C49.5012 35.7893 48.8528 36.4377 48.8528 37.2375C48.8528 38.0374 49.5012 38.6858 50.301 38.6858Z" fill="#EFF2FA"/>
<path d="M37.2375 7.1472C38.0374 7.1472 38.6858 6.4988 38.6858 5.69897C38.6858 4.89913 38.0374 4.25073 37.2375 4.25073C36.4377 4.25073 35.7893 4.89913 35.7893 5.69897C35.7893 6.4988 36.4377 7.1472 37.2375 7.1472Z" fill="#EFF2FA"/>
<path d="M18.7624 51.749C19.5623 51.749 20.2107 51.1006 20.2107 50.3008C20.2107 49.5009 19.5623 48.8525 18.7624 48.8525C17.9626 48.8525 17.3142 49.5009 17.3142 50.3008C17.3142 51.1006 17.9626 51.749 18.7624 51.749Z" fill="#EFF2FA"/>
<path d="M44.2008 15.8594L42.5261 16.8262C43.5061 18.0983 44.332 19.4937 44.9543 20.9989L46.6374 20.0271C45.9959 18.5332 45.1656 17.1433 44.2008 15.8594Z" fill="#EFF2FA"/>
<path d="M35.0015 11.0457C36.5066 11.668 37.902 12.4938 39.1741 13.4738L40.141 11.7992C38.8569 10.8344 37.4672 10.004 35.9734 9.36255L35.0015 11.0457Z" fill="#EFF2FA"/>
<path d="M25.5862 7.88162V9.83211C26.3781 9.72776 27.1797 9.65514 28 9.65514C28.8203 9.65514 29.6219 9.72765 30.4138 9.832V7.88162C29.6207 7.7869 28.8181 7.72412 28 7.72412C27.1819 7.72412 26.3793 7.78679 25.5862 7.88162Z" fill="#EFF2FA"/>
<path d="M46.3449 28C46.3449 28.8203 46.2724 29.6219 46.1681 30.4138H48.1185C48.2132 29.6207 48.276 28.8181 48.276 28C48.276 27.1819 48.2131 26.3793 48.1185 25.5862H46.168C46.2724 26.3781 46.3449 27.1797 46.3449 28Z" fill="#EFF2FA"/>
<path d="M9.65514 28C9.65514 27.1797 9.72765 26.3781 9.832 25.5862H7.88162C7.7869 26.3793 7.72412 27.1819 7.72412 28C7.72412 28.8181 7.78701 29.6207 7.88162 30.4138H9.832C9.72765 29.6219 9.65514 28.8203 9.65514 28Z" fill="#EFF2FA"/>
<path d="M16.8261 13.4741C18.0982 12.4941 19.4936 11.6682 20.9988 11.046L20.027 9.36279C18.5332 10.0044 17.1433 10.8348 15.8594 11.7994L16.8261 13.4741Z" fill="#EFF2FA"/>
<path d="M46.6374 35.973L44.9543 35.0012C44.332 36.5063 43.5061 37.9016 42.5261 39.1737L44.2007 40.1405C45.1655 38.8567 45.9958 37.4669 46.6374 35.973Z" fill="#EFF2FA"/>
<path d="M30.4138 48.1182V46.1677C29.6219 46.2721 28.8203 46.3446 28 46.3446C27.1797 46.3446 26.3781 46.2721 25.5862 46.1677V48.1182C26.3793 48.2128 27.1819 48.2757 28 48.2757C28.8181 48.2757 29.6207 48.2128 30.4138 48.1182Z" fill="#EFF2FA"/>
<path d="M39.1739 42.5259C37.9018 43.5059 36.5064 44.3318 35.0012 44.954L35.973 46.6372C37.4668 45.9956 38.8567 45.1652 40.1406 44.2004L39.1739 42.5259Z" fill="#EFF2FA"/>
<path d="M20.9987 44.954C19.4936 44.3318 18.0981 43.5059 16.826 42.5259L15.8591 44.2004C17.1432 45.1652 18.5329 45.9956 20.0268 46.6372L20.9987 44.954Z" fill="#EFF2FA"/>
<path d="M13.4738 39.1739C12.4938 37.9019 11.6681 36.5066 11.0457 35.0015L9.36255 35.9733C10.004 37.4671 10.8345 38.8568 11.7992 40.1408L13.4738 39.1739Z" fill="#EFF2FA"/>
<path d="M9.36255 20.0269L11.0457 20.9987C11.668 19.4936 12.4938 18.0981 13.4738 16.826L11.7992 15.8591C10.8345 17.1433 10.0041 18.5331 9.36255 20.0269Z" fill="#EFF2FA"/>
</g>
<defs>
<clipPath id="clip0_266_3836">
<rect width="56" height="56" fill="white"/>
</clipPath>
</defs>
</svg>
