<svg width="60" height="60" viewBox="0 0 60 60" fill="none" xmlns="http://www.w3.org/2000/svg">
<g clip-path="url(#clip0_370_3994)">
<mask id="mask0_370_3994" style="mask-type:luminance" maskUnits="userSpaceOnUse" x="0" y="0" width="56" height="57">
<path d="M56 0H0V57H56V0Z" fill="white"/>
</mask>
<g mask="url(#mask0_370_3994)">
<path d="M28 57C43.464 57 56 44.2401 56 28.5C56 12.7599 43.464 0 28 0C12.536 0 0 12.7599 0 28.5C0 44.2401 12.536 57 28 57Z" fill="#DAA520"/>
<path d="M27.9997 45.2069C37.0648 45.2069 44.4135 37.727 44.4135 28.5C44.4135 19.273 37.0648 11.7931 27.9997 11.7931C18.9346 11.7931 11.5859 19.273 11.5859 28.5C11.5859 37.727 18.9346 45.2069 27.9997 45.2069Z" fill="#EFF2FA"/>
<path d="M27.9994 9.82756C38.131 9.82756 46.3443 18.1875 46.3443 28.5C46.3443 38.8124 38.131 47.1724 27.9994 47.1724C17.8679 47.1724 9.65465 38.8124 9.65465 28.5C9.65465 18.1875 17.8679 9.82756 27.9994 9.82756ZM27.9994 7.86205C16.8192 7.86205 7.72363 17.1201 7.72363 28.5C7.72363 39.8798 16.8192 49.1379 27.9994 49.1379C39.1796 49.1379 48.2753 39.8798 48.2753 28.5C48.2753 17.1201 39.1796 7.86205 27.9994 7.86205Z" fill="#FFAC33"/>
<path d="M28.0005 0C26.3533 0 24.7421 0.153077 23.1729 0.43084V4.96245C23.1729 5.70857 23.8216 6.29149 24.5456 6.17471C25.6716 5.99302 26.825 5.89661 28.0005 5.89661C29.1759 5.89661 30.3293 5.99302 31.4553 6.17471C32.1793 6.29149 32.828 5.70868 32.828 4.96245V0.43084C31.2588 0.153077 29.6476 0 28.0005 0Z" fill="#EFF2FA"/>
<path d="M23.1729 52.0375V56.5691C24.7421 56.8469 26.3533 57 28.0005 57C29.6476 57 31.2588 56.8469 32.828 56.5691V52.0375C32.828 51.2914 32.1793 50.7085 31.4553 50.8253C30.3293 51.007 29.1759 51.1033 28.0005 51.1033C26.825 51.1033 25.6716 51.007 24.5456 50.8253C23.8216 50.7085 23.1729 51.2914 23.1729 52.0375Z" fill="#EFF2FA"/>
<path d="M56 28.5C56 26.8234 55.8496 25.1834 55.5767 23.5862H51.1246C50.3916 23.5862 49.8189 24.2465 49.9336 24.9834C50.1121 26.1295 50.2068 27.3035 50.2068 28.5C50.2068 29.6964 50.1121 30.8704 49.9336 32.0165C49.8189 32.7534 50.3915 33.4137 51.1246 33.4137H55.5767C55.8496 31.8165 56 30.1765 56 28.5Z" fill="#EFF2FA"/>
<path d="M4.87539 23.5862H0.423281C0.150391 25.1834 0 26.8234 0 28.5C0 30.1765 0.150391 31.8165 0.423281 33.4137H4.87539C5.60842 33.4137 6.18111 32.7534 6.06637 32.0165C5.88787 30.8704 5.79316 29.6964 5.79316 28.5C5.79316 27.3035 5.88787 26.1295 6.06637 24.9834C6.18111 24.2465 5.60842 23.5862 4.87539 23.5862Z" fill="#EFF2FA"/>
<path d="M47.7994 8.34747C46.6346 7.16193 45.389 6.11054 44.0865 5.1775L40.9383 8.38186C40.4199 8.90944 40.4738 9.7886 41.0668 10.227C41.9893 10.9089 42.8717 11.671 43.7029 12.5169C44.5341 13.3629 45.2827 14.2612 45.9527 15.2002C46.3834 15.8038 47.247 15.8585 47.7654 15.331L50.9136 12.1266C49.9969 10.8009 48.9641 9.53311 47.7994 8.34747Z" fill="#EFF2FA"/>
<path d="M8.23505 41.6689L5.08691 44.8733C6.00358 46.1989 7.03652 47.4669 8.20125 48.6525C9.36599 49.838 10.6116 50.8893 11.9141 51.8224L15.0622 48.618C15.5805 48.0904 15.5267 47.2113 14.9337 46.7729C14.0112 46.091 13.1288 45.3289 12.2975 44.4829C11.4664 43.637 10.7177 42.7387 10.0478 41.7997C9.61711 41.1961 8.75349 41.1412 8.23505 41.6689Z" fill="#EFF2FA"/>
<path d="M47.7994 48.6528C48.9641 47.4672 49.997 46.1993 50.9137 44.8736L47.7654 41.6691C47.2471 41.1415 46.3834 41.1963 45.9527 41.7999C45.2827 42.7389 44.5341 43.6371 43.7029 44.4831C42.8718 45.3292 41.9893 46.0911 41.0668 46.7731C40.4738 47.2115 40.4199 48.0905 40.9383 48.6182L44.0864 51.8226C45.389 50.8895 46.6345 49.8383 47.7994 48.6528Z" fill="#EFF2FA"/>
<path d="M15.0622 8.38175L11.9141 5.1775C10.6115 6.11054 9.36599 7.16181 8.20114 8.34735C7.0363 9.53288 6.00347 10.8008 5.08691 12.1265L8.23494 15.3309C8.75327 15.8584 9.617 15.8037 10.0477 15.2001C10.7176 14.2611 11.4663 13.3629 12.2974 12.5168C13.1286 11.6709 14.0111 10.9088 14.9336 10.2269C15.5268 9.7885 15.5806 8.90944 15.0622 8.38175Z" fill="#EFF2FA"/>
<path d="M5.69922 39.3766C6.49905 39.3766 7.14745 38.7166 7.14745 37.9025C7.14745 37.0884 6.49905 36.4284 5.69922 36.4284C4.89938 36.4284 4.25098 37.0884 4.25098 37.9025C4.25098 38.7166 4.89938 39.3766 5.69922 39.3766Z" fill="#EFF2FA"/>
<path d="M50.3007 20.5716C51.1006 20.5716 51.749 19.9116 51.749 19.0974C51.749 18.2834 51.1006 17.6234 50.3007 17.6234C49.5009 17.6234 48.8525 18.2834 48.8525 19.0974C48.8525 19.9116 49.5009 20.5716 50.3007 20.5716Z" fill="#EFF2FA"/>
<path d="M18.7627 7.27483C19.5626 7.27483 20.211 6.61485 20.211 5.80074C20.211 4.98662 19.5626 4.32664 18.7627 4.32664C17.9629 4.32664 17.3145 4.98662 17.3145 5.80074C17.3145 6.61485 17.9629 7.27483 18.7627 7.27483Z" fill="#EFF2FA"/>
<path d="M37.2373 52.6734C38.0372 52.6734 38.6856 52.0134 38.6856 51.1992C38.6856 50.3852 38.0372 49.7252 37.2373 49.7252C36.4375 49.7252 35.7891 50.3852 35.7891 51.1992C35.7891 52.0134 36.4375 52.6734 37.2373 52.6734Z" fill="#EFF2FA"/>
<path d="M5.69922 20.5716C6.49905 20.5716 7.14745 19.9116 7.14745 19.0974C7.14745 18.2834 6.49905 17.6234 5.69922 17.6234C4.89938 17.6234 4.25098 18.2834 4.25098 19.0974C4.25098 19.9116 4.89938 20.5716 5.69922 20.5716Z" fill="#EFF2FA"/>
<path d="M50.3007 39.3766C51.1006 39.3766 51.749 38.7166 51.749 37.9025C51.749 37.0884 51.1006 36.4284 50.3007 36.4284C49.5009 36.4284 48.8525 37.0884 48.8525 37.9025C48.8525 38.7166 49.5009 39.3766 50.3007 39.3766Z" fill="#EFF2FA"/>
<path d="M37.2373 7.27483C38.0372 7.27483 38.6856 6.61485 38.6856 5.80074C38.6856 4.98662 38.0372 4.32664 37.2373 4.32664C36.4375 4.32664 35.7891 4.98662 35.7891 5.80074C35.7891 6.61485 36.4375 7.27483 37.2373 7.27483Z" fill="#EFF2FA"/>
<path d="M18.7627 52.6734C19.5626 52.6734 20.211 52.0134 20.211 51.1992C20.211 50.3852 19.5626 49.7252 18.7627 49.7252C17.9629 49.7252 17.3145 50.3852 17.3145 51.1992C17.3145 52.0134 17.9629 52.6734 18.7627 52.6734Z" fill="#EFF2FA"/>
<path d="M44.2011 16.1426L42.5264 17.1267C43.5064 18.4215 44.3323 19.8418 44.9546 21.3739L46.6377 20.3847C45.9962 18.8641 45.1659 17.4494 44.2011 16.1426Z" fill="#EFF2FA"/>
<path d="M35.002 11.2429C36.5071 11.8764 37.9025 12.7169 39.1746 13.7144L40.1415 12.0099C38.8574 11.0279 37.4677 10.1826 35.9739 9.52974L35.002 11.2429Z" fill="#EFF2FA"/>
<path d="M25.5859 8.02237V10.0077C26.3778 9.90147 27.1794 9.82756 27.9997 9.82756C28.82 9.82756 29.6216 9.90136 30.4135 10.0076V8.02237C29.6204 7.92595 28.8178 7.86205 27.9997 7.86205C27.1816 7.86205 26.379 7.92584 25.5859 8.02237Z" fill="#EFF2FA"/>
<path d="M46.3449 28.5C46.3449 29.3349 46.2724 30.1509 46.1681 30.9569H48.1185C48.2132 30.1496 48.276 29.3327 48.276 28.5C48.276 27.6673 48.2131 26.8504 48.1185 26.0431H46.168C46.2724 26.8491 46.3449 27.6651 46.3449 28.5Z" fill="#EFF2FA"/>
<path d="M9.65465 28.5C9.65465 27.6651 9.72716 26.8491 9.83151 26.0431H7.88113C7.78641 26.8504 7.72363 27.6673 7.72363 28.5C7.72363 29.3327 7.78652 30.1496 7.88113 30.9569H9.83151C9.72716 30.1509 9.65465 29.3349 9.65465 28.5Z" fill="#EFF2FA"/>
<path d="M16.8261 13.7147C18.0982 12.7172 19.4936 11.8766 20.9988 11.2433L20.027 9.52998C18.5332 10.1831 17.1433 11.0283 15.8594 12.0101L16.8261 13.7147Z" fill="#EFF2FA"/>
<path d="M46.6377 36.6154L44.9546 35.6262C44.3323 37.1582 43.5064 38.5784 42.5264 39.8732L44.201 40.8573C45.1658 39.5506 45.9961 38.1359 46.6377 36.6154Z" fill="#EFF2FA"/>
<path d="M30.4135 48.9775V46.9921C29.6216 47.0984 28.82 47.1722 27.9997 47.1722C27.1794 47.1722 26.3778 47.0984 25.5859 46.9921V48.9775C26.379 49.0737 27.1816 49.1378 27.9997 49.1378C28.8178 49.1378 29.6204 49.0737 30.4135 48.9775Z" fill="#EFF2FA"/>
<path d="M39.1737 43.2853C37.9016 44.2828 36.5062 45.1234 35.001 45.7567L35.9728 47.47C37.4666 46.817 38.8565 45.9717 40.1404 44.9897L39.1737 43.2853Z" fill="#EFF2FA"/>
<path d="M20.999 45.7567C19.4939 45.1234 18.0984 44.2828 16.8263 43.2853L15.8594 44.9897C17.1435 45.9717 18.5332 46.817 20.0271 47.47L20.999 45.7567Z" fill="#EFF2FA"/>
<path d="M13.4736 39.8734C12.4936 38.5787 11.6679 37.1585 11.0455 35.6265L9.3623 36.6157C10.0038 38.1362 10.8343 39.5507 11.799 40.8576L13.4736 39.8734Z" fill="#EFF2FA"/>
<path d="M9.3623 20.3845L11.0455 21.3737C11.6678 19.8417 12.4936 18.4213 13.4736 17.1265L11.799 16.1423C10.8343 17.4494 10.0039 18.864 9.3623 20.3845Z" fill="#EFF2FA"/>
</g>
</g>
<defs>
<clipPath id="clip0_370_3994">
<rect width="56" height="57" fill="white"/>
</clipPath>
</defs>
</svg>
