<svg width="37" height="37" viewBox="0 0 37 37" fill="none" xmlns="http://www.w3.org/2000/svg">
<path d="M23.4326 22.1206H21.9646V24.1591H23.4326V22.1206Z" fill="#FA8A00"/>
<path d="M6.1916 22.1206H4.72363V24.1591H6.1916V22.1206Z" fill="#FA8A00"/>
<path d="M14.0781 29.1284C19.2435 29.1284 23.4309 26.9036 23.4309 24.1592C23.4309 21.4149 19.2435 19.1901 14.0781 19.1901C8.91272 19.1901 4.72534 21.4149 4.72534 24.1592C4.72534 26.9036 8.91272 29.1284 14.0781 29.1284Z" fill="#FA8A00"/>
<path d="M14.0781 27.0899C19.2435 27.0899 23.4309 24.8651 23.4309 22.1207C23.4309 19.3763 19.2435 17.1516 14.0781 17.1516C8.91272 17.1516 4.72534 19.3763 4.72534 22.1207C4.72534 24.8651 8.91272 27.0899 14.0781 27.0899Z" fill="#FFCA00"/>
<path d="M14.0781 25.6108C18.2532 25.6108 21.6379 24.0482 21.6379 22.1207C21.6379 20.1931 18.2532 18.6305 14.0781 18.6305C9.90294 18.6305 6.51831 20.1931 6.51831 22.1207C6.51831 24.0482 9.90294 25.6108 14.0781 25.6108Z" fill="#FA8A00"/>
<path d="M14.0773 25.6101C18.2529 25.6101 21.6379 24.0901 21.6379 22.215C21.6379 20.34 18.2529 18.82 14.0773 18.82C9.90162 18.82 6.5166 20.34 6.5166 22.215C6.5166 24.0901 9.90162 25.6101 14.0773 25.6101Z" fill="#FFE700"/>
<path d="M14.0781 25.3547C18.2543 25.3547 21.6397 23.8919 21.6397 22.0874C21.6397 20.2829 18.2543 18.82 14.0781 18.82C9.90202 18.82 6.5166 20.2829 6.5166 22.0874C6.5166 23.8919 9.90202 25.3547 14.0781 25.3547Z" fill="#FF9F00"/>
<path d="M13.4465 21.5405C12.3336 22.1172 11.99 22.1891 11.7223 22.1189C11.4715 22.0529 11.3549 21.8215 11.8372 21.3905C12.2014 21.0734 12.6199 20.8202 13.0737 20.6424L13.4332 20.4933L12.5314 19.8455L12.1914 19.9792C11.7311 20.1591 11.297 20.3965 10.9 20.6853L9.91874 20.4368L8.87915 21.2937L9.95495 21.5747C9.3773 22.3537 9.60165 23.0272 10.5882 23.2988C11.8584 23.6467 13.185 23.0589 14.3792 22.3965C15.387 21.8481 15.7844 21.8421 16.0432 21.9072C16.4504 22.01 16.4575 22.3734 16.0503 22.7975C15.6308 23.2125 15.1291 23.5407 14.5753 23.7624L14.1336 23.9432L15.2236 24.7547L15.5769 24.6116C16.1842 24.3525 16.7409 23.9936 17.2224 23.5507L18.405 23.8609L19.2759 22.8627L18.0394 22.5499C18.496 21.6262 17.8733 21.0272 17.0192 20.8198C15.6899 20.4968 14.4277 21.0272 13.4465 21.5405Z" fill="#FFCA00"/>
<g style="mix-blend-mode:soft-light">
<g style="mix-blend-mode:soft-light">
<path d="M18.0438 22.5499C18.375 21.8806 18.1321 21.3845 17.6551 21.0811L16.3408 22.3057C16.2956 22.4946 16.1942 22.6664 16.0494 22.8001C15.7367 23.1133 15.3744 23.376 14.9762 23.5781L14.3835 24.13L15.2262 24.7581L15.5795 24.615C15.8362 24.5075 16.0832 24.3794 16.3179 24.232L18.1073 22.5627L18.0438 22.5499Z" fill="white"/>
</g>
<g style="mix-blend-mode:soft-light">
<path d="M13.4464 21.5405C12.633 21.9613 12.2329 22.1121 11.9705 22.1361L10.6978 23.322C11.9343 23.6082 13.2186 23.0427 14.3783 22.3991C14.6498 22.2467 14.9333 22.1155 15.2262 22.0067L16.5793 20.7462C15.4117 20.6194 14.3182 21.0847 13.4464 21.5405Z" fill="white"/>
</g>
<g style="mix-blend-mode:soft-light">
<path d="M11.8374 21.3906C12.0599 21.1924 12.3053 21.0199 12.5687 20.8764L13.179 20.3083L12.5307 19.8422L12.3541 19.9099L9.64868 22.4386C9.67253 22.7179 9.84477 22.9527 10.1601 23.1241L11.5106 21.8644C11.5203 21.7496 11.6113 21.5928 11.8374 21.3906Z" fill="white"/>
</g>
</g>
<g style="mix-blend-mode:soft-light">
<g style="mix-blend-mode:soft-light">
<path d="M14.9527 18.6579L16.3994 17.3092C16.024 17.2577 15.6478 17.2235 15.2724 17.196L13.7302 18.6339C14.1339 18.6254 14.5428 18.6356 14.9527 18.6579Z" fill="white"/>
</g>
<g style="mix-blend-mode:soft-light">
<path d="M14.8661 25.5885C14.1929 25.6218 13.5181 25.6132 12.8461 25.5628L11.4329 26.8816C11.5097 26.8936 11.5821 26.909 11.6599 26.9201C11.9337 26.9595 12.2092 26.9887 12.4839 27.0144C12.7586 27.0401 13.0139 27.0547 13.2789 27.0667H13.2842L14.8661 25.5885Z" fill="white"/>
</g>
<g style="mix-blend-mode:soft-light">
<path d="M8.64161 24.5405C8.3715 24.4128 8.11116 24.2664 7.86259 24.1026L6.71436 25.1746C6.95815 25.3405 7.21114 25.4932 7.47218 25.6322L8.64161 24.5405Z" fill="white"/>
</g>
<g style="mix-blend-mode:soft-light">
<path d="M10.2467 26.6477L11.5716 25.4095C10.7418 25.2818 9.92924 25.0651 9.14878 24.7634L7.95728 25.8731C8.69149 26.2056 9.45854 26.4651 10.2467 26.6477Z" fill="white"/>
</g>
<g style="mix-blend-mode:soft-light">
<path d="M19.2644 19.5808C19.7149 19.7733 20.1401 20.0172 20.531 20.3075L21.6863 19.2304C21.4985 19.091 21.3037 18.9609 21.1025 18.8405C20.8958 18.7162 20.6767 18.5971 20.4471 18.4832L19.2644 19.5808Z" fill="white"/>
</g>
<g style="mix-blend-mode:soft-light">
<path d="M16.0345 18.7497C16.7792 18.8388 17.5143 18.9916 18.2312 19.2064L19.4598 18.0616C18.6749 17.7724 17.8637 17.5552 17.037 17.4129L15.645 18.7068C15.7749 18.7231 15.9047 18.7334 16.0345 18.7497Z" fill="white"/>
</g>
</g>
<path d="M23.4326 19.5011H21.9646V21.5397H23.4326V19.5011Z" fill="#FA8A00"/>
<path d="M6.1916 19.5011H4.72363V21.5397H6.1916V19.5011Z" fill="#FA8A00"/>
<path d="M14.0781 26.5089C19.2435 26.5089 23.4309 24.2842 23.4309 21.5398C23.4309 18.7954 19.2435 16.5706 14.0781 16.5706C8.91272 16.5706 4.72534 18.7954 4.72534 21.5398C4.72534 24.2842 8.91272 26.5089 14.0781 26.5089Z" fill="#FA8A00"/>
<path d="M14.0781 24.4704C19.2435 24.4704 23.4309 22.2456 23.4309 19.5013C23.4309 16.7569 19.2435 14.5321 14.0781 14.5321C8.91272 14.5321 4.72534 16.7569 4.72534 19.5013C4.72534 22.2456 8.91272 24.4704 14.0781 24.4704Z" fill="#FFCA00"/>
<path d="M14.0781 22.9914C18.2532 22.9914 21.6379 21.4288 21.6379 19.5012C21.6379 17.5737 18.2532 16.0111 14.0781 16.0111C9.90294 16.0111 6.51831 17.5737 6.51831 19.5012C6.51831 21.4288 9.90294 22.9914 14.0781 22.9914Z" fill="#FA8A00"/>
<path d="M14.0773 22.9904C18.2529 22.9904 21.6379 21.4704 21.6379 19.5953C21.6379 17.7203 18.2529 16.2003 14.0773 16.2003C9.90162 16.2003 6.5166 17.7203 6.5166 19.5953C6.5166 21.4704 9.90162 22.9904 14.0773 22.9904Z" fill="#FFE700"/>
<path d="M14.0781 22.735C18.2543 22.735 21.6397 21.2722 21.6397 19.4677C21.6397 17.6632 18.2543 16.2003 14.0781 16.2003C9.90202 16.2003 6.5166 17.6632 6.5166 19.4677C6.5166 21.2722 9.90202 22.735 14.0781 22.735Z" fill="#FF9F00"/>
<path d="M13.4465 18.921C12.3336 19.4977 11.99 19.5697 11.7223 19.4994C11.4715 19.4334 11.3549 19.202 11.8372 18.771C12.2014 18.4539 12.6199 18.2008 13.0737 18.023L13.4332 17.8739L12.5314 17.226L12.1914 17.3597C11.7313 17.54 11.2972 17.7773 10.9 18.0658L9.91874 17.8173L8.87915 18.6742L9.95495 18.9553C9.3773 19.7342 9.60165 20.4077 10.5882 20.6793C11.8584 21.0272 13.185 20.4394 14.3792 19.777C15.387 19.2286 15.7844 19.2226 16.0432 19.2877C16.4504 19.3906 16.4575 19.7539 16.0503 20.1781C15.6312 20.5932 15.1297 20.9217 14.5761 21.1438L14.1345 21.3246L15.2244 22.1361L15.5777 21.993C16.1865 21.7351 16.7447 21.3771 17.2277 20.9347L18.4103 21.2449L19.2786 20.2432L18.042 19.9304C18.4987 19.0067 17.876 18.4077 17.0219 18.2003C15.6899 17.8773 14.4278 18.4077 13.4465 18.921Z" fill="#FFCA00"/>
<g style="mix-blend-mode:soft-light">
<g style="mix-blend-mode:soft-light">
<path d="M18.0438 19.9304C18.375 19.2612 18.1321 18.765 17.6551 18.4617L16.3408 19.6862C16.2956 19.8751 16.1942 20.047 16.0494 20.1806C15.7367 20.4939 15.3744 20.7565 14.9762 20.9587L14.3835 21.5105L15.2262 22.1386L15.5795 21.9955C15.8362 21.888 16.0832 21.7599 16.3179 21.6125L18.1047 19.9467L18.0438 19.9304Z" fill="white"/>
</g>
<g style="mix-blend-mode:soft-light">
<path d="M13.4464 18.921C12.633 19.3417 12.2329 19.4925 11.9705 19.5165L10.6978 20.7025C11.9343 20.9887 13.2186 20.4231 14.3783 19.7796C14.6498 19.6272 14.9333 19.4959 15.2262 19.3871L16.5793 18.1266C15.4117 17.9998 14.3182 18.4651 13.4464 18.921Z" fill="white"/>
</g>
<g style="mix-blend-mode:soft-light">
<path d="M11.8374 18.771C12.0599 18.574 12.3053 18.4029 12.5687 18.2612L13.179 17.6922L12.5307 17.226L12.3541 17.2937L9.64868 19.8207C9.67253 20.1001 9.84477 20.3349 10.1601 20.5062L11.5106 19.2466C11.5203 19.1301 11.6113 18.9733 11.8374 18.771Z" fill="white"/>
</g>
</g>
<g style="mix-blend-mode:soft-light">
<g style="mix-blend-mode:soft-light">
<path d="M14.9529 16.0384L16.3997 14.6896C16.0243 14.6382 15.648 14.604 15.2726 14.5765L13.7305 16.0144C14.1341 16.0058 14.5431 16.0161 14.9529 16.0384Z" fill="white"/>
</g>
<g style="mix-blend-mode:soft-light">
<path d="M14.8661 22.969C14.1929 23.0023 13.5181 22.9937 12.8461 22.9433L11.4329 24.2621C11.5097 24.2741 11.5821 24.2895 11.6599 24.3007C11.9337 24.3401 12.2092 24.3692 12.4839 24.3949C12.7586 24.4206 13.0139 24.4352 13.2789 24.448H13.2842L14.8661 22.969Z" fill="white"/>
</g>
<g style="mix-blend-mode:soft-light">
<path d="M8.64161 21.921C8.3715 21.7933 8.11116 21.647 7.86259 21.4832L6.71436 22.5551C6.95815 22.721 7.21114 22.8737 7.47218 23.0127L8.64161 21.921Z" fill="white"/>
</g>
<g style="mix-blend-mode:soft-light">
<path d="M10.2467 24.0282L11.5716 22.79C10.7418 22.6623 9.92924 22.4456 9.14878 22.1439L7.95728 23.2536C8.69149 23.5861 9.45854 23.8456 10.2467 24.0282Z" fill="white"/>
</g>
<g style="mix-blend-mode:soft-light">
<path d="M19.2644 16.9612C19.7149 17.1537 20.1401 17.3976 20.531 17.6879L21.6863 16.6108C21.4985 16.4714 21.3037 16.3413 21.1025 16.2209C20.8958 16.0966 20.6767 15.9775 20.4471 15.8636L19.2644 16.9612Z" fill="white"/>
</g>
<g style="mix-blend-mode:soft-light">
<path d="M16.0345 16.1302C16.7792 16.2193 17.5143 16.3722 18.2312 16.5869L19.4598 15.4421C18.6749 15.1529 17.8637 14.9357 17.037 14.7935L15.645 16.0917C15.7749 16.1037 15.9047 16.1139 16.0345 16.1302Z" fill="white"/>
</g>
</g>
<path d="M23.4326 16.8592H21.9646V18.8978H23.4326V16.8592Z" fill="#FA8A00"/>
<path d="M6.1916 16.8592H4.72363V18.8978H6.1916V16.8592Z" fill="#FA8A00"/>
<path d="M14.0781 23.867C19.2435 23.867 23.4309 21.6422 23.4309 18.8979C23.4309 16.1535 19.2435 13.9287 14.0781 13.9287C8.91272 13.9287 4.72534 16.1535 4.72534 18.8979C4.72534 21.6422 8.91272 23.867 14.0781 23.867Z" fill="#FA8A00"/>
<path d="M14.0781 21.8285C19.2435 21.8285 23.4309 19.6037 23.4309 16.8593C23.4309 14.115 19.2435 11.8902 14.0781 11.8902C8.91272 11.8902 4.72534 14.115 4.72534 16.8593C4.72534 19.6037 8.91272 21.8285 14.0781 21.8285Z" fill="#FFCA00"/>
<path d="M14.0781 20.3494C18.2532 20.3494 21.6379 18.7868 21.6379 16.8593C21.6379 14.9317 18.2532 13.3691 14.0781 13.3691C9.90294 13.3691 6.51831 14.9317 6.51831 16.8593C6.51831 18.7868 9.90294 20.3494 14.0781 20.3494Z" fill="#FA8A00"/>
<path d="M14.0773 20.3495C18.2529 20.3495 21.6379 18.8295 21.6379 16.9545C21.6379 15.0795 18.2529 13.5595 14.0773 13.5595C9.90162 13.5595 6.5166 15.0795 6.5166 16.9545C6.5166 18.8295 9.90162 20.3495 14.0773 20.3495Z" fill="#FFE700"/>
<path d="M14.0781 20.0942C18.2543 20.0942 21.6397 18.6313 21.6397 16.8268C21.6397 15.0223 18.2543 13.5595 14.0781 13.5595C9.90202 13.5595 6.5166 15.0223 6.5166 16.8268C6.5166 18.6313 9.90202 20.0942 14.0781 20.0942Z" fill="#FF9F00"/>
<path d="M13.4465 16.2791C12.3336 16.8558 11.99 16.9278 11.7223 16.8575C11.4715 16.7915 11.3549 16.5601 11.8372 16.13C12.2017 15.8129 12.6201 15.5596 13.0737 15.3811L13.4332 15.2328L12.5314 14.5841L12.1914 14.7178C11.7315 14.8984 11.2974 15.1357 10.9 15.4239L9.91874 15.1763L8.87915 16.0331L9.95495 16.3151C9.3773 17.0931 9.60165 17.7667 10.5882 18.0383C11.8584 18.387 13.185 17.7984 14.3792 17.1368C15.387 16.5884 15.7844 16.5816 16.0432 16.6475C16.4504 16.7504 16.4575 17.1128 16.0503 17.5379C15.6311 17.9528 15.1296 18.281 14.5761 18.5027L14.1345 18.6835L15.2244 19.4959L15.5777 19.3519C16.1852 19.0935 16.742 18.7348 17.2233 18.2919L18.4059 18.6021L19.2742 17.5996L18.0376 17.2876C18.4943 16.3639 17.8716 15.7641 17.0175 15.5567C15.6899 15.2362 14.4278 15.7658 13.4465 16.2791Z" fill="#FFCA00"/>
<g style="mix-blend-mode:soft-light">
<g style="mix-blend-mode:soft-light">
<path d="M18.0438 17.2896C18.375 16.6195 18.1321 16.1234 17.6551 15.8209L16.3408 17.0446C16.2954 17.2337 16.1941 17.4058 16.0494 17.5399C15.7369 17.853 15.3745 18.1155 14.9762 18.3171L14.3835 18.8698L15.2262 19.4979L15.5795 19.3539C15.8363 19.2467 16.0834 19.1186 16.3179 18.9709L18.1047 17.3051L18.0438 17.2896Z" fill="white"/>
</g>
<g style="mix-blend-mode:soft-light">
<path d="M13.4464 16.2793C12.633 16.7009 12.2329 16.8509 11.9705 16.8749L10.6978 18.0608C11.9343 18.347 13.2186 17.7815 14.3783 17.1388C14.6498 16.9862 14.9333 16.8547 15.2262 16.7455L16.5793 15.485C15.4117 15.3582 14.3182 15.8235 13.4464 16.2793Z" fill="white"/>
</g>
<g style="mix-blend-mode:soft-light">
<path d="M11.8374 16.1294C12.0601 15.9326 12.3055 15.7616 12.5687 15.6195L13.179 15.0505L12.5307 14.5844L12.3541 14.6529L9.64868 17.1782C9.67253 17.4576 9.84477 17.6923 10.1601 17.8637L11.5106 16.6049C11.5203 16.4884 11.6113 16.3316 11.8374 16.1294Z" fill="white"/>
</g>
</g>
<g style="mix-blend-mode:soft-light">
<g style="mix-blend-mode:soft-light">
<path d="M14.9527 13.3941L16.3994 12.0454C16.024 11.9939 15.6478 11.9597 15.2724 11.9331L13.7302 13.371C14.1339 13.365 14.5428 13.3744 14.9527 13.3941Z" fill="white"/>
</g>
<g style="mix-blend-mode:soft-light">
<path d="M14.8661 20.3272C14.1929 20.3612 13.5181 20.3529 12.8461 20.3024L11.4329 21.6203C11.5097 21.6323 11.5821 21.6486 11.6599 21.6597C11.9337 21.6983 12.2092 21.7282 12.4839 21.7531C12.7586 21.7779 13.0139 21.7942 13.2789 21.8062H13.2842L14.8661 20.3272Z" fill="white"/>
</g>
<g style="mix-blend-mode:soft-light">
<path d="M8.64161 19.2793C8.37152 19.1519 8.11118 19.0058 7.86259 18.8423L6.71436 19.9134C6.95795 20.0796 7.21095 20.2324 7.47218 20.371L8.64161 19.2793Z" fill="white"/>
</g>
<g style="mix-blend-mode:soft-light">
<path d="M10.2467 21.3864L11.5716 20.149C10.7417 20.0215 9.92906 19.8045 9.14878 19.5021L7.95728 20.616C8.69166 20.9471 9.45871 21.2052 10.2467 21.3864Z" fill="white"/>
</g>
<g style="mix-blend-mode:soft-light">
<path d="M19.2644 14.3204C19.7151 14.5125 20.1403 14.7564 20.531 15.047L21.6863 13.9699C21.4986 13.8302 21.3037 13.6998 21.1025 13.5792C20.8958 13.4549 20.6767 13.3358 20.4471 13.2218L19.2644 14.3204Z" fill="white"/>
</g>
<g style="mix-blend-mode:soft-light">
<path d="M16.0345 13.4884C16.7791 13.5779 17.5142 13.7307 18.2312 13.9451L19.4598 12.8003C18.6749 12.5111 17.8637 12.2939 17.037 12.1516L15.645 13.4498C15.7749 13.4627 15.9047 13.4721 16.0345 13.4884Z" fill="white"/>
</g>
</g>
<path d="M23.4326 14.2295H21.9646V16.2681H23.4326V14.2295Z" fill="#FA8A00"/>
<path d="M6.1916 14.2295H4.72363V16.2681H6.1916V14.2295Z" fill="#FA8A00"/>
<path d="M14.0781 21.238C19.2435 21.238 23.4309 19.0133 23.4309 16.2689C23.4309 13.5245 19.2435 11.2997 14.0781 11.2997C8.91272 11.2997 4.72534 13.5245 4.72534 16.2689C4.72534 19.0133 8.91272 21.238 14.0781 21.238Z" fill="#FA8A00"/>
<path d="M14.0781 19.1986C19.2435 19.1986 23.4309 16.9739 23.4309 14.2295C23.4309 11.4851 19.2435 9.26035 14.0781 9.26035C8.91272 9.26035 4.72534 11.4851 4.72534 14.2295C4.72534 16.9739 8.91272 19.1986 14.0781 19.1986Z" fill="#FFCA00"/>
<path d="M14.0781 17.7196C18.2532 17.7196 21.6379 16.157 21.6379 14.2295C21.6379 12.3019 18.2532 10.7393 14.0781 10.7393C9.90294 10.7393 6.51831 12.3019 6.51831 14.2295C6.51831 16.157 9.90294 17.7196 14.0781 17.7196Z" fill="#FA8A00"/>
<path d="M14.0773 17.7197C18.2529 17.7197 21.6379 16.1997 21.6379 14.3247C21.6379 12.4497 18.2529 10.9297 14.0773 10.9297C9.90162 10.9297 6.5166 12.4497 6.5166 14.3247C6.5166 16.1997 9.90162 17.7197 14.0773 17.7197Z" fill="#FFE700"/>
<path d="M14.0781 17.4644C18.2543 17.4644 21.6397 16.0015 21.6397 14.197C21.6397 12.3925 18.2543 10.9297 14.0781 10.9297C9.90202 10.9297 6.5166 12.3925 6.5166 14.197C6.5166 16.0015 9.90202 17.4644 14.0781 17.4644Z" fill="#FF9F00"/>
<path d="M13.4465 13.6511C12.3336 14.2278 11.99 14.2998 11.7223 14.2295C11.4715 14.1644 11.3549 13.9322 11.8372 13.502C12.2014 13.1849 12.6199 12.9317 13.0737 12.7539L13.4332 12.6048L12.5314 11.9561L12.1914 12.0907C11.7313 12.2706 11.2973 12.5077 10.9 12.7959L9.91874 12.5483L8.87915 13.4052L9.95495 13.6871C9.3773 14.4651 9.60165 15.1395 10.5882 15.4112C11.8584 15.7591 13.185 15.1704 14.3792 14.5088C15.387 13.9604 15.7844 13.9544 16.0432 14.0196C16.4504 14.1224 16.4575 14.4849 16.0503 14.9099C15.6313 15.3264 15.1295 15.6561 14.5753 15.879L14.1336 16.0598L15.2236 16.8722L15.5769 16.7291C16.1842 16.47 16.7409 16.1111 17.2224 15.6682L18.405 15.9784L19.2733 14.9767L18.0367 14.6639C18.4934 13.7402 17.8707 13.1404 17.0166 12.9339C15.6899 12.6065 14.4277 13.137 13.4465 13.6511Z" fill="#FFCA00"/>
<g style="mix-blend-mode:soft-light">
<g style="mix-blend-mode:soft-light">
<path d="M18.0438 14.6597C18.375 13.9905 18.1321 13.4935 17.6551 13.191L16.3408 14.4146C16.2954 14.6037 16.1941 14.7759 16.0494 14.9099C15.7369 15.2231 15.3745 15.4855 14.9762 15.6871L14.3835 16.2398L15.2262 16.8679L15.5795 16.7248C15.8362 16.617 16.0832 16.4886 16.3179 16.3409L18.1073 14.6794L18.0438 14.6597Z" fill="white"/>
</g>
<g style="mix-blend-mode:soft-light">
<path d="M13.4464 13.651C12.633 14.0726 12.2329 14.2234 11.9705 14.2465L10.6978 15.4325C11.9343 15.7195 13.2186 15.1531 14.3783 14.5104C14.65 14.3582 14.9335 14.2267 15.2262 14.1171L16.5793 12.8566C15.4117 12.7281 14.3182 13.1942 13.4464 13.651Z" fill="white"/>
</g>
<g style="mix-blend-mode:soft-light">
<path d="M11.8374 13.5002C12.0597 13.3018 12.3051 13.1292 12.5687 12.9861L13.179 12.4171L12.5307 11.951L12.3541 12.0195L9.64868 14.5482C9.67253 14.8276 9.84477 15.0624 10.1601 15.2337L11.5106 13.9749C11.5203 13.8584 11.6113 13.7025 11.8374 13.5002Z" fill="white"/>
</g>
</g>
<g style="mix-blend-mode:soft-light">
<g style="mix-blend-mode:soft-light">
<path d="M14.9527 10.7669L16.3994 9.4181C16.024 9.36754 15.6478 9.33241 15.2724 9.30585L13.7302 10.7437C14.1339 10.7377 14.5428 10.7446 14.9527 10.7669Z" fill="white"/>
</g>
<g style="mix-blend-mode:soft-light">
<path d="M14.8661 17.6975C14.1929 17.7315 13.5181 17.7232 12.8461 17.6726L11.4329 18.9914C11.5097 19.0034 11.5821 19.0188 11.6599 19.0299C11.9337 19.0694 12.2092 19.0985 12.4839 19.1233C12.7586 19.1482 13.0139 19.1645 13.2789 19.1765H13.2842L14.8661 17.6975Z" fill="white"/>
</g>
<g style="mix-blend-mode:soft-light">
<path d="M8.64161 16.6503C8.37152 16.5229 8.11118 16.3768 7.86259 16.2133L6.71436 17.2844C6.95817 17.45 7.21116 17.6025 7.47218 17.7411L8.64161 16.6503Z" fill="white"/>
</g>
<g style="mix-blend-mode:soft-light">
<path d="M10.2467 18.7574L11.5716 17.5192C10.7417 17.3916 9.92906 17.1746 9.14878 16.8722L7.95728 17.9862C8.69178 18.3171 9.45879 18.5755 10.2467 18.7574Z" fill="white"/>
</g>
<g style="mix-blend-mode:soft-light">
<path d="M19.2644 11.6906C19.7151 11.8827 20.1403 12.1266 20.531 12.4172L21.6863 11.3375C21.4986 11.1979 21.3037 11.0675 21.1025 10.9468C20.8958 10.8226 20.6767 10.7026 20.4471 10.5895L19.2644 11.6906Z" fill="white"/>
</g>
<g style="mix-blend-mode:soft-light">
<path d="M16.0345 10.8586C16.7791 10.9482 17.5142 11.101 18.2312 11.3154L19.4598 10.1714C18.6749 9.8819 17.8638 9.66444 17.037 9.52188L15.645 10.8235C15.7749 10.8329 15.9047 10.8424 16.0345 10.8586Z" fill="white"/>
</g>
</g>
<path d="M23.4326 11.61H21.9646V13.6486H23.4326V11.61Z" fill="#FA8A00"/>
<path d="M6.1916 11.61H4.72363V13.6486H6.1916V11.61Z" fill="#FA8A00"/>
<path d="M14.0781 18.6186C19.2435 18.6186 23.4309 16.3938 23.4309 13.6494C23.4309 10.9051 19.2435 8.6803 14.0781 8.6803C8.91272 8.6803 4.72534 10.9051 4.72534 13.6494C4.72534 16.3938 8.91272 18.6186 14.0781 18.6186Z" fill="#FA8A00"/>
<path d="M14.0781 16.5791C19.2435 16.5791 23.4309 14.3543 23.4309 11.6099C23.4309 8.86554 19.2435 6.64078 14.0781 6.64078C8.91272 6.64078 4.72534 8.86554 4.72534 11.6099C4.72534 14.3543 8.91272 16.5791 14.0781 16.5791Z" fill="#FFCA00"/>
<path d="M14.0781 15.1001C18.2532 15.1001 21.6379 13.5375 21.6379 11.61C21.6379 9.68243 18.2532 8.11984 14.0781 8.11984C9.90294 8.11984 6.51831 9.68243 6.51831 11.61C6.51831 13.5375 9.90294 15.1001 14.0781 15.1001Z" fill="#FA8A00"/>
<path d="M14.0773 15.1001C18.2529 15.1001 21.6379 13.5801 21.6379 11.7051C21.6379 9.83006 18.2529 8.31006 14.0773 8.31006C9.90162 8.31006 6.5166 9.83006 6.5166 11.7051C6.5166 13.5801 9.90162 15.1001 14.0773 15.1001Z" fill="#FFE700"/>
<path d="M14.0781 14.8448C18.2543 14.8448 21.6397 13.3819 21.6397 11.5774C21.6397 9.7729 18.2543 8.31006 14.0781 8.31006C9.90202 8.31006 6.5166 9.7729 6.5166 11.5774C6.5166 13.3819 9.90202 14.8448 14.0781 14.8448Z" fill="#FF9F00"/>
<path d="M13.4465 11.0298C12.3336 11.6065 11.99 11.6785 11.7223 11.6082C11.4715 11.5431 11.3549 11.3108 11.8372 10.8807C12.2014 10.5635 12.6199 10.3104 13.0737 10.1326L13.4332 9.98351L12.5314 9.33484L12.1914 9.46937C11.7313 9.64934 11.2973 9.88639 10.9 10.1746L9.91874 9.92695L8.87915 10.7839L9.95495 11.0658C9.3773 11.8438 9.60165 12.5225 10.5882 12.7898C11.8584 13.1377 13.185 12.5491 14.3792 11.8875C15.387 11.3391 15.7844 11.3331 16.0432 11.3982C16.4504 11.5011 16.4575 11.8635 16.0503 12.2886C15.6311 12.7035 15.1296 13.0317 14.5761 13.2534L14.1345 13.4342L15.2244 14.2466L15.5777 14.1035C16.1851 13.8444 16.7418 13.4855 17.2233 13.0426L18.4059 13.3528L19.2742 12.3511L18.0376 12.0383C18.4943 11.1146 17.8716 10.5148 17.0175 10.3083C15.6899 9.98694 14.4278 10.5174 13.4465 11.0298Z" fill="#FFCA00"/>
<g style="mix-blend-mode:soft-light">
<g style="mix-blend-mode:soft-light">
<path d="M18.0438 12.0403C18.375 11.3711 18.1321 10.8741 17.6551 10.5716L16.3408 11.7952C16.2954 11.9843 16.1941 12.1565 16.0494 12.2905C15.7369 12.6037 15.3745 12.8661 14.9762 13.0677L14.3835 13.6204L15.2262 14.2485L15.5795 14.1054C15.8362 13.9976 16.0832 13.8692 16.3179 13.7216L18.1047 12.0566L18.0438 12.0403Z" fill="white"/>
</g>
<g style="mix-blend-mode:soft-light">
<path d="M13.4464 11.0298C12.633 11.4514 12.2329 11.6022 11.9705 11.6297L10.6978 12.8156C11.9343 13.1027 13.2186 12.5363 14.3783 11.8936C14.65 11.7413 14.9335 11.6098 15.2262 11.5003L16.5793 10.2398C15.4117 10.1087 14.3182 10.5748 13.4464 11.0298Z" fill="white"/>
</g>
<g style="mix-blend-mode:soft-light">
<path d="M11.8374 10.8808C12.0597 10.6823 12.3051 10.5098 12.5687 10.3666L13.179 9.79763L12.5307 9.33148L12.3541 9.40003L9.64868 11.9287C9.67253 12.2081 9.84477 12.4429 10.1601 12.6143L11.5106 11.3555C11.5203 11.2389 11.6113 11.0804 11.8374 10.8808Z" fill="white"/>
</g>
</g>
<g style="mix-blend-mode:soft-light">
<g style="mix-blend-mode:soft-light">
<path d="M14.9527 8.14717L16.3994 6.79585C16.024 6.74529 15.6478 6.71016 15.2724 6.68359L13.7302 8.12147C14.1339 8.11547 14.5428 8.1249 14.9527 8.14717Z" fill="white"/>
</g>
<g style="mix-blend-mode:soft-light">
<path d="M14.8661 15.0786C14.1929 15.1119 13.5181 15.1033 12.8461 15.0529L11.4329 16.3716C11.5097 16.3836 11.5821 16.399 11.6599 16.4102C11.9337 16.4496 12.2092 16.4787 12.4839 16.5044C12.7586 16.5301 13.0139 16.5447 13.2789 16.5567H13.2842L14.8661 15.0786Z" fill="white"/>
</g>
<g style="mix-blend-mode:soft-light">
<path d="M8.64161 14.0298C8.37152 13.9024 8.11118 13.7563 7.86259 13.5928L6.71436 14.6639C6.95796 14.8298 7.21097 14.9823 7.47218 15.1207L8.64161 14.0298Z" fill="white"/>
</g>
<g style="mix-blend-mode:soft-light">
<path d="M10.2467 16.1361L11.5716 14.8979C10.7417 14.7703 9.92906 14.5533 9.14878 14.2509L7.95728 15.3649C8.69178 15.6959 9.45879 15.9543 10.2467 16.1361Z" fill="white"/>
</g>
<g style="mix-blend-mode:soft-light">
<path d="M19.2644 9.07086C19.7151 9.26295 20.1403 9.50692 20.531 9.79751L21.6863 8.72039C21.4986 8.58073 21.3037 8.45032 21.1025 8.32965C20.8958 8.2054 20.6767 8.08543 20.4471 7.97232L19.2644 9.07086Z" fill="white"/>
</g>
<g style="mix-blend-mode:soft-light">
<path d="M16.0345 8.23889C16.7791 8.32841 17.5142 8.48124 18.2312 8.69562L19.4598 7.55166C18.6749 7.26215 17.8638 7.04469 17.037 6.90213L15.645 8.20033C15.7749 8.21318 15.9047 8.22261 16.0345 8.23889Z" fill="white"/>
</g>
</g>
<path d="M23.4326 8.96906H21.9646V11.0076H23.4326V8.96906Z" fill="#FA8A00"/>
<path d="M6.1916 8.96906H4.72363V11.0076H6.1916V8.96906Z" fill="#FA8A00"/>
<path d="M14.0781 15.9766C19.2435 15.9766 23.4309 13.7519 23.4309 11.0075C23.4309 8.26309 19.2435 6.03833 14.0781 6.03833C8.91272 6.03833 4.72534 8.26309 4.72534 11.0075C4.72534 13.7519 8.91272 15.9766 14.0781 15.9766Z" fill="#FA8A00"/>
<path d="M14.0781 13.9383C19.2435 13.9383 23.4309 11.7135 23.4309 8.96915C23.4309 6.22476 19.2435 4 14.0781 4C8.91272 4 4.72534 6.22476 4.72534 8.96915C4.72534 11.7135 8.91272 13.9383 14.0781 13.9383Z" fill="#FFCA00"/>
<path d="M14.0781 12.4592C18.2532 12.4592 21.6379 10.8966 21.6379 8.96905C21.6379 7.0415 18.2532 5.47891 14.0781 5.47891C9.90294 5.47891 6.51831 7.0415 6.51831 8.96905C6.51831 10.8966 9.90294 12.4592 14.0781 12.4592Z" fill="#FA8A00"/>
<path d="M14.0773 12.4583C18.2529 12.4583 21.6379 10.9383 21.6379 9.0633C21.6379 7.18828 18.2529 5.66827 14.0773 5.66827C9.90162 5.66827 6.5166 7.18828 6.5166 9.0633C6.5166 10.9383 9.90162 12.4583 14.0773 12.4583Z" fill="#FFE700"/>
<path d="M14.0781 12.203C18.2543 12.203 21.6397 10.7401 21.6397 8.93562C21.6397 7.13112 18.2543 5.66827 14.0781 5.66827C9.90202 5.66827 6.5166 7.13112 6.5166 8.93562C6.5166 10.7401 9.90202 12.203 14.0781 12.203Z" fill="#FF9F00"/>
<path d="M13.4465 8.38894C12.3336 8.96564 11.99 9.03761 11.7223 8.96735C11.4715 8.90137 11.3549 8.67001 11.8372 8.23899C12.2014 7.92185 12.6199 7.66871 13.0737 7.49092L13.4332 7.34181L12.5314 6.694L12.1914 6.82768C11.7311 7.00761 11.297 7.24497 10.9 7.53376L9.91874 7.28526L8.87915 8.14216L9.95495 8.42322C9.3773 9.20214 9.60165 9.87566 10.5882 10.1473C11.8584 10.4952 13.185 9.90737 14.3792 9.24498C15.387 8.69657 15.7844 8.69057 16.0432 8.7557C16.4504 8.85852 16.4575 9.22185 16.0503 9.64601C15.6312 10.0612 15.1297 10.3897 14.5761 10.6117L14.1345 10.7925L15.2244 11.604L15.5777 11.4609C16.1851 11.2018 16.7418 10.8429 17.2233 10.4001L18.4059 10.7103L19.2759 9.70942L18.0394 9.39666C18.496 8.47292 17.8733 7.87395 17.0192 7.66658C15.6899 7.34524 14.4277 7.87566 13.4465 8.38894Z" fill="#FFCA00"/>
<g style="mix-blend-mode:soft-light">
<g style="mix-blend-mode:soft-light">
<path d="M18.0438 9.39817C18.375 8.72893 18.1321 8.23279 17.6551 7.92944L16.3408 9.15395C16.2956 9.34285 16.1942 9.51474 16.0494 9.64838C15.7367 9.96159 15.3744 10.2243 14.9762 10.4264L14.3835 10.9783L15.2262 11.6064L15.5795 11.4633C15.8362 11.3558 16.0832 11.2276 16.3179 11.0803L18.1047 9.41445L18.0438 9.39817Z" fill="white"/>
</g>
<g style="mix-blend-mode:soft-light">
<path d="M13.4464 8.38898C12.633 8.80971 12.2329 8.96053 11.9705 8.98452L10.6978 10.1705C11.9343 10.4567 13.2186 9.89112 14.3783 9.24759C14.6498 9.09518 14.9333 8.96394 15.2262 8.85513L16.5793 7.59463C15.4117 7.46781 14.3182 7.93311 13.4464 8.38898Z" fill="white"/>
</g>
<g style="mix-blend-mode:soft-light">
<path d="M11.8374 8.23885C12.0596 8.04035 12.3051 7.86779 12.5687 7.72471L13.179 7.15573L12.5307 6.68958L12.3541 6.75727L9.64868 9.28683C9.67253 9.56704 9.84477 9.80097 10.1601 9.97235L11.5106 8.71271C11.5203 8.59532 11.6113 8.44107 11.8374 8.23885Z" fill="white"/>
</g>
</g>
<g style="mix-blend-mode:soft-light">
<g style="mix-blend-mode:soft-light">
<path d="M14.9527 5.51057L16.3994 4.16182C16.024 4.1104 15.6478 4.07613 15.2724 4.04871L13.7302 5.48658C14.1339 5.47373 14.5428 5.48401 14.9527 5.51057Z" fill="white"/>
</g>
<g style="mix-blend-mode:soft-light">
<path d="M14.8661 12.4369C14.1929 12.4702 13.5181 12.4616 12.8461 12.4112L11.4329 13.7299C11.5097 13.7419 11.5821 13.7573 11.6599 13.7685C11.9337 13.8079 12.2092 13.837 12.4839 13.8627C12.7586 13.8885 13.0139 13.903 13.2789 13.9159H13.2842L14.8661 12.4369Z" fill="white"/>
</g>
<g style="mix-blend-mode:soft-light">
<path d="M8.64161 11.3889C8.3715 11.2612 8.11116 11.1148 7.86259 10.951L6.71436 12.023C6.95815 12.1889 7.21114 12.3416 7.47218 12.4806L8.64161 11.3889Z" fill="white"/>
</g>
<g style="mix-blend-mode:soft-light">
<path d="M10.2467 13.4961L11.5716 12.2579C10.7418 12.1301 9.92924 11.9134 9.14878 11.6118L7.95728 12.7257C8.69166 13.0568 9.45871 13.3149 10.2467 13.4961Z" fill="white"/>
</g>
<g style="mix-blend-mode:soft-light">
<path d="M19.2644 6.42923C19.7149 6.62167 20.1401 6.86561 20.531 7.15588L21.6863 6.07876C21.4985 5.93938 21.3037 5.80926 21.1025 5.68887C20.8958 5.56462 20.6767 5.44551 20.4471 5.33154L19.2644 6.42923Z" fill="white"/>
</g>
<g style="mix-blend-mode:soft-light">
<path d="M16.0343 5.59634C16.779 5.68545 17.514 5.83829 18.2309 6.05306L19.4595 4.91082C18.6746 4.6216 17.8635 4.40443 17.0368 4.26215L15.6448 5.55949C15.7746 5.57149 15.9045 5.58177 16.0343 5.59634Z" fill="white"/>
</g>
</g>
<path d="M35 25.5208H33.532V27.5594H35V25.5208Z" fill="#FA8A00"/>
<path d="M17.758 25.5208H16.29V27.5594H17.758V25.5208Z" fill="#FA8A00"/>
<path d="M25.6455 32.5285C30.8109 32.5285 34.9983 30.3037 34.9983 27.5594C34.9983 24.815 30.8109 22.5902 25.6455 22.5902C20.4801 22.5902 16.2927 24.815 16.2927 27.5594C16.2927 30.3037 20.4801 32.5285 25.6455 32.5285Z" fill="#FA8A00"/>
<path d="M25.6455 30.49C30.8109 30.49 34.9983 28.2652 34.9983 25.5208C34.9983 22.7765 30.8109 20.5517 25.6455 20.5517C20.4801 20.5517 16.2927 22.7765 16.2927 25.5208C16.2927 28.2652 20.4801 30.49 25.6455 30.49Z" fill="#FFCA00"/>
<path d="M25.6452 29.011C29.8204 29.011 33.205 27.4484 33.205 25.5208C33.205 23.5933 29.8204 22.0307 25.6452 22.0307C21.4701 22.0307 18.0854 23.5933 18.0854 25.5208C18.0854 27.4484 21.4701 29.011 25.6452 29.011Z" fill="#FA8A00"/>
<path d="M25.6444 29.0101C29.82 29.0101 33.2051 27.4901 33.2051 25.6151C33.2051 23.74 29.82 22.22 25.6444 22.22C21.4688 22.22 18.0837 23.74 18.0837 25.6151C18.0837 27.4901 21.4688 29.0101 25.6444 29.0101Z" fill="#FFE700"/>
<path d="M25.6453 28.7547C29.8214 28.7547 33.2068 27.2919 33.2068 25.4874C33.2068 23.6829 29.8214 22.22 25.6453 22.22C21.4692 22.22 18.0837 23.6829 18.0837 25.4874C18.0837 27.2919 21.4692 28.7547 25.6453 28.7547Z" fill="#FF9F00"/>
<path d="M25.017 24.9407C23.9041 25.5174 23.5605 25.5894 23.2929 25.5191C23.0421 25.4531 22.9255 25.2218 23.4077 24.7907C23.7721 24.4738 24.1905 24.2206 24.6443 24.0427L25.0029 23.8936L24.102 23.2458L23.7619 23.3794C23.302 23.56 22.868 23.7973 22.4706 24.0855L21.4893 23.837L20.4497 24.6939L21.5255 24.975C20.9479 25.7539 21.1678 26.4274 22.1588 26.6991C23.4289 27.047 24.7556 26.4591 25.9497 25.7967C26.9575 25.2483 27.355 25.2423 27.6138 25.3083C28.021 25.4103 28.028 25.7736 27.6208 26.1978C27.2015 26.6127 26.7001 26.9412 26.1467 27.1635L25.7051 27.3443L26.795 28.1558L27.1483 28.0127C27.7559 27.754 28.3126 27.395 28.7938 26.9518L29.9765 27.262L30.8438 26.2603L29.6073 25.9476C30.0639 25.0238 29.4412 24.4248 28.5862 24.2175C27.2569 23.897 25.9948 24.4274 25.017 24.9407Z" fill="#FFCA00"/>
<g style="mix-blend-mode:soft-light">
<g style="mix-blend-mode:soft-light">
<path d="M29.6103 25.9501C29.9415 25.2809 29.6986 24.7847 29.2208 24.4814L27.9074 25.7059C27.8621 25.8948 27.7608 26.0667 27.6159 26.2003C27.3035 26.5138 26.9412 26.7766 26.5428 26.9784L25.9492 27.5311L26.7927 28.1583L27.146 28.0152C27.4028 27.9079 27.6498 27.7797 27.8844 27.6322L29.6712 25.9664L29.6103 25.9501Z" fill="white"/>
</g>
<g style="mix-blend-mode:soft-light">
<path d="M25.0177 24.9407C24.2043 25.3623 23.8033 25.5123 23.5409 25.5362L22.269 26.7222C23.5056 27.0084 24.7899 26.4428 25.9496 25.7993C26.221 25.6469 26.5046 25.5157 26.7975 25.4069L28.1497 24.1464C26.9794 24.0195 25.886 24.4848 25.0177 24.9407Z" fill="white"/>
</g>
<g style="mix-blend-mode:soft-light">
<path d="M23.4044 24.7907C23.6268 24.594 23.8719 24.4229 24.1349 24.2809L24.7452 23.7119L24.0969 23.2458L23.9246 23.3135L21.2192 25.8396C21.2431 26.1189 21.4153 26.3537 21.7298 26.5251L23.0811 25.2655C23.0873 25.1498 23.1783 24.993 23.4044 24.7907Z" fill="white"/>
</g>
</g>
<g style="mix-blend-mode:soft-light">
<g style="mix-blend-mode:soft-light">
<path d="M26.5188 22.0581L27.9656 20.7093C27.5893 20.6579 27.2139 20.6236 26.8385 20.5971L25.2964 22.0341C25.7009 22.0255 26.109 22.0358 26.5188 22.0581Z" fill="white"/>
</g>
<g style="mix-blend-mode:soft-light">
<path d="M26.4306 28.9896C25.7577 29.0229 25.0833 29.0143 24.4115 28.9639L22.9983 30.2826C23.0751 30.2946 23.1476 30.3109 23.2244 30.3212C23.4991 30.3606 23.7738 30.3897 24.0485 30.4155C24.3232 30.4412 24.5784 30.4557 24.8434 30.4686H24.8487L26.4306 28.9896Z" fill="white"/>
</g>
<g style="mix-blend-mode:soft-light">
<path d="M20.209 27.9407C19.9389 27.813 19.6785 27.6666 19.43 27.5028L18.2817 28.5748C18.5252 28.7407 18.7779 28.8934 19.0387 29.0324L20.209 27.9407Z" fill="white"/>
</g>
<g style="mix-blend-mode:soft-light">
<path d="M21.8138 30.0478L23.1387 28.8104C22.3089 28.6825 21.4963 28.4656 20.7159 28.1635L19.5244 29.2731C20.2586 29.6057 21.0257 29.8652 21.8138 30.0478Z" fill="white"/>
</g>
<g style="mix-blend-mode:soft-light">
<path d="M30.8318 22.9809C31.2823 23.1733 31.7075 23.4173 32.0984 23.7075L33.2537 22.6304C33.077 22.4959 32.8774 22.3656 32.6698 22.2405C32.4632 22.1163 32.2441 21.9972 32.0145 21.8832L30.8318 22.9809Z" fill="white"/>
</g>
<g style="mix-blend-mode:soft-light">
<path d="M27.6019 22.1499C28.3466 22.2391 29.0816 22.3919 29.7986 22.6066L31.0263 21.4618C30.2417 21.1725 29.4309 20.9553 28.6044 20.8131L27.2124 22.1113C27.3422 22.1242 27.4721 22.1345 27.6019 22.1499Z" fill="white"/>
</g>
</g>
<path d="M35 22.9014H33.532V24.9399H35V22.9014Z" fill="#FA8A00"/>
<path d="M17.758 22.9014H16.29V24.9399H17.758V22.9014Z" fill="#FA8A00"/>
<path d="M25.6455 29.9091C30.8109 29.9091 34.9983 27.6843 34.9983 24.9399C34.9983 22.1955 30.8109 19.9708 25.6455 19.9708C20.4801 19.9708 16.2927 22.1955 16.2927 24.9399C16.2927 27.6843 20.4801 29.9091 25.6455 29.9091Z" fill="#FA8A00"/>
<path d="M25.6455 27.8704C30.8109 27.8704 34.9983 25.6457 34.9983 22.9013C34.9983 20.1569 30.8109 17.9321 25.6455 17.9321C20.4801 17.9321 16.2927 20.1569 16.2927 22.9013C16.2927 25.6457 20.4801 27.8704 25.6455 27.8704Z" fill="#FFCA00"/>
<path d="M25.6452 26.3915C29.8204 26.3915 33.205 24.8289 33.205 22.9013C33.205 20.9738 29.8204 19.4112 25.6452 19.4112C21.4701 19.4112 18.0854 20.9738 18.0854 22.9013C18.0854 24.8289 21.4701 26.3915 25.6452 26.3915Z" fill="#FA8A00"/>
<path d="M25.6444 26.3906C29.82 26.3906 33.2051 24.8706 33.2051 22.9956C33.2051 21.1206 29.82 19.6006 25.6444 19.6006C21.4688 19.6006 18.0837 21.1206 18.0837 22.9956C18.0837 24.8706 21.4688 26.3906 25.6444 26.3906Z" fill="#FFE700"/>
<path d="M25.6453 26.1353C29.8214 26.1353 33.2068 24.6724 33.2068 22.8679C33.2068 21.0634 29.8214 19.6006 25.6453 19.6006C21.4692 19.6006 18.0837 21.0634 18.0837 22.8679C18.0837 24.6724 21.4692 26.1353 25.6453 26.1353Z" fill="#FF9F00"/>
<path d="M25.0172 22.3213C23.9043 22.8979 23.5607 22.9699 23.2931 22.8997C23.0422 22.8337 22.9256 22.6023 23.4079 22.1713C23.7723 21.8543 24.1907 21.6012 24.6445 21.4232L25.0031 21.2741L24.1021 20.6263L23.7621 20.76C23.3022 20.9406 22.8682 21.1779 22.4708 21.4661L21.4842 21.2176L20.4446 22.0745L21.5204 22.3555C20.9427 23.1345 21.1627 23.808 22.1537 24.0796C23.4238 24.4275 24.7504 23.8397 25.9446 23.1773C26.9524 22.6289 27.3499 22.6229 27.6087 22.6889C28.0158 22.7908 28.0229 23.1542 27.6157 23.5783C27.1967 23.9936 26.6952 24.3221 26.1416 24.544L25.6999 24.7249L26.7899 25.5363L27.1432 25.3932C27.7507 25.1345 28.3075 24.7756 28.7887 24.3324L29.9714 24.6426L30.8387 23.6409L29.6101 23.3341C30.0668 22.4104 29.4441 21.8114 28.5891 21.604C27.2571 21.2776 25.995 21.808 25.0172 22.3213Z" fill="#FFCA00"/>
<g style="mix-blend-mode:soft-light">
<g style="mix-blend-mode:soft-light">
<path d="M29.6103 23.3338C29.9415 22.6646 29.6986 22.1685 29.2208 21.8651L27.9074 23.0896C27.8621 23.2785 27.7608 23.4504 27.6159 23.5841C27.3035 23.8976 26.9412 24.1603 26.5428 24.3621L25.9492 24.9148L26.7927 25.5421L27.146 25.399C27.4028 25.2916 27.6498 25.1635 27.8844 25.0159L29.6712 23.3501L29.6103 23.3338Z" fill="white"/>
</g>
<g style="mix-blend-mode:soft-light">
<path d="M25.0174 22.3212C24.2039 22.7428 23.8029 22.8928 23.5406 22.9168L22.2651 24.1053C23.5017 24.3915 24.7859 23.826 25.9457 23.1824C26.2171 23.03 26.5007 22.8988 26.7936 22.79L28.1458 21.5295C26.9791 21.4001 25.8856 21.8654 25.0174 22.3212Z" fill="white"/>
</g>
<g style="mix-blend-mode:soft-light">
<path d="M23.4044 22.1712C23.6268 21.9744 23.8719 21.8033 24.1349 21.6613L24.7452 21.0923L24.0969 20.6262L23.9246 20.6939L21.2192 23.22C21.2431 23.4994 21.4153 23.7342 21.7298 23.9055L23.0741 22.6485C23.0873 22.5302 23.1783 22.3734 23.4044 22.1712Z" fill="white"/>
</g>
</g>
<g style="mix-blend-mode:soft-light">
<g style="mix-blend-mode:soft-light">
<path d="M26.5188 19.4386L27.9656 18.0899C27.5893 18.0384 27.2139 18.0042 26.8385 17.9776L25.2964 19.4146C25.7009 19.406 26.109 19.4163 26.5188 19.4386Z" fill="white"/>
</g>
<g style="mix-blend-mode:soft-light">
<path d="M26.4306 26.3692C25.7577 26.4025 25.0833 26.3939 24.4115 26.3435L22.9983 27.6623C23.0751 27.6743 23.1476 27.6906 23.2244 27.7009C23.4991 27.7403 23.7738 27.7694 24.0485 27.7951C24.3232 27.8208 24.5784 27.8354 24.8434 27.8482H24.8487L26.4306 26.3692Z" fill="white"/>
</g>
<g style="mix-blend-mode:soft-light">
<path d="M20.209 25.3213C19.9389 25.1936 19.6785 25.0473 19.43 24.8835L18.2817 25.9554C18.525 26.1216 18.7777 26.2744 19.0387 26.413L20.209 25.3213Z" fill="white"/>
</g>
<g style="mix-blend-mode:soft-light">
<path d="M21.8138 27.4283L23.1387 26.1909C22.3089 26.063 21.4963 25.846 20.7159 25.5439L19.5244 26.6536C20.2585 26.9865 21.0256 27.2461 21.8138 27.4283Z" fill="white"/>
</g>
<g style="mix-blend-mode:soft-light">
<path d="M30.8318 20.3614C31.2825 20.5538 31.7078 20.7981 32.0984 21.089L33.2537 20.011C33.077 19.8764 32.8774 19.7462 32.6698 19.6211C32.4632 19.4968 32.2441 19.3777 32.0145 19.2638L30.8318 20.3614Z" fill="white"/>
</g>
<g style="mix-blend-mode:soft-light">
<path d="M27.6019 19.5303C28.3466 19.6195 29.0816 19.7723 29.7986 19.987L31.0263 18.8422C30.2417 18.5529 29.4309 18.3357 28.6044 18.1935L27.2124 19.4917C27.3422 19.5046 27.4721 19.514 27.6019 19.5303Z" fill="white"/>
</g>
</g>
<path d="M35 20.2594H33.532V22.298H35V20.2594Z" fill="#FA8A00"/>
<path d="M17.758 20.2594H16.29V22.298H17.758V20.2594Z" fill="#FA8A00"/>
<path d="M25.6455 27.268C30.8109 27.268 34.9983 25.0432 34.9983 22.2988C34.9983 19.5544 30.8109 17.3297 25.6455 17.3297C20.4801 17.3297 16.2927 19.5544 16.2927 22.2988C16.2927 25.0432 20.4801 27.268 25.6455 27.268Z" fill="#FA8A00"/>
<path d="M25.6455 25.2286C30.8109 25.2286 34.9983 23.0038 34.9983 20.2595C34.9983 17.5151 30.8109 15.2903 25.6455 15.2903C20.4801 15.2903 16.2927 17.5151 16.2927 20.2595C16.2927 23.0038 20.4801 25.2286 25.6455 25.2286Z" fill="#FFCA00"/>
<path d="M25.6452 23.7497C29.8204 23.7497 33.205 22.1871 33.205 20.2595C33.205 18.332 29.8204 16.7694 25.6452 16.7694C21.4701 16.7694 18.0854 18.332 18.0854 20.2595C18.0854 22.1871 21.4701 23.7497 25.6452 23.7497Z" fill="#FA8A00"/>
<path d="M25.6444 23.7495C29.82 23.7495 33.2051 22.2295 33.2051 20.3545C33.2051 18.4795 29.82 16.9595 25.6444 16.9595C21.4688 16.9595 18.0837 18.4795 18.0837 20.3545C18.0837 22.2295 21.4688 23.7495 25.6444 23.7495Z" fill="#FFE700"/>
<path d="M25.6453 23.4942C29.8214 23.4942 33.2068 22.0313 33.2068 20.2268C33.2068 18.4223 29.8214 16.9595 25.6453 16.9595C21.4692 16.9595 18.0837 18.4223 18.0837 20.2268C18.0837 22.0313 21.4692 23.4942 25.6453 23.4942Z" fill="#FF9F00"/>
<path d="M25.0172 19.6793C23.9043 20.256 23.5607 20.328 23.2931 20.2577C23.0422 20.1917 22.9256 19.9604 23.4079 19.5302C23.7723 19.2131 24.1907 18.9597 24.6445 18.7813L25.0031 18.633L24.1021 17.9844L23.7621 18.1189C23.3021 18.2989 22.868 18.5359 22.4708 18.8241L21.4842 18.5765L20.4446 19.4334L21.5204 19.7153C20.9427 20.4934 21.1627 21.1669 22.1537 21.4394C23.4238 21.7873 24.7504 21.1986 25.9446 20.5371C26.9524 19.9887 27.3499 19.9827 27.6087 20.0478C28.0158 20.1506 28.0229 20.5131 27.6157 20.9381C27.1964 21.3528 26.6949 21.681 26.1416 21.903L25.6999 22.0838L26.7899 22.8961L27.1432 22.7522C27.7507 22.4937 28.3074 22.1351 28.7887 21.6922L29.9714 22.0024L30.8387 21.0007L29.6022 20.6879C30.0588 19.7641 29.4361 19.1643 28.5811 18.9578C27.2571 18.6365 25.995 19.1669 25.0172 19.6793Z" fill="#FFCA00"/>
<g style="mix-blend-mode:soft-light">
<g style="mix-blend-mode:soft-light">
<path d="M29.6103 20.6895C29.9415 20.0195 29.6986 19.5233 29.2208 19.2208L27.9074 20.4445C27.862 20.6336 27.7607 20.8057 27.6159 20.9398C27.3033 21.2528 26.941 21.5152 26.5428 21.717L25.9492 22.2697L26.7927 22.8978L27.146 22.7538C27.4028 22.6465 27.6498 22.5183 27.8844 22.3708L29.6712 20.7058L29.6103 20.6895Z" fill="white"/>
</g>
<g style="mix-blend-mode:soft-light">
<path d="M25.0177 19.6792C24.2043 20.1008 23.8033 20.2507 23.5409 20.2747L22.269 21.4607C23.5056 21.7469 24.7899 21.1813 25.9496 20.5386C26.2213 20.3864 26.5047 20.2549 26.7975 20.1453L28.1497 18.8848C26.9794 18.758 25.886 19.2207 25.0177 19.6792Z" fill="white"/>
</g>
<g style="mix-blend-mode:soft-light">
<path d="M23.4044 19.5302C23.6266 19.332 23.8717 19.1594 24.1349 19.0161L24.7452 18.4471L24.0969 17.9809L23.9246 18.0495L21.2192 20.5782C21.2431 20.8575 21.4153 21.0923 21.7298 21.2637L23.0811 20.0049C23.0873 19.8884 23.1783 19.735 23.4044 19.5302Z" fill="white"/>
</g>
</g>
<g style="mix-blend-mode:soft-light">
<g style="mix-blend-mode:soft-light">
<path d="M26.5189 16.7968L27.9666 15.4506C27.5903 15.3992 27.2149 15.3649 26.8395 15.3383L25.2974 16.7762C25.701 16.7651 26.1091 16.7745 26.5189 16.7968Z" fill="white"/>
</g>
<g style="mix-blend-mode:soft-light">
<path d="M26.4306 23.7274C25.7577 23.7614 25.0833 23.7531 24.4115 23.7025L22.9983 25.0204C23.0751 25.0324 23.1476 25.0487 23.2244 25.0598C23.4991 25.0984 23.7738 25.1284 24.0485 25.1532C24.3232 25.1781 24.5784 25.1944 24.8434 25.2064H24.8487L26.4306 23.7274Z" fill="white"/>
</g>
<g style="mix-blend-mode:soft-light">
<path d="M20.209 22.6795C19.9389 22.5521 19.6786 22.406 19.43 22.2425L18.2817 23.3136C18.5253 23.4792 18.778 23.6316 19.0387 23.7703L20.209 22.6795Z" fill="white"/>
</g>
<g style="mix-blend-mode:soft-light">
<path d="M21.8138 24.7907L23.1387 23.5525C22.3088 23.425 21.4962 23.208 20.7159 22.9055L19.5244 24.0195C20.2589 24.3505 21.0259 24.6089 21.8138 24.7907Z" fill="white"/>
</g>
<g style="mix-blend-mode:soft-light">
<path d="M30.8318 17.7205C31.2825 17.9126 31.7077 18.1566 32.0984 18.4472L33.2537 17.3701C33.0659 17.2304 32.8711 17.1 32.6698 16.9793C32.4632 16.8542 32.2441 16.7351 32.0145 16.6211L30.8318 17.7205Z" fill="white"/>
</g>
<g style="mix-blend-mode:soft-light">
<path d="M27.6019 16.8884C28.3465 16.978 29.0815 17.1309 29.7986 17.3452L31.0263 16.2003C30.2416 15.9114 29.4308 15.6942 28.6044 15.5517L27.2124 16.8499C27.3422 16.8627 27.4721 16.8721 27.6019 16.8884Z" fill="white"/>
</g>
</g>
<path d="M19.0621 19.3931L18.001 20.3772L19.453 21.8507L20.5141 20.8666L19.0621 19.3931Z" fill="#FA8A00"/>
<path d="M6.59847 30.9515L5.53735 31.9356L6.98934 33.4091L8.05046 32.425L6.59847 30.9515Z" fill="#FA8A00"/>
<path d="M17.2917 30.73C21.0255 27.2672 22.4677 22.8518 20.513 20.8681C18.5583 18.8843 13.9468 20.0833 10.213 23.5461C6.47923 27.009 5.03701 31.4243 6.99173 33.4081C8.94646 35.3918 13.5579 34.1928 17.2917 30.73Z" fill="#FA8A00"/>
<path d="M15.8393 29.2556C19.5731 25.7928 21.0153 21.3774 19.0606 19.3937C17.1059 17.4099 12.4944 18.6089 8.76062 22.0717C5.02683 25.5346 3.58462 29.9499 5.53934 31.9337C7.49406 33.9174 12.1055 32.7184 15.8393 29.2556Z" fill="#FFCA00"/>
<path d="M14.785 28.1871C17.803 25.3882 19.1366 21.9896 17.7636 20.5963C16.3907 19.203 12.8312 20.3425 9.81319 23.1415C6.7952 25.9404 5.46161 29.339 6.83453 30.7323C8.20746 32.1256 11.767 30.9861 14.785 28.1871Z" fill="#FA8A00"/>
<path d="M14.7839 28.1872C17.8023 25.3879 19.1665 22.0198 17.831 20.6645C16.4955 19.3091 12.966 20.4797 9.94761 23.279C6.92927 26.0783 5.56507 29.4463 6.90058 30.8017C8.23608 32.157 11.7656 30.9865 14.7839 28.1872Z" fill="#FFE700"/>
<path d="M14.6034 28.0019C17.6221 25.2022 19.0273 21.8753 17.742 20.5709C16.4568 19.2665 12.9677 20.4787 9.94898 23.2783C6.93029 26.0779 5.52508 29.4049 6.81037 30.7092C8.09565 32.0136 11.5847 30.8015 14.6034 28.0019Z" fill="#FF9F00"/>
<path d="M12.3453 24.813C13.5633 24.4934 13.8645 24.3177 14.0102 24.089C14.1462 23.8747 14.0676 23.6279 13.4123 23.6348C12.923 23.6453 12.4393 23.7387 11.9832 23.9107L11.6166 24.041L11.8162 22.969L12.158 22.8413C12.6206 22.6669 13.1045 22.5517 13.5977 22.4986L14.1374 21.6656L15.5012 21.6005L14.9164 22.5208C15.888 22.7042 16.2025 23.3409 15.6716 24.1978C14.9915 25.2955 13.6101 25.7479 12.2729 26.059C11.1511 26.3289 10.8597 26.5885 10.7148 26.8079C10.4905 27.1507 10.7413 27.4223 11.3331 27.4617C11.9316 27.4853 12.5288 27.3915 13.089 27.1858L13.5368 27.0255L13.316 28.3409L12.9547 28.4728C12.3309 28.6877 11.6735 28.7964 11.0116 28.7942L10.3686 29.8053L9.03044 29.6511L9.70878 28.6031C8.72395 28.2338 8.75486 27.3829 9.23094 26.6648C9.97375 25.5431 11.2677 25.0915 12.3453 24.813Z" fill="#FFCA00"/>
<g style="mix-blend-mode:soft-light">
<g style="mix-blend-mode:soft-light">
<path d="M10.4593 22.5627L10.5476 20.6176C10.2402 20.8326 9.94346 21.0589 9.65376 21.2919L9.56543 23.3648C9.84454 23.0923 10.1475 22.8249 10.4593 22.5627Z" fill="white"/>
</g>
<g style="mix-blend-mode:soft-light">
<path d="M15.3341 27.6339C14.8712 28.1091 14.3776 28.5553 13.8564 28.9698L13.7681 30.8712C13.8325 30.8284 13.8953 30.7915 13.9597 30.747C14.1858 30.5919 14.4014 30.4282 14.6222 30.2628C14.843 30.0974 15.0329 29.938 15.2316 29.7701L15.3341 27.6339Z" fill="white"/>
</g>
<g style="mix-blend-mode:soft-light">
<path d="M10.0901 31.046C9.80414 31.135 9.51191 31.204 9.21572 31.2525L9.14771 32.7949C9.44205 32.7515 9.73368 32.6923 10.0212 32.6175L10.0901 31.046Z" fill="white"/>
</g>
<g style="mix-blend-mode:soft-light">
<path d="M12.7496 31.4958L12.8282 29.7109C12.1388 30.175 11.3982 30.563 10.6201 30.8677L10.5503 32.4684C11.3153 32.217 12.0522 31.8911 12.7496 31.4958Z" fill="white"/>
</g>
<g style="mix-blend-mode:soft-light">
<path d="M14.2341 20.3425C14.6965 20.1791 15.1775 20.0703 15.6668 20.0186L15.7348 18.465C15.5078 18.489 15.2737 18.5259 15.0352 18.5747C14.7976 18.6236 14.5539 18.6835 14.3074 18.7555L14.2341 20.3425Z" fill="white"/>
</g>
<g style="mix-blend-mode:soft-light">
<path d="M11.3074 21.9062C11.9094 21.4715 12.5495 21.089 13.2206 20.7631L13.293 19.1128C12.5198 19.43 11.7788 19.8164 11.0795 20.267L10.9983 22.1393C11.1007 22.0622 11.2023 21.9817 11.3074 21.9062Z" fill="white"/>
</g>
</g>
<g style="mix-blend-mode:soft-light">
<g style="mix-blend-mode:soft-light">
<path d="M13.0936 27.1849L13.5414 27.0246L13.3206 28.34L12.9594 28.4719C12.9178 28.4874 12.871 28.4993 12.8242 28.5139L12.8852 27.2483C12.9549 27.2269 13.0247 27.2089 13.0936 27.1849Z" fill="white"/>
</g>
<g style="mix-blend-mode:soft-light">
<path d="M13.4124 23.6347C13.287 23.6347 13.173 23.6485 13.0591 23.6605L13.1112 22.5816C13.2728 22.5499 13.4327 22.5156 13.5987 22.4959L14.1384 21.663H14.1517L14.0466 23.8361C13.9909 23.7196 13.8081 23.6305 13.4124 23.6347Z" fill="white"/>
</g>
<g style="mix-blend-mode:soft-light">
<path d="M10.8146 25.3511L10.7466 26.7641C10.736 26.7787 10.7236 26.7933 10.7148 26.807C10.6008 26.9784 10.6106 27.1369 10.7227 27.2526L10.6203 29.4111L10.3694 29.8044L10.0833 29.7718L10.282 25.6467C10.4526 25.5369 10.6305 25.4381 10.8146 25.3511Z" fill="white"/>
</g>
<g style="mix-blend-mode:soft-light">
<path d="M14.0361 24.0358L13.9636 25.532C13.6346 25.6706 13.2964 25.788 12.9514 25.8833L13.0124 24.6237C13.6801 24.4154 13.8956 24.268 14.0104 24.089C14.0201 24.0718 14.0286 24.054 14.0361 24.0358Z" fill="white"/>
</g>
<g style="mix-blend-mode:soft-light">
<path d="M9.28504 28.3579C8.75509 27.9295 8.839 27.2543 9.23028 26.6647C9.27532 26.5979 9.32744 26.5405 9.37513 26.4779L9.28504 28.3579Z" fill="white"/>
</g>
<g style="mix-blend-mode:soft-light">
<path d="M15.5183 22.7385C15.9917 23.035 16.0703 23.5542 15.672 24.1952C15.6 24.307 15.52 24.4138 15.4326 24.5148L15.5183 22.7385Z" fill="white"/>
</g>
<g style="mix-blend-mode:soft-light">
<path d="M9.22145 29.6733L9.02979 29.6519L9.23735 29.3297L9.22145 29.6733Z" fill="white"/>
</g>
</g>
</svg>
