<svg width="32" height="32" viewBox="0 0 32 32" fill="none" xmlns="http://www.w3.org/2000/svg">
<path d="M20.7834 17.5718H19.3599V19.5486H20.7834V17.5718Z" fill="#FA8A00"/>
<path d="M4.0646 17.5718H2.64111V19.5486H4.0646V17.5718Z" fill="#FA8A00"/>
<path d="M11.712 24.3671C16.7209 24.3671 20.7814 22.2097 20.7814 19.5485C20.7814 16.8873 16.7209 14.73 11.712 14.73C6.70309 14.73 2.64258 16.8873 2.64258 19.5485C2.64258 22.2097 6.70309 24.3671 11.712 24.3671Z" fill="#FA8A00"/>
<path d="M11.712 22.39C16.7209 22.39 20.7814 20.2327 20.7814 17.5715C20.7814 14.9103 16.7209 12.7529 11.712 12.7529C6.70309 12.7529 2.64258 14.9103 2.64258 17.5715C2.64258 20.2327 6.70309 22.39 11.712 22.39Z" fill="#FFCA00"/>
<path d="M11.7121 20.9557C15.7607 20.9557 19.0428 19.4405 19.0428 17.5714C19.0428 15.7022 15.7607 14.187 11.7121 14.187C7.66342 14.187 4.38135 15.7022 4.38135 17.5714C4.38135 19.4405 7.66342 20.9557 11.7121 20.9557Z" fill="#FA8A00"/>
<path d="M11.711 20.9554C15.7601 20.9554 19.0425 19.4814 19.0425 17.6632C19.0425 15.845 15.7601 14.3711 11.711 14.3711C7.66185 14.3711 4.37939 15.845 4.37939 17.6632C4.37939 19.4814 7.66185 20.9554 11.711 20.9554Z" fill="#FFE700"/>
<path d="M11.7118 20.7077C15.7614 20.7077 19.0443 19.2892 19.0443 17.5394C19.0443 15.7896 15.7614 14.3711 11.7118 14.3711C7.66224 14.3711 4.37939 15.7896 4.37939 17.5394C4.37939 19.2892 7.66224 20.7077 11.7118 20.7077Z" fill="#FF9F00"/>
<path d="M11.0998 17.0093C10.0206 17.5685 9.68746 17.6383 9.42794 17.5702C9.1847 17.5062 9.07165 17.2818 9.53929 16.8639C9.89253 16.5564 10.2983 16.3109 10.7384 16.1385L11.087 15.9939L10.2125 15.3657L9.88275 15.4953C9.43646 15.6698 9.01552 15.9 8.63055 16.18L7.67899 15.9391L6.6709 16.77L7.7141 17.0425C7.15395 17.7978 7.37151 18.451 8.32821 18.7144C9.55985 19.0517 10.8463 18.4817 12.0043 17.8394C12.9815 17.3076 13.367 17.3018 13.6179 17.3649C14.0128 17.4646 14.0196 17.817 13.6248 18.2283C13.218 18.6306 12.7314 18.9489 12.1944 19.1639L11.7662 19.3392L12.8231 20.1261L13.1657 19.9873C13.7546 19.7361 14.2944 19.3881 14.7613 18.9586L15.9082 19.2594L16.7527 18.2914L15.5536 17.9881C15.9964 17.0924 15.3926 16.5116 14.5643 16.3105C13.2753 15.9972 12.0514 16.5116 11.0998 17.0093Z" fill="#FFCA00"/>
<g style="mix-blend-mode:soft-light">
<g style="mix-blend-mode:soft-light">
<path d="M15.5576 17.9882C15.8788 17.3392 15.6433 16.8581 15.1808 16.564L13.9063 17.7514C13.8624 17.9345 13.7641 18.1012 13.6236 18.2308C13.3205 18.5345 12.9691 18.7892 12.583 18.9853L12.0083 19.5204L12.8254 20.1295L13.168 19.9907C13.4169 19.8864 13.6564 19.7622 13.884 19.6193L15.6193 18.0006L15.5576 17.9882Z" fill="white"/>
</g>
<g style="mix-blend-mode:soft-light">
<path d="M11.1 17.0091C10.3111 17.4171 9.92316 17.5633 9.66878 17.5866L8.43457 18.7366C9.63366 19.0141 10.879 18.4657 12.0036 17.8417C12.2668 17.6939 12.5418 17.5666 12.8258 17.4611L14.138 16.2388C13.0057 16.1158 11.9453 16.567 11.1 17.0091Z" fill="white"/>
</g>
<g style="mix-blend-mode:soft-light">
<path d="M9.53938 16.8638C9.75517 16.6716 9.99314 16.5043 10.2486 16.3652L10.8404 15.8143L10.2117 15.3623L10.0404 15.4279L7.41699 17.88C7.44012 18.1509 7.60714 18.3786 7.9129 18.5448L9.22247 17.3233C9.2319 17.2119 9.32012 17.0599 9.53938 16.8638Z" fill="white"/>
</g>
</g>
<g style="mix-blend-mode:soft-light">
<g style="mix-blend-mode:soft-light">
<path d="M12.5601 14.2139L13.9631 12.9061C13.5991 12.8562 13.2342 12.823 12.8702 12.7964L11.3748 14.1907C11.7662 14.1824 12.1627 14.1923 12.5601 14.2139Z" fill="white"/>
</g>
<g style="mix-blend-mode:soft-light">
<path d="M12.4762 20.9346C11.8233 20.9669 11.1691 20.9586 10.5174 20.9097L9.14697 22.1885C9.22149 22.2001 9.29173 22.2151 9.3671 22.2259C9.63261 22.2641 9.89983 22.2923 10.1662 22.3173C10.4326 22.3422 10.6801 22.3563 10.937 22.3679H10.9422L12.4762 20.9346Z" fill="white"/>
</g>
<g style="mix-blend-mode:soft-light">
<path d="M6.44064 19.9183C6.17871 19.7944 5.92626 19.6525 5.68522 19.4937L4.57178 20.5331C4.80819 20.694 5.05351 20.8421 5.30664 20.9769L6.44064 19.9183Z" fill="white"/>
</g>
<g style="mix-blend-mode:soft-light">
<path d="M7.9964 21.9615L9.28114 20.7608C8.47653 20.6369 7.68858 20.4268 6.93178 20.1343L5.77637 21.2103C6.48834 21.5328 7.23215 21.7845 7.9964 21.9615Z" fill="white"/>
</g>
<g style="mix-blend-mode:soft-light">
<path d="M16.7412 15.1089C17.1781 15.2955 17.5904 15.532 17.9694 15.8135L19.0897 14.769C18.9077 14.6338 18.7187 14.5077 18.5236 14.3909C18.3232 14.2704 18.1107 14.1549 17.8881 14.0444L16.7412 15.1089Z" fill="white"/>
</g>
<g style="mix-blend-mode:soft-light">
<path d="M13.6092 14.3031C14.3313 14.3895 15.0441 14.5377 15.7393 14.746L16.9306 13.6358C16.1695 13.3554 15.3829 13.1448 14.5813 13.0068L13.2314 14.2615C13.3573 14.2773 13.4833 14.2873 13.6092 14.3031Z" fill="white"/>
</g>
</g>
<path d="M20.7834 15.0317H19.3599V17.0085H20.7834V15.0317Z" fill="#FA8A00"/>
<path d="M4.0646 15.0317H2.64111V17.0085H4.0646V15.0317Z" fill="#FA8A00"/>
<path d="M11.712 21.827C16.7209 21.827 20.7814 19.6697 20.7814 17.0085C20.7814 14.3473 16.7209 12.1899 11.712 12.1899C6.70309 12.1899 2.64258 14.3473 2.64258 17.0085C2.64258 19.6697 6.70309 21.827 11.712 21.827Z" fill="#FA8A00"/>
<path d="M11.712 19.85C16.7209 19.85 20.7814 17.6926 20.7814 15.0314C20.7814 12.3702 16.7209 10.2129 11.712 10.2129C6.70309 10.2129 2.64258 12.3702 2.64258 15.0314C2.64258 17.6926 6.70309 19.85 11.712 19.85Z" fill="#FFCA00"/>
<path d="M11.7121 18.4157C15.7607 18.4157 19.0428 16.9005 19.0428 15.0313C19.0428 13.1622 15.7607 11.647 11.7121 11.647C7.66342 11.647 4.38135 13.1622 4.38135 15.0313C4.38135 16.9005 7.66342 18.4157 11.7121 18.4157Z" fill="#FA8A00"/>
<path d="M11.711 18.4148C15.7601 18.4148 19.0425 16.9409 19.0425 15.1227C19.0425 13.3045 15.7601 11.8306 11.711 11.8306C7.66185 11.8306 4.37939 13.3045 4.37939 15.1227C4.37939 16.9409 7.66185 18.4148 11.711 18.4148Z" fill="#FFE700"/>
<path d="M11.7118 18.1672C15.7614 18.1672 19.0443 16.7487 19.0443 14.9989C19.0443 13.2491 15.7614 11.8306 11.7118 11.8306C7.66224 11.8306 4.37939 13.2491 4.37939 14.9989C4.37939 16.7487 7.66224 18.1672 11.7118 18.1672Z" fill="#FF9F00"/>
<path d="M11.0998 14.4688C10.0206 15.028 9.68746 15.0978 9.42794 15.0296C9.1847 14.9657 9.07165 14.7413 9.53929 14.3234C9.89253 14.0158 10.2983 13.7704 10.7384 13.598L11.087 13.4534L10.2125 12.8252L9.88275 12.9548C9.43661 13.1296 9.0157 13.3597 8.63055 13.6395L7.67899 13.3985L6.6709 14.2295L7.7141 14.502C7.15395 15.2573 7.37151 15.9104 8.32821 16.1738C9.55985 16.5112 10.8463 15.9412 12.0043 15.2989C12.9815 14.7671 13.367 14.7613 13.6179 14.8244C14.0128 14.9241 14.0196 15.2764 13.6248 15.6877C13.2183 16.0903 12.7321 16.4089 12.1953 16.6242L11.767 16.7995L12.8239 17.5864L13.1665 17.4476C13.7568 17.1976 14.2981 16.8504 14.7665 16.4214L15.9133 16.7222L16.7552 15.7509L15.5562 15.4476C15.999 14.5519 15.3951 13.971 14.5669 13.77C13.2753 13.4567 12.0514 13.971 11.0998 14.4688Z" fill="#FFCA00"/>
<g style="mix-blend-mode:soft-light">
<g style="mix-blend-mode:soft-light">
<path d="M15.5576 15.4476C15.8788 14.7987 15.6433 14.3176 15.1808 14.0234L13.9063 15.2108C13.8624 15.394 13.7641 15.5607 13.6236 15.6903C13.3205 15.994 12.9691 16.2487 12.583 16.4448L12.0083 16.9799L12.8254 17.5889L13.168 17.4502C13.4169 17.3459 13.6564 17.2217 13.884 17.0788L15.6167 15.4634L15.5576 15.4476Z" fill="white"/>
</g>
<g style="mix-blend-mode:soft-light">
<path d="M11.1 14.4685C10.3111 14.8765 9.92316 15.0228 9.66878 15.046L8.43457 16.196C9.63366 16.4736 10.879 15.9252 12.0036 15.3011C12.2668 15.1533 12.5418 15.0261 12.8258 14.9206L14.138 13.6983C13.0057 13.5753 11.9453 14.0265 11.1 14.4685Z" fill="white"/>
</g>
<g style="mix-blend-mode:soft-light">
<path d="M9.53938 14.3234C9.75513 14.1323 9.99313 13.9664 10.2486 13.829L10.8404 13.2772L10.2117 12.8252L10.0404 12.8908L7.41699 15.3412C7.44012 15.6121 7.60714 15.8398 7.9129 16.006L9.22247 14.7845C9.2319 14.6715 9.32012 14.5195 9.53938 14.3234Z" fill="white"/>
</g>
</g>
<g style="mix-blend-mode:soft-light">
<g style="mix-blend-mode:soft-light">
<path d="M12.5601 11.6739L13.9631 10.366C13.5991 10.3162 13.2342 10.2829 12.8702 10.2563L11.3748 11.6506C11.7662 11.6423 12.1627 11.6523 12.5601 11.6739Z" fill="white"/>
</g>
<g style="mix-blend-mode:soft-light">
<path d="M12.4762 18.3946C11.8233 18.4268 11.1691 18.4185 10.5174 18.3696L9.14697 19.6484C9.22149 19.6601 9.29173 19.675 9.3671 19.6858C9.63261 19.724 9.89983 19.7523 10.1662 19.7772C10.4326 19.8021 10.6801 19.8163 10.937 19.8287H10.9422L12.4762 18.3946Z" fill="white"/>
</g>
<g style="mix-blend-mode:soft-light">
<path d="M6.44064 17.3782C6.17871 17.2544 5.92626 17.1125 5.68522 16.9536L4.57178 17.9931C4.80819 18.1539 5.05351 18.3021 5.30664 18.4368L6.44064 17.3782Z" fill="white"/>
</g>
<g style="mix-blend-mode:soft-light">
<path d="M7.9964 19.4214L9.28114 18.2208C8.47653 18.0969 7.68858 17.8868 6.93178 17.5942L5.77637 18.6703C6.48834 18.9927 7.23215 19.2444 7.9964 19.4214V19.4214Z" fill="white"/>
</g>
<g style="mix-blend-mode:soft-light">
<path d="M16.7412 12.5688C17.1781 12.7554 17.5904 12.992 17.9694 13.2734L19.0897 12.229C18.9077 12.0938 18.7187 11.9676 18.5236 11.8509C18.3232 11.7304 18.1107 11.6149 17.8881 11.5044L16.7412 12.5688Z" fill="white"/>
</g>
<g style="mix-blend-mode:soft-light">
<path d="M13.6092 11.763C14.3313 11.8495 15.0441 11.9977 15.7393 12.2059L16.9306 11.0958C16.1695 10.8154 15.3829 10.6048 14.5813 10.4668L13.2314 11.7257C13.3573 11.7373 13.4833 11.7473 13.6092 11.763Z" fill="white"/>
</g>
</g>
<path d="M20.7834 12.4697H19.3599V14.4465H20.7834V12.4697Z" fill="#FA8A00"/>
<path d="M4.0646 12.4697H2.64111V14.4465H4.0646V12.4697Z" fill="#FA8A00"/>
<path d="M11.712 19.265C16.7209 19.265 20.7814 17.1077 20.7814 14.4465C20.7814 11.7853 16.7209 9.62793 11.712 9.62793C6.70309 9.62793 2.64258 11.7853 2.64258 14.4465C2.64258 17.1077 6.70309 19.265 11.712 19.265Z" fill="#FA8A00"/>
<path d="M11.712 17.2885C16.7209 17.2885 20.7814 15.1311 20.7814 12.4699C20.7814 9.8087 16.7209 7.65137 11.712 7.65137C6.70309 7.65137 2.64258 9.8087 2.64258 12.4699C2.64258 15.1311 6.70309 17.2885 11.712 17.2885Z" fill="#FFCA00"/>
<path d="M11.7121 15.8542C15.7607 15.8542 19.0428 14.3389 19.0428 12.4698C19.0428 10.6007 15.7607 9.08545 11.7121 9.08545C7.66342 9.08545 4.38135 10.6007 4.38135 12.4698C4.38135 14.3389 7.66342 15.8542 11.7121 15.8542Z" fill="#FA8A00"/>
<path d="M11.711 15.8543C15.7601 15.8543 19.0425 14.3803 19.0425 12.5621C19.0425 10.744 15.7601 9.27002 11.711 9.27002C7.66185 9.27002 4.37939 10.744 4.37939 12.5621C4.37939 14.3803 7.66185 15.8543 11.711 15.8543Z" fill="#FFE700"/>
<path d="M11.7118 15.6067C15.7614 15.6067 19.0443 14.1882 19.0443 12.4383C19.0443 10.6885 15.7614 9.27002 11.7118 9.27002C7.66224 9.27002 4.37939 10.6885 4.37939 12.4383C4.37939 14.1882 7.66224 15.6067 11.7118 15.6067Z" fill="#FF9F00"/>
<path d="M11.0998 11.9072C10.0206 12.4665 9.68746 12.5363 9.42794 12.4681C9.1847 12.4041 9.07165 12.1798 9.53929 11.7627C9.89277 11.4552 10.2985 11.2095 10.7384 11.0364L11.087 10.8927L10.2125 10.2637L9.88275 10.3933C9.43678 10.5684 9.01592 10.7985 8.63055 11.078L7.67899 10.8378L6.6709 11.6688L7.7141 11.9421C7.15395 12.6966 7.37151 13.3497 8.32821 13.6131C9.55985 13.9513 10.8463 13.3805 12.0043 12.739C12.9815 12.2072 13.367 12.2006 13.6179 12.2645C14.0128 12.3643 14.0196 12.7157 13.6248 13.1279C13.2183 13.5302 12.732 13.8485 12.1953 14.0635L11.767 14.2388L12.8239 15.0265L13.1665 14.8869C13.7556 14.6363 14.2955 14.2886 14.7622 13.8591L15.909 14.1599L16.751 13.1877L15.5519 12.8852C15.9947 11.9895 15.3909 11.4079 14.5626 11.2068C13.2753 10.896 12.0514 11.4095 11.0998 11.9072Z" fill="#FFCA00"/>
<g style="mix-blend-mode:soft-light">
<g style="mix-blend-mode:soft-light">
<path d="M15.5576 12.8871C15.8788 12.2373 15.6433 11.7562 15.1808 11.4629L13.9063 12.6495C13.8623 12.8328 13.764 12.9997 13.6236 13.1297C13.3206 13.4334 12.9693 13.6879 12.583 13.8834L12.0083 14.4193L12.8254 15.0284L13.168 14.8888C13.4171 14.7849 13.6566 14.6606 13.884 14.5174L15.6167 12.9021L15.5576 12.8871Z" fill="white"/>
</g>
<g style="mix-blend-mode:soft-light">
<path d="M11.1 11.907C10.3111 12.3158 9.92316 12.4612 9.66878 12.4845L8.43457 13.6345C9.63366 13.912 10.879 13.3636 12.0036 12.7404C12.2668 12.5924 12.5418 12.4649 12.8258 12.359L14.138 11.1367C13.0057 11.0138 11.9453 11.465 11.1 11.907Z" fill="white"/>
</g>
<g style="mix-blend-mode:soft-light">
<path d="M9.53938 11.7618C9.75534 11.5711 9.99332 11.4052 10.2486 11.2674L10.8404 10.7157L10.2117 10.2637L10.0404 10.3301L7.41699 12.7789C7.44012 13.0498 7.60714 13.2774 7.9129 13.4436L9.22247 12.223C9.2319 12.11 9.32012 11.9579 9.53938 11.7618Z" fill="white"/>
</g>
</g>
<g style="mix-blend-mode:soft-light">
<g style="mix-blend-mode:soft-light">
<path d="M12.5601 9.1096L13.9631 7.80172C13.5991 7.75187 13.2342 7.71863 12.8702 7.69287L11.3748 9.08717C11.7662 9.08135 12.1627 9.09049 12.5601 9.1096Z" fill="white"/>
</g>
<g style="mix-blend-mode:soft-light">
<path d="M12.4762 15.8327C11.8234 15.8657 11.1691 15.8576 10.5174 15.8086L9.14697 17.0866C9.22149 17.0982 9.29173 17.114 9.3671 17.1248C9.63261 17.1622 9.89983 17.1913 10.1662 17.2154C10.4326 17.2394 10.6801 17.2552 10.937 17.2669H10.9422L12.4762 15.8327Z" fill="white"/>
</g>
<g style="mix-blend-mode:soft-light">
<path d="M6.44064 14.8164C6.17873 14.6928 5.92628 14.5511 5.68522 14.3926L4.57178 15.4312C4.80799 15.5924 5.05333 15.7405 5.30664 15.875V15.875L6.44064 14.8164Z" fill="white"/>
</g>
<g style="mix-blend-mode:soft-light">
<path d="M7.9964 16.8594L9.28114 15.6596C8.47641 15.5359 7.68841 15.3254 6.93178 15.0322L5.77637 16.1124C6.4885 16.4335 7.23231 16.6837 7.9964 16.8594V16.8594Z" fill="white"/>
</g>
<g style="mix-blend-mode:soft-light">
<path d="M16.7412 10.0076C17.1782 10.1939 17.5906 10.4305 17.9694 10.7123L19.0897 9.66778C18.9077 9.53236 18.7187 9.4059 18.5236 9.28888V9.28888C18.3232 9.1684 18.1107 9.0529 17.8881 8.94238L16.7412 10.0076Z" fill="white"/>
</g>
<g style="mix-blend-mode:soft-light">
<path d="M13.6092 9.20103C14.3312 9.28784 15.044 9.43604 15.7393 9.64391L16.9306 8.5338C16.1695 8.25335 15.3829 8.04276 14.5813 7.90479L13.2314 9.16364C13.3573 9.1761 13.4833 9.18524 13.6092 9.20103Z" fill="white"/>
</g>
</g>
<path d="M20.7834 9.91943H19.3599V11.8962H20.7834V9.91943Z" fill="#FA8A00"/>
<path d="M4.0646 9.91943H2.64111V11.8962H4.0646V9.91943Z" fill="#FA8A00"/>
<path d="M11.712 16.7157C16.7209 16.7157 20.7814 14.5584 20.7814 11.8972C20.7814 9.23595 16.7209 7.07861 11.712 7.07861C6.70309 7.07861 2.64258 9.23595 2.64258 11.8972C2.64258 14.5584 6.70309 16.7157 11.712 16.7157Z" fill="#FA8A00"/>
<path d="M11.712 14.7382C16.7209 14.7382 20.7814 12.5808 20.7814 9.91962C20.7814 7.25841 16.7209 5.10107 11.712 5.10107C6.70309 5.10107 2.64258 7.25841 2.64258 9.91962C2.64258 12.5808 6.70309 14.7382 11.712 14.7382Z" fill="#FFCA00"/>
<path d="M11.7121 13.3039C15.7607 13.3039 19.0428 11.7887 19.0428 9.91952C19.0428 8.05039 15.7607 6.53516 11.7121 6.53516C7.66342 6.53516 4.38135 8.05039 4.38135 9.91952C4.38135 11.7887 7.66342 13.3039 11.7121 13.3039Z" fill="#FA8A00"/>
<path d="M11.711 13.304C15.7601 13.304 19.0425 11.8301 19.0425 10.0119C19.0425 8.19366 15.7601 6.71973 11.711 6.71973C7.66185 6.71973 4.37939 8.19366 4.37939 10.0119C4.37939 11.8301 7.66185 13.304 11.711 13.304Z" fill="#FFE700"/>
<path d="M11.7118 13.0564C15.7614 13.0564 19.0443 11.6379 19.0443 9.88805C19.0443 8.13823 15.7614 6.71973 11.7118 6.71973C7.66224 6.71973 4.37939 8.13823 4.37939 9.88805C4.37939 11.6379 7.66224 13.0564 11.7118 13.0564Z" fill="#FF9F00"/>
<path d="M11.0998 9.3589C10.0206 9.91812 9.68746 9.98792 9.42794 9.91978C9.1847 9.85663 9.07165 9.63145 9.53929 9.21432C9.89253 8.9068 10.2983 8.66133 10.7384 8.48892L11.087 8.34434L10.2125 7.71533L9.88275 7.84579C9.43665 8.0203 9.01575 8.25017 8.63055 8.52964L7.67899 8.2895L6.6709 9.12043L7.7141 9.3938C7.15395 10.1483 7.37151 10.8022 8.32821 11.0656C9.55985 11.403 10.8463 10.8321 12.0043 10.1907C12.9815 9.65887 13.367 9.65305 13.6179 9.7162C14.0128 9.81591 14.0196 10.1674 13.6248 10.5795C13.2184 10.9834 12.7318 11.3032 12.1944 11.5193L11.7662 11.6946L12.8231 12.4824L13.1657 12.3436C13.7546 12.0924 14.2944 11.7444 14.7613 11.3149L15.9082 11.6157L16.7501 10.6443L15.551 10.3411C15.9938 9.44532 15.39 8.86367 14.5618 8.66342C13.2753 8.34601 12.0514 8.86035 11.0998 9.3589Z" fill="#FFCA00"/>
<g style="mix-blend-mode:soft-light">
<g style="mix-blend-mode:soft-light">
<path d="M15.5576 10.3363C15.8788 9.68736 15.6433 9.20543 15.1808 8.91211L13.9063 10.0987C13.8623 10.282 13.764 10.449 13.6236 10.5789C13.3206 10.8826 12.9693 11.1371 12.583 11.3326L12.0083 11.8685L12.8254 12.4776L13.168 12.3388C13.4169 12.2343 13.6564 12.1098 13.884 11.9666L15.6193 10.3554L15.5576 10.3363Z" fill="white"/>
</g>
<g style="mix-blend-mode:soft-light">
<path d="M11.1 9.35866C10.3111 9.76748 9.92316 9.91372 9.66878 9.93616L8.43457 11.0862C9.63366 11.3645 10.879 10.8153 12.0036 10.1921C12.267 10.0444 12.5419 9.91691 12.8258 9.81069L14.138 8.5884C13.0057 8.46376 11.9453 8.91578 11.1 9.35866Z" fill="white"/>
</g>
<g style="mix-blend-mode:soft-light">
<path d="M9.53938 9.21227C9.75494 9.01984 9.99295 8.85253 10.2486 8.71372L10.8404 8.16199L10.2117 7.70996L10.0404 7.77644L7.41699 10.2285C7.44012 10.4994 7.60714 10.7271 7.9129 10.8932L9.22247 9.67261C9.2319 9.5596 9.32012 9.40837 9.53938 9.21227Z" fill="white"/>
</g>
</g>
<g style="mix-blend-mode:soft-light">
<g style="mix-blend-mode:soft-light">
<path d="M12.5601 6.56175L13.9631 5.25387C13.5991 5.20485 13.2342 5.17078 12.8702 5.14502L11.3748 6.53932C11.7662 6.5335 12.1627 6.54015 12.5601 6.56175Z" fill="white"/>
</g>
<g style="mix-blend-mode:soft-light">
<path d="M12.4762 13.2824C11.8234 13.3154 11.1691 13.3073 10.5174 13.2583L9.14697 14.5371C9.22149 14.5487 9.29173 14.5637 9.3671 14.5745C9.63261 14.6127 9.89983 14.641 10.1662 14.6651C10.4326 14.6892 10.6801 14.7049 10.937 14.7166H10.9422L12.4762 13.2824Z" fill="white"/>
</g>
<g style="mix-blend-mode:soft-light">
<path d="M6.44064 12.267C6.17873 12.1434 5.92628 12.0018 5.68522 11.8433L4.57178 12.8819C4.8082 13.0425 5.05352 13.1903 5.30664 13.3248V13.3248L6.44064 12.267Z" fill="white"/>
</g>
<g style="mix-blend-mode:soft-light">
<path d="M7.9964 14.31L9.28114 13.1093C8.47641 12.9856 7.68841 12.7752 6.93178 12.4819L5.77637 13.5621C6.48862 13.8831 7.23239 14.1336 7.9964 14.31V14.31Z" fill="white"/>
</g>
<g style="mix-blend-mode:soft-light">
<path d="M16.7412 7.45739C17.1782 7.64365 17.5906 7.88023 17.9694 8.16201L19.0897 7.11505C18.9077 6.97962 18.7187 6.85316 18.5236 6.73614V6.73614C18.3232 6.61566 18.1107 6.49933 17.8881 6.38965L16.7412 7.45739Z" fill="white"/>
</g>
<g style="mix-blend-mode:soft-light">
<path d="M13.6092 6.65074C14.3312 6.73755 15.044 6.88575 15.7393 7.09362L16.9306 5.98433C16.1695 5.7036 15.383 5.49273 14.5813 5.35449L13.2314 6.61667C13.3573 6.62581 13.4833 6.63495 13.6092 6.65074Z" fill="white"/>
</g>
</g>
<path d="M20.7834 7.37939H19.3599V9.35617H20.7834V7.37939Z" fill="#FA8A00"/>
<path d="M4.0646 7.37939H2.64111V9.35617H4.0646V7.37939Z" fill="#FA8A00"/>
<path d="M11.712 14.1757C16.7209 14.1757 20.7814 12.0183 20.7814 9.35712C20.7814 6.69591 16.7209 4.53857 11.712 4.53857C6.70309 4.53857 2.64258 6.69591 2.64258 9.35712C2.64258 12.0183 6.70309 14.1757 11.712 14.1757Z" fill="#FA8A00"/>
<path d="M11.712 12.1981C16.7209 12.1981 20.7814 10.0408 20.7814 7.37958C20.7814 4.71837 16.7209 2.56104 11.712 2.56104C6.70309 2.56104 2.64258 4.71837 2.64258 7.37958C2.64258 10.0408 6.70309 12.1981 11.712 12.1981Z" fill="#FFCA00"/>
<path d="M11.7121 10.7638C15.7607 10.7638 19.0428 9.24861 19.0428 7.37948C19.0428 5.51035 15.7607 3.99512 11.7121 3.99512C7.66342 3.99512 4.38135 5.51035 4.38135 7.37948C4.38135 9.24861 7.66342 10.7638 11.7121 10.7638Z" fill="#FA8A00"/>
<path d="M11.711 10.7639C15.7601 10.7639 19.0425 9.29001 19.0425 7.47182C19.0425 5.65362 15.7601 4.17969 11.711 4.17969C7.66185 4.17969 4.37939 5.65362 4.37939 7.47182C4.37939 9.29001 7.66185 10.7639 11.711 10.7639Z" fill="#FFE700"/>
<path d="M11.7118 10.5163C15.7614 10.5163 19.0443 9.09783 19.0443 7.34801C19.0443 5.59819 15.7614 4.17969 11.7118 4.17969C7.66224 4.17969 4.37939 5.59819 4.37939 7.34801C4.37939 9.09783 7.66224 10.5163 11.7118 10.5163Z" fill="#FF9F00"/>
<path d="M11.0998 6.81691C10.0206 7.37613 9.68746 7.44592 9.42794 7.37779C9.1847 7.31464 9.07165 7.08946 9.53929 6.67233C9.89253 6.36481 10.2983 6.11934 10.7384 5.94693L11.087 5.80235L10.2125 5.17334L9.88275 5.30379C9.43665 5.47831 9.01575 5.70817 8.63055 5.98765L7.67899 5.74751L6.6709 6.57844L7.7141 6.85181C7.15395 7.60629 7.37151 8.26439 8.32821 8.52363C9.55985 8.86099 10.8463 8.29014 12.0043 7.64867C12.9815 7.11688 13.367 7.11106 13.6179 7.17421C14.0128 7.27392 14.0196 7.6254 13.6248 8.03754C13.2183 8.43987 12.732 8.75814 12.1953 8.97316L11.767 9.14849L12.8239 9.93621L13.1665 9.79744C13.7555 9.54621 14.2953 9.1982 14.7622 8.76876L15.909 9.06955L16.751 8.0982L15.5519 7.79491C15.9947 6.89917 15.3909 6.31753 14.5626 6.11727C13.2753 5.80567 12.0514 6.32002 11.0998 6.81691Z" fill="#FFCA00"/>
<g style="mix-blend-mode:soft-light">
<g style="mix-blend-mode:soft-light">
<path d="M15.5576 7.79677C15.8788 7.14781 15.6433 6.66588 15.1808 6.37256L13.9063 7.55912C13.8623 7.74249 13.764 7.90941 13.6236 8.0394C13.3206 8.34309 12.9693 8.59756 12.583 8.79305L12.0083 9.329L12.8254 9.93806L13.168 9.7993C13.4169 9.69473 13.6564 9.57021 13.884 9.42705L15.6167 7.81255L15.5576 7.79677Z" fill="white"/>
</g>
<g style="mix-blend-mode:soft-light">
<path d="M11.1 6.81671C10.3111 7.22552 9.92316 7.37177 9.66878 7.39836L8.43457 8.54836C9.63366 8.82672 10.879 8.27748 12.0036 7.65428C12.267 7.50663 12.5419 7.37911 12.8258 7.27288L14.138 6.05059C13.0057 5.92346 11.9453 6.37549 11.1 6.81671Z" fill="white"/>
</g>
<g style="mix-blend-mode:soft-light">
<path d="M9.53938 6.67224C9.75494 6.47981 9.99295 6.31249 10.2486 6.17368L10.8404 5.62195L10.2117 5.16992L10.0404 5.2364L7.41699 7.68846C7.44012 7.95934 7.60714 8.18702 7.9129 8.3532L9.22247 7.13257C9.2319 7.01956 9.32012 6.86584 9.53938 6.67224Z" fill="white"/>
</g>
</g>
<g style="mix-blend-mode:soft-light">
<g style="mix-blend-mode:soft-light">
<path d="M12.5601 4.02176L13.9631 2.71139C13.5991 2.66237 13.2342 2.6283 12.8702 2.60254L11.3748 3.99683C11.7662 3.99102 12.1627 4.00016 12.5601 4.02176Z" fill="white"/>
</g>
<g style="mix-blend-mode:soft-light">
<path d="M12.4762 10.7432C11.8233 10.7755 11.1691 10.7672 10.5174 10.7183L9.14697 11.9971C9.22149 12.0087 9.29173 12.0236 9.3671 12.0345C9.63261 12.0727 9.89983 12.1009 10.1662 12.1259C10.4326 12.1508 10.6801 12.1649 10.937 12.1765H10.9422L12.4762 10.7432Z" fill="white"/>
</g>
<g style="mix-blend-mode:soft-light">
<path d="M6.44064 9.72602C6.17873 9.60243 5.92628 9.46081 5.68522 9.30225L4.57178 10.3409C4.808 10.5018 5.05334 10.6496 5.30664 10.7838V10.7838L6.44064 9.72602Z" fill="white"/>
</g>
<g style="mix-blend-mode:soft-light">
<path d="M7.9964 11.7685L9.28114 10.5678C8.47641 10.4441 7.68841 10.2337 6.93178 9.94043L5.77637 11.0206C6.48862 11.3416 7.23239 11.5921 7.9964 11.7685Z" fill="white"/>
</g>
<g style="mix-blend-mode:soft-light">
<path d="M16.7412 4.91779C17.1782 5.10405 17.5906 5.34062 17.9694 5.62241L19.0897 4.57794C18.9077 4.44251 18.7187 4.31605 18.5236 4.19904V4.19904C18.3232 4.07855 18.1107 3.96222 17.8881 3.85254L16.7412 4.91779Z" fill="white"/>
</g>
<g style="mix-blend-mode:soft-light">
<path d="M13.6092 4.1107C14.3312 4.19751 15.044 4.34571 15.7393 4.55358L16.9306 3.4443C16.1695 3.16356 15.383 2.95269 14.5813 2.81445L13.2314 4.07331C13.3573 4.08577 13.4833 4.09491 13.6092 4.1107Z" fill="white"/>
</g>
</g>
<path d="M20.7834 4.81885H19.3599V6.79562H20.7834V4.81885Z" fill="#FA8A00"/>
<path d="M4.0646 4.81885H2.64111V6.79562H4.0646V4.81885Z" fill="#FA8A00"/>
<path d="M11.712 11.6136C16.7209 11.6136 20.7814 9.45631 20.7814 6.79511C20.7814 4.1339 16.7209 1.97656 11.712 1.97656C6.70309 1.97656 2.64258 4.1339 2.64258 6.79511C2.64258 9.45631 6.70309 11.6136 11.712 11.6136Z" fill="#FA8A00"/>
<path d="M11.712 9.63709C16.7209 9.63709 20.7814 7.47975 20.7814 4.81854C20.7814 2.15734 16.7209 0 11.712 0C6.70309 0 2.64258 2.15734 2.64258 4.81854C2.64258 7.47975 6.70309 9.63709 11.712 9.63709Z" fill="#FFCA00"/>
<path d="M11.7121 8.20281C15.7607 8.20281 19.0428 6.68758 19.0428 4.81845C19.0428 2.94931 15.7607 1.43408 11.7121 1.43408C7.66342 1.43408 4.38135 2.94931 4.38135 4.81845C4.38135 6.68758 7.66342 8.20281 11.7121 8.20281Z" fill="#FA8A00"/>
<path d="M11.711 8.20194C15.7601 8.20194 19.0425 6.728 19.0425 4.90981C19.0425 3.09161 15.7601 1.61768 11.711 1.61768C7.66185 1.61768 4.37939 3.09161 4.37939 4.90981C4.37939 6.728 7.66185 8.20194 11.711 8.20194Z" fill="#FFE700"/>
<path d="M11.7118 7.95432C15.7614 7.95432 19.0443 6.53581 19.0443 4.786C19.0443 3.03618 15.7614 1.61768 11.7118 1.61768C7.66224 1.61768 4.37939 3.03618 4.37939 4.786C4.37939 6.53581 7.66224 7.95432 11.7118 7.95432Z" fill="#FF9F00"/>
<path d="M11.0998 4.25588C10.0206 4.81509 9.68746 4.88489 9.42794 4.81675C9.1847 4.75277 9.07165 4.52842 9.53929 4.11046C9.89253 3.80294 10.2983 3.55747 10.7384 3.38507L11.087 3.24048L10.2125 2.6123L9.88275 2.74193C9.43646 2.91641 9.01552 3.14657 8.63055 3.42661L7.67899 3.18564L6.6709 4.01657L7.7141 4.28911C7.15395 5.04443 7.37151 5.69753 8.32821 5.96094C9.55985 6.29829 10.8463 5.72828 12.0043 5.08597C12.9815 4.55418 13.367 4.54836 13.6179 4.61151C14.0128 4.71122 14.0196 5.06354 13.6248 5.47485C13.2183 5.87743 12.7321 6.19599 12.1953 6.4113L11.767 6.58663L12.8239 7.37351L13.1665 7.23475C13.7555 6.98351 14.2953 6.63551 14.7622 6.20606L15.909 6.50686L16.7527 5.53633L15.5536 5.23305C15.9964 4.33731 15.3926 3.75649 14.5643 3.55541C13.2753 3.24381 12.0514 3.75815 11.0998 4.25588Z" fill="#FFCA00"/>
<g style="mix-blend-mode:soft-light">
<g style="mix-blend-mode:soft-light">
<path d="M15.5576 5.23475C15.8788 4.5858 15.6433 4.10469 15.1808 3.81055L13.9063 4.99794C13.8624 5.18112 13.7641 5.3478 13.6236 5.47739C13.3205 5.78111 12.9691 6.03582 12.583 6.23187L12.0083 6.76698L12.8254 7.37605L13.168 7.23729C13.4169 7.13303 13.6564 7.00879 13.884 6.86586L15.6167 5.25054L15.5576 5.23475Z" fill="white"/>
</g>
<g style="mix-blend-mode:soft-light">
<path d="M11.1 4.25614C10.3111 4.66412 9.92316 4.81036 9.66878 4.83363L8.43457 5.98363C9.63366 6.26116 10.879 5.71275 12.0036 5.08873C12.2668 4.94093 12.5418 4.81368 12.8258 4.70816L14.138 3.48587C13.0057 3.36289 11.9453 3.81408 11.1 4.25614Z" fill="white"/>
</g>
<g style="mix-blend-mode:soft-light">
<path d="M9.53938 4.11071C9.7549 3.91823 9.99291 3.7509 10.2486 3.61216L10.8404 3.06042L10.2117 2.6084L10.0404 2.67404L7.41699 5.12694C7.44012 5.39865 7.60714 5.62549 7.9129 5.79168L9.22247 4.57022C9.2319 4.45638 9.32012 4.30681 9.53938 4.11071Z" fill="white"/>
</g>
</g>
<g style="mix-blend-mode:soft-light">
<g style="mix-blend-mode:soft-light">
<path d="M12.5601 1.46492L13.9631 0.157045C13.5991 0.107189 13.2342 0.0739529 12.8702 0.0473633L11.3748 1.44166C11.7662 1.42919 12.1627 1.43917 12.5601 1.46492Z" fill="white"/>
</g>
<g style="mix-blend-mode:soft-light">
<path d="M12.4762 8.18118C11.8233 8.21347 11.1691 8.20514 10.5174 8.15625L9.14697 9.43505C9.22149 9.44668 9.29173 9.46164 9.3671 9.47244C9.63261 9.51066 9.89983 9.53891 10.1662 9.56384C10.4326 9.58877 10.6801 9.60289 10.937 9.61536H10.9422L12.4762 8.18118Z" fill="white"/>
</g>
<g style="mix-blend-mode:soft-light">
<path d="M6.44064 7.16533C6.17871 7.04146 5.92626 6.89957 5.68522 6.74072L4.57178 7.78021C4.80819 7.94104 5.05351 8.08917 5.30664 8.22393V8.22393L6.44064 7.16533Z" fill="white"/>
</g>
<g style="mix-blend-mode:soft-light">
<path d="M7.9964 9.20856L9.28114 8.00787C8.47653 7.88402 7.68858 7.67389 6.93178 7.38135L5.77637 8.46155C6.4885 8.78258 7.23231 9.03286 7.9964 9.20856Z" fill="white"/>
</g>
<g style="mix-blend-mode:soft-light">
<path d="M16.7412 2.35592C17.1781 2.54253 17.5904 2.77908 17.9694 3.06055L19.0897 2.01607C18.9077 1.88092 18.7187 1.75474 18.5236 1.638V1.638C18.3232 1.51752 18.1107 1.40202 17.8881 1.2915L16.7412 2.35592Z" fill="white"/>
</g>
<g style="mix-blend-mode:soft-light">
<path d="M13.6092 1.54815C14.3313 1.63456 15.0441 1.78276 15.7393 1.99103L16.9306 0.883407C16.1695 0.602959 15.3829 0.392366 14.5813 0.254395L13.2314 1.51242C13.3573 1.52405 13.4833 1.53402 13.6092 1.54815Z" fill="white"/>
</g>
</g>
<path d="M32.0002 20.8687H30.5767V22.8454H32.0002V20.8687Z" fill="#FA8A00"/>
<path d="M15.2804 20.8687H13.8569V22.8454H15.2804V20.8687Z" fill="#FA8A00"/>
<path d="M22.9288 27.6639C27.9377 27.6639 31.9982 25.5066 31.9982 22.8454C31.9982 20.1842 27.9377 18.0269 22.9288 18.0269C17.9199 18.0269 13.8594 20.1842 13.8594 22.8454C13.8594 25.5066 17.9199 27.6639 22.9288 27.6639Z" fill="#FA8A00"/>
<path d="M22.9288 25.6874C27.9377 25.6874 31.9982 23.53 31.9982 20.8688C31.9982 18.2076 27.9377 16.0503 22.9288 16.0503C17.9199 16.0503 13.8594 18.2076 13.8594 20.8688C13.8594 23.53 17.9199 25.6874 22.9288 25.6874Z" fill="#FFCA00"/>
<path d="M22.9289 24.2531C26.9775 24.2531 30.2596 22.7379 30.2596 20.8687C30.2596 18.9996 26.9775 17.4844 22.9289 17.4844C18.8802 17.4844 15.5981 18.9996 15.5981 20.8687C15.5981 22.7379 18.8802 24.2531 22.9289 24.2531Z" fill="#FA8A00"/>
<path d="M22.9278 24.2522C26.9769 24.2522 30.2593 22.7783 30.2593 20.9601C30.2593 19.1419 26.9769 17.668 22.9278 17.668C18.8786 17.668 15.5962 19.1419 15.5962 20.9601C15.5962 22.7783 18.8786 24.2522 22.9278 24.2522Z" fill="#FFE700"/>
<path d="M22.9286 24.0046C26.9782 24.0046 30.2611 22.5861 30.2611 20.8363C30.2611 19.0865 26.9782 17.668 22.9286 17.668C18.879 17.668 15.5962 19.0865 15.5962 20.8363C15.5962 22.5861 18.879 24.0046 22.9286 24.0046Z" fill="#FF9F00"/>
<path d="M22.32 20.3062C21.2409 20.8654 20.9077 20.9352 20.6482 20.867C20.4049 20.8031 20.2919 20.5787 20.7595 20.1608C21.1129 19.8534 21.5186 19.6079 21.9586 19.4354L22.3063 19.2908L21.4327 18.6626L21.103 18.7922C20.657 18.9673 20.2361 19.1975 19.8508 19.4769L18.8992 19.2359L17.8911 20.0669L18.9343 20.3394C18.3742 21.0947 18.5874 21.7478 19.5484 22.0112C20.7801 22.3486 22.0665 21.7786 23.2245 21.1363C24.2018 20.6045 24.5872 20.5987 24.8381 20.6626C25.233 20.7615 25.2398 21.1138 24.845 21.5251C24.4384 21.9275 23.9521 22.2461 23.4155 22.4616L22.9872 22.6369L24.0442 23.4238L24.3868 23.285C24.9759 23.0342 25.5158 22.6861 25.9824 22.2564L27.1292 22.5571L27.9703 21.5858L26.7712 21.2825C27.214 20.3868 26.6102 19.806 25.7811 19.6049C24.4921 19.2941 23.2682 19.8084 22.32 20.3062Z" fill="#FFCA00"/>
<g style="mix-blend-mode:soft-light">
<g style="mix-blend-mode:soft-light">
<path d="M26.7738 21.285C27.095 20.6361 26.8594 20.155 26.3961 19.8608L25.1225 21.0482C25.0786 21.2314 24.9803 21.3981 24.8398 21.5277C24.5369 21.8317 24.1855 22.0865 23.7992 22.2822L23.2236 22.8181L24.0416 23.4263L24.3842 23.2876C24.6332 23.1835 24.8727 23.0592 25.1002 22.9162L26.8329 21.3008L26.7738 21.285Z" fill="white"/>
</g>
<g style="mix-blend-mode:soft-light">
<path d="M22.3202 20.3059C21.5314 20.7148 21.1425 20.8602 20.8881 20.8834L19.6548 22.0334C20.8539 22.311 22.0992 21.7626 23.2238 21.1385C23.487 20.9907 23.762 20.8635 24.046 20.758L25.3573 19.5357C24.2225 19.4127 23.1621 19.8639 22.3202 20.3059Z" fill="white"/>
</g>
<g style="mix-blend-mode:soft-light">
<path d="M20.7562 20.1608C20.9718 19.9699 21.2095 19.804 21.4645 19.6664L22.0563 19.1146L21.4277 18.6626L21.2606 18.7282L18.6372 21.1778C18.6603 21.4487 18.8274 21.6764 19.1323 21.8426L20.4427 20.6211C20.4487 20.5089 20.5369 20.3569 20.7562 20.1608Z" fill="white"/>
</g>
</g>
<g style="mix-blend-mode:soft-light">
<g style="mix-blend-mode:soft-light">
<path d="M23.776 17.511L25.1789 16.2031C24.814 16.1532 24.45 16.12 24.086 16.0942L22.5906 17.4877C22.9828 17.4794 23.3785 17.4894 23.776 17.511Z" fill="white"/>
</g>
<g style="mix-blend-mode:soft-light">
<path d="M23.6901 24.2324C23.0376 24.2647 22.3836 24.2564 21.7322 24.2075L20.3618 25.4863C20.4363 25.4979 20.5066 25.5137 20.5811 25.5237C20.8474 25.5619 21.1138 25.5902 21.3802 25.6151C21.6466 25.64 21.8941 25.6542 22.151 25.6666H22.1562L23.6901 24.2324Z" fill="white"/>
</g>
<g style="mix-blend-mode:soft-light">
<path d="M17.6574 23.2151C17.3955 23.0913 17.1431 22.9494 16.902 22.7905L15.7886 23.83C16.0247 23.9908 16.2697 24.139 16.5226 24.2737V24.2737L17.6574 23.2151Z" fill="white"/>
</g>
<g style="mix-blend-mode:soft-light">
<path d="M19.2132 25.2584L20.4979 24.0585C19.6933 23.9345 18.9053 23.7241 18.1486 23.4312L16.9932 24.5072C17.7051 24.8297 18.4489 25.0813 19.2132 25.2584V25.2584Z" fill="white"/>
</g>
<g style="mix-blend-mode:soft-light">
<path d="M27.958 18.4057C28.3949 18.5923 28.8072 18.8289 29.1862 19.1103L30.3065 18.0659C30.1352 17.9354 29.9417 17.8091 29.7404 17.6878C29.54 17.5673 29.3275 17.4518 29.1049 17.3413L27.958 18.4057Z" fill="white"/>
</g>
<g style="mix-blend-mode:soft-light">
<path d="M24.826 17.6C25.548 17.6865 26.2608 17.8347 26.9561 18.0428L28.1466 16.9327C27.3858 16.6522 26.5995 16.4416 25.7981 16.3037L24.4482 17.5626C24.5741 17.575 24.7001 17.585 24.826 17.6Z" fill="white"/>
</g>
</g>
<path d="M32.0002 18.3286H30.5767V20.3054H32.0002V18.3286Z" fill="#FA8A00"/>
<path d="M15.2804 18.3286H13.8569V20.3054H15.2804V18.3286Z" fill="#FA8A00"/>
<path d="M22.9288 25.1239C27.9377 25.1239 31.9982 22.9666 31.9982 20.3054C31.9982 17.6442 27.9377 15.4868 22.9288 15.4868C17.9199 15.4868 13.8594 17.6442 13.8594 20.3054C13.8594 22.9666 17.9199 25.1239 22.9288 25.1239Z" fill="#FA8A00"/>
<path d="M22.9288 23.1473C27.9377 23.1473 31.9982 20.99 31.9982 18.3288C31.9982 15.6676 27.9377 13.5103 22.9288 13.5103C17.9199 13.5103 13.8594 15.6676 13.8594 18.3288C13.8594 20.99 17.9199 23.1473 22.9288 23.1473Z" fill="#FFCA00"/>
<path d="M22.9289 21.7131C26.9775 21.7131 30.2596 20.1978 30.2596 18.3287C30.2596 16.4596 26.9775 14.9443 22.9289 14.9443C18.8802 14.9443 15.5981 16.4596 15.5981 18.3287C15.5981 20.1978 18.8802 21.7131 22.9289 21.7131Z" fill="#FA8A00"/>
<path d="M22.9278 21.7122C26.9769 21.7122 30.2593 20.2383 30.2593 18.4201C30.2593 16.6019 26.9769 15.1279 22.9278 15.1279C18.8786 15.1279 15.5962 16.6019 15.5962 18.4201C15.5962 20.2383 18.8786 21.7122 22.9278 21.7122Z" fill="#FFE700"/>
<path d="M22.9286 21.4646C26.9782 21.4646 30.2611 20.0461 30.2611 18.2963C30.2611 16.5464 26.9782 15.1279 22.9286 15.1279C18.879 15.1279 15.5962 16.5464 15.5962 18.2963C15.5962 20.0461 18.879 21.4646 22.9286 21.4646Z" fill="#FF9F00"/>
<path d="M22.3198 17.7661C21.2406 18.3253 20.9074 18.3951 20.6479 18.327C20.4047 18.263 20.2916 18.0387 20.7593 17.6207C21.1126 17.3133 21.5184 17.0679 21.9584 16.8953L22.3061 16.7507L21.4325 16.1226L21.1027 16.2522C20.6568 16.4273 20.2359 16.6574 19.8505 16.9369L18.8938 16.6959L17.8857 17.5268L18.929 17.7994C18.3688 18.5547 18.5821 19.2078 19.5431 19.4712C20.7747 19.8085 22.0611 19.2385 23.2191 18.5962C24.1964 18.0644 24.5818 18.0586 24.8328 18.1226C25.2276 18.2215 25.2345 18.5738 24.8396 18.9851C24.4332 19.3878 23.9469 19.7063 23.4101 19.9216L22.9819 20.0969L24.0388 20.8838L24.3814 20.745C24.9705 20.4941 25.5104 20.1461 25.977 19.7163L27.1239 20.0171L27.965 19.0458L26.7736 18.7483C27.2164 17.8525 26.6125 17.2717 25.7835 17.0706C24.4919 16.7541 23.2679 17.2684 22.3198 17.7661Z" fill="#FFCA00"/>
<g style="mix-blend-mode:soft-light">
<g style="mix-blend-mode:soft-light">
<path d="M26.7738 18.7479C27.095 18.099 26.8594 17.6179 26.3961 17.3237L25.1225 18.5111C25.0786 18.6943 24.9803 18.861 24.8398 18.9906C24.5369 19.2946 24.1855 19.5493 23.7992 19.7451L23.2236 20.281L24.0416 20.8892L24.3842 20.7505C24.6332 20.6464 24.8727 20.5221 25.1002 20.379L26.8329 18.7637L26.7738 18.7479Z" fill="white"/>
</g>
<g style="mix-blend-mode:soft-light">
<path d="M22.3202 17.7661C21.5314 18.1749 21.1425 18.3204 20.8881 18.3436L19.6514 19.4961C20.8505 19.7736 22.0958 19.2252 23.2204 18.6012C23.4836 18.4534 23.7586 18.3262 24.0426 18.2206L25.3539 16.9984C24.2225 16.8729 23.1621 17.3241 22.3202 17.7661Z" fill="white"/>
</g>
<g style="mix-blend-mode:soft-light">
<path d="M20.7562 17.6207C20.9718 17.4299 21.2095 17.264 21.4645 17.1263L22.0563 16.5746L21.4277 16.1226L21.2606 16.1882L18.6372 18.6378C18.6603 18.9087 18.8274 19.1363 19.1323 19.3025L20.4358 18.0835C20.4487 17.9689 20.5369 17.8168 20.7562 17.6207Z" fill="white"/>
</g>
</g>
<g style="mix-blend-mode:soft-light">
<g style="mix-blend-mode:soft-light">
<path d="M23.776 14.9709L25.1789 13.6631C24.814 13.6132 24.45 13.58 24.086 13.5542L22.5906 14.9477C22.9828 14.9394 23.3785 14.9493 23.776 14.9709Z" fill="white"/>
</g>
<g style="mix-blend-mode:soft-light">
<path d="M23.6901 21.6914C23.0376 21.7237 22.3836 21.7154 21.7322 21.6665L20.3618 22.9453C20.4363 22.9569 20.5066 22.9727 20.5811 22.9827C20.8474 23.0209 21.1138 23.0492 21.3802 23.0741C21.6466 23.099 21.8941 23.1131 22.151 23.1256H22.1562L23.6901 21.6914Z" fill="white"/>
</g>
<g style="mix-blend-mode:soft-light">
<path d="M17.6574 20.6756C17.3955 20.5517 17.1431 20.4098 16.902 20.251L15.7886 21.2905C16.0245 21.4516 16.2696 21.5997 16.5226 21.7342V21.7342L17.6574 20.6756Z" fill="white"/>
</g>
<g style="mix-blend-mode:soft-light">
<path d="M19.2132 22.7183L20.4979 21.5185C19.6933 21.3945 18.9053 21.1841 18.1486 20.8911L16.9932 21.9672C17.705 22.29 18.4488 22.5417 19.2132 22.7183Z" fill="white"/>
</g>
<g style="mix-blend-mode:soft-light">
<path d="M27.958 15.8657C28.3951 16.0522 28.8075 16.2891 29.1862 16.5711L30.3065 15.5258C30.1352 15.3954 29.9417 15.2691 29.7404 15.1478C29.54 15.0273 29.3275 14.9118 29.1049 14.8013L27.958 15.8657Z" fill="white"/>
</g>
<g style="mix-blend-mode:soft-light">
<path d="M24.826 15.0599C25.548 15.1464 26.2608 15.2946 26.9561 15.5028L28.1466 14.3927C27.3858 14.1121 26.5995 13.9015 25.7981 13.7637L24.4482 15.0225C24.5741 15.035 24.7001 15.0441 24.826 15.0599Z" fill="white"/>
</g>
</g>
<path d="M32.0002 15.7671H30.5767V17.7439H32.0002V15.7671Z" fill="#FA8A00"/>
<path d="M15.2804 15.7671H13.8569V17.7439H15.2804V15.7671Z" fill="#FA8A00"/>
<path d="M22.9288 22.5629C27.9377 22.5629 31.9982 20.4055 31.9982 17.7443C31.9982 15.0831 27.9377 12.9258 22.9288 12.9258C17.9199 12.9258 13.8594 15.0831 13.8594 17.7443C13.8594 20.4055 17.9199 22.5629 22.9288 22.5629Z" fill="#FA8A00"/>
<path d="M22.9288 20.5853C27.9377 20.5853 31.9982 18.428 31.9982 15.7668C31.9982 13.1056 27.9377 10.9482 22.9288 10.9482C17.9199 10.9482 13.8594 13.1056 13.8594 15.7668C13.8594 18.428 17.9199 20.5853 22.9288 20.5853Z" fill="#FFCA00"/>
<path d="M22.9289 19.1511C26.9775 19.1511 30.2596 17.6358 30.2596 15.7667C30.2596 13.8976 26.9775 12.3823 22.9289 12.3823C18.8802 12.3823 15.5981 13.8976 15.5981 15.7667C15.5981 17.6358 18.8802 19.1511 22.9289 19.1511Z" fill="#FA8A00"/>
<path d="M22.9278 19.1512C26.9769 19.1512 30.2593 17.6772 30.2593 15.859C30.2593 14.0408 26.9769 12.5669 22.9278 12.5669C18.8786 12.5669 15.5962 14.0408 15.5962 15.859C15.5962 17.6772 18.8786 19.1512 22.9278 19.1512Z" fill="#FFE700"/>
<path d="M22.9286 18.9035C26.9782 18.9035 30.2611 17.485 30.2611 15.7352C30.2611 13.9854 26.9782 12.5669 22.9286 12.5669C18.879 12.5669 15.5962 13.9854 15.5962 15.7352C15.5962 17.485 18.879 18.9035 22.9286 18.9035Z" fill="#FF9F00"/>
<path d="M22.3198 15.2041C21.2406 15.7633 20.9074 15.8331 20.6479 15.765C20.4047 15.701 20.2916 15.4767 20.7593 15.0595C21.1127 14.752 21.5184 14.5063 21.9584 14.3333L22.3061 14.1896L21.4325 13.5605L21.1027 13.691C20.6566 13.8655 20.2357 14.0954 19.8505 14.3749L18.8938 14.1347L17.8857 14.9656L18.929 15.239C18.3688 15.9935 18.5821 16.6466 19.5431 16.9108C20.7747 17.2482 22.0611 16.6773 23.2191 16.0359C24.1964 15.5041 24.5818 15.4983 24.8328 15.5614C25.2276 15.6611 25.2345 16.0126 24.8396 16.4247C24.433 16.8269 23.9467 17.1451 23.4101 17.3604L22.9819 17.5357L24.0388 18.3234L24.3814 18.1838C24.9705 17.9332 25.5103 17.5854 25.977 17.156L27.1239 17.4568L27.965 16.4854L26.7659 16.1821C27.2087 15.2864 26.6048 14.7047 25.7758 14.5045C24.4919 14.1929 23.2679 14.7072 22.3198 15.2041Z" fill="#FFCA00"/>
<g style="mix-blend-mode:soft-light">
<g style="mix-blend-mode:soft-light">
<path d="M26.7738 16.184C27.095 15.5342 26.8594 15.0531 26.3961 14.7598L25.1225 15.9463C25.0784 16.1297 24.9802 16.2966 24.8398 16.4266C24.5367 16.7301 24.1853 16.9846 23.7992 17.1803L23.2236 17.7162L24.0416 18.3253L24.3842 18.1857C24.6332 18.0816 24.8727 17.9573 25.1002 17.8143L26.8329 16.1998L26.7738 16.184Z" fill="white"/>
</g>
<g style="mix-blend-mode:soft-light">
<path d="M22.3202 15.204C21.5314 15.6128 21.1425 15.7582 20.8881 15.7815L19.6548 16.9315C20.8539 17.209 22.0992 16.6606 23.2238 16.0374C23.4872 15.8897 23.7622 15.7622 24.046 15.656L25.3573 14.4337C24.2225 14.3107 23.1621 14.7594 22.3202 15.204Z" fill="white"/>
</g>
<g style="mix-blend-mode:soft-light">
<path d="M20.7562 15.0594C20.9716 14.8672 21.2093 14.6999 21.4645 14.5609L22.0563 14.0092L21.4277 13.5571L21.2606 13.6236L18.6372 16.0757C18.6603 16.3465 18.8274 16.5742 19.1323 16.7404L20.4427 15.5198C20.4487 15.4068 20.5369 15.258 20.7562 15.0594Z" fill="white"/>
</g>
</g>
<g style="mix-blend-mode:soft-light">
<g style="mix-blend-mode:soft-light">
<path d="M23.7761 12.4089L25.1799 11.1035C24.815 11.0536 24.451 11.0204 24.087 10.9946L22.5916 12.3889C22.983 12.3781 23.3787 12.3873 23.7761 12.4089Z" fill="white"/>
</g>
<g style="mix-blend-mode:soft-light">
<path d="M23.6901 19.1296C23.0376 19.1625 22.3836 19.1545 21.7322 19.1055L20.3618 20.3834C20.4363 20.3951 20.5066 20.4109 20.5811 20.4217C20.8474 20.4591 21.1138 20.4881 21.3802 20.5122C21.6466 20.5363 21.8941 20.5521 22.151 20.5637H22.1562L23.6901 19.1296Z" fill="white"/>
</g>
<g style="mix-blend-mode:soft-light">
<path d="M17.6574 18.1132C17.3955 17.9896 17.1431 17.848 16.902 17.6895L15.7886 18.7281C16.0247 18.8887 16.2698 19.0365 16.5226 19.171V19.171L17.6574 18.1132Z" fill="white"/>
</g>
<g style="mix-blend-mode:soft-light">
<path d="M19.2132 20.1606L20.4979 18.9599C19.6932 18.8363 18.9052 18.6258 18.1486 18.3325L16.9932 19.4127C17.7054 19.7337 18.4492 19.9842 19.2132 20.1606V20.1606Z" fill="white"/>
</g>
<g style="mix-blend-mode:soft-light">
<path d="M27.958 13.3048C28.395 13.4911 28.8074 13.7277 29.1862 14.0095L30.3065 12.965C30.1245 12.8296 29.9355 12.7031 29.7404 12.5861V12.5861C29.54 12.4648 29.3275 12.3493 29.1049 12.2388L27.958 13.3048Z" fill="white"/>
</g>
<g style="mix-blend-mode:soft-light">
<path d="M24.826 12.4979C25.548 12.5848 26.2607 12.733 26.9561 12.9408L28.1466 11.8307C27.3857 11.5505 26.5994 11.3399 25.7981 11.2017L24.4482 12.4605C24.5741 12.473 24.7001 12.4821 24.826 12.4979Z" fill="white"/>
</g>
</g>
<path d="M16.5451 14.9266L15.5161 15.8809L16.9241 17.3098L17.9531 16.3555L16.5451 14.9266Z" fill="#FA8A00"/>
<path d="M4.45914 26.1346L3.43018 27.0889L4.83817 28.5178L5.86714 27.5635L4.45914 26.1346Z" fill="#FA8A00"/>
<path d="M14.8282 25.9199C18.4489 22.562 19.8474 18.2805 17.9519 16.3568C16.0564 14.4332 11.5847 15.5959 7.96399 18.9537C4.34333 22.3116 2.94481 26.5931 4.8403 28.5168C6.7358 30.4404 11.2075 29.2777 14.8282 25.9199Z" fill="#FA8A00"/>
<path d="M13.42 24.4902C17.0407 21.1323 18.4392 16.8508 16.5437 14.9271C14.6482 13.0035 10.1764 14.1662 6.55579 17.524C2.93513 20.8819 1.5366 25.1634 3.4321 27.0871C5.3276 29.0107 9.79933 27.848 13.42 24.4902Z" fill="#FFCA00"/>
<path d="M12.3975 23.4544C15.324 20.7403 16.6172 17.4448 15.2859 16.0937C13.9546 14.7426 10.5029 15.8476 7.57633 18.5617C4.64978 21.2758 3.3566 24.5714 4.68792 25.9225C6.01925 27.2735 9.47094 26.1686 12.3975 23.4544Z" fill="#FA8A00"/>
<path d="M12.3966 23.4543C15.3235 20.7399 16.6464 17.4739 15.3513 16.1597C14.0563 14.8454 10.6337 15.9805 7.70683 18.6949C4.77994 21.4094 3.45707 24.6753 4.75211 25.9896C6.04716 27.3038 9.46971 26.1688 12.3966 23.4543Z" fill="#FFE700"/>
<path d="M12.2218 23.2748C15.1491 20.56 16.5117 17.3339 15.2654 16.069C14.019 14.8042 10.6357 15.9796 7.70843 18.6943C4.78119 21.4091 3.41856 24.6352 4.6649 25.9001C5.91124 27.1649 9.2946 25.9895 12.2218 23.2748Z" fill="#FF9F00"/>
<path d="M10.0319 20.1825C11.2131 19.8726 11.5051 19.7023 11.6464 19.4804C11.7783 19.2727 11.7021 19.0334 11.0666 19.04C10.5921 19.0502 10.1231 19.1408 9.68079 19.3076L9.32534 19.4339L9.51891 18.3944L9.85037 18.2706C10.2989 18.1014 10.7682 17.9897 11.2464 17.9382L11.7698 17.1305L13.0922 17.0674L12.5252 17.9598C13.4673 18.1376 13.7722 18.755 13.2575 19.5859C12.598 20.6503 11.2584 21.0891 9.96171 21.3907C8.87396 21.6524 8.59132 21.9042 8.45085 22.1169C8.23331 22.4493 8.47655 22.7127 9.0504 22.7509C9.63075 22.7738 10.2099 22.6828 10.7531 22.4834L11.1874 22.328L10.9732 23.6035L10.6229 23.7314C10.018 23.9398 9.38055 24.0452 8.73865 24.043L8.11512 25.0235L6.81753 24.8739L7.47532 23.8577C6.52033 23.4996 6.5503 22.6745 7.01195 21.9782C7.73226 20.8905 8.98703 20.4526 10.0319 20.1825Z" fill="#FFCA00"/>
<g style="mix-blend-mode:soft-light">
<g style="mix-blend-mode:soft-light">
<path d="M8.2032 18.0005L8.28885 16.1143C7.99079 16.3228 7.703 16.5422 7.42208 16.7682L7.33643 18.7782C7.60708 18.514 7.90085 18.2547 8.2032 18.0005Z" fill="white"/>
</g>
<g style="mix-blend-mode:soft-light">
<path d="M12.9302 22.918C12.4813 23.3788 12.0027 23.8114 11.4973 24.2134L11.4116 26.0572C11.4741 26.0157 11.535 25.9799 11.5975 25.9367C11.8167 25.7863 12.0257 25.6276 12.2399 25.4673C12.454 25.3069 12.6381 25.1523 12.8308 24.9895L12.9302 22.918Z" fill="white"/>
</g>
<g style="mix-blend-mode:soft-light">
<path d="M7.84503 26.2266C7.5677 26.3129 7.28433 26.3799 6.9971 26.4268L6.93115 27.9225C7.21658 27.8804 7.49937 27.823 7.77822 27.7505V27.7505L7.84503 26.2266Z" fill="white"/>
</g>
<g style="mix-blend-mode:soft-light">
<path d="M10.4242 26.6625L10.5004 24.9316C9.8319 25.3817 9.11371 25.7579 8.35917 26.0534L8.2915 27.6056C9.03336 27.3618 9.74789 27.0458 10.4242 26.6625V26.6625Z" fill="white"/>
</g>
<g style="mix-blend-mode:soft-light">
<path d="M11.8638 15.8474C12.3122 15.689 12.7786 15.5835 13.253 15.5333L13.3189 14.0269C13.0988 14.0501 12.8719 14.0859 12.6406 14.1332C12.4102 14.1806 12.1738 14.2387 11.9349 14.3085L11.8638 15.8474Z" fill="white"/>
</g>
<g style="mix-blend-mode:soft-light">
<path d="M9.02536 17.3636C9.60904 16.9421 10.2298 16.5711 10.8805 16.2552L10.9508 14.6548C10.201 14.9624 9.48248 15.3371 8.80438 15.774L8.72559 17.5896C8.82494 17.5148 8.92344 17.4367 9.02536 17.3636Z" fill="white"/>
</g>
</g>
<g style="mix-blend-mode:soft-light">
<g style="mix-blend-mode:soft-light">
<path d="M10.7568 22.4825L11.1911 22.3271L10.977 23.6026L10.6267 23.7306C10.5864 23.7455 10.541 23.7572 10.4956 23.7713L10.5547 22.544C10.6224 22.5232 10.69 22.5058 10.7568 22.4825Z" fill="white"/>
</g>
<g style="mix-blend-mode:soft-light">
<path d="M11.066 19.0399C10.9444 19.0399 10.8339 19.0532 10.7234 19.0648L10.7739 18.0187C10.9307 17.9879 11.0857 17.9547 11.2467 17.9356L11.77 17.1279H11.7829L11.681 19.2352C11.627 19.1222 11.4497 19.0357 11.066 19.0399Z" fill="white"/>
</g>
<g style="mix-blend-mode:soft-light">
<path d="M8.54755 20.7041L8.48161 22.0743C8.47133 22.0884 8.45933 22.1025 8.45076 22.1158C8.34028 22.282 8.3497 22.4358 8.45848 22.5479L8.35912 24.641L8.11588 25.0224L7.83838 24.9909L8.03109 20.9908C8.19653 20.8843 8.36906 20.7885 8.54755 20.7041Z" fill="white"/>
</g>
<g style="mix-blend-mode:soft-light">
<path d="M11.6709 19.4287L11.6007 20.8795C11.2816 21.0139 10.9537 21.1278 10.6191 21.2202L10.6782 19.9987C11.3257 19.7968 11.5347 19.6539 11.6461 19.4802C11.6554 19.4635 11.6637 19.4463 11.6709 19.4287Z" fill="white"/>
</g>
<g style="mix-blend-mode:soft-light">
<path d="M7.06378 23.6199C6.54988 23.2045 6.63125 22.5497 7.01068 21.978C7.05436 21.9132 7.10489 21.8575 7.15114 21.7969L7.06378 23.6199Z" fill="white"/>
</g>
<g style="mix-blend-mode:soft-light">
<path d="M13.1085 18.1709C13.5675 18.4584 13.6438 18.9619 13.2575 19.5835C13.1877 19.6919 13.1101 19.7955 13.0254 19.8934L13.1085 18.1709Z" fill="white"/>
</g>
<g style="mix-blend-mode:soft-light">
<path d="M7.00227 24.8957L6.81641 24.8749L7.01768 24.5625L7.00227 24.8957Z" fill="white"/>
</g>
</g>
</svg>
