<svg width="25" height="25" viewBox="0 0 24 25" fill="none" xmlns="http://www.w3.org/2000/svg">
<path d="M7.62302 5.74599C8.08509 5.44348 8.7049 5.57282 9.00742 6.03488C9.30993 6.49695 9.18059 7.11676 8.71852 7.41928C7.03469 8.52168 6 10.3937 6 12.4434C6 15.7571 8.68629 18.4434 12 18.4434C15.3137 18.4434 18 15.7571 18 12.4434C18 10.4389 17.0108 8.60306 15.3876 7.49036C14.932 7.1781 14.8159 6.55568 15.1281 6.10014C15.4404 5.64461 16.0628 5.52846 16.5184 5.84072C18.68 7.32248 20 9.77223 20 12.4434C20 16.8616 16.4183 20.4434 12 20.4434C7.58172 20.4434 4 16.8616 4 12.4434C4 9.71189 5.38057 7.21413 7.62302 5.74599Z" fill="white"/>
<rect x="11" y="2" width="2" height="10" rx="1" fill="white"/>
</svg>
