<svg width="30" height="30" viewBox="0 0 30 30" fill="none" xmlns="http://www.w3.org/2000/svg">
<path d="M25 25V25.625H25.625V25H25ZM19.1925 18.3075C19.0751 18.1901 18.916 18.1242 18.75 18.1242C18.584 18.1242 18.4249 18.1901 18.3075 18.3075C18.1901 18.4249 18.1242 18.584 18.1242 18.75C18.1242 18.916 18.1901 19.0751 18.3075 19.1925L19.1925 18.3075ZM24.375 17.5V25H25.625V17.5H24.375ZM25 24.375H17.5V25.625H25V24.375ZM25.4425 24.5575L19.1925 18.3075L18.3075 19.1925L24.5575 25.4425L25.4425 24.5575ZM5 25H4.375V25.625H5V25ZM11.6925 19.1925C11.8099 19.0751 11.8758 18.916 11.8758 18.75C11.8758 18.584 11.8099 18.4249 11.6925 18.3075C11.5751 18.1901 11.416 18.1242 11.25 18.1242C11.084 18.1242 10.9249 18.1901 10.8075 18.3075L11.6925 19.1925ZM4.375 17.5V25H5.625V17.5H4.375ZM5 25.625H12.5V24.375H5V25.625ZM5.4425 25.4425L11.6925 19.1925L10.8075 18.3075L4.5575 24.5575L5.4425 25.4425ZM25 5H25.625V4.375H25V5ZM18.3075 10.8075C18.2494 10.8656 18.2033 10.9346 18.1718 11.0105C18.1404 11.0864 18.1242 11.1678 18.1242 11.25C18.1242 11.3322 18.1404 11.4136 18.1718 11.4895C18.2033 11.5654 18.2494 11.6344 18.3075 11.6925C18.3656 11.7506 18.4346 11.7967 18.5105 11.8282C18.5864 11.8596 18.6678 11.8758 18.75 11.8758C18.8322 11.8758 18.9136 11.8596 18.9895 11.8282C19.0654 11.7967 19.1344 11.7506 19.1925 11.6925L18.3075 10.8075ZM25.625 12.5V5H24.375V12.5H25.625ZM25 4.375H17.5V5.625H25V4.375ZM24.5575 4.5575L18.3075 10.8075L19.1925 11.6925L25.4425 5.4425L24.5575 4.5575ZM5 5V4.375H4.375V5H5ZM10.8075 11.6925C10.9249 11.8099 11.084 11.8758 11.25 11.8758C11.416 11.8758 11.5751 11.8099 11.6925 11.6925C11.8099 11.5751 11.8758 11.416 11.8758 11.25C11.8758 11.084 11.8099 10.9249 11.6925 10.8075L10.8075 11.6925ZM5.625 12.5V5H4.375V12.5H5.625ZM5 5.625H12.5V4.375H5V5.625ZM4.5575 5.4425L10.8075 11.6925L11.6925 10.8075L5.4425 4.5575L4.5575 5.4425Z" fill="white"/>
</svg>
