<svg width="27" height="27" viewBox="0 0 26 26" fill="none" xmlns="http://www.w3.org/2000/svg">
<path fill-rule="evenodd" clip-rule="evenodd" d="M17.1368 0C17.4111 0 17.6743 0.112207 17.8683 0.311936C18.0623 0.511666 18.1713 0.782557 18.1713 1.06502V2.48504C18.1713 3.14411 17.917 3.77619 17.4643 4.24223C17.0116 4.70826 16.3976 4.97008 15.7574 4.97008H14.378C14.2865 4.97008 14.1988 5.00748 14.1342 5.07406C14.0695 5.14064 14.0332 5.23093 14.0332 5.32509V6.74511H14.6153C18.1189 6.74511 19.8693 6.74511 21.2156 7.617C21.5563 7.83711 21.8722 8.09555 22.1577 8.38666C23.2888 9.53688 23.6888 11.2934 24.4847 14.8052L25.8959 21.0149C26.1171 21.9862 25.9831 23.0074 25.5194 23.8835C25.0557 24.7595 24.2948 25.429 23.382 25.7642C22.4692 26.0993 21.4684 26.0766 20.5709 25.7003C19.6733 25.324 18.9419 24.6206 18.5162 23.7243L18.3506 23.375C17.9869 22.6107 17.4222 21.9667 16.7207 21.5163C16.0191 21.066 15.2089 20.8273 14.3821 20.8275H11.6165C10.79 20.8276 9.98003 21.0664 9.27875 21.5167C8.57747 21.9671 8.01296 22.6109 7.64937 23.375L7.48385 23.7243C7.05814 24.6206 6.32667 25.324 5.42911 25.7003C4.53156 26.0766 3.53083 26.0993 2.61802 25.7642C1.70522 25.429 0.944304 24.7595 0.480593 23.8835C0.0168823 23.0074 -0.117131 21.9862 0.104145 21.0149L1.51388 14.8037C2.31116 11.2934 2.7098 9.5383 3.83952 8.38666C4.12581 8.09545 4.44219 7.83736 4.78301 7.617C6.12929 6.74511 7.88111 6.74511 11.3847 6.74511H11.9655V5.32509C11.9655 3.95334 13.0469 2.84005 14.3794 2.84005H15.7588C15.8502 2.84005 15.9379 2.80264 16.0026 2.73607C16.0673 2.66949 16.1036 2.57919 16.1036 2.48504V1.06502C16.1036 0.782557 16.2126 0.511666 16.4066 0.311936C16.6006 0.112207 16.8638 0 17.1382 0H17.1368ZM18.5162 12.4252C18.5162 12.8018 18.3708 13.163 18.1121 13.4293C17.8535 13.6956 17.5026 13.8452 17.1368 13.8452C16.7709 13.8452 16.4201 13.6956 16.1614 13.4293C15.9027 13.163 15.7574 12.8018 15.7574 12.4252C15.7574 12.0486 15.9027 11.6874 16.1614 11.4211C16.4201 11.1548 16.7709 11.0052 17.1368 11.0052C17.5026 11.0052 17.8535 11.1548 18.1121 11.4211C18.3708 11.6874 18.5162 12.0486 18.5162 12.4252ZM8.17078 11.3602C8.44516 11.3602 8.70829 11.4724 8.90231 11.6721C9.09632 11.8719 9.20532 12.1427 9.20532 12.4252V13.4902H10.2399C10.5142 13.4902 10.7774 13.6024 10.9714 13.8022C11.1654 14.0019 11.2744 14.2728 11.2744 14.5552C11.2744 14.8377 11.1654 15.1086 10.9714 15.3083C10.7774 15.508 10.5142 15.6203 10.2399 15.6203H9.20532V16.6853C9.20532 16.9677 9.09632 17.2386 8.90231 17.4384C8.70829 17.6381 8.44516 17.7503 8.17078 17.7503C7.8964 17.7503 7.63326 17.6381 7.43925 17.4384C7.24524 17.2386 7.13624 16.9677 7.13624 16.6853V15.6203H6.1017C5.82733 15.6203 5.56419 15.508 5.37018 15.3083C5.17616 15.1086 5.06717 14.8377 5.06717 14.5552C5.06717 14.2728 5.17616 14.0019 5.37018 13.8022C5.56419 13.6024 5.82733 13.4902 6.1017 13.4902H7.13624V12.4252C7.13624 12.1427 7.24524 11.8719 7.43925 11.6721C7.63326 11.4724 7.8964 11.3602 8.17078 11.3602ZM19.8955 17.3953C20.2614 17.3953 20.6122 17.2457 20.8709 16.9794C21.1296 16.7131 21.2749 16.3519 21.2749 15.9753C21.2749 15.5986 21.1296 15.2375 20.8709 14.9712C20.6122 14.7048 20.2614 14.5552 19.8955 14.5552C19.5297 14.5552 19.1788 14.7048 18.9202 14.9712C18.6615 15.2375 18.5162 15.5986 18.5162 15.9753C18.5162 16.3519 18.6615 16.7131 18.9202 16.9794C19.1788 17.2457 19.5297 17.3953 19.8955 17.3953Z" fill="url(#paint0_linear_24_1275)"/>
<defs>
<linearGradient id="paint0_linear_24_1275" x1="3.60763e-07" y1="1.18749" x2="26.7241" y2="1.99352" gradientUnits="userSpaceOnUse">
<stop stop-color="#524DF5"/>
<stop offset="0.935908" stop-color="#9A1AFF"/>
</linearGradient>
</defs>
</svg>
