<svg width="27" height="27" viewBox="0 0 30 30" fill="#fff" xmlns="http://www.w3.org/2000/svg">
<path fill-rule="evenodd" clip-rule="evenodd" d="M19.7732 0C20.0898 0 20.3934 0.129469 20.6173 0.359926C20.8411 0.590384 20.9669 0.902951 20.9669 1.22887V2.86735C20.9669 3.62782 20.6734 4.35715 20.1511 4.89488C19.6288 5.43261 18.9203 5.73471 18.1816 5.73471H16.59C16.4845 5.73471 16.3833 5.77787 16.3086 5.85468C16.234 5.9315 16.1921 6.03569 16.1921 6.14433V7.78282H16.8638C20.9064 7.78282 22.9261 7.78282 24.4795 8.78885C24.8727 9.04282 25.2371 9.34102 25.5666 9.67691C26.8717 11.0041 27.3333 13.0309 28.2516 17.0829L29.8798 24.248C30.1352 25.3687 29.9805 26.547 29.4455 27.5579C28.9104 28.5687 28.0324 29.3412 26.9792 29.7279C25.926 30.1146 24.7713 30.0883 23.7356 29.6542C22.7 29.22 21.856 28.4084 21.3648 27.3742L21.1738 26.9712C20.7542 26.0892 20.1025 25.3462 19.2931 24.8266C18.4836 24.3069 17.5487 24.0315 16.5948 24.0317H13.4036C12.4499 24.0318 11.5154 24.3074 10.7062 24.827C9.89708 25.3466 9.24572 26.0895 8.8262 26.9712L8.63521 27.3742C8.14401 28.4084 7.3 29.22 6.26436 29.6542C5.22873 30.0883 4.07403 30.1146 3.0208 29.7279C1.96756 29.3412 1.08958 28.5687 0.554531 27.5579C0.0194796 26.547 -0.135151 25.3687 0.120168 24.248L1.74678 17.0812C2.66672 13.0309 3.12669 11.0057 4.43021 9.67691C4.76055 9.3409 5.1256 9.04311 5.51886 8.78885C7.07226 7.78282 9.09359 7.78282 13.1362 7.78282H13.8063V6.14433C13.8063 4.56155 15.0541 3.27698 16.5916 3.27698H18.1832C18.2887 3.27698 18.3899 3.23382 18.4645 3.157C18.5392 3.08018 18.5811 2.97599 18.5811 2.86735V1.22887C18.5811 0.902951 18.7069 0.590384 18.9307 0.359926C19.1546 0.129469 19.4582 0 19.7748 0H19.7732ZM21.3648 14.3368C21.3648 14.7713 21.1971 15.1881 20.8986 15.4954C20.6001 15.8026 20.1953 15.9753 19.7732 15.9753C19.3511 15.9753 18.9463 15.8026 18.6478 15.4954C18.3493 15.1881 18.1816 14.7713 18.1816 14.3368C18.1816 13.9022 18.3493 13.4855 18.6478 13.1782C18.9463 12.8709 19.3511 12.6983 19.7732 12.6983C20.1953 12.6983 20.6001 12.8709 20.8986 13.1782C21.1971 13.4855 21.3648 13.9022 21.3648 14.3368ZM9.42782 13.1079C9.74441 13.1079 10.048 13.2374 10.2719 13.4678C10.4958 13.6983 10.6215 14.0109 10.6215 14.3368V15.5656H11.8152C12.1318 15.5656 12.4354 15.6951 12.6593 15.9256C12.8831 16.156 13.0089 16.4686 13.0089 16.7945C13.0089 17.1204 12.8831 17.433 12.6593 17.6634C12.4354 17.8939 12.1318 18.0234 11.8152 18.0234H10.6215V19.2522C10.6215 19.5782 10.4958 19.8907 10.2719 20.1212C10.048 20.3516 9.74441 20.4811 9.42782 20.4811C9.11123 20.4811 8.80761 20.3516 8.58375 20.1212C8.35989 19.8907 8.23413 19.5782 8.23413 19.2522V18.0234H7.04043C6.72384 18.0234 6.42022 17.8939 6.19636 17.6634C5.97249 17.433 5.84673 17.1204 5.84673 16.7945C5.84673 16.4686 5.97249 16.156 6.19636 15.9256C6.42022 15.6951 6.72384 15.5656 7.04043 15.5656H8.23413V14.3368C8.23413 14.0109 8.35989 13.6983 8.58375 13.4678C8.80761 13.2374 9.11123 13.1079 9.42782 13.1079ZM22.9564 20.0715C23.3785 20.0715 23.7833 19.8989 24.0818 19.5916C24.3803 19.2843 24.548 18.8675 24.548 18.433C24.548 17.9984 24.3803 17.5817 24.0818 17.2744C23.7833 16.9671 23.3785 16.7945 22.9564 16.7945C22.5343 16.7945 22.1294 16.9671 21.831 17.2744C21.5325 17.5817 21.3648 17.9984 21.3648 18.433C21.3648 18.8675 21.5325 19.2843 21.831 19.5916C22.1294 19.8989 22.5343 20.0715 22.9564 20.0715Z" fill="white"/>
</svg>
