<svg width="27" height="27" viewBox="0 0 27 27" fill="none" xmlns="http://www.w3.org/2000/svg">
<path fill-rule="evenodd" clip-rule="evenodd" d="M13.5 24.75C19.7132 24.75 24.75 19.7132 24.75 13.5C24.75 7.2868 19.7132 2.25 13.5 2.25C7.2868 2.25 2.25 7.2868 2.25 13.5C2.25 19.7132 7.2868 24.75 13.5 24.75ZM12.375 8.875C12.375 8.32272 12.8227 7.875 13.375 7.875H13.625C14.1773 7.875 14.625 8.32272 14.625 8.875V15.875C14.625 16.4273 14.1773 16.875 13.625 16.875H13.375C12.8227 16.875 12.375 16.4273 12.375 15.875V8.875ZM13.375 18C12.8227 18 12.375 18.4477 12.375 19V19.25C12.375 19.8023 12.8227 20.25 13.375 20.25H13.625C14.1773 20.25 14.625 19.8023 14.625 19.25V19C14.625 18.4477 14.1773 18 13.625 18H13.375Z" fill="url(#paint0_linear_102_2256)"/>
<defs>
<linearGradient id="paint0_linear_102_2256" x1="2.25" y1="3.27763" x2="25.3766" y2="3.97517" gradientUnits="userSpaceOnUse">
<stop stop-color="#524DF5"/>
<stop offset="0.935908" stop-color="#9A1AFF"/>
</linearGradient>
</defs>
</svg>
