<svg width="35" height="35" viewBox="0 0 27 28" fill="none" xmlns="http://www.w3.org/2000/svg">
<path fill-rule="evenodd" clip-rule="evenodd" d="M13.5 25.082C19.7132 25.082 24.75 20.0452 24.75 13.832C24.75 7.61883 19.7132 2.58203 13.5 2.58203C7.2868 2.58203 2.25 7.61883 2.25 13.832C2.25 20.0452 7.2868 25.082 13.5 25.082ZM12.375 9.20703C12.375 8.65475 12.8227 8.20703 13.375 8.20703H13.625C14.1773 8.20703 14.625 8.65475 14.625 9.20703V16.207C14.625 16.7593 14.1773 17.207 13.625 17.207H13.375C12.8227 17.207 12.375 16.7593 12.375 16.207V9.20703ZM13.375 18.332C12.8227 18.332 12.375 18.7797 12.375 19.332V19.582C12.375 20.1343 12.8227 20.582 13.375 20.582H13.625C14.1773 20.582 14.625 20.1343 14.625 19.582V19.332C14.625 18.7797 14.1773 18.332 13.625 18.332H13.375Z" fill="white"/>
</svg>
