<svg width="30" height="30" viewBox="0 0 30 30" fill="none" xmlns="http://www.w3.org/2000/svg">
<path d="M25.0001 10.0001L17.5001 3.42513C16.8126 2.81019 15.9225 2.47021 15.0001 2.47021C14.0777 2.47021 13.1876 2.81019 12.5001 3.42513L5.00012 10.0001C4.60308 10.3552 4.28624 10.7908 4.07071 11.2779C3.85517 11.765 3.74588 12.2925 3.75012 12.8251V23.7501C3.75012 24.7447 4.14521 25.6985 4.84847 26.4018C5.55173 27.105 6.50556 27.5001 7.50012 27.5001H22.5001C23.4947 27.5001 24.4485 27.105 25.1518 26.4018C25.855 25.6985 26.2501 24.7447 26.2501 23.7501V12.8126C26.2526 12.2821 26.1424 11.7571 25.927 11.2722C25.7115 10.7874 25.3956 10.3538 25.0001 10.0001ZM17.5001 25.0001H12.5001V18.7501C12.5001 18.4186 12.6318 18.1007 12.8662 17.8662C13.1007 17.6318 13.4186 17.5001 13.7501 17.5001H16.2501C16.5816 17.5001 16.8996 17.6318 17.134 17.8662C17.3684 18.1007 17.5001 18.4186 17.5001 18.7501V25.0001ZM23.7501 23.7501C23.7501 24.0816 23.6184 24.3996 23.384 24.634C23.1496 24.8684 22.8316 25.0001 22.5001 25.0001H20.0001V18.7501C20.0001 17.7556 19.605 16.8017 18.9018 16.0985C18.1985 15.3952 17.2447 15.0001 16.2501 15.0001H13.7501C12.7556 15.0001 11.8017 15.3952 11.0985 16.0985C10.3952 16.8017 10.0001 17.7556 10.0001 18.7501V25.0001H7.50012C7.1686 25.0001 6.85066 24.8684 6.61624 24.634C6.38181 24.3996 6.25012 24.0816 6.25012 23.7501V12.8126C6.25034 12.6351 6.28836 12.4598 6.36164 12.2981C6.43492 12.1365 6.54178 11.9923 6.67512 11.8751L14.1751 5.31263C14.4032 5.11223 14.6965 5.00171 15.0001 5.00171C15.3038 5.00171 15.597 5.11223 15.8251 5.31263L23.3251 11.8751C23.4585 11.9923 23.5653 12.1365 23.6386 12.2981C23.7119 12.4598 23.7499 12.6351 23.7501 12.8126V23.7501Z" fill="url(#paint0_linear_402_4987)" fill-opacity="0.8"/>
<defs>
<linearGradient id="paint0_linear_402_4987" x1="3.75" y1="3.6134" x2="26.8808" y2="4.24054" gradientUnits="userSpaceOnUse">
<stop stop-color="#524DF5"/>
<stop offset="0.935908" stop-color="#9A1AFF"/>
</linearGradient>
</defs>
</svg>
