<svg width="30" height="30" viewBox="0 0 30 30" fill="none" xmlns="http://www.w3.org/2000/svg">
<path d="M26.3754 13.3877L21.3453 17.9438L22.8521 24.727C22.9318 25.0816 22.9091 25.4528 22.7867 25.794C22.6643 26.1353 22.4477 26.4315 22.1639 26.6457C21.8802 26.8599 21.5419 26.9825 21.1914 26.9983C20.8409 27.014 20.4937 26.9222 20.1932 26.7342L14.4928 23.1458L8.80461 26.7342C8.50411 26.9222 8.15689 27.014 7.80636 26.9983C7.45584 26.9825 7.11756 26.8599 6.83383 26.6457C6.55009 26.4315 6.33348 26.1353 6.21109 25.794C6.08869 25.4528 6.06594 25.0816 6.14568 24.727L7.65025 17.9507L2.61903 13.3877C2.35292 13.1495 2.1605 12.8351 2.06589 12.4838C1.97128 12.1326 1.9787 11.7602 2.08721 11.4133C2.19572 11.0664 2.4005 10.7605 2.67586 10.5339C2.95123 10.3073 3.28492 10.1702 3.63509 10.1396L10.2668 9.54349L12.8555 3.13532C12.9906 2.79907 13.2187 2.51185 13.5108 2.30983C13.8029 2.1078 14.1462 2 14.4972 2C14.8483 2 15.1915 2.1078 15.4836 2.30983C15.7758 2.51185 16.0038 2.79907 16.139 3.13532L18.7354 9.54349L25.3649 10.1396C25.7151 10.1702 26.0488 10.3073 26.3241 10.5339C26.5995 10.7605 26.8043 11.0664 26.9128 11.4133C27.0213 11.7602 27.0287 12.1326 26.9341 12.4838C26.8395 12.8351 26.6471 13.1495 26.381 13.3877H26.3754Z" fill="white"/>
</svg>
