<svg width="85" height="85" viewBox="0 0 85 85" fill="none" xmlns="http://www.w3.org/2000/svg">
<path d="M30.6222 43H22.7655C22.1512 43 21.7234 42.8741 21.4819 42.6222C21.2791 42.3389 21.2365 41.8982 21.3543 41.3L22.5443 35.2556L17.0299 25.575C16.4784 24.5991 16.1447 23.7491 16.0285 23.025C15.9448 22.301 16.0454 21.2148 16.3306 19.7667L18.1156 10.7C18.2333 10.1019 18.4463 9.67689 18.7546 9.42501C19.1014 9.1417 19.5819 9 20.1962 9H27.665C28.2793 9 28.6879 9.1417 28.8908 9.42501C29.1321 9.67689 29.194 10.1019 29.0762 10.7L27.5515 18.4445C27.4895 18.7592 27.4406 19.0899 27.4048 19.4361C27.3689 19.7824 27.4332 20.1129 27.5975 20.4278L29.159 23.8278C29.2649 24.1111 29.3863 24.3157 29.5232 24.4416C29.6924 24.5676 29.9063 24.6306 30.165 24.6306H30.65C30.9086 24.6306 31.1312 24.5676 31.3176 24.4416C31.5364 24.3157 31.7545 24.1111 31.972 23.8278L34.8722 20.4278C35.1606 20.1129 35.355 19.7824 35.4555 19.4361C35.556 19.0899 35.6372 18.7592 35.6992 18.4445L37.2239 10.7C37.3417 10.1019 37.5547 9.67689 37.863 9.42501C38.2097 9.1417 38.6903 9 39.3046 9H46.5305C47.1448 9 47.5538 9.1417 47.7567 9.42501C47.9984 9.67689 48.0598 10.1019 47.9418 10.7L46.1571 19.7667C45.8717 21.2148 45.529 22.301 45.1273 23.025C44.7264 23.7491 44.0741 24.5991 43.1705 25.575L33.8836 35.3028L32.7029 41.3C32.5851 41.8982 32.3529 42.3389 32.0061 42.6222C31.6979 42.8741 31.2366 43 30.6222 43Z" fill="url(#paint0_linear_245_5915)" fill-opacity="0.8"/>
<path d="M63.2639 77H37.6385C36.9566 77 36.4817 76.852 36.2137 76.556C35.9885 76.2229 35.9413 75.7037 36.072 75.0002L37.847 65.4443C38.2461 63.2965 38.7703 61.5369 39.4196 60.1671C40.1117 58.7592 40.9172 57.6109 41.836 56.7222C42.7548 55.8335 43.7827 55.1299 44.9195 54.6116C46.057 54.0924 47.2698 53.6485 48.5587 53.2781L56.2062 50.9444C56.8076 50.7964 57.226 50.574 57.4605 50.278C57.7313 49.9812 57.9212 49.5373 58.0312 48.9446C58.1342 48.389 58.0958 48.0186 57.9143 47.8335C57.7405 47.6111 57.3844 47.5003 56.8461 47.5003H45.1641C44.4822 47.5003 44.0073 47.3523 43.7393 47.0555C43.5141 46.7224 43.4668 46.204 43.5976 45.5005L44.805 39C44.9357 38.2964 45.1725 37.7964 45.514 37.5C45.8993 37.1667 46.433 37 47.1144 37H62.9955C66.0463 37 68.2312 37.7964 69.5501 39.3889C70.9121 40.9445 71.3144 43.2225 70.7576 46.2226L69.787 51.4449C69.271 54.2226 68.122 56.3518 66.3393 57.8333C64.5566 59.3147 62.2979 60.463 59.5624 61.2781L51.7972 63.6669C51.2312 63.8149 50.8236 63.9815 50.5736 64.1667C50.3598 64.3518 50.1983 64.7408 50.0884 65.3335L49.8715 66.5004H65.2142C65.8956 66.5004 66.3493 66.667 66.5747 67.0002C66.8423 67.297 66.9115 67.7967 66.7808 68.5002L65.5733 75.0002C65.4426 75.7037 65.1842 76.2229 64.7997 76.556C64.4574 76.852 63.9452 77 63.2639 77Z" fill="url(#paint1_linear_245_5915)" fill-opacity="0.8"/>
<path d="M29.1653 42H21.5541C20.959 42 20.5445 41.8704 20.3106 41.6111C20.1141 41.3195 20.0729 40.8658 20.187 40.25L21.3398 34.0278L15.9978 24.0625C15.4635 23.0579 15.1402 22.1829 15.0276 21.4375C14.9465 20.6922 15.044 19.5741 15.3203 18.0833L17.0495 8.75005C17.1635 8.13431 17.3699 7.6968 17.6685 7.43751C18.0045 7.14586 18.47 7 19.0651 7H26.3004C26.8956 7 27.2914 7.14586 27.4879 7.43751C27.7218 7.6968 27.7817 8.13431 27.6676 8.75005L26.1905 16.7223C26.1304 17.0463 26.0831 17.3866 26.0484 17.7431C26.0136 18.0995 26.0759 18.4398 26.2351 18.7639L27.7478 22.2639C27.8504 22.5555 27.9679 22.7662 28.1006 22.8958C28.2645 23.0255 28.4718 23.0903 28.7223 23.0903H29.1922C29.4427 23.0903 29.6583 23.0255 29.839 22.8958C30.0508 22.7662 30.2622 22.5555 30.4728 22.2639L33.2825 18.7639C33.5618 18.4398 33.7501 18.0995 33.8475 17.7431C33.9449 17.3866 34.0236 17.0463 34.0836 16.7223L35.5607 8.75005C35.6748 8.13431 35.8811 7.6968 36.1798 7.43751C36.5157 7.14586 36.9812 7 37.5763 7H44.5764C45.1716 7 45.5678 7.14586 45.7643 7.43751C45.9984 7.6968 46.058 8.13431 45.9436 8.75005L44.2147 18.0833C43.9384 19.5741 43.606 20.6922 43.2173 21.4375C42.8287 22.1829 42.1967 23.0579 41.3215 24.0625L32.3247 34.0764L31.1809 40.25C31.0668 40.8658 30.8419 41.3195 30.5059 41.6111C30.2073 41.8704 29.7604 42 29.1653 42Z" fill="url(#paint2_linear_245_5915)" fill-opacity="0.8"/>
<mask id="mask0_245_5915" style="mask-type:luminance" maskUnits="userSpaceOnUse" x="14" y="7" width="32" height="35">
<path d="M28.5648 41.2308H20.7389C20.127 41.2308 19.7009 41.1044 19.4604 40.8515C19.2584 40.5671 19.2159 40.1246 19.3332 39.524L20.5185 33.4553L15.0259 23.7359C14.4765 22.756 14.1441 21.9027 14.0284 21.1756C13.945 20.4487 14.0452 19.3582 14.3293 17.9042L16.1073 8.80123C16.2246 8.20069 16.4367 7.77397 16.7438 7.52108C17.0892 7.23663 17.5678 7.09436 18.1797 7.09436H25.6191C26.231 7.09436 26.638 7.23663 26.8401 7.52108C27.0805 7.77397 27.1421 8.20069 27.0248 8.80123L25.5061 16.5768C25.4443 16.8928 25.3956 17.2247 25.3599 17.5724C25.3242 17.92 25.3882 18.2519 25.5519 18.568L27.1073 21.9817C27.2128 22.2661 27.3336 22.4716 27.47 22.598C27.6385 22.7245 27.8516 22.7877 28.1093 22.7877H28.5924C28.85 22.7877 29.0717 22.7245 29.2574 22.598C29.4753 22.4716 29.6926 22.2661 29.9092 21.9817L32.798 18.568C33.0852 18.2519 33.2789 17.92 33.379 17.5724C33.4791 17.2247 33.56 16.8928 33.6218 16.5768L35.1405 8.80123C35.2578 8.20069 35.4699 7.77397 35.777 7.52108C36.1224 7.23663 36.6011 7.09436 37.213 7.09436H44.4105C45.0224 7.09436 45.4298 7.23663 45.6318 7.52108C45.8726 7.77397 45.9338 8.20069 45.8162 8.80123L44.0385 17.9042C43.7544 19.3582 43.4127 20.4487 43.013 21.1756C42.6134 21.9027 41.9636 22.756 41.0637 23.7359L31.8133 33.5027L30.6372 39.524C30.5199 40.1246 30.2886 40.5671 29.9431 40.8515C29.6361 41.1044 29.1766 41.2308 28.5648 41.2308Z" fill="white"/>
</mask>
<g mask="url(#mask0_245_5915)">
<path d="M19.4602 40.8515L18.756 41.3765L18.7806 41.4112L18.81 41.4421L19.4602 40.8515ZM20.5184 33.4553H21.3235L21.3748 33.1929L21.256 32.9827L20.5184 33.4553ZM15.0258 23.7359L14.2872 24.2067L14.2883 24.2085L15.0258 23.7359ZM14.0283 21.1756L13.2131 21.4057L13.2149 21.4205L13.2171 21.4353L14.0283 21.1756ZM26.84 7.52107L26.1356 8.04601L26.1604 8.08079L26.1897 8.11163L26.84 7.52107ZM25.5518 18.568L26.3133 18.1426L26.307 18.1285L26.2999 18.1149L25.5518 18.568ZM27.1072 21.9816L27.8859 21.5979L27.8781 21.5767L27.8687 21.5562L27.1072 21.9816ZM27.4699 22.598L26.8464 23.215L26.8695 23.2364L26.8949 23.2555L27.4699 22.598ZM29.2573 22.598L28.9391 21.9405L28.9062 21.9596L28.8748 21.981L29.2573 22.598ZM29.909 21.9816L29.3136 21.5562L29.2963 21.5767L29.2801 21.5979L29.909 21.9816ZM32.7979 18.568L32.2268 18.1149L32.2144 18.1285L32.2025 18.1426L32.7979 18.568ZM45.6317 7.52107L44.9272 8.04601L44.9522 8.08079L44.9812 8.11163L45.6317 7.52107ZM41.0636 23.7359L41.6198 24.2051L41.6254 24.1992L41.6309 24.1932L41.0636 23.7359ZM31.8132 33.5027L31.257 33.0335L31.0588 33.2427L31.008 33.5027H31.8132ZM28.719 40.4406H20.8931L20.5844 42.021H28.4103L28.719 40.4406ZM20.8931 40.4406C20.37 40.4406 20.175 40.3287 20.1105 40.2609L18.81 41.4421C19.2264 41.8801 19.8838 42.021 20.5844 42.021L20.8931 40.4406ZM20.1646 40.3266C20.1104 40.2502 20.0379 40.0374 20.1382 39.524H18.528C18.3937 40.2117 18.406 40.8839 18.756 41.3765L20.1646 40.3266ZM20.1382 39.524L21.3235 33.4553H19.7133L18.528 39.524H20.1382ZM21.256 32.9827L15.7633 23.2632L14.2883 24.2085L19.7809 33.928L21.256 32.9827ZM15.7643 23.265C15.2326 22.3166 14.9382 21.5365 14.8394 20.9161L13.2171 21.4353C13.3497 22.2688 13.7203 23.1955 14.2872 24.2067L15.7643 23.265ZM14.8435 20.9456C14.7732 20.3332 14.8543 19.3377 15.1343 17.9042H13.524C13.236 19.3787 13.1166 20.5641 13.2131 21.4057L14.8435 20.9456ZM15.1343 17.9042L16.9122 8.80122H15.302L13.524 17.9042H15.1343ZM16.9122 8.80122C17.0148 8.27604 17.166 8.1109 17.2038 8.07983L16.2834 6.96231C15.7071 7.43693 15.434 8.12524 15.302 8.80122H16.9122ZM17.2038 8.07983C17.2973 8.00286 17.5227 7.88458 18.0253 7.88458L18.3339 6.3042C17.6127 6.3042 16.8809 6.47038 16.2834 6.96231L17.2038 8.07983ZM18.0253 7.88458H25.4646L25.7733 6.3042H18.3339L18.0253 7.88458ZM25.4646 7.88458C25.9776 7.88458 26.1079 8.00704 26.1356 8.04601L27.5442 6.99612C27.1677 6.46611 26.4842 6.3042 25.7733 6.3042L25.4646 7.88458ZM26.1897 8.11163C26.2226 8.14633 26.3179 8.29777 26.2195 8.80122H27.8298C27.9661 8.10358 27.9382 7.40159 27.4902 6.93051L26.1897 8.11163ZM26.2195 8.80122L24.7008 16.5767H26.3111L27.8298 8.80122H26.2195ZM24.7008 16.5767C24.634 16.919 24.5819 17.2749 24.544 17.6439L26.1756 17.5008C26.2091 17.1745 26.2545 16.8666 26.3111 16.5767H24.7008ZM24.544 17.6439C24.4928 18.1429 24.5879 18.6044 24.8037 19.0212L26.2999 18.1149C26.1883 17.8995 26.1554 17.6972 26.1756 17.5008L24.544 17.6439ZM24.7902 18.9934L26.3456 22.4071L27.8687 21.5562L26.3133 18.1426L24.7902 18.9934ZM26.3284 22.3654C26.4494 22.6917 26.6115 22.9972 26.8464 23.215L28.0934 21.981C28.0555 21.9459 27.9759 21.8406 27.8859 21.5979L26.3284 22.3654ZM26.8949 23.2555C27.1912 23.4778 27.5563 23.5778 27.9548 23.5778L28.2635 21.9974C28.1467 21.9974 28.0857 21.9711 28.0449 21.9405L26.8949 23.2555ZM27.9548 23.5778H28.4379L28.7466 21.9974H28.2635L27.9548 23.5778ZM28.4379 23.5778C28.8317 23.5778 29.2517 23.4792 29.6397 23.215L28.8748 21.981C28.8787 21.9783 28.8772 21.9808 28.8624 21.985C28.8457 21.9898 28.8089 21.9974 28.7466 21.9974L28.4379 23.5778ZM29.5755 23.2555C29.954 23.0358 30.271 22.7159 30.5379 22.3654L29.2801 21.5979C29.1139 21.8163 28.9962 21.9073 28.9391 21.9405L29.5755 23.2555ZM30.5044 22.4071L33.3933 18.9934L32.2025 18.1426L29.3136 21.5562L30.5044 22.4071ZM33.369 19.0212C33.7476 18.6044 34.0231 18.1429 34.1667 17.6439L32.591 17.5008C32.5345 17.6972 32.4226 17.8995 32.2268 18.1149L33.369 19.0212ZM34.1667 17.6439C34.273 17.2749 34.3599 16.919 34.4268 16.5767H32.8165C32.7599 16.8666 32.6849 17.1745 32.591 17.5008L34.1667 17.6439ZM34.4268 16.5767L35.9455 8.80122H34.3352L32.8165 16.5767H34.4268ZM35.9455 8.80122C36.048 8.27604 36.1992 8.1109 36.237 8.07983L35.3167 6.96231C34.7404 7.43693 34.4673 8.12524 34.3352 8.80122H35.9455ZM36.237 8.07983C36.3305 8.00286 36.5559 7.88458 37.0585 7.88458L37.3672 6.3042C36.6459 6.3042 35.9141 6.47038 35.3167 6.96231L36.237 8.07983ZM37.0585 7.88458H44.2566L44.5649 6.3042H37.3672L37.0585 7.88458ZM44.2566 7.88458C44.7694 7.88458 44.8999 8.00704 44.9272 8.04601L46.3362 6.99612C45.9594 6.46611 45.2759 6.3042 44.5649 6.3042L44.2566 7.88458ZM44.9812 8.11163C45.0142 8.14633 45.1092 8.29777 45.011 8.80122H46.6212C46.7581 8.10358 46.7299 7.40159 46.2823 6.93051L44.9812 8.11163ZM45.011 8.80122L43.2332 17.9042H44.8435L46.6212 8.80122H45.011ZM43.2332 17.9042C42.9539 19.3338 42.6325 20.3169 42.3032 20.9161L43.7226 21.4353C44.1926 20.5805 44.5545 19.3826 44.8435 17.9042H43.2332ZM42.3032 20.9161C41.9575 21.5448 41.3679 22.3295 40.4964 23.2785L41.6309 24.1932C42.559 23.1826 43.269 22.2605 43.7226 21.4353L42.3032 20.9161ZM40.5074 23.2667L31.257 33.0335L32.3694 33.9718L41.6198 24.2051L40.5074 23.2667ZM31.008 33.5027L29.832 39.524H31.4422L32.6183 33.5027H31.008ZM29.832 39.524C29.7356 40.0172 29.5763 40.2158 29.4829 40.2927L30.4032 41.4103C31.0006 40.9183 31.304 40.2319 31.4422 39.524H29.832ZM29.4829 40.2927C29.4451 40.3239 29.2541 40.4406 28.719 40.4406L28.4103 42.021C29.099 42.021 29.8269 41.8849 30.4032 41.4103L29.4829 40.2927Z" fill="white"/>
</g>
<path d="M61.6008 75H33.779C33.0386 75 32.523 74.852 32.232 74.556C31.9875 74.2229 31.9363 73.7037 32.0782 73.0002L34.0053 63.4443C34.4386 61.2965 35.0077 59.5369 35.7127 58.1671C36.4641 56.7592 37.3387 55.6109 38.3362 54.7222C39.3338 53.8335 40.4498 53.1299 41.6844 52.6116C42.919 52.0924 44.2357 51.6485 45.6352 51.2781L53.9382 48.9444C54.5911 48.7964 55.0454 48.574 55.3 48.278C55.5939 47.9812 55.8002 47.5373 55.9196 46.9446C56.0315 46.389 55.9897 46.0186 55.7927 45.8335C55.604 45.6111 55.2174 45.5003 54.6329 45.5003H41.9496C41.2092 45.5003 40.6936 45.3523 40.4027 45.0555C40.1581 44.7224 40.1069 44.204 40.2488 43.5001L41.5597 37C41.7017 36.2964 41.9583 35.7964 42.3298 35.5C42.7477 35.1667 43.3269 35 44.0672 35H61.3094C64.6217 35 66.9939 35.7964 68.4259 37.3889C69.9046 38.9445 70.3413 41.2223 69.7368 44.2226L68.683 49.4449C68.1228 52.2226 66.8753 54.3518 64.9398 55.8333C63.0044 57.3147 60.552 58.463 57.582 59.2781L49.1512 61.6669C48.5367 61.8149 48.0942 61.9815 47.8228 62.1667C47.5907 62.3518 47.4153 62.7408 47.2959 63.3335L47.0605 64.5004H63.7183C64.4581 64.5004 64.9507 64.667 65.1953 65.0002C65.4859 65.297 65.5611 65.7967 65.4191 66.5002L64.1082 73.0002C63.9663 73.7037 63.6857 74.2229 63.2682 74.556C62.8966 74.852 62.3405 75 61.6008 75Z" fill="url(#paint3_linear_245_5915)" fill-opacity="0.8"/>
<mask id="mask1_245_5915" style="mask-type:luminance" maskUnits="userSpaceOnUse" x="32" y="34" width="38" height="41">
<path d="M61.1568 74.1062H34.3296C33.6157 74.1062 33.1186 73.9589 32.838 73.6642C32.6022 73.3325 32.5528 72.8156 32.6897 72.1151L34.5479 62.6009C34.9657 60.4625 35.5145 58.7106 36.1942 57.3467C36.9188 55.9449 37.7621 54.8017 38.7239 53.9168C39.6858 53.032 40.762 52.3315 41.9524 51.8154C43.1429 51.2985 44.4126 50.8565 45.762 50.4878L53.7682 48.1642C54.3978 48.0168 54.8358 47.7954 55.0813 47.5008C55.3647 47.2053 55.5636 46.7633 55.6787 46.1731C55.7866 45.62 55.7464 45.2512 55.5564 45.0669C55.3744 44.8454 55.0016 44.7351 54.438 44.7351H42.2081C41.4942 44.7351 40.9971 44.5878 40.7166 44.2923C40.4807 43.9606 40.4313 43.4445 40.5682 42.7437L41.8322 36.272C41.9691 35.5713 42.2166 35.0735 42.5748 34.7785C42.9778 34.4466 43.5362 34.2806 44.2501 34.2806H60.8758C64.0698 34.2806 66.3571 35.0735 67.7379 36.6591C69.1638 38.208 69.5849 40.4758 69.002 43.463L67.9859 48.6626C67.4457 51.4282 66.2428 53.5481 64.3765 55.0231C62.5102 56.4981 60.1456 57.6413 57.2817 58.4529L49.1524 60.8313C48.5598 60.9786 48.1331 61.1445 47.8714 61.3288C47.6476 61.5132 47.4785 61.9005 47.3634 62.4906L47.1363 63.6524H63.1986C63.912 63.6524 64.387 63.8183 64.6229 64.15C64.9031 64.4455 64.9755 64.943 64.8387 65.6435L63.5746 72.1151C63.4377 72.8156 63.1672 73.3325 62.7647 73.6642C62.4064 73.9589 61.8702 74.1062 61.1568 74.1062Z" fill="white"/>
</mask>
<g mask="url(#mask1_245_5915)">
<path d="M32.8378 73.6642L32.1336 74.1891L32.1582 74.2237L32.1876 74.2543L32.8378 73.6642ZM36.1941 57.3467L35.4728 57.1083L35.4695 57.1148L35.4663 57.1212L36.1941 57.3467ZM45.7618 50.4878L45.8415 51.2454L45.8488 51.2438L45.856 51.2414L45.7618 50.4878ZM53.768 48.1642L53.7221 47.3977L53.6988 47.4033L53.6746 47.4106L53.768 48.1642ZM55.0812 47.5007L54.5297 47.0265L54.5039 47.0531L54.4805 47.0821L55.0812 47.5007ZM55.5562 45.0668L54.8783 45.6256L54.8992 45.6506L54.9226 45.6739L55.5562 45.0668ZM40.7164 44.2923L40.0121 44.8173L40.0367 44.8519L40.0661 44.8833L40.7164 44.2923ZM67.7378 36.6591L67.0703 37.2305L67.0752 37.2367L67.0808 37.2427L67.7378 36.6591ZM57.2816 58.4529L57.1938 57.6969L57.1858 57.6993L57.2816 58.4529ZM49.1522 60.8312L49.211 61.5945L49.2295 61.5905L49.248 61.5848L49.1522 60.8312ZM47.8712 61.3288L47.4743 60.7218L47.4421 60.7451L47.4115 60.7701L47.8712 61.3288ZM47.1362 63.6524H46.331L46.1765 64.4422H46.9816L47.1362 63.6524ZM64.6227 64.15L63.9182 64.6749L63.9432 64.7095L63.9722 64.7409L64.6227 64.15ZM61.3104 73.3164H34.4838L34.1751 74.8968H61.0021L61.3104 73.3164ZM34.4838 73.3164C33.8587 73.3164 33.5926 73.1835 33.4881 73.0732L32.1876 74.2543C32.6441 74.735 33.3725 74.8968 34.1751 74.8968L34.4838 73.3164ZM33.5421 73.1392C33.4543 73.0152 33.3748 72.7286 33.4946 72.1151H31.8844C31.7305 72.9033 31.7499 73.6489 32.1336 74.1891L33.5421 73.1392ZM33.4946 72.1151L35.3529 62.6009H33.7426L31.8844 72.1151H33.4946ZM35.3529 62.6009C35.7624 60.5044 36.2918 58.8361 36.9218 57.5713L35.4663 57.1212C34.7367 58.5857 34.1686 60.4206 33.7426 62.6009H35.3529ZM36.9154 57.5842C37.5991 56.2621 38.3748 55.2227 39.228 54.4377L38.2195 53.3967C37.149 54.3814 36.2382 55.6285 35.4728 57.1083L36.9154 57.5842ZM39.228 54.4377C40.1021 53.6334 41.0784 52.9974 42.1633 52.5264L41.7412 51.1037C40.4453 51.6657 39.2692 52.4305 38.2195 53.3967L39.228 54.4377ZM42.1633 52.5264C43.3064 52.0312 44.5316 51.6037 45.8415 51.2454L45.6829 49.7293C44.2933 50.1094 42.979 50.5667 41.7412 51.1037L42.1633 52.5264ZM45.856 51.2414L53.8614 48.9186L53.6746 47.4106L45.6684 49.7334L45.856 51.2414ZM53.8139 48.9307C54.5095 48.768 55.2164 48.479 55.6818 47.9194L54.4805 47.0821C54.4548 47.1127 54.2865 47.2657 53.7221 47.3977L53.8139 48.9307ZM55.6327 47.975C56.1045 47.483 56.3541 46.8389 56.4837 46.1731H54.8734C54.7728 46.6868 54.6239 46.9283 54.5297 47.0265L55.6327 47.975ZM56.4837 46.1731C56.5996 45.5821 56.6286 44.8857 56.1906 44.4598L54.9226 45.6739C54.8863 45.6385 54.904 45.624 54.9137 45.7085C54.9234 45.7947 54.9185 45.9428 54.8734 46.1731H56.4837ZM56.2349 44.5081C55.8654 44.0596 55.218 43.9445 54.5925 43.9445L54.2833 45.525C54.516 45.525 54.6722 45.5483 54.7704 45.5781C54.8678 45.6063 54.8847 45.6337 54.8783 45.6256L56.2349 44.5081ZM54.5925 43.9445H42.3623L42.0536 45.525H54.2833L54.5925 43.9445ZM42.3623 43.9445C41.7372 43.9445 41.4712 43.8117 41.3666 43.7022L40.0661 44.8833C40.5226 45.3631 41.251 45.525 42.0536 45.525L42.3623 43.9445ZM41.4206 43.7674C41.3328 43.6434 41.2533 43.3576 41.3731 42.7436H39.7629C39.609 43.5315 39.6284 44.277 40.0121 44.8173L41.4206 43.7674ZM41.3731 42.7436L42.6372 36.272H41.0269L39.7629 42.7436H41.3731ZM42.6372 36.272C42.7593 35.6467 42.9459 35.4105 43.0348 35.3372L42.1144 34.2198C41.487 34.7365 41.1785 35.4959 41.0269 36.272H42.6372ZM43.0348 35.3372C43.1858 35.2129 43.491 35.0709 44.0956 35.0709L44.4044 33.4905C43.581 33.4905 42.7694 33.6803 42.1144 34.2198L43.0348 35.3372ZM44.0956 35.0709H60.7211L61.0303 33.4905H44.4044L44.0956 35.0709ZM60.7211 35.0709C63.7854 35.0709 65.8506 35.83 67.0703 37.2305L68.406 36.0878C66.8634 34.3169 64.3538 33.4905 61.0303 33.4905L60.7211 35.0709ZM67.0808 37.2427C68.3303 38.6001 68.7506 40.6273 68.1967 43.463H69.807C70.4197 40.3243 69.997 37.8159 68.3948 36.0756L67.0808 37.2427ZM68.1967 43.463L67.1806 48.6625H68.7909L69.807 43.463H68.1967ZM67.1806 48.6625C66.6702 51.2784 65.5591 53.1656 63.9327 54.4514L64.82 55.5955C66.9262 53.9305 68.2217 51.5771 68.7909 48.6625H67.1806ZM63.9327 54.4514C62.2009 55.8201 59.9675 56.9111 57.1938 57.6969L57.3693 59.2081C60.3234 58.3716 62.8193 57.1768 64.82 55.5955L63.9327 54.4514ZM57.1858 57.6993L49.0564 60.0776L49.248 61.5848L57.3774 59.2065L57.1858 57.6993ZM49.0942 60.068C48.4775 60.221 47.8994 60.4222 47.4743 60.7218L48.2682 61.9359C48.3664 61.8674 48.6426 61.7362 49.211 61.5945L49.0942 60.068ZM47.4115 60.7701C47.1241 61.0068 46.9454 61.3079 46.8286 61.5744C46.7086 61.8497 46.6225 62.1605 46.5581 62.4906H48.1683C48.2191 62.2306 48.2746 62.0534 48.3237 61.9407C48.3769 61.8199 48.3946 61.836 48.3318 61.8876L47.4115 60.7701ZM46.5581 62.4906L46.331 63.6524H47.9413L48.1683 62.4906H46.5581ZM46.9816 64.4422H63.0439L63.3522 62.8618H47.2899L46.9816 64.4422ZM63.0439 64.4422C63.659 64.4422 63.8571 64.5888 63.9182 64.6749L65.3272 63.625C64.9166 63.0478 64.1654 62.8618 63.3522 62.8618L63.0439 64.4422ZM63.9722 64.7409C64.0455 64.8174 64.1509 65.0397 64.0334 65.6435H65.6436C65.799 64.8456 65.7612 64.0727 65.2733 63.5598L63.9722 64.7409ZM64.0334 65.6435L62.7693 72.1151H64.3796L65.6436 65.6435H64.0334ZM62.7693 72.1151C62.6534 72.7085 62.4553 72.9806 62.304 73.1054L63.2242 74.2229C63.8788 73.6835 64.2218 72.9235 64.3796 72.1151H62.7693ZM62.304 73.1054C62.2154 73.1787 61.9481 73.3164 61.3104 73.3164L61.0021 74.8968C61.7927 74.8968 62.597 74.7398 63.2242 74.2229L62.304 73.1054Z" fill="white"/>
</g>
<defs>
<linearGradient id="paint0_linear_245_5915" x1="24.6692" y1="-0.850817" x2="45.6012" y2="3.61154" gradientUnits="userSpaceOnUse">
<stop stop-color="#524DF5"/>
<stop offset="0.935908" stop-color="#9A1AFF"/>
</linearGradient>
<linearGradient id="paint1_linear_245_5915" x1="51.8464" y1="25.6378" x2="68.5393" y2="28.9525" gradientUnits="userSpaceOnUse">
<stop stop-color="#524DF5"/>
<stop offset="0.935908" stop-color="#9A1AFF"/>
</linearGradient>
<linearGradient id="paint2_linear_245_5915" x1="23.3983" y1="-3.14055" x2="43.7777" y2="0.947952" gradientUnits="userSpaceOnUse">
<stop stop-color="#524DF5"/>
<stop offset="0.935908" stop-color="#9A1AFF"/>
</linearGradient>
<linearGradient id="paint3_linear_245_5915" x1="49.2047" y1="23.6378" x2="67.2063" y2="27.5187" gradientUnits="userSpaceOnUse">
<stop stop-color="#524DF5"/>
<stop offset="0.935908" stop-color="#9A1AFF"/>
</linearGradient>
</defs>
</svg>
