<svg width="76" height="76" viewBox="0 0 76 76" fill="none" xmlns="http://www.w3.org/2000/svg">
<path d="M27.3798 38.4469H20.355C19.8058 38.4469 19.4233 38.3343 19.2073 38.1091C19.026 37.8558 18.9879 37.4617 19.0933 36.9269L20.1573 31.5225L15.2267 22.8669C14.7336 21.9943 14.4353 21.2343 14.3314 20.5869C14.2565 19.9395 14.3465 18.9683 14.6015 17.6736L16.1975 9.56687C16.3027 9.0321 16.4932 8.65209 16.7688 8.42688C17.0789 8.17357 17.5085 8.04688 18.0578 8.04688H24.7358C25.285 8.04688 25.6504 8.17357 25.8318 8.42688C26.0475 8.65209 26.1029 9.0321 25.9975 9.56687L24.6343 16.4914C24.5788 16.7727 24.5351 17.0684 24.5031 17.378C24.471 17.6876 24.5285 17.9831 24.6754 18.2647L26.0716 21.3047C26.1663 21.558 26.2748 21.7409 26.3972 21.8535C26.5485 21.9661 26.7398 22.0225 26.9711 22.0225H27.4047C27.6359 22.0225 27.835 21.9661 28.0016 21.8535C28.1973 21.7409 28.3923 21.558 28.5867 21.3047L31.1798 18.2647C31.4377 17.9831 31.6115 17.6876 31.7014 17.378C31.7912 17.0684 31.8638 16.7727 31.9193 16.4914L33.2825 9.56687C33.3879 9.0321 33.5783 8.65209 33.854 8.42688C34.164 8.17357 34.5937 8.04688 35.1429 8.04688H41.6037C42.153 8.04688 42.5187 8.17357 42.7001 8.42688C42.9162 8.65209 42.9711 9.0321 42.8656 9.56687L41.2699 17.6736C41.0147 18.9683 40.7083 19.9395 40.3491 20.5869C39.9907 21.2343 39.4074 21.9943 38.5995 22.8669L30.2959 31.5647L29.2402 36.9269C29.1349 37.4617 28.9273 37.8558 28.6172 38.1091C28.3417 38.3343 27.9292 38.4469 27.3798 38.4469Z" fill="url(#paint0_linear_323_3980)" fill-opacity="0.8"/>
<path d="M56.5654 68.8472H33.6532C33.0435 68.8472 32.6189 68.7149 32.3793 68.4502C32.1779 68.1524 32.1357 67.6882 32.2526 67.0592L33.8397 58.5151C34.1965 56.5947 34.6652 55.0214 35.2458 53.7966C35.8646 52.5378 36.5848 51.5111 37.4063 50.7165C38.2278 49.9219 39.1469 49.2928 40.1633 48.8294C41.1804 48.3651 42.2648 47.9682 43.4172 47.6371L50.2549 45.5505C50.7927 45.4181 51.1668 45.2193 51.3764 44.9546C51.6186 44.6892 51.7884 44.2923 51.8867 43.7624C51.9788 43.2656 51.9445 42.9344 51.7822 42.7689C51.6268 42.5701 51.3084 42.471 50.8271 42.471H40.382C39.7723 42.471 39.3477 42.3387 39.1081 42.0733C38.9067 41.7755 38.8644 41.312 38.9814 40.683L40.0609 34.8708C40.1778 34.2417 40.3895 33.7946 40.6949 33.5296C41.0394 33.2316 41.5166 33.0825 42.1258 33.0825H56.3254C59.0532 33.0825 61.0067 33.7946 62.186 35.2185C63.4038 36.6094 63.7635 38.6462 63.2656 41.3286L62.3978 45.998C61.9364 48.4816 60.9091 50.3853 59.3151 51.7099C57.7212 53.0345 55.7016 54.0612 53.2558 54.79L46.3128 56.9259C45.8067 57.0582 45.4423 57.2072 45.2187 57.3727C45.0276 57.5382 44.8832 57.8861 44.7849 58.416L44.591 59.4593H58.3092C58.9184 59.4593 59.3241 59.6083 59.5256 59.9062C59.7649 60.1716 59.8267 60.6184 59.7099 61.2474L58.6302 67.0592C58.5134 67.6882 58.2823 68.1524 57.9385 68.4502C57.6325 68.7149 57.1745 68.8472 56.5654 68.8472Z" fill="url(#paint1_linear_323_3980)" fill-opacity="0.8"/>
<path d="M26.0772 37.5529H19.2719C18.7398 37.5529 18.3692 37.437 18.1601 37.2052C17.9844 36.9445 17.9475 36.5388 18.0496 35.9882L19.0803 30.4248L14.3039 21.5147C13.8262 20.6164 13.5371 19.8341 13.4364 19.1676C13.3639 18.5012 13.4511 17.5015 13.6982 16.1686L15.2443 7.82354C15.3462 7.273 15.5307 6.88181 15.7977 6.64997C16.0981 6.38921 16.5144 6.25879 17.0464 6.25879H23.5157C24.0478 6.25879 24.4017 6.38921 24.5774 6.64997C24.7866 6.88181 24.8401 7.273 24.7381 7.82354L23.4174 14.9517C23.3637 15.2414 23.3214 15.5456 23.2903 15.8644C23.2592 16.183 23.3149 16.4873 23.4573 16.7771L24.8098 19.9065C24.9015 20.1672 25.0066 20.3556 25.1252 20.4715C25.2718 20.5875 25.4571 20.6454 25.6811 20.6454H26.1013C26.3252 20.6454 26.518 20.5875 26.6796 20.4715C26.869 20.3556 27.058 20.1672 27.2463 19.9065L29.7585 16.7771C30.0082 16.4873 30.1766 16.183 30.2636 15.8644C30.3507 15.5456 30.4211 15.2414 30.4747 14.9517L31.7955 7.82354C31.8975 7.273 32.0819 6.88181 32.349 6.64997C32.6493 6.38921 33.0655 6.25879 33.5976 6.25879H39.8565C40.3887 6.25879 40.743 6.38921 40.9187 6.64997C41.128 6.88181 41.1813 7.273 41.079 7.82354L39.5331 16.1686C39.2861 17.5015 38.9889 18.5012 38.6414 19.1676C38.2939 19.8341 37.7288 20.6164 36.9463 21.5147L28.9021 30.4683L27.8794 35.9882C27.7774 36.5388 27.5763 36.9445 27.2759 37.2052C27.0089 37.437 26.6093 37.5529 26.0772 37.5529Z" fill="url(#paint2_linear_323_3980)" fill-opacity="0.8"/>
<mask id="mask0_323_3980" style="mask-type:luminance" maskUnits="userSpaceOnUse" x="12" y="6" width="30" height="31">
<path d="M25.5403 36.8653H18.543C17.9959 36.8653 17.6149 36.7522 17.3999 36.5261C17.2193 36.2718 17.1813 35.8762 17.2862 35.3392L18.346 29.913L13.4349 21.2228C12.9437 20.3466 12.6465 19.5837 12.543 18.9335C12.4685 18.2836 12.5581 17.3086 12.8121 16.0085L14.4018 7.8694C14.5067 7.33245 14.6963 6.95091 14.9709 6.7248C15.2798 6.47047 15.7077 6.34326 16.2548 6.34326H22.9065C23.4536 6.34326 23.8175 6.47047 23.9982 6.7248C24.2132 6.95091 24.2682 7.33245 24.1634 7.8694L22.8055 14.8217C22.7502 15.1042 22.7067 15.401 22.6747 15.7119C22.6428 16.0227 22.7 16.3194 22.8464 16.602L24.2371 19.6543C24.3314 19.9086 24.4395 20.0923 24.5614 20.2053C24.7121 20.3184 24.9026 20.375 25.133 20.375H25.565C25.7953 20.375 25.9935 20.3184 26.1596 20.2053C26.3544 20.0923 26.5487 19.9086 26.7423 19.6543L29.3253 16.602C29.5821 16.3194 29.7553 16.0227 29.8448 15.7119C29.9343 15.401 30.0066 15.1042 30.0618 14.8217L31.4197 7.8694C31.5246 7.33245 31.7143 6.95091 31.9888 6.7248C32.2977 6.47047 32.7257 6.34326 33.2728 6.34326H39.7082C40.2553 6.34326 40.6196 6.47047 40.8002 6.7248C41.0155 6.95091 41.0702 7.33245 40.9651 7.8694L39.3756 16.0085C39.1216 17.3086 38.8161 18.2836 38.4587 18.9335C38.1014 19.5837 37.5204 20.3466 36.7158 21.2228L28.4448 29.9554L27.3933 35.3392C27.2884 35.8762 27.0816 36.2718 26.7727 36.5261C26.4982 36.7522 26.0873 36.8653 25.5403 36.8653Z" fill="white"/>
</mask>
<g mask="url(#mask0_323_3980)">
<path d="M17.3997 36.5261L16.7701 36.9955L16.7921 37.0265L16.8184 37.0541L17.3997 36.5261ZM18.3459 29.913H19.0657L19.1116 29.6784L19.0054 29.4904L18.3459 29.913ZM13.4348 21.2227L12.7744 21.6437L12.7754 21.6453L13.4348 21.2227ZM12.543 18.9335L11.8141 19.1392L11.8157 19.1525L11.8176 19.1657L12.543 18.9335ZM23.9981 6.72474L23.3683 7.1941L23.3905 7.2252L23.4167 7.25277L23.9981 6.72474ZM22.8463 16.602L23.5272 16.2216L23.5216 16.209L23.5152 16.1969L22.8463 16.602ZM24.237 19.6542L24.9333 19.3111L24.9263 19.2921L24.9179 19.2738L24.237 19.6542ZM24.5613 20.2053L24.0038 20.757L24.0245 20.7761L24.0472 20.7932L24.5613 20.2053ZM26.1595 20.2053L25.875 19.6174L25.8455 19.6345L25.8175 19.6536L26.1595 20.2053ZM26.7422 19.6542L26.2098 19.2738L26.1943 19.2921L26.1799 19.3111L26.7422 19.6542ZM29.3252 16.602L28.8146 16.1969L28.8035 16.209L28.7928 16.2216L29.3252 16.602ZM40.8001 6.72474L40.1702 7.1941L40.1926 7.2252L40.2185 7.25277L40.8001 6.72474ZM36.7157 21.2227L37.213 21.6422L37.218 21.637L37.2229 21.6316L36.7157 21.2227ZM28.4447 29.9554L27.9474 29.5359L27.7702 29.7229L27.7248 29.9554H28.4447ZM25.6782 36.1587H18.6809L18.4049 37.5717H25.4022L25.6782 36.1587ZM18.6809 36.1587C18.2132 36.1587 18.0388 36.0586 17.9812 35.998L16.8184 37.0541C17.1907 37.4458 17.7785 37.5717 18.4049 37.5717L18.6809 36.1587ZM18.0295 36.0567C17.9811 35.9884 17.9162 35.7982 18.0059 35.3391H16.5662C16.4461 35.954 16.4571 36.555 16.7701 36.9955L18.0295 36.0567ZM18.0059 35.3391L19.0657 29.913H17.626L16.5662 35.3391H18.0059ZM19.0054 29.4904L14.0942 20.8001L12.7754 21.6453L17.6865 30.3356L19.0054 29.4904ZM14.0951 20.8017C13.6197 19.9537 13.3565 19.2562 13.2682 18.7015L11.8176 19.1657C11.9362 19.911 12.2676 20.7395 12.7744 21.6437L14.0951 20.8017ZM13.2718 18.7279C13.209 18.1803 13.2815 17.2902 13.5318 16.0085H12.092C11.8345 17.3269 11.7278 18.3867 11.8141 19.1392L13.2718 18.7279ZM13.5318 16.0085L15.1215 7.86935H13.6818L12.092 16.0085H13.5318ZM15.1215 7.86935C15.2132 7.39978 15.3484 7.25212 15.3822 7.22434L14.5593 6.22515C14.044 6.64951 13.7998 7.26494 13.6818 7.86935H15.1215ZM15.3822 7.22434C15.4658 7.15552 15.6674 7.04976 16.1167 7.04976L16.3927 5.63672C15.7478 5.63672 15.0935 5.7853 14.5593 6.22515L15.3822 7.22434ZM16.1167 7.04976H22.7683L23.0444 5.63672H16.3927L16.1167 7.04976ZM22.7683 7.04976C23.227 7.04976 23.3435 7.15926 23.3683 7.1941L24.6278 6.25538C24.2911 5.78149 23.68 5.63672 23.0444 5.63672L22.7683 7.04976ZM23.4167 7.25277C23.4461 7.2838 23.5313 7.4192 23.4433 7.86935H24.8831C25.005 7.24558 24.98 6.61791 24.5795 6.19671L23.4167 7.25277ZM23.4433 7.86935L22.0854 14.8215H23.5252L24.8831 7.86935H23.4433ZM22.0854 14.8215C22.0257 15.1276 21.9791 15.4458 21.9452 15.7757L23.4041 15.6478C23.434 15.356 23.4746 15.0807 23.5252 14.8215H22.0854ZM21.9452 15.7757C21.8994 16.2219 21.9845 16.6345 22.1774 17.0072L23.5152 16.1969C23.4154 16.0043 23.386 15.8234 23.4041 15.6478L21.9452 15.7757ZM22.1654 16.9824L23.5561 20.0346L24.9179 19.2738L23.5272 16.2216L22.1654 16.9824ZM23.5407 19.9973C23.6489 20.2891 23.7938 20.5622 24.0038 20.757L25.1188 19.6536C25.0849 19.6222 25.0137 19.5281 24.9333 19.3111L23.5407 19.9973ZM24.0472 20.7932C24.3121 20.9919 24.6386 21.0814 24.9949 21.0814L25.2709 19.6683C25.1665 19.6683 25.1119 19.6448 25.0754 19.6174L24.0472 20.7932ZM24.9949 21.0814H25.4268L25.7028 19.6683H25.2709L24.9949 21.0814ZM25.4268 21.0814C25.7789 21.0814 26.1545 20.9932 26.5014 20.757L25.8175 19.6536C25.821 19.6512 25.8196 19.6534 25.8064 19.6572C25.7915 19.6615 25.7585 19.6683 25.7028 19.6683L25.4268 21.0814ZM26.444 20.7932C26.7824 20.5967 27.0658 20.3107 27.3045 19.9973L26.1799 19.3111C26.0313 19.5064 25.926 19.5877 25.875 19.6174L26.444 20.7932ZM27.2745 20.0346L29.8575 16.9824L28.7928 16.2216L26.2098 19.2738L27.2745 20.0346ZM29.8358 17.0072C30.1743 16.6345 30.4207 16.2219 30.549 15.7757L29.1402 15.6478C29.0897 15.8234 28.9896 16.0043 28.8146 16.1969L29.8358 17.0072ZM30.549 15.7757C30.6441 15.4458 30.7218 15.1276 30.7816 14.8215H29.3418C29.2912 15.0807 29.2241 15.356 29.1402 15.6478L30.549 15.7757ZM30.7816 14.8215L32.1395 7.86935H30.6997L29.3418 14.8215H30.7816ZM32.1395 7.86935C32.2312 7.39978 32.3663 7.25212 32.4001 7.22434L31.5773 6.22515C31.062 6.64951 30.8178 7.26494 30.6997 7.86935H32.1395ZM32.4001 7.22434C32.4837 7.15552 32.6853 7.04976 33.1347 7.04976L33.4107 5.63672C32.7657 5.63672 32.1114 5.7853 31.5773 6.22515L32.4001 7.22434ZM33.1347 7.04976H39.5706L39.8463 5.63672H33.4107L33.1347 7.04976ZM39.5706 7.04976C40.0291 7.04976 40.1458 7.15926 40.1702 7.1941L41.43 6.25538C41.0931 5.78149 40.482 5.63672 39.8463 5.63672L39.5706 7.04976ZM40.2185 7.25277C40.248 7.2838 40.3329 7.4192 40.2451 7.86935H41.6848C41.8072 7.24558 41.782 6.61791 41.3818 6.19671L40.2185 7.25277ZM40.2451 7.86935L38.6556 16.0085H40.0954L41.6848 7.86935H40.2451ZM38.6556 16.0085C38.4058 17.2867 38.1185 18.1657 37.824 18.7015L39.0931 19.1657C39.5134 18.4014 39.837 17.3303 40.0954 16.0085H38.6556ZM37.824 18.7015C37.5149 19.2636 36.9878 19.9652 36.2085 20.8137L37.2229 21.6316C38.0528 20.728 38.6876 19.9035 39.0931 19.1657L37.824 18.7015ZM36.2184 20.8032L27.9474 29.5359L28.9421 30.3748L37.213 21.6422L36.2184 20.8032ZM27.7248 29.9554L26.6733 35.3391H28.113L29.1646 29.9554H27.7248ZM26.6733 35.3391C26.5871 35.7801 26.4447 35.9577 26.3612 36.0264L27.184 37.0257C27.7182 36.5858 27.9895 35.9721 28.113 35.3391H26.6733ZM26.3612 36.0264C26.3274 36.0543 26.1566 36.1587 25.6782 36.1587L25.4022 37.5717C26.0179 37.5717 26.6688 37.4501 27.184 37.0257L26.3612 36.0264Z" fill="white"/>
</g>
<path d="M55.0784 67.0587H30.2024C29.5404 67.0587 29.0794 66.9263 28.8192 66.6617C28.6006 66.3638 28.5548 65.8996 28.6817 65.2706L30.4047 56.7265C30.7922 54.8061 31.301 53.2328 31.9314 52.0081C32.6032 50.7492 33.3852 49.7225 34.2771 48.9279C35.169 48.1333 36.1669 47.5042 37.2708 47.0408C38.3746 46.5766 39.5519 46.1797 40.8032 45.8485L48.2271 43.7619C48.8109 43.6296 49.2171 43.4307 49.4447 43.166C49.7075 42.9007 49.8919 42.5038 49.9987 41.9738C50.0988 41.4771 50.0614 41.1459 49.8852 40.9804C49.7165 40.7815 49.3709 40.6825 48.8482 40.6825H37.5079C36.8459 40.6825 36.3849 40.5501 36.1248 40.2847C35.9061 39.9869 35.8603 39.5234 35.9872 38.894L37.1593 33.0822C37.2862 32.4531 37.5157 32.006 37.8478 31.741C38.2215 31.443 38.7393 31.2939 39.4013 31.2939H54.8178C57.7794 31.2939 59.9004 32.006 61.1808 33.4299C62.5029 34.8208 62.8934 36.8574 62.3529 39.54L61.4107 44.2094C60.9098 46.693 59.7944 48.5967 58.0638 49.9214C56.3333 51.2459 54.1406 52.2726 51.4851 53.0014L43.947 55.1373C43.3975 55.2696 43.0019 55.4186 42.7592 55.5842C42.5517 55.7497 42.3949 56.0975 42.2881 56.6274L42.0776 57.6708H56.9717C57.6331 57.6708 58.0736 57.8197 58.2923 58.1177C58.5521 58.383 58.6193 58.8298 58.4924 59.4588L57.3203 65.2706C57.1934 65.8996 56.9425 66.3638 56.5692 66.6617C56.237 66.9263 55.7397 67.0587 55.0784 67.0587Z" fill="url(#paint3_linear_323_3980)" fill-opacity="0.8"/>
<mask id="mask1_323_3980" style="mask-type:luminance" maskUnits="userSpaceOnUse" x="29" y="30" width="33" height="37">
<path d="M54.6814 66.2597H30.6947C30.0564 66.2597 29.6119 66.1279 29.361 65.8644C29.1502 65.5679 29.106 65.1057 29.2284 64.4794L30.8899 55.9726C31.2634 54.0606 31.7541 52.4942 32.3619 51.2747C33.0097 50.0213 33.7638 48.9992 34.6237 48.208C35.4838 47.4168 36.446 46.7905 37.5104 46.3291C38.5748 45.8669 39.7101 45.4717 40.9166 45.142L48.0751 43.0644C48.638 42.9327 49.0297 42.7347 49.2492 42.4713C49.5026 42.2071 49.6804 41.8119 49.7833 41.2842C49.8798 40.7896 49.8438 40.4599 49.674 40.2951C49.5112 40.0971 49.1779 39.9984 48.674 39.9984H37.739C37.1007 39.9984 36.6562 39.8667 36.4054 39.6025C36.1945 39.3059 36.1503 38.8445 36.2727 38.2179L37.4029 32.4314C37.5253 31.8049 37.7466 31.3598 38.0669 31.0961C38.4272 30.7993 38.9265 30.6509 39.5648 30.6509H54.4301C57.2859 30.6509 59.3311 31.3598 60.5656 32.7775C61.8406 34.1624 62.2171 36.1901 61.6959 38.861L60.7874 43.5101C60.3044 45.9829 59.2289 47.8783 57.5602 49.1971C55.8915 50.5159 53.7772 51.5381 51.2166 52.2638L43.948 54.3903C43.4182 54.522 43.0367 54.6704 42.8027 54.8352C42.6026 55 42.4514 55.3463 42.3484 55.8739L42.1454 56.9127H56.507C57.1448 56.9127 57.5696 57.0611 57.7805 57.3576C58.031 57.6218 58.0957 58.0667 57.9734 58.693L56.8432 64.4794C56.7208 65.1057 56.4789 65.5679 56.119 65.8644C55.7987 66.1279 55.3192 66.2597 54.6814 66.2597Z" fill="white"/>
</mask>
<g mask="url(#mask1_323_3980)">
<path d="M29.3609 65.8643L28.7312 66.3337L28.7532 66.3646L28.7795 66.392L29.3609 65.8643ZM32.3618 51.2746L31.7169 51.0614L31.7139 51.0672L31.711 51.073L32.3618 51.2746ZM40.9164 45.1419L40.9877 45.8193L40.9942 45.8179L41.0007 45.8157L40.9164 45.1419ZM48.0749 43.0643L48.0339 42.379L48.013 42.384L47.9914 42.3905L48.0749 43.0643ZM49.2491 42.4711L48.756 42.0471L48.7329 42.0709L48.712 42.0968L49.2491 42.4711ZM49.6738 40.2949L49.0677 40.7945L49.0863 40.8169L49.1073 40.8377L49.6738 40.2949ZM36.4052 39.6024L35.7755 40.0718L35.7975 40.1028L35.8238 40.1308L36.4052 39.6024ZM60.5656 32.7774L59.9687 33.2883L59.9731 33.2939L59.9781 33.2992L60.5656 32.7774ZM51.2165 52.2637L51.138 51.5877L51.1308 51.5898L51.2165 52.2637ZM43.9478 54.3901L44.0004 55.0726L44.017 55.069L44.0335 55.0639L43.9478 54.3901ZM42.8025 54.835L42.4476 54.2923L42.4188 54.3132L42.3915 54.3355L42.8025 54.835ZM42.1453 56.9126H41.4254L41.2872 57.6188H42.0071L42.1453 56.9126ZM57.7803 57.3575L57.1504 57.8269L57.1727 57.8578L57.1987 57.8859L57.7803 57.3575ZM54.8187 65.5534H30.8326L30.5566 66.9664H54.5431L54.8187 65.5534ZM30.8326 65.5534C30.2737 65.5534 30.0357 65.4345 29.9423 65.3359L28.7795 66.392C29.1877 66.8218 29.8389 66.9664 30.5566 66.9664L30.8326 65.5534ZM29.9906 65.3949C29.9121 65.2841 29.841 65.0278 29.9481 64.4793H28.5084C28.3708 65.184 28.3881 65.8507 28.7312 66.3337L29.9906 65.3949ZM29.9481 64.4793L31.6097 55.9725H30.1699L28.5084 64.4793H29.9481ZM31.6097 55.9725C31.9758 54.0979 32.4491 52.6063 33.0124 51.4754L31.711 51.073C31.0587 52.3824 30.5507 54.023 30.1699 55.9725H31.6097ZM33.0067 51.4869C33.618 50.3048 34.3116 49.3755 35.0744 48.6736L34.1727 47.7428C33.2156 48.6233 32.4012 49.7383 31.7169 51.0614L33.0067 51.4869ZM35.0744 48.6736C35.856 47.9545 36.7289 47.3858 37.6989 46.9647L37.3215 45.6926C36.1629 46.1951 35.1113 46.8789 34.1727 47.7428L35.0744 48.6736ZM37.6989 46.9647C38.721 46.5219 39.8165 46.1397 40.9877 45.8193L40.8459 44.4637C39.6034 44.8036 38.4283 45.2125 37.3215 45.6926L37.6989 46.9647ZM41.0007 45.8157L48.1584 43.7389L47.9914 42.3905L40.8329 44.4674L41.0007 45.8157ZM48.116 43.7497C48.7379 43.6042 49.37 43.3458 49.7861 42.8455L48.712 42.0968C48.689 42.1242 48.5385 42.261 48.0339 42.379L48.116 43.7497ZM49.7422 42.8952C50.164 42.4553 50.3872 41.8794 50.5031 41.2841H49.0633C48.9733 41.7434 48.8402 41.9593 48.756 42.0471L49.7422 42.8952ZM50.5031 41.2841C50.6067 40.7556 50.6326 40.133 50.241 39.7522L49.1073 40.8377C49.0748 40.8061 49.0906 40.7931 49.0993 40.8687C49.108 40.9457 49.1036 41.0782 49.0633 41.2841H50.5031ZM50.2806 39.7954C49.9502 39.3944 49.3714 39.2914 48.8121 39.2914L48.5357 40.7046C48.7437 40.7046 48.8834 40.7254 48.9712 40.7521C49.0583 40.7773 49.0734 40.8018 49.0677 40.7945L50.2806 39.7954ZM48.8121 39.2914H37.8769L37.6009 40.7046H48.5357L48.8121 39.2914ZM37.8769 39.2914C37.318 39.2914 37.0801 39.1727 36.9866 39.0748L35.8238 40.1308C36.232 40.5598 36.8832 40.7046 37.6009 40.7046L37.8769 39.2914ZM37.0349 39.1331C36.9564 39.0222 36.8853 38.7667 36.9924 38.2177H35.5527C35.4151 38.9222 35.4324 39.5887 35.7755 40.0718L37.0349 39.1331ZM36.9924 38.2177L38.1227 32.4313H36.6829L35.5527 38.2177H36.9924ZM38.1227 32.4313C38.2318 31.8722 38.3987 31.661 38.4782 31.5955L37.6552 30.5964C37.0943 31.0584 36.8184 31.7374 36.6829 32.4313H38.1227ZM38.4782 31.5955C38.6132 31.4844 38.8861 31.3574 39.4267 31.3574L39.7028 29.9443C38.9665 29.9443 38.2409 30.114 37.6552 30.5964L38.4782 31.5955ZM39.4267 31.3574H54.2918L54.5683 29.9443H39.7028L39.4267 31.3574ZM54.2918 31.3574C57.0317 31.3574 58.8782 32.0361 59.9687 33.2883L61.163 32.2666C59.7837 30.6832 57.5399 29.9443 54.5683 29.9443L54.2918 31.3574ZM59.9781 33.2992C61.0953 34.5129 61.4711 36.3255 60.9759 38.8609H62.4157C62.9635 36.0546 62.5856 33.8118 61.153 32.2557L59.9781 33.2992ZM60.9759 38.8609L60.0674 43.5099H61.5072L62.4157 38.8609H60.9759ZM60.0674 43.5099C59.611 45.8488 58.6175 47.5362 57.1634 48.6858L57.9567 49.7088C59.8399 48.2201 60.9982 46.1159 61.5072 43.5099H60.0674ZM57.1634 48.6858C55.6149 49.9096 53.618 50.8851 51.138 51.5877L51.2949 52.9389C53.9362 52.191 56.1678 51.1227 57.9567 49.7088L57.1634 48.6858ZM51.1308 51.5898L43.8622 53.7163L44.0335 55.0639L51.3021 52.9375L51.1308 51.5898ZM43.896 53.7077C43.3446 53.8445 42.8277 54.0244 42.4476 54.2923L43.1574 55.3779C43.2453 55.3166 43.4922 55.1993 44.0004 55.0726L43.896 53.7077ZM42.3915 54.3355C42.1345 54.5471 41.9747 54.8164 41.8703 55.0546C41.763 55.3008 41.686 55.5787 41.6284 55.8738H43.0681C43.1135 55.6414 43.1632 55.4829 43.2071 55.3822C43.2546 55.2742 43.2705 55.2885 43.2143 55.3347L42.3915 54.3355ZM41.6284 55.8738L41.4254 56.9126H42.8652L43.0681 55.8738H41.6284ZM42.0071 57.6188H56.3687L56.6443 56.2057H42.2827L42.0071 57.6188ZM56.3687 57.6188C56.9186 57.6188 57.0958 57.7499 57.1504 57.8269L58.4102 56.8881C58.0431 56.372 57.3714 56.2057 56.6443 56.2057L56.3687 57.6188ZM57.1987 57.8859C57.2642 57.9543 57.3585 58.153 57.2534 58.6929H58.6931C58.832 57.9795 58.7982 57.2884 58.362 56.8298L57.1987 57.8859ZM57.2534 58.6929L56.1231 64.4793H57.5629L58.6931 58.6929H57.2534ZM56.1231 64.4793C56.0195 65.0098 55.8424 65.2531 55.7071 65.3647L56.5299 66.3639C57.1152 65.8816 57.4218 65.2021 57.5629 64.4793H56.1231ZM55.7071 65.3647C55.6279 65.4303 55.3889 65.5534 54.8187 65.5534L54.5431 66.9664C55.2499 66.9664 55.9691 66.8261 56.5299 66.3639L55.7071 65.3647Z" fill="white"/>
</g>
<defs>
<linearGradient id="paint0_linear_323_3980" x1="22.0572" y1="-0.760914" x2="40.7728" y2="3.22896" gradientUnits="userSpaceOnUse">
<stop stop-color="#524DF5"/>
<stop offset="0.935908" stop-color="#9A1AFF"/>
</linearGradient>
<linearGradient id="paint1_linear_323_3980" x1="46.3568" y1="22.9234" x2="61.2822" y2="25.8871" gradientUnits="userSpaceOnUse">
<stop stop-color="#524DF5"/>
<stop offset="0.935908" stop-color="#9A1AFF"/>
</linearGradient>
<linearGradient id="paint2_linear_323_3980" x1="20.9208" y1="-2.80805" x2="39.1424" y2="0.847547" gradientUnits="userSpaceOnUse">
<stop stop-color="#524DF5"/>
<stop offset="0.935908" stop-color="#9A1AFF"/>
</linearGradient>
<linearGradient id="paint3_linear_323_3980" x1="43.9948" y1="21.1348" x2="60.0903" y2="24.6048" gradientUnits="userSpaceOnUse">
<stop stop-color="#524DF5"/>
<stop offset="0.935908" stop-color="#9A1AFF"/>
</linearGradient>
</defs>
</svg>
