<svg width="30" height="30" viewBox="0 0 30 30" fill="none" xmlns="http://www.w3.org/2000/svg">
<path d="M24.6471 14.5H11.7941M21.9412 18.8125L26 14.5L21.9412 10.1875M15.1765 7.3125V5.875C15.1765 5.1125 14.8914 4.38123 14.3839 3.84207C13.8765 3.3029 13.1882 3 12.4706 3H5.70588C4.98824 3 4.29999 3.3029 3.79253 3.84207C3.28508 4.38123 3 5.1125 3 5.875V23.125C3 23.8875 3.28508 24.6188 3.79253 25.1579C4.29999 25.6971 4.98824 26 5.70588 26H12.4706C13.1882 26 13.8765 25.6971 14.3839 25.1579C14.8914 24.6188 15.1765 23.8875 15.1765 23.125V21.6875" stroke="#302E3F" stroke-width="2" stroke-linecap="round" stroke-linejoin="round"/>
</svg>
