<svg width="50" height="50" viewBox="0 0 50 50" fill="none" xmlns="http://www.w3.org/2000/svg">
<g clip-path="url(#clip0_83_19)">
<path d="M23.2771 28.4686H17.1277C16.6469 28.4686 16.312 28.3692 16.1231 28.1705C15.9643 27.947 15.931 27.5993 16.0232 27.1274L16.9546 22.3587L12.6386 14.7214C12.2069 13.9515 11.9456 13.2809 11.8548 12.7096C11.7892 12.1384 11.868 11.2815 12.0911 10.139L13.4883 2.98603C13.5804 2.51413 13.7472 2.17884 13.9884 1.98014C14.2598 1.75661 14.6359 1.64484 15.1168 1.64484H20.9625C21.4433 1.64484 21.7631 1.75661 21.9219 1.98014C22.1108 2.17884 22.1592 2.51413 22.067 2.98603L20.8737 9.09588C20.8252 9.34425 20.7869 9.60504 20.7588 9.87824C20.7308 10.1514 20.781 10.4122 20.9097 10.6606L22.1319 13.343C22.2148 13.5665 22.3098 13.7279 22.4169 13.8273C22.5493 13.9266 22.7167 13.9763 22.9192 13.9763H23.2988C23.5012 13.9763 23.6754 13.9266 23.8214 13.8273C23.9926 13.7279 24.1633 13.5665 24.3335 13.343L26.6036 10.6606C26.8292 10.4122 26.9814 10.1514 27.06 9.87824C27.1387 9.60504 27.2023 9.34425 27.2508 9.09588L28.4442 2.98603C28.5364 2.51413 28.7031 2.17884 28.9443 1.98014C29.2158 1.75661 29.5919 1.64484 30.0727 1.64484H35.7286C36.2094 1.64484 36.5292 1.75661 36.688 1.98014C36.877 2.17884 36.9253 2.51413 36.8332 2.98603L35.436 10.139C35.2129 11.2815 34.9443 12.1384 34.6303 12.7096C34.3163 13.2809 33.8057 13.9515 33.0986 14.7214L25.8298 22.396L24.9056 27.1274C24.8135 27.5993 24.6317 27.947 24.3602 28.1705C24.119 28.3692 23.7579 28.4686 23.2771 28.4686Z" fill="url(#paint0_linear_83_19)"/>
<path d="M35.8236 51.8021H17.755C17.2742 51.8021 16.9393 51.7027 16.7504 51.504C16.5916 51.2805 16.5583 50.9328 16.6505 50.4609L17.9021 44.053C18.1834 42.6125 18.553 41.4327 19.0109 40.5138C19.4989 39.57 20.0668 38.8 20.7147 38.2039C21.3626 37.6078 22.0874 37.136 22.8892 36.7882C23.691 36.4405 24.5463 36.1425 25.4552 35.8941L30.8474 34.3294C31.2717 34.23 31.5665 34.081 31.7319 33.8823C31.9225 33.6836 32.0566 33.3856 32.1343 32.9882C32.207 32.6157 32.1796 32.3673 32.052 32.2431C31.9293 32.0941 31.6781 32.0196 31.2986 32.0196H23.0614C22.5806 32.0196 22.2457 31.9202 22.0568 31.7215C21.898 31.498 21.8647 31.1503 21.9568 30.6784L22.8082 26.3195C22.9004 25.8476 23.0671 25.5123 23.3084 25.3136C23.5798 25.0901 23.9559 24.9783 24.4367 24.9783H35.6347C37.7857 24.9783 39.3263 25.5123 40.2565 26.5803C41.2168 27.6235 41.5005 29.1509 41.1076 31.1627L40.4235 34.6647C40.0597 36.5274 39.2493 37.9556 37.9924 38.949C36.7355 39.9425 35.1427 40.7124 33.2139 41.2589L27.7386 42.8608C27.3396 42.9602 27.052 43.0719 26.876 43.1961C26.7252 43.3203 26.611 43.5811 26.5333 43.9785L26.3805 44.7608H37.1989C37.6797 44.7608 37.9995 44.8726 38.1583 45.0961C38.3473 45.2948 38.3956 45.6301 38.3035 46.102L37.4521 50.4609C37.3599 50.9328 37.1781 51.2805 36.9067 51.504C36.6655 51.7027 36.3044 51.8021 35.8236 51.8021Z" fill="url(#paint1_linear_83_19)"/>
</g>
<defs>
<linearGradient id="paint0_linear_83_19" x1="13.7666" y1="-6.03646" x2="39.6398" y2="-0.464336" gradientUnits="userSpaceOnUse">
<stop stop-color="#524DF5"/>
<stop offset="0.935908" stop-color="#9A1AFF"/>
</linearGradient>
<linearGradient id="paint1_linear_83_19" x1="22.7665" y1="17.297" x2="44.357" y2="21.8747" gradientUnits="userSpaceOnUse">
<stop stop-color="#524DF5"/>
<stop offset="0.935908" stop-color="#9A1AFF"/>
</linearGradient>
<clipPath id="clip0_83_19">
<rect width="50" height="50" fill="white"/>
</clipPath>
</defs>
</svg>
