<svg width="37" height="37" viewBox="0 0 37 37" fill="none" xmlns="http://www.w3.org/2000/svg">
<path d="M13.685 18.718H10.379C10.1206 18.718 9.94055 18.6632 9.8389 18.5535C9.75358 18.4302 9.73565 18.2383 9.78525 17.978L10.286 15.3469L7.96557 11.133C7.73351 10.7082 7.59313 10.3382 7.54423 10.023C7.50898 9.7078 7.55134 9.23498 7.67135 8.60466L8.42245 4.65796C8.47196 4.39762 8.56161 4.21261 8.69131 4.10297C8.83725 3.97965 9.03942 3.91797 9.29793 3.91797H12.4407C12.6992 3.91797 12.8711 3.97965 12.9565 4.10297C13.058 4.21261 13.0841 4.39762 13.0345 4.65796L12.3929 8.02912C12.3668 8.16606 12.3462 8.31002 12.3312 8.46075C12.3161 8.61148 12.3431 8.75534 12.4123 8.89243L13.0693 10.3724C13.1139 10.4958 13.165 10.5848 13.2226 10.6396C13.2938 10.6944 13.3838 10.7219 13.4927 10.7219H13.6967C13.8055 10.7219 13.8992 10.6944 13.9776 10.6396C14.0697 10.5848 14.1615 10.4958 14.253 10.3724L15.4733 8.89243C15.5947 8.75534 15.6765 8.61148 15.7188 8.46075C15.7611 8.31002 15.7952 8.16606 15.8213 8.02912L16.4629 4.65796C16.5125 4.39762 16.6021 4.21261 16.7318 4.10297C16.8777 3.97965 17.08 3.91797 17.3384 3.91797H20.379C20.6375 3.91797 20.8096 3.97965 20.8949 4.10297C20.9966 4.21261 21.0225 4.39762 20.9728 4.65796L20.2219 8.60466C20.1018 9.23498 19.9576 9.7078 19.7885 10.023C19.6199 10.3382 19.3454 10.7082 18.9651 11.133L15.0574 15.3674L14.5605 17.978C14.511 18.2383 14.4133 18.4302 14.2673 18.5535C14.1377 18.6632 13.9436 18.718 13.685 18.718Z" fill="url(#paint0_linear_361_3899)" fill-opacity="0.8"/>
<path d="M27.4205 33.5172H16.6377C16.3508 33.5172 16.1509 33.4528 16.0382 33.324C15.9434 33.179 15.9235 32.953 15.9786 32.6468L16.7255 28.4871C16.8934 27.5522 17.114 26.7862 17.3872 26.19C17.6784 25.5771 18.0174 25.0773 18.404 24.6904C18.7906 24.3036 19.2231 23.9973 19.7014 23.7717C20.1801 23.5457 20.6904 23.3525 21.2328 23.1913L24.4507 22.1754C24.7038 22.111 24.8798 22.0142 24.9785 21.8853C25.0925 21.7561 25.1724 21.5629 25.2186 21.3049C25.262 21.063 25.2458 20.9018 25.1695 20.8212C25.0963 20.7244 24.9465 20.6762 24.72 20.6762H19.8044C19.5174 20.6762 19.3176 20.6118 19.2049 20.4826C19.1101 20.3376 19.0902 20.1119 19.1452 19.8057L19.6533 16.9761C19.7083 16.6698 19.8079 16.4521 19.9516 16.3231C20.1137 16.1781 20.3383 16.1055 20.625 16.1055H27.3076C28.5913 16.1055 29.5106 16.4521 30.0656 17.1454C30.6387 17.8225 30.808 18.8141 30.5737 20.12L30.1653 22.3933C29.9482 23.6024 29.4647 24.5292 28.7145 25.1741C27.9644 25.8189 27.014 26.3188 25.863 26.6736L22.5955 27.7134C22.3573 27.7778 22.1858 27.8504 22.0806 27.931C21.9907 28.0115 21.9227 28.1809 21.8764 28.4389L21.7852 28.9468H28.2412C28.5279 28.9468 28.7188 29.0193 28.8136 29.1644C28.9262 29.2936 28.9553 29.5111 28.9003 29.8173L28.3922 32.6468C28.3373 32.953 28.2285 33.179 28.0667 33.324C27.9227 33.4528 27.7072 33.5172 27.4205 33.5172Z" fill="url(#paint1_linear_361_3899)" fill-opacity="0.8"/>
<path d="M13.0729 18.2822H9.87019C9.61978 18.2822 9.44537 18.2257 9.34696 18.1129C9.26427 17.986 9.24691 17.7885 9.29496 17.5204L9.78002 14.8119L7.53218 10.4741C7.30737 10.0368 7.17131 9.65591 7.12392 9.33143C7.0898 9.007 7.13084 8.5203 7.24713 7.87139L7.97474 3.80866C8.0227 3.54064 8.10953 3.35019 8.23518 3.23732C8.37655 3.11037 8.57247 3.04688 8.82284 3.04688H11.8674C12.1178 3.04688 12.2843 3.11037 12.367 3.23732C12.4655 3.35019 12.4907 3.54064 12.4427 3.80866L11.8211 7.27895C11.7958 7.41999 11.7759 7.56809 11.7613 7.72329C11.7467 7.8784 11.7729 8.02654 11.8399 8.16763L12.4764 9.69116C12.5196 9.81807 12.569 9.9098 12.6248 9.96622C12.6938 10.0227 12.781 10.0509 12.8864 10.0509H13.0842C13.1896 10.0509 13.2803 10.0227 13.3564 9.96622C13.4455 9.9098 13.5344 9.81807 13.6231 9.69116L14.8053 8.16763C14.9228 8.02654 15.0021 7.8784 15.043 7.72329C15.084 7.56809 15.1172 7.41999 15.1424 7.27895L15.764 3.80866C15.812 3.54064 15.8988 3.35019 16.0245 3.23732C16.1658 3.11037 16.3616 3.04688 16.6121 3.04688H19.5576C19.8081 3.04688 19.9748 3.11037 20.0575 3.23732C20.156 3.35019 20.1811 3.54064 20.1329 3.80866L19.4054 7.87139C19.2892 8.5203 19.1493 9.007 18.9857 9.33143C18.8222 9.65591 18.5563 10.0368 18.188 10.4741L14.4023 14.8331L13.921 17.5204C13.873 17.7885 13.7784 17.986 13.637 18.1129C13.5113 18.2257 13.3233 18.2822 13.0729 18.2822Z" fill="url(#paint2_linear_361_3899)" fill-opacity="0.8"/>
<mask id="mask0_361_3899" style="mask-type:luminance" maskUnits="userSpaceOnUse" x="6" y="3" width="15" height="15">
<path d="M12.8191 17.9463H9.52605C9.26858 17.9463 9.08927 17.8913 8.98809 17.7812C8.9031 17.6574 8.88522 17.4648 8.93458 17.2034L9.43334 14.5617L7.12211 10.3309C6.89094 9.90433 6.75107 9.53292 6.70237 9.21637C6.66731 8.89997 6.70947 8.4253 6.82901 7.79236L7.57714 3.8299C7.62651 3.56849 7.71574 3.38274 7.84497 3.27266C7.99034 3.14885 8.19172 3.08691 8.44919 3.08691H11.5796C11.837 3.08691 12.0083 3.14885 12.0933 3.27266C12.1945 3.38274 12.2204 3.56849 12.1711 3.8299L11.532 7.21458C11.506 7.35211 11.4855 7.4966 11.4705 7.64796C11.4555 7.79927 11.4824 7.94372 11.5513 8.0813L12.2058 9.56729C12.2502 9.69109 12.301 9.78052 12.3584 9.83554C12.4293 9.8906 12.519 9.91816 12.6274 9.91816H12.8307C12.9391 9.91816 13.0324 9.8906 13.1105 9.83554C13.2022 9.78052 13.2936 9.69109 13.3848 9.56729L14.6004 8.0813C14.7212 7.94372 14.8027 7.79927 14.8448 7.64796C14.887 7.4966 14.921 7.35211 14.947 7.21458L15.586 3.8299C15.6354 3.56849 15.7246 3.38274 15.8538 3.27266C15.9992 3.14885 16.2006 3.08691 16.4581 3.08691H19.4867C19.7442 3.08691 19.9156 3.14885 20.0006 3.27266C20.1019 3.38274 20.1277 3.56849 20.0782 3.8299L19.3302 7.79236C19.2106 8.4253 19.0669 8.89997 18.8987 9.21637C18.7305 9.53292 18.4571 9.90433 18.0784 10.3309L14.186 14.5823L13.6911 17.2034C13.6418 17.4648 13.5444 17.6574 13.3991 17.7812C13.2699 17.8913 13.0765 17.9463 12.8191 17.9463Z" fill="white"/>
</mask>
<g mask="url(#mask0_361_3899)">
<path d="M8.98724 17.7814L8.69094 18.0099L8.70129 18.025L8.71367 18.0385L8.98724 17.7814ZM9.43253 14.5619H9.77128L9.79288 14.4477L9.7429 14.3561L9.43253 14.5619ZM7.1213 10.3311L6.81051 10.536L6.81098 10.5368L7.1213 10.3311ZM6.70161 9.2166L6.35858 9.31674L6.35933 9.32321L6.36022 9.32964L6.70161 9.2166ZM12.0925 3.27286L11.7961 3.50136L11.8066 3.5165L11.8189 3.52993L12.0925 3.27286ZM11.5505 8.08152L11.8709 7.89633L11.8683 7.89019L11.8653 7.8843L11.5505 8.08152ZM12.205 9.56746L12.5327 9.40043L12.5294 9.39118L12.5254 9.38227L12.205 9.56746ZM12.3576 9.83576L12.0952 10.1044L12.105 10.1137L12.1156 10.122L12.3576 9.83576ZM13.1097 9.83576L12.9758 9.54955L12.962 9.55787L12.9488 9.56717L13.1097 9.83576ZM13.384 9.56746L13.1334 9.38227L13.1261 9.39118L13.1193 9.40043L13.384 9.56746ZM14.5995 8.08152L14.3593 7.8843L14.354 7.89019L14.349 7.89633L14.5995 8.08152ZM19.9998 3.27286L19.7034 3.50136L19.7139 3.5165L19.7261 3.52993L19.9998 3.27286ZM18.0776 10.3311L18.3117 10.5353L18.314 10.5328L18.3163 10.5301L18.0776 10.3311ZM14.1852 14.5825L13.9511 14.3783L13.8677 14.4693L13.8464 14.5825H14.1852ZM12.8832 17.6025H9.59019L9.4603 18.2905H12.7533L12.8832 17.6025ZM9.59019 17.6025C9.37008 17.6025 9.28801 17.5538 9.2609 17.5243L8.71367 18.0385C8.88888 18.2292 9.16551 18.2905 9.4603 18.2905L9.59019 17.6025ZM9.28363 17.5529C9.26085 17.5196 9.23031 17.427 9.27253 17.2035H8.59498C8.53846 17.5029 8.54364 17.7955 8.69094 18.0099L9.28363 17.5529ZM9.27253 17.2035L9.77128 14.5619H9.09374L8.59498 17.2035H9.27253ZM9.7429 14.3561L7.43162 10.1253L6.81098 10.5368L9.12221 14.7676L9.7429 14.3561ZM7.43205 10.1261C7.20832 9.71327 7.08445 9.3737 7.0429 9.10365L6.36022 9.32964C6.41604 9.69249 6.572 10.0958 6.81051 10.536L7.43205 10.1261ZM7.04459 9.1165C7.01504 8.84991 7.04916 8.41657 7.16695 7.79258H6.48936C6.36818 8.43444 6.31796 8.95039 6.35858 9.31674L7.04459 9.1165ZM7.16695 7.79258L7.91509 3.8301H7.23754L6.48936 7.79258H7.16695ZM7.91509 3.8301C7.95824 3.6015 8.02187 3.52961 8.03778 3.51608L7.65051 3.02964C7.408 3.23623 7.29308 3.53585 7.23754 3.8301H7.91509ZM8.03778 3.51608C8.07712 3.48258 8.17199 3.43109 8.38344 3.43109L8.51333 2.74316C8.20983 2.74316 7.90191 2.8155 7.65051 3.02964L8.03778 3.51608ZM8.38344 3.43109H11.5138L11.6437 2.74316H8.51333L8.38344 3.43109ZM11.5138 3.43109C11.7296 3.43109 11.7845 3.4844 11.7961 3.50136L12.3889 3.04435C12.2304 2.81364 11.9428 2.74316 11.6437 2.74316L11.5138 3.43109ZM11.8189 3.52993C11.8328 3.54503 11.8729 3.61095 11.8314 3.8301H12.509C12.5664 3.52642 12.5546 3.22085 12.3662 3.01579L11.8189 3.52993ZM11.8314 3.8301L11.1924 7.2147H11.87L12.509 3.8301H11.8314ZM11.1924 7.2147C11.1643 7.36372 11.1424 7.51864 11.1264 7.67925L11.813 7.61698C11.8271 7.47492 11.8462 7.34089 11.87 7.2147H11.1924ZM11.1264 7.67925C11.1049 7.89648 11.1449 8.09735 11.2357 8.27879L11.8653 7.8843C11.8183 7.79054 11.8045 7.70247 11.813 7.61698L11.1264 7.67925ZM11.23 8.26672L11.8845 9.75266L12.5254 9.38227L11.8709 7.89633L11.23 8.26672ZM11.8773 9.7345C11.9282 9.87656 11.9964 10.0095 12.0952 10.1044L12.62 9.56717C12.604 9.55188 12.5705 9.50607 12.5327 9.40043L11.8773 9.7345ZM12.1156 10.122C12.2403 10.2187 12.394 10.2623 12.5616 10.2623L12.6915 9.57433C12.6424 9.57433 12.6167 9.56289 12.5995 9.54955L12.1156 10.122ZM12.5616 10.2623H12.7649L12.8948 9.57433H12.6915L12.5616 10.2623ZM12.7649 10.2623C12.9306 10.2623 13.1074 10.2193 13.2706 10.1044L12.9488 9.56717C12.9504 9.566 12.9498 9.56707 12.9435 9.56892C12.9365 9.57102 12.921 9.57433 12.8948 9.57433L12.7649 10.2623ZM13.2436 10.122C13.4029 10.0263 13.5362 9.88707 13.6486 9.7345L13.1193 9.40043C13.0494 9.49551 12.9998 9.53509 12.9758 9.54955L13.2436 10.122ZM13.6345 9.75266L14.8501 8.26672L14.349 7.89633L13.1334 9.38227L13.6345 9.75266ZM14.8398 8.27879C14.9991 8.09735 15.1151 7.89648 15.1755 7.67925L14.5125 7.61698C14.4887 7.70247 14.4416 7.79054 14.3593 7.8843L14.8398 8.27879ZM15.1755 7.67925C15.2202 7.51864 15.2568 7.36372 15.2849 7.2147H14.6074C14.5835 7.34089 14.552 7.47492 14.5125 7.61698L15.1755 7.67925ZM15.2849 7.2147L15.924 3.8301H15.2464L14.6074 7.2147H15.2849ZM15.924 3.8301C15.9672 3.6015 16.0307 3.52961 16.0466 3.51608L15.6594 3.02964C15.4169 3.23623 15.302 3.53585 15.2464 3.8301H15.924ZM16.0466 3.51608C16.086 3.48258 16.1809 3.43109 16.3924 3.43109L16.5222 2.74316C16.2187 2.74316 15.9108 2.8155 15.6594 3.02964L16.0466 3.51608ZM16.3924 3.43109H19.4212L19.5509 2.74316H16.5222L16.3924 3.43109ZM19.4212 3.43109C19.637 3.43109 19.6919 3.4844 19.7034 3.50136L20.2962 3.04435C20.1377 2.81364 19.8501 2.74316 19.5509 2.74316L19.4212 3.43109ZM19.7261 3.52993C19.74 3.54503 19.7799 3.61095 19.7386 3.8301H20.4161C20.4738 3.52642 20.4619 3.22085 20.2736 3.01579L19.7261 3.52993ZM19.7386 3.8301L18.9906 7.79258H19.6682L20.4161 3.8301H19.7386ZM18.9906 7.79258C18.873 8.41486 18.7378 8.8428 18.5992 9.10365L19.1965 9.32964C19.3943 8.95755 19.5465 8.43609 19.6682 7.79258H18.9906ZM18.5992 9.10365C18.4537 9.3773 18.2057 9.71887 17.8389 10.132L18.3163 10.5301C18.7069 10.0902 19.0056 9.68883 19.1965 9.32964L18.5992 9.10365ZM17.8436 10.1268L13.9511 14.3783L14.4193 14.7867L18.3117 10.5353L17.8436 10.1268ZM13.8464 14.5825L13.3515 17.2035H14.0291L14.524 14.5825H13.8464ZM13.3515 17.2035C13.311 17.4182 13.2439 17.5047 13.2046 17.5381L13.5919 18.0246C13.8433 17.8105 13.9709 17.5117 14.0291 17.2035H13.3515ZM13.2046 17.5381C13.1887 17.5517 13.1084 17.6025 12.8832 17.6025L12.7533 18.2905C13.0431 18.2905 13.3494 18.2313 13.5919 18.0246L13.2046 17.5381Z" fill="white"/>
</g>
<path d="M26.7202 32.6472H15.0132C14.7017 32.6472 14.4847 32.5827 14.3623 32.4539C14.2594 32.3089 14.2378 32.0829 14.2976 31.7766L15.1084 27.617C15.2908 26.6821 15.5302 25.9161 15.8269 25.3199C16.1431 24.707 16.5111 24.2072 16.9308 23.8203C17.3506 23.4335 17.8202 23.1272 18.3397 22.9016C18.8592 22.6756 19.4132 22.4824 20.0021 22.3211L23.4959 21.3053C23.7706 21.2409 23.9618 21.1441 24.0689 21.0152C24.1926 20.886 24.2794 20.6928 24.3296 20.4348C24.3767 20.193 24.3591 20.0317 24.2762 19.9511C24.1968 19.8543 24.0342 19.8061 23.7882 19.8061H18.4513C18.1397 19.8061 17.9228 19.7417 17.8004 19.6125C17.6975 19.4675 17.6759 19.2418 17.7356 18.9354L18.2872 16.106C18.347 15.7997 18.455 15.582 18.6113 15.453C18.7871 15.3079 19.0308 15.2354 19.3424 15.2354H26.5976C27.9913 15.2354 28.9895 15.582 29.5921 16.2752C30.2143 16.9524 30.3981 17.9439 30.1437 19.2499L29.7003 21.5232C29.4646 22.7323 28.9396 23.6591 28.1252 24.304C27.3108 24.9488 26.2789 25.4487 25.0292 25.8035L21.4816 26.8433C21.223 26.9077 21.0368 26.9803 20.9226 27.0609C20.825 27.1415 20.7512 27.3108 20.7009 27.5688L20.6019 28.0767H27.6112C27.9225 28.0767 28.1298 28.1492 28.2327 28.2943C28.355 28.4235 28.3866 28.641 28.3269 28.9472L27.7753 31.7766C27.7156 32.0829 27.5975 32.3089 27.4218 32.4539C27.2655 32.5827 27.0314 32.6472 26.7202 32.6472Z" fill="url(#paint3_linear_361_3899)" fill-opacity="0.8"/>
<mask id="mask1_361_3899" style="mask-type:luminance" maskUnits="userSpaceOnUse" x="14" y="14" width="16" height="19">
<path d="M26.5347 32.2587H15.2462C14.9458 32.2587 14.7366 32.1946 14.6186 32.0663C14.5194 31.9219 14.4986 31.6969 14.5562 31.392L15.3381 27.2505C15.5139 26.3197 15.7448 25.5571 16.0308 24.9634C16.3357 24.3532 16.6906 23.8556 17.0953 23.4704C17.5 23.0852 17.9529 22.7803 18.4538 22.5557C18.9547 22.3306 19.489 22.1382 20.0568 21.9777L23.4257 20.9663C23.6906 20.9021 23.8749 20.8058 23.9782 20.6775C24.0975 20.5489 24.1812 20.3565 24.2296 20.0996C24.275 19.8588 24.2581 19.6983 24.1781 19.6181C24.1015 19.5217 23.9447 19.4736 23.7075 19.4736H18.5614C18.261 19.4736 18.0518 19.4095 17.9338 19.2809C17.8345 19.1365 17.8137 18.9118 17.8713 18.6068L18.4032 15.7897C18.4608 15.4847 18.5649 15.268 18.7157 15.1396C18.8852 14.9951 19.1202 14.9229 19.4206 14.9229H26.4164C27.7604 14.9229 28.7229 15.268 29.3039 15.9582C29.9039 16.6324 30.0811 17.6196 29.8358 18.9199L29.4083 21.1833C29.181 22.3871 28.6748 23.3099 27.8895 23.9519C27.1042 24.594 26.1092 25.0916 24.9041 25.4449L21.4834 26.4802C21.2341 26.5443 21.0545 26.6166 20.9444 26.6968C20.8502 26.777 20.7791 26.9456 20.7306 27.2025L20.6351 27.7082H27.3938C27.694 27.7082 27.8939 27.7805 27.9932 27.9248C28.1111 28.0534 28.1415 28.27 28.084 28.5749L27.5521 31.392C27.4945 31.6969 27.3806 31.9219 27.2112 32.0663C27.0605 32.1946 26.8349 32.2587 26.5347 32.2587Z" fill="white"/>
</mask>
<g mask="url(#mask1_361_3899)">
<path d="M14.6178 32.0655L14.3214 32.294L14.3318 32.3091L14.3442 32.3224L14.6178 32.0655ZM16.03 24.9626L15.7265 24.8588L15.7251 24.8616L15.7238 24.8645L16.03 24.9626ZM20.056 21.977L20.0895 22.3067L20.0926 22.3061L20.0956 22.305L20.056 21.977ZM23.4248 20.9655L23.4056 20.6319L23.3957 20.6343L23.3856 20.6375L23.4248 20.9655ZM23.9774 20.6767L23.7454 20.4703L23.7345 20.4819L23.7247 20.4945L23.9774 20.6767ZM24.1773 19.6172L23.8921 19.8605L23.9008 19.8714L23.9107 19.8815L24.1773 19.6172ZM17.9329 19.2801L17.6366 19.5086L17.6469 19.5237L17.6593 19.5373L17.9329 19.2801ZM29.3031 15.9574L29.0222 16.2061L29.0243 16.2089L29.0267 16.2114L29.3031 15.9574ZM24.9033 25.4441L24.8664 25.115L24.863 25.1161L24.9033 25.4441ZM21.4826 26.4794L21.5073 26.8116L21.5151 26.8099L21.5229 26.8074L21.4826 26.4794ZM20.9436 26.696L20.7766 26.4318L20.763 26.4419L20.7502 26.4528L20.9436 26.696ZM20.6343 27.7074H20.2955L20.2305 28.0512H20.5693L20.6343 27.7074ZM27.9923 27.924L27.6959 28.1525L27.7064 28.1676L27.7186 28.1813L27.9923 27.924ZM26.5986 31.9141H15.3104L15.1805 32.602H26.4689L26.5986 31.9141ZM15.3104 31.9141C15.0474 31.9141 14.9353 31.8562 14.8914 31.8082L14.3442 32.3224C14.5363 32.5316 14.8427 32.602 15.1805 32.602L15.3104 31.9141ZM14.9141 31.837C14.8772 31.783 14.8437 31.6583 14.8941 31.3912H14.2166C14.1518 31.7343 14.16 32.0589 14.3214 32.294L14.9141 31.837ZM14.8941 31.3912L15.6761 27.2497H14.9985L14.2166 31.3912H14.8941ZM15.6761 27.2497C15.8484 26.3371 16.0711 25.6109 16.3362 25.0604L15.7238 24.8645C15.4168 25.5019 15.1777 26.3006 14.9985 27.2497H15.6761ZM16.3335 25.066C16.6212 24.4905 16.9476 24.0381 17.3066 23.6963L16.8823 23.2432C16.4319 23.6718 16.0486 24.2147 15.7265 24.8588L16.3335 25.066ZM17.3066 23.6963C17.6745 23.3462 18.0853 23.0694 18.5418 22.8644L18.3641 22.2451C17.8189 22.4897 17.324 22.8226 16.8823 23.2432L17.3066 23.6963ZM18.5418 22.8644C19.0228 22.6488 19.5383 22.4627 20.0895 22.3067L20.0228 21.6468C19.438 21.8123 18.885 22.0113 18.3641 22.2451L18.5418 22.8644ZM20.0956 22.305L23.4641 21.2939L23.3856 20.6375L20.0167 21.6486L20.0956 22.305ZM23.4442 21.2992C23.7369 21.2283 24.0343 21.1025 24.2302 20.859L23.7247 20.4945C23.7139 20.5078 23.643 20.5744 23.4056 20.6319L23.4442 21.2992ZM24.2095 20.8832C24.408 20.669 24.513 20.3886 24.5676 20.0988H23.89C23.8476 20.3224 23.785 20.4275 23.7454 20.4703L24.2095 20.8832ZM24.5676 20.0988C24.6163 19.8415 24.6285 19.5384 24.4442 19.353L23.9107 19.8815C23.8954 19.8661 23.9028 19.8598 23.9069 19.8966C23.911 19.9341 23.909 19.9986 23.89 20.0988H24.5676ZM24.4629 19.3741C24.3074 19.1788 24.035 19.1287 23.7718 19.1287L23.6417 19.8167C23.7396 19.8167 23.8053 19.8268 23.8467 19.8398C23.8876 19.8521 23.8948 19.864 23.8921 19.8605L24.4629 19.3741ZM23.7718 19.1287H18.6255L18.4956 19.8167H23.6417L23.7718 19.1287ZM18.6255 19.1287C18.3625 19.1287 18.2505 19.0709 18.2065 19.0232L17.6593 19.5373C17.8514 19.7462 18.1579 19.8167 18.4956 19.8167L18.6255 19.1287ZM18.2293 19.0516C18.1923 18.9976 18.1589 18.8732 18.2093 18.606H17.5317C17.467 18.9489 17.4751 19.2734 17.6366 19.5086L18.2293 19.0516ZM18.2093 18.606L18.7412 15.7889H18.0636L17.5317 18.606H18.2093ZM18.7412 15.7889C18.7925 15.5167 18.8711 15.4139 18.9085 15.382L18.5212 14.8956C18.2572 15.1205 18.1274 15.4511 18.0636 15.7889H18.7412ZM18.9085 15.382C18.972 15.3279 19.1005 15.2661 19.3549 15.2661L19.4848 14.5781C19.1383 14.5781 18.7968 14.6607 18.5212 14.8956L18.9085 15.382ZM19.3549 15.2661H26.3506L26.4807 14.5781H19.4848L19.3549 15.2661ZM26.3506 15.2661C27.64 15.2661 28.509 15.5965 29.0222 16.2061L29.5843 15.7087C28.9352 14.9379 27.8792 14.5781 26.4807 14.5781L26.3506 15.2661ZM29.0267 16.2114C29.5524 16.8023 29.7293 17.6848 29.4962 18.9191H30.1738C30.4316 17.5529 30.2538 16.461 29.5796 15.7034L29.0267 16.2114ZM29.4962 18.9191L29.0687 21.1824H29.7463L30.1738 18.9191H29.4962ZM29.0687 21.1824C28.8539 22.3211 28.3863 23.1426 27.702 23.7023L28.0754 24.2003C28.9616 23.4756 29.5067 22.4511 29.7463 21.1824H29.0687ZM27.702 23.7023C26.9733 24.2981 26.0335 24.773 24.8664 25.115L24.9402 25.7729C26.1833 25.4088 27.2335 24.8887 28.0754 24.2003L27.702 23.7023ZM24.863 25.1161L21.4423 26.1513L21.5229 26.8074L24.9436 25.7722L24.863 25.1161ZM21.4582 26.1471C21.1987 26.2137 20.9554 26.3013 20.7766 26.4318L21.1106 26.9603C21.152 26.9304 21.2682 26.8733 21.5073 26.8116L21.4582 26.1471ZM20.7502 26.4528C20.6292 26.5558 20.554 26.6869 20.5049 26.8029C20.4544 26.9227 20.4181 27.058 20.391 27.2017H21.0686C21.0899 27.0886 21.1133 27.0114 21.134 26.9624C21.1563 26.9098 21.1638 26.9167 21.1374 26.9392L20.7502 26.4528ZM20.391 27.2017L20.2955 27.7074H20.9731L21.0686 27.2017H20.391ZM20.5693 28.0512H27.328L27.4577 27.3633H20.699L20.5693 28.0512ZM27.328 28.0512C27.5868 28.0512 27.6702 28.1151 27.6959 28.1525L28.2888 27.6955C28.116 27.4442 27.7999 27.3633 27.4577 27.3633L27.328 28.0512ZM27.7186 28.1813C27.7495 28.2146 27.7938 28.3113 27.7444 28.5742H28.4219C28.4873 28.2268 28.4714 27.8904 28.2661 27.6671L27.7186 28.1813ZM27.7444 28.5742L27.2124 31.3912H27.89L28.4219 28.5742H27.7444ZM27.2124 31.3912C27.1637 31.6495 27.0803 31.7679 27.0167 31.8223L27.4039 32.3087C27.6793 32.0739 27.8236 31.7431 27.89 31.3912H27.2124ZM27.0167 31.8223C26.9794 31.8542 26.8669 31.9141 26.5986 31.9141L26.4689 32.602C26.8015 32.602 27.14 32.5337 27.4039 32.3087L27.0167 31.8223Z" fill="white"/>
</g>
<defs>
<linearGradient id="paint0_linear_361_3899" x1="11.1801" y1="-0.370035" x2="20.0131" y2="1.45025" gradientUnits="userSpaceOnUse">
<stop stop-color="#524DF5"/>
<stop offset="0.935908" stop-color="#9A1AFF"/>
</linearGradient>
<linearGradient id="paint1_linear_361_3899" x1="22.6162" y1="11.1596" x2="29.6578" y2="12.5112" gradientUnits="userSpaceOnUse">
<stop stop-color="#524DF5"/>
<stop offset="0.935908" stop-color="#9A1AFF"/>
</linearGradient>
<linearGradient id="paint2_linear_361_3899" x1="10.6462" y1="-1.36724" x2="19.2433" y2="0.300014" gradientUnits="userSpaceOnUse">
<stop stop-color="#524DF5"/>
<stop offset="0.935908" stop-color="#9A1AFF"/>
</linearGradient>
<linearGradient id="paint3_linear_361_3899" x1="21.5041" y1="10.2895" x2="29.101" y2="11.8727" gradientUnits="userSpaceOnUse">
<stop stop-color="#524DF5"/>
<stop offset="0.935908" stop-color="#9A1AFF"/>
</linearGradient>
</defs>
</svg>
