<svg width="52" height="50" viewBox="0 0 52 50" fill="none" xmlns="http://www.w3.org/2000/svg">
<g opacity="0.8">
<rect x="8.89258" y="12" width="27.957" height="5" rx="2.5" fill="url(#paint0_linear_243_5465)" fill-opacity="0.8"/>
<path opacity="0.3" fill-rule="evenodd" clip-rule="evenodd" d="M11.3926 22.4165C10.0119 22.4165 8.89258 23.5358 8.89258 24.9165C8.89258 26.2972 10.0119 27.4165 11.3926 27.4165H40.8012C42.1819 27.4165 43.3012 26.2972 43.3012 24.9165C43.3012 23.5358 42.1819 22.4165 40.8012 22.4165H11.3926ZM17.8442 32.8332C16.4635 32.8332 15.3442 33.9525 15.3442 35.3332C15.3442 36.7139 16.4635 37.8332 17.8442 37.8332H40.8012C42.1819 37.8332 43.3012 36.7139 43.3012 35.3332C43.3012 33.9525 42.1819 32.8332 40.8012 32.8332H17.8442Z" fill="#524DF5"/>
</g>
<defs>
<linearGradient id="paint0_linear_243_5465" x1="8.89258" y1="12.2284" x2="36.8589" y2="16.9447" gradientUnits="userSpaceOnUse">
<stop stop-color="#524DF5"/>
<stop offset="0.935908" stop-color="#9A1AFF"/>
</linearGradient>
</defs>
</svg>
