<svg width="50" height="50" viewBox="0 0 50 50" fill="none" xmlns="http://www.w3.org/2000/svg">
<g opacity="0.8">
<rect x="8.3335" y="12" width="27.0833" height="5" rx="1.5" fill="white"/>
<path opacity="0.3" fill-rule="evenodd" clip-rule="evenodd" d="M9.8335 22.4166C9.00507 22.4166 8.3335 23.0882 8.3335 23.9166V25.9166C8.3335 26.7451 9.00507 27.4166 9.83349 27.4166H40.1668C40.9953 27.4166 41.6668 26.7451 41.6668 25.9166V23.9166C41.6668 23.0882 40.9953 22.4166 40.1668 22.4166H9.8335ZM16.0835 32.8333C15.2551 32.8333 14.5835 33.5049 14.5835 34.3333V36.3333C14.5835 37.1617 15.2551 37.8333 16.0835 37.8333H40.1668C40.9953 37.8333 41.6668 37.1617 41.6668 36.3333V34.3333C41.6668 33.5049 40.9953 32.8333 40.1668 32.8333H16.0835Z" fill="white"/>
</g>
</svg>
