<svg width="18" height="18" viewBox="0 0 18 18" fill="none" xmlns="http://www.w3.org/2000/svg">
<path d="M5.80636 12.2168C6.25565 12.2168 6.68767 12.0463 7.016 11.7222L8.76145 9.99969C8.88242 9.88031 9.08982 9.88031 9.22805 9.99969L10.9905 11.7392C11.3189 12.0632 11.7509 12.2339 12.2002 12.2339H12.5458L10.3339 14.4168C9.64269 15.099 8.51946 15.099 7.82824 14.4168L5.59912 12.2168H5.80636Z" fill="#524DF5"/>
<path d="M12.183 6.11111C11.7337 6.11111 11.3017 6.28172 10.9734 6.60576L9.21071 8.34527C9.08977 8.46465 8.88237 8.46465 8.7441 8.34527L6.99883 6.62275C6.6705 6.29871 6.23849 6.12818 5.78919 6.12818H5.58179L7.81106 3.92814C8.50228 3.24596 9.62551 3.24596 10.3168 3.92814L12.5286 6.11111H12.183Z" fill="#524DF5"/>
<path opacity="0.6" d="M3.7499 7.91911L5.08054 6.60594H5.80619C6.11724 6.60594 6.42836 6.72532 6.65301 6.94703L8.39829 8.66949C8.55381 8.82297 8.77855 8.90833 8.98591 8.90833C9.19327 8.90833 9.41796 8.82297 9.57353 8.66949L11.336 6.92996C11.5606 6.70825 11.8718 6.58887 12.1828 6.58887H13.0469L14.3775 7.90203C15.0687 8.58421 15.0687 9.69276 14.3775 10.3749L13.0469 11.6882H12.1828C11.8718 11.6882 11.5606 11.5688 11.336 11.3471L9.57353 9.60748C9.26244 9.30053 8.70941 9.30053 8.38108 9.60748L6.6358 11.33C6.41115 11.5517 6.10003 11.6711 5.78898 11.6711H5.06316L3.73252 10.358C3.05857 9.70989 3.05867 8.6013 3.7499 7.91911Z" fill="#524DF5"/>
</svg>
