<svg width="30" height="30" viewBox="0 0 30 30" fill="none" xmlns="http://www.w3.org/2000/svg">
<path d="M18.7502 12.5001L13.7502 17.5001L11.2502 15.0001M16.5577 4.32384L18.0839 5.62384C18.4689 5.95134 18.9464 6.14885 19.4489 6.1901L21.4489 6.35009C22.0174 6.39549 22.5511 6.64181 22.9545 7.04494C23.3578 7.44807 23.6045 7.98166 23.6502 8.5501L23.8089 10.5501C23.8502 11.0538 24.0489 11.5326 24.3764 11.9163L25.6764 13.4413C26.0469 13.8757 26.2505 14.4279 26.2505 14.9988C26.2505 15.5698 26.0469 16.122 25.6764 16.5563L24.3764 18.0826C24.0489 18.4676 23.8502 18.9451 23.8102 19.4488L23.6502 21.4488C23.6048 22.0173 23.3585 22.551 22.9553 22.9544C22.5522 23.3578 22.0186 23.6044 21.4502 23.6501L19.4502 23.8101C18.9467 23.85 18.4685 24.0477 18.0839 24.3751L16.5577 25.6751C16.1232 26.0454 15.571 26.2487 15.0002 26.2487C14.4293 26.2487 13.8772 26.0454 13.4427 25.6751L11.9177 24.3751C11.5327 24.0474 11.0541 23.8497 10.5502 23.8101L8.55018 23.6501C7.98155 23.6043 7.44781 23.3575 7.04465 22.9539C6.64149 22.5503 6.39529 22.0163 6.35018 21.4476L6.19018 19.4488C6.1497 18.9456 5.95155 18.468 5.62393 18.0838L4.32393 16.5563C3.9541 16.1222 3.75098 15.5704 3.75098 15.0001C3.75098 14.4297 3.9541 13.878 4.32393 13.4438L5.62393 11.9163C5.95268 11.5313 6.14893 11.0538 6.18893 10.5501L6.34893 8.55134C6.39494 7.98247 6.64196 7.44855 7.04576 7.04521C7.44956 6.64187 7.98375 6.39545 8.55268 6.35009L10.5502 6.19134C11.0539 6.15112 11.532 5.95296 11.9164 5.62509L13.4427 4.32509C13.8772 3.95483 14.4293 3.75146 15.0002 3.75146C15.571 3.75146 16.1232 3.95358 16.5577 4.32384Z" stroke="url(#paint0_linear_400_4973)" stroke-opacity="0.8" stroke-width="2" stroke-linecap="round" stroke-linejoin="round"/>
<defs>
<linearGradient id="paint0_linear_400_4973" x1="3.75098" y1="4.77897" x2="26.877" y2="5.47656" gradientUnits="userSpaceOnUse">
<stop stop-color="#524DF5"/>
<stop offset="0.935908" stop-color="#9A1AFF"/>
</linearGradient>
</defs>
</svg>
