<svg width="30" height="30" viewBox="0 0 30 30" fill="none" xmlns="http://www.w3.org/2000/svg">
<path d="M14.9999 5.00019C14.6684 5.00019 14.3505 5.13188 14.1161 5.36631C13.8816 5.60073 13.7499 5.91867 13.7499 6.25019C13.7499 8.36519 11.1924 9.42519 9.69619 7.92894C9.58089 7.80955 9.44295 7.71432 9.29045 7.64881C9.13794 7.5833 8.97392 7.54882 8.80795 7.54738C8.64197 7.54593 8.47737 7.57756 8.32375 7.64041C8.17013 7.70326 8.03057 7.79608 7.9132 7.91344C7.79583 8.03081 7.70302 8.17038 7.64017 8.324C7.57732 8.47762 7.54569 8.64222 7.54713 8.80819C7.54857 8.97416 7.58306 9.13819 7.64857 9.29069C7.71408 9.4432 7.80931 9.58113 7.92869 9.69644C9.42494 11.1927 8.36619 13.7502 6.24994 13.7502C5.91842 13.7502 5.60048 13.8819 5.36606 14.1163C5.13164 14.3507 4.99994 14.6687 4.99994 15.0002C4.99994 15.3317 5.13164 15.6497 5.36606 15.8841C5.60048 16.1185 5.91842 16.2502 6.24994 16.2502C8.36494 16.2502 9.42494 18.8077 7.92869 20.3039C7.701 20.5397 7.575 20.8554 7.57785 21.1832C7.5807 21.5109 7.71216 21.8245 7.94392 22.0562C8.17568 22.288 8.4892 22.4194 8.81694 22.4223C9.14469 22.4251 9.46044 22.2991 9.69619 22.0714C11.1924 20.5752 13.7499 21.6339 13.7499 23.7502C13.7499 24.0817 13.8816 24.3997 14.1161 24.6341C14.3505 24.8685 14.6684 25.0002 14.9999 25.0002C15.3315 25.0002 15.6494 24.8685 15.8838 24.6341C16.1182 24.3997 16.2499 24.0817 16.2499 23.7502C16.2499 21.6352 18.8074 20.5752 20.3037 22.0714C20.419 22.1908 20.5569 22.2861 20.7094 22.3516C20.8619 22.4171 21.026 22.4516 21.1919 22.453C21.3579 22.4544 21.5225 22.4228 21.6761 22.36C21.8298 22.2971 21.9693 22.2043 22.0867 22.0869C22.2041 21.9696 22.2969 21.83 22.3597 21.6764C22.4226 21.5228 22.4542 21.3582 22.4528 21.1922C22.4513 21.0262 22.4168 20.8622 22.3513 20.7097C22.2858 20.5572 22.1906 20.4192 22.0712 20.3039C20.5749 18.8077 21.6337 16.2502 23.7499 16.2502C24.0815 16.2502 24.3994 16.1185 24.6338 15.8841C24.8682 15.6497 24.9999 15.3317 24.9999 15.0002C24.9999 14.6687 24.8682 14.3507 24.6338 14.1163C24.3994 13.8819 24.0815 13.7502 23.7499 13.7502C21.6349 13.7502 20.5749 11.1927 22.0712 9.69644C22.2989 9.46069 22.4249 9.14493 22.422 8.81719C22.4192 8.48944 22.2877 8.17593 22.056 7.94416C21.8242 7.7124 21.5107 7.58094 21.1829 7.5781C20.8552 7.57525 20.5394 7.70124 20.3037 7.92894C18.8074 9.42519 16.2499 8.36644 16.2499 6.25019C16.2499 5.91867 16.1182 5.60073 15.8838 5.36631C15.6494 5.13188 15.3315 5.00019 14.9999 5.00019ZM11.2599 5.97144C11.3291 5.02678 11.7531 4.14327 12.4469 3.49841C13.1407 2.85355 14.0528 2.49512 14.9999 2.49512C15.9471 2.49512 16.8592 2.85355 17.553 3.49841C18.2468 4.14327 18.6708 5.02678 18.7399 5.97144C19.4572 5.35542 20.3807 5.03307 21.3255 5.06895C22.2703 5.10482 23.1667 5.49627 23.8352 6.16491C24.5037 6.83355 24.8949 7.73003 24.9305 8.67484C24.9662 9.61966 24.6436 10.5431 24.0274 11.2602C24.9721 11.3292 25.8557 11.7531 26.5007 12.4467C27.1456 13.1404 27.5042 14.0524 27.5044 14.9996C27.5045 15.9468 27.1463 16.859 26.5015 17.5528C25.8568 18.2467 24.9733 18.6709 24.0287 18.7402C24.6447 19.4574 24.9671 20.3809 24.9312 21.3257C24.8953 22.2706 24.5039 23.1669 23.8352 23.8354C23.1666 24.5039 22.2701 24.8951 21.3253 24.9308C20.3805 24.9664 19.4571 24.6439 18.7399 24.0277C18.6708 24.9723 18.2468 25.8559 17.553 26.5007C16.8592 27.1456 15.9471 27.504 14.9999 27.504C14.0528 27.504 13.1407 27.1456 12.4469 26.5007C11.7531 25.8559 11.3291 24.9723 11.2599 24.0277C10.5428 24.6439 9.61942 24.9664 8.6746 24.9308C7.72978 24.8951 6.83331 24.5039 6.16467 23.8354C5.49603 23.1669 5.10458 22.2706 5.0687 21.3257C5.03283 20.3809 5.35517 19.4574 5.97119 18.7402C5.02653 18.6711 4.14303 18.247 3.49817 17.5532C2.85331 16.8595 2.49487 15.9474 2.49487 15.0002C2.49487 14.053 2.85331 13.1409 3.49817 12.4471C4.14303 11.7534 5.02653 11.3293 5.97119 11.2602C5.35329 10.5432 5.02938 9.61907 5.06444 8.67321C5.09949 7.72735 5.49093 6.82974 6.16021 6.16046C6.82949 5.49117 7.72711 5.09974 8.67297 5.06468C9.61882 5.02962 10.543 5.35354 11.2599 5.97144Z" fill="white"/>
<path d="M14.9998 12.4999C14.3368 12.4999 13.7009 12.7633 13.2321 13.2322C12.7632 13.701 12.4998 14.3369 12.4998 14.9999C12.4998 15.663 12.7632 16.2988 13.2321 16.7677C13.7009 17.2365 14.3368 17.4999 14.9998 17.4999C15.6629 17.4999 16.2988 17.2365 16.7676 16.7677C17.2364 16.2988 17.4998 15.663 17.4998 14.9999C17.4998 14.3369 17.2364 13.701 16.7676 13.2322C16.2988 12.7633 15.6629 12.4999 14.9998 12.4999ZM11.4648 11.4649C11.9261 10.9874 12.4778 10.6065 13.0878 10.3444C13.6978 10.0824 14.3539 9.94443 15.0178 9.93867C15.6817 9.9329 16.3401 10.0594 16.9546 10.3108C17.5691 10.5622 18.1273 10.9335 18.5968 11.4029C19.0663 11.8724 19.4375 12.4307 19.6889 13.0451C19.9404 13.6596 20.0669 14.318 20.0611 14.9819C20.0553 15.6458 19.9174 16.3019 19.6553 16.9119C19.3933 17.522 19.0124 18.0737 18.5348 18.5349C17.5918 19.4457 16.3288 19.9497 15.0178 19.9383C13.7068 19.9269 12.4528 19.4011 11.5257 18.474C10.5987 17.547 10.0729 16.2929 10.0615 14.9819C10.0501 13.6709 10.554 12.4079 11.4648 11.4649Z" fill="white"/>
</svg>
