<svg width="50" height="50" viewBox="0 0 50 50" fill="none" xmlns="http://www.w3.org/2000/svg">
<g clip-path="url(#clip0_465_4300)">
<path d="M29.6341 14.8712C28.5349 14.2868 28.1278 12.9809 28.6641 11.9723C29.2003 10.9638 30.5106 10.571 31.6098 11.1555C32.7089 11.7399 33.116 13.0458 32.5797 14.0544C32.0435 15.0629 30.7332 15.4557 29.6341 14.8712Z" fill="url(#paint0_radial_465_4300)" stroke="#302E3F"/>
<path d="M37.8559 10.9845C36.7567 10.4001 36.3497 9.09418 36.8859 8.08563C37.4222 7.07708 38.7324 6.68432 39.8316 7.26876C40.9308 7.85321 41.3379 9.15908 40.8016 10.1676C40.2654 11.1762 38.9551 11.5689 37.8559 10.9845Z" fill="url(#paint1_radial_465_4300)" stroke="#302E3F"/>
<path d="M42.1105 21.505C41.0113 20.9206 40.6043 19.6147 41.1405 18.6061C41.6768 17.5976 42.987 17.2048 44.0862 17.7893C45.1854 18.3737 45.5924 19.6796 45.0562 20.6881C44.5199 21.6967 43.2097 22.0895 42.1105 21.505Z" fill="url(#paint2_radial_465_4300)" stroke="#302E3F"/>
<path d="M18.678 36.8359C19.7101 37.532 19.9784 38.8733 19.3396 39.8203C18.7009 40.7672 17.3568 41.0209 16.3247 40.3248C15.2926 39.6286 15.0243 38.2873 15.663 37.3404C16.3018 36.3934 17.6459 36.1397 18.678 36.8359Z" fill="url(#paint3_radial_465_4300)" stroke="#302E3F"/>
<path d="M10.0949 39.8417C11.127 40.5379 11.3953 41.8792 10.7566 42.8261C10.1178 43.7731 8.77371 44.0268 7.74164 43.3306C6.70958 42.6345 6.44124 41.2932 7.07998 40.3462C7.71872 39.3993 9.06285 39.1456 10.0949 39.8417Z" fill="url(#paint4_radial_465_4300)" stroke="#302E3F"/>
<path d="M6.96314 28.934C7.99521 29.6302 8.26355 30.9714 7.62481 31.9184C6.98606 32.8654 5.64194 33.119 4.60987 32.4229C3.5778 31.7268 3.30946 30.3855 3.9482 29.4385C4.58695 28.4915 5.93107 28.2379 6.96314 28.934Z" fill="url(#paint5_radial_465_4300)" stroke="#302E3F"/>
<mask id="path-7-inside-1_465_4300" fill="white">
<path d="M14.9921 31.9679C14.9455 32.2169 14.8511 32.4004 14.7091 32.5184C14.5828 32.6232 14.393 32.6756 14.1396 32.6756H11.0996C10.8463 32.6756 10.6694 32.6232 10.5691 32.5184C10.4845 32.4004 10.4655 32.2169 10.5121 31.9679L10.9058 29.8645C11.0187 29.2616 11.1566 28.8095 11.3197 28.508C11.4828 28.2066 11.7491 27.8527 12.1184 27.4465L14.1395 25.3037L12.9206 23.1609C12.69 22.7546 12.5496 22.4008 12.4993 22.0993C12.4624 21.7979 12.5004 21.3458 12.6132 20.7429L12.8966 19.2292C12.9432 18.9802 13.0296 18.8032 13.1559 18.6984C13.298 18.5804 13.4957 18.5215 13.749 18.5215H16.829C17.0824 18.5215 17.2513 18.5804 17.3359 18.6984C17.4363 18.8032 17.4632 18.9802 17.4166 19.2292L17.1627 20.5856C17.1381 20.7167 17.119 20.8543 17.1054 20.9985C17.0917 21.1426 17.1193 21.2802 17.1881 21.4113L17.8363 22.6498C17.8833 22.7546 17.9341 22.8398 17.9885 22.9053C18.0586 22.9578 18.1471 22.984 18.2537 22.984H18.4937C18.6004 22.984 18.692 22.9578 18.7685 22.9053C18.8474 22.8398 18.9367 22.7546 19.0363 22.6498L20.1681 21.4113C20.286 21.2802 20.3651 21.1426 20.4054 20.9985C20.4457 20.8543 20.4781 20.7167 20.5027 20.5856L20.7566 19.2292C20.8032 18.9802 20.8896 18.8032 21.0159 18.6984C21.158 18.5804 21.3557 18.5215 21.609 18.5215H24.649C24.9024 18.5215 25.0713 18.5804 25.1559 18.6984C25.2563 18.8032 25.2832 18.9802 25.2366 19.2292L24.9532 20.7429C24.8404 21.3458 24.7024 21.7979 24.5393 22.0993C24.3762 22.4008 24.11 22.7546 23.7406 23.1609L21.7159 25.3233L22.9384 27.4465C23.1691 27.8527 23.3028 28.2066 23.3397 28.508C23.39 28.8095 23.3587 29.2616 23.2458 29.8645L22.8521 31.9679C22.8055 32.2169 22.7111 32.4004 22.5691 32.5184C22.4428 32.6232 22.253 32.6756 21.9996 32.6756H18.9596C18.7063 32.6756 18.5294 32.6232 18.4291 32.5184C18.3445 32.4004 18.3255 32.2169 18.3721 31.9679L18.7364 30.0217C18.7609 29.8907 18.78 29.7531 18.7937 29.6089C18.8073 29.4647 18.7797 29.3271 18.7109 29.1961L18.0628 27.9576C18.0048 27.8396 17.9475 27.7544 17.8906 27.702C17.8337 27.6496 17.752 27.6234 17.6453 27.6234H17.3653C17.2587 27.6234 17.1671 27.6496 17.0906 27.702C17.0141 27.7544 16.9248 27.8396 16.8228 27.9576L15.6909 29.1961C15.5731 29.3271 15.494 29.4647 15.4537 29.6089C15.4134 29.7531 15.3809 29.8907 15.3564 30.0217L14.9921 31.9679ZM29.1257 32.6756H26.0257C25.7724 32.6756 25.5955 32.6232 25.4952 32.5184C25.4106 32.4004 25.3916 32.2169 25.4382 31.9679L27.8227 19.2292C27.8693 18.9802 27.9557 18.8032 28.082 18.6984C28.2241 18.5804 28.4218 18.5215 28.6751 18.5215H34.7951C36.6085 18.5215 37.7822 18.8753 38.3164 19.583C38.8506 20.2907 39.011 21.2147 38.7976 22.3549L38.3266 24.8712C38.1132 26.0114 37.6069 26.9353 36.8077 27.6431C36.0086 28.3508 34.7024 28.7046 32.889 28.7046H30.589L29.9782 31.9679C29.9316 32.2169 29.8372 32.4004 29.6952 32.5184C29.5689 32.6232 29.3791 32.6756 29.1257 32.6756ZM31.767 22.1976L31.2114 25.1661H33.0114C33.398 25.1661 33.6698 25.0678 33.8266 24.8712C33.9834 24.6746 34.0851 24.4518 34.1317 24.2028L34.3267 23.1609C34.3733 22.9119 34.355 22.6891 34.2718 22.4925C34.1886 22.2959 33.9537 22.1976 33.567 22.1976H31.767Z"/>
</mask>
<path d="M14.9921 31.9679C14.9455 32.2169 14.8511 32.4004 14.7091 32.5184C14.5828 32.6232 14.393 32.6756 14.1396 32.6756H11.0996C10.8463 32.6756 10.6694 32.6232 10.5691 32.5184C10.4845 32.4004 10.4655 32.2169 10.5121 31.9679L10.9058 29.8645C11.0187 29.2616 11.1566 28.8095 11.3197 28.508C11.4828 28.2066 11.7491 27.8527 12.1184 27.4465L14.1395 25.3037L12.9206 23.1609C12.69 22.7546 12.5496 22.4008 12.4993 22.0993C12.4624 21.7979 12.5004 21.3458 12.6132 20.7429L12.8966 19.2292C12.9432 18.9802 13.0296 18.8032 13.1559 18.6984C13.298 18.5804 13.4957 18.5215 13.749 18.5215H16.829C17.0824 18.5215 17.2513 18.5804 17.3359 18.6984C17.4363 18.8032 17.4632 18.9802 17.4166 19.2292L17.1627 20.5856C17.1381 20.7167 17.119 20.8543 17.1054 20.9985C17.0917 21.1426 17.1193 21.2802 17.1881 21.4113L17.8363 22.6498C17.8833 22.7546 17.9341 22.8398 17.9885 22.9053C18.0586 22.9578 18.1471 22.984 18.2537 22.984H18.4937C18.6004 22.984 18.692 22.9578 18.7685 22.9053C18.8474 22.8398 18.9367 22.7546 19.0363 22.6498L20.1681 21.4113C20.286 21.2802 20.3651 21.1426 20.4054 20.9985C20.4457 20.8543 20.4781 20.7167 20.5027 20.5856L20.7566 19.2292C20.8032 18.9802 20.8896 18.8032 21.0159 18.6984C21.158 18.5804 21.3557 18.5215 21.609 18.5215H24.649C24.9024 18.5215 25.0713 18.5804 25.1559 18.6984C25.2563 18.8032 25.2832 18.9802 25.2366 19.2292L24.9532 20.7429C24.8404 21.3458 24.7024 21.7979 24.5393 22.0993C24.3762 22.4008 24.11 22.7546 23.7406 23.1609L21.7159 25.3233L22.9384 27.4465C23.1691 27.8527 23.3028 28.2066 23.3397 28.508C23.39 28.8095 23.3587 29.2616 23.2458 29.8645L22.8521 31.9679C22.8055 32.2169 22.7111 32.4004 22.5691 32.5184C22.4428 32.6232 22.253 32.6756 21.9996 32.6756H18.9596C18.7063 32.6756 18.5294 32.6232 18.4291 32.5184C18.3445 32.4004 18.3255 32.2169 18.3721 31.9679L18.7364 30.0217C18.7609 29.8907 18.78 29.7531 18.7937 29.6089C18.8073 29.4647 18.7797 29.3271 18.7109 29.1961L18.0628 27.9576C18.0048 27.8396 17.9475 27.7544 17.8906 27.702C17.8337 27.6496 17.752 27.6234 17.6453 27.6234H17.3653C17.2587 27.6234 17.1671 27.6496 17.0906 27.702C17.0141 27.7544 16.9248 27.8396 16.8228 27.9576L15.6909 29.1961C15.5731 29.3271 15.494 29.4647 15.4537 29.6089C15.4134 29.7531 15.3809 29.8907 15.3564 30.0217L14.9921 31.9679ZM29.1257 32.6756H26.0257C25.7724 32.6756 25.5955 32.6232 25.4952 32.5184C25.4106 32.4004 25.3916 32.2169 25.4382 31.9679L27.8227 19.2292C27.8693 18.9802 27.9557 18.8032 28.082 18.6984C28.2241 18.5804 28.4218 18.5215 28.6751 18.5215H34.7951C36.6085 18.5215 37.7822 18.8753 38.3164 19.583C38.8506 20.2907 39.011 21.2147 38.7976 22.3549L38.3266 24.8712C38.1132 26.0114 37.6069 26.9353 36.8077 27.6431C36.0086 28.3508 34.7024 28.7046 32.889 28.7046H30.589L29.9782 31.9679C29.9316 32.2169 29.8372 32.4004 29.6952 32.5184C29.5689 32.6232 29.3791 32.6756 29.1257 32.6756ZM31.767 22.1976L31.2114 25.1661H33.0114C33.398 25.1661 33.6698 25.0678 33.8266 24.8712C33.9834 24.6746 34.0851 24.4518 34.1317 24.2028L34.3267 23.1609C34.3733 22.9119 34.355 22.6891 34.2718 22.4925C34.1886 22.2959 33.9537 22.1976 33.567 22.1976H31.767Z" fill="#9A1AFF"/>
<path d="M14.7091 32.5184L14.1321 31.8233L14.1321 31.8233L14.7091 32.5184ZM10.5691 32.5184L9.69942 33.1714L9.73042 33.2146L9.76719 33.253L10.5691 32.5184ZM12.1184 27.4465L11.4255 26.8602L11.4174 26.8688L11.4094 26.8776L12.1184 27.4465ZM14.1395 25.3037L14.8324 25.89L15.3854 25.3037L15.0519 24.7174L14.1395 25.3037ZM12.9206 23.1609L12.0079 23.7466L12.0082 23.7472L12.9206 23.1609ZM12.4993 22.0993L11.4891 22.3855L11.4913 22.404L11.4944 22.4222L12.4993 22.0993ZM13.1559 18.6984L12.5789 18.0034L12.5789 18.0034L13.1559 18.6984ZM17.3359 18.6984L16.4663 19.3514L16.4973 19.3946L16.534 19.433L17.3359 18.6984ZM17.1054 20.9985L16.0928 21.0874L16.0928 21.0874L17.1054 20.9985ZM17.1881 21.4113L18.1133 20.8485L18.1129 20.8476L17.1881 21.4113ZM17.8363 22.6498L18.7818 22.1288L18.7723 22.1075L18.7615 22.087L17.8363 22.6498ZM17.9885 22.9053L17.1513 23.6004L17.2084 23.6692L17.2807 23.7232L17.9885 22.9053ZM18.7685 22.9053L19.2495 23.6729L19.2991 23.6389L19.3455 23.6004L18.7685 22.9053ZM19.0363 22.6498L19.7259 23.2395L19.7346 23.2304L19.7431 23.2211L19.0363 22.6498ZM20.1681 21.4113L20.8749 21.9826L20.8818 21.975L20.1681 21.4113ZM20.4054 20.9985L19.4262 20.9095L19.4262 20.9095L20.4054 20.9985ZM21.0159 18.6984L21.5929 19.3934L21.0159 18.6984ZM25.1559 18.6984L24.2863 19.3514L24.3173 19.3946L24.354 19.433L25.1559 18.6984ZM23.7406 23.1609L24.4368 23.7437L24.4433 23.7368L24.4496 23.7298L23.7406 23.1609ZM21.7159 25.3233L21.0197 24.7405L20.4689 25.3287L20.8055 25.9131L21.7159 25.3233ZM22.9384 27.4465L23.8512 26.8608L23.8488 26.8567L22.9384 27.4465ZM23.3397 28.508L22.3295 28.7942L22.3318 28.8127L22.3348 28.8309L23.3397 28.508ZM22.5691 32.5184L23.1461 33.2134L23.1461 33.2134L22.5691 32.5184ZM18.4291 32.5184L17.5594 33.1714L17.5904 33.2146L17.6272 33.253L18.4291 32.5184ZM18.7937 29.6089L17.7811 29.6979L17.7811 29.6979L18.7937 29.6089ZM18.7109 29.1961L17.7858 29.7589L17.7862 29.7598L18.7109 29.1961ZM18.0628 27.9576L17.1287 28.5028L17.133 28.5117L17.1376 28.5204L18.0628 27.9576ZM17.8906 27.702L18.659 26.9345L18.659 26.9345L17.8906 27.702ZM17.0906 27.702L16.6096 26.9345L16.6096 26.9345L17.0906 27.702ZM16.8228 27.9576L17.5296 28.5289L17.5413 28.516L17.5528 28.5028L16.8228 27.9576ZM15.6909 29.1961L14.9841 28.6247L14.9772 28.6324L15.6909 29.1961ZM15.4537 29.6089L16.4329 29.6979L16.4329 29.6979L15.4537 29.6089ZM13.9921 31.9679C13.9826 32.0185 13.9757 32.0206 13.9907 31.9915C14.008 31.9578 14.0508 31.8908 14.1321 31.8233L15.2861 33.2134C15.7391 32.8373 15.9205 32.3504 15.9921 31.9679H13.9921ZM14.1321 31.8233C14.2385 31.7349 14.3313 31.703 14.3643 31.6939C14.3938 31.6857 14.3853 31.6927 14.3236 31.6927L13.9556 33.6586C14.3044 33.6586 14.8275 33.5941 15.2861 33.2134L14.1321 31.8233ZM14.3236 31.6927H11.2836L10.9156 33.6586H13.9556L14.3236 31.6927ZM11.2836 31.6927C11.2233 31.6927 11.2112 31.6861 11.2286 31.6912C11.2487 31.6972 11.3097 31.7198 11.3709 31.7837L9.76719 33.253C10.0879 33.5881 10.5521 33.6586 10.9156 33.6586L11.2836 31.6927ZM11.4387 31.8654C11.4903 31.9373 11.5013 32.0014 11.5035 32.0223C11.5053 32.0404 11.501 32.0272 11.5121 31.9679H9.5121C9.44521 32.3253 9.42912 32.7945 9.69942 33.1714L11.4387 31.8654ZM11.5121 31.9679L11.9058 29.8645H9.90583L9.5121 31.9679H11.5121ZM11.9058 29.8645C12.013 29.2919 12.1267 28.9734 12.2038 28.8309L10.4357 28.1851C10.1866 28.6455 10.0244 29.2313 9.90583 29.8645H11.9058ZM12.2038 28.8309C12.3008 28.6517 12.4929 28.3833 12.8275 28.0153L11.4094 26.8776C11.0052 27.3222 10.6649 27.7615 10.4357 28.1851L12.2038 28.8309ZM12.8113 28.0327L14.8324 25.89L13.4466 24.7174L11.4255 26.8602L12.8113 28.0327ZM15.0519 24.7174L13.833 22.5746L12.0082 23.7472L13.2271 25.89L15.0519 24.7174ZM13.8333 22.5752C13.6249 22.208 13.5324 21.9453 13.5043 21.7764L11.4944 22.4222C11.5667 22.8562 11.7551 23.3013 12.0079 23.7466L13.8333 22.5752ZM13.5096 21.8131C13.4901 21.6543 13.5052 21.3202 13.6132 20.7429H11.6132C11.4956 21.3713 11.4347 21.9415 11.4891 22.3855L13.5096 21.8131ZM13.6132 20.7429L13.8966 19.2292H11.8966L11.6132 20.7429H13.6132ZM13.8966 19.2292C13.9079 19.1685 13.9163 19.1614 13.9029 19.189C13.8879 19.2197 13.8394 19.305 13.7329 19.3934L12.5789 18.0034C12.1203 18.3841 11.9607 18.8864 11.8966 19.2292H13.8966ZM13.7329 19.3934C13.6517 19.4609 13.578 19.4906 13.5416 19.5015C13.5103 19.5108 13.5136 19.5044 13.5651 19.5044L13.933 17.5385C13.5439 17.5385 13.0319 17.6273 12.5789 18.0034L13.7329 19.3934ZM13.5651 19.5044H16.6451L17.013 17.5385H13.933L13.5651 19.5044ZM16.6451 19.5044C16.6979 19.5044 16.6922 19.5112 16.655 19.4982C16.612 19.4832 16.5318 19.4427 16.4663 19.3514L18.2056 18.0454C17.902 17.6221 17.3892 17.5385 17.013 17.5385L16.6451 19.5044ZM16.534 19.433C16.4563 19.3519 16.4313 19.2656 16.4245 19.2206C16.4186 19.1816 16.4263 19.1772 16.4166 19.2292H18.4166C18.4858 18.8594 18.498 18.34 18.1378 17.9637L16.534 19.433ZM16.4166 19.2292L16.1627 20.5856H18.1627L18.4166 19.2292H16.4166ZM16.1627 20.5856C16.132 20.7493 16.109 20.9167 16.0928 21.0874L18.1179 20.9095C18.1291 20.7919 18.1442 20.6841 18.1627 20.5856H16.1627ZM16.0928 21.0874C16.0614 21.4198 16.1288 21.7186 16.2634 21.975L18.1129 20.8476C18.1103 20.8427 18.1132 20.8468 18.1158 20.8599C18.1185 20.8734 18.1197 20.8907 18.1179 20.9095L16.0928 21.0874ZM16.2629 21.9741L16.9111 23.2126L18.7615 22.087L18.1133 20.8485L16.2629 21.9741ZM16.8908 23.1707C16.9574 23.3191 17.0415 23.4681 17.1513 23.6004L18.8257 22.2103C18.8267 22.2115 18.8093 22.1901 18.7818 22.1288L16.8908 23.1707ZM17.2807 23.7232C17.5105 23.8949 17.7881 23.9669 18.0698 23.9669L18.4377 22.001C18.506 22.001 18.6068 22.0207 18.6962 22.0875L17.2807 23.7232ZM18.0698 23.9669H18.3098L18.6777 22.001H18.4377L18.0698 23.9669ZM18.3098 23.9669C18.5855 23.9669 18.9231 23.8966 19.2495 23.6729L18.2874 22.1378C18.4608 22.0189 18.6153 22.001 18.6777 22.001L18.3098 23.9669ZM19.3455 23.6004C19.4765 23.4916 19.6041 23.3677 19.7259 23.2395L18.3467 22.06C18.2692 22.1416 18.2183 22.188 18.1914 22.2103L19.3455 23.6004ZM19.7431 23.2211L20.8749 21.9826L19.4613 20.84L18.3295 22.0785L19.7431 23.2211ZM20.8818 21.975C21.1124 21.7186 21.2917 21.4198 21.3846 21.0874L19.4262 20.9095C19.4314 20.8907 19.4391 20.8734 19.4468 20.8599C19.4543 20.8468 19.4588 20.8427 19.4544 20.8476L20.8818 21.975ZM21.3846 21.0874C21.4324 20.9167 21.472 20.7493 21.5027 20.5856H19.5027C19.4842 20.6841 19.459 20.7919 19.4262 20.9095L21.3846 21.0874ZM21.5027 20.5856L21.7566 19.2292H19.7566L19.5027 20.5856H21.5027ZM21.7566 19.2292C21.7679 19.1685 21.7763 19.1614 21.7629 19.189C21.7479 19.2197 21.6994 19.305 21.5929 19.3934L20.4389 18.0034C19.9803 18.3841 19.8207 18.8864 19.7566 19.2292H21.7566ZM21.5929 19.3934C21.5117 19.4609 21.438 19.4906 21.4016 19.5015C21.3703 19.5108 21.3736 19.5044 21.4251 19.5044L21.793 17.5385C21.4039 17.5385 20.8919 17.6273 20.4389 18.0034L21.5929 19.3934ZM21.4251 19.5044H24.4651L24.833 17.5385H21.793L21.4251 19.5044ZM24.4651 19.5044C24.5179 19.5044 24.5122 19.5112 24.475 19.4982C24.432 19.4832 24.3518 19.4427 24.2863 19.3514L26.0256 18.0454C25.722 17.6221 25.2092 17.5385 24.833 17.5385L24.4651 19.5044ZM24.354 19.433C24.2763 19.3519 24.2513 19.2656 24.2445 19.2206C24.2386 19.1816 24.2463 19.1772 24.2366 19.2292H26.2366C26.3058 18.8594 26.318 18.34 25.9578 17.9637L24.354 19.433ZM24.2366 19.2292L23.9532 20.7429H25.9532L26.2366 19.2292H24.2366ZM23.9532 20.7429C23.8461 21.3154 23.7323 21.634 23.6553 21.7764L25.4234 22.4222C25.6725 21.9618 25.8347 21.3761 25.9532 20.7429H23.9532ZM23.6553 21.7764C23.5583 21.9556 23.3661 22.2241 23.0316 22.592L24.4496 23.7298C24.8539 23.2852 25.1942 22.8459 25.4234 22.4222L23.6553 21.7764ZM23.0445 22.5781L21.0197 24.7405L22.412 25.9062L24.4368 23.7437L23.0445 22.5781ZM20.8055 25.9131L22.028 28.0362L23.8488 26.8567L22.6262 24.7336L20.8055 25.9131ZM22.0257 28.0321C22.2322 28.3959 22.3113 28.6457 22.3295 28.7942L24.35 28.2218C24.2943 27.7674 24.1059 27.3096 23.8512 26.8608L22.0257 28.0321ZM22.3348 28.8309C22.3585 28.9734 22.353 29.2919 22.2458 29.8645H24.2458C24.3644 29.2313 24.4214 28.6455 24.3447 28.1851L22.3348 28.8309ZM22.2458 29.8645L21.8521 31.9679H23.8521L24.2458 29.8645H22.2458ZM21.8521 31.9679C21.8426 32.0185 21.8357 32.0206 21.8507 31.9915C21.868 31.9578 21.9108 31.8908 21.9921 31.8233L23.1461 33.2134C23.5991 32.8373 23.7805 32.3504 23.8521 31.9679H21.8521ZM21.9921 31.8233C22.0985 31.7349 22.1913 31.703 22.2243 31.6939C22.2538 31.6857 22.2453 31.6927 22.1836 31.6927L21.8156 33.6586C22.1644 33.6586 22.6875 33.5941 23.1461 33.2134L21.9921 31.8233ZM22.1836 31.6927H19.1436L18.7756 33.6586H21.8156L22.1836 31.6927ZM19.1436 31.6927C19.0833 31.6927 19.0712 31.6861 19.0886 31.6912C19.1087 31.6972 19.1697 31.7198 19.2309 31.7837L17.6272 33.253C17.9479 33.5881 18.4121 33.6586 18.7756 33.6586L19.1436 31.6927ZM19.2987 31.8654C19.3503 31.9373 19.3613 32.0014 19.3635 32.0223C19.3653 32.0404 19.361 32.0272 19.3721 31.9679H17.3721C17.3052 32.3253 17.2891 32.7945 17.5594 33.1714L19.2987 31.8654ZM19.3721 31.9679L19.7364 30.0217H17.7364L17.3721 31.9679H19.3721ZM19.7364 30.0217C19.767 29.8581 19.7901 29.6907 19.8062 29.5199L17.7811 29.6979C17.77 29.8155 17.7548 29.9233 17.7364 30.0217H19.7364ZM19.8062 29.5199C19.8377 29.1876 19.7702 28.8887 19.6357 28.6324L17.7862 29.7598C17.7888 29.7646 17.7859 29.7605 17.7832 29.7475C17.7805 29.7339 17.7793 29.7167 17.7811 29.6979L19.8062 29.5199ZM19.6361 28.6333L18.988 27.3948L17.1376 28.5204L17.7858 29.7589L19.6361 28.6333ZM18.9969 27.4124C18.9219 27.2598 18.8155 27.0788 18.659 26.9345L17.1222 28.4696C17.1084 28.4568 17.0999 28.447 17.0961 28.4425C17.0923 28.4379 17.0917 28.4367 17.0941 28.4401C17.0963 28.4435 17.1006 28.4502 17.1067 28.4609C17.1128 28.4716 17.1201 28.4854 17.1287 28.5028L18.9969 27.4124ZM18.659 26.9345C18.4164 26.7108 18.1051 26.6405 17.8293 26.6405L17.4613 28.6063C17.3989 28.6063 17.2511 28.5884 17.1222 28.4696L18.659 26.9345ZM17.8293 26.6405H17.5493L17.1813 28.6063H17.4613L17.8293 26.6405ZM17.5493 26.6405C17.2735 26.6405 16.9359 26.7108 16.6096 26.9345L17.5716 28.4696C17.3982 28.5884 17.2438 28.6063 17.1813 28.6063L17.5493 26.6405ZM16.6096 26.9345C16.399 27.0788 16.2248 27.2598 16.0928 27.4124L17.5528 28.5028C17.5678 28.4854 17.5803 28.4716 17.5904 28.4609C17.6005 28.4502 17.6073 28.4435 17.6108 28.4401C17.6144 28.4367 17.6134 28.4379 17.6079 28.4425C17.6024 28.447 17.5903 28.4568 17.5716 28.4696L16.6096 26.9345ZM16.116 27.3863L14.9842 28.6248L16.3977 29.7674L17.5296 28.5289L16.116 27.3863ZM14.9772 28.6324C14.7467 28.8887 14.5674 29.1876 14.4744 29.5199L16.4329 29.6979C16.4277 29.7167 16.42 29.7339 16.4122 29.7475C16.4047 29.7605 16.4003 29.7646 16.4047 29.7598L14.9772 28.6324ZM14.4744 29.5199C14.4267 29.6907 14.387 29.8581 14.3564 30.0217H16.3564C16.3748 29.9233 16.4 29.8155 16.4329 29.6979L14.4744 29.5199ZM14.3564 30.0217L13.9921 31.9679H15.9921L16.3564 30.0217H14.3564ZM25.4952 32.5184L24.6255 33.1714L24.6565 33.2146L24.6933 33.253L25.4952 32.5184ZM28.082 18.6984L27.505 18.0034L27.505 18.0034L28.082 18.6984ZM38.3164 19.583L37.4577 20.2508L37.4577 20.2508L38.3164 19.583ZM36.8077 27.6431L36.199 26.9752L36.199 26.9752L36.8077 27.6431ZM30.589 28.7046L30.773 27.7217H29.773L29.589 28.7046H30.589ZM29.6952 32.5184L29.1182 31.8233L29.1182 31.8233L29.6952 32.5184ZM31.767 22.1976L31.951 21.2147H30.951L30.767 22.1976H31.767ZM31.2114 25.1661H30.2114L30.0274 26.149H31.0274L31.2114 25.1661ZM33.8266 24.8712L34.5894 25.3769L34.5894 25.3769L33.8266 24.8712ZM34.2718 22.4925L33.3197 22.9982L33.3197 22.9982L34.2718 22.4925ZM29.3097 31.6927H26.2097L25.8417 33.6586H28.9417L29.3097 31.6927ZM26.2097 31.6927C26.1494 31.6927 26.1373 31.6861 26.1547 31.6912C26.1748 31.6972 26.2358 31.7198 26.297 31.7837L24.6933 33.253C25.014 33.5881 25.4782 33.6586 25.8417 33.6586L26.2097 31.6927ZM26.3648 31.8654C26.4164 31.9373 26.4274 32.0014 26.4295 32.0223C26.4314 32.0404 26.4271 32.0272 26.4382 31.9679H24.4382C24.3713 32.3253 24.3552 32.7945 24.6255 33.1714L26.3648 31.8654ZM26.4382 31.9679L28.8227 19.2292H26.8227L24.4382 31.9679H26.4382ZM28.8227 19.2292C28.834 19.1685 28.8424 19.1614 28.829 19.189C28.8139 19.2197 28.7655 19.305 28.659 19.3934L27.505 18.0034C27.0464 18.3841 26.8868 18.8864 26.8227 19.2292H28.8227ZM28.659 19.3934C28.5778 19.4609 28.5041 19.4906 28.4677 19.5015C28.4364 19.5108 28.4397 19.5044 28.4911 19.5044L28.8591 17.5385C28.47 17.5385 27.958 17.6273 27.505 18.0034L28.659 19.3934ZM28.4911 19.5044H34.6111L34.9791 17.5385H28.8591L28.4911 19.5044ZM34.6111 19.5044C36.3615 19.5044 37.1622 19.8594 37.4577 20.2508L39.1752 18.9152C38.4023 17.8913 36.8555 17.5385 34.9791 17.5385L34.6111 19.5044ZM37.4577 20.2508C37.8303 20.7445 37.9736 21.4144 37.7976 22.3549H39.7976C40.0484 21.015 39.871 19.837 39.1752 18.9152L37.4577 20.2508ZM37.7976 22.3549L37.3266 24.8712H39.3266L39.7976 22.3549H37.7976ZM37.3266 24.8712C37.1505 25.8117 36.7564 26.4816 36.199 26.9752L37.4165 28.3109C38.4573 27.3891 39.0758 26.2111 39.3266 24.8712H37.3266ZM36.199 26.9752C35.7569 27.3667 34.8233 27.7217 33.073 27.7217L32.705 29.6875C34.5814 29.6875 36.2603 29.3348 37.4165 28.3109L36.199 26.9752ZM33.073 27.7217H30.773L30.405 29.6875H32.705L33.073 27.7217ZM29.589 28.7046L28.9782 31.9679H30.9782L31.589 28.7046H29.589ZM28.9782 31.9679C28.9687 32.0185 28.9618 32.0206 28.9768 31.9915C28.9941 31.9578 29.0369 31.8908 29.1182 31.8233L30.2722 33.2134C30.7252 32.8373 30.9066 32.3504 30.9782 31.9679H28.9782ZM29.1182 31.8233C29.2246 31.7349 29.3174 31.703 29.3504 31.6939C29.3799 31.6857 29.3714 31.6927 29.3097 31.6927L28.9417 33.6586C29.2905 33.6586 29.8136 33.5941 30.2722 33.2134L29.1182 31.8233ZM30.767 22.1976L30.2114 25.1661H32.2114L32.767 22.1976H30.767ZM31.0274 26.149H32.8274L33.1954 24.1831H31.3954L31.0274 26.149ZM32.8274 26.149C33.3265 26.149 34.0711 26.0267 34.5894 25.3769L33.0637 24.3655C33.1061 24.3124 33.1552 24.2679 33.2045 24.234C33.2522 24.2011 33.2903 24.1849 33.3092 24.1781C33.3271 24.1716 33.3282 24.1734 33.3072 24.1765C33.2864 24.1796 33.2499 24.1831 33.1954 24.1831L32.8274 26.149ZM34.5894 25.3769C34.8785 25.0145 35.0547 24.6141 35.1317 24.2028H33.1317C33.1155 24.2895 33.0883 24.3347 33.0637 24.3655L34.5894 25.3769ZM35.1317 24.2028L35.3267 23.1609H33.3267L33.1317 24.2028H35.1317ZM35.3267 23.1609C35.4037 22.7496 35.3774 22.3492 35.224 21.9868L33.3197 22.9982C33.3327 23.029 33.343 23.0742 33.3267 23.1609H35.3267ZM35.224 21.9868C34.949 21.337 34.2501 21.2147 33.751 21.2147L33.383 23.1806C33.4376 23.1806 33.4727 23.1841 33.4924 23.1872C33.5122 23.1903 33.5104 23.1921 33.4949 23.1856C33.4787 23.1788 33.4466 23.1625 33.4112 23.1297C33.3746 23.0958 33.3421 23.0513 33.3197 22.9982L35.224 21.9868ZM33.751 21.2147H31.951L31.583 23.1806H33.383L33.751 21.2147Z" fill="#302E3F" mask="url(#path-7-inside-1_465_4300)"/>
</g>
<defs>
<radialGradient id="paint0_radial_465_4300" cx="0" cy="0" r="1" gradientUnits="userSpaceOnUse" gradientTransform="translate(30.6219 13.0134) rotate(-152) scale(2.71739 2.60417)">
<stop offset="0.515625" stop-color="#524DF5"/>
<stop offset="1" stop-color="#9A1AFF" stop-opacity="0"/>
</radialGradient>
<radialGradient id="paint1_radial_465_4300" cx="0" cy="0" r="1" gradientUnits="userSpaceOnUse" gradientTransform="translate(38.8438 9.12663) rotate(-152) scale(2.71739 2.60417)">
<stop offset="0.515625" stop-color="#524DF5"/>
<stop offset="1" stop-color="#9A1AFF" stop-opacity="0"/>
</radialGradient>
<radialGradient id="paint2_radial_465_4300" cx="0" cy="0" r="1" gradientUnits="userSpaceOnUse" gradientTransform="translate(43.0983 19.6471) rotate(-152) scale(2.71739 2.60417)">
<stop offset="0.515625" stop-color="#524DF5"/>
<stop offset="1" stop-color="#9A1AFF" stop-opacity="0"/>
</radialGradient>
<radialGradient id="paint3_radial_465_4300" cx="0" cy="0" r="1" gradientUnits="userSpaceOnUse" gradientTransform="translate(17.5013 38.5803) rotate(34) scale(2.71739 2.60417)">
<stop offset="0.515625" stop-color="#524DF5"/>
<stop offset="1" stop-color="#9A1AFF" stop-opacity="0"/>
</radialGradient>
<radialGradient id="paint4_radial_465_4300" cx="0" cy="0" r="1" gradientUnits="userSpaceOnUse" gradientTransform="translate(8.91828 41.5862) rotate(34) scale(2.71739 2.60417)">
<stop offset="0.515625" stop-color="#524DF5"/>
<stop offset="1" stop-color="#9A1AFF" stop-opacity="0"/>
</radialGradient>
<radialGradient id="paint5_radial_465_4300" cx="0" cy="0" r="1" gradientUnits="userSpaceOnUse" gradientTransform="translate(5.7865 30.6785) rotate(34) scale(2.71739 2.60417)">
<stop offset="0.515625" stop-color="#524DF5"/>
<stop offset="1" stop-color="#9A1AFF" stop-opacity="0"/>
</radialGradient>
<clipPath id="clip0_465_4300">
<rect width="50" height="50" fill="white"/>
</clipPath>
</defs>
</svg>
