<svg width="32" height="32" viewBox="0 0 32 32" fill="none" xmlns="http://www.w3.org/2000/svg">
<g clip-path="url(#clip0_37_499)">
<path d="M10.1186 21.4437V12.7554H8.11438V10.5273H12.8915V21.4437H10.1186Z" fill="white"/>
<path d="M23.3117 13.349C23.3117 14.3024 22.796 15.1392 21.9398 15.6062C23.1365 16.1024 23.8857 17.1434 23.8857 18.3596C23.8857 20.3249 22.1441 21.5703 19.4199 21.5703C16.6957 21.5703 14.9541 20.3444 14.9541 18.4082C14.9541 17.1629 15.7616 16.1024 17.0265 15.6062C16.1119 15.0905 15.5184 14.2246 15.5184 13.2711C15.5184 11.5296 17.0459 10.4204 19.4102 10.4204C21.7939 10.4204 23.3117 11.5587 23.3117 13.349ZM17.5616 18.1358C17.5616 19.0504 18.2135 19.566 19.4102 19.566C20.6069 19.566 21.2782 19.0698 21.2782 18.1358C21.2782 17.231 20.6069 16.7153 19.4102 16.7153C18.2135 16.7153 17.5616 17.231 17.5616 18.1358ZM17.8437 13.5046C17.8437 14.283 18.408 14.7208 19.4199 14.7208C20.4318 14.7208 20.9961 14.283 20.9961 13.5046C20.9961 12.6971 20.4318 12.2398 19.4199 12.2398C18.3983 12.2495 17.8437 12.6971 17.8437 13.5046Z" fill="white"/>
<path d="M28.4974 11.7628C28.9547 13.125 29.1882 14.5455 29.1882 15.9951C29.1882 23.2727 23.2727 29.1882 15.9951 29.1882C8.71754 29.1882 2.8118 23.2727 2.8118 15.9951C2.8118 8.71754 8.72727 2.80207 16.0049 2.80207C17.4545 2.80207 18.875 3.03557 20.2372 3.49286V0.564305C18.8556 0.194588 17.4351 0 15.9951 0C7.1803 0 0 7.1803 0 15.9951C0 24.81 7.1803 31.9903 15.9951 31.9903C24.81 31.9903 31.9903 24.81 31.9903 15.9951C31.9903 14.5552 31.7957 13.1347 31.426 11.7628H28.4974Z" fill="#D416AA"/>
<path d="M27.6996 4.29084V1.22607H25.4911V4.29084H22.436V6.49941H25.4911V9.56417H27.6996V6.49941H30.7644V4.29084H27.6996Z" fill="white"/>
</g>
<defs>
<clipPath id="clip0_37_499">
<rect width="32" height="32" fill="white"/>
</clipPath>
</defs>
</svg>
