<svg width="305" height="159" viewBox="0 0 305 159" fill="none" xmlns="http://www.w3.org/2000/svg">
<g filter="url(#filter0_d_754_372)">
<mask id="path-1-outside-1_754_372" maskUnits="userSpaceOnUse" x="3" y="23" width="216" height="64" fill="black">
<rect fill="white" x="3" y="23" width="216" height="64"/>
<path d="M57.3175 42.5782C57.3175 44.1336 57.0761 45.5281 56.5934 46.7617C56.1643 47.9953 55.5475 49.0949 54.743 50.0603C53.9385 51.0257 52.9999 51.8839 51.9271 52.6348C50.8544 53.3857 49.6745 54.0829 48.3872 54.7265C48.9772 54.9411 49.6745 55.2897 50.479 55.7724C51.2835 56.2015 52.0612 56.8183 52.8121 57.6228C53.563 58.4274 54.1798 59.4733 54.6625 60.7605C55.1989 61.9941 55.4671 63.5227 55.4671 65.3463C55.4671 67.7599 54.9575 69.9857 53.9385 72.0239C52.9194 74.062 51.3908 75.832 49.3527 77.3337C47.3682 78.7819 44.901 79.935 41.951 80.7932C39.0547 81.5977 35.7025 82 31.8944 82H8L18.8611 30.9126H40.0202C42.1119 30.9126 44.1769 31.0735 46.215 31.3953C48.3068 31.6635 50.1572 32.2266 51.7662 33.0848C53.4289 33.9429 54.7698 35.1497 55.7889 36.7052C56.8079 38.2069 57.3175 40.1646 57.3175 42.5782ZM35.4344 52.313C36.6143 52.313 37.6066 51.9643 38.4111 51.2671C39.2693 50.5698 39.9665 49.7117 40.5029 48.6926C41.0392 47.6199 41.4415 46.4936 41.7097 45.3136C41.9778 44.08 42.1119 42.9805 42.1119 42.015C42.1119 40.4596 41.7365 39.1456 40.9856 38.0729C40.2883 36.9465 39.162 36.3833 37.6066 36.3833H35.193L31.7335 52.313H35.4344ZM29.6418 76.9315C31.2508 76.9315 32.5917 76.4756 33.6644 75.5638C34.7371 74.652 35.6221 73.5257 36.3193 72.1848C37.0166 70.8439 37.4993 69.4494 37.7675 68.0012C38.0893 66.4995 38.2502 65.1854 38.2502 64.0591C38.2502 62.1818 37.8479 60.7069 37.0434 59.6342C36.2925 58.5078 35.0589 57.9447 33.3426 57.9447H30.3658L26.4237 76.9315H29.6418ZM73.5746 82H57.2427L64.5639 47.4054H81.0567L73.5746 82ZM83.1484 36.8661C83.1484 38.0997 82.8803 39.1724 82.3439 40.0842C81.8612 40.996 81.1908 41.7737 80.3326 42.4173C79.5281 43.0609 78.5895 43.5436 77.5167 43.8654C76.444 44.1873 75.3445 44.3482 74.2182 44.3482C72.0728 44.3482 70.276 43.8386 68.8279 42.8196C67.3797 41.8005 66.6556 40.1914 66.6556 37.9924C66.6556 36.8124 66.897 35.7665 67.3797 34.8547C67.8624 33.8893 68.5061 33.1116 69.3106 32.5216C70.1687 31.878 71.1342 31.3953 72.2069 31.0735C73.3332 30.7517 74.4864 30.5908 75.6663 30.5908C77.7581 30.5908 79.5281 31.1003 80.9762 32.1194C82.4244 33.1384 83.1484 34.7207 83.1484 36.8661ZM117.338 80.0691C115.086 80.9809 112.699 81.6246 110.178 82C107.711 82.4291 104.895 82.6436 101.73 82.6436C98.9415 82.6436 96.367 82.3754 94.007 81.8391C91.7007 81.2491 89.6894 80.3373 87.9731 79.1037C86.2568 77.8701 84.9159 76.2879 83.9504 74.357C82.985 72.3725 82.5023 69.9857 82.5023 67.1967C82.5023 64.3004 82.985 61.6187 83.9504 59.1514C84.9695 56.6306 86.4713 54.4316 88.4558 52.5543C90.4939 50.6771 93.0684 49.2021 96.1792 48.1294C99.2901 47.0567 102.991 46.5204 107.282 46.5204C110.768 46.5204 113.798 46.8154 116.373 47.4054C118.947 47.9417 121.066 49.2021 122.729 51.1866L120.476 61.4846H109.534C109.588 60.5728 109.642 59.7682 109.695 59.071C109.749 58.3737 109.776 57.596 109.776 56.7379C109.776 55.0215 109.588 53.8148 109.213 53.1175C108.837 52.3666 108.22 51.9912 107.362 51.9912C105.86 51.9912 104.546 52.7421 103.42 54.2438C102.294 55.692 101.355 57.4619 100.604 59.5537C99.9069 61.5918 99.3705 63.7641 98.9951 66.0704C98.6733 68.323 98.5124 70.2539 98.5124 71.863C98.5124 72.453 98.5392 73.0698 98.5928 73.7134C98.6465 74.3034 98.7537 74.8665 98.9146 75.4029C99.1292 75.9392 99.3974 76.3683 99.7192 76.6901C100.041 77.0119 100.497 77.1728 101.087 77.1728C101.623 77.1728 102.24 77.0119 102.937 76.6901C103.635 76.3683 104.305 75.8856 104.949 75.242C105.592 74.5447 106.209 73.6597 106.799 72.587C107.389 71.5143 107.845 70.2271 108.167 68.7253H119.671L117.338 80.0691ZM145.455 52.5543H146.018C147.037 51.5353 148.217 50.5966 149.558 49.7385C150.685 48.9876 152.026 48.3172 153.581 47.7272C155.136 47.1372 156.88 46.8422 158.81 46.8422C161.599 46.8422 163.906 47.5663 165.729 49.0144C167.553 50.4089 168.465 52.3398 168.465 54.807C168.465 55.5579 168.384 56.4161 168.223 57.3815C168.062 58.2933 167.875 59.2855 167.66 60.3582C167.446 61.3773 167.204 62.4232 166.936 63.4959C166.722 64.515 166.534 65.4536 166.373 66.3117L162.994 82H146.662L151.087 61.0019C151.194 60.3046 151.328 59.6073 151.489 58.9101C151.65 58.1592 151.731 57.4888 151.731 56.8988C151.731 56.0942 151.516 55.4506 151.087 54.9679C150.711 54.4316 150.121 54.1634 149.317 54.1634C148.352 54.1634 147.413 54.512 146.501 55.2093C145.643 55.9065 144.973 56.5233 144.49 57.0597L139.18 82H122.768L134.192 27.9358H150.685L145.455 52.5543ZM196.055 46.5204C202.438 46.5204 207.077 47.6467 209.973 49.8994C213.03 52.2593 214.559 56.1747 214.559 61.6455C214.559 65.0245 213.996 68.0817 212.87 70.8171C211.743 73.4988 210.161 75.7247 208.123 77.4947C204.047 80.9273 198.147 82.6436 190.423 82.6436C183.826 82.6436 179.106 81.3832 176.264 78.8623C173.206 76.2342 171.678 72.292 171.678 67.0358C171.678 63.5495 172.375 60.3851 173.77 57.5424C175.218 54.6997 177.283 52.3398 179.964 50.4626C183.88 47.8344 189.243 46.5204 196.055 46.5204ZM190.584 77.1728C191.925 77.1728 193.078 76.4219 194.044 74.9202C195.063 73.4184 195.867 71.5948 196.457 69.4494C197.047 67.2503 197.476 64.9977 197.744 62.6914C198.066 60.3314 198.227 58.2933 198.227 56.577C198.227 55.0752 198.066 53.9488 197.744 53.1979C197.476 52.3934 196.859 51.9912 195.894 51.9912C194.446 51.9912 193.185 52.7689 192.113 54.3243C191.094 55.8797 190.262 57.7301 189.619 59.8755C188.975 62.0209 188.492 64.22 188.171 66.4726C187.902 68.7253 187.768 70.5489 187.768 71.9434C187.768 75.4297 188.707 77.1728 190.584 77.1728Z"/>
</mask>
<path d="M57.3175 42.5782C57.3175 44.1336 57.0761 45.5281 56.5934 46.7617C56.1643 47.9953 55.5475 49.0949 54.743 50.0603C53.9385 51.0257 52.9999 51.8839 51.9271 52.6348C50.8544 53.3857 49.6745 54.0829 48.3872 54.7265C48.9772 54.9411 49.6745 55.2897 50.479 55.7724C51.2835 56.2015 52.0612 56.8183 52.8121 57.6228C53.563 58.4274 54.1798 59.4733 54.6625 60.7605C55.1989 61.9941 55.4671 63.5227 55.4671 65.3463C55.4671 67.7599 54.9575 69.9857 53.9385 72.0239C52.9194 74.062 51.3908 75.832 49.3527 77.3337C47.3682 78.7819 44.901 79.935 41.951 80.7932C39.0547 81.5977 35.7025 82 31.8944 82H8L18.8611 30.9126H40.0202C42.1119 30.9126 44.1769 31.0735 46.215 31.3953C48.3068 31.6635 50.1572 32.2266 51.7662 33.0848C53.4289 33.9429 54.7698 35.1497 55.7889 36.7052C56.8079 38.2069 57.3175 40.1646 57.3175 42.5782ZM35.4344 52.313C36.6143 52.313 37.6066 51.9643 38.4111 51.2671C39.2693 50.5698 39.9665 49.7117 40.5029 48.6926C41.0392 47.6199 41.4415 46.4936 41.7097 45.3136C41.9778 44.08 42.1119 42.9805 42.1119 42.015C42.1119 40.4596 41.7365 39.1456 40.9856 38.0729C40.2883 36.9465 39.162 36.3833 37.6066 36.3833H35.193L31.7335 52.313H35.4344ZM29.6418 76.9315C31.2508 76.9315 32.5917 76.4756 33.6644 75.5638C34.7371 74.652 35.6221 73.5257 36.3193 72.1848C37.0166 70.8439 37.4993 69.4494 37.7675 68.0012C38.0893 66.4995 38.2502 65.1854 38.2502 64.0591C38.2502 62.1818 37.8479 60.7069 37.0434 59.6342C36.2925 58.5078 35.0589 57.9447 33.3426 57.9447H30.3658L26.4237 76.9315H29.6418ZM73.5746 82H57.2427L64.5639 47.4054H81.0567L73.5746 82ZM83.1484 36.8661C83.1484 38.0997 82.8803 39.1724 82.3439 40.0842C81.8612 40.996 81.1908 41.7737 80.3326 42.4173C79.5281 43.0609 78.5895 43.5436 77.5167 43.8654C76.444 44.1873 75.3445 44.3482 74.2182 44.3482C72.0728 44.3482 70.276 43.8386 68.8279 42.8196C67.3797 41.8005 66.6556 40.1914 66.6556 37.9924C66.6556 36.8124 66.897 35.7665 67.3797 34.8547C67.8624 33.8893 68.5061 33.1116 69.3106 32.5216C70.1687 31.878 71.1342 31.3953 72.2069 31.0735C73.3332 30.7517 74.4864 30.5908 75.6663 30.5908C77.7581 30.5908 79.5281 31.1003 80.9762 32.1194C82.4244 33.1384 83.1484 34.7207 83.1484 36.8661ZM117.338 80.0691C115.086 80.9809 112.699 81.6246 110.178 82C107.711 82.4291 104.895 82.6436 101.73 82.6436C98.9415 82.6436 96.367 82.3754 94.007 81.8391C91.7007 81.2491 89.6894 80.3373 87.9731 79.1037C86.2568 77.8701 84.9159 76.2879 83.9504 74.357C82.985 72.3725 82.5023 69.9857 82.5023 67.1967C82.5023 64.3004 82.985 61.6187 83.9504 59.1514C84.9695 56.6306 86.4713 54.4316 88.4558 52.5543C90.4939 50.6771 93.0684 49.2021 96.1792 48.1294C99.2901 47.0567 102.991 46.5204 107.282 46.5204C110.768 46.5204 113.798 46.8154 116.373 47.4054C118.947 47.9417 121.066 49.2021 122.729 51.1866L120.476 61.4846H109.534C109.588 60.5728 109.642 59.7682 109.695 59.071C109.749 58.3737 109.776 57.596 109.776 56.7379C109.776 55.0215 109.588 53.8148 109.213 53.1175C108.837 52.3666 108.22 51.9912 107.362 51.9912C105.86 51.9912 104.546 52.7421 103.42 54.2438C102.294 55.692 101.355 57.4619 100.604 59.5537C99.9069 61.5918 99.3705 63.7641 98.9951 66.0704C98.6733 68.323 98.5124 70.2539 98.5124 71.863C98.5124 72.453 98.5392 73.0698 98.5928 73.7134C98.6465 74.3034 98.7537 74.8665 98.9146 75.4029C99.1292 75.9392 99.3974 76.3683 99.7192 76.6901C100.041 77.0119 100.497 77.1728 101.087 77.1728C101.623 77.1728 102.24 77.0119 102.937 76.6901C103.635 76.3683 104.305 75.8856 104.949 75.242C105.592 74.5447 106.209 73.6597 106.799 72.587C107.389 71.5143 107.845 70.2271 108.167 68.7253H119.671L117.338 80.0691ZM145.455 52.5543H146.018C147.037 51.5353 148.217 50.5966 149.558 49.7385C150.685 48.9876 152.026 48.3172 153.581 47.7272C155.136 47.1372 156.88 46.8422 158.81 46.8422C161.599 46.8422 163.906 47.5663 165.729 49.0144C167.553 50.4089 168.465 52.3398 168.465 54.807C168.465 55.5579 168.384 56.4161 168.223 57.3815C168.062 58.2933 167.875 59.2855 167.66 60.3582C167.446 61.3773 167.204 62.4232 166.936 63.4959C166.722 64.515 166.534 65.4536 166.373 66.3117L162.994 82H146.662L151.087 61.0019C151.194 60.3046 151.328 59.6073 151.489 58.9101C151.65 58.1592 151.731 57.4888 151.731 56.8988C151.731 56.0942 151.516 55.4506 151.087 54.9679C150.711 54.4316 150.121 54.1634 149.317 54.1634C148.352 54.1634 147.413 54.512 146.501 55.2093C145.643 55.9065 144.973 56.5233 144.49 57.0597L139.18 82H122.768L134.192 27.9358H150.685L145.455 52.5543ZM196.055 46.5204C202.438 46.5204 207.077 47.6467 209.973 49.8994C213.03 52.2593 214.559 56.1747 214.559 61.6455C214.559 65.0245 213.996 68.0817 212.87 70.8171C211.743 73.4988 210.161 75.7247 208.123 77.4947C204.047 80.9273 198.147 82.6436 190.423 82.6436C183.826 82.6436 179.106 81.3832 176.264 78.8623C173.206 76.2342 171.678 72.292 171.678 67.0358C171.678 63.5495 172.375 60.3851 173.77 57.5424C175.218 54.6997 177.283 52.3398 179.964 50.4626C183.88 47.8344 189.243 46.5204 196.055 46.5204ZM190.584 77.1728C191.925 77.1728 193.078 76.4219 194.044 74.9202C195.063 73.4184 195.867 71.5948 196.457 69.4494C197.047 67.2503 197.476 64.9977 197.744 62.6914C198.066 60.3314 198.227 58.2933 198.227 56.577C198.227 55.0752 198.066 53.9488 197.744 53.1979C197.476 52.3934 196.859 51.9912 195.894 51.9912C194.446 51.9912 193.185 52.7689 192.113 54.3243C191.094 55.8797 190.262 57.7301 189.619 59.8755C188.975 62.0209 188.492 64.22 188.171 66.4726C187.902 68.7253 187.768 70.5489 187.768 71.9434C187.768 75.4297 188.707 77.1728 190.584 77.1728Z" fill="white"/>
<path d="M56.5934 46.7617L52.8474 45.2959L52.8193 45.3675L52.794 45.4402L56.5934 46.7617ZM51.9271 52.6348L49.6203 49.3393L49.6203 49.3393L51.9271 52.6348ZM48.3872 54.7265L46.5883 51.1286L38.2235 55.311L47.0125 58.507L48.3872 54.7265ZM50.479 55.7724L48.4094 59.2218L48.4964 59.274L48.586 59.3218L50.479 55.7724ZM52.8121 57.6228L49.8714 60.3676L49.8714 60.3676L52.8121 57.6228ZM54.6625 60.7605L50.896 62.1729L50.9323 62.2697L50.9735 62.3644L54.6625 60.7605ZM53.9385 72.0239L50.3405 70.2249L50.3405 70.2249L53.9385 72.0239ZM49.3527 77.3337L51.7239 80.5832L51.7314 80.5777L51.7389 80.5722L49.3527 77.3337ZM41.951 80.7932L43.0277 84.6691L43.0512 84.6625L43.0747 84.6557L41.951 80.7932ZM8 82L4.06531 81.1635L3.03226 86.0226H8V82ZM18.8611 30.9126V26.8899H15.6038L14.9264 30.0761L18.8611 30.9126ZM46.215 31.3953L45.5876 35.3687L45.6454 35.3778L45.7035 35.3853L46.215 31.3953ZM51.7662 33.0848L49.8732 36.6342L49.8972 36.6469L49.9213 36.6594L51.7662 33.0848ZM55.7889 36.7052L52.4241 38.9097L52.442 38.9369L52.4602 38.9639L55.7889 36.7052ZM38.4111 51.2671L35.8745 48.1451L35.8249 48.1854L35.7766 48.2272L38.4111 51.2671ZM40.5029 48.6926L44.0626 50.5661L44.0821 50.5291L44.1008 50.4916L40.5029 48.6926ZM41.7097 45.3136L45.6323 46.2051L45.6365 46.1866L45.6405 46.1681L41.7097 45.3136ZM40.9856 38.0729L37.5653 40.1902L37.625 40.2867L37.6901 40.3797L40.9856 38.0729ZM35.193 36.3833V32.3607H31.9502L31.262 35.5296L35.193 36.3833ZM31.7335 52.313L27.8025 51.4593L26.7435 56.3356H31.7335V52.313ZM33.6644 75.5638L31.0591 72.4988L31.0591 72.4988L33.6644 75.5638ZM36.3193 72.1848L39.8883 74.0406L39.8883 74.0406L36.3193 72.1848ZM37.7675 68.0012L33.8341 67.1584L33.8223 67.2134L33.8121 67.2688L37.7675 68.0012ZM37.0434 59.6342L33.6964 61.8655L33.7583 61.9584L33.8253 62.0477L37.0434 59.6342ZM30.3658 57.9447V53.922H27.0926L26.4272 57.1269L30.3658 57.9447ZM26.4237 76.9315L22.485 76.1137L21.48 80.9541H26.4237V76.9315ZM53.2948 42.5782C53.2948 43.7178 53.1184 44.6031 52.8474 45.2959L60.3395 48.2276C61.0338 46.4531 61.3401 44.5494 61.3401 42.5782H53.2948ZM52.794 45.4402C52.5176 46.2349 52.1353 46.906 51.6527 47.4851L57.8333 52.6355C58.9598 51.2837 59.811 49.7558 60.3928 48.0833L52.794 45.4402ZM51.6527 47.4851C51.0857 48.1655 50.4134 48.7842 49.6203 49.3393L54.234 55.9303C55.5863 54.9836 56.7912 53.8859 57.8333 52.6355L51.6527 47.4851ZM49.6203 49.3393C48.7242 49.9666 47.7162 50.5646 46.5883 51.1286L50.1862 58.3245C51.6328 57.6012 52.9847 56.8048 54.234 55.9302L49.6203 49.3393ZM47.0125 58.507C47.2739 58.602 47.7286 58.8134 48.4094 59.2218L52.5486 52.3231C51.6203 51.7661 50.6805 51.2801 49.7619 50.9461L47.0125 58.507ZM48.586 59.3218C48.9279 59.5042 49.3624 59.8222 49.8714 60.3676L55.7529 54.8781C54.7601 53.8144 53.6391 52.8988 52.372 52.223L48.586 59.3218ZM49.8714 60.3676C50.1848 60.7033 50.554 61.2607 50.896 62.1729L58.4291 59.3481C57.8057 57.6858 56.9413 56.1514 55.7529 54.8781L49.8714 60.3676ZM50.9735 62.3644C51.2264 62.9461 51.4444 63.8896 51.4444 65.3463H59.4897C59.4897 63.1558 59.1714 61.0421 58.3516 59.1566L50.9735 62.3644ZM51.4444 65.3463C51.4444 67.1733 51.0638 68.7783 50.3405 70.2249L57.5364 73.8228C58.8513 71.1932 59.4897 68.3464 59.4897 65.3463H51.4444ZM50.3405 70.2249C49.6363 71.6334 48.5502 72.9283 46.9664 74.0953L51.7389 80.5722C54.2314 78.7356 56.2025 76.4906 57.5364 73.8228L50.3405 70.2249ZM46.9814 74.0843C45.4552 75.1981 43.4368 76.1716 40.8274 76.9307L43.0747 84.6557C46.3651 83.6985 49.2811 82.3657 51.7239 80.5832L46.9814 74.0843ZM40.8744 76.9173C38.4074 77.6026 35.4306 77.9774 31.8944 77.9774V86.0226C35.9744 86.0226 39.702 85.5929 43.0277 84.6691L40.8744 76.9173ZM31.8944 77.9774H8V86.0226H31.8944V77.9774ZM11.9347 82.8365L22.7958 31.7491L14.9264 30.0761L4.06531 81.1635L11.9347 82.8365ZM18.8611 34.9352H40.0202V26.8899H18.8611V34.9352ZM40.0202 34.9352C41.9047 34.9352 43.7599 35.0801 45.5876 35.3687L46.8424 27.4219C44.5939 27.0668 42.3191 26.8899 40.0202 26.8899V34.9352ZM45.7035 35.3853C47.3864 35.601 48.7558 36.0382 49.8732 36.6342L53.6592 29.5354C51.5586 28.415 49.2272 27.7259 46.7265 27.4053L45.7035 35.3853ZM49.9213 36.6594C50.9718 37.2016 51.7876 37.9381 52.4241 38.9097L59.1537 34.5006C57.7521 32.3614 55.8861 30.6843 53.6112 29.5102L49.9213 36.6594ZM52.4602 38.9639C52.8998 39.6117 53.2948 40.7089 53.2948 42.5782H61.3401C61.3401 39.6203 60.7161 36.8022 59.1175 34.4464L52.4602 38.9639ZM35.4344 56.3356C37.4696 56.3356 39.429 55.7081 41.0456 54.3069L35.7766 48.2272C35.7518 48.2487 35.7429 48.2518 35.7301 48.2563C35.7113 48.2629 35.6251 48.2903 35.4344 48.2903V56.3356ZM40.9477 54.3891C42.2453 53.3349 43.2838 52.0458 44.0626 50.5661L36.9432 46.8191C36.6493 47.3775 36.2932 47.8048 35.8745 48.1451L40.9477 54.3891ZM44.1008 50.4916C44.7827 49.1279 45.2933 47.6966 45.6323 46.2051L37.7871 44.4221C37.5897 45.2905 37.2958 46.1119 36.9049 46.8936L44.1008 50.4916ZM45.6405 46.1681C45.9522 44.7343 46.1346 43.3399 46.1346 42.015H38.0893C38.0893 42.6211 38.0035 43.4257 37.7788 44.4591L45.6405 46.1681ZM46.1346 42.015C46.1346 39.793 45.5888 37.6342 44.2811 35.766L37.6901 40.3797C37.8842 40.6569 38.0893 41.1262 38.0893 42.015H46.1346ZM44.4059 35.9555C42.8371 33.4213 40.2704 32.3607 37.6066 32.3607V40.406C37.9038 40.406 37.9303 40.4593 37.8189 40.4037C37.7643 40.3764 37.7035 40.3356 37.6483 40.2845C37.5942 40.2344 37.5688 40.1959 37.5653 40.1902L44.4059 35.9555ZM37.6066 32.3607H35.193V40.406H37.6066V32.3607ZM31.262 35.5296L27.8025 51.4593L35.6645 53.1667L39.124 37.237L31.262 35.5296ZM31.7335 56.3356H35.4344V48.2903H31.7335V56.3356ZM29.6418 80.9541C32.0606 80.9541 34.3665 80.2465 36.2696 78.6288L31.0591 72.4988C30.8169 72.7047 30.441 72.9089 29.6418 72.9089V80.9541ZM36.2696 78.6288C37.7671 77.3559 38.9688 75.8088 39.8883 74.0406L32.7504 70.3289C32.2753 71.2425 31.7071 71.9481 31.0591 72.4988L36.2696 78.6288ZM39.8883 74.0406C40.7644 72.3558 41.3803 70.5836 41.7229 68.7337L33.8121 67.2688C33.6183 68.3152 33.2688 69.332 32.7504 70.3289L39.8883 74.0406ZM41.7008 68.8441C42.0622 67.1578 42.2728 65.5498 42.2728 64.0591H34.2276C34.2276 64.821 34.1164 65.8411 33.8341 67.1584L41.7008 68.8441ZM42.2728 64.0591C42.2728 61.6512 41.7608 59.2196 40.2615 57.2206L33.8253 62.0477C33.9351 62.1941 34.2276 62.7125 34.2276 64.0591H42.2728ZM40.3904 57.4028C38.6932 54.8569 35.9974 53.922 33.3426 53.922V61.9673C33.7724 61.9673 33.9119 62.0389 33.8845 62.0264C33.8682 62.019 33.8286 61.9976 33.7821 61.958C33.7355 61.9183 33.7073 61.882 33.6964 61.8655L40.3904 57.4028ZM33.3426 53.922H30.3658V61.9673H33.3426V53.922ZM26.4272 57.1269L22.485 76.1137L30.3623 77.7492L34.3045 58.7624L26.4272 57.1269ZM26.4237 80.9541H29.6418V72.9089H26.4237V80.9541ZM73.5746 82V86.0226H76.8202L77.5063 82.8504L73.5746 82ZM57.2427 82L53.3072 81.1671L52.2797 86.0226H57.2427V82ZM64.5639 47.4054V43.3827H61.3034L60.6284 46.5725L64.5639 47.4054ZM81.0567 47.4054L84.9884 48.2557L86.0423 43.3827H81.0567V47.4054ZM82.3439 40.0842L78.8767 38.0446L78.8309 38.1223L78.7888 38.202L82.3439 40.0842ZM80.3326 42.4173L77.919 39.1992L77.8687 39.2369L77.8197 39.2761L80.3326 42.4173ZM77.5167 43.8654L76.3609 40.0125L76.3609 40.0125L77.5167 43.8654ZM68.8279 42.8196L66.5129 46.1093L66.5129 46.1093L68.8279 42.8196ZM67.3797 34.8547L70.9349 36.7369L70.9568 36.6955L70.9777 36.6537L67.3797 34.8547ZM69.3106 32.5216L71.6894 35.7655L71.7069 35.7527L71.7242 35.7397L69.3106 32.5216ZM72.2069 31.0735L71.1018 27.2056L71.0763 27.2129L71.051 27.2205L72.2069 31.0735ZM80.9762 32.1194L78.6612 35.4091L78.6612 35.4091L80.9762 32.1194ZM73.5746 77.9774H57.2427V86.0226H73.5746V77.9774ZM61.1782 82.8329L68.4993 48.2382L60.6284 46.5725L53.3072 81.1671L61.1782 82.8329ZM64.5639 51.428H81.0567V43.3827H64.5639V51.428ZM77.1249 46.555L69.6428 81.1496L77.5063 82.8504L84.9884 48.2557L77.1249 46.555ZM79.1258 36.8661C79.1258 37.503 78.9928 37.8472 78.8767 38.0446L85.8112 42.1237C86.7677 40.4975 87.1711 38.6963 87.1711 36.8661H79.1258ZM78.7888 38.202C78.5946 38.5688 78.3222 38.8968 77.919 39.1992L82.7462 45.6354C84.0593 44.6506 85.1278 43.4231 85.8991 41.9663L78.7888 38.202ZM77.8197 39.2761C77.4515 39.5707 76.983 39.8258 76.3609 40.0125L78.6726 47.7184C80.1959 47.2614 81.6046 46.5511 82.8455 45.5584L77.8197 39.2761ZM76.3609 40.0125C75.6653 40.2211 74.9553 40.3255 74.2182 40.3255V48.3708C75.7338 48.3708 77.2228 48.1534 78.6726 47.7184L76.3609 40.0125ZM74.2182 40.3255C72.7231 40.3255 71.7806 39.9786 71.1429 39.5298L66.5129 46.1093C68.7714 47.6986 71.4225 48.3708 74.2182 48.3708V40.3255ZM71.1429 39.5298C71.0267 39.4481 70.6783 39.2384 70.6783 37.9924H62.633C62.633 41.1445 63.7327 44.1529 66.5129 46.1093L71.1429 39.5298ZM70.6783 37.9924C70.6783 37.3734 70.8008 36.9902 70.9349 36.7369L63.8246 32.9726C62.9932 34.5429 62.633 36.2514 62.633 37.9924H70.6783ZM70.9777 36.6537C71.1985 36.2121 71.4418 35.9471 71.6894 35.7655L66.9317 29.2777C65.5703 30.2761 64.5264 31.5666 63.7818 33.0558L70.9777 36.6537ZM71.7242 35.7397C72.1872 35.3925 72.7232 35.1183 73.3628 34.9265L71.051 27.2205C69.5452 27.6722 68.1503 28.3635 66.897 29.3035L71.7242 35.7397ZM73.312 34.9413C74.0763 34.723 74.8574 34.6134 75.6663 34.6134V26.5681C74.1154 26.5681 72.5901 26.7804 71.1018 27.2056L73.312 34.9413ZM75.6663 34.6134C77.0835 34.6134 78.0068 34.9486 78.6612 35.4091L83.2912 28.8296C81.0493 27.252 78.4327 26.5681 75.6663 26.5681V34.6134ZM78.6612 35.4091C78.8054 35.5105 79.1258 35.7157 79.1258 36.8661H87.1711C87.1711 33.7256 86.0433 30.7663 83.2912 28.8296L78.6612 35.4091ZM117.338 80.0691L118.848 83.7979L120.844 82.9896L121.278 80.8795L117.338 80.0691ZM110.178 82L109.585 78.0213L109.537 78.0285L109.489 78.0369L110.178 82ZM94.007 81.8391L93.0101 85.7362L93.0626 85.7497L93.1155 85.7617L94.007 81.8391ZM87.9731 79.1037L85.6253 82.3701L85.6253 82.3701L87.9731 79.1037ZM83.9504 74.357L80.3332 76.1168L80.3427 76.1364L80.3525 76.156L83.9504 74.357ZM83.9504 59.1514L80.221 57.6438L80.2126 57.6647L80.2044 57.6856L83.9504 59.1514ZM88.4558 52.5543L85.7306 49.5955L85.7109 49.6136L85.6914 49.632L88.4558 52.5543ZM96.1792 48.1294L94.8679 44.3265L94.8679 44.3265L96.1792 48.1294ZM116.373 47.4054L115.474 51.3263L115.513 51.3353L115.552 51.3434L116.373 47.4054ZM122.729 51.1866L126.658 52.0463L127.08 50.117L125.812 48.6032L122.729 51.1866ZM120.476 61.4846V65.5072H123.714L124.406 62.3442L120.476 61.4846ZM109.534 61.4846L105.519 61.2484L105.268 65.5072H109.534V61.4846ZM109.695 59.071L105.685 58.7625L105.685 58.7625L109.695 59.071ZM109.213 53.1175L105.615 54.9165L105.642 54.971L105.671 55.0246L109.213 53.1175ZM103.42 54.2438L106.595 56.7135L106.617 56.6856L106.638 56.6574L103.42 54.2438ZM100.604 59.5537L96.8181 58.1946L96.8079 58.223L96.7981 58.2516L100.604 59.5537ZM98.9951 66.0704L95.0247 65.424L95.0184 65.4627L95.0129 65.5015L98.9951 66.0704ZM98.5928 73.7134L94.5841 74.0474L94.5853 74.0625L94.5867 74.0776L98.5928 73.7134ZM98.9146 75.4029L95.0617 76.5588L95.1132 76.7304L95.1797 76.8969L98.9146 75.4029ZM99.7192 76.6901L96.8747 79.5346L96.8747 79.5346L99.7192 76.6901ZM102.937 76.6901L104.623 80.3425L104.623 80.3425L102.937 76.6901ZM104.949 75.242L107.793 78.0864L107.85 78.0295L107.904 77.9704L104.949 75.242ZM106.799 72.587L110.324 74.5256L110.324 74.5256L106.799 72.587ZM108.167 68.7253V64.7027H104.915L104.233 67.8825L108.167 68.7253ZM119.671 68.7253L123.612 69.5357L124.606 64.7027H119.671V68.7253ZM115.829 76.3404C113.885 77.1273 111.807 77.6903 109.585 78.0213L110.771 85.9787C113.591 85.5588 116.286 84.8346 118.848 83.7979L115.829 76.3404ZM109.489 78.0369C107.299 78.4176 104.721 78.621 101.73 78.621V86.6663C105.069 86.6663 108.122 86.4405 110.867 85.9631L109.489 78.0369ZM101.73 78.621C99.197 78.621 96.9256 78.3772 94.8985 77.9165L93.1155 85.7617C95.8083 86.3737 98.6859 86.6663 101.73 86.6663V78.621ZM95.004 77.942C93.1223 77.4606 91.582 76.7437 90.3208 75.8373L85.6253 82.3701C87.7968 83.9309 90.2791 85.0376 93.0101 85.7362L95.004 77.942ZM90.3208 75.8373C89.1457 74.9926 88.2287 73.9186 87.5484 72.558L80.3525 76.156C81.6031 78.6571 83.3679 80.7476 85.6253 82.3701L90.3208 75.8373ZM87.5677 72.5972C86.9299 71.2861 86.5249 69.5323 86.5249 67.1967H78.4797C78.4797 70.4392 79.0401 73.4589 80.3332 76.1168L87.5677 72.5972ZM86.5249 67.1967C86.5249 64.7551 86.9302 62.5757 87.6965 60.6173L80.2044 57.6856C79.0399 60.6617 78.4797 63.8457 78.4797 67.1967H86.5249ZM87.6799 60.6591C88.4815 58.6762 89.6531 56.959 91.2201 55.4766L85.6914 49.632C83.2895 51.9042 81.4576 54.585 80.221 57.6438L87.6799 60.6591ZM91.181 55.5132C92.742 54.0755 94.8074 52.8576 97.4906 51.9323L94.8679 44.3265C91.3294 45.5467 88.2459 47.2787 85.7306 49.5955L91.181 55.5132ZM97.4906 51.9323C100.073 51.0417 103.309 50.543 107.282 50.543V42.4977C102.673 42.4977 98.5068 43.0718 94.8679 44.3265L97.4906 51.9323ZM107.282 50.543C110.556 50.543 113.271 50.8214 115.474 51.3263L117.271 43.4844C114.326 42.8093 110.98 42.4977 107.282 42.4977V50.543ZM115.552 51.3434C117.257 51.6985 118.573 52.4903 119.645 53.77L125.812 48.6032C123.559 45.9139 120.638 44.1849 117.193 43.4673L115.552 51.3434ZM118.799 50.327L116.546 60.6249L124.406 62.3442L126.658 52.0463L118.799 50.327ZM120.476 57.4619H109.534V65.5072H120.476V57.4619ZM113.55 61.7208C113.603 60.8263 113.655 60.0467 113.706 59.3795L105.685 58.7625C105.629 59.4898 105.573 60.3193 105.519 61.2484L113.55 61.7208ZM113.706 59.3795C113.769 58.5597 113.798 57.6769 113.798 56.7379H105.753C105.753 57.5152 105.729 58.1878 105.685 58.7625L113.706 59.3795ZM113.798 56.7379C113.798 54.9617 113.643 52.8615 112.754 51.2104L105.671 55.0246C105.558 54.8149 105.603 54.794 105.66 55.1638C105.712 55.4993 105.753 56.0107 105.753 56.7379H113.798ZM112.811 51.3185C112.341 50.3787 111.614 49.478 110.56 48.8366C109.511 48.1984 108.389 47.9685 107.362 47.9685V56.0138C107.194 56.0138 106.809 55.9717 106.377 55.7089C105.94 55.4429 105.709 55.1054 105.615 54.9165L112.811 51.3185ZM107.362 47.9685C104.28 47.9685 101.877 49.5964 100.202 51.8303L106.638 56.6574C106.949 56.2434 107.166 56.0928 107.246 56.047C107.3 56.016 107.317 56.0138 107.362 56.0138V47.9685ZM100.245 51.7742C98.8089 53.6202 97.6833 55.7844 96.8181 58.1946L104.39 60.9128C105.027 59.1395 105.778 57.7638 106.595 56.7135L100.245 51.7742ZM96.7981 58.2516C96.0219 60.5205 95.4334 62.9135 95.0247 65.424L102.965 66.7167C103.308 64.6146 103.792 62.6632 104.41 60.8558L96.7981 58.2516ZM95.0129 65.5015C94.6742 67.8721 94.4897 70.0036 94.4897 71.863H102.535C102.535 70.5042 102.672 68.774 102.977 66.6393L95.0129 65.5015ZM94.4897 71.863C94.4897 72.5743 94.5221 73.303 94.5841 74.0474L102.602 73.3793C102.556 72.8365 102.535 72.3316 102.535 71.863H94.4897ZM94.5867 74.0776C94.6633 74.9205 94.819 75.7499 95.0617 76.5588L102.768 74.247C102.688 73.9832 102.63 73.6863 102.599 73.3492L94.5867 74.0776ZM95.1797 76.8969C95.5441 77.8079 96.079 78.7388 96.8747 79.5346L102.564 73.8457C102.64 73.9225 102.678 73.9797 102.688 73.995C102.697 74.0091 102.68 73.9857 102.65 73.9089L95.1797 76.8969ZM96.8747 79.5346C98.1559 80.8158 99.7599 81.1955 101.087 81.1955V73.1502C101.151 73.1502 101.356 73.1583 101.641 73.2589C101.944 73.3656 102.274 73.5556 102.564 73.8457L96.8747 79.5346ZM101.087 81.1955C102.4 81.1955 103.609 80.8106 104.623 80.3425L101.252 73.0377C101.077 73.1185 100.974 73.1501 100.936 73.1598C100.899 73.1695 100.955 73.1502 101.087 73.1502V81.1955ZM104.623 80.3425C105.823 79.7888 106.875 79.0049 107.793 78.0864L102.104 72.3975C101.735 72.7663 101.446 72.9478 101.252 73.0377L104.623 80.3425ZM107.904 77.9704C108.822 76.9765 109.62 75.8059 110.324 74.5256L103.274 70.6485C102.799 71.5135 102.362 72.113 101.993 72.5135L107.904 77.9704ZM110.324 74.5256C111.143 73.0352 111.716 71.3603 112.1 69.5682L104.233 67.8825C103.974 69.0939 103.635 69.9935 103.274 70.6485L110.324 74.5256ZM108.167 72.7479H119.671V64.7027H108.167V72.7479ZM115.731 67.9149L113.398 79.2587L121.278 80.8795L123.612 69.5357L115.731 67.9149ZM145.455 52.5543L141.52 51.7185L140.488 56.577H145.455V52.5543ZM146.018 52.5543V56.577H147.685L148.863 55.3988L146.018 52.5543ZM149.558 49.7385L151.727 53.1266L151.758 53.1064L151.79 53.0855L149.558 49.7385ZM153.581 47.7272L152.154 43.966L152.154 43.966L153.581 47.7272ZM165.729 49.0144L163.228 52.1646L163.257 52.1875L163.286 52.2098L165.729 49.0144ZM168.223 57.3815L172.185 58.0806L172.188 58.0617L172.191 58.0428L168.223 57.3815ZM167.66 60.3582L171.597 61.1869L171.601 61.1671L171.605 61.1471L167.66 60.3582ZM166.936 63.4959L163.034 62.5203L163.015 62.5934L163 62.6672L166.936 63.4959ZM166.373 66.3117L170.305 67.1587L170.317 67.106L170.327 67.0531L166.373 66.3117ZM162.994 82V86.0226H166.242L166.926 82.847L162.994 82ZM146.662 82L142.726 81.1705L141.703 86.0226H146.662V82ZM151.087 61.0019L155.023 61.8313L155.046 61.723L155.063 61.6135L151.087 61.0019ZM151.489 58.9101L155.409 59.8146L155.416 59.7838L155.423 59.753L151.489 58.9101ZM151.087 54.9679L147.791 57.2747L147.925 57.466L148.08 57.6404L151.087 54.9679ZM146.501 55.2093L144.058 52.0139L144.01 52.0499L143.964 52.0872L146.501 55.2093ZM144.49 57.0597L141.5 54.3687L140.78 55.169L140.555 56.222L144.49 57.0597ZM139.18 82V86.0226H142.436L143.114 82.8377L139.18 82ZM122.768 82L118.832 81.1683L117.806 86.0226H122.768V82ZM134.192 27.9358V23.9132H130.93L130.256 27.1042L134.192 27.9358ZM150.685 27.9358L154.62 28.7716L155.652 23.9132H150.685V27.9358ZM145.455 56.577H146.018V48.5317H145.455V56.577ZM148.863 55.3988C149.657 54.6048 150.605 53.8445 151.727 53.1266L147.39 46.3503C145.83 47.3488 144.418 48.4657 143.174 49.7099L148.863 55.3988ZM151.79 53.0855C152.615 52.5355 153.673 51.9944 155.008 51.4883L152.154 43.966C150.378 44.6399 148.755 45.4397 147.327 46.3915L151.79 53.0855ZM155.008 51.4883C156.04 51.0966 157.29 50.8648 158.81 50.8648V42.8196C156.469 42.8196 154.232 43.1778 152.154 43.966L155.008 51.4883ZM158.81 50.8648C160.877 50.8648 162.249 51.3872 163.228 52.1646L168.231 45.8642C165.563 43.7453 162.322 42.8196 158.81 42.8196V50.8648ZM163.286 52.2098C164.031 52.7797 164.442 53.4843 164.442 54.807H172.487C172.487 51.1952 171.075 48.0381 168.173 45.819L163.286 52.2098ZM164.442 54.807C164.442 55.2815 164.39 55.9116 164.255 56.7202L172.191 58.0428C172.378 56.9205 172.487 55.8343 172.487 54.807H164.442ZM164.262 56.6824C164.107 57.5594 163.925 58.5213 163.716 59.5693L171.605 61.1471C171.824 60.0497 172.018 59.0271 172.185 58.0806L164.262 56.6824ZM163.724 59.5295C163.52 60.4965 163.29 61.4934 163.034 62.5203L170.839 64.4715C171.118 63.353 171.371 62.2581 171.597 61.1869L163.724 59.5295ZM163 62.6672C162.78 63.71 162.586 64.6781 162.419 65.5704L170.327 67.0531C170.481 66.229 170.663 65.3199 170.872 64.3246L163 62.6672ZM162.44 65.4647L159.061 81.153L166.926 82.847L170.305 67.1587L162.44 65.4647ZM162.994 77.9774H146.662V86.0226H162.994V77.9774ZM150.598 82.8295L155.023 61.8313L147.151 60.1724L142.726 81.1705L150.598 82.8295ZM155.063 61.6135C155.155 61.0159 155.27 60.4164 155.409 59.8146L147.57 58.0056C147.387 58.7983 147.234 59.5933 147.111 60.3902L155.063 61.6135ZM155.423 59.753C155.626 58.803 155.753 57.842 155.753 56.8988H147.708C147.708 57.1355 147.674 57.5154 147.556 58.0672L155.423 59.753ZM155.753 56.8988C155.753 55.3605 155.327 53.683 154.093 52.2954L148.08 57.6404C147.915 57.4542 147.81 57.2532 147.753 57.0847C147.701 56.9283 147.708 56.8507 147.708 56.8988H155.753ZM154.382 52.6611C153.079 50.7985 151.095 50.1407 149.317 50.1407V58.186C149.28 58.186 149.036 58.1802 148.698 58.0266C148.331 57.8597 148.012 57.5897 147.791 57.2747L154.382 52.6611ZM149.317 50.1407C147.31 50.1407 145.534 50.8849 144.058 52.0139L148.945 58.4047C149.129 58.2638 149.245 58.2124 149.29 58.1958C149.328 58.1817 149.33 58.186 149.317 58.186V50.1407ZM143.964 52.0872C143.02 52.8547 142.175 53.6184 141.5 54.3687L147.48 59.7507C147.77 59.4282 148.266 58.9583 149.038 58.3313L143.964 52.0872ZM140.555 56.222L135.245 81.1623L143.114 82.8377L148.424 57.8973L140.555 56.222ZM139.18 77.9774H122.768V86.0226H139.18V77.9774ZM126.703 82.8317L138.128 28.7675L130.256 27.1042L118.832 81.1683L126.703 82.8317ZM134.192 31.9584H150.685V23.9132H134.192V31.9584ZM146.75 27.1L141.52 51.7185L149.39 53.3902L154.62 28.7716L146.75 27.1ZM209.973 49.8994L207.504 53.0747L207.509 53.0792L207.515 53.0837L209.973 49.8994ZM212.87 70.8171L216.578 72.3748L216.584 72.3618L216.589 72.3487L212.87 70.8171ZM208.123 77.4947L210.714 80.5716L210.737 80.5519L210.76 80.5319L208.123 77.4947ZM176.264 78.8623L178.933 75.8527L178.909 75.8321L178.886 75.8119L176.264 78.8623ZM173.77 57.5424L170.185 55.7164L170.171 55.7435L170.158 55.7707L173.77 57.5424ZM179.964 50.4626L177.722 47.1226L177.69 47.1445L177.658 47.1671L179.964 50.4626ZM194.044 74.9202L190.715 72.6615L190.687 72.7028L190.66 72.7449L194.044 74.9202ZM196.457 69.4494L200.336 70.516L200.339 70.5039L200.342 70.4918L196.457 69.4494ZM197.744 62.6914L193.759 62.1479L193.753 62.1873L193.749 62.2267L197.744 62.6914ZM197.744 53.1979L193.928 54.47L193.981 54.6287L194.047 54.7825L197.744 53.1979ZM192.113 54.3243L188.801 52.0405L188.774 52.0798L188.748 52.1198L192.113 54.3243ZM189.619 59.8755L193.472 61.0314L193.472 61.0314L189.619 59.8755ZM188.171 66.4726L184.188 65.9038L184.182 65.9504L184.176 65.9971L188.171 66.4726ZM196.055 50.543C202.136 50.543 205.671 51.649 207.504 53.0747L212.443 46.7241C208.483 43.6444 202.739 42.4977 196.055 42.4977V50.543ZM207.515 53.0837C209.221 54.4003 210.536 56.8735 210.536 61.6455H218.582C218.582 55.4759 216.84 50.1184 212.431 46.7151L207.515 53.0837ZM210.536 61.6455C210.536 64.5733 210.05 67.1001 209.15 69.2855L216.589 72.3487C217.942 69.0633 218.582 65.4757 218.582 61.6455H210.536ZM209.161 69.2594C208.254 71.4173 207.022 73.1228 205.485 74.4574L210.76 80.5319C213.3 78.3266 215.232 75.5803 216.578 72.3748L209.161 69.2594ZM205.532 74.4177C202.446 77.0164 197.615 78.621 190.423 78.621V86.6663C198.679 86.6663 205.647 84.8382 210.714 80.5716L205.532 74.4177ZM190.423 78.621C184.149 78.621 180.662 77.3861 178.933 75.8527L173.595 81.872C177.551 85.3803 183.504 86.6663 190.423 86.6663V78.621ZM178.886 75.8119C176.97 74.1651 175.7 71.4998 175.7 67.0358H167.655C167.655 73.0843 169.443 78.3033 173.641 81.9128L178.886 75.8119ZM175.7 67.0358C175.7 64.1008 176.283 61.5514 177.381 59.3141L170.158 55.7707C168.467 59.2187 167.655 62.9983 167.655 67.0358H175.7ZM177.354 59.3684C178.495 57.1285 180.115 55.2677 182.271 53.758L177.658 47.1671C174.451 49.4119 171.94 52.271 170.185 55.7164L177.354 59.3684ZM182.206 53.8025C185.225 51.7765 189.704 50.543 196.055 50.543V42.4977C188.783 42.4977 182.535 43.8924 177.722 47.1226L182.206 53.8025ZM190.584 81.1955C193.733 81.1955 195.996 79.3226 197.427 77.0954L190.66 72.7449C190.397 73.154 190.241 73.251 190.26 73.2387C190.274 73.2296 190.32 73.2027 190.395 73.1802C190.47 73.1575 190.538 73.1502 190.584 73.1502V81.1955ZM197.372 77.1789C198.687 75.2408 199.654 72.9937 200.336 70.516L192.579 68.3828C192.08 70.1958 191.438 71.5959 190.715 72.6615L197.372 77.1789ZM200.342 70.4918C200.984 68.0994 201.45 65.6535 201.74 63.156L193.749 62.2267C193.503 64.3419 193.11 66.4013 192.572 68.407L200.342 70.4918ZM201.73 63.2349C202.068 60.7583 202.25 58.5295 202.25 56.577H194.205C194.205 58.0571 194.065 59.9046 193.759 62.1479L201.73 63.2349ZM202.25 56.577C202.25 54.9106 202.089 53.1246 201.442 51.6134L194.047 54.7825C194.026 54.7343 194.076 54.8354 194.124 55.1748C194.171 55.5009 194.205 55.9601 194.205 56.577H202.25ZM201.561 51.9259C201.185 50.7989 200.46 49.6944 199.278 48.9235C198.141 48.1821 196.918 47.9685 195.894 47.9685V56.0138C195.835 56.0138 195.403 56.0014 194.883 55.6623C194.318 55.2936 194.036 54.7925 193.928 54.47L201.561 51.9259ZM195.894 47.9685C192.731 47.9685 190.371 49.7646 188.801 52.0405L195.424 56.6081C195.728 56.1674 195.931 56.0252 195.975 55.9978C195.994 55.9862 195.985 55.9943 195.953 56.0034C195.939 56.0075 195.925 56.0104 195.913 56.0121C195.9 56.0138 195.894 56.0138 195.894 56.0138V47.9685ZM188.748 52.1198C187.478 54.0577 186.499 56.2762 185.766 58.7196L193.472 61.0314C194.026 59.184 194.709 57.7017 195.478 56.5288L188.748 52.1198ZM185.766 58.7196C185.064 61.0602 184.538 63.4556 184.188 65.9038L192.153 67.0415C192.447 64.9843 192.887 62.9816 193.472 61.0314L185.766 58.7196ZM184.176 65.9971C183.899 68.3231 183.746 70.323 183.746 71.9434H191.791C191.791 70.7748 191.906 69.1275 192.165 66.9482L184.176 65.9971ZM183.746 71.9434C183.746 73.9161 183.989 76.0238 184.93 77.7726C185.434 78.7072 186.176 79.611 187.235 80.2663C188.305 80.9286 189.469 81.1955 190.584 81.1955V73.1502C190.76 73.1502 191.104 73.1992 191.47 73.4257C191.824 73.6452 191.98 73.8953 192.014 73.9584C192.037 74 191.97 73.8894 191.904 73.5206C191.839 73.1609 191.791 72.6458 191.791 71.9434H183.746Z" fill="#192494" mask="url(#path-1-outside-1_754_372)"/>
</g>
<g filter="url(#filter1_d_754_372)">
<mask id="path-3-outside-2_754_372" maskUnits="userSpaceOnUse" x="57.3059" y="81.7241" width="244" height="58" fill="black">
<rect fill="white" x="57.3059" y="81.7241" width="244" height="58"/>
<path d="M72.0809 88.7454H102.564L101.406 94.2484H86.5624L83.7385 107.499H96.1202L94.9616 113.074H82.58L77.9459 134.724H62.3059L72.0809 88.7454ZM101.319 106.268C103.781 105.061 106.291 104.192 108.849 103.661C111.456 103.082 114.352 102.792 117.538 102.792C120.627 102.792 123.186 103.034 125.213 103.517C127.241 103.999 128.858 104.699 130.065 105.616C131.271 106.534 132.116 107.62 132.599 108.875C133.081 110.13 133.323 111.554 133.323 113.147C133.323 114.064 133.25 115.053 133.106 116.115C133.009 117.177 132.888 118.07 132.744 118.794L129.34 134.724H117.683L116.38 130.09H115.945C114.4 131.78 112.59 133.083 110.515 134C108.487 134.869 106.46 135.303 104.432 135.303C103.274 135.303 102.139 135.134 101.029 134.797C99.9189 134.459 98.9293 133.952 98.0604 133.276C97.1916 132.552 96.4916 131.659 95.9606 130.597C95.4296 129.487 95.1642 128.159 95.1642 126.614C95.1642 124.104 95.84 122.125 97.1916 120.677C98.5914 119.181 100.402 118.07 102.622 117.346C104.891 116.574 107.425 116.091 110.225 115.898C113.073 115.705 115.921 115.609 118.769 115.609C118.866 115.126 118.986 114.45 119.131 113.581C119.276 112.664 119.348 111.868 119.348 111.192C119.348 110.323 119.107 109.526 118.624 108.802C118.19 108.03 117.248 107.644 115.8 107.644C114.111 107.644 112.856 108.151 112.035 109.164C111.263 110.13 110.756 111.312 110.515 112.712H99.943L101.319 106.268ZM117.972 119.012H116.669C115.269 119.012 114.062 119.205 113.049 119.591C112.083 119.929 111.287 120.387 110.659 120.967C110.08 121.546 109.646 122.198 109.356 122.922C109.066 123.646 108.922 124.37 108.922 125.094C108.922 126.252 109.211 127.121 109.79 127.701C110.418 128.28 111.142 128.569 111.963 128.569C112.976 128.569 113.966 128.207 114.931 127.483C115.945 126.759 116.573 125.794 116.814 124.587L117.972 119.012ZM115.583 99.3169L122.317 88.7454H134.771L121.81 99.3169H115.583ZM168.206 132.986C166.178 133.807 164.03 134.386 161.761 134.724C159.541 135.11 157.007 135.303 154.159 135.303C151.649 135.303 149.331 135.062 147.208 134.579C145.132 134.048 143.322 133.228 141.777 132.117C140.232 131.007 139.025 129.583 138.157 127.845C137.288 126.059 136.853 123.911 136.853 121.401C136.853 118.794 137.288 116.381 138.157 114.16C139.074 111.892 140.425 109.913 142.211 108.223C144.046 106.534 146.363 105.206 149.163 104.241C151.962 103.275 155.293 102.792 159.155 102.792C162.292 102.792 165.02 103.058 167.337 103.589C169.654 104.072 171.561 105.206 173.057 106.992L171.03 116.26H161.182C161.23 115.44 161.279 114.716 161.327 114.088C161.375 113.46 161.399 112.761 161.399 111.988C161.399 110.444 161.23 109.357 160.893 108.73C160.555 108.054 160 107.716 159.227 107.716C157.876 107.716 156.693 108.392 155.679 109.744C154.665 111.047 153.821 112.64 153.145 114.522C152.517 116.357 152.035 118.312 151.697 120.387C151.407 122.415 151.262 124.153 151.262 125.601C151.262 126.132 151.286 126.687 151.335 127.266C151.383 127.797 151.48 128.304 151.624 128.787C151.817 129.269 152.059 129.656 152.348 129.945C152.638 130.235 153.048 130.38 153.579 130.38C154.062 130.38 154.617 130.235 155.245 129.945C155.872 129.656 156.476 129.221 157.055 128.642C157.634 128.014 158.189 127.218 158.72 126.252C159.251 125.287 159.662 124.129 159.951 122.777H170.305L168.206 132.986ZM187.791 134.724H173.092L179.681 103.589H194.525L187.791 134.724ZM196.407 94.1036C196.407 95.2138 196.166 96.1793 195.683 96.9999C195.249 97.8205 194.645 98.5204 193.873 99.0997C193.149 99.6789 192.304 100.113 191.339 100.403C190.373 100.693 189.384 100.837 188.37 100.837C186.439 100.837 184.822 100.379 183.519 99.4617C182.215 98.5446 181.564 97.0964 181.564 95.1173C181.564 94.0553 181.781 93.114 182.215 92.2934C182.65 91.4245 183.229 90.7246 183.953 90.1936C184.725 89.6143 185.594 89.1799 186.56 88.8902C187.574 88.6006 188.611 88.4558 189.673 88.4558C191.556 88.4558 193.149 88.9144 194.452 89.8315C195.756 90.7487 196.407 92.1727 196.407 94.1036ZM209.076 134.724H194.305L204.587 86.0664H219.43L209.076 134.724ZM225.225 130.83C225.225 131.509 225.077 132.113 224.782 132.644C224.517 133.175 224.148 133.618 223.676 133.972C223.234 134.326 222.717 134.591 222.127 134.768C221.537 134.975 220.918 135.078 220.269 135.078C219.148 135.078 218.189 134.783 217.393 134.193C216.626 133.574 216.242 132.615 216.242 131.317C216.242 130.638 216.375 130.034 216.641 129.503C216.906 128.972 217.26 128.529 217.703 128.175C218.145 127.821 218.647 127.556 219.207 127.379C219.797 127.172 220.402 127.069 221.021 127.069C222.231 127.069 223.234 127.379 224.03 127.998C224.827 128.588 225.225 129.532 225.225 130.83ZM235.111 134.724H227.942L234.226 104.989H243.297L240.421 118.529H240.73C241.704 117.408 242.795 116.612 244.005 116.14C245.244 115.638 246.468 115.387 247.677 115.387C248.71 115.387 249.565 115.55 250.244 115.874C250.952 116.169 251.512 116.582 251.925 117.113C252.338 117.644 252.633 118.278 252.81 119.016C252.987 119.753 253.076 120.535 253.076 121.361C253.076 121.774 253.046 122.393 252.987 123.219C252.928 124.045 252.796 124.975 252.589 126.007C252.383 127.01 252.088 128.057 251.704 129.149C251.321 130.211 250.804 131.184 250.155 132.069C249.536 132.954 248.739 133.677 247.766 134.237C246.822 134.798 245.686 135.078 244.359 135.078C243.562 135.078 242.781 134.99 242.014 134.813C241.276 134.636 240.598 134.4 239.978 134.105C239.388 133.81 238.857 133.47 238.385 133.087C237.943 132.674 237.618 132.261 237.412 131.848H237.102L235.111 134.724ZM240.111 130.786C240.819 130.786 241.409 130.417 241.881 129.68C242.353 128.913 242.736 128.028 243.031 127.025C243.326 125.992 243.533 124.975 243.651 123.972C243.798 122.939 243.872 122.172 243.872 121.671C243.872 121.081 243.769 120.594 243.562 120.21C243.385 119.827 243.046 119.635 242.545 119.635C241.955 119.635 241.409 119.856 240.907 120.299C240.406 120.712 240.037 121.066 239.801 121.361L238.075 129.281C238.282 129.635 238.547 129.975 238.872 130.299C239.226 130.624 239.639 130.786 240.111 130.786ZM263.915 125.83C263.797 126.479 263.709 127.099 263.65 127.689C263.62 128.279 263.605 128.81 263.605 129.281C263.605 129.547 263.62 129.842 263.65 130.166C263.679 130.491 263.738 130.801 263.827 131.096C263.945 131.361 264.092 131.597 264.269 131.804C264.476 131.981 264.756 132.069 265.11 132.069C265.375 132.069 265.67 131.981 265.995 131.804C266.349 131.627 266.688 131.376 267.012 131.051C267.366 130.727 267.691 130.329 267.986 129.857C268.31 129.385 268.561 128.854 268.738 128.264H275.995L274.845 132.998C274.255 133.382 273.576 133.706 272.809 133.972C272.042 134.237 271.231 134.459 270.375 134.636C269.52 134.783 268.65 134.886 267.765 134.945C266.88 135.034 266.039 135.078 265.242 135.078C263.768 135.078 262.396 134.945 261.127 134.68C259.859 134.414 258.753 133.957 257.809 133.308C256.865 132.659 256.112 131.804 255.552 130.742C255.021 129.65 254.755 128.308 254.755 126.715C254.755 125.27 254.977 123.854 255.419 122.467C255.891 121.081 256.658 119.856 257.72 118.794C258.812 117.703 260.257 116.833 262.057 116.184C263.886 115.535 266.157 115.21 268.871 115.21C271.821 115.21 274.033 115.668 275.508 116.582C277.013 117.497 277.765 118.927 277.765 120.874C277.765 121.671 277.647 122.541 277.411 123.485C277.175 124.399 276.821 125.181 276.349 125.83H263.915ZM269.8 120.564C269.8 119.65 269.653 119.03 269.358 118.706C269.063 118.382 268.709 118.219 268.296 118.219C267.824 118.219 267.381 118.382 266.968 118.706C266.585 119.001 266.231 119.414 265.906 119.945C265.582 120.446 265.287 121.036 265.021 121.715C264.756 122.364 264.535 123.057 264.358 123.795H269.402C269.461 123.441 269.52 123.072 269.579 122.688C269.638 122.364 269.682 122.01 269.712 121.626C269.771 121.243 269.8 120.889 269.8 120.564ZM280.287 115.697C281.378 115.461 282.337 115.196 283.163 114.901C283.989 114.606 284.741 114.237 285.42 113.794C286.128 113.352 286.791 112.806 287.411 112.157C288.06 111.508 288.753 110.712 289.491 109.768H294.048L292.765 115.697H296.216L295.641 118.662H292.146L290.331 127.29C290.184 127.969 290.066 128.574 289.977 129.105C289.889 129.635 289.845 130.048 289.845 130.343C289.845 130.933 290.051 131.302 290.464 131.45C290.907 131.597 291.718 131.671 292.898 131.671L292.234 134.724C292.028 134.783 291.703 134.827 291.261 134.857C290.848 134.886 290.376 134.916 289.845 134.945C289.343 135.004 288.812 135.034 288.252 135.034C287.721 135.063 287.249 135.078 286.836 135.078C286.098 135.078 285.375 135.019 284.667 134.901C283.959 134.813 283.325 134.621 282.765 134.326C282.204 134.001 281.747 133.544 281.393 132.954C281.069 132.364 280.906 131.568 280.906 130.565C280.906 130.211 280.921 129.768 280.951 129.237C281.01 128.706 281.113 128.116 281.26 127.467L283.119 118.662H279.667L280.287 115.697Z"/>
</mask>
<path d="M72.0809 88.7454H102.564L101.406 94.2484H86.5624L83.7385 107.499H96.1202L94.9616 113.074H82.58L77.9459 134.724H62.3059L72.0809 88.7454ZM101.319 106.268C103.781 105.061 106.291 104.192 108.849 103.661C111.456 103.082 114.352 102.792 117.538 102.792C120.627 102.792 123.186 103.034 125.213 103.517C127.241 103.999 128.858 104.699 130.065 105.616C131.271 106.534 132.116 107.62 132.599 108.875C133.081 110.13 133.323 111.554 133.323 113.147C133.323 114.064 133.25 115.053 133.106 116.115C133.009 117.177 132.888 118.07 132.744 118.794L129.34 134.724H117.683L116.38 130.09H115.945C114.4 131.78 112.59 133.083 110.515 134C108.487 134.869 106.46 135.303 104.432 135.303C103.274 135.303 102.139 135.134 101.029 134.797C99.9189 134.459 98.9293 133.952 98.0604 133.276C97.1916 132.552 96.4916 131.659 95.9606 130.597C95.4296 129.487 95.1642 128.159 95.1642 126.614C95.1642 124.104 95.84 122.125 97.1916 120.677C98.5914 119.181 100.402 118.07 102.622 117.346C104.891 116.574 107.425 116.091 110.225 115.898C113.073 115.705 115.921 115.609 118.769 115.609C118.866 115.126 118.986 114.45 119.131 113.581C119.276 112.664 119.348 111.868 119.348 111.192C119.348 110.323 119.107 109.526 118.624 108.802C118.19 108.03 117.248 107.644 115.8 107.644C114.111 107.644 112.856 108.151 112.035 109.164C111.263 110.13 110.756 111.312 110.515 112.712H99.943L101.319 106.268ZM117.972 119.012H116.669C115.269 119.012 114.062 119.205 113.049 119.591C112.083 119.929 111.287 120.387 110.659 120.967C110.08 121.546 109.646 122.198 109.356 122.922C109.066 123.646 108.922 124.37 108.922 125.094C108.922 126.252 109.211 127.121 109.79 127.701C110.418 128.28 111.142 128.569 111.963 128.569C112.976 128.569 113.966 128.207 114.931 127.483C115.945 126.759 116.573 125.794 116.814 124.587L117.972 119.012ZM115.583 99.3169L122.317 88.7454H134.771L121.81 99.3169H115.583ZM168.206 132.986C166.178 133.807 164.03 134.386 161.761 134.724C159.541 135.11 157.007 135.303 154.159 135.303C151.649 135.303 149.331 135.062 147.208 134.579C145.132 134.048 143.322 133.228 141.777 132.117C140.232 131.007 139.025 129.583 138.157 127.845C137.288 126.059 136.853 123.911 136.853 121.401C136.853 118.794 137.288 116.381 138.157 114.16C139.074 111.892 140.425 109.913 142.211 108.223C144.046 106.534 146.363 105.206 149.163 104.241C151.962 103.275 155.293 102.792 159.155 102.792C162.292 102.792 165.02 103.058 167.337 103.589C169.654 104.072 171.561 105.206 173.057 106.992L171.03 116.26H161.182C161.23 115.44 161.279 114.716 161.327 114.088C161.375 113.46 161.399 112.761 161.399 111.988C161.399 110.444 161.23 109.357 160.893 108.73C160.555 108.054 160 107.716 159.227 107.716C157.876 107.716 156.693 108.392 155.679 109.744C154.665 111.047 153.821 112.64 153.145 114.522C152.517 116.357 152.035 118.312 151.697 120.387C151.407 122.415 151.262 124.153 151.262 125.601C151.262 126.132 151.286 126.687 151.335 127.266C151.383 127.797 151.48 128.304 151.624 128.787C151.817 129.269 152.059 129.656 152.348 129.945C152.638 130.235 153.048 130.38 153.579 130.38C154.062 130.38 154.617 130.235 155.245 129.945C155.872 129.656 156.476 129.221 157.055 128.642C157.634 128.014 158.189 127.218 158.72 126.252C159.251 125.287 159.662 124.129 159.951 122.777H170.305L168.206 132.986ZM187.791 134.724H173.092L179.681 103.589H194.525L187.791 134.724ZM196.407 94.1036C196.407 95.2138 196.166 96.1793 195.683 96.9999C195.249 97.8205 194.645 98.5204 193.873 99.0997C193.149 99.6789 192.304 100.113 191.339 100.403C190.373 100.693 189.384 100.837 188.37 100.837C186.439 100.837 184.822 100.379 183.519 99.4617C182.215 98.5446 181.564 97.0964 181.564 95.1173C181.564 94.0553 181.781 93.114 182.215 92.2934C182.65 91.4245 183.229 90.7246 183.953 90.1936C184.725 89.6143 185.594 89.1799 186.56 88.8902C187.574 88.6006 188.611 88.4558 189.673 88.4558C191.556 88.4558 193.149 88.9144 194.452 89.8315C195.756 90.7487 196.407 92.1727 196.407 94.1036ZM209.076 134.724H194.305L204.587 86.0664H219.43L209.076 134.724ZM225.225 130.83C225.225 131.509 225.077 132.113 224.782 132.644C224.517 133.175 224.148 133.618 223.676 133.972C223.234 134.326 222.717 134.591 222.127 134.768C221.537 134.975 220.918 135.078 220.269 135.078C219.148 135.078 218.189 134.783 217.393 134.193C216.626 133.574 216.242 132.615 216.242 131.317C216.242 130.638 216.375 130.034 216.641 129.503C216.906 128.972 217.26 128.529 217.703 128.175C218.145 127.821 218.647 127.556 219.207 127.379C219.797 127.172 220.402 127.069 221.021 127.069C222.231 127.069 223.234 127.379 224.03 127.998C224.827 128.588 225.225 129.532 225.225 130.83ZM235.111 134.724H227.942L234.226 104.989H243.297L240.421 118.529H240.73C241.704 117.408 242.795 116.612 244.005 116.14C245.244 115.638 246.468 115.387 247.677 115.387C248.71 115.387 249.565 115.55 250.244 115.874C250.952 116.169 251.512 116.582 251.925 117.113C252.338 117.644 252.633 118.278 252.81 119.016C252.987 119.753 253.076 120.535 253.076 121.361C253.076 121.774 253.046 122.393 252.987 123.219C252.928 124.045 252.796 124.975 252.589 126.007C252.383 127.01 252.088 128.057 251.704 129.149C251.321 130.211 250.804 131.184 250.155 132.069C249.536 132.954 248.739 133.677 247.766 134.237C246.822 134.798 245.686 135.078 244.359 135.078C243.562 135.078 242.781 134.99 242.014 134.813C241.276 134.636 240.598 134.4 239.978 134.105C239.388 133.81 238.857 133.47 238.385 133.087C237.943 132.674 237.618 132.261 237.412 131.848H237.102L235.111 134.724ZM240.111 130.786C240.819 130.786 241.409 130.417 241.881 129.68C242.353 128.913 242.736 128.028 243.031 127.025C243.326 125.992 243.533 124.975 243.651 123.972C243.798 122.939 243.872 122.172 243.872 121.671C243.872 121.081 243.769 120.594 243.562 120.21C243.385 119.827 243.046 119.635 242.545 119.635C241.955 119.635 241.409 119.856 240.907 120.299C240.406 120.712 240.037 121.066 239.801 121.361L238.075 129.281C238.282 129.635 238.547 129.975 238.872 130.299C239.226 130.624 239.639 130.786 240.111 130.786ZM263.915 125.83C263.797 126.479 263.709 127.099 263.65 127.689C263.62 128.279 263.605 128.81 263.605 129.281C263.605 129.547 263.62 129.842 263.65 130.166C263.679 130.491 263.738 130.801 263.827 131.096C263.945 131.361 264.092 131.597 264.269 131.804C264.476 131.981 264.756 132.069 265.11 132.069C265.375 132.069 265.67 131.981 265.995 131.804C266.349 131.627 266.688 131.376 267.012 131.051C267.366 130.727 267.691 130.329 267.986 129.857C268.31 129.385 268.561 128.854 268.738 128.264H275.995L274.845 132.998C274.255 133.382 273.576 133.706 272.809 133.972C272.042 134.237 271.231 134.459 270.375 134.636C269.52 134.783 268.65 134.886 267.765 134.945C266.88 135.034 266.039 135.078 265.242 135.078C263.768 135.078 262.396 134.945 261.127 134.68C259.859 134.414 258.753 133.957 257.809 133.308C256.865 132.659 256.112 131.804 255.552 130.742C255.021 129.65 254.755 128.308 254.755 126.715C254.755 125.27 254.977 123.854 255.419 122.467C255.891 121.081 256.658 119.856 257.72 118.794C258.812 117.703 260.257 116.833 262.057 116.184C263.886 115.535 266.157 115.21 268.871 115.21C271.821 115.21 274.033 115.668 275.508 116.582C277.013 117.497 277.765 118.927 277.765 120.874C277.765 121.671 277.647 122.541 277.411 123.485C277.175 124.399 276.821 125.181 276.349 125.83H263.915ZM269.8 120.564C269.8 119.65 269.653 119.03 269.358 118.706C269.063 118.382 268.709 118.219 268.296 118.219C267.824 118.219 267.381 118.382 266.968 118.706C266.585 119.001 266.231 119.414 265.906 119.945C265.582 120.446 265.287 121.036 265.021 121.715C264.756 122.364 264.535 123.057 264.358 123.795H269.402C269.461 123.441 269.52 123.072 269.579 122.688C269.638 122.364 269.682 122.01 269.712 121.626C269.771 121.243 269.8 120.889 269.8 120.564ZM280.287 115.697C281.378 115.461 282.337 115.196 283.163 114.901C283.989 114.606 284.741 114.237 285.42 113.794C286.128 113.352 286.791 112.806 287.411 112.157C288.06 111.508 288.753 110.712 289.491 109.768H294.048L292.765 115.697H296.216L295.641 118.662H292.146L290.331 127.29C290.184 127.969 290.066 128.574 289.977 129.105C289.889 129.635 289.845 130.048 289.845 130.343C289.845 130.933 290.051 131.302 290.464 131.45C290.907 131.597 291.718 131.671 292.898 131.671L292.234 134.724C292.028 134.783 291.703 134.827 291.261 134.857C290.848 134.886 290.376 134.916 289.845 134.945C289.343 135.004 288.812 135.034 288.252 135.034C287.721 135.063 287.249 135.078 286.836 135.078C286.098 135.078 285.375 135.019 284.667 134.901C283.959 134.813 283.325 134.621 282.765 134.326C282.204 134.001 281.747 133.544 281.393 132.954C281.069 132.364 280.906 131.568 280.906 130.565C280.906 130.211 280.921 129.768 280.951 129.237C281.01 128.706 281.113 128.116 281.26 127.467L283.119 118.662H279.667L280.287 115.697Z" fill="white"/>
<path d="M72.0809 88.7454V84.7228H68.8236L68.1462 87.9089L72.0809 88.7454ZM102.564 88.7454L106.501 89.5741L107.522 84.7228H102.564V88.7454ZM101.406 94.2484V98.271H104.67L105.342 95.0771L101.406 94.2484ZM86.5624 94.2484V90.2258H83.3067L82.6281 93.4099L86.5624 94.2484ZM83.7385 107.499L79.8042 106.66L78.7682 111.522H83.7385V107.499ZM96.1202 107.499L100.059 108.317L101.065 103.476H96.1202V107.499ZM94.9616 113.074V117.097H98.2343L98.9001 113.893L94.9616 113.074ZM82.58 113.074V109.052H79.3273L78.6464 112.232L82.58 113.074ZM77.9459 134.724V138.747H81.1986L81.8794 135.566L77.9459 134.724ZM62.3059 134.724L58.3712 133.888L57.3382 138.747H62.3059V134.724ZM72.0809 92.7681H102.564V84.7228H72.0809V92.7681ZM98.6281 87.9167L97.4696 93.4197L105.342 95.0771L106.501 89.5741L98.6281 87.9167ZM101.406 90.2258H86.5624V98.271H101.406V90.2258ZM82.6281 93.4099L79.8042 106.66L87.6728 108.337L90.4967 95.0868L82.6281 93.4099ZM83.7385 111.522H96.1202V103.476H83.7385V111.522ZM92.1817 106.681L91.0231 112.256L98.9001 113.893L100.059 108.317L92.1817 106.681ZM94.9616 109.052H82.58V117.097H94.9616V109.052ZM78.6464 112.232L74.0124 133.882L81.8794 135.566L86.5135 113.916L78.6464 112.232ZM77.9459 130.701H62.3059V138.747H77.9459V130.701ZM66.2406 135.561L76.0156 89.5819L68.1462 87.9089L58.3712 133.888L66.2406 135.561ZM101.319 106.268L99.5482 102.656L97.7929 103.516L97.3848 105.428L101.319 106.268ZM108.849 103.661L109.667 107.6L109.694 107.594L109.722 107.588L108.849 103.661ZM125.213 103.517L124.281 107.43L124.281 107.43L125.213 103.517ZM130.065 105.616L127.63 108.819L127.63 108.819L130.065 105.616ZM133.106 116.115L129.12 115.572L129.108 115.661L129.1 115.751L133.106 116.115ZM132.744 118.794L136.677 119.635L136.683 119.609L136.688 119.583L132.744 118.794ZM129.34 134.724V138.747H132.594L133.274 135.565L129.34 134.724ZM117.683 134.724L113.81 135.813L114.636 138.747H117.683V134.724ZM116.38 130.09L120.252 129.001L119.427 126.067H116.38V130.09ZM115.945 130.09V126.067H114.172L112.976 127.376L115.945 130.09ZM110.515 134L112.099 137.697L112.12 137.689L112.14 137.679L110.515 134ZM101.029 134.797L102.2 130.948L101.029 134.797ZM98.0604 133.276L95.4852 136.366L95.5373 136.41L95.5908 136.451L98.0604 133.276ZM95.9606 130.597L92.3317 132.332L92.3469 132.364L92.3627 132.396L95.9606 130.597ZM97.1916 120.677L94.2539 117.929L94.2508 117.932L97.1916 120.677ZM102.622 117.346L103.869 121.171L103.894 121.163L103.918 121.154L102.622 117.346ZM110.225 115.898L109.953 111.885L109.948 111.885L110.225 115.898ZM118.769 115.609V119.631H122.067L122.713 116.397L118.769 115.609ZM119.131 113.581L123.099 114.242L123.102 114.226L123.104 114.209L119.131 113.581ZM118.624 108.802L115.118 110.774L115.193 110.907L115.277 111.034L118.624 108.802ZM112.035 109.164L108.909 106.633L108.901 106.642L108.894 106.651L112.035 109.164ZM110.515 112.712V116.735H113.903L114.479 113.396L110.515 112.712ZM99.943 112.712L96.0091 111.872L94.971 116.735H99.943V112.712ZM117.972 119.012L121.911 119.83L122.917 114.989H117.972V119.012ZM113.049 119.591L114.378 123.388L114.429 123.37L114.481 123.35L113.049 119.591ZM110.659 120.967L107.931 118.011L107.872 118.065L107.815 118.122L110.659 120.967ZM109.356 122.922L113.091 124.416L113.091 124.416L109.356 122.922ZM109.79 127.701L106.946 130.545L107.003 130.602L107.062 130.656L109.79 127.701ZM114.931 127.483L112.593 124.21L112.555 124.237L112.518 124.265L114.931 127.483ZM116.814 124.587L112.875 123.769L112.872 123.783L112.869 123.798L116.814 124.587ZM115.583 99.3169L112.19 97.1558L108.251 103.34H115.583V99.3169ZM122.317 88.7454V84.7228H120.11L118.924 86.5843L122.317 88.7454ZM134.771 88.7454L137.314 91.8626L146.067 84.7228H134.771V88.7454ZM121.81 99.3169V103.34H123.243L124.353 102.434L121.81 99.3169ZM103.089 109.88C105.263 108.814 107.454 108.059 109.667 107.6L108.032 99.7227C105.127 100.325 102.298 101.308 99.5482 102.656L103.089 109.88ZM109.722 107.588C111.993 107.083 114.591 106.815 117.538 106.815V98.7698C114.113 98.7698 110.918 99.0808 107.977 99.7345L109.722 107.588ZM117.538 106.815C120.449 106.815 122.668 107.045 124.281 107.43L126.145 99.6033C123.704 99.0221 120.806 98.7698 117.538 98.7698V106.815ZM124.281 107.43C125.956 107.828 127.003 108.342 127.63 108.819L132.499 102.414C130.712 101.056 128.525 100.17 126.145 99.6033L124.281 107.43ZM127.63 108.819C128.32 109.343 128.663 109.847 128.844 110.319L136.353 107.431C135.569 105.392 134.223 103.724 132.499 102.414L127.63 108.819ZM128.844 110.319C129.12 111.036 129.3 111.958 129.3 113.147H137.345C137.345 111.149 137.043 109.223 136.353 107.431L128.844 110.319ZM129.3 113.147C129.3 113.855 129.244 114.661 129.12 115.572L137.091 116.659C137.257 115.446 137.345 114.273 137.345 113.147H129.3ZM129.1 115.751C129.011 116.727 128.907 117.468 128.799 118.006L136.688 119.583C136.87 118.672 137.007 117.628 137.112 116.48L129.1 115.751ZM128.81 117.954L125.407 133.884L133.274 135.565L136.677 119.635L128.81 117.954ZM129.34 130.701H117.683V138.747H129.34V130.701ZM121.555 133.635L120.252 129.001L112.507 131.179L113.81 135.813L121.555 133.635ZM116.38 126.067H115.945V134.113H116.38V126.067ZM112.976 127.376C111.804 128.658 110.45 129.631 108.889 130.321L112.14 137.679C114.73 136.535 116.997 134.901 118.914 132.804L112.976 127.376ZM108.93 130.303C107.359 130.976 105.869 131.281 104.432 131.281V139.326C107.051 139.326 109.615 138.762 112.099 137.697L108.93 130.303ZM104.432 131.281C103.671 131.281 102.932 131.171 102.2 130.948L99.8579 138.645C101.347 139.098 102.876 139.326 104.432 139.326V131.281ZM102.2 130.948C101.535 130.746 100.99 130.459 100.53 130.101L95.5908 136.451C96.8685 137.445 98.3032 138.172 99.8579 138.645L102.2 130.948ZM100.636 130.186C100.214 129.835 99.854 129.389 99.5586 128.798L92.3627 132.396C93.1293 133.929 94.1689 135.269 95.4852 136.366L100.636 130.186ZM99.5896 128.861C99.3752 128.413 99.1868 127.708 99.1868 126.614H91.1415C91.1415 128.611 91.4841 130.56 92.3317 132.332L99.5896 128.861ZM99.1868 126.614C99.1868 124.84 99.6477 123.941 100.132 123.422L94.2508 117.932C92.0322 120.309 91.1415 123.369 91.1415 126.614H99.1868ZM100.129 123.425C101.004 122.49 102.203 121.714 103.869 121.171L101.375 113.522C98.6006 114.427 96.179 115.871 94.2539 117.929L100.129 123.425ZM103.918 121.154C105.807 120.511 107.992 120.084 110.502 119.911L109.948 111.885C106.859 112.098 103.975 112.637 101.326 113.538L103.918 121.154ZM110.497 119.912C113.255 119.725 116.012 119.631 118.769 119.631V111.586C115.83 111.586 112.891 111.686 109.953 111.885L110.497 119.912ZM122.713 116.397C122.823 115.852 122.952 115.126 123.099 114.242L115.163 112.92C115.021 113.774 114.908 114.4 114.824 114.82L122.713 116.397ZM123.104 114.209C123.271 113.155 123.371 112.139 123.371 111.192H115.326C115.326 111.596 115.281 112.173 115.158 112.954L123.104 114.209ZM123.371 111.192C123.371 109.527 122.894 107.955 121.971 106.571L115.277 111.034C115.31 111.082 115.316 111.106 115.317 111.109C115.319 111.113 115.326 111.135 115.326 111.192H123.371ZM122.13 106.83C120.609 104.127 117.732 103.621 115.8 103.621V111.666C116.205 111.666 116.238 111.726 116.066 111.655C115.965 111.614 115.798 111.529 115.612 111.372C115.421 111.211 115.249 111.008 115.118 110.774L122.13 106.83ZM115.8 103.621C113.284 103.621 110.707 104.411 108.909 106.633L115.162 111.695C115.152 111.707 115.133 111.727 115.109 111.744C115.086 111.761 115.078 111.762 115.098 111.754C115.144 111.735 115.348 111.666 115.8 111.666V103.621ZM108.894 106.651C107.638 108.222 106.89 110.06 106.55 112.029L114.479 113.396C114.622 112.565 114.888 112.038 115.176 111.677L108.894 106.651ZM110.515 108.69H99.943V116.735H110.515V108.69ZM103.877 113.552L105.253 107.108L97.3848 105.428L96.0091 111.872L103.877 113.552ZM117.972 114.989H116.669V123.034H117.972V114.989ZM116.669 114.989C114.915 114.989 113.199 115.229 111.617 115.832L114.481 123.35C114.926 123.181 115.623 123.034 116.669 123.034V114.989ZM111.72 115.794C110.336 116.279 109.034 116.992 107.931 118.011L113.388 123.923C113.54 123.782 113.831 123.579 114.378 123.388L111.72 115.794ZM107.815 118.122C106.87 119.067 106.123 120.173 105.621 121.428L113.091 124.416C113.168 124.223 113.29 124.025 113.504 123.811L107.815 118.122ZM105.621 121.428C105.156 122.59 104.899 123.82 104.899 125.094H112.944C112.944 124.92 112.977 124.701 113.091 124.416L105.621 121.428ZM104.899 125.094C104.899 126.873 105.346 128.945 106.946 130.545L112.635 124.856C112.73 124.951 112.804 125.05 112.86 125.142C112.914 125.233 112.942 125.304 112.955 125.342C112.978 125.41 112.944 125.35 112.944 125.094H104.899ZM107.062 130.656C108.399 131.891 110.086 132.592 111.963 132.592V124.547C112.037 124.547 112.16 124.562 112.298 124.617C112.433 124.671 112.506 124.733 112.519 124.745L107.062 130.656ZM111.963 132.592C114.003 132.592 115.82 131.845 117.345 130.701L112.518 124.265C112.305 124.425 112.159 124.492 112.083 124.52C112.013 124.546 111.98 124.547 111.963 124.547V132.592ZM117.269 130.757C119.103 129.447 120.314 127.598 120.758 125.376L112.869 123.798C112.831 123.989 112.787 124.072 112.593 124.21L117.269 130.757ZM120.752 125.405L121.911 119.83L114.034 118.193L112.875 123.769L120.752 125.405ZM118.976 101.478L125.71 90.9066L118.924 86.5843L112.19 97.1558L118.976 101.478ZM122.317 92.7681H134.771V84.7228H122.317V92.7681ZM132.228 85.6282L119.268 96.1997L124.353 102.434L137.314 91.8626L132.228 85.6282ZM121.81 95.2943H115.583V103.34H121.81V95.2943ZM168.206 132.986L169.715 136.715L171.712 135.907L172.146 133.797L168.206 132.986ZM161.761 134.724L161.169 130.745L161.12 130.753L161.072 130.761L161.761 134.724ZM147.208 134.579L146.211 138.476L146.263 138.49L146.316 138.502L147.208 134.579ZM141.777 132.117L139.429 135.384L139.429 135.384L141.777 132.117ZM138.157 127.845L134.539 129.605L134.549 129.625L134.559 129.644L138.157 127.845ZM138.157 114.16L134.427 112.653L134.419 112.674L134.411 112.695L138.157 114.16ZM142.211 108.223L139.486 105.264L139.467 105.282L139.447 105.301L142.211 108.223ZM149.163 104.241L147.851 100.438L147.851 100.438L149.163 104.241ZM167.337 103.589L166.438 107.51L166.477 107.519L166.516 107.527L167.337 103.589ZM173.057 106.992L176.987 107.852L177.409 105.922L176.14 104.409L173.057 106.992ZM171.03 116.26V120.283H174.267L174.959 117.12L171.03 116.26ZM161.182 116.26L157.166 116.024L156.916 120.283H161.182V116.26ZM161.327 114.088L157.316 113.779L157.316 113.779L161.327 114.088ZM160.893 108.73L157.295 110.529L157.322 110.583L157.351 110.637L160.893 108.73ZM155.679 109.744L158.854 112.213L158.876 112.185L158.897 112.157L155.679 109.744ZM153.145 114.522L149.359 113.163L149.349 113.192L149.339 113.22L153.145 114.522ZM151.697 120.387L147.726 119.741L147.72 119.78L147.715 119.819L151.697 120.387ZM151.335 127.266L147.326 127.6L147.327 127.615L147.329 127.63L151.335 127.266ZM151.624 128.787L147.771 129.943L147.823 130.114L147.889 130.281L151.624 128.787ZM152.348 129.945L149.504 132.79L149.504 132.79L152.348 129.945ZM155.245 129.945L156.93 133.598L156.93 133.598L155.245 129.945ZM157.055 128.642L159.899 131.486L159.956 131.429L160.011 131.37L157.055 128.642ZM158.72 126.252L162.245 128.191L162.245 128.191L158.72 126.252ZM159.951 122.777V118.754H156.699L156.018 121.934L159.951 122.777ZM170.305 122.777L174.246 123.587L175.24 118.754H170.305V122.777ZM166.696 129.258C164.978 129.953 163.139 130.452 161.169 130.745L162.354 138.703C164.922 138.32 167.379 137.661 169.715 136.715L166.696 129.258ZM161.072 130.761C159.13 131.099 156.833 131.281 154.159 131.281V139.326C157.18 139.326 159.952 139.122 162.451 138.687L161.072 130.761ZM154.159 131.281C151.904 131.281 149.89 131.064 148.099 130.657L146.316 138.502C148.773 139.06 151.393 139.326 154.159 139.326V131.281ZM148.204 130.682C146.553 130.26 145.214 129.634 144.125 128.851L139.429 135.384C141.429 136.821 143.71 137.837 146.211 138.476L148.204 130.682ZM144.125 128.851C143.121 128.13 142.338 127.214 141.755 126.046L134.559 129.644C135.713 131.952 137.343 133.885 139.429 135.384L144.125 128.851ZM141.774 126.086C141.233 124.973 140.876 123.458 140.876 121.401H132.831C132.831 124.365 133.343 127.146 134.539 129.605L141.774 126.086ZM140.876 121.401C140.876 119.249 141.233 117.338 141.903 115.626L134.411 112.695C133.343 115.424 132.831 118.34 132.831 121.401H140.876ZM141.886 115.668C142.586 113.937 143.607 112.44 144.976 111.145L139.447 105.301C137.244 107.385 135.562 109.846 134.427 112.653L141.886 115.668ZM144.937 111.182C146.294 109.932 148.102 108.861 150.474 108.043L147.851 100.438C144.624 101.551 141.798 103.135 139.486 105.264L144.937 111.182ZM150.474 108.043C152.746 107.26 155.611 106.815 159.155 106.815V98.7698C154.975 98.7698 151.179 99.2902 147.851 100.438L150.474 108.043ZM159.155 106.815C162.08 106.815 164.492 107.064 166.438 107.51L168.235 99.668C165.547 99.0519 162.505 98.7698 159.155 98.7698V106.815ZM166.516 107.527C167.963 107.828 169.068 108.494 169.974 109.576L176.14 104.409C174.053 101.918 171.344 100.315 168.157 99.6509L166.516 107.527ZM169.127 106.132L167.1 115.401L174.959 117.12L176.987 107.852L169.127 106.132ZM171.03 112.238H161.182V120.283H171.03V112.238ZM165.198 116.496C165.245 115.693 165.292 114.994 165.338 114.397L157.316 113.779C157.266 114.437 157.216 115.186 157.166 116.024L165.198 116.496ZM165.338 114.397C165.395 113.646 165.422 112.841 165.422 111.988H157.377C157.377 112.68 157.355 113.275 157.316 113.779L165.338 114.397ZM165.422 111.988C165.422 110.384 165.286 108.404 164.434 106.823L157.351 110.637C157.276 110.498 157.253 110.415 157.257 110.427C157.26 110.437 157.277 110.5 157.298 110.633C157.341 110.908 157.377 111.347 157.377 111.988H165.422ZM164.49 106.931C164.039 106.029 163.337 105.156 162.314 104.533C161.297 103.914 160.211 103.694 159.227 103.694V111.739C159.016 111.739 158.594 111.687 158.131 111.406C157.663 111.121 157.408 110.755 157.295 110.529L164.49 106.931ZM159.227 103.694C156.295 103.694 154.024 105.246 152.461 107.33L158.897 112.157C159.152 111.818 159.308 111.724 159.322 111.716C159.328 111.712 159.313 111.721 159.282 111.73C159.267 111.733 159.254 111.736 159.243 111.737C159.232 111.739 159.226 111.739 159.227 111.739V103.694ZM152.504 107.274C151.181 108.975 150.149 110.962 149.359 113.163L156.931 115.882C157.493 114.317 158.15 113.119 158.854 112.213L152.504 107.274ZM149.339 113.22C148.632 115.285 148.098 117.461 147.726 119.741L155.667 121.034C155.972 119.162 156.402 117.428 156.951 115.825L149.339 113.22ZM147.715 119.819C147.408 121.964 147.24 123.902 147.24 125.601H155.285C155.285 124.403 155.406 122.866 155.679 120.956L147.715 119.819ZM147.24 125.601C147.24 126.253 147.269 126.92 147.326 127.6L155.343 126.932C155.304 126.454 155.285 126.01 155.285 125.601H147.24ZM147.329 127.63C147.4 128.414 147.545 129.187 147.771 129.943L155.477 127.631C155.414 127.421 155.366 127.18 155.341 126.902L147.329 127.63ZM147.889 130.281C148.232 131.138 148.741 132.026 149.504 132.79L155.193 127.101C155.377 127.285 155.403 127.401 155.359 127.293L147.889 130.281ZM149.504 132.79C150.753 134.039 152.311 134.402 153.579 134.402V126.357C153.673 126.357 153.904 126.369 154.212 126.478C154.537 126.593 154.887 126.795 155.193 127.101L149.504 132.79ZM153.579 134.402C154.839 134.402 155.986 134.034 156.93 133.598L153.559 126.293C153.491 126.324 153.438 126.346 153.401 126.359C153.363 126.373 153.344 126.378 153.342 126.379C153.341 126.379 153.36 126.374 153.399 126.368C153.438 126.363 153.499 126.357 153.579 126.357V134.402ZM156.93 133.598C158.06 133.076 159.045 132.34 159.899 131.486L154.211 125.797C153.906 126.102 153.684 126.235 153.559 126.293L156.93 133.598ZM160.011 131.37C160.864 130.446 161.6 129.364 162.245 128.191L155.196 124.314C154.779 125.072 154.404 125.583 154.099 125.913L160.011 131.37ZM162.245 128.191C163.006 126.808 163.533 125.262 163.885 123.62L156.018 121.934C155.79 122.995 155.497 123.766 155.196 124.314L162.245 128.191ZM159.951 126.8H170.305V118.754H159.951V126.8ZM166.365 121.967L164.266 132.176L172.146 133.797L174.246 123.587L166.365 121.967ZM187.791 134.724V138.747H191.036L191.722 135.574L187.791 134.724ZM173.092 134.724L169.157 133.891L168.129 138.747H173.092V134.724ZM179.681 103.589V99.5663H176.421L175.746 102.756L179.681 103.589ZM194.525 103.589L198.456 104.439L199.51 99.5663H194.525V103.589ZM195.683 96.9999L192.216 94.9603L192.17 95.038L192.128 95.1177L195.683 96.9999ZM193.873 99.0997L191.459 95.8816L191.409 95.9193L191.36 95.9585L193.873 99.0997ZM191.339 100.403L190.183 96.55L190.183 96.55L191.339 100.403ZM183.519 99.4617L181.204 102.751L181.204 102.751L183.519 99.4617ZM182.215 92.2934L185.771 94.1755L185.792 94.1342L185.813 94.0924L182.215 92.2934ZM183.953 90.1936L186.332 93.4375L186.349 93.4247L186.367 93.4117L183.953 90.1936ZM186.56 88.8902L185.455 85.0224L185.429 85.0297L185.404 85.0373L186.56 88.8902ZM194.452 89.8315L192.137 93.1213L192.137 93.1213L194.452 89.8315ZM187.791 130.701H173.092V138.747H187.791V130.701ZM177.028 135.557L183.617 104.422L175.746 102.756L169.157 133.891L177.028 135.557ZM179.681 107.612H194.525V99.5663H179.681V107.612ZM190.593 102.739L183.859 133.874L191.722 135.574L198.456 104.439L190.593 102.739ZM192.385 94.1036C192.385 94.6171 192.278 94.8541 192.216 94.9603L199.15 99.0394C200.053 97.5044 200.43 95.8105 200.43 94.1036H192.385ZM192.128 95.1177C191.982 95.3934 191.777 95.6435 191.459 95.8816L196.287 102.318C197.514 101.397 198.515 100.248 199.238 98.882L192.128 95.1177ZM191.36 95.9585C191.072 96.1887 190.698 96.3956 190.183 96.55L192.495 104.256C193.911 103.831 195.225 103.169 196.386 102.241L191.36 95.9585ZM190.183 96.55C189.595 96.7265 188.994 96.8148 188.37 96.8148V104.86C189.773 104.86 191.152 104.659 192.495 104.256L190.183 96.55ZM188.37 96.8148C187.089 96.8148 186.327 96.5189 185.834 96.172L181.204 102.751C183.317 104.239 185.789 104.86 188.37 104.86V96.8148ZM185.834 96.172C185.77 96.127 185.749 96.1008 185.721 96.037C185.679 95.9432 185.586 95.6739 185.586 95.1173H177.541C177.541 98.0494 178.568 100.897 181.204 102.751L185.834 96.172ZM185.586 95.1173C185.586 94.6163 185.685 94.3377 185.771 94.1755L178.66 90.4113C177.877 91.8903 177.541 93.4943 177.541 95.1173H185.586ZM185.813 94.0924C185.986 93.7473 186.165 93.5601 186.332 93.4375L181.574 86.9497C180.293 87.8891 179.314 89.1017 178.617 90.4944L185.813 94.0924ZM186.367 93.4117C186.744 93.1288 187.183 92.9029 187.716 92.7432L185.404 85.0373C184.005 85.4568 182.707 86.0999 181.54 86.9755L186.367 93.4117ZM187.665 92.7581C188.317 92.5719 188.982 92.4784 189.673 92.4784V84.4332C188.24 84.4332 186.83 84.6293 185.455 85.0224L187.665 92.7581ZM189.673 92.4784C190.881 92.4784 191.628 92.7627 192.137 93.1213L196.767 86.5418C194.67 85.0661 192.231 84.4332 189.673 84.4332V92.4784ZM192.137 93.1213C192.217 93.1773 192.237 93.2093 192.261 93.2613C192.297 93.3405 192.385 93.5845 192.385 94.1036H200.43C200.43 91.1776 199.375 88.3766 196.767 86.5418L192.137 93.1213ZM209.076 134.724V138.747H212.333L213.011 135.561L209.076 134.724ZM194.305 134.724L190.369 133.892L189.344 138.747H194.305V134.724ZM204.587 86.0664V82.0437H201.326L200.651 85.2347L204.587 86.0664ZM219.43 86.0664L223.365 86.9036L224.399 82.0437H219.43V86.0664ZM209.076 130.701H194.305V138.747H209.076V130.701ZM198.241 135.556L208.523 86.898L200.651 85.2347L190.369 133.892L198.241 135.556ZM204.587 90.089H219.43V82.0437H204.587V90.089ZM215.496 85.2291L205.142 133.887L213.011 135.561L223.365 86.9036L215.496 85.2291ZM224.782 132.644L221.266 130.691L221.223 130.767L221.184 130.845L224.782 132.644ZM223.676 133.972L221.263 130.754L221.212 130.791L221.163 130.831L223.676 133.972ZM222.127 134.768L220.972 130.915L220.884 130.942L220.799 130.972L222.127 134.768ZM217.393 134.193L214.865 137.323L214.931 137.375L214.998 137.426L217.393 134.193ZM216.641 129.503L213.043 127.704L213.043 127.704L216.641 129.503ZM217.703 128.175L220.215 131.316L220.215 131.316L217.703 128.175ZM219.207 127.379L220.418 131.215L220.477 131.196L220.536 131.176L219.207 127.379ZM224.03 127.998L221.56 131.174L221.598 131.203L221.636 131.231L224.03 127.998ZM221.202 130.83C221.202 130.877 221.197 130.876 221.206 130.839C221.216 130.801 221.234 130.748 221.266 130.691L228.299 134.598C228.963 133.402 229.247 132.111 229.247 130.83H221.202ZM221.184 130.845C221.186 130.842 221.196 130.824 221.216 130.799C221.237 130.775 221.255 130.76 221.263 130.754L226.09 137.19C227.065 136.459 227.837 135.529 228.38 134.443L221.184 130.845ZM221.163 130.831C221.157 130.836 221.111 130.874 220.972 130.915L223.283 138.621C224.324 138.309 225.31 137.816 226.189 137.113L221.163 130.831ZM220.799 130.972C220.652 131.023 220.483 131.055 220.269 131.055V139.101C221.353 139.101 222.423 138.927 223.456 138.565L220.799 130.972ZM220.269 131.055C219.892 131.055 219.802 130.971 219.787 130.961L214.998 137.426C216.577 138.595 218.404 139.101 220.269 139.101V131.055ZM219.92 131.064C219.999 131.127 220.075 131.206 220.14 131.295C220.204 131.384 220.243 131.462 220.265 131.516C220.305 131.616 220.265 131.581 220.265 131.317H212.22C212.22 133.417 212.872 135.713 214.865 137.323L219.92 131.064ZM220.265 131.317C220.265 131.24 220.272 131.211 220.271 131.217C220.27 131.22 220.268 131.23 220.262 131.246C220.257 131.262 220.249 131.281 220.239 131.302L213.043 127.704C212.46 128.868 212.22 130.104 212.22 131.317H220.265ZM220.239 131.302C220.245 131.289 220.249 131.282 220.25 131.281C220.251 131.279 220.25 131.281 220.246 131.286C220.243 131.29 220.238 131.296 220.232 131.302C220.226 131.308 220.22 131.313 220.215 131.316L215.19 125.034C214.271 125.769 213.556 126.678 213.043 127.704L220.239 131.302ZM220.215 131.316C220.256 131.284 220.313 131.248 220.418 131.215L217.996 123.543C216.98 123.864 216.034 124.359 215.19 125.034L220.215 131.316ZM220.536 131.176C220.703 131.117 220.858 131.092 221.021 131.092V123.046C219.945 123.046 218.891 123.227 217.878 123.582L220.536 131.176ZM221.021 131.092C221.283 131.092 221.43 131.125 221.494 131.145C221.525 131.155 221.542 131.163 221.548 131.166C221.554 131.169 221.557 131.171 221.56 131.174L226.5 124.823C224.865 123.551 222.942 123.046 221.021 123.046V131.092ZM221.636 131.231C221.548 131.165 221.458 131.08 221.379 130.979C221.301 130.878 221.25 130.784 221.22 130.712C221.163 130.577 221.202 130.58 221.202 130.83H229.247C229.247 128.689 228.548 126.339 226.425 124.766L221.636 131.231ZM235.111 134.724V138.747H237.218L238.418 137.014L235.111 134.724ZM227.942 134.724L224.007 133.892L222.981 138.747H227.942V134.724ZM234.226 104.989V100.966H230.964L230.29 104.157L234.226 104.989ZM243.297 104.989L247.232 105.825L248.264 100.966H243.297V104.989ZM240.421 118.529L236.486 117.693L235.454 122.552H240.421V118.529ZM240.73 118.529V122.552H242.565L243.768 121.167L240.73 118.529ZM244.005 116.14L245.467 119.887L245.491 119.878L245.514 119.868L244.005 116.14ZM250.244 115.874L248.508 119.503L248.601 119.548L248.697 119.587L250.244 115.874ZM251.925 117.113L255.101 114.643L255.101 114.643L251.925 117.113ZM252.81 119.016L256.722 118.077L256.722 118.077L252.81 119.016ZM252.987 123.219L257 123.506L257 123.506L252.987 123.219ZM252.589 126.007L256.529 126.818L256.531 126.807L256.534 126.796L252.589 126.007ZM251.704 129.149L255.488 130.515L255.493 130.499L255.499 130.482L251.704 129.149ZM250.155 132.069L246.911 129.69L246.885 129.726L246.86 129.762L250.155 132.069ZM247.766 134.237L245.759 130.751L245.735 130.765L245.712 130.779L247.766 134.237ZM242.014 134.813L241.075 138.724L241.092 138.728L241.109 138.732L242.014 134.813ZM239.978 134.105L238.179 137.703L238.214 137.72L238.249 137.737L239.978 134.105ZM238.385 133.087L235.64 136.028L235.741 136.122L235.848 136.209L238.385 133.087ZM237.412 131.848L241.01 130.049L239.898 127.825H237.412V131.848ZM237.102 131.848V127.825H234.994L233.795 129.558L237.102 131.848ZM241.881 129.68L245.269 131.848L245.288 131.818L245.307 131.788L241.881 129.68ZM243.031 127.025L246.89 128.16L246.895 128.145L246.899 128.13L243.031 127.025ZM243.651 123.972L239.669 123.403L239.661 123.452L239.656 123.502L243.651 123.972ZM243.562 120.21L239.91 121.896L239.962 122.009L240.02 122.118L243.562 120.21ZM240.907 120.299L243.465 123.404L243.517 123.361L243.569 123.315L240.907 120.299ZM239.801 121.361L236.66 118.848L236.071 119.584L235.871 120.505L239.801 121.361ZM238.075 129.281L234.145 128.425L233.812 129.955L234.601 131.308L238.075 129.281ZM238.872 130.299L236.027 133.144L236.089 133.205L236.154 133.265L238.872 130.299ZM235.111 130.701H227.942V138.747H235.111V130.701ZM231.878 135.556L238.161 105.82L230.29 104.157L224.007 133.892L231.878 135.556ZM234.226 109.011H243.297V100.966H234.226V109.011ZM239.362 104.153L236.486 117.693L244.355 119.365L247.232 105.825L239.362 104.153ZM240.421 122.552H240.73V114.506H240.421V122.552ZM243.768 121.167C244.376 120.466 244.947 120.09 245.467 119.887L242.542 112.392C240.644 113.133 239.032 114.35 237.693 115.891L243.768 121.167ZM245.514 119.868C246.324 119.54 247.037 119.41 247.677 119.41V111.365C245.899 111.365 244.163 111.736 242.495 112.411L245.514 119.868ZM247.677 119.41C248.32 119.41 248.534 119.516 248.508 119.503L251.979 112.245C250.596 111.584 249.099 111.365 247.677 111.365V119.41ZM248.697 119.587C248.783 119.623 248.813 119.647 248.809 119.643C248.807 119.642 248.799 119.636 248.788 119.625C248.776 119.613 248.763 119.599 248.75 119.583L255.101 114.643C254.204 113.491 253.049 112.685 251.791 112.161L248.697 119.587ZM248.75 119.583C248.769 119.607 248.838 119.703 248.899 119.955L256.722 118.077C256.428 116.854 255.907 115.681 255.101 114.643L248.75 119.583ZM248.899 119.955C248.996 120.359 249.053 120.823 249.053 121.361H257.098C257.098 120.247 256.979 119.148 256.722 118.077L248.899 119.955ZM249.053 121.361C249.053 121.625 249.032 122.128 248.975 122.933L257 123.506C257.06 122.659 257.098 121.923 257.098 121.361H249.053ZM248.975 122.933C248.931 123.552 248.826 124.309 248.645 125.218L256.534 126.796C256.765 125.64 256.926 124.539 257 123.506L248.975 122.933ZM248.649 125.196C248.483 126.001 248.24 126.873 247.909 127.815L255.499 130.482C255.935 129.242 256.282 128.019 256.529 126.818L248.649 125.196ZM247.921 127.782C247.664 128.493 247.327 129.124 246.911 129.69L253.399 134.448C254.282 133.244 254.977 131.928 255.488 130.515L247.921 127.782ZM246.86 129.762C246.592 130.145 246.242 130.473 245.759 130.751L249.773 137.723C251.236 136.881 252.48 135.763 253.451 134.376L246.86 129.762ZM245.712 130.779C245.508 130.9 245.115 131.055 244.359 131.055V139.101C246.258 139.101 248.136 138.696 249.82 137.696L245.712 130.779ZM244.359 131.055C243.863 131.055 243.385 131.001 242.918 130.893L241.109 138.732C242.176 138.979 243.261 139.101 244.359 139.101V131.055ZM242.952 130.901C242.459 130.783 242.049 130.635 241.708 130.473L238.249 137.737C239.146 138.164 240.093 138.489 241.075 138.724L242.952 130.901ZM241.777 130.507C241.428 130.332 241.148 130.148 240.922 129.965L235.848 136.209C236.567 136.792 237.349 137.287 238.179 137.703L241.777 130.507ZM241.13 130.146C241.037 130.06 240.99 130.004 240.973 129.982C240.956 129.961 240.976 129.982 241.01 130.049L233.814 133.647C234.289 134.598 234.951 135.384 235.64 136.028L241.13 130.146ZM237.412 127.825H237.102V135.871H237.412V127.825ZM233.795 129.558L231.803 132.434L238.418 137.014L240.409 134.138L233.795 129.558ZM240.111 134.809C242.525 134.809 244.258 133.427 245.269 131.848L238.493 127.511C238.497 127.504 238.628 127.301 238.952 127.098C239.308 126.876 239.725 126.763 240.111 126.763V134.809ZM245.307 131.788C245.993 130.673 246.511 129.451 246.89 128.16L239.172 125.89C238.962 126.604 238.713 127.152 238.455 127.571L245.307 131.788ZM246.899 128.13C247.25 126.903 247.501 125.672 247.646 124.442L239.656 123.502C239.564 124.277 239.403 125.082 239.163 125.92L246.899 128.13ZM247.633 124.541C247.785 123.475 247.895 122.473 247.895 121.671H239.849C239.849 121.871 239.811 122.403 239.669 123.403L247.633 124.541ZM247.895 121.671C247.895 120.641 247.718 119.444 247.104 118.303L240.02 122.118C239.819 121.744 239.849 121.521 239.849 121.671H247.895ZM247.215 118.525C246.804 117.635 246.121 116.823 245.154 116.277C244.232 115.756 243.294 115.613 242.545 115.613V123.658C242.296 123.658 241.779 123.611 241.196 123.281C240.569 122.927 240.144 122.403 239.91 121.896L247.215 118.525ZM242.545 115.613C240.843 115.613 239.377 116.284 238.246 117.283L243.569 123.315C243.525 123.354 243.405 123.448 243.204 123.529C242.996 123.613 242.767 123.658 242.545 123.658V115.613ZM238.35 117.194C237.764 117.677 237.15 118.235 236.66 118.848L242.942 123.874C242.92 123.902 242.942 123.871 243.04 123.776C243.135 123.686 243.273 123.562 243.465 123.404L238.35 117.194ZM235.871 120.505L234.145 128.425L242.006 130.138L243.731 122.217L235.871 120.505ZM234.601 131.308C235.001 131.994 235.487 132.604 236.027 133.144L241.716 127.455C241.607 127.346 241.563 127.277 241.55 127.255L234.601 131.308ZM236.154 133.265C237.235 134.256 238.613 134.809 240.111 134.809V126.763C240.346 126.763 240.627 126.806 240.918 126.92C241.208 127.034 241.433 127.19 241.59 127.334L236.154 133.265ZM263.915 125.83V121.807H260.558L259.957 125.11L263.915 125.83ZM263.65 127.689L259.647 127.288L259.637 127.388L259.632 127.488L263.65 127.689ZM263.827 131.096L259.974 132.252L260.047 132.496L260.151 132.729L263.827 131.096ZM264.269 131.804L261.215 134.422L261.416 134.657L261.651 134.858L264.269 131.804ZM265.995 131.804L264.196 128.206L264.132 128.238L264.068 128.272L265.995 131.804ZM267.012 131.051L264.294 128.086L264.23 128.145L264.168 128.207L267.012 131.051ZM267.986 129.857L264.671 127.578L264.621 127.65L264.575 127.725L267.986 129.857ZM268.738 128.264V124.241H265.745L264.885 127.108L268.738 128.264ZM275.995 128.264L279.904 129.214L281.112 124.241H275.995V128.264ZM274.845 132.998L277.037 136.371L278.376 135.501L278.753 133.948L274.845 132.998ZM272.809 133.972L274.125 137.773L274.125 137.773L272.809 133.972ZM270.375 134.636L271.059 138.6L271.125 138.588L271.19 138.575L270.375 134.636ZM267.765 134.945L267.497 130.932L267.431 130.936L267.364 130.943L267.765 134.945ZM261.127 134.68L260.303 138.617L260.303 138.617L261.127 134.68ZM257.809 133.308L260.088 129.993L260.088 129.993L257.809 133.308ZM255.552 130.742L251.935 132.501L251.964 132.561L251.994 132.619L255.552 130.742ZM255.419 122.467L251.611 121.171L251.599 121.207L251.587 121.244L255.419 122.467ZM257.72 118.794L254.876 115.95L254.876 115.95L257.72 118.794ZM262.057 116.184L260.711 112.393L260.702 112.396L260.692 112.4L262.057 116.184ZM275.508 116.582L273.389 120.001L273.404 120.01L273.419 120.019L275.508 116.582ZM277.411 123.485L281.306 124.49L281.31 124.475L281.313 124.461L277.411 123.485ZM276.349 125.83V129.853H278.397L279.602 128.196L276.349 125.83ZM266.968 118.706L269.421 121.894L269.437 121.882L269.453 121.869L266.968 118.706ZM265.906 119.945L269.284 122.13L269.312 122.087L269.339 122.043L265.906 119.945ZM265.021 121.715L268.744 123.238L268.756 123.209L268.767 123.181L265.021 121.715ZM264.358 123.795L260.446 122.856L259.255 127.817H264.358V123.795ZM269.402 123.795V127.817H272.81L273.37 124.456L269.402 123.795ZM269.579 122.688L265.621 121.969L265.611 122.023L265.603 122.077L269.579 122.688ZM269.712 121.626L265.736 121.015L265.713 121.166L265.701 121.318L269.712 121.626ZM259.957 125.11C259.822 125.854 259.718 126.58 259.647 127.288L267.652 128.089C267.699 127.617 267.772 127.104 267.873 126.55L259.957 125.11ZM259.632 127.488C259.6 128.129 259.583 128.728 259.583 129.281H267.628C267.628 128.891 267.64 128.428 267.667 127.889L259.632 127.488ZM259.583 129.281C259.583 129.692 259.605 130.111 259.643 130.531L267.656 129.802C267.635 129.573 267.628 129.402 267.628 129.281H259.583ZM259.643 130.531C259.696 131.108 259.803 131.684 259.974 132.252L267.68 129.94C267.673 129.917 267.662 129.874 267.656 129.802L259.643 130.531ZM260.151 132.729C260.416 133.327 260.767 133.899 261.215 134.422L267.323 129.186C267.417 129.295 267.473 129.395 267.502 129.462L260.151 132.729ZM261.651 134.858C262.783 135.828 264.091 136.092 265.11 136.092V128.047C265.421 128.047 266.168 128.133 266.887 128.749L261.651 134.858ZM265.11 136.092C266.261 136.092 267.225 135.715 267.921 135.335L264.068 128.272C264.115 128.247 264.49 128.047 265.11 128.047V136.092ZM267.794 135.402C268.591 135.003 269.274 134.478 269.857 133.896L264.168 128.207C264.135 128.24 264.119 128.251 264.124 128.248C264.128 128.244 264.152 128.228 264.196 128.206L267.794 135.402ZM269.731 134.017C270.391 133.412 270.94 132.721 271.397 131.989L264.575 127.725C264.442 127.937 264.342 128.042 264.294 128.086L269.731 134.017ZM271.301 132.136C271.879 131.295 272.303 130.38 272.591 129.42L264.885 127.108C264.819 127.328 264.742 127.475 264.671 127.578L271.301 132.136ZM268.738 132.286H275.995V124.241H268.738V132.286ZM272.086 127.314L270.936 132.049L278.753 133.948L279.904 129.214L272.086 127.314ZM272.652 129.626C272.374 129.807 271.998 129.996 271.493 130.171L274.125 137.773C275.154 137.417 276.135 136.957 277.037 136.371L272.652 129.626ZM271.493 130.171C270.902 130.375 270.259 130.552 269.56 130.696L271.19 138.575C272.203 138.365 273.182 138.1 274.125 137.773L271.493 130.171ZM269.692 130.671C268.977 130.795 268.246 130.882 267.497 130.932L268.032 138.959C269.054 138.891 270.063 138.772 271.059 138.6L269.692 130.671ZM267.364 130.943C266.597 131.019 265.891 131.055 265.242 131.055V139.101C266.187 139.101 267.162 139.048 268.165 138.948L267.364 130.943ZM265.242 131.055C264.007 131.055 262.915 130.944 261.951 130.743L260.303 138.617C261.877 138.947 263.528 139.101 265.242 139.101V131.055ZM261.951 130.743C261.136 130.572 260.539 130.303 260.088 129.993L255.53 136.623C256.967 137.611 258.582 138.257 260.303 138.617L261.951 130.743ZM260.088 129.993C259.706 129.731 259.381 129.379 259.11 128.864L251.994 132.619C252.843 134.228 254.023 135.587 255.53 136.623L260.088 129.993ZM259.169 128.982C258.975 128.582 258.778 127.881 258.778 126.715H250.733C250.733 128.735 251.067 130.718 251.935 132.501L259.169 128.982ZM258.778 126.715C258.778 125.688 258.934 124.684 259.251 123.69L251.587 121.244C251.019 123.023 250.733 124.852 250.733 126.715H258.778ZM259.227 123.764C259.496 122.975 259.927 122.277 260.565 121.639L254.876 115.95C253.39 117.436 252.287 119.186 251.611 121.171L259.227 123.764ZM260.565 121.639C261.15 121.053 262.048 120.463 263.421 119.968L260.692 112.4C258.466 113.203 256.473 114.353 254.876 115.95L260.565 121.639ZM263.402 119.975C264.664 119.527 266.447 119.233 268.871 119.233V111.188C265.867 111.188 263.107 111.543 260.711 112.393L263.402 119.975ZM268.871 119.233C271.536 119.233 272.854 119.669 273.389 120.001L277.628 113.163C275.213 111.666 272.106 111.188 268.871 111.188V119.233ZM273.419 120.019C273.522 120.082 273.574 120.13 273.597 120.154C273.618 120.176 273.63 120.193 273.64 120.213C273.657 120.244 273.742 120.421 273.742 120.874H281.788C281.788 117.701 280.447 114.877 277.598 113.145L273.419 120.019ZM273.742 120.874C273.742 121.279 273.682 121.817 273.508 122.509L281.313 124.461C281.612 123.265 281.788 122.063 281.788 120.874H273.742ZM273.516 122.48C273.384 122.989 273.222 123.29 273.096 123.464L279.602 128.196C280.419 127.072 280.966 125.809 281.306 124.49L273.516 122.48ZM276.349 121.807H263.915V129.853H276.349V121.807ZM273.823 120.564C273.823 119.917 273.773 119.198 273.603 118.482C273.438 117.791 273.099 116.842 272.334 116L266.381 121.412C266.139 121.145 265.993 120.892 265.909 120.712C265.825 120.534 265.79 120.402 265.776 120.346C265.753 120.25 265.778 120.297 265.778 120.564H273.823ZM272.334 116C271.33 114.895 269.919 114.197 268.296 114.197V122.242C267.959 122.242 267.575 122.172 267.195 121.998C266.82 121.826 266.553 121.6 266.381 121.412L272.334 116ZM268.296 114.197C266.82 114.197 265.52 114.728 264.483 115.543L269.453 121.869C269.365 121.938 269.213 122.038 268.995 122.118C268.772 122.199 268.531 122.242 268.296 122.242V114.197ZM264.516 115.518C263.647 116.185 262.985 117.011 262.474 117.847L269.339 122.043C269.405 121.935 269.45 121.877 269.469 121.855C269.488 121.833 269.474 121.854 269.421 121.894L264.516 115.518ZM262.529 117.76C262.03 118.531 261.619 119.372 261.275 120.249L268.767 123.181C268.955 122.701 269.134 122.362 269.284 122.13L262.529 117.76ZM261.298 120.192C260.949 121.045 260.667 121.935 260.446 122.856L268.269 124.733C268.402 124.179 268.562 123.683 268.744 123.238L261.298 120.192ZM264.358 127.817H269.402V119.772H264.358V127.817ZM273.37 124.456C273.432 124.084 273.493 123.699 273.555 123.3L265.603 122.077C265.546 122.445 265.49 122.797 265.434 123.133L273.37 124.456ZM273.537 123.408C273.624 122.927 273.684 122.434 273.722 121.935L265.701 121.318C265.68 121.586 265.652 121.8 265.621 121.969L273.537 123.408ZM273.687 122.238C273.772 121.69 273.823 121.129 273.823 120.564H265.778C265.778 120.649 265.769 120.796 265.736 121.015L273.687 122.238ZM280.287 115.697L279.437 111.765L276.883 112.317L276.349 114.874L280.287 115.697ZM283.163 114.901L284.516 118.689L284.516 118.689L283.163 114.901ZM285.42 113.794L283.288 110.383L283.255 110.404L283.222 110.425L285.42 113.794ZM287.411 112.157L284.566 109.313L284.533 109.346L284.501 109.38L287.411 112.157ZM289.491 109.768V105.745H287.529L286.321 107.291L289.491 109.768ZM294.048 109.768L297.98 110.619L299.035 105.745H294.048V109.768ZM292.765 115.697L288.833 114.846L287.779 119.72H292.765V115.697ZM296.216 115.697L300.165 116.463L301.095 111.674H296.216V115.697ZM295.641 118.662V122.684H298.958L299.59 119.428L295.641 118.662ZM292.146 118.662V114.639H288.881L288.209 117.834L292.146 118.662ZM290.331 127.29L294.262 128.145L294.265 128.131L294.268 128.118L290.331 127.29ZM289.977 129.105L293.945 129.766L293.945 129.766L289.977 129.105ZM290.464 131.45L289.111 135.238L289.151 135.252L289.192 135.266L290.464 131.45ZM292.898 131.671L296.829 132.525L297.889 127.648H292.898V131.671ZM292.234 134.724L293.339 138.592L295.654 137.931L296.165 135.579L292.234 134.724ZM291.261 134.857L290.993 130.843L290.983 130.844L290.974 130.844L291.261 134.857ZM289.845 134.945L289.621 130.929L289.498 130.936L289.375 130.95L289.845 134.945ZM288.252 135.034V131.011H288.14L288.028 131.017L288.252 135.034ZM284.667 134.901L285.329 130.933L285.248 130.92L285.166 130.91L284.667 134.901ZM282.765 134.326L280.749 137.807L280.819 137.848L280.891 137.886L282.765 134.326ZM281.393 132.954L277.868 134.893L277.905 134.959L277.944 135.024L281.393 132.954ZM280.951 129.237L276.953 128.793L276.94 128.903L276.934 129.014L280.951 129.237ZM281.26 127.467L285.183 128.359L285.19 128.328L285.196 128.298L281.26 127.467ZM283.119 118.662L287.055 119.492L288.079 114.639H283.119V118.662ZM279.667 118.662L275.73 117.839L274.717 122.684H279.667V118.662ZM281.137 119.629C282.355 119.365 283.488 119.056 284.516 118.689L281.81 111.112C281.186 111.335 280.401 111.557 279.437 111.765L281.137 119.629ZM284.516 118.689C285.615 118.297 286.654 117.792 287.617 117.164L283.222 110.425C282.829 110.682 282.363 110.915 281.81 111.112L284.516 118.689ZM287.552 117.206C288.565 116.572 289.487 115.809 290.321 114.935L284.501 109.38C284.096 109.804 283.691 110.131 283.288 110.383L287.552 117.206ZM290.255 115.002C291.049 114.208 291.851 113.281 292.661 112.244L286.321 107.291C285.656 108.143 285.071 108.808 284.566 109.313L290.255 115.002ZM289.491 113.79H294.048V105.745H289.491V113.79ZM290.117 108.917L288.833 114.846L296.697 116.548L297.98 110.619L290.117 108.917ZM292.765 119.72H296.216V111.674H292.765V119.72ZM292.267 114.931L291.692 117.896L299.59 119.428L300.165 116.463L292.267 114.931ZM295.641 114.639H292.146V122.684H295.641V114.639ZM288.209 117.834L286.395 126.463L294.268 128.118L296.082 119.489L288.209 117.834ZM286.4 126.436C286.243 127.161 286.111 127.832 286.009 128.443L293.945 129.766C294.02 129.315 294.125 128.776 294.262 128.145L286.4 126.436ZM286.009 128.443C285.909 129.046 285.822 129.716 285.822 130.343H293.867C293.867 130.384 293.865 130.358 293.877 130.241C293.889 130.131 293.91 129.975 293.945 129.766L286.009 128.443ZM285.822 130.343C285.822 131.068 285.943 132.052 286.49 133.028C287.087 134.095 288.027 134.851 289.111 135.238L291.817 127.661C292.488 127.901 293.118 128.399 293.509 129.097C293.849 129.704 293.867 130.209 293.867 130.343H285.822ZM289.192 135.266C290.328 135.645 291.749 135.694 292.898 135.694V127.648C292.381 127.648 292.013 127.632 291.769 127.61C291.649 127.599 291.584 127.589 291.564 127.585C291.537 127.58 291.606 127.59 291.736 127.633L289.192 135.266ZM288.967 130.816L288.303 133.87L296.165 135.579L296.829 132.525L288.967 130.816ZM291.129 130.856C291.213 130.832 291.27 130.821 291.289 130.817C291.311 130.813 291.313 130.813 291.292 130.816C291.272 130.819 291.237 130.823 291.185 130.828C291.134 130.833 291.07 130.838 290.993 130.843L291.528 138.871C292.021 138.838 292.701 138.774 293.339 138.592L291.129 130.856ZM290.974 130.844C290.587 130.872 290.137 130.9 289.621 130.929L290.068 138.962C290.614 138.931 291.108 138.901 291.547 138.869L290.974 130.844ZM289.375 130.95C289.045 130.989 288.672 131.011 288.252 131.011V139.056C288.952 139.056 289.641 139.02 290.315 138.94L289.375 130.95ZM288.028 131.017C287.552 131.044 287.157 131.055 286.836 131.055V139.101C287.341 139.101 287.889 139.083 288.475 139.05L288.028 131.017ZM286.836 131.055C286.314 131.055 285.812 131.014 285.329 130.933L284.006 138.869C284.939 139.024 285.883 139.101 286.836 139.101V131.055ZM285.166 130.91C284.879 130.874 284.72 130.809 284.638 130.766L280.891 137.886C281.931 138.433 283.04 138.752 284.168 138.893L285.166 130.91ZM284.78 130.845C284.79 130.85 284.802 130.858 284.814 130.867C284.827 130.877 284.837 130.887 284.846 130.895C284.864 130.913 284.861 130.915 284.842 130.885L277.944 135.024C278.626 136.161 279.562 137.12 280.749 137.807L284.78 130.845ZM284.918 131.016C284.986 131.141 284.986 131.192 284.97 131.111C284.953 131.03 284.929 130.856 284.929 130.565H276.884C276.884 131.939 277.096 133.488 277.868 134.893L284.918 131.016ZM284.929 130.565C284.929 130.312 284.94 129.95 284.967 129.46L276.934 129.014C276.902 129.587 276.884 130.109 276.884 130.565H284.929ZM284.949 129.681C284.987 129.332 285.061 128.894 285.183 128.359L277.338 126.576C277.164 127.338 277.032 128.08 276.953 128.793L284.949 129.681ZM285.196 128.298L287.055 119.492L279.183 117.831L277.324 126.637L285.196 128.298ZM283.119 114.639H279.667V122.684H283.119V114.639ZM283.605 119.485L284.224 116.52L276.349 114.874L275.73 117.839L283.605 119.485Z" fill="#192494" mask="url(#path-3-outside-2_754_372)"/>
</g>
<defs>
<filter id="filter0_d_754_372" x="5.98868" y="27.9358" width="208.57" height="62.7532" filterUnits="userSpaceOnUse" color-interpolation-filters="sRGB">
<feFlood flood-opacity="0" result="BackgroundImageFix"/>
<feColorMatrix in="SourceAlpha" type="matrix" values="0 0 0 0 0 0 0 0 0 0 0 0 0 0 0 0 0 0 127 0" result="hardAlpha"/>
<feOffset dx="-2.01132" dy="8.04527"/>
<feComposite in2="hardAlpha" operator="out"/>
<feColorMatrix type="matrix" values="0 0 0 0 0.0980392 0 0 0 0 0.141176 0 0 0 0 0.580392 0 0 0 1 0"/>
<feBlend mode="normal" in2="BackgroundImageFix" result="effect1_dropShadow_754_372"/>
<feBlend mode="normal" in="SourceGraphic" in2="effect1_dropShadow_754_372" result="shape"/>
</filter>
<filter id="filter1_d_754_372" x="60.2946" y="86.0664" width="235.922" height="57.2822" filterUnits="userSpaceOnUse" color-interpolation-filters="sRGB">
<feFlood flood-opacity="0" result="BackgroundImageFix"/>
<feColorMatrix in="SourceAlpha" type="matrix" values="0 0 0 0 0 0 0 0 0 0 0 0 0 0 0 0 0 0 127 0" result="hardAlpha"/>
<feOffset dx="-2.01132" dy="8.04527"/>
<feComposite in2="hardAlpha" operator="out"/>
<feColorMatrix type="matrix" values="0 0 0 0 0.0980392 0 0 0 0 0.141176 0 0 0 0 0.580392 0 0 0 1 0"/>
<feBlend mode="normal" in2="BackgroundImageFix" result="effect1_dropShadow_754_372"/>
<feBlend mode="normal" in="SourceGraphic" in2="effect1_dropShadow_754_372" result="shape"/>
</filter>
</defs>
</svg>
