<svg width="320" height="160" viewBox="0 0 320 160" fill="none" xmlns="http://www.w3.org/2000/svg">
<g filter="url(#filter0_d_40_2884)">
<mask id="path-1-outside-1_40_2884" maskUnits="userSpaceOnUse" x="2" y="21" width="229" height="67" fill="black">
<rect fill="white" x="2" y="21" width="229" height="67"/>
<path d="M60.0249 41.414C60.0249 43.0548 59.7703 44.5259 59.2611 45.8272C58.8085 47.1285 58.1578 48.2884 57.3091 49.3068C56.4604 50.3253 55.4703 51.2306 54.3387 52.0227C53.2071 52.8148 51.9624 53.5503 50.6044 54.2293C51.2268 54.4556 51.9624 54.8234 52.811 55.3326C53.6597 55.7852 54.4801 56.4359 55.2723 57.2846C56.0644 58.1333 56.715 59.2366 57.2243 60.5945C57.7901 61.8958 58.073 63.5083 58.073 65.432C58.073 67.9781 57.5354 70.3262 56.4604 72.4762C55.3854 74.6262 53.7729 76.4933 51.6229 78.0776C49.5294 79.6052 46.9268 80.8217 43.8149 81.727C40.7596 82.5757 37.2234 83 33.2062 83H8L19.4574 29.1079H41.778C43.9846 29.1079 46.1629 29.2777 48.313 29.6171C50.5196 29.9 52.4716 30.4941 54.169 31.3994C55.9229 32.3047 57.3374 33.5777 58.4124 35.2185C59.4874 36.8028 60.0249 38.8679 60.0249 41.414ZM36.9405 51.6832C38.1852 51.6832 39.2319 51.3154 40.0806 50.5799C40.9859 49.8443 41.7214 48.9391 42.2872 47.8641C42.853 46.7325 43.2774 45.5443 43.5603 44.2995C43.8432 42.9982 43.9846 41.8383 43.9846 40.8199C43.9846 39.1791 43.5886 37.7929 42.7965 36.6613C42.0609 35.4731 40.8728 34.879 39.2319 34.879H36.6859L33.0365 51.6832H36.9405ZM30.8299 77.6532C32.5273 77.6532 33.9418 77.1723 35.0733 76.2104C36.2049 75.2486 37.1385 74.0604 37.874 72.6459C38.6096 71.2314 39.1188 69.7604 39.4017 68.2327C39.7412 66.6485 39.9109 65.2623 39.9109 64.0741C39.9109 62.0938 39.4866 60.5379 38.6379 59.4063C37.8457 58.2181 36.5444 57.624 34.7339 57.624H31.5937L27.4351 77.6532H30.8299ZM77.1745 83H59.946L67.6692 46.5062H85.0674L77.1745 83ZM87.274 35.3883C87.274 36.6896 86.9911 37.8212 86.4253 38.783C85.9161 39.7449 85.2088 40.5653 84.3036 41.2443C83.4549 41.9232 82.4647 42.4324 81.3331 42.7719C80.2015 43.1114 79.0417 43.2811 77.8535 43.2811C75.5903 43.2811 73.6949 42.7436 72.1672 41.6686C70.6396 40.5936 69.8758 38.8962 69.8758 36.5764C69.8758 35.3317 70.1304 34.2284 70.6396 33.2665C71.1488 32.2481 71.8278 31.4277 72.6765 30.8053C73.5817 30.1264 74.6002 29.6171 75.7318 29.2777C76.9199 28.9382 78.1364 28.7684 79.3811 28.7684C81.5877 28.7684 83.4549 29.306 84.9825 30.381C86.5102 31.456 87.274 33.1251 87.274 35.3883ZM123.341 80.9631C120.964 81.925 118.447 82.6039 115.787 83C113.185 83.4526 110.214 83.679 106.876 83.679C103.934 83.679 101.218 83.3961 98.7287 82.8303C96.2958 82.2079 94.1741 81.246 92.3635 79.9447C90.553 78.6434 89.1385 76.9743 88.12 74.9374C87.1016 72.844 86.5924 70.3262 86.5924 67.384C86.5924 64.3287 87.1016 61.4997 88.12 58.8971C89.195 56.2378 90.7793 53.9181 92.8727 51.9378C95.0227 49.9575 97.7386 48.4016 101.02 47.27C104.302 46.1384 108.206 45.5726 112.732 45.5726C116.41 45.5726 119.607 45.8838 122.322 46.5062C125.038 47.0719 127.273 48.4016 129.027 50.495L126.651 61.3583H115.109C115.165 60.3964 115.222 59.5478 115.278 58.8122C115.335 58.0767 115.363 57.2563 115.363 56.351C115.363 54.5405 115.165 53.2674 114.769 52.5319C114.373 51.7398 113.722 51.3437 112.817 51.3437C111.233 51.3437 109.847 52.1358 108.658 53.7201C107.47 55.2477 106.48 57.1148 105.688 59.3214C104.952 61.4715 104.387 63.7629 103.991 66.1959C103.651 68.5722 103.481 70.6091 103.481 72.3065C103.481 72.9288 103.51 73.5795 103.566 74.2585C103.623 74.8808 103.736 75.4749 103.906 76.0407C104.132 76.6065 104.415 77.0591 104.754 77.3986C105.094 77.7381 105.575 77.9078 106.197 77.9078C106.763 77.9078 107.414 77.7381 108.149 77.3986C108.885 77.0591 109.592 76.5499 110.271 75.871C110.95 75.1354 111.601 74.2019 112.223 73.0703C112.845 71.9387 113.326 70.5808 113.666 68.9965H125.802L123.341 80.9631ZM153.001 51.9378H153.595C154.67 50.8628 155.915 49.8726 157.33 48.9674C158.518 48.1753 159.932 47.468 161.573 46.8456C163.214 46.2233 165.053 45.9121 167.09 45.9121C170.032 45.9121 172.465 46.6759 174.388 48.2035C176.312 49.6746 177.274 51.7115 177.274 54.3141C177.274 55.1063 177.189 56.0115 177.019 57.03C176.85 57.9918 176.652 59.0385 176.425 60.1701C176.199 61.2451 175.944 62.3484 175.662 63.48C175.435 64.555 175.237 65.5452 175.067 66.4505L171.503 83H154.274L158.942 60.8491C159.055 60.1135 159.197 59.378 159.367 58.6425C159.536 57.8504 159.621 57.1431 159.621 56.5207C159.621 55.672 159.395 54.9931 158.942 54.4839C158.546 53.9181 157.924 53.6352 157.075 53.6352C156.057 53.6352 155.067 54.003 154.105 54.7385C153.199 55.474 152.492 56.1247 151.983 56.6905L146.382 83H129.068L141.12 25.9678H158.518L153.001 51.9378ZM206.379 45.5726C213.112 45.5726 218.006 46.7608 221.061 49.1371C224.286 51.6266 225.899 55.7569 225.899 61.528C225.899 65.0926 225.305 68.3176 224.117 71.2032C222.928 74.0321 221.259 76.3802 219.109 78.2473C214.809 81.8684 208.586 83.679 200.438 83.679C193.479 83.679 188.5 82.3493 185.501 79.6901C182.276 76.9177 180.663 72.7591 180.663 67.2143C180.663 63.5366 181.399 60.1984 182.87 57.1997C184.398 54.201 186.576 51.7115 189.405 49.7312C193.535 46.9588 199.193 45.5726 206.379 45.5726ZM200.608 77.9078C202.022 77.9078 203.239 77.1157 204.257 75.5315C205.332 73.9473 206.181 72.0236 206.803 69.7604C207.426 67.4406 207.878 65.0643 208.161 62.6313C208.501 60.1418 208.67 57.9918 208.67 56.1813C208.67 54.597 208.501 53.4089 208.161 52.6168C207.878 51.7681 207.228 51.3437 206.209 51.3437C204.682 51.3437 203.352 52.1641 202.22 53.8049C201.145 55.4457 200.268 57.3977 199.589 59.6609C198.91 61.9241 198.401 64.2439 198.062 66.6202C197.779 68.9965 197.637 70.9203 197.637 72.3913C197.637 76.069 198.628 77.9078 200.608 77.9078Z"/>
</mask>
<path d="M60.0249 41.414C60.0249 43.0548 59.7703 44.5259 59.2611 45.8272C58.8085 47.1285 58.1578 48.2884 57.3091 49.3068C56.4604 50.3253 55.4703 51.2306 54.3387 52.0227C53.2071 52.8148 51.9624 53.5503 50.6044 54.2293C51.2268 54.4556 51.9624 54.8234 52.811 55.3326C53.6597 55.7852 54.4801 56.4359 55.2723 57.2846C56.0644 58.1333 56.715 59.2366 57.2243 60.5945C57.7901 61.8958 58.073 63.5083 58.073 65.432C58.073 67.9781 57.5354 70.3262 56.4604 72.4762C55.3854 74.6262 53.7729 76.4933 51.6229 78.0776C49.5294 79.6052 46.9268 80.8217 43.8149 81.727C40.7596 82.5757 37.2234 83 33.2062 83H8L19.4574 29.1079H41.778C43.9846 29.1079 46.1629 29.2777 48.313 29.6171C50.5196 29.9 52.4716 30.4941 54.169 31.3994C55.9229 32.3047 57.3374 33.5777 58.4124 35.2185C59.4874 36.8028 60.0249 38.8679 60.0249 41.414ZM36.9405 51.6832C38.1852 51.6832 39.2319 51.3154 40.0806 50.5799C40.9859 49.8443 41.7214 48.9391 42.2872 47.8641C42.853 46.7325 43.2774 45.5443 43.5603 44.2995C43.8432 42.9982 43.9846 41.8383 43.9846 40.8199C43.9846 39.1791 43.5886 37.7929 42.7965 36.6613C42.0609 35.4731 40.8728 34.879 39.2319 34.879H36.6859L33.0365 51.6832H36.9405ZM30.8299 77.6532C32.5273 77.6532 33.9418 77.1723 35.0733 76.2104C36.2049 75.2486 37.1385 74.0604 37.874 72.6459C38.6096 71.2314 39.1188 69.7604 39.4017 68.2327C39.7412 66.6485 39.9109 65.2623 39.9109 64.0741C39.9109 62.0938 39.4866 60.5379 38.6379 59.4063C37.8457 58.2181 36.5444 57.624 34.7339 57.624H31.5937L27.4351 77.6532H30.8299ZM77.1745 83H59.946L67.6692 46.5062H85.0674L77.1745 83ZM87.274 35.3883C87.274 36.6896 86.9911 37.8212 86.4253 38.783C85.9161 39.7449 85.2088 40.5653 84.3036 41.2443C83.4549 41.9232 82.4647 42.4324 81.3331 42.7719C80.2015 43.1114 79.0417 43.2811 77.8535 43.2811C75.5903 43.2811 73.6949 42.7436 72.1672 41.6686C70.6396 40.5936 69.8758 38.8962 69.8758 36.5764C69.8758 35.3317 70.1304 34.2284 70.6396 33.2665C71.1488 32.2481 71.8278 31.4277 72.6765 30.8053C73.5817 30.1264 74.6002 29.6171 75.7318 29.2777C76.9199 28.9382 78.1364 28.7684 79.3811 28.7684C81.5877 28.7684 83.4549 29.306 84.9825 30.381C86.5102 31.456 87.274 33.1251 87.274 35.3883ZM123.341 80.9631C120.964 81.925 118.447 82.6039 115.787 83C113.185 83.4526 110.214 83.679 106.876 83.679C103.934 83.679 101.218 83.3961 98.7287 82.8303C96.2958 82.2079 94.1741 81.246 92.3635 79.9447C90.553 78.6434 89.1385 76.9743 88.12 74.9374C87.1016 72.844 86.5924 70.3262 86.5924 67.384C86.5924 64.3287 87.1016 61.4997 88.12 58.8971C89.195 56.2378 90.7793 53.9181 92.8727 51.9378C95.0227 49.9575 97.7386 48.4016 101.02 47.27C104.302 46.1384 108.206 45.5726 112.732 45.5726C116.41 45.5726 119.607 45.8838 122.322 46.5062C125.038 47.0719 127.273 48.4016 129.027 50.495L126.651 61.3583H115.109C115.165 60.3964 115.222 59.5478 115.278 58.8122C115.335 58.0767 115.363 57.2563 115.363 56.351C115.363 54.5405 115.165 53.2674 114.769 52.5319C114.373 51.7398 113.722 51.3437 112.817 51.3437C111.233 51.3437 109.847 52.1358 108.658 53.7201C107.47 55.2477 106.48 57.1148 105.688 59.3214C104.952 61.4715 104.387 63.7629 103.991 66.1959C103.651 68.5722 103.481 70.6091 103.481 72.3065C103.481 72.9288 103.51 73.5795 103.566 74.2585C103.623 74.8808 103.736 75.4749 103.906 76.0407C104.132 76.6065 104.415 77.0591 104.754 77.3986C105.094 77.7381 105.575 77.9078 106.197 77.9078C106.763 77.9078 107.414 77.7381 108.149 77.3986C108.885 77.0591 109.592 76.5499 110.271 75.871C110.95 75.1354 111.601 74.2019 112.223 73.0703C112.845 71.9387 113.326 70.5808 113.666 68.9965H125.802L123.341 80.9631ZM153.001 51.9378H153.595C154.67 50.8628 155.915 49.8726 157.33 48.9674C158.518 48.1753 159.932 47.468 161.573 46.8456C163.214 46.2233 165.053 45.9121 167.09 45.9121C170.032 45.9121 172.465 46.6759 174.388 48.2035C176.312 49.6746 177.274 51.7115 177.274 54.3141C177.274 55.1063 177.189 56.0115 177.019 57.03C176.85 57.9918 176.652 59.0385 176.425 60.1701C176.199 61.2451 175.944 62.3484 175.662 63.48C175.435 64.555 175.237 65.5452 175.067 66.4505L171.503 83H154.274L158.942 60.8491C159.055 60.1135 159.197 59.378 159.367 58.6425C159.536 57.8504 159.621 57.1431 159.621 56.5207C159.621 55.672 159.395 54.9931 158.942 54.4839C158.546 53.9181 157.924 53.6352 157.075 53.6352C156.057 53.6352 155.067 54.003 154.105 54.7385C153.199 55.474 152.492 56.1247 151.983 56.6905L146.382 83H129.068L141.12 25.9678H158.518L153.001 51.9378ZM206.379 45.5726C213.112 45.5726 218.006 46.7608 221.061 49.1371C224.286 51.6266 225.899 55.7569 225.899 61.528C225.899 65.0926 225.305 68.3176 224.117 71.2032C222.928 74.0321 221.259 76.3802 219.109 78.2473C214.809 81.8684 208.586 83.679 200.438 83.679C193.479 83.679 188.5 82.3493 185.501 79.6901C182.276 76.9177 180.663 72.7591 180.663 67.2143C180.663 63.5366 181.399 60.1984 182.87 57.1997C184.398 54.201 186.576 51.7115 189.405 49.7312C193.535 46.9588 199.193 45.5726 206.379 45.5726ZM200.608 77.9078C202.022 77.9078 203.239 77.1157 204.257 75.5315C205.332 73.9473 206.181 72.0236 206.803 69.7604C207.426 67.4406 207.878 65.0643 208.161 62.6313C208.501 60.1418 208.67 57.9918 208.67 56.1813C208.67 54.597 208.501 53.4089 208.161 52.6168C207.878 51.7681 207.228 51.3437 206.209 51.3437C204.682 51.3437 203.352 52.1641 202.22 53.8049C201.145 55.4457 200.268 57.3977 199.589 59.6609C198.91 61.9241 198.401 64.2439 198.062 66.6202C197.779 68.9965 197.637 70.9203 197.637 72.3913C197.637 76.069 198.628 77.9078 200.608 77.9078Z" fill="white"/>
<path d="M59.2611 45.8272L55.3094 44.2809L55.2798 44.3565L55.2532 44.4331L59.2611 45.8272ZM54.3387 52.0227L51.9052 48.5463L51.9052 48.5463L54.3387 52.0227ZM50.6044 54.2293L48.7067 50.4338L39.8827 54.8458L49.1543 58.2173L50.6044 54.2293ZM52.811 55.3326L50.6278 58.9713L50.7196 59.0264L50.8141 59.0768L52.811 55.3326ZM55.2723 57.2846L52.1701 60.18L52.1701 60.18L55.2723 57.2846ZM57.2243 60.5945L53.251 62.0845L53.2892 62.1865L53.3327 62.2865L57.2243 60.5945ZM56.4604 72.4762L52.665 70.5785L52.665 70.5785L56.4604 72.4762ZM51.6229 78.0776L54.1243 81.5054L54.1322 81.4996L54.1401 81.4938L51.6229 78.0776ZM43.8149 81.727L44.9506 85.8156L44.9755 85.8087L45.0002 85.8015L43.8149 81.727ZM8 83L3.8493 82.1176L2.75954 87.2435H8V83ZM19.4574 29.1079V24.8645H16.0212L15.3067 28.2255L19.4574 29.1079ZM48.313 29.6171L47.6511 33.8087L47.7121 33.8183L47.7734 33.8262L48.313 29.6171ZM54.169 31.3994L52.172 35.1436L52.1973 35.1571L52.2227 35.1702L54.169 31.3994ZM58.4124 35.2185L54.8629 37.5441L54.8818 37.5728L54.9011 37.6012L58.4124 35.2185ZM40.0806 50.5799L37.4047 47.2865L37.3524 47.329L37.3015 47.3731L40.0806 50.5799ZM42.2872 47.8641L46.0424 49.8404L46.063 49.8013L46.0827 49.7618L42.2872 47.8641ZM43.5603 44.2995L47.6982 45.24L47.7027 45.2205L47.7069 45.201L43.5603 44.2995ZM42.7965 36.6613L39.1884 38.8949L39.2514 38.9967L39.3201 39.0948L42.7965 36.6613ZM36.6859 34.879V30.6356H33.265L32.5391 33.9785L36.6859 34.879ZM33.0365 51.6832L28.8897 50.7826L27.7725 55.9267H33.0365V51.6832ZM35.0733 76.2104L32.3251 72.9772L32.3251 72.9772L35.0733 76.2104ZM37.874 72.6459L41.6389 74.6037L41.6389 74.6037L37.874 72.6459ZM39.4017 68.2327L35.2524 67.3436L35.24 67.4016L35.2292 67.46L39.4017 68.2327ZM38.6379 59.4063L35.1071 61.7602L35.1724 61.8582L35.2431 61.9524L38.6379 59.4063ZM31.5937 57.624V53.3806H28.1408L27.4388 56.7614L31.5937 57.624ZM27.4351 77.6532L23.2802 76.7906L22.2201 81.8967H27.4351V77.6532ZM55.7815 41.414C55.7815 42.6162 55.5954 43.5501 55.3094 44.2809L63.2128 47.3735C63.9453 45.5016 64.2684 43.4934 64.2684 41.414H55.7815ZM55.2532 44.4331C54.9616 45.2714 54.5582 45.9794 54.0492 46.5902L60.5691 52.0234C61.7574 50.5974 62.6554 48.9856 63.2691 47.2213L55.2532 44.4331ZM54.0492 46.5902C53.451 47.308 52.7419 47.9606 51.9052 48.5463L56.7722 55.4991C58.1987 54.5005 59.4698 53.3425 60.5691 52.0234L54.0492 46.5902ZM51.9052 48.5463C50.9599 49.208 49.8965 49.8389 48.7067 50.4338L52.5022 58.0247C54.0282 57.2617 55.4543 56.4216 56.7722 55.4991L51.9052 48.5463ZM49.1543 58.2173C49.43 58.3175 49.9097 58.5404 50.6278 58.9713L54.9943 51.6938C54.015 51.1063 53.0236 50.5937 52.0546 50.2413L49.1543 58.2173ZM50.8141 59.0768C51.1748 59.2692 51.6331 59.6047 52.1701 60.18L58.3745 54.3892C57.3272 53.2671 56.1446 52.3012 54.808 51.5883L50.8141 59.0768ZM52.1701 60.18C52.5007 60.5342 52.8901 61.1222 53.251 62.0845L61.1975 59.1045C60.54 57.351 59.6281 55.7323 58.3745 54.3892L52.1701 60.18ZM53.3327 62.2865C53.5995 62.9001 53.8295 63.8954 53.8295 65.432H62.3164C62.3164 63.1212 61.9806 60.8915 61.1158 58.9025L53.3327 62.2865ZM53.8295 65.432C53.8295 67.3594 53.428 69.0524 52.665 70.5785L60.2559 74.3739C61.6429 71.5999 62.3164 68.5969 62.3164 65.432H53.8295ZM52.665 70.5785C51.922 72.0643 50.7764 73.4303 49.1057 74.6613L54.1401 81.4938C56.7694 79.5564 58.8488 77.1882 60.2559 74.3739L52.665 70.5785ZM49.1215 74.6497C47.5114 75.8246 45.3822 76.8516 42.6296 77.6524L45.0002 85.8015C48.4713 84.7917 51.5474 83.3858 54.1243 81.5054L49.1215 74.6497ZM42.6792 77.6383C40.0768 78.3612 36.9365 78.7565 33.2062 78.7565V87.2435C37.5102 87.2435 41.4424 86.7901 44.9506 85.8156L42.6792 77.6383ZM33.2062 78.7565H8V87.2435H33.2062V78.7565ZM12.1507 83.8824L23.6081 29.9904L15.3067 28.2255L3.8493 82.1176L12.1507 83.8824ZM19.4574 33.3514H41.778V24.8645H19.4574V33.3514ZM41.778 33.3514C43.7661 33.3514 45.723 33.5042 47.6511 33.8087L48.9748 25.4256C46.6029 25.0511 44.2032 24.8645 41.778 24.8645V33.3514ZM47.7734 33.8262C49.5486 34.0538 50.9933 34.515 52.172 35.1436L56.1659 27.6552C53.9499 26.4733 51.4905 25.7463 48.8526 25.4081L47.7734 33.8262ZM52.2227 35.1702C53.3309 35.7422 54.1914 36.5191 54.8629 37.5441L61.9619 32.893C60.4834 30.6363 58.515 28.8672 56.1152 27.6286L52.2227 35.1702ZM54.9011 37.6012C55.3648 38.2846 55.7815 39.4421 55.7815 41.414H64.2684C64.2684 38.2937 63.6101 35.3209 61.9238 32.8358L54.9011 37.6012ZM36.9405 55.9267C39.0875 55.9267 41.1544 55.2647 42.8598 53.7866L37.3015 47.3731C37.2754 47.3958 37.2659 47.3991 37.2524 47.4038C37.2326 47.4108 37.1417 47.4397 36.9405 47.4397V55.9267ZM42.7565 53.8733C44.1253 52.7612 45.2208 51.4014 46.0424 49.8404L38.5321 45.8877C38.2221 46.4768 37.8465 46.9275 37.4047 47.2865L42.7565 53.8733ZM46.0827 49.7618C46.802 48.3233 47.3406 46.8134 47.6982 45.24L39.4223 43.3591C39.2141 44.2752 38.9041 45.1417 38.4918 45.9663L46.0827 49.7618ZM47.7069 45.201C48.0357 43.6884 48.2281 42.2175 48.2281 40.8199H39.7412C39.7412 41.4592 39.6506 42.308 39.4137 43.3981L47.7069 45.201ZM48.2281 40.8199C48.2281 38.4759 47.6523 36.1985 46.2728 34.2278L39.3201 39.0948C39.5248 39.3872 39.7412 39.8823 39.7412 40.8199H48.2281ZM46.4045 34.4277C44.7496 31.7543 42.042 30.6356 39.2319 30.6356V39.1225C39.5455 39.1225 39.5734 39.1788 39.4559 39.1201C39.3984 39.0913 39.3342 39.0483 39.276 38.9944C39.2189 38.9415 39.1921 38.9009 39.1884 38.8949L46.4045 34.4277ZM39.2319 30.6356H36.6859V39.1225H39.2319V30.6356ZM32.5391 33.9785L28.8897 50.7826L37.1833 52.5838L40.8327 35.7796L32.5391 33.9785ZM33.0365 55.9267H36.9405V47.4397H33.0365V55.9267ZM30.8299 81.8967C33.3815 81.8967 35.814 81.1502 37.8216 79.4437L32.3251 72.9772C32.0695 73.1944 31.673 73.4098 30.8299 73.4098V81.8967ZM37.8216 79.4437C39.4013 78.101 40.669 76.4689 41.6389 74.6037L34.1092 70.6882C33.608 71.6519 33.0085 72.3962 32.3251 72.9772L37.8216 79.4437ZM41.6389 74.6037C42.5631 72.8264 43.2128 70.9569 43.5742 69.0054L35.2292 67.46C35.0247 68.5639 34.656 69.6365 34.1092 70.6882L41.6389 74.6037ZM43.551 69.1219C43.9321 67.343 44.1544 65.6467 44.1544 64.0741H35.6674C35.6674 64.8778 35.5502 65.954 35.2524 67.3436L43.551 69.1219ZM44.1544 64.0741C44.1544 61.534 43.6142 58.969 42.0326 56.8602L35.2431 61.9524C35.3589 62.1068 35.6674 62.6536 35.6674 64.0741H44.1544ZM42.1686 57.0524C40.3782 54.3668 37.5345 53.3806 34.7339 53.3806V61.8675C35.1873 61.8675 35.3344 61.943 35.3055 61.9298C35.2884 61.922 35.2466 61.8995 35.1975 61.8577C35.1483 61.8158 35.1186 61.7775 35.1071 61.7602L42.1686 57.0524ZM34.7339 53.3806H31.5937V61.8675H34.7339V53.3806ZM27.4388 56.7614L23.2802 76.7906L31.59 78.5159L35.7486 58.4867L27.4388 56.7614ZM27.4351 81.8967H30.8299V73.4098H27.4351V81.8967ZM77.1745 83V87.2435H80.5983L81.3221 83.897L77.1745 83ZM59.946 83L55.7945 82.1214L54.7106 87.2435H59.946V83ZM67.6692 46.5062V42.2627H64.2297L63.5176 45.6276L67.6692 46.5062ZM85.0674 46.5062L89.215 47.4032L90.3267 42.2627H85.0674V46.5062ZM86.4253 38.783L82.7677 36.6315L82.7195 36.7135L82.675 36.7976L86.4253 38.783ZM84.3036 41.2443L81.7575 37.8495L81.7045 37.8892L81.6527 37.9307L84.3036 41.2443ZM81.3331 42.7719L80.1138 38.7074L80.1138 38.7074L81.3331 42.7719ZM72.1672 41.6686L69.7251 45.1389L69.7252 45.1389L72.1672 41.6686ZM70.6396 33.2665L74.3899 35.252L74.413 35.2084L74.4351 35.1643L70.6396 33.2665ZM72.6765 30.8053L75.1859 34.2273L75.2043 34.2138L75.2225 34.2001L72.6765 30.8053ZM75.7318 29.2777L74.566 25.1975L74.5391 25.2051L74.5124 25.2132L75.7318 29.2777ZM84.9825 30.381L82.5404 33.8513L82.5404 33.8513L84.9825 30.381ZM77.1745 78.7565H59.946V87.2435H77.1745V78.7565ZM64.0976 83.8786L71.8207 47.3847L63.5176 45.6276L55.7945 82.1214L64.0976 83.8786ZM67.6692 50.7496H85.0674V42.2627H67.6692V50.7496ZM80.9198 45.6091L73.027 82.103L81.3221 83.897L89.215 47.4032L80.9198 45.6091ZM83.0305 35.3883C83.0305 36.0602 82.8902 36.4233 82.7677 36.6315L90.0829 40.9346C91.092 39.2191 91.5175 37.319 91.5175 35.3883H83.0305ZM82.675 36.7976C82.4701 37.1845 82.1828 37.5305 81.7575 37.8495L86.8496 44.639C88.2349 43.6001 89.362 42.3053 90.1756 40.7685L82.675 36.7976ZM81.6527 37.9307C81.2643 38.2414 80.7701 38.5105 80.1138 38.7074L82.5525 46.8364C84.1594 46.3543 85.6455 45.605 86.9544 44.5578L81.6527 37.9307ZM80.1138 38.7074C79.3801 38.9275 78.6311 39.0376 77.8535 39.0376V47.5246C79.4523 47.5246 81.023 47.2952 82.5525 46.8364L80.1138 38.7074ZM77.8535 39.0376C76.2763 39.0376 75.2821 38.6717 74.6093 38.1983L69.7252 45.1389C72.1077 46.8155 74.9043 47.5246 77.8535 47.5246V39.0376ZM74.6093 38.1983C74.4868 38.1121 74.1192 37.8908 74.1192 36.5764H65.6323C65.6323 39.9015 66.7923 43.0751 69.7251 45.1389L74.6093 38.1983ZM74.1192 36.5764C74.1192 35.9235 74.2484 35.5192 74.3899 35.252L66.8893 31.2811C66.0123 32.9375 65.6323 34.7399 65.6323 36.5764H74.1192ZM74.4351 35.1643C74.668 34.6984 74.9246 34.4189 75.1859 34.2273L70.167 27.3834C68.7309 28.4365 67.6296 29.7978 66.8441 31.3688L74.4351 35.1643ZM75.2225 34.2001C75.711 33.8338 76.2764 33.5446 76.9511 33.3422L74.5124 25.2132C72.9239 25.6897 71.4525 26.419 70.1304 27.4105L75.2225 34.2001ZM76.8975 33.3579C77.7038 33.1275 78.5278 33.0119 79.3811 33.0119V24.525C77.745 24.525 76.1361 24.7489 74.566 25.1975L76.8975 33.3579ZM79.3811 33.0119C80.8761 33.0119 81.8501 33.3655 82.5404 33.8513L87.4246 26.9106C85.0597 25.2464 82.2994 24.525 79.3811 24.525V33.0119ZM82.5404 33.8513C82.6925 33.9583 83.0305 34.1748 83.0305 35.3883H91.5175C91.5175 32.0754 90.3278 28.9536 87.4246 26.9106L82.5404 33.8513ZM123.341 80.9631L124.933 84.8966L127.039 84.044L127.497 81.818L123.341 80.9631ZM115.787 83L115.162 78.8028L115.111 78.8104L115.06 78.8193L115.787 83ZM98.7287 82.8303L97.677 86.9413L97.7325 86.9555L97.7883 86.9682L98.7287 82.8303ZM92.3635 79.9447L89.8869 83.3905L89.8869 83.3905L92.3635 79.9447ZM88.12 74.9374L84.3042 76.7938L84.3142 76.8145L84.3246 76.8351L88.12 74.9374ZM88.12 58.8971L84.1859 57.3067L84.177 57.3287L84.1683 57.3508L88.12 58.8971ZM92.8727 51.9378L89.9979 48.8165L89.9771 48.8357L89.9566 48.855L92.8727 51.9378ZM101.02 47.27L99.6369 43.2583L99.6369 43.2583L101.02 47.27ZM122.322 46.5062L121.375 50.6424L121.416 50.6518L121.457 50.6604L122.322 46.5062ZM129.027 50.495L133.173 51.4018L133.618 49.3667L132.28 47.7698L129.027 50.495ZM126.651 61.3583V65.6018H130.066L130.796 62.2651L126.651 61.3583ZM115.109 61.3583L110.872 61.1091L110.608 65.6018H115.109V61.3583ZM115.278 58.8122L111.047 58.4868L111.047 58.4868L115.278 58.8122ZM114.769 52.5319L110.974 54.4296L111.002 54.4871L111.033 54.5437L114.769 52.5319ZM108.658 53.7201L112.008 56.3253L112.031 56.2959L112.053 56.2661L108.658 53.7201ZM105.688 59.3214L101.694 57.8877L101.683 57.9177L101.673 57.9479L105.688 59.3214ZM103.991 66.1959L99.8023 65.514L99.7956 65.5548L99.7898 65.5957L103.991 66.1959ZM103.566 74.2585L99.3375 74.6109L99.3388 74.6267L99.3402 74.6426L103.566 74.2585ZM103.906 76.0407L99.8412 77.2601L99.8956 77.4412L99.9658 77.6167L103.906 76.0407ZM104.754 77.3986L101.754 80.3992L101.754 80.3992L104.754 77.3986ZM108.149 77.3986L109.927 81.2515L109.927 81.2515L108.149 77.3986ZM110.271 75.871L113.272 78.8716L113.332 78.8116L113.389 78.7492L110.271 75.871ZM112.223 73.0703L115.941 75.1153L115.941 75.1153L112.223 73.0703ZM113.666 68.9965V64.7531H110.235L109.516 68.1074L113.666 68.9965ZM125.802 68.9965L129.959 69.8514L131.007 64.7531H125.802V68.9965ZM121.749 77.0297C119.698 77.8597 117.506 78.4538 115.162 78.8028L116.413 87.1972C119.387 86.7541 122.231 85.9902 124.933 84.8966L121.749 77.0297ZM115.06 78.8193C112.751 79.221 110.031 79.4355 106.876 79.4355V87.9224C110.398 87.9224 113.619 87.6843 116.515 87.1807L115.06 78.8193ZM106.876 79.4355C104.204 79.4355 101.808 79.1783 99.6692 78.6923L97.7883 86.9682C100.629 87.6138 103.664 87.9224 106.876 87.9224V79.4355ZM99.7804 78.7192C97.7954 78.2114 96.1705 77.4551 94.8401 76.4989L89.8869 83.3905C92.1776 85.0369 94.7961 86.2044 97.677 86.9413L99.7804 78.7192ZM94.8401 76.4989C93.6005 75.6079 92.6331 74.4749 91.9155 73.0397L84.3246 76.8351C85.6438 79.4736 87.5055 81.6788 89.8869 83.3905L94.8401 76.4989ZM91.9359 73.081C91.263 71.6979 90.8359 69.8478 90.8359 67.384H82.3489C82.3489 70.8045 82.9402 73.99 84.3042 76.7938L91.9359 73.081ZM90.8359 67.384C90.8359 64.8084 91.2633 62.5093 92.0717 60.4434L84.1683 57.3508C82.9399 60.4902 82.3489 63.8491 82.3489 67.384H90.8359ZM92.0542 60.4875C92.8998 58.3957 94.1358 56.5842 95.7888 55.0205L89.9566 48.855C87.4228 51.2519 85.4903 54.08 84.1859 57.3067L92.0542 60.4875ZM95.7476 55.0591C97.3942 53.5424 99.573 52.2577 102.404 51.2816L99.6369 43.2583C95.9041 44.5455 92.6513 46.3726 89.9979 48.8165L95.7476 55.0591ZM102.404 51.2816C105.128 50.3421 108.541 49.8161 112.732 49.8161V41.3291C107.87 41.3291 103.475 41.9346 99.6369 43.2583L102.404 51.2816ZM112.732 49.8161C116.186 49.8161 119.05 50.1098 121.375 50.6424L123.27 42.3699C120.163 41.6578 116.634 41.3291 112.732 41.3291V49.8161ZM121.457 50.6604C123.255 51.035 124.643 51.8703 125.774 53.2203L132.28 47.7698C129.903 44.9328 126.821 43.1089 123.188 42.3519L121.457 50.6604ZM124.882 49.5882L122.505 60.4515L130.796 62.2651L133.173 51.4018L124.882 49.5882ZM126.651 57.1148H115.109V65.6018H126.651V57.1148ZM119.345 61.6075C119.4 60.6639 119.455 59.8415 119.509 59.1377L111.047 58.4868C110.988 59.254 110.93 60.129 110.872 61.1091L119.345 61.6075ZM119.509 59.1377C119.576 58.2729 119.607 57.3416 119.607 56.351H111.12C111.12 57.171 111.094 57.8805 111.047 58.4868L119.509 59.1377ZM119.607 56.351C119.607 54.4773 119.443 52.2618 118.505 50.5201L111.033 54.5437C110.914 54.3225 110.961 54.3005 111.022 54.6906C111.077 55.0444 111.12 55.584 111.12 56.351H119.607ZM118.565 50.6341C118.069 49.6427 117.302 48.6926 116.19 48.016C115.084 47.3427 113.9 47.1002 112.817 47.1002V55.5872C112.639 55.5872 112.233 55.5427 111.778 55.2655C111.317 54.985 111.073 54.629 110.974 54.4296L118.565 50.6341ZM112.817 47.1002C109.566 47.1002 107.031 48.8175 105.264 51.174L112.053 56.2661C112.381 55.8294 112.61 55.6706 112.695 55.6222C112.752 55.5895 112.769 55.5872 112.817 55.5872V47.1002ZM105.309 51.1148C103.794 53.0621 102.607 55.3452 101.694 57.8877L109.682 60.7552C110.353 58.8845 111.146 57.4333 112.008 56.3253L105.309 51.1148ZM101.673 57.9479C100.854 60.3412 100.233 62.8657 99.8023 65.514L108.179 66.8777C108.54 64.6602 109.051 62.6017 109.703 60.695L101.673 57.9479ZM99.7898 65.5957C99.4325 68.0965 99.2379 70.345 99.2379 72.3065H107.725C107.725 70.8731 107.87 69.0479 108.191 66.796L99.7898 65.5957ZM99.2379 72.3065C99.2379 73.0569 99.272 73.8255 99.3375 74.6109L107.795 73.906C107.747 73.3335 107.725 72.8008 107.725 72.3065H99.2379ZM99.3402 74.6426C99.4211 75.5318 99.5852 76.4068 99.8412 77.2601L107.97 74.8214C107.887 74.5431 107.825 74.2298 107.792 73.8743L99.3402 74.6426ZM99.9658 77.6167C100.35 78.5777 100.914 79.5598 101.754 80.3992L107.755 74.398C107.836 74.479 107.876 74.5394 107.886 74.5555C107.895 74.5704 107.878 74.5457 107.846 74.4647L99.9658 77.6167ZM101.754 80.3992C103.105 81.7507 104.797 82.1513 106.197 82.1513V73.6644C106.265 73.6644 106.481 73.6729 106.782 73.779C107.101 73.8916 107.449 74.092 107.755 74.398L101.754 80.3992ZM106.197 82.1513C107.583 82.1513 108.858 81.7453 109.927 81.2515L106.371 73.5457C106.186 73.6309 106.078 73.6642 106.038 73.6745C105.999 73.6847 106.058 73.6644 106.197 73.6644V82.1513ZM109.927 81.2515C111.193 80.6674 112.303 79.8404 113.272 78.8716L107.27 72.8704C106.881 73.2594 106.576 73.4509 106.371 73.5457L109.927 81.2515ZM113.389 78.7492C114.357 77.7007 115.198 76.4659 115.941 75.1153L108.505 71.0253C108.003 71.9378 107.543 72.5702 107.153 72.9927L113.389 78.7492ZM115.941 75.1153C116.806 73.543 117.41 71.7762 117.815 69.8857L109.516 68.1074C109.243 69.3854 108.885 70.3343 108.505 71.0253L115.941 75.1153ZM113.666 73.24H125.802V64.7531H113.666V73.24ZM121.646 68.1417L119.184 80.1083L127.497 81.818L129.959 69.8514L121.646 68.1417ZM153.001 51.9378L148.851 51.0561L147.762 56.1813H153.001V51.9378ZM153.595 51.9378V56.1813H155.353L156.596 54.9384L153.595 51.9378ZM157.33 48.9674L159.617 52.5415L159.651 52.5201L159.684 52.4981L157.33 48.9674ZM161.573 46.8456L160.068 42.878L160.068 42.878L161.573 46.8456ZM174.388 48.2035L171.75 51.5267L171.78 51.5508L171.811 51.5744L174.388 48.2035ZM177.019 57.03L181.198 57.7674L181.202 57.7475L181.205 57.7276L177.019 57.03ZM176.425 60.1701L180.578 61.0443L180.582 61.0234L180.586 61.0023L176.425 60.1701ZM175.662 63.48L171.545 62.4508L171.525 62.528L171.509 62.6058L175.662 63.48ZM175.067 66.4505L179.216 67.344L179.228 67.2884L179.238 67.2325L175.067 66.4505ZM171.503 83V87.2435H174.93L175.651 83.8935L171.503 83ZM154.274 83L150.122 82.125L149.044 87.2435H154.274V83ZM158.942 60.8491L163.095 61.7241L163.119 61.6098L163.136 61.4943L158.942 60.8491ZM159.367 58.6425L163.501 59.5967L163.509 59.5642L163.516 59.5316L159.367 58.6425ZM158.942 54.4839L155.466 56.9173L155.607 57.1191L155.771 57.3031L158.942 54.4839ZM154.105 54.7385L151.527 51.3677L151.477 51.4056L151.429 51.4451L154.105 54.7385ZM151.983 56.6905L148.829 53.8518L148.069 54.696L147.832 55.8068L151.983 56.6905ZM146.382 83V87.2435H149.817L150.532 83.8836L146.382 83ZM129.068 83L124.916 82.1227L123.834 87.2435H129.068V83ZM141.12 25.9678V21.7243H137.679L136.968 25.0904L141.12 25.9678ZM158.518 25.9678L162.669 26.8495L163.757 21.7243H158.518V25.9678ZM153.001 56.1813H153.595V47.6943H153.001V56.1813ZM156.596 54.9384C157.434 54.1009 158.434 53.2988 159.617 52.5415L155.042 45.3932C153.397 46.4465 151.907 47.6247 150.595 48.9372L156.596 54.9384ZM159.684 52.4981C160.554 51.918 161.671 51.3471 163.078 50.8133L160.068 42.878C158.194 43.5889 156.482 44.4326 154.976 45.4366L159.684 52.4981ZM163.078 50.8133C164.168 50.4 165.486 50.1555 167.09 50.1555V41.6686C164.62 41.6686 162.26 42.0465 160.068 42.878L163.078 50.8133ZM167.09 50.1555C169.27 50.1555 170.717 50.7066 171.75 51.5267L177.027 44.8804C174.213 42.6452 170.794 41.6686 167.09 41.6686V50.1555ZM171.811 51.5744C172.597 52.1756 173.031 52.9189 173.031 54.3141H181.517C181.517 50.5041 180.027 47.1736 176.966 44.8327L171.811 51.5744ZM173.031 54.3141C173.031 54.8147 172.976 55.4794 172.834 56.3323L181.205 57.7276C181.402 56.5437 181.517 55.3978 181.517 54.3141H173.031ZM172.841 56.2925C172.677 57.2177 172.485 58.2324 172.264 59.3379L180.586 61.0023C180.818 59.8447 181.022 58.766 181.198 57.7674L172.841 56.2925ZM172.273 59.2959C172.058 60.316 171.816 61.3676 171.545 62.4508L179.778 64.5092C180.073 63.3293 180.34 62.1743 180.578 61.0443L172.273 59.2959ZM171.509 62.6058C171.277 63.7059 171.073 64.7272 170.897 65.6684L179.238 67.2325C179.401 66.3632 179.593 65.4042 179.814 64.3542L171.509 62.6058ZM170.919 65.557L167.355 82.1065L175.651 83.8935L179.216 67.344L170.919 65.557ZM171.503 78.7565H154.274V87.2435H171.503V78.7565ZM158.427 83.875L163.095 61.7241L154.79 59.9741L150.122 82.125L158.427 83.875ZM163.136 61.4943C163.233 60.8639 163.355 60.2315 163.501 59.5967L155.232 57.6883C155.039 58.5246 154.877 59.3631 154.748 60.2038L163.136 61.4943ZM163.516 59.5316C163.731 58.5296 163.865 57.5158 163.865 56.5207H155.378C155.378 56.7704 155.342 57.1712 155.217 57.7533L163.516 59.5316ZM163.865 56.5207C163.865 54.8981 163.415 53.1284 162.114 51.6647L155.771 57.3031C155.596 57.1066 155.485 56.8946 155.426 56.7169C155.371 56.5519 155.378 56.4701 155.378 56.5207H163.865ZM162.419 52.0504C161.043 50.0856 158.951 49.3917 157.075 49.3917V57.8787C157.036 57.8787 156.779 57.8726 156.422 57.7105C156.035 57.5345 155.698 57.2496 155.466 56.9173L162.419 52.0504ZM157.075 49.3917C154.958 49.3917 153.084 50.1767 151.527 51.3677L156.682 58.1093C156.877 57.9607 156.999 57.9065 157.046 57.8889C157.086 57.8741 157.089 57.8787 157.075 57.8787V49.3917ZM151.429 51.4451C150.432 52.2547 149.541 53.0603 148.829 53.8518L155.137 59.5292C155.443 59.189 155.966 58.6934 156.781 58.0319L151.429 51.4451ZM147.832 55.8068L142.231 82.1164L150.532 83.8836L156.133 57.5741L147.832 55.8068ZM146.382 78.7565H129.068V87.2435H146.382V78.7565ZM133.22 83.8773L145.271 26.8451L136.968 25.0904L124.916 82.1227L133.22 83.8773ZM141.12 30.2112H158.518V21.7243H141.12V30.2112ZM154.367 25.086L148.851 51.0561L157.152 52.8195L162.669 26.8495L154.367 25.086ZM221.061 49.1371L218.456 52.4867L218.462 52.4915L218.468 52.4962L221.061 49.1371ZM224.117 71.2032L228.029 72.8464L228.035 72.8326L228.04 72.8188L224.117 71.2032ZM219.109 78.2473L221.843 81.4932L221.867 81.4724L221.892 81.4513L219.109 78.2473ZM185.501 79.6901L188.317 76.5152L188.292 76.4935L188.267 76.4722L185.501 79.6901ZM182.87 57.1997L179.089 55.2735L179.074 55.302L179.06 55.3308L182.87 57.1997ZM189.405 49.7312L187.04 46.2079L187.006 46.231L186.972 46.2548L189.405 49.7312ZM204.257 75.5315L200.746 73.1488L200.716 73.1924L200.688 73.2368L204.257 75.5315ZM206.803 69.7604L210.895 70.8856L210.898 70.8728L210.902 70.86L206.803 69.7604ZM208.161 62.6313L203.957 62.058L203.951 62.0996L203.946 62.1412L208.161 62.6313ZM208.161 52.6168L204.135 53.9587L204.191 54.1261L204.261 54.2883L208.161 52.6168ZM202.22 53.8049L198.727 51.3958L198.698 51.4372L198.671 51.4794L202.22 53.8049ZM199.589 59.6609L203.654 60.8803L203.654 60.8803L199.589 59.6609ZM198.062 66.6202L193.861 66.0201L193.854 66.0693L193.848 66.1186L198.062 66.6202ZM206.379 49.8161C212.794 49.8161 216.522 50.9828 218.456 52.4867L223.667 45.7875C219.49 42.5388 213.43 41.3291 206.379 41.3291V49.8161ZM218.468 52.4962C220.268 53.8851 221.655 56.4941 221.655 61.528H230.142C230.142 55.0197 228.305 49.3681 223.654 45.778L218.468 52.4962ZM221.655 61.528C221.655 64.6166 221.142 67.2821 220.193 69.5875L228.04 72.8188C229.468 69.353 230.142 65.5686 230.142 61.528H221.655ZM220.204 69.5599C219.248 71.8364 217.948 73.6355 216.327 75.0434L221.892 81.4513C224.571 79.1249 226.609 76.2279 228.029 72.8464L220.204 69.5599ZM216.376 75.0014C213.121 77.7428 208.025 79.4355 200.438 79.4355V87.9224C209.147 87.9224 216.498 85.994 221.843 81.4932L216.376 75.0014ZM200.438 79.4355C193.819 79.4355 190.141 78.1328 188.317 76.5152L182.686 82.865C186.859 86.5659 193.139 87.9224 200.438 87.9224V79.4355ZM188.267 76.4722C186.246 74.735 184.907 71.9234 184.907 67.2143H176.42C176.42 73.5948 178.306 79.1004 182.735 82.908L188.267 76.4722ZM184.907 67.2143C184.907 64.1181 185.522 61.4288 186.68 59.0686L179.06 55.3308C177.276 58.968 176.42 62.9551 176.42 67.2143H184.907ZM186.651 59.1259C187.855 56.7631 189.563 54.8001 191.839 53.2076L186.972 46.2548C183.589 48.6228 180.941 51.6389 179.089 55.2735L186.651 59.1259ZM191.77 53.2545C194.954 51.1172 199.679 49.8161 206.379 49.8161V41.3291C198.708 41.3291 192.117 42.8003 187.04 46.2079L191.77 53.2545ZM200.608 82.1513C203.93 82.1513 206.316 80.1756 207.827 77.8262L200.688 73.2368C200.41 73.6683 200.246 73.7707 200.265 73.7577C200.28 73.7481 200.329 73.7197 200.408 73.696C200.488 73.672 200.559 73.6644 200.608 73.6644V82.1513ZM207.769 77.9142C209.156 75.8698 210.176 73.4993 210.895 70.8856L202.712 68.6352C202.186 70.5478 201.509 72.0248 200.746 73.1488L207.769 77.9142ZM210.902 70.86C211.579 68.3363 212.07 65.7561 212.376 63.1215L203.946 62.1412C203.687 64.3725 203.272 66.545 202.705 68.6608L210.902 70.86ZM212.366 63.2047C212.722 60.5921 212.914 58.241 212.914 56.1813H204.427C204.427 57.7426 204.279 59.6916 203.957 62.058L212.366 63.2047ZM212.914 56.1813C212.914 54.4234 212.745 52.5394 212.062 50.9452L204.261 54.2883C204.239 54.2375 204.291 54.3441 204.342 54.7021C204.391 55.0462 204.427 55.5305 204.427 56.1813H212.914ZM212.187 51.2749C211.791 50.0859 211.026 48.9209 209.779 48.1076C208.58 47.3255 207.29 47.1002 206.209 47.1002V55.5872C206.147 55.5872 205.691 55.5741 205.143 55.2163C204.547 54.8274 204.249 54.2989 204.135 53.9587L212.187 51.2749ZM206.209 47.1002C202.873 47.1002 200.383 48.9949 198.727 51.3958L205.714 56.2141C206.034 55.7492 206.248 55.5992 206.295 55.5704C206.314 55.5581 206.305 55.5666 206.272 55.5762C206.257 55.5805 206.242 55.5835 206.229 55.5854C206.216 55.5872 206.209 55.5872 206.209 55.5872V47.1002ZM198.671 51.4794C197.331 53.5237 196.298 55.864 195.525 58.4416L203.654 60.8803C204.239 58.9315 204.959 57.3678 205.77 56.1305L198.671 51.4794ZM195.525 58.4416C194.784 60.9107 194.23 63.4376 193.861 66.0201L202.263 67.2203C202.573 65.0502 203.037 62.9375 203.654 60.8803L195.525 58.4416ZM193.848 66.1186C193.556 68.5722 193.394 70.682 193.394 72.3913H201.881C201.881 71.1585 202.002 69.4209 202.275 67.1218L193.848 66.1186ZM193.394 72.3913C193.394 74.4723 193.65 76.6957 194.644 78.5405C195.175 79.5265 195.958 80.4798 197.075 81.1711C198.203 81.8698 199.432 82.1513 200.608 82.1513V73.6644C200.794 73.6644 201.156 73.716 201.542 73.955C201.916 74.1865 202.08 74.4504 202.116 74.5169C202.14 74.5608 202.07 74.4442 202 74.0551C201.932 73.6757 201.881 73.1323 201.881 72.3913H193.394Z" fill="#192494" mask="url(#path-1-outside-1_40_2884)"/>
</g>
<g filter="url(#filter1_d_40_2884)">
<mask id="path-3-outside-2_40_2884" maskUnits="userSpaceOnUse" x="59.2871" y="81.0029" width="258" height="61" fill="black">
<rect fill="white" x="59.2871" y="81.0029" width="258" height="61"/>
<path d="M75.5987 88.5001H107.756L106.534 94.3051H90.8752L87.8963 108.283H100.958L99.7356 114.165H86.6742L81.7857 137.003H65.2871L75.5987 88.5001ZM106.442 106.985C109.039 105.712 111.687 104.795 114.386 104.235C117.135 103.624 120.191 103.318 123.551 103.318C126.81 103.318 129.509 103.573 131.648 104.082C133.787 104.591 135.493 105.33 136.766 106.297C138.039 107.265 138.93 108.41 139.439 109.734C139.948 111.058 140.203 112.561 140.203 114.241C140.203 115.208 140.126 116.252 139.974 117.373C139.872 118.493 139.744 119.435 139.592 120.199L136.002 137.003H123.704L122.329 132.114H121.871C120.242 133.897 118.332 135.272 116.142 136.239C114.004 137.156 111.865 137.614 109.726 137.614C108.504 137.614 107.307 137.436 106.136 137.079C104.965 136.723 103.921 136.188 103.005 135.475C102.088 134.711 101.35 133.769 100.789 132.649C100.229 131.478 99.9492 130.078 99.9492 128.448C99.9492 125.8 100.662 123.712 102.088 122.185C103.565 120.606 105.474 119.435 107.817 118.671C110.21 117.856 112.883 117.347 115.837 117.143C118.841 116.94 121.846 116.838 124.85 116.838C124.952 116.329 125.079 115.616 125.232 114.699C125.385 113.732 125.461 112.892 125.461 112.179C125.461 111.262 125.206 110.422 124.697 109.658C124.239 108.843 123.246 108.436 121.718 108.436C119.936 108.436 118.612 108.971 117.746 110.04C116.932 111.058 116.397 112.306 116.142 113.783H104.99L106.442 106.985ZM124.01 120.428H122.635C121.158 120.428 119.885 120.632 118.816 121.039C117.797 121.395 116.957 121.879 116.295 122.49C115.684 123.101 115.226 123.789 114.92 124.553C114.615 125.316 114.462 126.08 114.462 126.844C114.462 128.066 114.767 128.983 115.378 129.594C116.04 130.205 116.804 130.51 117.67 130.51C118.739 130.51 119.783 130.129 120.802 129.365C121.871 128.601 122.533 127.582 122.788 126.309L124.01 120.428ZM121.489 99.6519L128.593 88.5001H141.73L128.058 99.6519H121.489ZM177.001 135.17C174.862 136.035 172.596 136.646 170.203 137.003C167.86 137.41 165.187 137.614 162.182 137.614C159.535 137.614 157.09 137.359 154.85 136.85C152.66 136.29 150.751 135.424 149.121 134.253C147.492 133.082 146.219 131.58 145.302 129.747C144.385 127.862 143.927 125.596 143.927 122.949C143.927 120.199 144.385 117.653 145.302 115.31C146.269 112.917 147.695 110.829 149.579 109.047C151.514 107.265 153.959 105.864 156.912 104.846C159.866 103.827 163.379 103.318 167.453 103.318C170.763 103.318 173.64 103.598 176.084 104.158C178.528 104.668 180.54 105.864 182.118 107.748L179.98 117.525H169.592C169.642 116.66 169.693 115.896 169.744 115.234C169.795 114.572 169.821 113.834 169.821 113.019C169.821 111.389 169.642 110.244 169.286 109.582C168.93 108.869 168.344 108.512 167.529 108.512C166.103 108.512 164.856 109.225 163.786 110.651C162.717 112.026 161.826 113.706 161.113 115.692C160.451 117.627 159.942 119.69 159.585 121.879C159.28 124.018 159.127 125.851 159.127 127.379C159.127 127.939 159.153 128.524 159.204 129.136C159.254 129.696 159.356 130.23 159.509 130.74C159.713 131.249 159.967 131.656 160.273 131.962C160.578 132.267 161.011 132.42 161.571 132.42C162.081 132.42 162.666 132.267 163.328 131.962C163.99 131.656 164.627 131.198 165.238 130.587C165.849 129.925 166.434 129.085 166.995 128.066C167.555 127.048 167.988 125.826 168.293 124.4H179.216L177.001 135.17ZM197.661 137.003H182.155L189.106 104.158H204.764L197.661 137.003ZM206.75 94.1524C206.75 95.3236 206.496 96.342 205.987 97.2077C205.528 98.0733 204.892 98.8117 204.077 99.4228C203.313 100.034 202.422 100.492 201.404 100.798C200.385 101.103 199.341 101.256 198.272 101.256C196.235 101.256 194.529 100.772 193.154 99.8047C191.779 98.8372 191.092 97.3095 191.092 95.2217C191.092 94.1014 191.321 93.1085 191.779 92.2428C192.238 91.3262 192.849 90.5879 193.613 90.0277C194.427 89.4167 195.344 88.9584 196.362 88.6528C197.432 88.3473 198.527 88.1945 199.647 88.1945C201.633 88.1945 203.313 88.6783 204.688 89.6458C206.063 90.6133 206.75 92.1155 206.75 94.1524ZM220.115 137.003H204.533L215.379 85.6739H231.038L220.115 137.003ZM237.15 132.895C237.15 133.611 236.995 134.249 236.683 134.809C236.403 135.369 236.014 135.836 235.516 136.209C235.05 136.583 234.505 136.863 233.883 137.05C233.26 137.267 232.607 137.376 231.922 137.376C230.74 137.376 229.728 137.065 228.888 136.443C228.079 135.789 227.674 134.778 227.674 133.409C227.674 132.693 227.814 132.055 228.095 131.495C228.375 130.935 228.748 130.468 229.215 130.095C229.682 129.721 230.211 129.441 230.802 129.254C231.424 129.037 232.062 128.928 232.716 128.928C233.992 128.928 235.05 129.254 235.89 129.908C236.73 130.53 237.15 131.526 237.15 132.895ZM247.579 137.003H240.017L246.645 105.635H256.214L253.18 119.919H253.507C254.534 118.736 255.685 117.896 256.961 117.398C258.268 116.869 259.559 116.605 260.835 116.605C261.924 116.605 262.827 116.776 263.543 117.118C264.289 117.429 264.881 117.865 265.316 118.425C265.752 118.985 266.063 119.654 266.25 120.432C266.437 121.21 266.53 122.035 266.53 122.906C266.53 123.342 266.499 123.995 266.437 124.867C266.374 125.738 266.234 126.718 266.017 127.807C265.799 128.865 265.488 129.97 265.083 131.121C264.678 132.242 264.134 133.269 263.449 134.202C262.796 135.136 261.956 135.898 260.929 136.489C259.933 137.081 258.735 137.376 257.334 137.376C256.494 137.376 255.67 137.283 254.86 137.096C254.082 136.91 253.367 136.661 252.713 136.349C252.091 136.038 251.531 135.68 251.033 135.276C250.566 134.84 250.224 134.405 250.006 133.969H249.679L247.579 137.003ZM252.853 132.849C253.6 132.849 254.223 132.46 254.72 131.682C255.218 130.873 255.623 129.939 255.934 128.881C256.245 127.792 256.463 126.718 256.588 125.66C256.743 124.571 256.821 123.762 256.821 123.233C256.821 122.61 256.712 122.097 256.494 121.692C256.307 121.288 255.95 121.086 255.421 121.086C254.798 121.086 254.223 121.319 253.694 121.786C253.164 122.222 252.775 122.595 252.527 122.906L250.706 131.262C250.924 131.635 251.204 131.993 251.546 132.335C251.92 132.677 252.355 132.849 252.853 132.849ZM277.964 127.621C277.84 128.305 277.746 128.959 277.684 129.581C277.653 130.203 277.638 130.764 277.638 131.262C277.638 131.542 277.653 131.853 277.684 132.195C277.715 132.537 277.778 132.864 277.871 133.175C277.995 133.455 278.151 133.704 278.338 133.922C278.556 134.109 278.851 134.202 279.225 134.202C279.505 134.202 279.816 134.109 280.158 133.922C280.532 133.735 280.889 133.471 281.232 133.129C281.605 132.786 281.948 132.366 282.259 131.868C282.601 131.37 282.866 130.81 283.052 130.188H290.707L289.494 135.182C288.871 135.587 288.156 135.929 287.347 136.209C286.538 136.489 285.682 136.723 284.779 136.91C283.877 137.065 282.959 137.174 282.025 137.236C281.092 137.33 280.205 137.376 279.365 137.376C277.809 137.376 276.362 137.236 275.024 136.956C273.685 136.676 272.519 136.194 271.523 135.509C270.527 134.825 269.733 133.922 269.142 132.802C268.582 131.65 268.302 130.235 268.302 128.554C268.302 127.029 268.535 125.536 269.002 124.073C269.5 122.61 270.309 121.319 271.429 120.199C272.581 119.047 274.106 118.129 276.004 117.445C277.933 116.76 280.329 116.418 283.192 116.418C286.304 116.418 288.638 116.9 290.194 117.865C291.781 118.83 292.575 120.339 292.575 122.393C292.575 123.233 292.45 124.151 292.201 125.147C291.952 126.111 291.579 126.936 291.081 127.621H277.964ZM284.173 122.066C284.173 121.101 284.017 120.448 283.706 120.105C283.395 119.763 283.021 119.592 282.585 119.592C282.088 119.592 281.621 119.763 281.185 120.105C280.781 120.417 280.407 120.852 280.065 121.412C279.723 121.941 279.411 122.564 279.131 123.28C278.851 123.964 278.618 124.695 278.431 125.473H283.752C283.815 125.1 283.877 124.711 283.939 124.306C284.001 123.964 284.048 123.591 284.079 123.186C284.141 122.782 284.173 122.408 284.173 122.066ZM295.235 116.931C296.386 116.682 297.398 116.402 298.269 116.091C299.14 115.78 299.934 115.391 300.65 114.924C301.396 114.457 302.097 113.882 302.75 113.197C303.435 112.512 304.166 111.672 304.944 110.676H309.752L308.398 116.931H312.039L311.432 120.059H307.745L305.831 129.161C305.675 129.877 305.551 130.515 305.457 131.075C305.364 131.635 305.317 132.071 305.317 132.382C305.317 133.004 305.535 133.393 305.971 133.549C306.438 133.704 307.293 133.782 308.538 133.782L307.838 137.003C307.62 137.065 307.278 137.112 306.811 137.143C306.375 137.174 305.878 137.205 305.317 137.236C304.788 137.299 304.228 137.33 303.637 137.33C303.077 137.361 302.579 137.376 302.143 137.376C301.365 137.376 300.603 137.314 299.856 137.19C299.109 137.096 298.44 136.894 297.849 136.583C297.258 136.241 296.775 135.758 296.402 135.136C296.06 134.513 295.888 133.673 295.888 132.615C295.888 132.242 295.904 131.775 295.935 131.215C295.997 130.655 296.106 130.032 296.262 129.348L298.222 120.059H294.581L295.235 116.931Z"/>
</mask>
<path d="M75.5987 88.5001H107.756L106.534 94.3051H90.8752L87.8963 108.283H100.958L99.7356 114.165H86.6742L81.7857 137.003H65.2871L75.5987 88.5001ZM106.442 106.985C109.039 105.712 111.687 104.795 114.386 104.235C117.135 103.624 120.191 103.318 123.551 103.318C126.81 103.318 129.509 103.573 131.648 104.082C133.787 104.591 135.493 105.33 136.766 106.297C138.039 107.265 138.93 108.41 139.439 109.734C139.948 111.058 140.203 112.561 140.203 114.241C140.203 115.208 140.126 116.252 139.974 117.373C139.872 118.493 139.744 119.435 139.592 120.199L136.002 137.003H123.704L122.329 132.114H121.871C120.242 133.897 118.332 135.272 116.142 136.239C114.004 137.156 111.865 137.614 109.726 137.614C108.504 137.614 107.307 137.436 106.136 137.079C104.965 136.723 103.921 136.188 103.005 135.475C102.088 134.711 101.35 133.769 100.789 132.649C100.229 131.478 99.9492 130.078 99.9492 128.448C99.9492 125.8 100.662 123.712 102.088 122.185C103.565 120.606 105.474 119.435 107.817 118.671C110.21 117.856 112.883 117.347 115.837 117.143C118.841 116.94 121.846 116.838 124.85 116.838C124.952 116.329 125.079 115.616 125.232 114.699C125.385 113.732 125.461 112.892 125.461 112.179C125.461 111.262 125.206 110.422 124.697 109.658C124.239 108.843 123.246 108.436 121.718 108.436C119.936 108.436 118.612 108.971 117.746 110.04C116.932 111.058 116.397 112.306 116.142 113.783H104.99L106.442 106.985ZM124.01 120.428H122.635C121.158 120.428 119.885 120.632 118.816 121.039C117.797 121.395 116.957 121.879 116.295 122.49C115.684 123.101 115.226 123.789 114.92 124.553C114.615 125.316 114.462 126.08 114.462 126.844C114.462 128.066 114.767 128.983 115.378 129.594C116.04 130.205 116.804 130.51 117.67 130.51C118.739 130.51 119.783 130.129 120.802 129.365C121.871 128.601 122.533 127.582 122.788 126.309L124.01 120.428ZM121.489 99.6519L128.593 88.5001H141.73L128.058 99.6519H121.489ZM177.001 135.17C174.862 136.035 172.596 136.646 170.203 137.003C167.86 137.41 165.187 137.614 162.182 137.614C159.535 137.614 157.09 137.359 154.85 136.85C152.66 136.29 150.751 135.424 149.121 134.253C147.492 133.082 146.219 131.58 145.302 129.747C144.385 127.862 143.927 125.596 143.927 122.949C143.927 120.199 144.385 117.653 145.302 115.31C146.269 112.917 147.695 110.829 149.579 109.047C151.514 107.265 153.959 105.864 156.912 104.846C159.866 103.827 163.379 103.318 167.453 103.318C170.763 103.318 173.64 103.598 176.084 104.158C178.528 104.668 180.54 105.864 182.118 107.748L179.98 117.525H169.592C169.642 116.66 169.693 115.896 169.744 115.234C169.795 114.572 169.821 113.834 169.821 113.019C169.821 111.389 169.642 110.244 169.286 109.582C168.93 108.869 168.344 108.512 167.529 108.512C166.103 108.512 164.856 109.225 163.786 110.651C162.717 112.026 161.826 113.706 161.113 115.692C160.451 117.627 159.942 119.69 159.585 121.879C159.28 124.018 159.127 125.851 159.127 127.379C159.127 127.939 159.153 128.524 159.204 129.136C159.254 129.696 159.356 130.23 159.509 130.74C159.713 131.249 159.967 131.656 160.273 131.962C160.578 132.267 161.011 132.42 161.571 132.42C162.081 132.42 162.666 132.267 163.328 131.962C163.99 131.656 164.627 131.198 165.238 130.587C165.849 129.925 166.434 129.085 166.995 128.066C167.555 127.048 167.988 125.826 168.293 124.4H179.216L177.001 135.17ZM197.661 137.003H182.155L189.106 104.158H204.764L197.661 137.003ZM206.75 94.1524C206.75 95.3236 206.496 96.342 205.987 97.2077C205.528 98.0733 204.892 98.8117 204.077 99.4228C203.313 100.034 202.422 100.492 201.404 100.798C200.385 101.103 199.341 101.256 198.272 101.256C196.235 101.256 194.529 100.772 193.154 99.8047C191.779 98.8372 191.092 97.3095 191.092 95.2217C191.092 94.1014 191.321 93.1085 191.779 92.2428C192.238 91.3262 192.849 90.5879 193.613 90.0277C194.427 89.4167 195.344 88.9584 196.362 88.6528C197.432 88.3473 198.527 88.1945 199.647 88.1945C201.633 88.1945 203.313 88.6783 204.688 89.6458C206.063 90.6133 206.75 92.1155 206.75 94.1524ZM220.115 137.003H204.533L215.379 85.6739H231.038L220.115 137.003ZM237.15 132.895C237.15 133.611 236.995 134.249 236.683 134.809C236.403 135.369 236.014 135.836 235.516 136.209C235.05 136.583 234.505 136.863 233.883 137.05C233.26 137.267 232.607 137.376 231.922 137.376C230.74 137.376 229.728 137.065 228.888 136.443C228.079 135.789 227.674 134.778 227.674 133.409C227.674 132.693 227.814 132.055 228.095 131.495C228.375 130.935 228.748 130.468 229.215 130.095C229.682 129.721 230.211 129.441 230.802 129.254C231.424 129.037 232.062 128.928 232.716 128.928C233.992 128.928 235.05 129.254 235.89 129.908C236.73 130.53 237.15 131.526 237.15 132.895ZM247.579 137.003H240.017L246.645 105.635H256.214L253.18 119.919H253.507C254.534 118.736 255.685 117.896 256.961 117.398C258.268 116.869 259.559 116.605 260.835 116.605C261.924 116.605 262.827 116.776 263.543 117.118C264.289 117.429 264.881 117.865 265.316 118.425C265.752 118.985 266.063 119.654 266.25 120.432C266.437 121.21 266.53 122.035 266.53 122.906C266.53 123.342 266.499 123.995 266.437 124.867C266.374 125.738 266.234 126.718 266.017 127.807C265.799 128.865 265.488 129.97 265.083 131.121C264.678 132.242 264.134 133.269 263.449 134.202C262.796 135.136 261.956 135.898 260.929 136.489C259.933 137.081 258.735 137.376 257.334 137.376C256.494 137.376 255.67 137.283 254.86 137.096C254.082 136.91 253.367 136.661 252.713 136.349C252.091 136.038 251.531 135.68 251.033 135.276C250.566 134.84 250.224 134.405 250.006 133.969H249.679L247.579 137.003ZM252.853 132.849C253.6 132.849 254.223 132.46 254.72 131.682C255.218 130.873 255.623 129.939 255.934 128.881C256.245 127.792 256.463 126.718 256.588 125.66C256.743 124.571 256.821 123.762 256.821 123.233C256.821 122.61 256.712 122.097 256.494 121.692C256.307 121.288 255.95 121.086 255.421 121.086C254.798 121.086 254.223 121.319 253.694 121.786C253.164 122.222 252.775 122.595 252.527 122.906L250.706 131.262C250.924 131.635 251.204 131.993 251.546 132.335C251.92 132.677 252.355 132.849 252.853 132.849ZM277.964 127.621C277.84 128.305 277.746 128.959 277.684 129.581C277.653 130.203 277.638 130.764 277.638 131.262C277.638 131.542 277.653 131.853 277.684 132.195C277.715 132.537 277.778 132.864 277.871 133.175C277.995 133.455 278.151 133.704 278.338 133.922C278.556 134.109 278.851 134.202 279.225 134.202C279.505 134.202 279.816 134.109 280.158 133.922C280.532 133.735 280.889 133.471 281.232 133.129C281.605 132.786 281.948 132.366 282.259 131.868C282.601 131.37 282.866 130.81 283.052 130.188H290.707L289.494 135.182C288.871 135.587 288.156 135.929 287.347 136.209C286.538 136.489 285.682 136.723 284.779 136.91C283.877 137.065 282.959 137.174 282.025 137.236C281.092 137.33 280.205 137.376 279.365 137.376C277.809 137.376 276.362 137.236 275.024 136.956C273.685 136.676 272.519 136.194 271.523 135.509C270.527 134.825 269.733 133.922 269.142 132.802C268.582 131.65 268.302 130.235 268.302 128.554C268.302 127.029 268.535 125.536 269.002 124.073C269.5 122.61 270.309 121.319 271.429 120.199C272.581 119.047 274.106 118.129 276.004 117.445C277.933 116.76 280.329 116.418 283.192 116.418C286.304 116.418 288.638 116.9 290.194 117.865C291.781 118.83 292.575 120.339 292.575 122.393C292.575 123.233 292.45 124.151 292.201 125.147C291.952 126.111 291.579 126.936 291.081 127.621H277.964ZM284.173 122.066C284.173 121.101 284.017 120.448 283.706 120.105C283.395 119.763 283.021 119.592 282.585 119.592C282.088 119.592 281.621 119.763 281.185 120.105C280.781 120.417 280.407 120.852 280.065 121.412C279.723 121.941 279.411 122.564 279.131 123.28C278.851 123.964 278.618 124.695 278.431 125.473H283.752C283.815 125.1 283.877 124.711 283.939 124.306C284.001 123.964 284.048 123.591 284.079 123.186C284.141 122.782 284.173 122.408 284.173 122.066ZM295.235 116.931C296.386 116.682 297.398 116.402 298.269 116.091C299.14 115.78 299.934 115.391 300.65 114.924C301.396 114.457 302.097 113.882 302.75 113.197C303.435 112.512 304.166 111.672 304.944 110.676H309.752L308.398 116.931H312.039L311.432 120.059H307.745L305.831 129.161C305.675 129.877 305.551 130.515 305.457 131.075C305.364 131.635 305.317 132.071 305.317 132.382C305.317 133.004 305.535 133.393 305.971 133.549C306.438 133.704 307.293 133.782 308.538 133.782L307.838 137.003C307.62 137.065 307.278 137.112 306.811 137.143C306.375 137.174 305.878 137.205 305.317 137.236C304.788 137.299 304.228 137.33 303.637 137.33C303.077 137.361 302.579 137.376 302.143 137.376C301.365 137.376 300.603 137.314 299.856 137.19C299.109 137.096 298.44 136.894 297.849 136.583C297.258 136.241 296.775 135.758 296.402 135.136C296.06 134.513 295.888 133.673 295.888 132.615C295.888 132.242 295.904 131.775 295.935 131.215C295.997 130.655 296.106 130.032 296.262 129.348L298.222 120.059H294.581L295.235 116.931Z" fill="white"/>
<path d="M75.5987 88.5001V84.2566H72.1626L71.448 87.6176L75.5987 88.5001ZM107.756 88.5001L111.908 89.3743L112.986 84.2566H107.756V88.5001ZM106.534 94.3051V98.5486H109.977L110.686 95.1793L106.534 94.3051ZM90.8752 94.3051V90.0617H87.4408L86.725 93.4206L90.8752 94.3051ZM87.8963 108.283L83.746 107.399L82.6532 112.527H87.8963V108.283ZM100.958 108.283L105.112 109.146L106.174 104.04H100.958V108.283ZM99.7356 114.165V118.408H103.188L103.89 115.028L99.7356 114.165ZM86.6742 114.165V109.921H83.2429L82.5247 113.276L86.6742 114.165ZM81.7857 137.003V141.246H85.217L85.9352 137.891L81.7857 137.003ZM65.2871 137.003L61.1364 136.12L60.0466 141.246H65.2871V137.003ZM75.5987 92.7435H107.756V84.2566H75.5987V92.7435ZM103.603 87.6259L102.381 93.4309L110.686 95.1793L111.908 89.3743L103.603 87.6259ZM106.534 90.0617H90.8752V98.5486H106.534V90.0617ZM86.725 93.4206L83.746 107.399L92.0466 109.168L95.0255 95.1896L86.725 93.4206ZM87.8963 112.527H100.958V104.04H87.8963V112.527ZM96.803 107.42L95.5809 113.301L103.89 115.028L105.112 109.146L96.803 107.42ZM99.7356 109.921H86.6742V118.408H99.7356V109.921ZM82.5247 113.276L77.6362 136.115L85.9352 137.891L90.8237 115.053L82.5247 113.276ZM81.7857 132.759H65.2871V141.246H81.7857V132.759ZM69.4378 137.885L79.7494 89.3825L71.448 87.6176L61.1364 136.12L69.4378 137.885ZM106.442 106.985L104.574 103.174L102.722 104.082L102.292 106.099L106.442 106.985ZM114.386 104.235L115.248 108.39L115.277 108.384L115.306 108.377L114.386 104.235ZM131.648 104.082L130.665 108.21L130.665 108.21L131.648 104.082ZM136.766 106.297L134.198 109.676L134.198 109.676L136.766 106.297ZM139.974 117.373L135.769 116.799L135.756 116.894L135.748 116.988L139.974 117.373ZM139.592 120.199L143.742 121.085L143.747 121.058L143.753 121.031L139.592 120.199ZM136.002 137.003V141.246H139.434L140.152 137.889L136.002 137.003ZM123.704 137.003L119.619 138.152L120.49 141.246H123.704V137.003ZM122.329 132.114L126.414 130.966L125.544 127.871H122.329V132.114ZM121.871 132.114V127.871H120.001L118.739 129.251L121.871 132.114ZM116.142 136.239L117.814 140.139L117.836 140.13L117.857 140.121L116.142 136.239ZM106.136 137.079L107.372 133.02L106.136 137.079ZM103.005 135.475L100.288 138.735L100.343 138.781L100.399 138.825L103.005 135.475ZM100.789 132.649L96.9613 134.48L96.9773 134.514L96.994 134.547L100.789 132.649ZM102.088 122.185L98.9891 119.286L98.9857 119.289L102.088 122.185ZM107.817 118.671L109.132 122.706L109.158 122.697L109.184 122.688L107.817 118.671ZM115.837 117.143L115.55 112.91L115.545 112.91L115.837 117.143ZM124.85 116.838V121.081H128.329L129.011 117.67L124.85 116.838ZM125.232 114.699L129.418 115.397L129.421 115.379L129.423 115.361L125.232 114.699ZM124.697 109.658L120.999 111.738L121.077 111.878L121.166 112.012L124.697 109.658ZM117.746 110.04L114.448 107.37L114.44 107.379L114.433 107.389L117.746 110.04ZM116.142 113.783V118.026H119.717L120.324 114.504L116.142 113.783ZM104.99 113.783L100.841 112.897L99.7455 118.026H104.99V113.783ZM124.01 120.428L128.164 121.291L129.226 116.184H124.01V120.428ZM118.816 121.039L120.218 125.044L120.272 125.025L120.326 125.004L118.816 121.039ZM116.295 122.49L113.417 119.372L113.354 119.43L113.294 119.49L116.295 122.49ZM114.92 124.553L118.86 126.129L118.86 126.129L114.92 124.553ZM115.378 129.594L112.378 132.594L112.438 132.654L112.5 132.712L115.378 129.594ZM120.802 129.365L118.335 125.912L118.295 125.94L118.256 125.97L120.802 129.365ZM122.788 126.309L118.633 125.446L118.63 125.462L118.627 125.477L122.788 126.309ZM121.489 99.6519L117.91 97.3721L113.755 103.895H121.489V99.6519ZM128.593 88.5001V84.2566H126.264L125.014 86.2203L128.593 88.5001ZM141.73 88.5001L144.413 91.7884L153.647 84.2566H141.73V88.5001ZM128.058 99.6519V103.895H129.569L130.74 102.94L128.058 99.6519ZM108.31 110.795C110.603 109.671 112.914 108.874 115.248 108.39L113.523 100.08C110.459 100.716 107.475 101.752 104.574 103.174L108.31 110.795ZM115.306 108.377C117.702 107.845 120.443 107.562 123.551 107.562V99.0748C119.938 99.0748 116.568 99.4028 113.465 100.092L115.306 108.377ZM123.551 107.562C126.622 107.562 128.962 107.805 130.665 108.21L132.631 99.954C130.056 99.341 126.999 99.0748 123.551 99.0748V107.562ZM130.665 108.21C132.431 108.631 133.536 109.173 134.198 109.676L139.333 102.919C137.449 101.486 135.142 100.552 132.631 99.954L130.665 108.21ZM134.198 109.676C134.925 110.228 135.287 110.76 135.478 111.258L143.4 108.211C142.573 106.061 141.152 104.301 139.333 102.919L134.198 109.676ZM135.478 111.258C135.77 112.015 135.959 112.987 135.959 114.241H144.446C144.446 112.134 144.127 110.102 143.4 108.211L135.478 111.258ZM135.959 114.241C135.959 114.988 135.9 115.838 135.769 116.799L144.178 117.946C144.353 116.666 144.446 115.429 144.446 114.241H135.959ZM135.748 116.988C135.654 118.018 135.544 118.8 135.431 119.367L143.753 121.031C143.945 120.07 144.09 118.968 144.2 117.757L135.748 116.988ZM135.442 119.312L131.852 136.116L140.152 137.889L143.742 121.085L135.442 119.312ZM136.002 132.759H123.704V141.246H136.002V132.759ZM127.789 135.854L126.414 130.966L118.244 133.263L119.619 138.152L127.789 135.854ZM122.329 127.871H121.871V136.358H122.329V127.871ZM118.739 129.251C117.503 130.603 116.074 131.63 114.427 132.358L117.857 140.121C120.59 138.913 122.98 137.19 125.003 134.978L118.739 129.251ZM114.471 132.339C112.813 133.049 111.241 133.371 109.726 133.371V141.857C112.488 141.857 115.194 141.262 117.814 140.139L114.471 132.339ZM109.726 133.371C108.923 133.371 108.143 133.254 107.372 133.02L104.901 141.139C106.472 141.617 108.085 141.857 109.726 141.857V133.371ZM107.372 133.02C106.669 132.806 106.095 132.503 105.61 132.126L100.399 138.825C101.747 139.873 103.261 140.64 104.901 141.139L107.372 133.02ZM105.721 132.215C105.277 131.845 104.897 131.375 104.585 130.751L96.994 134.547C97.8026 136.164 98.8993 137.578 100.288 138.735L105.721 132.215ZM104.618 130.818C104.391 130.345 104.193 129.601 104.193 128.448H95.7058C95.7058 130.554 96.0671 132.61 96.9613 134.48L104.618 130.818ZM104.193 128.448C104.193 126.576 104.679 125.628 105.19 125.08L98.9857 119.289C96.6453 121.797 95.7058 125.024 95.7058 128.448H104.193ZM105.187 125.084C106.11 124.097 107.374 123.279 109.132 122.706L106.501 114.637C103.574 115.591 101.02 117.115 98.9891 119.286L105.187 125.084ZM109.184 122.688C111.177 122.01 113.481 121.56 116.129 121.377L115.545 112.91C112.286 113.135 109.243 113.703 106.449 114.654L109.184 122.688ZM116.124 121.377C119.033 121.18 121.942 121.081 124.85 121.081V112.594C121.75 112.594 118.649 112.7 115.55 112.91L116.124 121.377ZM129.011 117.67C129.126 117.094 129.262 116.329 129.418 115.397L121.046 114.002C120.896 114.902 120.777 115.563 120.689 116.006L129.011 117.67ZM129.423 115.361C129.599 114.249 129.704 113.178 129.704 112.179H121.218C121.218 112.605 121.17 113.214 121.04 114.037L129.423 115.361ZM129.704 112.179C129.704 110.423 129.201 108.764 128.228 107.304L121.166 112.012C121.201 112.063 121.208 112.088 121.209 112.092C121.21 112.095 121.218 112.119 121.218 112.179H129.704ZM128.396 107.578C126.791 104.726 123.756 104.192 121.718 104.192V112.679C122.145 112.679 122.18 112.742 121.998 112.667C121.892 112.624 121.716 112.534 121.52 112.369C121.318 112.199 121.137 111.985 120.999 111.738L128.396 107.578ZM121.718 104.192C119.064 104.192 116.346 105.026 114.448 107.37L121.045 112.71C121.034 112.723 121.014 112.743 120.989 112.761C120.965 112.779 120.956 112.78 120.978 112.772C121.026 112.752 121.241 112.679 121.718 112.679V104.192ZM114.433 107.389C113.107 109.046 112.319 110.985 111.961 113.062L120.324 114.504C120.475 113.627 120.756 113.071 121.06 112.691L114.433 107.389ZM116.142 109.539H104.99V118.026H116.142V109.539ZM109.14 114.669L110.592 107.871L102.292 106.099L100.841 112.897L109.14 114.669ZM124.01 116.184H122.635V124.671H124.01V116.184ZM122.635 116.184C120.785 116.184 118.974 116.438 117.305 117.074L120.326 125.004C120.796 124.826 121.532 124.671 122.635 124.671V116.184ZM117.414 117.034C115.954 117.545 114.581 118.298 113.417 119.372L119.173 125.608C119.333 125.461 119.64 125.246 120.218 125.044L117.414 117.034ZM113.294 119.49C112.298 120.486 111.51 121.652 110.98 122.977L118.86 126.129C118.942 125.925 119.07 125.716 119.296 125.491L113.294 119.49ZM110.98 122.977C110.49 124.203 110.218 125.5 110.218 126.844H118.705C118.705 126.66 118.74 126.43 118.86 126.129L110.98 122.977ZM110.218 126.844C110.218 128.72 110.69 130.907 112.378 132.594L118.379 126.593C118.479 126.693 118.558 126.798 118.616 126.895C118.674 126.991 118.703 127.066 118.717 127.106C118.741 127.178 118.705 127.114 118.705 126.844H110.218ZM112.5 132.712C113.911 134.014 115.691 134.754 117.67 134.754V126.267C117.748 126.267 117.879 126.283 118.024 126.341C118.166 126.398 118.244 126.464 118.257 126.476L112.5 132.712ZM117.67 134.754C119.823 134.754 121.739 133.966 123.348 132.759L118.256 125.97C118.031 126.138 117.877 126.209 117.797 126.239C117.723 126.266 117.688 126.267 117.67 126.267V134.754ZM123.268 132.818C125.203 131.436 126.48 129.486 126.949 127.142L118.627 125.477C118.586 125.679 118.539 125.766 118.335 125.912L123.268 132.818ZM126.942 127.173L128.164 121.291L119.855 119.565L118.633 125.446L126.942 127.173ZM125.068 101.932L132.172 90.7799L125.014 86.2203L117.91 97.3721L125.068 101.932ZM128.593 92.7435H141.73V84.2566H128.593V92.7435ZM139.048 85.2117L125.376 96.3636L130.74 102.94L144.413 91.7884L139.048 85.2117ZM128.058 95.4084H121.489V103.895H128.058V95.4084ZM177.001 135.17L178.593 139.103L180.699 138.251L181.157 136.025L177.001 135.17ZM170.203 137.003L169.577 132.806L169.526 132.813L169.476 132.822L170.203 137.003ZM154.85 136.85L153.798 140.961L153.853 140.975L153.909 140.988L154.85 136.85ZM149.121 134.253L146.644 137.699L146.644 137.699L149.121 134.253ZM145.302 129.747L141.486 131.603L141.496 131.624L141.506 131.644L145.302 129.747ZM145.302 115.31L141.368 113.72L141.359 113.742L141.35 113.764L145.302 115.31ZM149.579 109.047L146.704 105.926L146.684 105.945L146.663 105.964L149.579 109.047ZM156.912 104.846L155.529 100.834L155.529 100.834L156.912 104.846ZM176.084 104.158L175.136 108.295L175.177 108.304L175.219 108.313L176.084 104.158ZM182.118 107.748L186.264 108.655L186.709 106.62L185.371 105.023L182.118 107.748ZM179.98 117.525V121.769H183.395L184.125 118.432L179.98 117.525ZM169.592 117.525L165.355 117.276L165.091 121.769H169.592V117.525ZM169.744 115.234L165.513 114.908L165.513 114.908L169.744 115.234ZM169.286 109.582L165.491 111.479L165.519 111.537L165.55 111.593L169.286 109.582ZM163.786 110.651L167.136 113.256L167.159 113.227L167.181 113.197L163.786 110.651ZM161.113 115.692L157.119 114.259L157.108 114.289L157.098 114.319L161.113 115.692ZM159.585 121.879L155.397 121.197L155.39 121.238L155.385 121.279L159.585 121.879ZM159.204 129.136L154.975 129.488L154.976 129.504L154.977 129.52L159.204 129.136ZM159.509 130.74L155.445 131.959L155.499 132.14L155.569 132.316L159.509 130.74ZM160.273 131.962L157.272 134.962L157.272 134.962L160.273 131.962ZM163.328 131.962L165.106 135.815L165.106 135.815L163.328 131.962ZM165.238 130.587L168.238 133.587L168.298 133.527L168.356 133.465L165.238 130.587ZM166.995 128.066L170.713 130.111L170.713 130.111L166.995 128.066ZM168.293 124.4V120.156H164.863L164.144 123.511L168.293 124.4ZM179.216 124.4L183.372 125.255L184.421 120.156H179.216V124.4ZM175.409 131.236C173.595 131.97 171.655 132.496 169.577 132.806L170.828 141.2C173.537 140.797 176.128 140.101 178.593 139.103L175.409 131.236ZM169.476 132.822C167.426 133.179 165.004 133.371 162.182 133.371V141.857C165.37 141.857 168.294 141.642 170.93 141.184L169.476 132.822ZM162.182 133.371C159.804 133.371 157.68 133.142 155.79 132.712L153.909 140.988C156.501 141.577 159.265 141.857 162.182 141.857V133.371ZM155.901 132.739C154.16 132.294 152.747 131.633 151.598 130.807L146.644 137.699C148.754 139.215 151.16 140.287 153.798 140.961L155.901 132.739ZM151.598 130.807C150.539 130.047 149.713 129.08 149.097 127.849L141.506 131.644C142.724 134.079 144.444 136.117 146.644 137.699L151.598 130.807ZM149.118 127.89C148.547 126.716 148.17 125.118 148.17 122.949H139.684C139.684 126.075 140.224 129.009 141.486 131.603L149.118 127.89ZM148.17 122.949C148.17 120.678 148.547 118.662 149.254 116.857L141.35 113.764C140.224 116.643 139.684 119.719 139.684 122.949H148.17ZM149.236 116.901C149.974 115.075 151.052 113.495 152.495 112.13L146.663 105.964C144.339 108.163 142.565 110.759 141.368 113.72L149.236 116.901ZM152.454 112.168C153.886 110.85 155.793 109.72 158.295 108.858L155.529 100.834C152.124 102.008 149.143 103.68 146.704 105.926L152.454 112.168ZM158.295 108.858C160.692 108.031 163.715 107.562 167.453 107.562V99.0748C163.043 99.0748 159.039 99.6237 155.529 100.834L158.295 108.858ZM167.453 107.562C170.539 107.562 173.083 107.824 175.136 108.295L177.032 100.022C174.196 99.3724 170.987 99.0748 167.453 99.0748V107.562ZM175.219 108.313C176.745 108.631 177.91 109.333 178.866 110.474L185.371 105.023C183.169 102.396 180.312 100.705 176.95 100.004L175.219 108.313ZM177.973 106.842L175.834 116.619L184.125 118.432L186.264 108.655L177.973 106.842ZM179.98 113.282H169.592V121.769H179.98V113.282ZM173.828 117.775C173.878 116.927 173.927 116.19 173.975 115.559L165.513 114.908C165.46 115.602 165.407 116.392 165.355 117.276L173.828 117.775ZM173.975 115.559C174.036 114.768 174.064 113.919 174.064 113.019H165.577C165.577 113.748 165.554 114.376 165.513 114.908L173.975 115.559ZM174.064 113.019C174.064 111.326 173.921 109.238 173.022 107.57L165.55 111.593C165.471 111.447 165.447 111.359 165.451 111.372C165.454 111.382 165.472 111.449 165.494 111.59C165.539 111.88 165.577 112.342 165.577 113.019H174.064ZM173.081 107.684C172.606 106.732 171.865 105.812 170.786 105.155C169.712 104.501 168.567 104.269 167.529 104.269V112.756C167.306 112.756 166.861 112.701 166.373 112.404C165.88 112.104 165.61 111.718 165.491 111.479L173.081 107.684ZM167.529 104.269C164.436 104.269 162.04 105.907 160.392 108.105L167.181 113.197C167.449 112.84 167.614 112.74 167.63 112.731C167.636 112.728 167.62 112.737 167.587 112.746C167.572 112.75 167.558 112.753 167.546 112.754C167.534 112.756 167.528 112.756 167.529 112.756V104.269ZM160.437 108.046C159.041 109.84 157.953 111.937 157.119 114.259L165.107 117.126C165.699 115.476 166.393 114.211 167.136 113.256L160.437 108.046ZM157.098 114.319C156.353 116.497 155.789 118.792 155.397 121.197L163.774 122.561C164.095 120.587 164.549 118.757 165.128 117.066L157.098 114.319ZM155.385 121.279C155.061 123.542 154.884 125.587 154.884 127.379H163.371C163.371 126.115 163.499 124.494 163.786 122.479L155.385 121.279ZM154.884 127.379C154.884 128.067 154.915 128.771 154.975 129.488L163.432 128.783C163.39 128.278 163.371 127.811 163.371 127.379H154.884ZM154.977 129.52C155.053 130.347 155.206 131.162 155.445 131.959L163.574 129.52C163.507 129.299 163.456 129.045 163.43 128.751L154.977 129.52ZM155.569 132.316C155.931 133.22 156.467 134.157 157.272 134.962L163.273 128.961C163.468 129.155 163.495 129.278 163.449 129.164L155.569 132.316ZM157.272 134.962C158.59 136.28 160.234 136.663 161.571 136.663V128.177C161.67 128.177 161.914 128.189 162.239 128.304C162.582 128.425 162.95 128.638 163.273 128.961L157.272 134.962ZM161.571 136.663C162.9 136.663 164.11 136.274 165.106 135.815L161.55 128.109C161.478 128.142 161.422 128.164 161.383 128.179C161.343 128.194 161.323 128.199 161.321 128.199C161.32 128.2 161.34 128.194 161.381 128.189C161.422 128.183 161.487 128.177 161.571 128.177V136.663ZM165.106 135.815C166.298 135.264 167.337 134.488 168.238 133.587L162.237 127.586C161.916 127.907 161.682 128.048 161.55 128.109L165.106 135.815ZM168.356 133.465C169.256 132.49 170.032 131.349 170.713 130.111L163.276 126.021C162.837 126.821 162.442 127.36 162.12 127.709L168.356 133.465ZM170.713 130.111C171.515 128.652 172.071 127.021 172.442 125.289L164.144 123.511C163.904 124.63 163.594 125.443 163.276 126.021L170.713 130.111ZM168.293 128.643H179.216V120.156H168.293V128.643ZM175.059 123.545L172.844 134.315L181.157 136.025L183.372 125.255L175.059 123.545ZM197.661 137.003V141.246H201.085L201.808 137.9L197.661 137.003ZM182.155 137.003L178.004 136.124L176.92 141.246H182.155V137.003ZM189.106 104.158V99.915H185.667L184.955 103.28L189.106 104.158ZM204.764 104.158L208.912 105.056L210.024 99.915H204.764V104.158ZM205.987 97.2077L202.329 95.0561L202.281 95.1381L202.236 95.2222L205.987 97.2077ZM204.077 99.4228L201.531 96.028L201.478 96.0678L201.426 96.1092L204.077 99.4228ZM201.404 100.798L200.184 96.7331L200.184 96.7331L201.404 100.798ZM193.154 99.8047L190.712 103.275L190.712 103.275L193.154 99.8047ZM191.779 92.2428L195.53 94.2283L195.553 94.1847L195.575 94.1405L191.779 92.2428ZM193.613 90.0277L196.122 93.4497L196.14 93.4362L196.159 93.4225L193.613 90.0277ZM196.362 88.6528L195.197 84.5726L195.17 84.5803L195.143 84.5883L196.362 88.6528ZM204.688 89.6458L202.246 93.1161L202.246 93.1161L204.688 89.6458ZM197.661 132.759H182.155V141.246H197.661V132.759ZM186.307 137.882L193.258 105.037L184.955 103.28L178.004 136.124L186.307 137.882ZM189.106 108.402H204.764V99.915H189.106V108.402ZM200.617 103.261L193.513 136.106L201.808 137.9L208.912 105.056L200.617 103.261ZM202.507 94.1524C202.507 94.6941 202.395 94.9441 202.329 95.0561L209.644 99.3592C210.597 97.7399 210.994 95.953 210.994 94.1524H202.507ZM202.236 95.2222C202.082 95.513 201.866 95.7769 201.531 96.028L206.623 102.818C207.918 101.847 208.974 100.634 209.737 99.1931L202.236 95.2222ZM201.426 96.1092C201.123 96.352 200.727 96.5702 200.184 96.7331L202.623 104.862C204.117 104.414 205.504 103.716 206.728 102.736L201.426 96.1092ZM200.184 96.7331C199.564 96.9193 198.931 97.0125 198.272 97.0125V105.499C199.752 105.499 201.207 105.287 202.623 104.862L200.184 96.7331ZM198.272 97.0125C196.921 97.0125 196.116 96.7003 195.596 96.3343L190.712 103.275C192.942 104.844 195.549 105.499 198.272 105.499V97.0125ZM195.596 96.3343C195.529 96.2868 195.508 96.2592 195.477 96.1919C195.433 96.0929 195.335 95.8089 195.335 95.2217H186.849C186.849 98.3149 187.932 101.319 190.712 103.275L195.596 96.3343ZM195.335 95.2217C195.335 94.6933 195.439 94.3993 195.53 94.2283L188.029 90.2573C187.203 91.8176 186.849 93.5096 186.849 95.2217H195.335ZM195.575 94.1405C195.757 93.7765 195.946 93.579 196.122 93.4497L191.103 86.6058C189.752 87.5967 188.719 88.8759 187.984 90.3451L195.575 94.1405ZM196.159 93.4225C196.557 93.1241 197.02 92.8858 197.582 92.7173L195.143 84.5883C193.668 85.0309 192.298 85.7093 191.067 86.6329L196.159 93.4225ZM197.528 92.733C198.216 92.5366 198.918 92.438 199.647 92.438V83.9511C198.135 83.9511 196.648 84.158 195.197 84.5726L197.528 92.733ZM199.647 92.438C200.921 92.438 201.708 92.7378 202.246 93.1161L207.13 86.1755C204.918 84.6187 202.344 83.9511 199.647 83.9511V92.438ZM202.246 93.1161C202.33 93.1753 202.351 93.209 202.376 93.2639C202.414 93.3474 202.507 93.6048 202.507 94.1524H210.994C210.994 91.0658 209.881 88.111 207.13 86.1755L202.246 93.1161ZM220.115 137.003V141.246H223.55L224.265 137.886L220.115 137.003ZM204.533 137.003L200.381 136.126L199.299 141.246H204.533V137.003ZM215.379 85.6739V81.4304H211.939L211.227 84.7966L215.379 85.6739ZM231.038 85.6739L235.188 86.5571L236.279 81.4304H231.038V85.6739ZM220.115 132.759H204.533V141.246H220.115V132.759ZM208.685 137.88L219.531 86.5512L211.227 84.7966L200.381 136.126L208.685 137.88ZM215.379 89.9174H231.038V81.4304H215.379V89.9174ZM226.887 84.7907L215.964 136.12L224.265 137.886L235.188 86.5571L226.887 84.7907ZM236.683 134.809L232.974 132.748L232.929 132.829L232.888 132.911L236.683 134.809ZM235.516 136.209L232.97 132.815L232.917 132.854L232.865 132.896L235.516 136.209ZM233.883 137.05L232.663 132.985L232.571 133.013L232.481 133.044L233.883 137.05ZM228.888 136.443L226.222 139.744L226.291 139.8L226.362 139.853L228.888 136.443ZM228.095 131.495L224.299 129.597L224.299 129.597L228.095 131.495ZM229.215 130.095L231.866 133.408L231.866 133.408L229.215 130.095ZM230.802 129.254L232.08 133.301L232.142 133.281L232.204 133.26L230.802 129.254ZM235.89 129.908L233.285 133.257L233.324 133.288L233.364 133.318L235.89 129.908ZM232.907 132.895C232.907 132.944 232.901 132.943 232.911 132.905C232.921 132.864 232.941 132.808 232.974 132.748L240.393 136.87C241.094 135.608 241.394 134.246 241.394 132.895H232.907ZM232.888 132.911C232.89 132.908 232.9 132.888 232.922 132.863C232.943 132.837 232.962 132.821 232.97 132.815L238.062 139.604C239.091 138.833 239.906 137.852 240.479 136.707L232.888 132.911ZM232.865 132.896C232.859 132.901 232.81 132.941 232.663 132.985L235.102 141.114C236.2 140.785 237.24 140.265 238.167 139.523L232.865 132.896ZM232.481 133.044C232.326 133.099 232.148 133.133 231.922 133.133V141.62C233.066 141.62 234.194 141.436 235.284 141.055L232.481 133.044ZM231.922 133.133C231.525 133.133 231.429 133.044 231.414 133.033L226.362 139.853C228.027 141.086 229.955 141.62 231.922 141.62V133.133ZM231.554 133.142C231.637 133.209 231.718 133.292 231.786 133.386C231.854 133.479 231.895 133.562 231.918 133.618C231.96 133.724 231.918 133.687 231.918 133.409H223.431C223.431 135.624 224.119 138.046 226.222 139.744L231.554 133.142ZM231.918 133.409C231.918 133.328 231.926 133.296 231.924 133.303C231.924 133.306 231.921 133.317 231.915 133.334C231.909 133.35 231.901 133.371 231.89 133.393L224.299 129.597C223.685 130.826 223.431 132.129 223.431 133.409H231.918ZM231.89 133.393C231.897 133.379 231.901 133.372 231.902 133.371C231.903 133.369 231.902 133.371 231.898 133.376C231.894 133.38 231.889 133.386 231.883 133.393C231.876 133.399 231.87 133.404 231.866 133.408L226.564 126.781C225.595 127.556 224.84 128.515 224.299 129.597L231.89 133.393ZM231.866 133.408C231.909 133.374 231.969 133.336 232.08 133.301L229.524 125.208C228.453 125.546 227.454 126.069 226.564 126.781L231.866 133.408ZM232.204 133.26C232.38 133.198 232.544 133.171 232.716 133.171V124.684C231.58 124.684 230.469 124.875 229.4 125.249L232.204 133.26ZM232.716 133.171C232.992 133.171 233.147 133.206 233.214 133.227C233.248 133.238 233.265 133.246 233.272 133.249C233.278 133.253 233.281 133.255 233.285 133.257L238.495 126.558C236.77 125.217 234.741 124.684 232.716 124.684V133.171ZM233.364 133.318C233.271 133.249 233.177 133.159 233.093 133.052C233.01 132.946 232.957 132.846 232.925 132.771C232.865 132.628 232.907 132.632 232.907 132.895H241.394C241.394 130.637 240.656 128.158 238.416 126.498L233.364 133.318ZM247.579 137.003V141.246H249.802L251.068 139.418L247.579 137.003ZM240.017 137.003L235.865 136.126L234.783 141.246H240.017V137.003ZM246.645 105.635V101.392H243.205L242.493 104.758L246.645 105.635ZM256.214 105.635L260.365 106.517L261.454 101.392H256.214V105.635ZM253.18 119.919L249.029 119.037L247.941 124.162H253.18V119.919ZM253.507 119.919V124.162H255.442L256.711 122.701L253.507 119.919ZM256.961 117.398L258.504 121.351L258.528 121.342L258.553 121.332L256.961 117.398ZM263.543 117.118L261.712 120.946L261.81 120.993L261.91 121.035L263.543 117.118ZM265.316 118.425L268.666 115.82L268.666 115.82L265.316 118.425ZM266.25 120.432L270.376 119.442L270.376 119.442L266.25 120.432ZM266.437 124.867L270.669 125.169L270.669 125.169L266.437 124.867ZM266.017 127.807L270.173 128.663L270.175 128.651L270.178 128.64L266.017 127.807ZM265.083 131.121L269.074 132.563L269.08 132.545L269.087 132.528L265.083 131.121ZM263.449 134.202L260.027 131.693L260 131.73L259.973 131.769L263.449 134.202ZM260.929 136.489L258.811 132.812L258.787 132.826L258.762 132.841L260.929 136.489ZM254.86 137.096L253.87 141.223L253.888 141.227L253.906 141.231L254.86 137.096ZM252.713 136.349L250.816 140.145L250.852 140.163L250.889 140.181L252.713 136.349ZM251.033 135.276L248.137 138.378L248.244 138.477L248.357 138.569L251.033 135.276ZM250.006 133.969L253.801 132.071L252.629 129.725H250.006V133.969ZM249.679 133.969V129.725H247.456L246.19 131.553L249.679 133.969ZM254.72 131.682L258.295 133.969L258.315 133.938L258.334 133.906L254.72 131.682ZM255.934 128.881L260.005 130.078L260.01 130.063L260.014 130.047L255.934 128.881ZM256.588 125.66L252.387 125.06L252.379 125.112L252.373 125.164L256.588 125.66ZM256.494 121.692L252.641 123.471L252.696 123.589L252.758 123.704L256.494 121.692ZM253.694 121.786L256.391 125.062L256.447 125.016L256.501 124.968L253.694 121.786ZM252.527 122.906L249.213 120.255L248.592 121.031L248.38 122.003L252.527 122.906ZM250.706 131.262L246.56 130.358L246.208 131.973L247.041 133.4L250.706 131.262ZM251.546 132.335L248.546 135.336L248.611 135.401L248.679 135.463L251.546 132.335ZM247.579 132.759H240.017V141.246H247.579V132.759ZM244.169 137.88L250.797 106.513L242.493 104.758L235.865 136.126L244.169 137.88ZM246.645 109.879H256.214V101.392H246.645V109.879ZM252.063 104.753L249.029 119.037L257.331 120.8L260.365 106.517L252.063 104.753ZM253.18 124.162H253.507V115.675H253.18V124.162ZM256.711 122.701C257.352 121.963 257.955 121.565 258.504 121.351L255.418 113.445C253.415 114.227 251.715 115.51 250.303 117.136L256.711 122.701ZM258.553 121.332C259.407 120.986 260.16 120.848 260.835 120.848V112.361C258.959 112.361 257.128 112.752 255.369 113.465L258.553 121.332ZM260.835 120.848C261.514 120.848 261.739 120.959 261.712 120.946L265.373 113.29C263.914 112.592 262.335 112.361 260.835 112.361V120.848ZM261.91 121.035C262.001 121.073 262.033 121.098 262.029 121.094C262.027 121.093 262.019 121.087 262.006 121.075C261.994 121.063 261.98 121.048 261.967 121.03L268.666 115.82C267.721 114.604 266.501 113.754 265.175 113.201L261.91 121.035ZM261.967 121.03C261.987 121.056 262.06 121.157 262.124 121.422L270.376 119.442C270.067 118.151 269.517 116.914 268.666 115.82L261.967 121.03ZM262.124 121.422C262.226 121.849 262.287 122.339 262.287 122.906H270.773C270.773 121.731 270.647 120.572 270.376 119.442L262.124 121.422ZM262.287 122.906C262.287 123.185 262.265 123.715 262.204 124.564L270.669 125.169C270.733 124.276 270.773 123.499 270.773 122.906H262.287ZM262.204 124.564C262.157 125.218 262.047 126.016 261.855 126.975L270.178 128.64C270.422 127.42 270.592 126.258 270.669 125.169L262.204 124.564ZM261.86 126.952C261.685 127.801 261.429 128.721 261.079 129.715L269.087 132.528C269.546 131.219 269.912 129.93 270.173 128.663L261.86 126.952ZM261.092 129.68C260.821 130.43 260.465 131.096 260.027 131.693L266.871 136.712C267.803 135.442 268.536 134.053 269.074 132.563L261.092 129.68ZM259.973 131.769C259.69 132.173 259.322 132.518 258.811 132.812L263.046 140.167C264.59 139.278 265.901 138.099 266.926 136.636L259.973 131.769ZM258.762 132.841C258.547 132.969 258.132 133.133 257.334 133.133V141.62C259.338 141.62 261.319 141.193 263.095 140.138L258.762 132.841ZM257.334 133.133C256.812 133.133 256.307 133.075 255.815 132.961L253.906 141.231C255.032 141.491 256.177 141.62 257.334 141.62V133.133ZM255.851 132.97C255.331 132.845 254.898 132.69 254.538 132.518L250.889 140.181C251.836 140.632 252.834 140.974 253.87 141.223L255.851 132.97ZM254.611 132.554C254.242 132.37 253.947 132.176 253.709 131.982L248.357 138.569C249.114 139.185 249.939 139.707 250.816 140.145L254.611 132.554ZM253.928 132.174C253.831 132.083 253.781 132.024 253.763 132.001C253.745 131.978 253.766 132.001 253.801 132.071L246.21 135.867C246.712 136.87 247.41 137.699 248.137 138.378L253.928 132.174ZM250.006 129.725H249.679V138.212H250.006V129.725ZM246.19 131.553L244.09 134.588L251.068 139.418L253.168 136.384L246.19 131.553ZM252.853 137.092C255.4 137.092 257.228 135.635 258.295 133.969L251.146 129.394C251.151 129.386 251.29 129.172 251.631 128.958C252.007 128.724 252.446 128.605 252.853 128.605V137.092ZM258.334 133.906C259.058 132.73 259.604 131.441 260.005 130.078L251.863 127.684C251.641 128.437 251.379 129.016 251.106 129.458L258.334 133.906ZM260.014 130.047C260.384 128.752 260.649 127.454 260.802 126.156L252.373 125.164C252.277 125.982 252.106 126.832 251.854 127.715L260.014 130.047ZM260.788 126.26C260.949 125.137 261.064 124.079 261.064 123.233H252.577C252.577 123.445 252.537 124.005 252.387 125.06L260.788 126.26ZM261.064 123.233C261.064 122.146 260.878 120.884 260.23 119.681L252.758 123.704C252.546 123.31 252.577 123.075 252.577 123.233H261.064ZM260.347 119.914C259.914 118.976 259.193 118.119 258.174 117.543C257.2 116.993 256.212 116.842 255.421 116.842V125.329C255.158 125.329 254.613 125.279 253.998 124.932C253.336 124.558 252.888 124.005 252.641 123.471L260.347 119.914ZM255.421 116.842C253.626 116.842 252.08 117.551 250.886 118.604L256.501 124.968C256.455 125.009 256.328 125.107 256.116 125.193C255.897 125.282 255.655 125.329 255.421 125.329V116.842ZM250.996 118.51C250.377 119.02 249.73 119.609 249.213 120.255L255.84 125.557C255.817 125.587 255.84 125.554 255.944 125.454C256.043 125.358 256.189 125.228 256.391 125.062L250.996 118.51ZM248.38 122.003L246.56 130.358L254.852 132.165L256.673 123.809L248.38 122.003ZM247.041 133.4C247.463 134.123 247.976 134.766 248.546 135.336L254.547 129.335C254.432 129.22 254.385 129.147 254.372 129.123L247.041 133.4ZM248.679 135.463C249.82 136.509 251.273 137.092 252.853 137.092V128.605C253.101 128.605 253.397 128.65 253.705 128.771C254.011 128.891 254.248 129.055 254.414 129.207L248.679 135.463ZM277.964 127.621V123.377H274.423L273.789 126.862L277.964 127.621ZM277.684 129.581L273.462 129.159L273.451 129.264L273.446 129.369L277.684 129.581ZM277.871 133.175L273.806 134.395L273.884 134.653L273.993 134.899L277.871 133.175ZM278.338 133.922L275.116 136.684L275.328 136.932L275.576 137.144L278.338 133.922ZM280.158 133.922L278.26 130.127L278.193 130.161L278.126 130.197L280.158 133.922ZM281.232 133.129L278.364 130.001L278.296 130.063L278.231 130.128L281.232 133.129ZM282.259 131.868L278.762 129.464L278.709 129.541L278.66 129.619L282.259 131.868ZM283.052 130.188V125.944H279.895L278.988 128.969L283.052 130.188ZM290.707 130.188L294.831 131.19L296.106 125.944H290.707V130.188ZM289.494 135.182L291.806 138.74L293.219 137.822L293.617 136.184L289.494 135.182ZM287.347 136.209L288.735 140.219L288.735 140.219L287.347 136.209ZM284.779 136.91L285.5 141.091L285.57 141.079L285.639 141.065L284.779 136.91ZM282.025 137.236L281.743 133.002L281.673 133.007L281.603 133.014L282.025 137.236ZM275.024 136.956L274.154 141.11L274.154 141.11L275.024 136.956ZM271.523 135.509L273.927 132.012L273.927 132.012L271.523 135.509ZM269.142 132.802L265.326 134.658L265.357 134.721L265.389 134.783L269.142 132.802ZM269.002 124.073L264.985 122.706L264.972 122.744L264.96 122.783L269.002 124.073ZM271.429 120.199L268.429 117.198L268.429 117.198L271.429 120.199ZM276.004 117.445L274.585 113.446L274.574 113.449L274.564 113.453L276.004 117.445ZM290.194 117.865L287.958 121.471L287.974 121.481L287.99 121.491L290.194 117.865ZM292.201 125.147L296.31 126.207L296.314 126.191L296.318 126.176L292.201 125.147ZM291.081 127.621V131.864H293.242L294.513 130.117L291.081 127.621ZM281.185 120.105L283.772 123.469L283.79 123.456L283.807 123.442L281.185 120.105ZM280.065 121.412L283.628 123.718L283.657 123.672L283.686 123.625L280.065 121.412ZM279.131 123.28L283.059 124.886L283.071 124.856L283.083 124.826L279.131 123.28ZM278.431 125.473L274.305 124.483L273.049 129.717H278.431V125.473ZM283.752 125.473V129.717H287.347L287.938 126.171L283.752 125.473ZM283.939 124.306L279.764 123.547L279.754 123.604L279.745 123.661L283.939 124.306ZM284.079 123.186L279.885 122.541L279.861 122.7L279.848 122.861L284.079 123.186ZM273.789 126.862C273.647 127.646 273.537 128.412 273.462 129.159L281.907 130.003C281.956 129.506 282.033 128.965 282.139 128.38L273.789 126.862ZM273.446 129.369C273.412 130.045 273.394 130.678 273.394 131.262H281.881C281.881 130.849 281.894 130.361 281.922 129.793L273.446 129.369ZM273.394 131.262C273.394 131.695 273.418 132.137 273.458 132.579L281.91 131.811C281.888 131.569 281.881 131.388 281.881 131.262H273.394ZM273.458 132.579C273.514 133.188 273.627 133.796 273.806 134.395L281.935 131.956C281.928 131.932 281.917 131.886 281.91 131.811L273.458 132.579ZM273.993 134.899C274.273 135.529 274.644 136.133 275.116 136.684L281.56 131.161C281.658 131.276 281.717 131.382 281.749 131.452L273.993 134.899ZM275.576 137.144C276.77 138.168 278.149 138.446 279.225 138.446V129.959C279.553 129.959 280.341 130.05 281.099 130.7L275.576 137.144ZM279.225 138.446C280.439 138.446 281.456 138.048 282.19 137.647L278.126 130.197C278.176 130.17 278.571 129.959 279.225 129.959V138.446ZM282.056 137.718C282.896 137.297 283.618 136.744 284.232 136.129L278.231 130.128C278.196 130.163 278.18 130.175 278.184 130.171C278.189 130.168 278.215 130.15 278.26 130.127L282.056 137.718ZM284.099 136.257C284.795 135.619 285.374 134.89 285.857 134.117L278.66 129.619C278.521 129.843 278.415 129.954 278.364 130.001L284.099 136.257ZM285.756 134.272C286.366 133.385 286.813 132.42 287.117 131.407L278.988 128.969C278.918 129.201 278.837 129.356 278.762 129.464L285.756 134.272ZM283.052 134.431H290.707V125.944H283.052V134.431ZM286.584 129.186L285.37 134.181L293.617 136.184L294.831 131.19L286.584 129.186ZM287.181 131.625C286.888 131.815 286.491 132.015 285.959 132.199L288.735 140.219C289.821 139.844 290.855 139.359 291.806 138.74L287.181 131.625ZM285.959 132.199C285.335 132.415 284.656 132.602 283.92 132.754L285.639 141.065C286.707 140.844 287.74 140.564 288.735 140.219L285.959 132.199ZM284.058 132.728C283.304 132.858 282.533 132.95 281.743 133.002L282.308 141.47C283.385 141.399 284.45 141.273 285.5 141.091L284.058 132.728ZM281.603 133.014C280.794 133.095 280.049 133.133 279.365 133.133V141.62C280.361 141.62 281.39 141.565 282.448 141.459L281.603 133.014ZM279.365 133.133C278.062 133.133 276.909 133.015 275.893 132.803L274.154 141.11C275.814 141.457 277.556 141.62 279.365 141.62V133.133ZM275.893 132.803C275.033 132.623 274.403 132.34 273.927 132.012L269.119 139.006C270.634 140.048 272.338 140.73 274.154 141.11L275.893 132.803ZM273.927 132.012C273.524 131.736 273.182 131.365 272.895 130.821L265.389 134.783C266.285 136.48 267.53 137.914 269.119 139.006L273.927 132.012ZM272.958 130.946C272.753 130.524 272.545 129.784 272.545 128.554H264.058C264.058 130.685 264.411 132.777 265.326 134.658L272.958 130.946ZM272.545 128.554C272.545 127.47 272.71 126.412 273.045 125.363L264.96 122.783C264.361 124.66 264.058 126.588 264.058 128.554H272.545ZM273.019 125.441C273.302 124.609 273.757 123.872 274.43 123.199L268.429 117.198C266.861 118.766 265.698 120.612 264.985 122.706L273.019 125.441ZM274.43 123.199C275.048 122.582 275.995 121.959 277.444 121.437L274.564 113.453C272.216 114.3 270.114 115.513 268.429 117.198L274.43 123.199ZM277.423 121.444C278.755 120.971 280.635 120.661 283.192 120.661V112.174C280.024 112.174 277.112 112.549 274.585 113.446L277.423 121.444ZM283.192 120.661C286.003 120.661 287.394 121.122 287.958 121.471L292.43 114.258C289.882 112.679 286.605 112.174 283.192 112.174V120.661ZM287.99 121.491C288.099 121.557 288.154 121.608 288.178 121.633C288.2 121.656 288.212 121.674 288.223 121.695C288.241 121.728 288.331 121.914 288.331 122.393H296.818C296.818 119.045 295.404 116.066 292.398 114.239L287.99 121.491ZM288.331 122.393C288.331 122.819 288.267 123.387 288.084 124.117L296.318 126.176C296.633 124.915 296.818 123.646 296.818 122.393H288.331ZM288.092 124.086C287.954 124.624 287.783 124.941 287.649 125.125L294.513 130.117C295.375 128.931 295.951 127.599 296.31 126.207L288.092 124.086ZM291.081 123.377H277.964V131.864H291.081V123.377ZM288.416 122.066C288.416 121.383 288.364 120.624 288.184 119.869C288.01 119.14 287.653 118.139 286.846 117.251L280.566 122.96C280.31 122.679 280.157 122.411 280.068 122.222C279.98 122.034 279.942 121.894 279.928 121.835C279.904 121.734 279.929 121.784 279.929 122.066H288.416ZM286.846 117.251C285.786 116.086 284.298 115.349 282.585 115.349V123.835C282.231 123.835 281.826 123.762 281.424 123.578C281.029 123.397 280.747 123.159 280.566 122.96L286.846 117.251ZM282.585 115.349C281.029 115.349 279.657 115.909 278.563 116.769L283.807 123.442C283.714 123.515 283.553 123.62 283.323 123.704C283.088 123.791 282.834 123.835 282.585 123.835V115.349ZM278.598 116.742C277.682 117.446 276.983 118.317 276.444 119.2L283.686 123.625C283.755 123.511 283.803 123.451 283.824 123.427C283.843 123.404 283.828 123.426 283.772 123.469L278.598 116.742ZM276.502 119.107C275.976 119.921 275.542 120.808 275.18 121.733L283.083 124.826C283.281 124.32 283.469 123.962 283.628 123.718L276.502 119.107ZM275.204 121.673C274.835 122.573 274.538 123.512 274.305 124.483L282.557 126.464C282.698 125.879 282.867 125.355 283.059 124.886L275.204 121.673ZM278.431 129.717H283.752V121.23H278.431V129.717ZM287.938 126.171C288.004 125.779 288.069 125.372 288.133 124.952L279.745 123.661C279.685 124.05 279.626 124.421 279.567 124.776L287.938 126.171ZM288.114 125.066C288.206 124.559 288.27 124.038 288.31 123.512L279.848 122.861C279.826 123.143 279.796 123.37 279.764 123.547L288.114 125.066ZM288.273 123.831C288.362 123.253 288.416 122.661 288.416 122.066H279.929C279.929 122.155 279.921 122.31 279.885 122.541L288.273 123.831ZM295.235 116.931L294.338 112.784L291.645 113.366L291.081 116.063L295.235 116.931ZM298.269 116.091L299.696 120.087L299.696 120.087L298.269 116.091ZM300.65 114.924L298.401 111.326L298.366 111.347L298.331 111.37L300.65 114.924ZM302.75 113.197L299.749 110.196L299.715 110.231L299.681 110.267L302.75 113.197ZM304.944 110.676V106.433H302.874L301.6 108.064L304.944 110.676ZM309.752 110.676L313.899 111.574L315.012 106.433H309.752V110.676ZM308.398 116.931L304.251 116.034L303.138 121.175H308.398V116.931ZM312.039 116.931L316.205 117.74L317.185 112.688H312.039V116.931ZM311.432 120.059V124.302H314.931L315.598 120.867L311.432 120.059ZM307.745 120.059V115.815H304.301L303.592 119.186L307.745 120.059ZM305.831 129.161L309.977 130.062L309.981 130.048L309.984 130.034L305.831 129.161ZM305.457 131.075L309.643 131.772L309.643 131.772L305.457 131.075ZM305.971 133.549L304.544 137.545L304.586 137.56L304.629 137.574L305.971 133.549ZM308.538 133.782L312.685 134.684L313.803 129.539H308.538V133.782ZM307.838 137.003L309.004 141.083L311.445 140.386L311.985 137.904L307.838 137.003ZM306.811 137.143L306.529 132.909L306.519 132.91L306.509 132.91L306.811 137.143ZM305.317 137.236L305.082 132.999L304.951 133.007L304.822 133.022L305.317 137.236ZM303.637 137.33V133.086H303.519L303.402 133.093L303.637 137.33ZM299.856 137.19L300.554 133.004L300.468 132.99L300.382 132.979L299.856 137.19ZM297.849 136.583L295.723 140.255L295.797 140.298L295.872 140.338L297.849 136.583ZM296.402 135.136L292.684 137.181L292.722 137.251L292.763 137.319L296.402 135.136ZM295.935 131.215L291.718 130.746L291.705 130.863L291.698 130.979L295.935 131.215ZM296.262 129.348L300.4 130.288L300.407 130.256L300.414 130.224L296.262 129.348ZM298.222 120.059L302.374 120.935L303.455 115.815H298.222V120.059ZM294.581 120.059L290.428 119.191L289.36 124.302H294.581V120.059ZM296.132 121.079C297.417 120.801 298.612 120.474 299.696 120.087L296.842 112.095C296.183 112.33 295.356 112.564 294.338 112.784L296.132 121.079ZM299.696 120.087C300.855 119.673 301.951 119.141 302.968 118.479L298.331 111.37C297.916 111.641 297.425 111.886 296.842 112.095L299.696 120.087ZM302.899 118.523C303.967 117.855 304.94 117.049 305.82 116.127L299.681 110.267C299.253 110.714 298.826 111.06 298.401 111.326L302.899 118.523ZM305.751 116.198C306.588 115.36 307.434 114.382 308.288 113.289L301.6 108.064C300.898 108.962 300.282 109.664 299.749 110.196L305.751 116.198ZM304.944 114.92H309.752V106.433H304.944V114.92ZM305.604 109.779L304.251 116.034L312.546 117.829L313.899 111.574L305.604 109.779ZM308.398 121.175H312.039V112.688H308.398V121.175ZM307.873 116.123L307.266 119.25L315.598 120.867L316.205 117.74L307.873 116.123ZM311.432 115.815H307.745V124.302H311.432V115.815ZM303.592 119.186L301.678 128.288L309.984 130.034L311.897 120.932L303.592 119.186ZM301.684 128.26C301.518 129.025 301.379 129.733 301.272 130.377L309.643 131.772C309.722 131.297 309.833 130.729 309.977 130.062L301.684 128.26ZM301.272 130.377C301.166 131.013 301.074 131.72 301.074 132.382H309.561C309.561 132.424 309.559 132.397 309.572 132.274C309.584 132.158 309.606 131.993 309.643 131.772L301.272 130.377ZM301.074 132.382C301.074 133.146 301.202 134.184 301.778 135.214C302.409 136.339 303.4 137.136 304.544 137.545L307.398 129.552C308.106 129.805 308.771 130.33 309.183 131.067C309.542 131.708 309.561 132.24 309.561 132.382H301.074ZM304.629 137.574C305.827 137.974 307.326 138.026 308.538 138.026V129.539C307.993 129.539 307.605 129.521 307.347 129.498C307.221 129.486 307.153 129.476 307.131 129.472C307.103 129.467 307.176 129.477 307.313 129.523L304.629 137.574ZM304.392 132.881L303.691 136.101L311.985 137.904L312.685 134.684L304.392 132.881ZM306.672 132.923C306.761 132.898 306.821 132.885 306.841 132.881C306.864 132.877 306.867 132.877 306.845 132.88C306.823 132.883 306.786 132.887 306.732 132.893C306.677 132.898 306.61 132.903 306.529 132.909L307.093 141.377C307.613 141.342 308.331 141.275 309.004 141.083L306.672 132.923ZM306.509 132.91C306.101 132.939 305.626 132.969 305.082 132.999L305.553 141.473C306.129 141.441 306.65 141.409 307.113 141.376L306.509 132.91ZM304.822 133.022C304.474 133.063 304.08 133.086 303.637 133.086V141.573C304.376 141.573 305.103 141.534 305.813 141.451L304.822 133.022ZM303.402 133.093C302.899 133.121 302.482 133.133 302.143 133.133V141.62C302.676 141.62 303.255 141.601 303.872 141.567L303.402 133.093ZM302.143 133.133C301.593 133.133 301.064 133.089 300.554 133.004L299.158 141.375C300.142 141.539 301.138 141.62 302.143 141.62V133.133ZM300.382 132.979C300.079 132.941 299.911 132.873 299.825 132.828L295.872 140.338C296.969 140.915 298.14 141.252 299.33 141.4L300.382 132.979ZM299.975 132.91C299.985 132.916 299.998 132.924 300.011 132.935C300.024 132.945 300.035 132.955 300.044 132.964C300.064 132.983 300.06 132.985 300.041 132.953L292.763 137.319C293.483 138.518 294.47 139.53 295.723 140.255L299.975 132.91ZM300.12 133.091C300.193 133.223 300.192 133.277 300.175 133.192C300.157 133.106 300.132 132.923 300.132 132.615H291.645C291.645 134.065 291.869 135.699 292.684 137.181L300.12 133.091ZM300.132 132.615C300.132 132.349 300.143 131.967 300.172 131.45L291.698 130.979C291.665 131.583 291.645 132.135 291.645 132.615H300.132ZM300.153 131.683C300.194 131.315 300.271 130.853 300.4 130.288L292.124 128.407C291.941 129.212 291.801 129.995 291.718 130.746L300.153 131.683ZM300.414 130.224L302.374 120.935L294.07 119.182L292.11 128.471L300.414 130.224ZM298.222 115.815H294.581V124.302H298.222V115.815ZM298.735 120.927L299.389 117.799L291.081 116.063L290.428 119.191L298.735 120.927Z" fill="#192494" mask="url(#path-3-outside-2_40_2884)"/>
</g>
<defs>
<filter id="filter0_d_40_2884" x="5.87826" y="25.9678" width="220.021" height="66.1981" filterUnits="userSpaceOnUse" color-interpolation-filters="sRGB">
<feFlood flood-opacity="0" result="BackgroundImageFix"/>
<feColorMatrix in="SourceAlpha" type="matrix" values="0 0 0 0 0 0 0 0 0 0 0 0 0 0 0 0 0 0 127 0" result="hardAlpha"/>
<feOffset dx="-2.12174" dy="8.48694"/>
<feComposite in2="hardAlpha" operator="out"/>
<feColorMatrix type="matrix" values="0 0 0 0 0.0980392 0 0 0 0 0.141176 0 0 0 0 0.580392 0 0 0 1 0"/>
<feBlend mode="normal" in2="BackgroundImageFix" result="effect1_dropShadow_40_2884"/>
<feBlend mode="normal" in="SourceGraphic" in2="effect1_dropShadow_40_2884" result="shape"/>
</filter>
<filter id="filter1_d_40_2884" x="63.1654" y="85.6738" width="248.874" height="60.4271" filterUnits="userSpaceOnUse" color-interpolation-filters="sRGB">
<feFlood flood-opacity="0" result="BackgroundImageFix"/>
<feColorMatrix in="SourceAlpha" type="matrix" values="0 0 0 0 0 0 0 0 0 0 0 0 0 0 0 0 0 0 127 0" result="hardAlpha"/>
<feOffset dx="-2.12174" dy="8.48694"/>
<feComposite in2="hardAlpha" operator="out"/>
<feColorMatrix type="matrix" values="0 0 0 0 0.0980392 0 0 0 0 0.141176 0 0 0 0 0.580392 0 0 0 1 0"/>
<feBlend mode="normal" in2="BackgroundImageFix" result="effect1_dropShadow_40_2884"/>
<feBlend mode="normal" in="SourceGraphic" in2="effect1_dropShadow_40_2884" result="shape"/>
</filter>
</defs>
</svg>
