<svg width="308" height="159" viewBox="0 0 308 159" fill="none" xmlns="http://www.w3.org/2000/svg">
<g filter="url(#filter0_d_735_15)">
<mask id="path-1-outside-1_735_15" maskUnits="userSpaceOnUse" x="-3" y="21" width="229" height="67" fill="black">
<rect fill="white" x="-3" y="21" width="229" height="67"/>
<path d="M55.0249 41.414C55.0249 43.0548 54.7703 44.5259 54.2611 45.8272C53.8085 47.1285 53.1578 48.2884 52.3091 49.3068C51.4604 50.3253 50.4703 51.2306 49.3387 52.0227C48.2071 52.8148 46.9624 53.5503 45.6044 54.2293C46.2268 54.4556 46.9624 54.8234 47.811 55.3326C48.6597 55.7852 49.4801 56.4359 50.2723 57.2846C51.0644 58.1333 51.715 59.2366 52.2243 60.5945C52.7901 61.8958 53.073 63.5083 53.073 65.432C53.073 67.9781 52.5354 70.3262 51.4604 72.4762C50.3854 74.6262 48.7729 76.4933 46.6229 78.0776C44.5294 79.6052 41.9268 80.8217 38.8149 81.727C35.7596 82.5757 32.2234 83 28.2062 83H3L14.4574 29.1079H36.778C38.9846 29.1079 41.1629 29.2777 43.313 29.6171C45.5196 29.9 47.4716 30.4941 49.169 31.3994C50.9229 32.3047 52.3374 33.5777 53.4124 35.2185C54.4874 36.8028 55.0249 38.8679 55.0249 41.414ZM31.9405 51.6832C33.1852 51.6832 34.2319 51.3154 35.0806 50.5799C35.9859 49.8443 36.7214 48.9391 37.2872 47.8641C37.853 46.7325 38.2774 45.5443 38.5603 44.2995C38.8432 42.9982 38.9846 41.8383 38.9846 40.8199C38.9846 39.1791 38.5886 37.7929 37.7965 36.6613C37.0609 35.4731 35.8728 34.879 34.2319 34.879H31.6859L28.0365 51.6832H31.9405ZM25.8299 77.6532C27.5273 77.6532 28.9418 77.1723 30.0733 76.2104C31.2049 75.2486 32.1385 74.0604 32.874 72.6459C33.6096 71.2314 34.1188 69.7604 34.4017 68.2327C34.7412 66.6485 34.9109 65.2623 34.9109 64.0741C34.9109 62.0938 34.4866 60.5379 33.6379 59.4063C32.8457 58.2181 31.5444 57.624 29.7339 57.624H26.5937L22.4351 77.6532H25.8299ZM72.1745 83H54.946L62.6692 46.5062H80.0674L72.1745 83ZM82.274 35.3883C82.274 36.6896 81.9911 37.8212 81.4253 38.783C80.9161 39.7449 80.2088 40.5653 79.3036 41.2443C78.4549 41.9232 77.4647 42.4324 76.3331 42.7719C75.2015 43.1114 74.0417 43.2811 72.8535 43.2811C70.5903 43.2811 68.6949 42.7436 67.1672 41.6686C65.6396 40.5936 64.8758 38.8962 64.8758 36.5764C64.8758 35.3317 65.1304 34.2284 65.6396 33.2665C66.1488 32.2481 66.8278 31.4277 67.6765 30.8053C68.5817 30.1264 69.6002 29.6171 70.7318 29.2777C71.9199 28.9382 73.1364 28.7684 74.3811 28.7684C76.5877 28.7684 78.4549 29.306 79.9825 30.381C81.5102 31.456 82.274 33.1251 82.274 35.3883ZM118.341 80.9631C115.964 81.925 113.447 82.6039 110.787 83C108.185 83.4526 105.214 83.679 101.876 83.679C98.934 83.679 96.2182 83.3961 93.7287 82.8303C91.2958 82.2079 89.1741 81.246 87.3635 79.9447C85.553 78.6434 84.1385 76.9743 83.12 74.9374C82.1016 72.844 81.5924 70.3262 81.5924 67.384C81.5924 64.3287 82.1016 61.4997 83.12 58.8971C84.195 56.2378 85.7793 53.9181 87.8727 51.9378C90.0227 49.9575 92.7386 48.4016 96.0202 47.27C99.3018 46.1384 103.206 45.5726 107.732 45.5726C111.41 45.5726 114.607 45.8838 117.322 46.5062C120.038 47.0719 122.273 48.4016 124.027 50.495L121.651 61.3583H110.109C110.165 60.3964 110.222 59.5478 110.278 58.8122C110.335 58.0767 110.363 57.2563 110.363 56.351C110.363 54.5405 110.165 53.2674 109.769 52.5319C109.373 51.7398 108.722 51.3437 107.817 51.3437C106.233 51.3437 104.847 52.1358 103.658 53.7201C102.47 55.2477 101.48 57.1148 100.688 59.3214C99.9525 61.4715 99.3867 63.7629 98.9906 66.1959C98.6511 68.5722 98.4814 70.6091 98.4814 72.3065C98.4814 72.9288 98.5097 73.5795 98.5663 74.2585C98.6228 74.8808 98.736 75.4749 98.9057 76.0407C99.1321 76.6065 99.415 77.0591 99.7544 77.3986C100.094 77.7381 100.575 77.9078 101.197 77.9078C101.763 77.9078 102.414 77.7381 103.149 77.3986C103.885 77.0591 104.592 76.5499 105.271 75.871C105.95 75.1354 106.601 74.2019 107.223 73.0703C107.845 71.9387 108.326 70.5808 108.666 68.9965H120.802L118.341 80.9631ZM148.001 51.9378H148.595C149.67 50.8628 150.915 49.8726 152.33 48.9674C153.518 48.1753 154.932 47.468 156.573 46.8456C158.214 46.2233 160.053 45.9121 162.09 45.9121C165.032 45.9121 167.465 46.6759 169.388 48.2035C171.312 49.6746 172.274 51.7115 172.274 54.3141C172.274 55.1063 172.189 56.0115 172.019 57.03C171.85 57.9918 171.652 59.0385 171.425 60.1701C171.199 61.2451 170.944 62.3484 170.662 63.48C170.435 64.555 170.237 65.5452 170.067 66.4505L166.503 83H149.274L153.942 60.8491C154.055 60.1135 154.197 59.378 154.367 58.6425C154.536 57.8504 154.621 57.1431 154.621 56.5207C154.621 55.672 154.395 54.9931 153.942 54.4839C153.546 53.9181 152.924 53.6352 152.075 53.6352C151.057 53.6352 150.067 54.003 149.105 54.7385C148.199 55.474 147.492 56.1247 146.983 56.6905L141.382 83H124.068L136.12 25.9678H153.518L148.001 51.9378ZM201.379 45.5726C208.112 45.5726 213.006 46.7608 216.061 49.1371C219.286 51.6266 220.899 55.7569 220.899 61.528C220.899 65.0926 220.305 68.3176 219.117 71.2032C217.928 74.0321 216.259 76.3802 214.109 78.2473C209.809 81.8684 203.586 83.679 195.438 83.679C188.479 83.679 183.5 82.3493 180.501 79.6901C177.276 76.9177 175.663 72.7591 175.663 67.2143C175.663 63.5366 176.399 60.1984 177.87 57.1997C179.398 54.201 181.576 51.7115 184.405 49.7312C188.535 46.9588 194.193 45.5726 201.379 45.5726ZM195.608 77.9078C197.022 77.9078 198.239 77.1157 199.257 75.5315C200.332 73.9473 201.181 72.0236 201.803 69.7604C202.426 67.4406 202.878 65.0643 203.161 62.6313C203.501 60.1418 203.67 57.9918 203.67 56.1813C203.67 54.597 203.501 53.4089 203.161 52.6168C202.878 51.7681 202.228 51.3437 201.209 51.3437C199.682 51.3437 198.352 52.1641 197.22 53.8049C196.145 55.4457 195.268 57.3977 194.589 59.6609C193.91 61.9241 193.401 64.2439 193.062 66.6202C192.779 68.9965 192.637 70.9203 192.637 72.3913C192.637 76.069 193.628 77.9078 195.608 77.9078Z"/>
</mask>
<path d="M55.0249 41.414C55.0249 43.0548 54.7703 44.5259 54.2611 45.8272C53.8085 47.1285 53.1578 48.2884 52.3091 49.3068C51.4604 50.3253 50.4703 51.2306 49.3387 52.0227C48.2071 52.8148 46.9624 53.5503 45.6044 54.2293C46.2268 54.4556 46.9624 54.8234 47.811 55.3326C48.6597 55.7852 49.4801 56.4359 50.2723 57.2846C51.0644 58.1333 51.715 59.2366 52.2243 60.5945C52.7901 61.8958 53.073 63.5083 53.073 65.432C53.073 67.9781 52.5354 70.3262 51.4604 72.4762C50.3854 74.6262 48.7729 76.4933 46.6229 78.0776C44.5294 79.6052 41.9268 80.8217 38.8149 81.727C35.7596 82.5757 32.2234 83 28.2062 83H3L14.4574 29.1079H36.778C38.9846 29.1079 41.1629 29.2777 43.313 29.6171C45.5196 29.9 47.4716 30.4941 49.169 31.3994C50.9229 32.3047 52.3374 33.5777 53.4124 35.2185C54.4874 36.8028 55.0249 38.8679 55.0249 41.414ZM31.9405 51.6832C33.1852 51.6832 34.2319 51.3154 35.0806 50.5799C35.9859 49.8443 36.7214 48.9391 37.2872 47.8641C37.853 46.7325 38.2774 45.5443 38.5603 44.2995C38.8432 42.9982 38.9846 41.8383 38.9846 40.8199C38.9846 39.1791 38.5886 37.7929 37.7965 36.6613C37.0609 35.4731 35.8728 34.879 34.2319 34.879H31.6859L28.0365 51.6832H31.9405ZM25.8299 77.6532C27.5273 77.6532 28.9418 77.1723 30.0733 76.2104C31.2049 75.2486 32.1385 74.0604 32.874 72.6459C33.6096 71.2314 34.1188 69.7604 34.4017 68.2327C34.7412 66.6485 34.9109 65.2623 34.9109 64.0741C34.9109 62.0938 34.4866 60.5379 33.6379 59.4063C32.8457 58.2181 31.5444 57.624 29.7339 57.624H26.5937L22.4351 77.6532H25.8299ZM72.1745 83H54.946L62.6692 46.5062H80.0674L72.1745 83ZM82.274 35.3883C82.274 36.6896 81.9911 37.8212 81.4253 38.783C80.9161 39.7449 80.2088 40.5653 79.3036 41.2443C78.4549 41.9232 77.4647 42.4324 76.3331 42.7719C75.2015 43.1114 74.0417 43.2811 72.8535 43.2811C70.5903 43.2811 68.6949 42.7436 67.1672 41.6686C65.6396 40.5936 64.8758 38.8962 64.8758 36.5764C64.8758 35.3317 65.1304 34.2284 65.6396 33.2665C66.1488 32.2481 66.8278 31.4277 67.6765 30.8053C68.5817 30.1264 69.6002 29.6171 70.7318 29.2777C71.9199 28.9382 73.1364 28.7684 74.3811 28.7684C76.5877 28.7684 78.4549 29.306 79.9825 30.381C81.5102 31.456 82.274 33.1251 82.274 35.3883ZM118.341 80.9631C115.964 81.925 113.447 82.6039 110.787 83C108.185 83.4526 105.214 83.679 101.876 83.679C98.934 83.679 96.2182 83.3961 93.7287 82.8303C91.2958 82.2079 89.1741 81.246 87.3635 79.9447C85.553 78.6434 84.1385 76.9743 83.12 74.9374C82.1016 72.844 81.5924 70.3262 81.5924 67.384C81.5924 64.3287 82.1016 61.4997 83.12 58.8971C84.195 56.2378 85.7793 53.9181 87.8727 51.9378C90.0227 49.9575 92.7386 48.4016 96.0202 47.27C99.3018 46.1384 103.206 45.5726 107.732 45.5726C111.41 45.5726 114.607 45.8838 117.322 46.5062C120.038 47.0719 122.273 48.4016 124.027 50.495L121.651 61.3583H110.109C110.165 60.3964 110.222 59.5478 110.278 58.8122C110.335 58.0767 110.363 57.2563 110.363 56.351C110.363 54.5405 110.165 53.2674 109.769 52.5319C109.373 51.7398 108.722 51.3437 107.817 51.3437C106.233 51.3437 104.847 52.1358 103.658 53.7201C102.47 55.2477 101.48 57.1148 100.688 59.3214C99.9525 61.4715 99.3867 63.7629 98.9906 66.1959C98.6511 68.5722 98.4814 70.6091 98.4814 72.3065C98.4814 72.9288 98.5097 73.5795 98.5663 74.2585C98.6228 74.8808 98.736 75.4749 98.9057 76.0407C99.1321 76.6065 99.415 77.0591 99.7544 77.3986C100.094 77.7381 100.575 77.9078 101.197 77.9078C101.763 77.9078 102.414 77.7381 103.149 77.3986C103.885 77.0591 104.592 76.5499 105.271 75.871C105.95 75.1354 106.601 74.2019 107.223 73.0703C107.845 71.9387 108.326 70.5808 108.666 68.9965H120.802L118.341 80.9631ZM148.001 51.9378H148.595C149.67 50.8628 150.915 49.8726 152.33 48.9674C153.518 48.1753 154.932 47.468 156.573 46.8456C158.214 46.2233 160.053 45.9121 162.09 45.9121C165.032 45.9121 167.465 46.6759 169.388 48.2035C171.312 49.6746 172.274 51.7115 172.274 54.3141C172.274 55.1063 172.189 56.0115 172.019 57.03C171.85 57.9918 171.652 59.0385 171.425 60.1701C171.199 61.2451 170.944 62.3484 170.662 63.48C170.435 64.555 170.237 65.5452 170.067 66.4505L166.503 83H149.274L153.942 60.8491C154.055 60.1135 154.197 59.378 154.367 58.6425C154.536 57.8504 154.621 57.1431 154.621 56.5207C154.621 55.672 154.395 54.9931 153.942 54.4839C153.546 53.9181 152.924 53.6352 152.075 53.6352C151.057 53.6352 150.067 54.003 149.105 54.7385C148.199 55.474 147.492 56.1247 146.983 56.6905L141.382 83H124.068L136.12 25.9678H153.518L148.001 51.9378ZM201.379 45.5726C208.112 45.5726 213.006 46.7608 216.061 49.1371C219.286 51.6266 220.899 55.7569 220.899 61.528C220.899 65.0926 220.305 68.3176 219.117 71.2032C217.928 74.0321 216.259 76.3802 214.109 78.2473C209.809 81.8684 203.586 83.679 195.438 83.679C188.479 83.679 183.5 82.3493 180.501 79.6901C177.276 76.9177 175.663 72.7591 175.663 67.2143C175.663 63.5366 176.399 60.1984 177.87 57.1997C179.398 54.201 181.576 51.7115 184.405 49.7312C188.535 46.9588 194.193 45.5726 201.379 45.5726ZM195.608 77.9078C197.022 77.9078 198.239 77.1157 199.257 75.5315C200.332 73.9473 201.181 72.0236 201.803 69.7604C202.426 67.4406 202.878 65.0643 203.161 62.6313C203.501 60.1418 203.67 57.9918 203.67 56.1813C203.67 54.597 203.501 53.4089 203.161 52.6168C202.878 51.7681 202.228 51.3437 201.209 51.3437C199.682 51.3437 198.352 52.1641 197.22 53.8049C196.145 55.4457 195.268 57.3977 194.589 59.6609C193.91 61.9241 193.401 64.2439 193.062 66.6202C192.779 68.9965 192.637 70.9203 192.637 72.3913C192.637 76.069 193.628 77.9078 195.608 77.9078Z" fill="white"/>
<path d="M54.2611 45.8272L50.3094 44.2809L50.2798 44.3565L50.2532 44.4331L54.2611 45.8272ZM49.3387 52.0227L46.9052 48.5463L46.9052 48.5463L49.3387 52.0227ZM45.6044 54.2293L43.7067 50.4338L34.8827 54.8458L44.1543 58.2173L45.6044 54.2293ZM47.811 55.3326L45.6278 58.9713L45.7196 59.0264L45.8141 59.0768L47.811 55.3326ZM50.2723 57.2846L47.1701 60.18L47.1701 60.18L50.2723 57.2846ZM52.2243 60.5945L48.251 62.0845L48.2892 62.1865L48.3327 62.2865L52.2243 60.5945ZM51.4604 72.4762L47.665 70.5785L47.665 70.5785L51.4604 72.4762ZM46.6229 78.0776L49.1243 81.5054L49.1322 81.4996L49.1401 81.4938L46.6229 78.0776ZM38.8149 81.727L39.9506 85.8156L39.9755 85.8087L40.0002 85.8015L38.8149 81.727ZM3 83L-1.1507 82.1176L-2.24046 87.2435H3V83ZM14.4574 29.1079V24.8645H11.0212L10.3067 28.2255L14.4574 29.1079ZM43.313 29.6171L42.6511 33.8087L42.7121 33.8183L42.7734 33.8262L43.313 29.6171ZM49.169 31.3994L47.172 35.1436L47.1973 35.1571L47.2227 35.1702L49.169 31.3994ZM53.4124 35.2185L49.8629 37.5441L49.8818 37.5728L49.9011 37.6012L53.4124 35.2185ZM35.0806 50.5799L32.4047 47.2865L32.3524 47.329L32.3015 47.3731L35.0806 50.5799ZM37.2872 47.8641L41.0424 49.8404L41.063 49.8013L41.0827 49.7618L37.2872 47.8641ZM38.5603 44.2995L42.6982 45.24L42.7027 45.2205L42.7069 45.201L38.5603 44.2995ZM37.7965 36.6613L34.1884 38.8949L34.2514 38.9967L34.3201 39.0948L37.7965 36.6613ZM31.6859 34.879V30.6356H28.265L27.5391 33.9785L31.6859 34.879ZM28.0365 51.6832L23.8897 50.7826L22.7725 55.9267H28.0365V51.6832ZM30.0733 76.2104L27.3251 72.9772L27.3251 72.9772L30.0733 76.2104ZM32.874 72.6459L36.6389 74.6037L36.6389 74.6037L32.874 72.6459ZM34.4017 68.2327L30.2524 67.3436L30.24 67.4016L30.2292 67.46L34.4017 68.2327ZM33.6379 59.4063L30.1071 61.7602L30.1724 61.8582L30.2431 61.9524L33.6379 59.4063ZM26.5937 57.624V53.3806H23.1408L22.4388 56.7614L26.5937 57.624ZM22.4351 77.6532L18.2802 76.7906L17.2201 81.8967H22.4351V77.6532ZM50.7815 41.414C50.7815 42.6162 50.5954 43.5501 50.3094 44.2809L58.2128 47.3735C58.9453 45.5016 59.2684 43.4934 59.2684 41.414H50.7815ZM50.2532 44.4331C49.9616 45.2714 49.5582 45.9794 49.0492 46.5902L55.5691 52.0234C56.7574 50.5974 57.6554 48.9856 58.2691 47.2213L50.2532 44.4331ZM49.0492 46.5902C48.451 47.308 47.7419 47.9606 46.9052 48.5463L51.7722 55.4991C53.1987 54.5005 54.4698 53.3425 55.5691 52.0234L49.0492 46.5902ZM46.9052 48.5463C45.9599 49.208 44.8965 49.8389 43.7067 50.4338L47.5022 58.0247C49.0282 57.2617 50.4543 56.4216 51.7722 55.4991L46.9052 48.5463ZM44.1543 58.2173C44.43 58.3175 44.9097 58.5404 45.6278 58.9713L49.9943 51.6938C49.015 51.1063 48.0236 50.5937 47.0546 50.2413L44.1543 58.2173ZM45.8141 59.0768C46.1748 59.2692 46.6331 59.6047 47.1701 60.18L53.3745 54.3892C52.3272 53.2671 51.1446 52.3012 49.808 51.5883L45.8141 59.0768ZM47.1701 60.18C47.5007 60.5342 47.8901 61.1222 48.251 62.0845L56.1975 59.1045C55.54 57.351 54.6281 55.7323 53.3745 54.3892L47.1701 60.18ZM48.3327 62.2865C48.5995 62.9001 48.8295 63.8954 48.8295 65.432H57.3164C57.3164 63.1212 56.9806 60.8915 56.1158 58.9025L48.3327 62.2865ZM48.8295 65.432C48.8295 67.3594 48.428 69.0524 47.665 70.5785L55.2559 74.3739C56.6429 71.5999 57.3164 68.5969 57.3164 65.432H48.8295ZM47.665 70.5785C46.922 72.0643 45.7764 73.4303 44.1057 74.6613L49.1401 81.4938C51.7694 79.5564 53.8488 77.1882 55.2559 74.3739L47.665 70.5785ZM44.1215 74.6497C42.5114 75.8246 40.3822 76.8516 37.6296 77.6524L40.0002 85.8015C43.4713 84.7917 46.5474 83.3858 49.1243 81.5054L44.1215 74.6497ZM37.6792 77.6383C35.0768 78.3612 31.9365 78.7565 28.2062 78.7565V87.2435C32.5102 87.2435 36.4424 86.7901 39.9506 85.8156L37.6792 77.6383ZM28.2062 78.7565H3V87.2435H28.2062V78.7565ZM7.1507 83.8824L18.6081 29.9904L10.3067 28.2255L-1.1507 82.1176L7.1507 83.8824ZM14.4574 33.3514H36.778V24.8645H14.4574V33.3514ZM36.778 33.3514C38.7661 33.3514 40.723 33.5042 42.6511 33.8087L43.9748 25.4256C41.6029 25.0511 39.2032 24.8645 36.778 24.8645V33.3514ZM42.7734 33.8262C44.5486 34.0538 45.9933 34.515 47.172 35.1436L51.1659 27.6552C48.9499 26.4733 46.4905 25.7463 43.8526 25.4081L42.7734 33.8262ZM47.2227 35.1702C48.3309 35.7422 49.1914 36.5191 49.8629 37.5441L56.9619 32.893C55.4834 30.6363 53.515 28.8672 51.1152 27.6286L47.2227 35.1702ZM49.9011 37.6012C50.3648 38.2846 50.7815 39.4421 50.7815 41.414H59.2684C59.2684 38.2937 58.6101 35.3209 56.9238 32.8358L49.9011 37.6012ZM31.9405 55.9267C34.0875 55.9267 36.1544 55.2647 37.8598 53.7866L32.3015 47.3731C32.2754 47.3958 32.2659 47.3991 32.2524 47.4038C32.2326 47.4108 32.1417 47.4397 31.9405 47.4397V55.9267ZM37.7565 53.8733C39.1253 52.7612 40.2208 51.4014 41.0424 49.8404L33.5321 45.8877C33.2221 46.4768 32.8465 46.9275 32.4047 47.2865L37.7565 53.8733ZM41.0827 49.7618C41.802 48.3233 42.3406 46.8134 42.6982 45.24L34.4223 43.3591C34.2141 44.2752 33.9041 45.1417 33.4918 45.9663L41.0827 49.7618ZM42.7069 45.201C43.0357 43.6884 43.2281 42.2175 43.2281 40.8199H34.7412C34.7412 41.4592 34.6506 42.308 34.4137 43.3981L42.7069 45.201ZM43.2281 40.8199C43.2281 38.4759 42.6523 36.1985 41.2728 34.2278L34.3201 39.0948C34.5248 39.3872 34.7412 39.8823 34.7412 40.8199H43.2281ZM41.4045 34.4277C39.7496 31.7543 37.042 30.6356 34.2319 30.6356V39.1225C34.5455 39.1225 34.5734 39.1788 34.4559 39.1201C34.3984 39.0913 34.3342 39.0483 34.276 38.9944C34.2189 38.9415 34.1921 38.9009 34.1884 38.8949L41.4045 34.4277ZM34.2319 30.6356H31.6859V39.1225H34.2319V30.6356ZM27.5391 33.9785L23.8897 50.7826L32.1833 52.5838L35.8327 35.7796L27.5391 33.9785ZM28.0365 55.9267H31.9405V47.4397H28.0365V55.9267ZM25.8299 81.8967C28.3815 81.8967 30.814 81.1502 32.8216 79.4437L27.3251 72.9772C27.0695 73.1944 26.673 73.4098 25.8299 73.4098V81.8967ZM32.8216 79.4437C34.4013 78.101 35.669 76.4689 36.6389 74.6037L29.1092 70.6882C28.608 71.6519 28.0085 72.3962 27.3251 72.9772L32.8216 79.4437ZM36.6389 74.6037C37.5631 72.8264 38.2128 70.9569 38.5742 69.0054L30.2292 67.46C30.0247 68.5639 29.656 69.6365 29.1092 70.6882L36.6389 74.6037ZM38.551 69.1219C38.9321 67.343 39.1544 65.6467 39.1544 64.0741H30.6674C30.6674 64.8778 30.5502 65.954 30.2524 67.3436L38.551 69.1219ZM39.1544 64.0741C39.1544 61.534 38.6142 58.969 37.0326 56.8602L30.2431 61.9524C30.3589 62.1068 30.6674 62.6536 30.6674 64.0741H39.1544ZM37.1686 57.0524C35.3782 54.3668 32.5345 53.3806 29.7339 53.3806V61.8675C30.1873 61.8675 30.3344 61.943 30.3055 61.9298C30.2884 61.922 30.2466 61.8995 30.1975 61.8577C30.1483 61.8158 30.1186 61.7775 30.1071 61.7602L37.1686 57.0524ZM29.7339 53.3806H26.5937V61.8675H29.7339V53.3806ZM22.4388 56.7614L18.2802 76.7906L26.59 78.5159L30.7486 58.4867L22.4388 56.7614ZM22.4351 81.8967H25.8299V73.4098H22.4351V81.8967ZM72.1745 83V87.2435H75.5983L76.3221 83.897L72.1745 83ZM54.946 83L50.7945 82.1214L49.7106 87.2435H54.946V83ZM62.6692 46.5062V42.2627H59.2297L58.5176 45.6276L62.6692 46.5062ZM80.0674 46.5062L84.215 47.4032L85.3267 42.2627H80.0674V46.5062ZM81.4253 38.783L77.7677 36.6315L77.7195 36.7135L77.675 36.7976L81.4253 38.783ZM79.3036 41.2443L76.7575 37.8495L76.7045 37.8892L76.6527 37.9307L79.3036 41.2443ZM76.3331 42.7719L75.1138 38.7074L75.1138 38.7074L76.3331 42.7719ZM67.1672 41.6686L64.7251 45.1389L64.7252 45.1389L67.1672 41.6686ZM65.6396 33.2665L69.3899 35.252L69.413 35.2084L69.4351 35.1643L65.6396 33.2665ZM67.6765 30.8053L70.1859 34.2273L70.2043 34.2138L70.2225 34.2001L67.6765 30.8053ZM70.7318 29.2777L69.566 25.1975L69.5391 25.2051L69.5124 25.2132L70.7318 29.2777ZM79.9825 30.381L77.5404 33.8513L77.5404 33.8513L79.9825 30.381ZM72.1745 78.7565H54.946V87.2435H72.1745V78.7565ZM59.0976 83.8786L66.8207 47.3847L58.5176 45.6276L50.7945 82.1214L59.0976 83.8786ZM62.6692 50.7496H80.0674V42.2627H62.6692V50.7496ZM75.9198 45.6091L68.027 82.103L76.3221 83.897L84.215 47.4032L75.9198 45.6091ZM78.0305 35.3883C78.0305 36.0602 77.8902 36.4233 77.7677 36.6315L85.0829 40.9346C86.092 39.2191 86.5175 37.319 86.5175 35.3883H78.0305ZM77.675 36.7976C77.4701 37.1845 77.1828 37.5305 76.7575 37.8495L81.8496 44.639C83.2349 43.6001 84.362 42.3053 85.1756 40.7685L77.675 36.7976ZM76.6527 37.9307C76.2643 38.2414 75.7701 38.5105 75.1138 38.7074L77.5525 46.8364C79.1594 46.3543 80.6455 45.605 81.9544 44.5578L76.6527 37.9307ZM75.1138 38.7074C74.3801 38.9275 73.6311 39.0376 72.8535 39.0376V47.5246C74.4523 47.5246 76.023 47.2952 77.5525 46.8364L75.1138 38.7074ZM72.8535 39.0376C71.2763 39.0376 70.2821 38.6717 69.6093 38.1983L64.7252 45.1389C67.1077 46.8155 69.9043 47.5246 72.8535 47.5246V39.0376ZM69.6093 38.1983C69.4868 38.1121 69.1192 37.8908 69.1192 36.5764H60.6323C60.6323 39.9015 61.7923 43.0751 64.7251 45.1389L69.6093 38.1983ZM69.1192 36.5764C69.1192 35.9235 69.2484 35.5192 69.3899 35.252L61.8893 31.2811C61.0123 32.9375 60.6323 34.7399 60.6323 36.5764H69.1192ZM69.4351 35.1643C69.668 34.6984 69.9246 34.4189 70.1859 34.2273L65.167 27.3834C63.7309 28.4365 62.6296 29.7978 61.8441 31.3688L69.4351 35.1643ZM70.2225 34.2001C70.711 33.8338 71.2764 33.5446 71.9511 33.3422L69.5124 25.2132C67.9239 25.6897 66.4525 26.419 65.1304 27.4105L70.2225 34.2001ZM71.8975 33.3579C72.7038 33.1275 73.5278 33.0119 74.3811 33.0119V24.525C72.745 24.525 71.1361 24.7489 69.566 25.1975L71.8975 33.3579ZM74.3811 33.0119C75.8761 33.0119 76.8501 33.3655 77.5404 33.8513L82.4246 26.9106C80.0597 25.2464 77.2994 24.525 74.3811 24.525V33.0119ZM77.5404 33.8513C77.6925 33.9583 78.0305 34.1748 78.0305 35.3883H86.5175C86.5175 32.0754 85.3278 28.9536 82.4246 26.9106L77.5404 33.8513ZM118.341 80.9631L119.933 84.8966L122.039 84.044L122.497 81.818L118.341 80.9631ZM110.787 83L110.162 78.8028L110.111 78.8104L110.06 78.8193L110.787 83ZM93.7287 82.8303L92.677 86.9413L92.7325 86.9555L92.7883 86.9682L93.7287 82.8303ZM87.3635 79.9447L84.8869 83.3905L84.8869 83.3905L87.3635 79.9447ZM83.12 74.9374L79.3042 76.7938L79.3142 76.8145L79.3246 76.8351L83.12 74.9374ZM83.12 58.8971L79.1859 57.3067L79.177 57.3287L79.1683 57.3508L83.12 58.8971ZM87.8727 51.9378L84.9979 48.8165L84.9771 48.8357L84.9566 48.855L87.8727 51.9378ZM96.0202 47.27L94.6369 43.2583L94.6369 43.2583L96.0202 47.27ZM117.322 46.5062L116.375 50.6424L116.416 50.6518L116.457 50.6604L117.322 46.5062ZM124.027 50.495L128.173 51.4018L128.618 49.3667L127.28 47.7698L124.027 50.495ZM121.651 61.3583V65.6018H125.066L125.796 62.2651L121.651 61.3583ZM110.109 61.3583L105.872 61.1091L105.608 65.6018H110.109V61.3583ZM110.278 58.8122L106.047 58.4868L106.047 58.4868L110.278 58.8122ZM109.769 52.5319L105.974 54.4296L106.002 54.4871L106.033 54.5437L109.769 52.5319ZM103.658 53.7201L107.008 56.3253L107.031 56.2959L107.053 56.2661L103.658 53.7201ZM100.688 59.3214L96.6941 57.8877L96.6833 57.9177L96.673 57.9479L100.688 59.3214ZM98.9906 66.1959L94.8023 65.514L94.7956 65.5548L94.7898 65.5957L98.9906 66.1959ZM98.5663 74.2585L94.3375 74.6109L94.3388 74.6267L94.3402 74.6426L98.5663 74.2585ZM98.9057 76.0407L94.8412 77.2601L94.8956 77.4412L94.9658 77.6167L98.9057 76.0407ZM99.7544 77.3986L96.7539 80.3992L96.7539 80.3992L99.7544 77.3986ZM103.149 77.3986L104.927 81.2515L104.927 81.2515L103.149 77.3986ZM105.271 75.871L108.272 78.8716L108.332 78.8116L108.389 78.7492L105.271 75.871ZM107.223 73.0703L110.941 75.1153L110.941 75.1153L107.223 73.0703ZM108.666 68.9965V64.7531H105.235L104.516 68.1074L108.666 68.9965ZM120.802 68.9965L124.959 69.8514L126.007 64.7531H120.802V68.9965ZM116.749 77.0297C114.698 77.8597 112.506 78.4538 110.162 78.8028L111.413 87.1972C114.387 86.7541 117.231 85.9902 119.933 84.8966L116.749 77.0297ZM110.06 78.8193C107.751 79.221 105.031 79.4355 101.876 79.4355V87.9224C105.398 87.9224 108.619 87.6843 111.515 87.1807L110.06 78.8193ZM101.876 79.4355C99.2036 79.4355 96.8075 79.1783 94.6692 78.6923L92.7883 86.9682C95.6289 87.6138 98.6644 87.9224 101.876 87.9224V79.4355ZM94.7804 78.7192C92.7954 78.2114 91.1705 77.4551 89.8401 76.4989L84.8869 83.3905C87.1776 85.0369 89.7961 86.2044 92.677 86.9413L94.7804 78.7192ZM89.8401 76.4989C88.6005 75.6079 87.6331 74.4749 86.9155 73.0397L79.3246 76.8351C80.6438 79.4736 82.5055 81.6788 84.8869 83.3905L89.8401 76.4989ZM86.9359 73.081C86.263 71.6979 85.8359 69.8478 85.8359 67.384H77.3489C77.3489 70.8045 77.9402 73.99 79.3042 76.7938L86.9359 73.081ZM85.8359 67.384C85.8359 64.8084 86.2633 62.5093 87.0717 60.4434L79.1683 57.3508C77.9399 60.4902 77.3489 63.8491 77.3489 67.384H85.8359ZM87.0542 60.4875C87.8998 58.3957 89.1358 56.5842 90.7888 55.0205L84.9566 48.855C82.4228 51.2519 80.4903 54.08 79.1859 57.3067L87.0542 60.4875ZM90.7476 55.0591C92.3942 53.5424 94.573 52.2577 97.4035 51.2816L94.6369 43.2583C90.9041 44.5455 87.6513 46.3726 84.9979 48.8165L90.7476 55.0591ZM97.4035 51.2816C100.128 50.3421 103.541 49.8161 107.732 49.8161V41.3291C102.87 41.3291 98.4755 41.9346 94.6369 43.2583L97.4035 51.2816ZM107.732 49.8161C111.186 49.8161 114.05 50.1098 116.375 50.6424L118.27 42.3699C115.163 41.6578 111.634 41.3291 107.732 41.3291V49.8161ZM116.457 50.6604C118.255 51.035 119.643 51.8703 120.774 53.2203L127.28 47.7698C124.903 44.9328 121.821 43.1089 118.188 42.3519L116.457 50.6604ZM119.882 49.5882L117.505 60.4515L125.796 62.2651L128.173 51.4018L119.882 49.5882ZM121.651 57.1148H110.109V65.6018H121.651V57.1148ZM114.345 61.6075C114.4 60.6639 114.455 59.8415 114.509 59.1377L106.047 58.4868C105.988 59.254 105.93 60.129 105.872 61.1091L114.345 61.6075ZM114.509 59.1377C114.576 58.2729 114.607 57.3416 114.607 56.351H106.12C106.12 57.171 106.094 57.8805 106.047 58.4868L114.509 59.1377ZM114.607 56.351C114.607 54.4773 114.443 52.2618 113.505 50.5201L106.033 54.5437C105.914 54.3225 105.961 54.3005 106.022 54.6906C106.077 55.0444 106.12 55.584 106.12 56.351H114.607ZM113.565 50.6341C113.069 49.6427 112.302 48.6926 111.19 48.016C110.084 47.3427 108.9 47.1002 107.817 47.1002V55.5872C107.639 55.5872 107.233 55.5427 106.778 55.2655C106.317 54.985 106.073 54.629 105.974 54.4296L113.565 50.6341ZM107.817 47.1002C104.566 47.1002 102.031 48.8175 100.264 51.174L107.053 56.2661C107.381 55.8294 107.61 55.6706 107.695 55.6222C107.752 55.5895 107.769 55.5872 107.817 55.5872V47.1002ZM100.309 51.1148C98.7943 53.0621 97.6068 55.3452 96.6941 57.8877L104.682 60.7552C105.353 58.8845 106.146 57.4333 107.008 56.3253L100.309 51.1148ZM96.673 57.9479C95.8542 60.3412 95.2334 62.8657 94.8023 65.514L103.179 66.8777C103.54 64.6602 104.051 62.6017 104.703 60.695L96.673 57.9479ZM94.7898 65.5957C94.4325 68.0965 94.2379 70.345 94.2379 72.3065H102.725C102.725 70.8731 102.87 69.0479 103.191 66.796L94.7898 65.5957ZM94.2379 72.3065C94.2379 73.0569 94.272 73.8255 94.3375 74.6109L102.795 73.906C102.747 73.3335 102.725 72.8008 102.725 72.3065H94.2379ZM94.3402 74.6426C94.4211 75.5318 94.5852 76.4068 94.8412 77.2601L102.97 74.8214C102.887 74.5431 102.825 74.2298 102.792 73.8743L94.3402 74.6426ZM94.9658 77.6167C95.3502 78.5777 95.9145 79.5598 96.7539 80.3992L102.755 74.398C102.836 74.479 102.876 74.5394 102.886 74.5555C102.895 74.5704 102.878 74.5457 102.846 74.4647L94.9658 77.6167ZM96.7539 80.3992C98.1054 81.7507 99.7974 82.1513 101.197 82.1513V73.6644C101.265 73.6644 101.481 73.6729 101.782 73.779C102.101 73.8916 102.449 74.092 102.755 74.398L96.7539 80.3992ZM101.197 82.1513C102.583 82.1513 103.858 81.7453 104.927 81.2515L101.371 73.5457C101.186 73.6309 101.078 73.6642 101.038 73.6745C100.999 73.6847 101.058 73.6644 101.197 73.6644V82.1513ZM104.927 81.2515C106.193 80.6674 107.303 79.8404 108.272 78.8716L102.27 72.8704C101.881 73.2594 101.576 73.4509 101.371 73.5457L104.927 81.2515ZM108.389 78.7492C109.357 77.7007 110.198 76.4659 110.941 75.1153L103.505 71.0253C103.003 71.9378 102.543 72.5702 102.153 72.9927L108.389 78.7492ZM110.941 75.1153C111.806 73.543 112.41 71.7762 112.815 69.8857L104.516 68.1074C104.243 69.3854 103.885 70.3343 103.505 71.0253L110.941 75.1153ZM108.666 73.24H120.802V64.7531H108.666V73.24ZM116.646 68.1417L114.184 80.1083L122.497 81.818L124.959 69.8514L116.646 68.1417ZM148.001 51.9378L143.851 51.0561L142.762 56.1813H148.001V51.9378ZM148.595 51.9378V56.1813H150.353L151.596 54.9384L148.595 51.9378ZM152.33 48.9674L154.617 52.5415L154.651 52.5201L154.684 52.4981L152.33 48.9674ZM156.573 46.8456L155.068 42.878L155.068 42.878L156.573 46.8456ZM169.388 48.2035L166.75 51.5267L166.78 51.5508L166.811 51.5744L169.388 48.2035ZM172.019 57.03L176.198 57.7674L176.202 57.7475L176.205 57.7276L172.019 57.03ZM171.425 60.1701L175.578 61.0443L175.582 61.0234L175.586 61.0023L171.425 60.1701ZM170.662 63.48L166.545 62.4508L166.525 62.528L166.509 62.6058L170.662 63.48ZM170.067 66.4505L174.216 67.344L174.228 67.2884L174.238 67.2325L170.067 66.4505ZM166.503 83V87.2435H169.93L170.651 83.8935L166.503 83ZM149.274 83L145.122 82.125L144.044 87.2435H149.274V83ZM153.942 60.8491L158.095 61.7241L158.119 61.6098L158.136 61.4943L153.942 60.8491ZM154.367 58.6425L158.501 59.5967L158.509 59.5642L158.516 59.5316L154.367 58.6425ZM153.942 54.4839L150.466 56.9173L150.607 57.1191L150.771 57.3031L153.942 54.4839ZM149.105 54.7385L146.527 51.3677L146.477 51.4056L146.429 51.4451L149.105 54.7385ZM146.983 56.6905L143.829 53.8518L143.069 54.696L142.832 55.8068L146.983 56.6905ZM141.382 83V87.2435H144.817L145.532 83.8836L141.382 83ZM124.068 83L119.916 82.1227L118.834 87.2435H124.068V83ZM136.12 25.9678V21.7243H132.679L131.968 25.0904L136.12 25.9678ZM153.518 25.9678L157.669 26.8495L158.757 21.7243H153.518V25.9678ZM148.001 56.1813H148.595V47.6943H148.001V56.1813ZM151.596 54.9384C152.434 54.1009 153.434 53.2988 154.617 52.5415L150.042 45.3932C148.397 46.4465 146.907 47.6247 145.595 48.9372L151.596 54.9384ZM154.684 52.4981C155.554 51.918 156.671 51.3471 158.078 50.8133L155.068 42.878C153.194 43.5889 151.482 44.4326 149.976 45.4366L154.684 52.4981ZM158.078 50.8133C159.168 50.4 160.486 50.1555 162.09 50.1555V41.6686C159.62 41.6686 157.26 42.0465 155.068 42.878L158.078 50.8133ZM162.09 50.1555C164.27 50.1555 165.717 50.7066 166.75 51.5267L172.027 44.8804C169.213 42.6452 165.794 41.6686 162.09 41.6686V50.1555ZM166.811 51.5744C167.597 52.1756 168.031 52.9189 168.031 54.3141H176.517C176.517 50.5041 175.027 47.1736 171.966 44.8327L166.811 51.5744ZM168.031 54.3141C168.031 54.8147 167.976 55.4794 167.834 56.3323L176.205 57.7276C176.402 56.5437 176.517 55.3978 176.517 54.3141H168.031ZM167.841 56.2925C167.677 57.2177 167.485 58.2324 167.264 59.3379L175.586 61.0023C175.818 59.8447 176.022 58.766 176.198 57.7674L167.841 56.2925ZM167.273 59.2959C167.058 60.316 166.816 61.3676 166.545 62.4508L174.778 64.5092C175.073 63.3293 175.34 62.1743 175.578 61.0443L167.273 59.2959ZM166.509 62.6058C166.277 63.7059 166.073 64.7272 165.897 65.6684L174.238 67.2325C174.401 66.3632 174.593 65.4042 174.814 64.3542L166.509 62.6058ZM165.919 65.557L162.355 82.1065L170.651 83.8935L174.216 67.344L165.919 65.557ZM166.503 78.7565H149.274V87.2435H166.503V78.7565ZM153.427 83.875L158.095 61.7241L149.79 59.9741L145.122 82.125L153.427 83.875ZM158.136 61.4943C158.233 60.8639 158.355 60.2315 158.501 59.5967L150.232 57.6883C150.039 58.5246 149.877 59.3631 149.748 60.2038L158.136 61.4943ZM158.516 59.5316C158.731 58.5296 158.865 57.5158 158.865 56.5207H150.378C150.378 56.7704 150.342 57.1712 150.217 57.7533L158.516 59.5316ZM158.865 56.5207C158.865 54.8981 158.415 53.1284 157.114 51.6647L150.771 57.3031C150.596 57.1066 150.485 56.8946 150.426 56.7169C150.371 56.5519 150.378 56.4701 150.378 56.5207H158.865ZM157.419 52.0504C156.043 50.0856 153.951 49.3917 152.075 49.3917V57.8787C152.036 57.8787 151.779 57.8726 151.422 57.7105C151.035 57.5345 150.698 57.2496 150.466 56.9173L157.419 52.0504ZM152.075 49.3917C149.958 49.3917 148.084 50.1767 146.527 51.3677L151.682 58.1093C151.877 57.9607 151.999 57.9065 152.046 57.8889C152.086 57.8741 152.089 57.8787 152.075 57.8787V49.3917ZM146.429 51.4451C145.432 52.2547 144.541 53.0603 143.829 53.8518L150.137 59.5292C150.443 59.189 150.966 58.6934 151.781 58.0319L146.429 51.4451ZM142.832 55.8068L137.231 82.1164L145.532 83.8836L151.133 57.5741L142.832 55.8068ZM141.382 78.7565H124.068V87.2435H141.382V78.7565ZM128.22 83.8773L140.271 26.8451L131.968 25.0904L119.916 82.1227L128.22 83.8773ZM136.12 30.2112H153.518V21.7243H136.12V30.2112ZM149.367 25.086L143.851 51.0561L152.152 52.8195L157.669 26.8495L149.367 25.086ZM216.061 49.1371L213.456 52.4867L213.462 52.4915L213.468 52.4962L216.061 49.1371ZM219.117 71.2032L223.029 72.8464L223.035 72.8326L223.04 72.8188L219.117 71.2032ZM214.109 78.2473L216.843 81.4932L216.867 81.4724L216.892 81.4513L214.109 78.2473ZM180.501 79.6901L183.317 76.5152L183.292 76.4935L183.267 76.4722L180.501 79.6901ZM177.87 57.1997L174.089 55.2735L174.074 55.302L174.06 55.3308L177.87 57.1997ZM184.405 49.7312L182.04 46.2079L182.006 46.231L181.972 46.2548L184.405 49.7312ZM199.257 75.5315L195.746 73.1488L195.716 73.1924L195.688 73.2368L199.257 75.5315ZM201.803 69.7604L205.895 70.8856L205.898 70.8728L205.902 70.86L201.803 69.7604ZM203.161 62.6313L198.957 62.058L198.951 62.0996L198.946 62.1412L203.161 62.6313ZM203.161 52.6168L199.135 53.9587L199.191 54.1261L199.261 54.2883L203.161 52.6168ZM197.22 53.8049L193.727 51.3958L193.698 51.4372L193.671 51.4794L197.22 53.8049ZM194.589 59.6609L198.654 60.8803L198.654 60.8803L194.589 59.6609ZM193.062 66.6202L188.861 66.0201L188.854 66.0693L188.848 66.1186L193.062 66.6202ZM201.379 49.8161C207.794 49.8161 211.522 50.9828 213.456 52.4867L218.667 45.7875C214.49 42.5388 208.43 41.3291 201.379 41.3291V49.8161ZM213.468 52.4962C215.268 53.8851 216.655 56.4941 216.655 61.528H225.142C225.142 55.0197 223.305 49.3681 218.654 45.778L213.468 52.4962ZM216.655 61.528C216.655 64.6166 216.142 67.2821 215.193 69.5875L223.04 72.8188C224.468 69.353 225.142 65.5686 225.142 61.528H216.655ZM215.204 69.5599C214.248 71.8364 212.948 73.6355 211.327 75.0434L216.892 81.4513C219.571 79.1249 221.609 76.2279 223.029 72.8464L215.204 69.5599ZM211.376 75.0014C208.121 77.7428 203.025 79.4355 195.438 79.4355V87.9224C204.147 87.9224 211.498 85.994 216.843 81.4932L211.376 75.0014ZM195.438 79.4355C188.819 79.4355 185.141 78.1328 183.317 76.5152L177.686 82.865C181.859 86.5659 188.139 87.9224 195.438 87.9224V79.4355ZM183.267 76.4722C181.246 74.735 179.907 71.9234 179.907 67.2143H171.42C171.42 73.5948 173.306 79.1004 177.735 82.908L183.267 76.4722ZM179.907 67.2143C179.907 64.1181 180.522 61.4288 181.68 59.0686L174.06 55.3308C172.276 58.968 171.42 62.9551 171.42 67.2143H179.907ZM181.651 59.1259C182.855 56.7631 184.563 54.8001 186.839 53.2076L181.972 46.2548C178.589 48.6228 175.941 51.6389 174.089 55.2735L181.651 59.1259ZM186.77 53.2545C189.954 51.1172 194.679 49.8161 201.379 49.8161V41.3291C193.708 41.3291 187.117 42.8003 182.04 46.2079L186.77 53.2545ZM195.608 82.1513C198.93 82.1513 201.316 80.1756 202.827 77.8262L195.688 73.2368C195.41 73.6683 195.246 73.7707 195.265 73.7577C195.28 73.7481 195.329 73.7197 195.408 73.696C195.488 73.672 195.559 73.6644 195.608 73.6644V82.1513ZM202.769 77.9142C204.156 75.8698 205.176 73.4993 205.895 70.8856L197.712 68.6352C197.186 70.5478 196.509 72.0248 195.746 73.1488L202.769 77.9142ZM205.902 70.86C206.579 68.3363 207.07 65.7561 207.376 63.1215L198.946 62.1412C198.687 64.3725 198.272 66.545 197.705 68.6608L205.902 70.86ZM207.366 63.2047C207.722 60.5921 207.914 58.241 207.914 56.1813H199.427C199.427 57.7426 199.279 59.6916 198.957 62.058L207.366 63.2047ZM207.914 56.1813C207.914 54.4234 207.745 52.5394 207.062 50.9452L199.261 54.2883C199.239 54.2375 199.291 54.3441 199.342 54.7021C199.391 55.0462 199.427 55.5305 199.427 56.1813H207.914ZM207.187 51.2749C206.791 50.0859 206.026 48.9209 204.779 48.1076C203.58 47.3255 202.29 47.1002 201.209 47.1002V55.5872C201.147 55.5872 200.691 55.5741 200.143 55.2163C199.547 54.8274 199.249 54.2989 199.135 53.9587L207.187 51.2749ZM201.209 47.1002C197.873 47.1002 195.383 48.9949 193.727 51.3958L200.714 56.2141C201.034 55.7492 201.248 55.5992 201.295 55.5704C201.314 55.5581 201.305 55.5666 201.272 55.5762C201.257 55.5805 201.242 55.5835 201.229 55.5854C201.216 55.5872 201.209 55.5872 201.209 55.5872V47.1002ZM193.671 51.4794C192.331 53.5237 191.298 55.864 190.525 58.4416L198.654 60.8803C199.239 58.9315 199.959 57.3678 200.77 56.1305L193.671 51.4794ZM190.525 58.4416C189.784 60.9107 189.23 63.4376 188.861 66.0201L197.263 67.2203C197.573 65.0502 198.037 62.9375 198.654 60.8803L190.525 58.4416ZM188.848 66.1186C188.556 68.5722 188.394 70.682 188.394 72.3913H196.881C196.881 71.1585 197.002 69.4209 197.275 67.1218L188.848 66.1186ZM188.394 72.3913C188.394 74.4723 188.65 76.6957 189.644 78.5405C190.175 79.5265 190.958 80.4798 192.075 81.1711C193.203 81.8698 194.432 82.1513 195.608 82.1513V73.6644C195.794 73.6644 196.156 73.716 196.542 73.955C196.916 74.1865 197.08 74.4504 197.116 74.5169C197.14 74.5608 197.07 74.4442 197 74.0551C196.932 73.6757 196.881 73.1323 196.881 72.3913H188.394Z" fill="#192494" mask="url(#path-1-outside-1_735_15)"/>
</g>
<g filter="url(#filter1_d_735_15)">
<mask id="path-3-outside-2_735_15" maskUnits="userSpaceOnUse" x="54.2871" y="81.0031" width="258" height="61" fill="black">
<rect fill="white" x="54.2871" y="81.0031" width="258" height="61"/>
<path d="M70.5987 88.5002H102.756L101.534 94.3053H85.8752L82.8963 108.283H95.9577L94.7356 114.165H81.6742L76.7857 137.003H60.2871L70.5987 88.5002ZM101.442 106.985C104.039 105.712 106.687 104.795 109.386 104.235C112.135 103.624 115.191 103.318 118.551 103.318C121.81 103.318 124.509 103.573 126.648 104.082C128.787 104.591 130.493 105.33 131.766 106.297C133.039 107.265 133.93 108.411 134.439 109.735C134.948 111.058 135.203 112.561 135.203 114.241C135.203 115.209 135.126 116.252 134.974 117.373C134.872 118.493 134.744 119.435 134.592 120.199L131.002 137.003H118.704L117.329 132.115H116.871C115.242 133.897 113.332 135.272 111.142 136.239C109.004 137.156 106.865 137.614 104.726 137.614C103.504 137.614 102.307 137.436 101.136 137.079C99.965 136.723 98.9211 136.188 98.0045 135.475C97.0879 134.712 96.3496 133.77 95.7894 132.649C95.2293 131.478 94.9492 130.078 94.9492 128.448C94.9492 125.8 95.6621 123.713 97.0879 122.185C98.5647 120.606 100.474 119.435 102.817 118.671C105.21 117.857 107.883 117.347 110.837 117.144C113.841 116.94 116.846 116.838 119.85 116.838C119.952 116.329 120.079 115.616 120.232 114.699C120.385 113.732 120.461 112.892 120.461 112.179C120.461 111.262 120.206 110.422 119.697 109.658C119.239 108.843 118.246 108.436 116.718 108.436C114.936 108.436 113.612 108.971 112.746 110.04C111.932 111.058 111.397 112.306 111.142 113.783H99.9905L101.442 106.985ZM119.01 120.428H117.635C116.158 120.428 114.885 120.632 113.816 121.039C112.797 121.396 111.957 121.879 111.295 122.49C110.684 123.101 110.226 123.789 109.92 124.553C109.615 125.317 109.462 126.08 109.462 126.844C109.462 128.066 109.767 128.983 110.378 129.594C111.04 130.205 111.804 130.511 112.67 130.511C113.739 130.511 114.783 130.129 115.802 129.365C116.871 128.601 117.533 127.583 117.788 126.31L119.01 120.428ZM116.489 99.652L123.593 88.5002H136.73L123.058 99.652H116.489ZM172.001 135.17C169.862 136.036 167.596 136.647 165.203 137.003C162.86 137.41 160.187 137.614 157.182 137.614C154.535 137.614 152.09 137.36 149.85 136.85C147.66 136.29 145.751 135.424 144.121 134.253C142.492 133.082 141.219 131.58 140.302 129.747C139.385 127.863 138.927 125.597 138.927 122.949C138.927 120.199 139.385 117.653 140.302 115.31C141.269 112.917 142.695 110.829 144.579 109.047C146.514 107.265 148.959 105.864 151.912 104.846C154.866 103.828 158.379 103.318 162.453 103.318C165.763 103.318 168.64 103.598 171.084 104.159C173.528 104.668 175.54 105.864 177.118 107.749L174.98 117.526H164.592C164.642 116.66 164.693 115.896 164.744 115.234C164.795 114.572 164.821 113.834 164.821 113.019C164.821 111.389 164.642 110.244 164.286 109.582C163.93 108.869 163.344 108.512 162.529 108.512C161.103 108.512 159.856 109.225 158.786 110.651C157.717 112.026 156.826 113.706 156.113 115.692C155.451 117.627 154.942 119.69 154.585 121.879C154.28 124.018 154.127 125.851 154.127 127.379C154.127 127.939 154.153 128.525 154.204 129.136C154.254 129.696 154.356 130.23 154.509 130.74C154.713 131.249 154.967 131.656 155.273 131.962C155.578 132.267 156.011 132.42 156.571 132.42C157.081 132.42 157.666 132.267 158.328 131.962C158.99 131.656 159.627 131.198 160.238 130.587C160.849 129.925 161.434 129.085 161.995 128.066C162.555 127.048 162.988 125.826 163.293 124.4H174.216L172.001 135.17ZM192.661 137.003H177.155L184.106 104.159H199.764L192.661 137.003ZM201.75 94.1525C201.75 95.3237 201.496 96.3421 200.987 97.2078C200.528 98.0735 199.892 98.8118 199.077 99.4229C198.313 100.034 197.422 100.492 196.404 100.798C195.385 101.103 194.341 101.256 193.272 101.256C191.235 101.256 189.529 100.772 188.154 99.8048C186.779 98.8373 186.092 97.3096 186.092 95.2218C186.092 94.1016 186.321 93.1086 186.779 92.2429C187.238 91.3263 187.849 90.588 188.613 90.0278C189.427 89.4168 190.344 88.9585 191.362 88.653C192.432 88.3474 193.527 88.1947 194.647 88.1947C196.633 88.1947 198.313 88.6784 199.688 89.6459C201.063 90.6134 201.75 92.1156 201.75 94.1525ZM215.115 137.003H199.533L210.379 85.674H226.038L215.115 137.003ZM232.15 132.895C232.15 133.611 231.995 134.249 231.683 134.809C231.403 135.369 231.014 135.836 230.516 136.21C230.05 136.583 229.505 136.863 228.883 137.05C228.26 137.268 227.607 137.376 226.922 137.376C225.74 137.376 224.728 137.065 223.888 136.443C223.079 135.789 222.674 134.778 222.674 133.409C222.674 132.693 222.814 132.055 223.095 131.495C223.375 130.935 223.748 130.468 224.215 130.095C224.682 129.721 225.211 129.441 225.802 129.254C226.424 129.037 227.062 128.928 227.716 128.928C228.992 128.928 230.05 129.254 230.89 129.908C231.73 130.53 232.15 131.526 232.15 132.895ZM242.579 137.003H235.017L241.645 105.635H251.214L248.18 119.919H248.507C249.534 118.736 250.685 117.896 251.961 117.398C253.268 116.869 254.559 116.605 255.835 116.605C256.924 116.605 257.827 116.776 258.543 117.118C259.289 117.429 259.881 117.865 260.316 118.425C260.752 118.985 261.063 119.654 261.25 120.432C261.437 121.21 261.53 122.035 261.53 122.906C261.53 123.342 261.499 123.995 261.437 124.867C261.374 125.738 261.234 126.718 261.017 127.807C260.799 128.865 260.488 129.97 260.083 131.122C259.678 132.242 259.134 133.269 258.449 134.202C257.796 135.136 256.956 135.898 255.929 136.49C254.933 137.081 253.735 137.376 252.334 137.376C251.494 137.376 250.67 137.283 249.86 137.096C249.082 136.91 248.367 136.661 247.713 136.35C247.091 136.038 246.531 135.681 246.033 135.276C245.566 134.84 245.224 134.405 245.006 133.969H244.679L242.579 137.003ZM247.853 132.849C248.6 132.849 249.223 132.46 249.72 131.682C250.218 130.873 250.623 129.939 250.934 128.881C251.245 127.792 251.463 126.718 251.588 125.66C251.743 124.571 251.821 123.762 251.821 123.233C251.821 122.611 251.712 122.097 251.494 121.693C251.307 121.288 250.95 121.086 250.421 121.086C249.798 121.086 249.223 121.319 248.694 121.786C248.164 122.222 247.775 122.595 247.527 122.906L245.706 131.262C245.924 131.635 246.204 131.993 246.546 132.335C246.92 132.678 247.355 132.849 247.853 132.849ZM272.964 127.621C272.84 128.305 272.746 128.959 272.684 129.581C272.653 130.204 272.638 130.764 272.638 131.262C272.638 131.542 272.653 131.853 272.684 132.195C272.715 132.538 272.778 132.864 272.871 133.175C272.995 133.456 273.151 133.704 273.338 133.922C273.556 134.109 273.851 134.202 274.225 134.202C274.505 134.202 274.816 134.109 275.158 133.922C275.532 133.736 275.889 133.471 276.232 133.129C276.605 132.786 276.948 132.366 277.259 131.868C277.601 131.371 277.866 130.81 278.052 130.188H285.707L284.494 135.183C283.871 135.587 283.156 135.929 282.347 136.21C281.538 136.49 280.682 136.723 279.779 136.91C278.877 137.065 277.959 137.174 277.025 137.236C276.092 137.33 275.205 137.376 274.365 137.376C272.809 137.376 271.362 137.236 270.024 136.956C268.685 136.676 267.519 136.194 266.523 135.509C265.527 134.825 264.733 133.922 264.142 132.802C263.582 131.651 263.302 130.235 263.302 128.554C263.302 127.029 263.535 125.536 264.002 124.073C264.5 122.611 265.309 121.319 266.429 120.199C267.581 119.048 269.106 118.13 271.004 117.445C272.933 116.76 275.329 116.418 278.192 116.418C281.304 116.418 283.638 116.9 285.194 117.865C286.781 118.83 287.575 120.339 287.575 122.393C287.575 123.233 287.45 124.151 287.201 125.147C286.952 126.111 286.579 126.936 286.081 127.621H272.964ZM279.173 122.066C279.173 121.101 279.017 120.448 278.706 120.106C278.395 119.763 278.021 119.592 277.585 119.592C277.088 119.592 276.621 119.763 276.185 120.106C275.781 120.417 275.407 120.852 275.065 121.413C274.723 121.942 274.411 122.564 274.131 123.28C273.851 123.964 273.618 124.696 273.431 125.474H278.752C278.815 125.1 278.877 124.711 278.939 124.307C279.001 123.964 279.048 123.591 279.079 123.186C279.141 122.782 279.173 122.408 279.173 122.066ZM290.235 116.931C291.386 116.682 292.398 116.402 293.269 116.091C294.14 115.78 294.934 115.391 295.65 114.924C296.396 114.457 297.097 113.882 297.75 113.197C298.435 112.513 299.166 111.672 299.944 110.677H304.752L303.398 116.931H307.039L306.432 120.059H302.745L300.831 129.161C300.675 129.877 300.551 130.515 300.457 131.075C300.364 131.635 300.317 132.071 300.317 132.382C300.317 133.004 300.535 133.393 300.971 133.549C301.438 133.704 302.293 133.782 303.538 133.782L302.838 137.003C302.62 137.065 302.278 137.112 301.811 137.143C301.375 137.174 300.878 137.205 300.317 137.236C299.788 137.299 299.228 137.33 298.637 137.33C298.077 137.361 297.579 137.376 297.143 137.376C296.365 137.376 295.603 137.314 294.856 137.19C294.109 137.096 293.44 136.894 292.849 136.583C292.258 136.241 291.775 135.758 291.402 135.136C291.06 134.514 290.888 133.673 290.888 132.615C290.888 132.242 290.904 131.775 290.935 131.215C290.997 130.655 291.106 130.032 291.262 129.348L293.222 120.059H289.581L290.235 116.931Z"/>
</mask>
<path d="M70.5987 88.5002H102.756L101.534 94.3053H85.8752L82.8963 108.283H95.9577L94.7356 114.165H81.6742L76.7857 137.003H60.2871L70.5987 88.5002ZM101.442 106.985C104.039 105.712 106.687 104.795 109.386 104.235C112.135 103.624 115.191 103.318 118.551 103.318C121.81 103.318 124.509 103.573 126.648 104.082C128.787 104.591 130.493 105.33 131.766 106.297C133.039 107.265 133.93 108.411 134.439 109.735C134.948 111.058 135.203 112.561 135.203 114.241C135.203 115.209 135.126 116.252 134.974 117.373C134.872 118.493 134.744 119.435 134.592 120.199L131.002 137.003H118.704L117.329 132.115H116.871C115.242 133.897 113.332 135.272 111.142 136.239C109.004 137.156 106.865 137.614 104.726 137.614C103.504 137.614 102.307 137.436 101.136 137.079C99.965 136.723 98.9211 136.188 98.0045 135.475C97.0879 134.712 96.3496 133.77 95.7894 132.649C95.2293 131.478 94.9492 130.078 94.9492 128.448C94.9492 125.8 95.6621 123.713 97.0879 122.185C98.5647 120.606 100.474 119.435 102.817 118.671C105.21 117.857 107.883 117.347 110.837 117.144C113.841 116.94 116.846 116.838 119.85 116.838C119.952 116.329 120.079 115.616 120.232 114.699C120.385 113.732 120.461 112.892 120.461 112.179C120.461 111.262 120.206 110.422 119.697 109.658C119.239 108.843 118.246 108.436 116.718 108.436C114.936 108.436 113.612 108.971 112.746 110.04C111.932 111.058 111.397 112.306 111.142 113.783H99.9905L101.442 106.985ZM119.01 120.428H117.635C116.158 120.428 114.885 120.632 113.816 121.039C112.797 121.396 111.957 121.879 111.295 122.49C110.684 123.101 110.226 123.789 109.92 124.553C109.615 125.317 109.462 126.08 109.462 126.844C109.462 128.066 109.767 128.983 110.378 129.594C111.04 130.205 111.804 130.511 112.67 130.511C113.739 130.511 114.783 130.129 115.802 129.365C116.871 128.601 117.533 127.583 117.788 126.31L119.01 120.428ZM116.489 99.652L123.593 88.5002H136.73L123.058 99.652H116.489ZM172.001 135.17C169.862 136.036 167.596 136.647 165.203 137.003C162.86 137.41 160.187 137.614 157.182 137.614C154.535 137.614 152.09 137.36 149.85 136.85C147.66 136.29 145.751 135.424 144.121 134.253C142.492 133.082 141.219 131.58 140.302 129.747C139.385 127.863 138.927 125.597 138.927 122.949C138.927 120.199 139.385 117.653 140.302 115.31C141.269 112.917 142.695 110.829 144.579 109.047C146.514 107.265 148.959 105.864 151.912 104.846C154.866 103.828 158.379 103.318 162.453 103.318C165.763 103.318 168.64 103.598 171.084 104.159C173.528 104.668 175.54 105.864 177.118 107.749L174.98 117.526H164.592C164.642 116.66 164.693 115.896 164.744 115.234C164.795 114.572 164.821 113.834 164.821 113.019C164.821 111.389 164.642 110.244 164.286 109.582C163.93 108.869 163.344 108.512 162.529 108.512C161.103 108.512 159.856 109.225 158.786 110.651C157.717 112.026 156.826 113.706 156.113 115.692C155.451 117.627 154.942 119.69 154.585 121.879C154.28 124.018 154.127 125.851 154.127 127.379C154.127 127.939 154.153 128.525 154.204 129.136C154.254 129.696 154.356 130.23 154.509 130.74C154.713 131.249 154.967 131.656 155.273 131.962C155.578 132.267 156.011 132.42 156.571 132.42C157.081 132.42 157.666 132.267 158.328 131.962C158.99 131.656 159.627 131.198 160.238 130.587C160.849 129.925 161.434 129.085 161.995 128.066C162.555 127.048 162.988 125.826 163.293 124.4H174.216L172.001 135.17ZM192.661 137.003H177.155L184.106 104.159H199.764L192.661 137.003ZM201.75 94.1525C201.75 95.3237 201.496 96.3421 200.987 97.2078C200.528 98.0735 199.892 98.8118 199.077 99.4229C198.313 100.034 197.422 100.492 196.404 100.798C195.385 101.103 194.341 101.256 193.272 101.256C191.235 101.256 189.529 100.772 188.154 99.8048C186.779 98.8373 186.092 97.3096 186.092 95.2218C186.092 94.1016 186.321 93.1086 186.779 92.2429C187.238 91.3263 187.849 90.588 188.613 90.0278C189.427 89.4168 190.344 88.9585 191.362 88.653C192.432 88.3474 193.527 88.1947 194.647 88.1947C196.633 88.1947 198.313 88.6784 199.688 89.6459C201.063 90.6134 201.75 92.1156 201.75 94.1525ZM215.115 137.003H199.533L210.379 85.674H226.038L215.115 137.003ZM232.15 132.895C232.15 133.611 231.995 134.249 231.683 134.809C231.403 135.369 231.014 135.836 230.516 136.21C230.05 136.583 229.505 136.863 228.883 137.05C228.26 137.268 227.607 137.376 226.922 137.376C225.74 137.376 224.728 137.065 223.888 136.443C223.079 135.789 222.674 134.778 222.674 133.409C222.674 132.693 222.814 132.055 223.095 131.495C223.375 130.935 223.748 130.468 224.215 130.095C224.682 129.721 225.211 129.441 225.802 129.254C226.424 129.037 227.062 128.928 227.716 128.928C228.992 128.928 230.05 129.254 230.89 129.908C231.73 130.53 232.15 131.526 232.15 132.895ZM242.579 137.003H235.017L241.645 105.635H251.214L248.18 119.919H248.507C249.534 118.736 250.685 117.896 251.961 117.398C253.268 116.869 254.559 116.605 255.835 116.605C256.924 116.605 257.827 116.776 258.543 117.118C259.289 117.429 259.881 117.865 260.316 118.425C260.752 118.985 261.063 119.654 261.25 120.432C261.437 121.21 261.53 122.035 261.53 122.906C261.53 123.342 261.499 123.995 261.437 124.867C261.374 125.738 261.234 126.718 261.017 127.807C260.799 128.865 260.488 129.97 260.083 131.122C259.678 132.242 259.134 133.269 258.449 134.202C257.796 135.136 256.956 135.898 255.929 136.49C254.933 137.081 253.735 137.376 252.334 137.376C251.494 137.376 250.67 137.283 249.86 137.096C249.082 136.91 248.367 136.661 247.713 136.35C247.091 136.038 246.531 135.681 246.033 135.276C245.566 134.84 245.224 134.405 245.006 133.969H244.679L242.579 137.003ZM247.853 132.849C248.6 132.849 249.223 132.46 249.72 131.682C250.218 130.873 250.623 129.939 250.934 128.881C251.245 127.792 251.463 126.718 251.588 125.66C251.743 124.571 251.821 123.762 251.821 123.233C251.821 122.611 251.712 122.097 251.494 121.693C251.307 121.288 250.95 121.086 250.421 121.086C249.798 121.086 249.223 121.319 248.694 121.786C248.164 122.222 247.775 122.595 247.527 122.906L245.706 131.262C245.924 131.635 246.204 131.993 246.546 132.335C246.92 132.678 247.355 132.849 247.853 132.849ZM272.964 127.621C272.84 128.305 272.746 128.959 272.684 129.581C272.653 130.204 272.638 130.764 272.638 131.262C272.638 131.542 272.653 131.853 272.684 132.195C272.715 132.538 272.778 132.864 272.871 133.175C272.995 133.456 273.151 133.704 273.338 133.922C273.556 134.109 273.851 134.202 274.225 134.202C274.505 134.202 274.816 134.109 275.158 133.922C275.532 133.736 275.889 133.471 276.232 133.129C276.605 132.786 276.948 132.366 277.259 131.868C277.601 131.371 277.866 130.81 278.052 130.188H285.707L284.494 135.183C283.871 135.587 283.156 135.929 282.347 136.21C281.538 136.49 280.682 136.723 279.779 136.91C278.877 137.065 277.959 137.174 277.025 137.236C276.092 137.33 275.205 137.376 274.365 137.376C272.809 137.376 271.362 137.236 270.024 136.956C268.685 136.676 267.519 136.194 266.523 135.509C265.527 134.825 264.733 133.922 264.142 132.802C263.582 131.651 263.302 130.235 263.302 128.554C263.302 127.029 263.535 125.536 264.002 124.073C264.5 122.611 265.309 121.319 266.429 120.199C267.581 119.048 269.106 118.13 271.004 117.445C272.933 116.76 275.329 116.418 278.192 116.418C281.304 116.418 283.638 116.9 285.194 117.865C286.781 118.83 287.575 120.339 287.575 122.393C287.575 123.233 287.45 124.151 287.201 125.147C286.952 126.111 286.579 126.936 286.081 127.621H272.964ZM279.173 122.066C279.173 121.101 279.017 120.448 278.706 120.106C278.395 119.763 278.021 119.592 277.585 119.592C277.088 119.592 276.621 119.763 276.185 120.106C275.781 120.417 275.407 120.852 275.065 121.413C274.723 121.942 274.411 122.564 274.131 123.28C273.851 123.964 273.618 124.696 273.431 125.474H278.752C278.815 125.1 278.877 124.711 278.939 124.307C279.001 123.964 279.048 123.591 279.079 123.186C279.141 122.782 279.173 122.408 279.173 122.066ZM290.235 116.931C291.386 116.682 292.398 116.402 293.269 116.091C294.14 115.78 294.934 115.391 295.65 114.924C296.396 114.457 297.097 113.882 297.75 113.197C298.435 112.513 299.166 111.672 299.944 110.677H304.752L303.398 116.931H307.039L306.432 120.059H302.745L300.831 129.161C300.675 129.877 300.551 130.515 300.457 131.075C300.364 131.635 300.317 132.071 300.317 132.382C300.317 133.004 300.535 133.393 300.971 133.549C301.438 133.704 302.293 133.782 303.538 133.782L302.838 137.003C302.62 137.065 302.278 137.112 301.811 137.143C301.375 137.174 300.878 137.205 300.317 137.236C299.788 137.299 299.228 137.33 298.637 137.33C298.077 137.361 297.579 137.376 297.143 137.376C296.365 137.376 295.603 137.314 294.856 137.19C294.109 137.096 293.44 136.894 292.849 136.583C292.258 136.241 291.775 135.758 291.402 135.136C291.06 134.514 290.888 133.673 290.888 132.615C290.888 132.242 290.904 131.775 290.935 131.215C290.997 130.655 291.106 130.032 291.262 129.348L293.222 120.059H289.581L290.235 116.931Z" fill="white"/>
<path d="M70.5987 88.5002V84.2567H67.1626L66.448 87.6178L70.5987 88.5002ZM102.756 88.5002L106.908 89.3744L107.986 84.2567H102.756V88.5002ZM101.534 94.3053V98.5487H104.977L105.686 95.1795L101.534 94.3053ZM85.8752 94.3053V90.0618H82.4408L81.725 93.4208L85.8752 94.3053ZM82.8963 108.283L78.746 107.399L77.6532 112.527H82.8963V108.283ZM95.9577 108.283L100.112 109.147L101.174 104.04H95.9577V108.283ZM94.7356 114.165V118.408H98.188L98.8903 115.028L94.7356 114.165ZM81.6742 114.165V109.921H78.2429L77.5247 113.277L81.6742 114.165ZM76.7857 137.003V141.247H80.217L80.9352 137.891L76.7857 137.003ZM60.2871 137.003L56.1364 136.121L55.0466 141.247H60.2871V137.003ZM70.5987 92.7437H102.756V84.2567H70.5987V92.7437ZM98.6033 87.626L97.3812 93.4311L105.686 95.1795L106.908 89.3744L98.6033 87.626ZM101.534 90.0618H85.8752V98.5487H101.534V90.0618ZM81.725 93.4208L78.746 107.399L87.0466 109.168L90.0255 95.1897L81.725 93.4208ZM82.8963 112.527H95.9577V104.04H82.8963V112.527ZM91.803 107.42L90.5809 113.301L98.8903 115.028L100.112 109.147L91.803 107.42ZM94.7356 109.921H81.6742V118.408H94.7356V109.921ZM77.5247 113.277L72.6362 136.115L80.9352 137.891L85.8237 115.053L77.5247 113.277ZM76.7857 132.76H60.2871V141.247H76.7857V132.76ZM64.4378 137.885L74.7494 89.3826L66.448 87.6178L56.1364 136.121L64.4378 137.885ZM101.442 106.985L99.5739 103.174L97.7223 104.082L97.2918 106.099L101.442 106.985ZM109.386 104.235L110.248 108.39L110.277 108.384L110.306 108.377L109.386 104.235ZM126.648 104.082L125.665 108.21L125.665 108.21L126.648 104.082ZM131.766 106.297L129.198 109.676L129.198 109.676L131.766 106.297ZM134.974 117.373L130.769 116.799L130.756 116.894L130.748 116.989L134.974 117.373ZM134.592 120.199L138.742 121.085L138.747 121.058L138.753 121.031L134.592 120.199ZM131.002 137.003V141.247H134.434L135.152 137.89L131.002 137.003ZM118.704 137.003L114.619 138.152L115.49 141.247H118.704V137.003ZM117.329 132.115L121.414 130.966L120.544 127.871H117.329V132.115ZM116.871 132.115V127.871H115.001L113.739 129.251L116.871 132.115ZM111.142 136.239L112.814 140.14L112.836 140.13L112.857 140.121L111.142 136.239ZM101.136 137.079L102.372 133.02L101.136 137.079ZM98.0045 135.475L95.2879 138.735L95.3429 138.781L95.3993 138.825L98.0045 135.475ZM95.7894 132.649L91.9613 134.48L91.9773 134.514L91.994 134.547L95.7894 132.649ZM97.0879 122.185L93.9891 119.286L93.9857 119.289L97.0879 122.185ZM102.817 118.671L104.132 122.706L104.158 122.697L104.184 122.688L102.817 118.671ZM110.837 117.144L110.55 112.91L110.545 112.91L110.837 117.144ZM119.85 116.838V121.082H123.329L124.011 117.67L119.85 116.838ZM120.232 114.699L124.418 115.397L124.421 115.379L124.423 115.361L120.232 114.699ZM119.697 109.658L115.999 111.739L116.077 111.878L116.166 112.012L119.697 109.658ZM112.746 110.04L109.448 107.37L109.44 107.38L109.433 107.389L112.746 110.04ZM111.142 113.783V118.026H114.717L115.324 114.504L111.142 113.783ZM99.9905 113.783L95.8405 112.897L94.7455 118.026H99.9905V113.783ZM119.01 120.428L123.164 121.291L124.226 116.185H119.01V120.428ZM113.816 121.039L115.218 125.044L115.272 125.025L115.326 125.005L113.816 121.039ZM111.295 122.49L108.417 119.372L108.354 119.43L108.294 119.49L111.295 122.49ZM109.92 124.553L113.86 126.129L113.86 126.129L109.92 124.553ZM110.378 129.594L107.378 132.595L107.438 132.655L107.5 132.712L110.378 129.594ZM115.802 129.365L113.335 125.912L113.295 125.94L113.256 125.97L115.802 129.365ZM117.788 126.31L113.633 125.446L113.63 125.462L113.627 125.477L117.788 126.31ZM116.489 99.652L112.91 97.3722L108.755 103.895H116.489V99.652ZM123.593 88.5002V84.2567H121.264L120.014 86.2204L123.593 88.5002ZM136.73 88.5002L139.413 91.7885L148.647 84.2567H136.73V88.5002ZM123.058 99.652V103.895H124.569L125.74 102.94L123.058 99.652ZM103.31 110.795C105.603 109.671 107.914 108.874 110.248 108.39L108.523 100.08C105.459 100.716 102.475 101.753 99.5739 103.174L103.31 110.795ZM110.306 108.377C112.702 107.845 115.443 107.562 118.551 107.562V99.0749C114.938 99.0749 111.568 99.4029 108.465 100.093L110.306 108.377ZM118.551 107.562C121.622 107.562 123.962 107.805 125.665 108.21L127.631 99.9541C125.056 99.3411 121.999 99.0749 118.551 99.0749V107.562ZM125.665 108.21C127.431 108.631 128.536 109.173 129.198 109.676L134.333 102.919C132.449 101.486 130.142 100.552 127.631 99.9541L125.665 108.21ZM129.198 109.676C129.925 110.229 130.287 110.76 130.478 111.258L138.4 108.211C137.573 106.061 136.152 104.301 134.333 102.919L129.198 109.676ZM130.478 111.258C130.77 112.015 130.959 112.987 130.959 114.241H139.446C139.446 112.134 139.127 110.102 138.4 108.211L130.478 111.258ZM130.959 114.241C130.959 114.988 130.9 115.838 130.769 116.799L139.178 117.946C139.353 116.667 139.446 115.429 139.446 114.241H130.959ZM130.748 116.989C130.654 118.018 130.544 118.8 130.431 119.367L138.753 121.031C138.945 120.07 139.09 118.968 139.2 117.757L130.748 116.989ZM130.442 119.312L126.852 136.116L135.152 137.89L138.742 121.085L130.442 119.312ZM131.002 132.76H118.704V141.247H131.002V132.76ZM122.789 135.854L121.414 130.966L113.244 133.263L114.619 138.152L122.789 135.854ZM117.329 127.871H116.871V136.358H117.329V127.871ZM113.739 129.251C112.503 130.604 111.074 131.63 109.427 132.358L112.857 140.121C115.59 138.913 117.98 137.19 120.003 134.978L113.739 129.251ZM109.471 132.339C107.813 133.049 106.241 133.371 104.726 133.371V141.858C107.488 141.858 110.194 141.262 112.814 140.14L109.471 132.339ZM104.726 133.371C103.923 133.371 103.143 133.255 102.372 133.02L99.9007 141.139C101.472 141.617 103.085 141.858 104.726 141.858V133.371ZM102.372 133.02C101.669 132.806 101.095 132.503 100.61 132.126L95.3993 138.825C96.7471 139.873 98.2606 140.64 99.9007 141.139L102.372 133.02ZM100.721 132.215C100.277 131.845 99.8965 131.375 99.5849 130.752L91.994 134.547C92.8026 136.164 93.8993 137.578 95.2879 138.735L100.721 132.215ZM99.6176 130.818C99.3915 130.345 99.1927 129.601 99.1927 128.448H90.7058C90.7058 130.554 91.0671 132.611 91.9613 134.48L99.6176 130.818ZM99.1927 128.448C99.1927 126.576 99.6789 125.628 100.19 125.08L93.9857 119.289C91.6453 121.797 90.7058 125.024 90.7058 128.448H99.1927ZM100.187 125.084C101.11 124.097 102.374 123.279 104.132 122.706L101.501 114.637C98.5743 115.591 96.0198 117.115 93.9891 119.286L100.187 125.084ZM104.184 122.688C106.177 122.01 108.481 121.56 111.129 121.377L110.545 112.91C107.286 113.135 104.243 113.703 101.449 114.654L104.184 122.688ZM111.124 121.377C114.033 121.18 116.942 121.082 119.85 121.082V112.595C116.75 112.595 113.649 112.7 110.55 112.91L111.124 121.377ZM124.011 117.67C124.126 117.095 124.262 116.329 124.418 115.397L116.046 114.002C115.896 114.902 115.777 115.563 115.689 116.006L124.011 117.67ZM124.423 115.361C124.599 114.25 124.704 113.178 124.704 112.179H116.218C116.218 112.605 116.17 113.214 116.04 114.038L124.423 115.361ZM124.704 112.179C124.704 110.423 124.201 108.764 123.228 107.304L116.166 112.012C116.201 112.063 116.208 112.088 116.209 112.092C116.21 112.096 116.218 112.119 116.218 112.179H124.704ZM123.396 107.578C121.791 104.726 118.756 104.193 116.718 104.193V112.679C117.145 112.679 117.18 112.742 116.998 112.667C116.892 112.624 116.716 112.535 116.52 112.369C116.318 112.2 116.137 111.985 115.999 111.739L123.396 107.578ZM116.718 104.193C114.064 104.193 111.346 105.026 109.448 107.37L116.045 112.71C116.034 112.723 116.014 112.743 115.989 112.761C115.965 112.779 115.956 112.781 115.978 112.772C116.026 112.752 116.241 112.679 116.718 112.679V104.193ZM109.433 107.389C108.107 109.046 107.319 110.985 106.961 113.062L115.324 114.504C115.475 113.627 115.756 113.071 116.06 112.691L109.433 107.389ZM111.142 109.539H99.9905V118.026H111.142V109.539ZM104.14 114.669L105.592 107.871L97.2918 106.099L95.8405 112.897L104.14 114.669ZM119.01 116.185H117.635V124.672H119.01V116.185ZM117.635 116.185C115.785 116.185 113.974 116.438 112.305 117.074L115.326 125.005C115.796 124.826 116.532 124.672 117.635 124.672V116.185ZM112.414 117.034C110.954 117.545 109.581 118.298 108.417 119.372L114.173 125.609C114.333 125.461 114.64 125.246 115.218 125.044L112.414 117.034ZM108.294 119.49C107.298 120.486 106.51 121.653 105.98 122.977L113.86 126.129C113.942 125.925 114.07 125.717 114.296 125.491L108.294 119.49ZM105.98 122.977C105.49 124.203 105.218 125.5 105.218 126.844H113.705C113.705 126.661 113.74 126.43 113.86 126.129L105.98 122.977ZM105.218 126.844C105.218 128.72 105.69 130.907 107.378 132.595L113.379 126.593C113.479 126.693 113.558 126.798 113.616 126.895C113.674 126.991 113.703 127.066 113.717 127.106C113.741 127.178 113.705 127.114 113.705 126.844H105.218ZM107.5 132.712C108.911 134.014 110.691 134.754 112.67 134.754V126.267C112.748 126.267 112.879 126.283 113.024 126.341C113.166 126.398 113.244 126.464 113.257 126.476L107.5 132.712ZM112.67 134.754C114.823 134.754 116.739 133.966 118.348 132.76L113.256 125.97C113.031 126.138 112.877 126.21 112.797 126.239C112.723 126.266 112.688 126.267 112.67 126.267V134.754ZM118.268 132.818C120.203 131.436 121.48 129.486 121.949 127.142L113.627 125.477C113.586 125.679 113.539 125.766 113.335 125.912L118.268 132.818ZM121.942 127.173L123.164 121.291L114.855 119.565L113.633 125.446L121.942 127.173ZM120.068 101.932L127.172 90.78L120.014 86.2204L112.91 97.3722L120.068 101.932ZM123.593 92.7437H136.73V84.2567H123.593V92.7437ZM134.048 85.2118L120.376 96.3637L125.74 102.94L139.413 91.7885L134.048 85.2118ZM123.058 95.4086H116.489V103.895H123.058V95.4086ZM172.001 135.17L173.593 139.103L175.699 138.251L176.157 136.025L172.001 135.17ZM165.203 137.003L164.577 132.806L164.526 132.813L164.476 132.822L165.203 137.003ZM149.85 136.85L148.798 140.961L148.853 140.976L148.909 140.988L149.85 136.85ZM144.121 134.253L141.644 137.699L141.644 137.699L144.121 134.253ZM140.302 129.747L136.486 131.603L136.496 131.624L136.506 131.644L140.302 129.747ZM140.302 115.31L136.368 113.72L136.359 113.742L136.35 113.764L140.302 115.31ZM144.579 109.047L141.704 105.926L141.684 105.945L141.663 105.964L144.579 109.047ZM151.912 104.846L150.529 100.834L150.529 100.834L151.912 104.846ZM171.084 104.159L170.136 108.295L170.177 108.304L170.219 108.313L171.084 104.159ZM177.118 107.749L181.264 108.655L181.709 106.62L180.371 105.023L177.118 107.749ZM174.98 117.526V121.769H178.395L179.125 118.432L174.98 117.526ZM164.592 117.526L160.355 117.276L160.091 121.769H164.592V117.526ZM164.744 115.234L160.513 114.909L160.513 114.909L164.744 115.234ZM164.286 109.582L160.491 111.479L160.519 111.537L160.55 111.594L164.286 109.582ZM158.786 110.651L162.136 113.256L162.159 113.227L162.181 113.197L158.786 110.651ZM156.113 115.692L152.119 114.259L152.108 114.289L152.098 114.319L156.113 115.692ZM154.585 121.879L150.397 121.198L150.39 121.238L150.385 121.279L154.585 121.879ZM154.204 129.136L149.975 129.488L149.976 129.504L149.977 129.52L154.204 129.136ZM154.509 130.74L150.445 131.959L150.499 132.14L150.569 132.316L154.509 130.74ZM155.273 131.962L152.272 134.962L152.272 134.962L155.273 131.962ZM158.328 131.962L160.106 135.815L160.106 135.815L158.328 131.962ZM160.238 130.587L163.238 133.588L163.298 133.528L163.356 133.465L160.238 130.587ZM161.995 128.066L165.713 130.111L165.713 130.111L161.995 128.066ZM163.293 124.4V120.156H159.863L159.144 123.511L163.293 124.4ZM174.216 124.4L178.372 125.255L179.421 120.156H174.216V124.4ZM170.409 131.236C168.595 131.97 166.655 132.496 164.577 132.806L165.828 141.2C168.537 140.797 171.128 140.101 173.593 139.103L170.409 131.236ZM164.476 132.822C162.426 133.179 160.004 133.371 157.182 133.371V141.858C160.37 141.858 163.294 141.642 165.93 141.184L164.476 132.822ZM157.182 133.371C154.804 133.371 152.68 133.142 150.79 132.712L148.909 140.988C151.501 141.577 154.265 141.858 157.182 141.858V133.371ZM150.901 132.739C149.16 132.294 147.747 131.634 146.598 130.808L141.644 137.699C143.754 139.215 146.16 140.287 148.798 140.961L150.901 132.739ZM146.598 130.808C145.539 130.047 144.713 129.081 144.097 127.849L136.506 131.644C137.724 134.079 139.444 136.118 141.644 137.699L146.598 130.808ZM144.118 127.89C143.547 126.717 143.17 125.118 143.17 122.949H134.684C134.684 126.075 135.224 129.009 136.486 131.603L144.118 127.89ZM143.17 122.949C143.17 120.679 143.547 118.662 144.254 116.857L136.35 113.764C135.224 116.643 134.684 119.719 134.684 122.949H143.17ZM144.236 116.901C144.974 115.075 146.052 113.495 147.495 112.13L141.663 105.964C139.339 108.163 137.565 110.759 136.368 113.72L144.236 116.901ZM147.454 112.168C148.886 110.85 150.793 109.721 153.295 108.858L150.529 100.834C147.124 102.008 144.143 103.68 141.704 105.926L147.454 112.168ZM153.295 108.858C155.692 108.031 158.715 107.562 162.453 107.562V99.0749C158.043 99.0749 154.039 99.6239 150.529 100.834L153.295 108.858ZM162.453 107.562C165.539 107.562 168.083 107.824 170.136 108.295L172.032 100.022C169.196 99.3725 165.987 99.0749 162.453 99.0749V107.562ZM170.219 108.313C171.745 108.631 172.91 109.333 173.866 110.474L180.371 105.023C178.169 102.396 175.312 100.705 171.95 100.004L170.219 108.313ZM172.973 106.842L170.834 116.619L179.125 118.432L181.264 108.655L172.973 106.842ZM174.98 113.282H164.592V121.769H174.98V113.282ZM168.828 117.775C168.878 116.927 168.927 116.19 168.975 115.56L160.513 114.909C160.46 115.602 160.407 116.392 160.355 117.276L168.828 117.775ZM168.975 115.56C169.036 114.768 169.064 113.919 169.064 113.019H160.577C160.577 113.748 160.554 114.376 160.513 114.909L168.975 115.56ZM169.064 113.019C169.064 111.326 168.921 109.238 168.022 107.57L160.55 111.594C160.471 111.447 160.447 111.36 160.451 111.373C160.454 111.382 160.472 111.449 160.494 111.59C160.539 111.88 160.577 112.342 160.577 113.019H169.064ZM168.081 107.684C167.606 106.732 166.865 105.812 165.786 105.155C164.712 104.501 163.567 104.269 162.529 104.269V112.756C162.306 112.756 161.861 112.702 161.373 112.404C160.88 112.104 160.61 111.718 160.491 111.479L168.081 107.684ZM162.529 104.269C159.436 104.269 157.04 105.907 155.392 108.105L162.181 113.197C162.449 112.84 162.614 112.74 162.63 112.731C162.636 112.728 162.62 112.737 162.587 112.746C162.572 112.75 162.558 112.753 162.546 112.754C162.534 112.756 162.528 112.756 162.529 112.756V104.269ZM155.437 108.046C154.041 109.84 152.953 111.937 152.119 114.259L160.107 117.126C160.699 115.476 161.393 114.212 162.136 113.256L155.437 108.046ZM152.098 114.319C151.353 116.497 150.789 118.792 150.397 121.198L158.774 122.561C159.095 120.587 159.549 118.758 160.128 117.066L152.098 114.319ZM150.385 121.279C150.061 123.542 149.884 125.587 149.884 127.379H158.371C158.371 126.115 158.499 124.494 158.786 122.479L150.385 121.279ZM149.884 127.379C149.884 128.067 149.915 128.771 149.975 129.488L158.432 128.783C158.39 128.279 158.371 127.811 158.371 127.379H149.884ZM149.977 129.52C150.053 130.347 150.206 131.162 150.445 131.959L158.574 129.52C158.507 129.299 158.456 129.045 158.43 128.751L149.977 129.52ZM150.569 132.316C150.931 133.22 151.467 134.157 152.272 134.962L158.273 128.961C158.468 129.156 158.495 129.278 158.449 129.164L150.569 132.316ZM152.272 134.962C153.59 136.28 155.234 136.664 156.571 136.664V128.177C156.67 128.177 156.914 128.189 157.239 128.304C157.582 128.425 157.95 128.638 158.273 128.961L152.272 134.962ZM156.571 136.664C157.9 136.664 159.11 136.275 160.106 135.815L156.55 128.109C156.478 128.142 156.422 128.165 156.383 128.179C156.343 128.194 156.323 128.199 156.321 128.199C156.32 128.2 156.34 128.194 156.381 128.189C156.422 128.183 156.487 128.177 156.571 128.177V136.664ZM160.106 135.815C161.298 135.265 162.337 134.489 163.238 133.588L157.237 127.586C156.916 127.907 156.682 128.048 156.55 128.109L160.106 135.815ZM163.356 133.465C164.256 132.49 165.032 131.349 165.713 130.111L158.276 126.021C157.837 126.821 157.442 127.36 157.12 127.709L163.356 133.465ZM165.713 130.111C166.515 128.652 167.071 127.021 167.442 125.289L159.144 123.511C158.904 124.63 158.594 125.444 158.276 126.021L165.713 130.111ZM163.293 128.643H174.216V120.156H163.293V128.643ZM170.059 123.545L167.844 134.315L176.157 136.025L178.372 125.255L170.059 123.545ZM192.661 137.003V141.247H196.085L196.808 137.9L192.661 137.003ZM177.155 137.003L173.004 136.124L171.92 141.247H177.155V137.003ZM184.106 104.159V99.9151H180.667L179.955 103.28L184.106 104.159ZM199.764 104.159L203.912 105.056L205.024 99.9151H199.764V104.159ZM200.987 97.2078L197.329 95.0563L197.281 95.1383L197.236 95.2223L200.987 97.2078ZM199.077 99.4229L196.531 96.0281L196.478 96.0679L196.426 96.1093L199.077 99.4229ZM196.404 100.798L195.184 96.7333L195.184 96.7333L196.404 100.798ZM188.154 99.8048L185.712 103.275L185.712 103.275L188.154 99.8048ZM186.779 92.2429L190.53 94.2284L190.553 94.1848L190.575 94.1407L186.779 92.2429ZM188.613 90.0278L191.122 93.4498L191.14 93.4363L191.159 93.4226L188.613 90.0278ZM191.362 88.653L190.197 84.5728L190.17 84.5804L190.143 84.5884L191.362 88.653ZM199.688 89.6459L197.246 93.1163L197.246 93.1163L199.688 89.6459ZM192.661 132.76H177.155V141.247H192.661V132.76ZM181.307 137.882L188.258 105.037L179.955 103.28L173.004 136.124L181.307 137.882ZM184.106 108.402H199.764V99.9151H184.106V108.402ZM195.617 103.262L188.513 136.106L196.808 137.9L203.912 105.056L195.617 103.262ZM197.507 94.1525C197.507 94.6943 197.395 94.9442 197.329 95.0563L204.644 99.3593C205.597 97.74 205.994 95.9531 205.994 94.1525H197.507ZM197.236 95.2223C197.082 95.5131 196.866 95.777 196.531 96.0281L201.623 102.818C202.918 101.847 203.974 100.634 204.737 99.1933L197.236 95.2223ZM196.426 96.1093C196.123 96.3521 195.727 96.5703 195.184 96.7333L197.623 104.862C199.117 104.414 200.504 103.716 201.728 102.736L196.426 96.1093ZM195.184 96.7333C194.564 96.9194 193.931 97.0126 193.272 97.0126V105.5C194.752 105.5 196.207 105.287 197.623 104.862L195.184 96.7333ZM193.272 97.0126C191.921 97.0126 191.116 96.7004 190.596 96.3345L185.712 103.275C187.942 104.844 190.549 105.5 193.272 105.5V97.0126ZM190.596 96.3345C190.529 96.287 190.508 96.2594 190.477 96.1921C190.433 96.0931 190.335 95.809 190.335 95.2218H181.849C181.849 98.315 182.932 101.319 185.712 103.275L190.596 96.3345ZM190.335 95.2218C190.335 94.6934 190.439 94.3995 190.53 94.2284L183.029 90.2575C182.203 91.8177 181.849 93.5098 181.849 95.2218H190.335ZM190.575 94.1407C190.757 93.7766 190.946 93.5791 191.122 93.4498L186.103 86.6059C184.752 87.5968 183.719 88.8761 182.984 90.3452L190.575 94.1407ZM191.159 93.4226C191.557 93.1242 192.02 92.8859 192.582 92.7175L190.143 84.5884C188.668 85.031 187.298 85.7094 186.067 86.6331L191.159 93.4226ZM192.528 92.7331C193.216 92.5367 193.918 92.4381 194.647 92.4381V83.9512C193.135 83.9512 191.648 84.1581 190.197 84.5728L192.528 92.7331ZM194.647 92.4381C195.921 92.4381 196.708 92.738 197.246 93.1163L202.13 86.1756C199.918 84.6189 197.344 83.9512 194.647 83.9512V92.4381ZM197.246 93.1163C197.33 93.1754 197.351 93.2091 197.376 93.264C197.414 93.3475 197.507 93.605 197.507 94.1525H205.994C205.994 91.0659 204.881 88.1111 202.13 86.1756L197.246 93.1163ZM215.115 137.003V141.247H218.55L219.265 137.886L215.115 137.003ZM199.533 137.003L195.381 136.126L194.299 141.247H199.533V137.003ZM210.379 85.674V81.4306H206.939L206.227 84.7967L210.379 85.674ZM226.038 85.674L230.188 86.5573L231.279 81.4306H226.038V85.674ZM215.115 132.76H199.533V141.247H215.115V132.76ZM203.685 137.88L214.531 86.5513L206.227 84.7967L195.381 136.126L203.685 137.88ZM210.379 89.9175H226.038V81.4306H210.379V89.9175ZM221.887 84.7908L210.964 136.12L219.265 137.886L230.188 86.5573L221.887 84.7908ZM231.683 134.809L227.974 132.748L227.929 132.829L227.888 132.911L231.683 134.809ZM230.516 136.21L227.97 132.815L227.917 132.855L227.865 132.896L230.516 136.21ZM228.883 137.05L227.663 132.985L227.571 133.013L227.481 133.044L228.883 137.05ZM223.888 136.443L221.222 139.744L221.291 139.8L221.362 139.853L223.888 136.443ZM223.095 131.495L219.299 129.597L219.299 129.597L223.095 131.495ZM224.215 130.095L226.866 133.408L226.866 133.408L224.215 130.095ZM225.802 129.254L227.08 133.301L227.142 133.281L227.204 133.26L225.802 129.254ZM230.89 129.908L228.285 133.258L228.324 133.288L228.364 133.318L230.89 129.908ZM227.907 132.895C227.907 132.945 227.901 132.943 227.911 132.905C227.921 132.865 227.941 132.808 227.974 132.748L235.393 136.87C236.094 135.608 236.394 134.246 236.394 132.895H227.907ZM227.888 132.911C227.89 132.908 227.9 132.888 227.922 132.863C227.943 132.837 227.962 132.821 227.97 132.815L233.062 139.604C234.091 138.833 234.906 137.852 235.479 136.707L227.888 132.911ZM227.865 132.896C227.859 132.901 227.81 132.941 227.663 132.985L230.102 141.114C231.2 140.785 232.24 140.265 233.167 139.523L227.865 132.896ZM227.481 133.044C227.326 133.099 227.148 133.133 226.922 133.133V141.62C228.066 141.62 229.194 141.436 230.284 141.055L227.481 133.044ZM226.922 133.133C226.525 133.133 226.429 133.044 226.414 133.033L221.362 139.853C223.027 141.086 224.955 141.62 226.922 141.62V133.133ZM226.554 133.142C226.637 133.209 226.718 133.292 226.786 133.386C226.854 133.479 226.895 133.562 226.918 133.618C226.96 133.724 226.918 133.687 226.918 133.409H218.431C218.431 135.624 219.119 138.046 221.222 139.744L226.554 133.142ZM226.918 133.409C226.918 133.328 226.926 133.297 226.924 133.303C226.924 133.307 226.921 133.317 226.915 133.334C226.909 133.351 226.901 133.371 226.89 133.393L219.299 129.597C218.685 130.826 218.431 132.129 218.431 133.409H226.918ZM226.89 133.393C226.897 133.379 226.901 133.372 226.902 133.371C226.903 133.369 226.902 133.371 226.898 133.376C226.894 133.381 226.889 133.386 226.883 133.393C226.876 133.399 226.87 133.404 226.866 133.408L221.564 126.781C220.595 127.556 219.84 128.515 219.299 129.597L226.89 133.393ZM226.866 133.408C226.909 133.374 226.969 133.336 227.08 133.301L224.524 125.208C223.453 125.546 222.454 126.069 221.564 126.781L226.866 133.408ZM227.204 133.26C227.38 133.198 227.544 133.171 227.716 133.171V124.684C226.58 124.684 225.469 124.875 224.4 125.249L227.204 133.26ZM227.716 133.171C227.992 133.171 228.147 133.207 228.214 133.227C228.248 133.238 228.265 133.246 228.272 133.25C228.278 133.253 228.281 133.255 228.285 133.258L233.495 126.558C231.77 125.217 229.741 124.684 227.716 124.684V133.171ZM228.364 133.318C228.271 133.249 228.177 133.159 228.093 133.052C228.01 132.946 227.957 132.846 227.925 132.771C227.865 132.628 227.907 132.632 227.907 132.895H236.394C236.394 130.637 235.656 128.158 233.416 126.498L228.364 133.318ZM242.579 137.003V141.247H244.802L246.068 139.418L242.579 137.003ZM235.017 137.003L230.865 136.126L229.783 141.247H235.017V137.003ZM241.645 105.635V101.392H238.205L237.493 104.758L241.645 105.635ZM251.214 105.635L255.365 106.517L256.454 101.392H251.214V105.635ZM248.18 119.919L244.029 119.037L242.941 124.162H248.18V119.919ZM248.507 119.919V124.162H250.442L251.711 122.701L248.507 119.919ZM251.961 117.398L253.504 121.351L253.528 121.342L253.553 121.332L251.961 117.398ZM258.543 117.118L256.712 120.946L256.81 120.993L256.91 121.035L258.543 117.118ZM260.316 118.425L263.666 115.82L263.666 115.82L260.316 118.425ZM261.25 120.432L265.376 119.442L265.376 119.442L261.25 120.432ZM261.437 124.867L265.669 125.169L265.669 125.169L261.437 124.867ZM261.017 127.807L265.173 128.663L265.175 128.651L265.178 128.64L261.017 127.807ZM260.083 131.122L264.074 132.563L264.08 132.546L264.087 132.528L260.083 131.122ZM258.449 134.202L255.027 131.693L255 131.731L254.973 131.769L258.449 134.202ZM255.929 136.49L253.811 132.812L253.787 132.826L253.762 132.841L255.929 136.49ZM249.86 137.096L248.87 141.223L248.888 141.227L248.906 141.231L249.86 137.096ZM247.713 136.35L245.816 140.145L245.852 140.163L245.889 140.181L247.713 136.35ZM246.033 135.276L243.137 138.378L243.244 138.478L243.357 138.569L246.033 135.276ZM245.006 133.969L248.801 132.071L247.629 129.726H245.006V133.969ZM244.679 133.969V129.726H242.456L241.19 131.554L244.679 133.969ZM249.72 131.682L253.295 133.969L253.315 133.938L253.334 133.906L249.72 131.682ZM250.934 128.881L255.005 130.078L255.01 130.063L255.014 130.047L250.934 128.881ZM251.588 125.66L247.387 125.06L247.379 125.112L247.373 125.164L251.588 125.66ZM251.494 121.693L247.641 123.471L247.696 123.589L247.758 123.704L251.494 121.693ZM248.694 121.786L251.391 125.062L251.447 125.016L251.501 124.968L248.694 121.786ZM247.527 122.906L244.213 120.255L243.592 121.032L243.38 122.003L247.527 122.906ZM245.706 131.262L241.56 130.358L241.208 131.973L242.041 133.4L245.706 131.262ZM246.546 132.335L243.546 135.336L243.611 135.401L243.679 135.463L246.546 132.335ZM242.579 132.76H235.017V141.247H242.579V132.76ZM239.169 137.88L245.797 106.513L237.493 104.758L230.865 136.126L239.169 137.88ZM241.645 109.879H251.214V101.392H241.645V109.879ZM247.063 104.754L244.029 119.037L252.331 120.801L255.365 106.517L247.063 104.754ZM248.18 124.162H248.507V115.675H248.18V124.162ZM251.711 122.701C252.352 121.963 252.955 121.566 253.504 121.351L250.418 113.445C248.415 114.227 246.715 115.51 245.303 117.136L251.711 122.701ZM253.553 121.332C254.407 120.986 255.16 120.848 255.835 120.848V112.361C253.959 112.361 252.128 112.753 250.369 113.465L253.553 121.332ZM255.835 120.848C256.514 120.848 256.739 120.96 256.712 120.946L260.373 113.29C258.914 112.592 257.335 112.361 255.835 112.361V120.848ZM256.91 121.035C257.001 121.073 257.033 121.098 257.029 121.095C257.027 121.093 257.019 121.087 257.006 121.075C256.994 121.063 256.98 121.048 256.967 121.03L263.666 115.82C262.721 114.605 261.501 113.754 260.175 113.201L256.91 121.035ZM256.967 121.03C256.987 121.056 257.06 121.157 257.124 121.423L265.376 119.442C265.067 118.152 264.517 116.914 263.666 115.82L256.967 121.03ZM257.124 121.423C257.226 121.849 257.287 122.339 257.287 122.906H265.773C265.773 121.731 265.647 120.572 265.376 119.442L257.124 121.423ZM257.287 122.906C257.287 123.185 257.265 123.715 257.204 124.564L265.669 125.169C265.733 124.276 265.773 123.499 265.773 122.906H257.287ZM257.204 124.564C257.157 125.218 257.047 126.017 256.855 126.975L265.178 128.64C265.422 127.42 265.592 126.258 265.669 125.169L257.204 124.564ZM256.86 126.952C256.685 127.801 256.429 128.721 256.079 129.715L264.087 132.528C264.546 131.22 264.912 129.93 265.173 128.663L256.86 126.952ZM256.092 129.68C255.821 130.43 255.465 131.096 255.027 131.693L261.871 136.712C262.803 135.442 263.536 134.053 264.074 132.563L256.092 129.68ZM254.973 131.769C254.69 132.173 254.322 132.518 253.811 132.812L258.046 140.167C259.59 139.278 260.901 138.099 261.926 136.636L254.973 131.769ZM253.762 132.841C253.547 132.969 253.132 133.133 252.334 133.133V141.62C254.338 141.62 256.319 141.193 258.095 140.138L253.762 132.841ZM252.334 133.133C251.812 133.133 251.307 133.075 250.815 132.962L248.906 141.231C250.032 141.491 251.177 141.62 252.334 141.62V133.133ZM250.851 132.97C250.331 132.845 249.898 132.69 249.538 132.518L245.889 140.181C246.836 140.632 247.834 140.974 248.87 141.223L250.851 132.97ZM249.611 132.554C249.242 132.37 248.947 132.176 248.709 131.983L243.357 138.569C244.114 139.185 244.939 139.707 245.816 140.145L249.611 132.554ZM248.928 132.174C248.831 132.083 248.781 132.024 248.763 132.001C248.745 131.978 248.766 132.001 248.801 132.071L241.21 135.867C241.712 136.87 242.41 137.699 243.137 138.378L248.928 132.174ZM245.006 129.726H244.679V138.212H245.006V129.726ZM241.19 131.554L239.09 134.588L246.068 139.418L248.168 136.384L241.19 131.554ZM247.853 137.092C250.4 137.092 252.228 135.635 253.295 133.969L246.146 129.394C246.151 129.386 246.29 129.172 246.631 128.959C247.007 128.724 247.446 128.605 247.853 128.605V137.092ZM253.334 133.906C254.058 132.73 254.604 131.441 255.005 130.078L246.863 127.684C246.641 128.437 246.379 129.016 246.106 129.458L253.334 133.906ZM255.014 130.047C255.384 128.752 255.649 127.454 255.802 126.156L247.373 125.164C247.277 125.982 247.106 126.832 246.854 127.715L255.014 130.047ZM255.788 126.26C255.949 125.137 256.064 124.079 256.064 123.233H247.577C247.577 123.445 247.537 124.005 247.387 125.06L255.788 126.26ZM256.064 123.233C256.064 122.146 255.878 120.884 255.23 119.681L247.758 123.704C247.546 123.31 247.577 123.075 247.577 123.233H256.064ZM255.347 119.914C254.914 118.976 254.193 118.119 253.174 117.543C252.2 116.993 251.212 116.842 250.421 116.842V125.329C250.158 125.329 249.613 125.28 248.998 124.932C248.336 124.558 247.888 124.005 247.641 123.471L255.347 119.914ZM250.421 116.842C248.626 116.842 247.08 117.551 245.886 118.604L251.501 124.968C251.455 125.009 251.328 125.108 251.116 125.193C250.897 125.282 250.655 125.329 250.421 125.329V116.842ZM245.996 118.51C245.377 119.02 244.73 119.609 244.213 120.255L250.84 125.557C250.817 125.587 250.84 125.554 250.944 125.454C251.043 125.359 251.189 125.228 251.391 125.062L245.996 118.51ZM243.38 122.003L241.56 130.358L249.852 132.165L251.673 123.81L243.38 122.003ZM242.041 133.4C242.463 134.123 242.976 134.766 243.546 135.336L249.547 129.335C249.432 129.22 249.385 129.147 249.372 129.123L242.041 133.4ZM243.679 135.463C244.82 136.509 246.273 137.092 247.853 137.092V128.605C248.101 128.605 248.397 128.65 248.705 128.771C249.011 128.891 249.248 129.055 249.414 129.207L243.679 135.463ZM272.964 127.621V123.377H269.423L268.789 126.862L272.964 127.621ZM272.684 129.581L268.462 129.159L268.451 129.264L268.446 129.369L272.684 129.581ZM272.871 133.175L268.806 134.395L268.884 134.653L268.993 134.899L272.871 133.175ZM273.338 133.922L270.116 136.684L270.328 136.932L270.576 137.144L273.338 133.922ZM275.158 133.922L273.26 130.127L273.193 130.161L273.126 130.197L275.158 133.922ZM276.232 133.129L273.364 130.001L273.296 130.063L273.231 130.128L276.232 133.129ZM277.259 131.868L273.762 129.464L273.709 129.541L273.66 129.619L277.259 131.868ZM278.052 130.188V125.945H274.895L273.988 128.969L278.052 130.188ZM285.707 130.188L289.831 131.19L291.106 125.945H285.707V130.188ZM284.494 135.183L286.806 138.741L288.219 137.822L288.617 136.185L284.494 135.183ZM282.347 136.21L283.735 140.22L283.735 140.22L282.347 136.21ZM279.779 136.91L280.5 141.091L280.57 141.079L280.639 141.065L279.779 136.91ZM277.025 137.236L276.743 133.002L276.673 133.007L276.603 133.014L277.025 137.236ZM270.024 136.956L269.154 141.11L269.154 141.11L270.024 136.956ZM266.523 135.509L268.927 132.013L268.927 132.013L266.523 135.509ZM264.142 132.802L260.326 134.658L260.357 134.721L260.389 134.783L264.142 132.802ZM264.002 124.073L259.985 122.706L259.972 122.744L259.96 122.783L264.002 124.073ZM266.429 120.199L263.429 117.198L263.429 117.198L266.429 120.199ZM271.004 117.445L269.585 113.446L269.574 113.449L269.564 113.453L271.004 117.445ZM285.194 117.865L282.958 121.472L282.974 121.481L282.99 121.491L285.194 117.865ZM287.201 125.147L291.31 126.207L291.314 126.192L291.318 126.176L287.201 125.147ZM286.081 127.621V131.864H288.242L289.513 130.117L286.081 127.621ZM276.185 120.106L278.772 123.469L278.79 123.456L278.807 123.442L276.185 120.106ZM275.065 121.413L278.628 123.718L278.657 123.672L278.686 123.625L275.065 121.413ZM274.131 123.28L278.059 124.886L278.071 124.856L278.083 124.826L274.131 123.28ZM273.431 125.474L269.305 124.483L268.049 129.717H273.431V125.474ZM278.752 125.474V129.717H282.347L282.938 126.171L278.752 125.474ZM278.939 124.307L274.764 123.547L274.754 123.604L274.745 123.661L278.939 124.307ZM279.079 123.186L274.885 122.541L274.861 122.7L274.848 122.861L279.079 123.186ZM268.789 126.862C268.647 127.646 268.537 128.412 268.462 129.159L276.907 130.003C276.956 129.506 277.033 128.965 277.139 128.38L268.789 126.862ZM268.446 129.369C268.412 130.046 268.394 130.678 268.394 131.262H276.881C276.881 130.849 276.894 130.362 276.922 129.793L268.446 129.369ZM268.394 131.262C268.394 131.695 268.418 132.137 268.458 132.579L276.91 131.811C276.888 131.569 276.881 131.389 276.881 131.262H268.394ZM268.458 132.579C268.514 133.188 268.627 133.796 268.806 134.395L276.935 131.956C276.928 131.932 276.917 131.887 276.91 131.811L268.458 132.579ZM268.993 134.899C269.273 135.529 269.644 136.133 270.116 136.684L276.56 131.161C276.658 131.276 276.717 131.382 276.749 131.452L268.993 134.899ZM270.576 137.144C271.77 138.168 273.149 138.446 274.225 138.446V129.959C274.553 129.959 275.341 130.05 276.099 130.7L270.576 137.144ZM274.225 138.446C275.439 138.446 276.456 138.048 277.19 137.648L273.126 130.197C273.176 130.17 273.571 129.959 274.225 129.959V138.446ZM277.056 137.718C277.896 137.297 278.618 136.744 279.232 136.129L273.231 130.128C273.196 130.163 273.18 130.175 273.184 130.171C273.189 130.168 273.215 130.15 273.26 130.127L277.056 137.718ZM279.099 136.257C279.795 135.619 280.374 134.89 280.857 134.117L273.66 129.619C273.521 129.843 273.415 129.954 273.364 130.001L279.099 136.257ZM280.756 134.273C281.366 133.385 281.813 132.42 282.117 131.407L273.988 128.969C273.918 129.201 273.837 129.356 273.762 129.464L280.756 134.273ZM278.052 134.432H285.707V125.945H278.052V134.432ZM281.584 129.186L280.37 134.181L288.617 136.185L289.831 131.19L281.584 129.186ZM282.181 131.625C281.888 131.816 281.491 132.015 280.959 132.2L283.735 140.22C284.821 139.844 285.855 139.359 286.806 138.741L282.181 131.625ZM280.959 132.2C280.335 132.415 279.656 132.602 278.92 132.754L280.639 141.065C281.707 140.844 282.74 140.564 283.735 140.22L280.959 132.2ZM279.058 132.728C278.304 132.858 277.533 132.95 276.743 133.002L277.308 141.471C278.385 141.399 279.45 141.273 280.5 141.091L279.058 132.728ZM276.603 133.014C275.794 133.095 275.049 133.133 274.365 133.133V141.62C275.361 141.62 276.39 141.565 277.448 141.459L276.603 133.014ZM274.365 133.133C273.062 133.133 271.909 133.016 270.893 132.803L269.154 141.11C270.814 141.457 272.556 141.62 274.365 141.62V133.133ZM270.893 132.803C270.033 132.623 269.403 132.34 268.927 132.013L264.119 139.006C265.634 140.048 267.338 140.73 269.154 141.11L270.893 132.803ZM268.927 132.013C268.524 131.736 268.182 131.365 267.895 130.821L260.389 134.783C261.285 136.48 262.53 137.914 264.119 139.006L268.927 132.013ZM267.958 130.946C267.753 130.524 267.545 129.784 267.545 128.554H259.058C259.058 130.685 259.411 132.777 260.326 134.658L267.958 130.946ZM267.545 128.554C267.545 127.47 267.71 126.412 268.045 125.363L259.96 122.783C259.361 124.66 259.058 126.589 259.058 128.554H267.545ZM268.019 125.441C268.302 124.609 268.757 123.872 269.43 123.199L263.429 117.198C261.861 118.766 260.698 120.612 259.985 122.706L268.019 125.441ZM269.43 123.199C270.048 122.582 270.995 121.959 272.444 121.437L269.564 113.453C267.216 114.3 265.114 115.513 263.429 117.198L269.43 123.199ZM272.423 121.444C273.755 120.971 275.635 120.661 278.192 120.661V112.175C275.024 112.175 272.112 112.549 269.585 113.446L272.423 121.444ZM278.192 120.661C281.003 120.661 282.394 121.122 282.958 121.472L287.43 114.258C284.882 112.679 281.605 112.175 278.192 112.175V120.661ZM282.99 121.491C283.099 121.558 283.154 121.608 283.178 121.633C283.2 121.656 283.212 121.674 283.223 121.695C283.241 121.728 283.331 121.914 283.331 122.393H291.818C291.818 119.045 290.404 116.066 287.398 114.239L282.99 121.491ZM283.331 122.393C283.331 122.82 283.267 123.387 283.084 124.118L291.318 126.176C291.633 124.915 291.818 123.646 291.818 122.393H283.331ZM283.092 124.086C282.954 124.624 282.783 124.941 282.649 125.125L289.513 130.117C290.375 128.931 290.951 127.599 291.31 126.207L283.092 124.086ZM286.081 123.377H272.964V131.864H286.081V123.377ZM283.416 122.066C283.416 121.383 283.364 120.624 283.184 119.87C283.01 119.14 282.653 118.139 281.846 117.251L275.566 122.96C275.31 122.679 275.157 122.411 275.068 122.222C274.98 122.034 274.942 121.894 274.928 121.835C274.904 121.734 274.929 121.784 274.929 122.066H283.416ZM281.846 117.251C280.786 116.086 279.298 115.349 277.585 115.349V123.836C277.231 123.836 276.826 123.762 276.424 123.578C276.029 123.397 275.747 123.159 275.566 122.96L281.846 117.251ZM277.585 115.349C276.029 115.349 274.657 115.909 273.563 116.769L278.807 123.442C278.714 123.515 278.553 123.62 278.323 123.705C278.088 123.791 277.834 123.836 277.585 123.836V115.349ZM273.598 116.742C272.682 117.447 271.983 118.317 271.444 119.2L278.686 123.625C278.755 123.512 278.803 123.451 278.824 123.427C278.843 123.404 278.828 123.426 278.772 123.469L273.598 116.742ZM271.502 119.107C270.976 119.921 270.542 120.808 270.18 121.733L278.083 124.826C278.281 124.32 278.469 123.962 278.628 123.718L271.502 119.107ZM270.204 121.673C269.835 122.573 269.538 123.512 269.305 124.483L277.557 126.464C277.698 125.879 277.867 125.355 278.059 124.886L270.204 121.673ZM273.431 129.717H278.752V121.23H273.431V129.717ZM282.938 126.171C283.004 125.779 283.069 125.372 283.133 124.952L274.745 123.661C274.685 124.05 274.626 124.421 274.567 124.776L282.938 126.171ZM283.114 125.066C283.206 124.559 283.27 124.039 283.31 123.512L274.848 122.861C274.826 123.143 274.796 123.37 274.764 123.547L283.114 125.066ZM283.273 123.832C283.362 123.253 283.416 122.661 283.416 122.066H274.929C274.929 122.155 274.921 122.31 274.885 122.541L283.273 123.832ZM290.235 116.931L289.338 112.784L286.645 113.366L286.081 116.063L290.235 116.931ZM293.269 116.091L294.696 120.087L294.696 120.087L293.269 116.091ZM295.65 114.924L293.401 111.326L293.366 111.348L293.331 111.37L295.65 114.924ZM297.75 113.197L294.749 110.197L294.715 110.231L294.681 110.267L297.75 113.197ZM299.944 110.677V106.433H297.874L296.6 108.064L299.944 110.677ZM304.752 110.677L308.899 111.574L310.012 106.433H304.752V110.677ZM303.398 116.931L299.251 116.034L298.138 121.175H303.398V116.931ZM307.039 116.931L311.205 117.74L312.185 112.688H307.039V116.931ZM306.432 120.059V124.302H309.931L310.598 120.867L306.432 120.059ZM302.745 120.059V115.815H299.301L298.592 119.186L302.745 120.059ZM300.831 129.161L304.977 130.063L304.981 130.048L304.984 130.034L300.831 129.161ZM300.457 131.075L304.643 131.773L304.643 131.773L300.457 131.075ZM300.971 133.549L299.544 137.545L299.586 137.56L299.629 137.575L300.971 133.549ZM303.538 133.782L307.685 134.684L308.803 129.539H303.538V133.782ZM302.838 137.003L304.004 141.083L306.445 140.386L306.985 137.904L302.838 137.003ZM301.811 137.143L301.529 132.909L301.519 132.91L301.509 132.91L301.811 137.143ZM300.317 137.236L300.082 133L299.951 133.007L299.822 133.022L300.317 137.236ZM298.637 137.33V133.086H298.519L298.402 133.093L298.637 137.33ZM294.856 137.19L295.554 133.004L295.468 132.99L295.382 132.979L294.856 137.19ZM292.849 136.583L290.723 140.255L290.797 140.298L290.872 140.338L292.849 136.583ZM291.402 135.136L287.684 137.181L287.722 137.251L287.763 137.319L291.402 135.136ZM290.935 131.215L286.718 130.746L286.705 130.863L286.698 130.98L290.935 131.215ZM291.262 129.348L295.4 130.288L295.407 130.256L295.414 130.224L291.262 129.348ZM293.222 120.059L297.374 120.935L298.455 115.815H293.222V120.059ZM289.581 120.059L285.428 119.191L284.36 124.302H289.581V120.059ZM291.132 121.079C292.417 120.801 293.612 120.475 294.696 120.087L291.842 112.095C291.183 112.33 290.356 112.564 289.338 112.784L291.132 121.079ZM294.696 120.087C295.855 119.674 296.951 119.141 297.968 118.479L293.331 111.37C292.916 111.641 292.425 111.886 291.842 112.095L294.696 120.087ZM297.899 118.523C298.967 117.855 299.94 117.049 300.82 116.127L294.681 110.267C294.253 110.715 293.826 111.06 293.401 111.326L297.899 118.523ZM300.751 116.198C301.588 115.361 302.434 114.383 303.288 113.289L296.6 108.064C295.898 108.962 295.282 109.665 294.749 110.197L300.751 116.198ZM299.944 114.92H304.752V106.433H299.944V114.92ZM300.604 109.779L299.251 116.034L307.546 117.829L308.899 111.574L300.604 109.779ZM303.398 121.175H307.039V112.688H303.398V121.175ZM302.873 116.123L302.266 119.251L310.598 120.867L311.205 117.74L302.873 116.123ZM306.432 115.815H302.745V124.302H306.432V115.815ZM298.592 119.186L296.678 128.288L304.984 130.034L306.897 120.932L298.592 119.186ZM296.684 128.26C296.518 129.025 296.379 129.733 296.272 130.377L304.643 131.773C304.722 131.297 304.833 130.729 304.977 130.063L296.684 128.26ZM296.272 130.377C296.166 131.013 296.074 131.72 296.074 132.382H304.561C304.561 132.424 304.559 132.397 304.572 132.274C304.584 132.158 304.606 131.993 304.643 131.773L296.272 130.377ZM296.074 132.382C296.074 133.146 296.202 134.184 296.778 135.214C297.409 136.339 298.4 137.137 299.544 137.545L302.398 129.553C303.106 129.806 303.771 130.331 304.183 131.067C304.542 131.708 304.561 132.24 304.561 132.382H296.074ZM299.629 137.575C300.827 137.974 302.326 138.026 303.538 138.026V129.539C302.993 129.539 302.605 129.521 302.347 129.498C302.221 129.486 302.153 129.476 302.131 129.472C302.103 129.467 302.176 129.477 302.313 129.523L299.629 137.575ZM299.392 132.881L298.691 136.102L306.985 137.904L307.685 134.684L299.392 132.881ZM301.672 132.923C301.761 132.898 301.821 132.885 301.841 132.881C301.864 132.877 301.867 132.877 301.845 132.88C301.823 132.883 301.786 132.888 301.732 132.893C301.677 132.898 301.61 132.904 301.529 132.909L302.093 141.377C302.613 141.342 303.331 141.276 304.004 141.083L301.672 132.923ZM301.509 132.91C301.101 132.94 300.626 132.969 300.082 133L300.553 141.473C301.129 141.441 301.65 141.409 302.113 141.376L301.509 132.91ZM299.822 133.022C299.474 133.063 299.08 133.086 298.637 133.086V141.573C299.376 141.573 300.103 141.534 300.813 141.451L299.822 133.022ZM298.402 133.093C297.899 133.121 297.482 133.133 297.143 133.133V141.62C297.676 141.62 298.255 141.601 298.872 141.567L298.402 133.093ZM297.143 133.133C296.593 133.133 296.064 133.089 295.554 133.004L294.158 141.375C295.142 141.539 296.138 141.62 297.143 141.62V133.133ZM295.382 132.979C295.079 132.941 294.911 132.873 294.825 132.828L290.872 140.338C291.969 140.915 293.14 141.252 294.33 141.4L295.382 132.979ZM294.975 132.911C294.985 132.916 294.998 132.924 295.011 132.935C295.024 132.945 295.035 132.955 295.044 132.964C295.064 132.983 295.06 132.985 295.041 132.953L287.763 137.319C288.483 138.518 289.47 139.53 290.723 140.255L294.975 132.911ZM295.12 133.091C295.193 133.223 295.192 133.277 295.175 133.192C295.157 133.106 295.132 132.923 295.132 132.615H286.645C286.645 134.065 286.869 135.699 287.684 137.181L295.12 133.091ZM295.132 132.615C295.132 132.349 295.143 131.967 295.172 131.45L286.698 130.98C286.665 131.583 286.645 132.135 286.645 132.615H295.132ZM295.153 131.684C295.194 131.315 295.271 130.853 295.4 130.288L287.124 128.407C286.941 129.212 286.801 129.995 286.718 130.746L295.153 131.684ZM295.414 130.224L297.374 120.935L289.07 119.183L287.11 128.472L295.414 130.224ZM293.222 115.815H289.581V124.302H293.222V115.815ZM293.735 120.927L294.389 117.799L286.081 116.063L285.428 119.191L293.735 120.927Z" fill="#192494" mask="url(#path-3-outside-2_735_15)"/>
</g>
<defs>
<filter id="filter0_d_735_15" x="0.878265" y="25.9678" width="220.021" height="66.1981" filterUnits="userSpaceOnUse" color-interpolation-filters="sRGB">
<feFlood flood-opacity="0" result="BackgroundImageFix"/>
<feColorMatrix in="SourceAlpha" type="matrix" values="0 0 0 0 0 0 0 0 0 0 0 0 0 0 0 0 0 0 127 0" result="hardAlpha"/>
<feOffset dx="-2.12174" dy="8.48694"/>
<feComposite in2="hardAlpha" operator="out"/>
<feColorMatrix type="matrix" values="0 0 0 0 0.0980392 0 0 0 0 0.141176 0 0 0 0 0.580392 0 0 0 1 0"/>
<feBlend mode="normal" in2="BackgroundImageFix" result="effect1_dropShadow_735_15"/>
<feBlend mode="normal" in="SourceGraphic" in2="effect1_dropShadow_735_15" result="shape"/>
</filter>
<filter id="filter1_d_735_15" x="58.1654" y="85.6741" width="248.874" height="60.427" filterUnits="userSpaceOnUse" color-interpolation-filters="sRGB">
<feFlood flood-opacity="0" result="BackgroundImageFix"/>
<feColorMatrix in="SourceAlpha" type="matrix" values="0 0 0 0 0 0 0 0 0 0 0 0 0 0 0 0 0 0 127 0" result="hardAlpha"/>
<feOffset dx="-2.12174" dy="8.48694"/>
<feComposite in2="hardAlpha" operator="out"/>
<feColorMatrix type="matrix" values="0 0 0 0 0.0980392 0 0 0 0 0.141176 0 0 0 0 0.580392 0 0 0 1 0"/>
<feBlend mode="normal" in2="BackgroundImageFix" result="effect1_dropShadow_735_15"/>
<feBlend mode="normal" in="SourceGraphic" in2="effect1_dropShadow_735_15" result="shape"/>
</filter>
</defs>
</svg>
