<svg width="24" height="24" viewBox="0 0 24 24" fill="none" xmlns="http://www.w3.org/2000/svg">
<path d="M9.50891 18.0024V18.5147C9.50891 19.1751 9.77142 19.8085 10.2386 20.2754C10.7059 20.7422 11.3395 21.0042 11.9999 21.0037V21.0037C12.6605 21.004 13.2941 20.7417 13.7613 20.2747C14.2285 19.8077 14.491 19.1742 14.491 18.5137V18.0024" stroke="#C6D6FF" stroke-width="1.5" stroke-linecap="round" stroke-linejoin="round"/>
<path fill-rule="evenodd" clip-rule="evenodd" d="M17.9495 18.0025C19.0838 18.0025 20.0034 17.0829 20.0034 15.9486V15.9486C20.0029 15.3724 19.7741 14.8198 19.3671 14.412L18.0025 13.0484V8.99872C18.0025 5.68363 15.3151 2.99622 12 2.99622V2.99622C8.68495 2.99622 5.99754 5.68363 5.99754 8.99872V13.0484L4.63297 14.412C4.22596 14.8198 3.99717 15.3724 3.9967 15.9486V15.9486C3.9967 16.4933 4.21309 17.0157 4.59826 17.4009C4.98344 17.7861 5.50584 18.0025 6.05056 18.0025H17.9495Z" stroke="#C6D6FF" stroke-width="1.5" stroke-linecap="round" stroke-linejoin="round"/>
</svg>
