<svg width="62" height="44" viewBox="0 0 62 44" fill="none" xmlns="http://www.w3.org/2000/svg">
<g clip-path="url(#clip0_322_5551)">
<g clip-path="url(#clip1_322_5551)">
<path d="M18.5818 28.0672C18.8738 28.196 19.2002 28.3936 19.2346 28.677C19.2775 29.0421 18.8051 29.2568 18.8481 29.5704C18.8738 29.7636 19.1015 29.9998 19.9475 30.2017C21.3176 30.9146 22.6876 31.6276 24.0576 32.3362C25.0068 32.3448 25.9559 32.3491 26.9051 32.3577C32.411 29.42 37.9169 26.4867 43.4228 23.5491C43.2768 23.3945 43.0835 23.1411 43.0749 22.8147C43.0663 22.4153 43.3455 22.2091 43.3798 22.0201C43.4486 21.6293 42.4994 20.9293 38.5181 19.5807C37.496 19.4905 36.4695 19.4046 35.4474 19.3144C29.8255 22.2349 24.2037 25.151 18.5818 28.0672Z" fill="white"/>
<path d="M49.3195 23.4846L49.6975 23.2871L50.9387 22.6343L37.3113 15.4835L11.4052 29.0678L11.9292 29.3427L12.29 29.5317L11.0359 30.4894L12.4703 31.2496L11.0359 32.3448L12.4703 33.1049L11.0359 34.2001L12.4703 34.9603L11.0359 36.0554L22.5115 42.1411L25.316 43.61L50.8399 30.0256L49.2594 29.012L50.8399 28.1702L49.2594 27.1567L50.8399 26.3149L49.2594 25.3013L50.8399 24.4595L49.3195 23.4846ZM35.4946 19.2929C36.2462 19.688 37.3113 19.7696 38.2175 19.2929L43.6719 22.149C42.7657 22.63 42.9203 23.184 43.6719 23.5834L26.8493 32.4049C25.9388 31.9282 24.8823 32.0098 24.1307 32.4006L18.6806 29.5403C19.4322 29.1451 19.5825 28.5911 18.6763 28.1144L35.4946 19.2929Z" fill="#50D864"/>
<path d="M26.6774 32.7356L26.8492 32.8258L44.4664 23.5834L43.8437 23.2527C43.5087 23.0766 43.4185 22.922 43.4185 22.8662C43.4185 22.8061 43.5087 22.66 43.8437 22.4797L44.4621 22.149L38.2175 18.872L38.0457 18.9622C37.3199 19.3445 36.3879 19.3445 35.6664 18.9622L35.4946 18.872L17.8774 28.1144L18.5045 28.4408C18.8438 28.6169 18.934 28.7672 18.934 28.8273C18.934 28.8832 18.8438 29.0378 18.5131 29.2139L17.886 29.5403L24.1349 32.8215L24.3067 32.7313C25.024 32.3533 25.9559 32.3576 26.6774 32.7356ZM24.1392 31.9883L19.3849 29.493C19.6125 29.2525 19.677 29.0163 19.677 28.8316C19.677 28.6512 19.6168 28.4107 19.3806 28.1702L35.5032 19.7138C36.345 20.0875 37.3671 20.0875 38.2132 19.7138L42.9761 22.2091C42.7829 22.4109 42.6841 22.63 42.6841 22.8705C42.6841 23.0552 42.7442 23.2914 42.9804 23.5362L26.8406 31.9926C26.4112 31.7993 25.9473 31.7048 25.4792 31.7048C25.0197 31.7048 24.5601 31.7993 24.1392 31.9883Z" fill="#1F9E36"/>
<path d="M50.0581 23.5147L51.7374 22.63L37.3112 15.0626L10.6063 29.0678L11.6027 29.5918L10.3486 30.5452L11.7831 31.3054L10.3486 32.4006L11.7831 33.1608L10.3486 34.2559L11.7831 35.0161L10.3486 36.1113L22.3397 42.4718L25.3159 44.0351L51.5785 30.0599L50.0023 29.0421L51.5785 28.2046L50.0023 27.1867L51.5785 26.3493L50.0023 25.3314L51.5785 24.4939L50.0581 23.5147ZM37.3112 15.9001L50.144 22.63L25.0411 35.7978L12.204 29.0678L37.3112 15.9001ZM50.1054 29.9998L25.3159 43.1934L22.6875 41.8147L11.723 35.9996L12.5089 35.3983L22.3397 40.6165L25.3159 42.1798L49.2421 29.4458L50.1054 29.9998ZM50.1054 28.1445L49.2808 28.5825L27.3989 40.23L25.3116 41.338L25.2601 41.308L22.6832 39.9551L12.4359 34.5222L11.723 34.1443L12.5089 33.543L22.3397 38.7612L25.3159 40.3245L49.2421 27.5904L50.1054 28.1445ZM50.1054 26.2891L49.2808 26.7272L27.3989 38.3746L25.3116 39.4827L25.2601 39.4526L22.6832 38.0998L12.4359 32.6669L11.723 32.2889L12.5089 31.6877L22.3397 36.9058L25.3159 38.4691L49.2421 25.7351L50.1054 26.2891ZM49.2808 24.8718L27.3989 36.5193L25.3116 37.6273L25.2601 37.5973L22.6832 36.2444L12.4359 30.8115L11.723 30.4336L12.3285 29.9697L25.0454 36.6395L49.3023 23.9141L50.1054 24.4338L49.2808 24.8718Z" fill="#1F9E36"/>
<path d="M34.3908 31.1895L21.1243 23.8669L27.7082 20.517L41.4557 27.6721V35.4499L34.3908 39.1949V31.1895Z" fill="#FCE900"/>
<path d="M34.043 39.3796L34.0173 31.0563L20.4973 23.8239L27.7082 20.1003L41.8295 27.2168V35.2437L34.043 39.3796ZM22.052 23.8325L34.756 30.6311L34.7817 38.1771L41.0822 34.8185V27.6549L27.7082 20.9121L22.052 23.8325Z" fill="#DDB922"/>
</g>
</g>
<defs>
<clipPath id="clip0_322_5551">
<rect width="61.5742" height="43.9816" fill="white"/>
</clipPath>
<clipPath id="clip1_322_5551">
<rect width="41.3888" height="28.9683" fill="white" transform="translate(10.3486 15.0626)"/>
</clipPath>
</defs>
</svg>
