<svg width="250" height="62" viewBox="0 0 250 62" fill="none" xmlns="http://www.w3.org/2000/svg">
<g filter="url(#filter0_d_40_2899)">
<mask id="path-1-outside-1_40_2899" maskUnits="userSpaceOnUse" x="-3" y="-4" width="258" height="61" fill="black">
<rect fill="white" x="-3" y="-4" width="258" height="61"/>
<path d="M13.3116 3.49713H45.4687L44.2465 9.3022H28.5881L25.6092 23.2802H38.6706L37.4485 29.1616H24.3871L19.4986 52H3L13.3116 3.49713ZM44.1546 21.9817C46.7516 20.7087 49.3996 19.7921 52.0984 19.2319C54.8482 18.6209 57.9035 18.3153 61.2643 18.3153C64.5233 18.3153 67.2221 18.5699 69.3608 19.0792C71.4996 19.5884 73.2054 20.3267 74.4785 21.2942C75.7515 22.2618 76.6426 23.4075 77.1519 24.7315C77.6611 26.0554 77.9157 27.5576 77.9157 29.238C77.9157 30.2055 77.8393 31.2494 77.6865 32.3697C77.5847 33.49 77.4574 34.432 77.3046 35.1959L73.7146 52H61.4171L60.0422 47.1115H59.5839C57.9544 48.8938 56.0448 50.2687 53.8552 51.2362C51.7165 52.1528 49.5778 52.6111 47.4391 52.6111C46.217 52.6111 45.0203 52.4328 43.8491 52.0764C42.6779 51.7199 41.634 51.1853 40.7174 50.4724C39.8008 49.7085 39.0625 48.7665 38.5023 47.6462C37.9422 46.475 37.6621 45.0747 37.6621 43.4452C37.6621 40.7972 38.375 38.7095 39.8008 37.1818C41.2776 35.6032 43.1871 34.432 45.5295 33.6682C47.9228 32.8535 50.5962 32.3442 53.5497 32.1406C56.5541 31.9369 59.5584 31.835 62.5628 31.835C62.6646 31.3258 62.792 30.6129 62.9447 29.6963C63.0975 28.7288 63.1739 27.8886 63.1739 27.1757C63.1739 26.2591 62.9193 25.4189 62.41 24.6551C61.9517 23.8403 60.9588 23.433 59.4311 23.433C57.6489 23.433 56.3249 23.9676 55.4592 25.037C54.6445 26.0554 54.1098 27.303 53.8552 28.7797H42.7034L44.1546 21.9817ZM61.7226 35.425H60.3477C58.871 35.425 57.5979 35.6287 56.5286 36.0361C55.5102 36.3925 54.67 36.8763 54.008 37.4873C53.3969 38.0984 52.9386 38.7858 52.6331 39.5497C52.3276 40.3135 52.1748 41.0773 52.1748 41.8411C52.1748 43.0633 52.4803 43.9798 53.0914 44.5909C53.7534 45.202 54.5172 45.5075 55.3829 45.5075C56.4522 45.5075 57.4961 45.1256 58.5145 44.3618C59.5839 43.5979 60.2459 42.5795 60.5005 41.3065L61.7226 35.425ZM59.202 14.649L66.3055 3.49713H79.4433L65.7709 14.649H59.202ZM114.714 50.1668C112.575 51.0325 110.309 51.6435 107.915 52C105.573 52.4074 102.9 52.6111 99.8953 52.6111C97.2474 52.6111 94.8032 52.3565 92.5626 51.8472C90.373 51.2871 88.4634 50.4214 86.8339 49.2502C85.2044 48.079 83.9314 46.5768 83.0148 44.7437C82.0982 42.8596 81.6399 40.5936 81.6399 37.9456C81.6399 35.1959 82.0982 32.6498 83.0148 30.3074C83.9823 27.9141 85.4081 25.8263 87.2922 24.044C89.2272 22.2618 91.6715 20.8614 94.6249 19.843C97.5784 18.8245 101.092 18.3153 105.166 18.3153C108.476 18.3153 111.353 18.5954 113.797 19.1555C116.241 19.6648 118.253 20.8614 119.831 22.7455L117.692 32.5225H107.304C107.355 31.6568 107.406 30.893 107.457 30.231C107.508 29.569 107.534 28.8307 107.534 28.0159C107.534 26.3864 107.355 25.2407 106.999 24.5787C106.642 23.8658 106.057 23.5093 105.242 23.5093C103.816 23.5093 102.569 24.2222 101.499 25.648C100.43 27.0229 99.5389 28.7033 98.826 30.6893C98.164 32.6243 97.6548 34.6866 97.2983 36.8763C96.9928 39.015 96.84 40.8482 96.84 42.3758C96.84 42.9359 96.8655 43.5215 96.9164 44.1326C96.9673 44.6927 97.0692 45.2274 97.2219 45.7366C97.4256 46.2459 97.6802 46.6532 97.9858 46.9588C98.2913 47.2643 98.7241 47.4171 99.2843 47.4171C99.7935 47.4171 100.379 47.2643 101.041 46.9588C101.703 46.6532 102.34 46.1949 102.951 45.5839C103.562 44.9219 104.147 44.0817 104.707 43.0633C105.268 42.0448 105.7 40.8227 106.006 39.3969H116.929L114.714 50.1668ZM135.374 52H119.868L126.819 19.1555H142.477L135.374 52ZM144.463 9.14944C144.463 10.3206 144.209 11.3391 143.699 12.2047C143.241 13.0704 142.605 13.8088 141.79 14.4198C141.026 15.0309 140.135 15.4892 139.117 15.7947C138.098 16.1002 137.054 16.253 135.985 16.253C133.948 16.253 132.242 15.7693 130.867 14.8017C129.492 13.8342 128.805 12.3066 128.805 10.2188C128.805 9.09852 129.034 8.10554 129.492 7.23988C129.951 6.32329 130.562 5.58492 131.326 5.02479C132.14 4.41372 133.057 3.95543 134.075 3.6499C135.145 3.34437 136.239 3.1916 137.36 3.1916C139.346 3.1916 141.026 3.67536 142.401 4.64287C143.776 5.61038 144.463 7.11257 144.463 9.14944ZM157.828 52H142.246L153.092 0.670982H168.751L157.828 52ZM174.863 47.8923C174.863 48.6081 174.707 49.246 174.396 49.8061C174.116 50.3663 173.727 50.833 173.229 51.2065C172.762 51.5799 172.218 51.86 171.596 52.0467C170.973 52.2645 170.32 52.3734 169.635 52.3734C168.453 52.3734 167.441 52.0622 166.601 51.4399C165.792 50.7864 165.387 49.775 165.387 48.4058C165.387 47.69 165.527 47.0521 165.807 46.492C166.088 45.9318 166.461 45.4651 166.928 45.0916C167.394 44.7182 167.924 44.4381 168.515 44.2514C169.137 44.0336 169.775 43.9247 170.429 43.9247C171.704 43.9247 172.762 44.2514 173.603 44.9049C174.443 45.5273 174.863 46.5231 174.863 47.8923ZM185.292 52H177.73L184.358 20.6323H193.927L190.893 34.9158H191.22C192.247 33.7333 193.398 32.8931 194.674 32.3952C195.981 31.8661 197.272 31.6016 198.548 31.6016C199.637 31.6016 200.54 31.7728 201.255 32.1151C202.002 32.4263 202.594 32.8619 203.029 33.4221C203.465 33.9822 203.776 34.6513 203.963 35.4292C204.15 36.2072 204.243 37.0319 204.243 37.9032C204.243 38.3389 204.212 38.9923 204.15 39.8637C204.087 40.735 203.947 41.7152 203.729 42.8044C203.512 43.8624 203.2 44.9672 202.796 46.1186C202.391 47.2388 201.847 48.2657 201.162 49.1993C200.509 50.1329 199.668 50.8953 198.642 51.4865C197.646 52.0778 196.448 52.3734 195.047 52.3734C194.207 52.3734 193.382 52.2801 192.573 52.0934C191.795 51.9066 191.08 51.6577 190.426 51.3465C189.804 51.0353 189.244 50.6775 188.746 50.2729C188.279 49.8372 187.937 49.4016 187.719 48.9659H187.392L185.292 52ZM190.566 47.8456C191.313 47.8456 191.935 47.4567 192.433 46.6787C192.931 45.8696 193.336 44.936 193.647 43.878C193.958 42.7888 194.176 41.7152 194.3 40.6572C194.456 39.568 194.534 38.759 194.534 38.2299C194.534 37.6076 194.425 37.0941 194.207 36.6896C194.02 36.285 193.663 36.0827 193.133 36.0827C192.511 36.0827 191.935 36.3161 191.406 36.7829C190.877 37.2186 190.488 37.592 190.239 37.9032L188.419 46.2586C188.637 46.632 188.917 46.9899 189.259 47.3322C189.633 47.6745 190.068 47.8456 190.566 47.8456ZM215.677 42.6177C215.553 43.3023 215.459 43.9558 215.397 44.5782C215.366 45.2005 215.35 45.7607 215.35 46.2586C215.35 46.5387 215.366 46.8498 215.397 47.1921C215.428 47.5345 215.491 47.8612 215.584 48.1724C215.708 48.4525 215.864 48.7014 216.051 48.9192C216.268 49.106 216.564 49.1993 216.938 49.1993C217.218 49.1993 217.529 49.106 217.871 48.9192C218.245 48.7325 218.602 48.468 218.945 48.1257C219.318 47.7834 219.66 47.3633 219.972 46.8654C220.314 46.3675 220.578 45.8074 220.765 45.185H228.42L227.207 50.1796C226.584 50.5841 225.869 50.9264 225.06 51.2065C224.25 51.4865 223.395 51.7199 222.492 51.9066C221.59 52.0622 220.672 52.1712 219.738 52.2334C218.805 52.3267 217.918 52.3734 217.078 52.3734C215.522 52.3734 214.075 52.2334 212.736 51.9533C211.398 51.6733 210.231 51.1909 209.236 50.5063C208.24 49.8217 207.446 48.9192 206.855 47.799C206.295 46.6476 206.015 45.2317 206.015 43.5513C206.015 42.0264 206.248 40.5327 206.715 39.0701C207.213 37.6076 208.022 36.3161 209.142 35.1959C210.294 34.0445 211.818 33.1265 213.717 32.4418C215.646 31.7572 218.042 31.4149 220.905 31.4149C224.017 31.4149 226.351 31.8973 227.907 32.8619C229.494 33.8266 230.287 35.3359 230.287 37.3897C230.287 38.2299 230.163 39.1479 229.914 40.1437C229.665 41.1084 229.292 41.9331 228.794 42.6177H215.677ZM221.885 37.063C221.885 36.0983 221.73 35.4448 221.419 35.1025C221.107 34.7602 220.734 34.589 220.298 34.589C219.8 34.589 219.334 34.7602 218.898 35.1025C218.493 35.4137 218.12 35.8494 217.778 36.4095C217.435 36.9385 217.124 37.5609 216.844 38.2766C216.564 38.9612 216.331 39.6925 216.144 40.4705H221.465C221.528 40.0971 221.59 39.7081 221.652 39.3035C221.714 38.9612 221.761 38.5878 221.792 38.1833C221.854 37.7787 221.885 37.4053 221.885 37.063ZM232.948 31.9284C234.099 31.6794 235.111 31.3994 235.982 31.0882C236.853 30.777 237.647 30.388 238.362 29.9212C239.109 29.4544 239.809 28.8787 240.463 28.1941C241.148 27.5095 241.879 26.6693 242.657 25.6735H247.465L246.111 31.9284H249.752L249.145 35.0558H245.458L243.544 44.1581C243.388 44.8738 243.264 45.5117 243.17 46.0719C243.077 46.632 243.03 47.0677 243.03 47.3789C243.03 48.0012 243.248 48.3902 243.684 48.5458C244.151 48.7014 245.006 48.7792 246.251 48.7792L245.551 52C245.333 52.0622 244.991 52.1089 244.524 52.14C244.088 52.1712 243.59 52.2023 243.03 52.2334C242.501 52.2956 241.941 52.3267 241.35 52.3267C240.79 52.3579 240.292 52.3734 239.856 52.3734C239.078 52.3734 238.316 52.3112 237.569 52.1867C236.822 52.0934 236.153 51.8911 235.562 51.5799C234.97 51.2376 234.488 50.7552 234.115 50.1329C233.772 49.5105 233.601 48.6703 233.601 47.6123C233.601 47.2388 233.617 46.772 233.648 46.2119C233.71 45.6518 233.819 45.0294 233.975 44.3448L235.935 35.0558H232.294L232.948 31.9284Z"/>
</mask>
<path d="M13.3116 3.49713H45.4687L44.2465 9.3022H28.5881L25.6092 23.2802H38.6706L37.4485 29.1616H24.3871L19.4986 52H3L13.3116 3.49713ZM44.1546 21.9817C46.7516 20.7087 49.3996 19.7921 52.0984 19.2319C54.8482 18.6209 57.9035 18.3153 61.2643 18.3153C64.5233 18.3153 67.2221 18.5699 69.3608 19.0792C71.4996 19.5884 73.2054 20.3267 74.4785 21.2942C75.7515 22.2618 76.6426 23.4075 77.1519 24.7315C77.6611 26.0554 77.9157 27.5576 77.9157 29.238C77.9157 30.2055 77.8393 31.2494 77.6865 32.3697C77.5847 33.49 77.4574 34.432 77.3046 35.1959L73.7146 52H61.4171L60.0422 47.1115H59.5839C57.9544 48.8938 56.0448 50.2687 53.8552 51.2362C51.7165 52.1528 49.5778 52.6111 47.4391 52.6111C46.217 52.6111 45.0203 52.4328 43.8491 52.0764C42.6779 51.7199 41.634 51.1853 40.7174 50.4724C39.8008 49.7085 39.0625 48.7665 38.5023 47.6462C37.9422 46.475 37.6621 45.0747 37.6621 43.4452C37.6621 40.7972 38.375 38.7095 39.8008 37.1818C41.2776 35.6032 43.1871 34.432 45.5295 33.6682C47.9228 32.8535 50.5962 32.3442 53.5497 32.1406C56.5541 31.9369 59.5584 31.835 62.5628 31.835C62.6646 31.3258 62.792 30.6129 62.9447 29.6963C63.0975 28.7288 63.1739 27.8886 63.1739 27.1757C63.1739 26.2591 62.9193 25.4189 62.41 24.6551C61.9517 23.8403 60.9588 23.433 59.4311 23.433C57.6489 23.433 56.3249 23.9676 55.4592 25.037C54.6445 26.0554 54.1098 27.303 53.8552 28.7797H42.7034L44.1546 21.9817ZM61.7226 35.425H60.3477C58.871 35.425 57.5979 35.6287 56.5286 36.0361C55.5102 36.3925 54.67 36.8763 54.008 37.4873C53.3969 38.0984 52.9386 38.7858 52.6331 39.5497C52.3276 40.3135 52.1748 41.0773 52.1748 41.8411C52.1748 43.0633 52.4803 43.9798 53.0914 44.5909C53.7534 45.202 54.5172 45.5075 55.3829 45.5075C56.4522 45.5075 57.4961 45.1256 58.5145 44.3618C59.5839 43.5979 60.2459 42.5795 60.5005 41.3065L61.7226 35.425ZM59.202 14.649L66.3055 3.49713H79.4433L65.7709 14.649H59.202ZM114.714 50.1668C112.575 51.0325 110.309 51.6435 107.915 52C105.573 52.4074 102.9 52.6111 99.8953 52.6111C97.2474 52.6111 94.8032 52.3565 92.5626 51.8472C90.373 51.2871 88.4634 50.4214 86.8339 49.2502C85.2044 48.079 83.9314 46.5768 83.0148 44.7437C82.0982 42.8596 81.6399 40.5936 81.6399 37.9456C81.6399 35.1959 82.0982 32.6498 83.0148 30.3074C83.9823 27.9141 85.4081 25.8263 87.2922 24.044C89.2272 22.2618 91.6715 20.8614 94.6249 19.843C97.5784 18.8245 101.092 18.3153 105.166 18.3153C108.476 18.3153 111.353 18.5954 113.797 19.1555C116.241 19.6648 118.253 20.8614 119.831 22.7455L117.692 32.5225H107.304C107.355 31.6568 107.406 30.893 107.457 30.231C107.508 29.569 107.534 28.8307 107.534 28.0159C107.534 26.3864 107.355 25.2407 106.999 24.5787C106.642 23.8658 106.057 23.5093 105.242 23.5093C103.816 23.5093 102.569 24.2222 101.499 25.648C100.43 27.0229 99.5389 28.7033 98.826 30.6893C98.164 32.6243 97.6548 34.6866 97.2983 36.8763C96.9928 39.015 96.84 40.8482 96.84 42.3758C96.84 42.9359 96.8655 43.5215 96.9164 44.1326C96.9673 44.6927 97.0692 45.2274 97.2219 45.7366C97.4256 46.2459 97.6802 46.6532 97.9858 46.9588C98.2913 47.2643 98.7241 47.4171 99.2843 47.4171C99.7935 47.4171 100.379 47.2643 101.041 46.9588C101.703 46.6532 102.34 46.1949 102.951 45.5839C103.562 44.9219 104.147 44.0817 104.707 43.0633C105.268 42.0448 105.7 40.8227 106.006 39.3969H116.929L114.714 50.1668ZM135.374 52H119.868L126.819 19.1555H142.477L135.374 52ZM144.463 9.14944C144.463 10.3206 144.209 11.3391 143.699 12.2047C143.241 13.0704 142.605 13.8088 141.79 14.4198C141.026 15.0309 140.135 15.4892 139.117 15.7947C138.098 16.1002 137.054 16.253 135.985 16.253C133.948 16.253 132.242 15.7693 130.867 14.8017C129.492 13.8342 128.805 12.3066 128.805 10.2188C128.805 9.09852 129.034 8.10554 129.492 7.23988C129.951 6.32329 130.562 5.58492 131.326 5.02479C132.14 4.41372 133.057 3.95543 134.075 3.6499C135.145 3.34437 136.239 3.1916 137.36 3.1916C139.346 3.1916 141.026 3.67536 142.401 4.64287C143.776 5.61038 144.463 7.11257 144.463 9.14944ZM157.828 52H142.246L153.092 0.670982H168.751L157.828 52ZM174.863 47.8923C174.863 48.6081 174.707 49.246 174.396 49.8061C174.116 50.3663 173.727 50.833 173.229 51.2065C172.762 51.5799 172.218 51.86 171.596 52.0467C170.973 52.2645 170.32 52.3734 169.635 52.3734C168.453 52.3734 167.441 52.0622 166.601 51.4399C165.792 50.7864 165.387 49.775 165.387 48.4058C165.387 47.69 165.527 47.0521 165.807 46.492C166.088 45.9318 166.461 45.4651 166.928 45.0916C167.394 44.7182 167.924 44.4381 168.515 44.2514C169.137 44.0336 169.775 43.9247 170.429 43.9247C171.704 43.9247 172.762 44.2514 173.603 44.9049C174.443 45.5273 174.863 46.5231 174.863 47.8923ZM185.292 52H177.73L184.358 20.6323H193.927L190.893 34.9158H191.22C192.247 33.7333 193.398 32.8931 194.674 32.3952C195.981 31.8661 197.272 31.6016 198.548 31.6016C199.637 31.6016 200.54 31.7728 201.255 32.1151C202.002 32.4263 202.594 32.8619 203.029 33.4221C203.465 33.9822 203.776 34.6513 203.963 35.4292C204.15 36.2072 204.243 37.0319 204.243 37.9032C204.243 38.3389 204.212 38.9923 204.15 39.8637C204.087 40.735 203.947 41.7152 203.729 42.8044C203.512 43.8624 203.2 44.9672 202.796 46.1186C202.391 47.2388 201.847 48.2657 201.162 49.1993C200.509 50.1329 199.668 50.8953 198.642 51.4865C197.646 52.0778 196.448 52.3734 195.047 52.3734C194.207 52.3734 193.382 52.2801 192.573 52.0934C191.795 51.9066 191.08 51.6577 190.426 51.3465C189.804 51.0353 189.244 50.6775 188.746 50.2729C188.279 49.8372 187.937 49.4016 187.719 48.9659H187.392L185.292 52ZM190.566 47.8456C191.313 47.8456 191.935 47.4567 192.433 46.6787C192.931 45.8696 193.336 44.936 193.647 43.878C193.958 42.7888 194.176 41.7152 194.3 40.6572C194.456 39.568 194.534 38.759 194.534 38.2299C194.534 37.6076 194.425 37.0941 194.207 36.6896C194.02 36.285 193.663 36.0827 193.133 36.0827C192.511 36.0827 191.935 36.3161 191.406 36.7829C190.877 37.2186 190.488 37.592 190.239 37.9032L188.419 46.2586C188.637 46.632 188.917 46.9899 189.259 47.3322C189.633 47.6745 190.068 47.8456 190.566 47.8456ZM215.677 42.6177C215.553 43.3023 215.459 43.9558 215.397 44.5782C215.366 45.2005 215.35 45.7607 215.35 46.2586C215.35 46.5387 215.366 46.8498 215.397 47.1921C215.428 47.5345 215.491 47.8612 215.584 48.1724C215.708 48.4525 215.864 48.7014 216.051 48.9192C216.268 49.106 216.564 49.1993 216.938 49.1993C217.218 49.1993 217.529 49.106 217.871 48.9192C218.245 48.7325 218.602 48.468 218.945 48.1257C219.318 47.7834 219.66 47.3633 219.972 46.8654C220.314 46.3675 220.578 45.8074 220.765 45.185H228.42L227.207 50.1796C226.584 50.5841 225.869 50.9264 225.06 51.2065C224.25 51.4865 223.395 51.7199 222.492 51.9066C221.59 52.0622 220.672 52.1712 219.738 52.2334C218.805 52.3267 217.918 52.3734 217.078 52.3734C215.522 52.3734 214.075 52.2334 212.736 51.9533C211.398 51.6733 210.231 51.1909 209.236 50.5063C208.24 49.8217 207.446 48.9192 206.855 47.799C206.295 46.6476 206.015 45.2317 206.015 43.5513C206.015 42.0264 206.248 40.5327 206.715 39.0701C207.213 37.6076 208.022 36.3161 209.142 35.1959C210.294 34.0445 211.818 33.1265 213.717 32.4418C215.646 31.7572 218.042 31.4149 220.905 31.4149C224.017 31.4149 226.351 31.8973 227.907 32.8619C229.494 33.8266 230.287 35.3359 230.287 37.3897C230.287 38.2299 230.163 39.1479 229.914 40.1437C229.665 41.1084 229.292 41.9331 228.794 42.6177H215.677ZM221.885 37.063C221.885 36.0983 221.73 35.4448 221.419 35.1025C221.107 34.7602 220.734 34.589 220.298 34.589C219.8 34.589 219.334 34.7602 218.898 35.1025C218.493 35.4137 218.12 35.8494 217.778 36.4095C217.435 36.9385 217.124 37.5609 216.844 38.2766C216.564 38.9612 216.331 39.6925 216.144 40.4705H221.465C221.528 40.0971 221.59 39.7081 221.652 39.3035C221.714 38.9612 221.761 38.5878 221.792 38.1833C221.854 37.7787 221.885 37.4053 221.885 37.063ZM232.948 31.9284C234.099 31.6794 235.111 31.3994 235.982 31.0882C236.853 30.777 237.647 30.388 238.362 29.9212C239.109 29.4544 239.809 28.8787 240.463 28.1941C241.148 27.5095 241.879 26.6693 242.657 25.6735H247.465L246.111 31.9284H249.752L249.145 35.0558H245.458L243.544 44.1581C243.388 44.8738 243.264 45.5117 243.17 46.0719C243.077 46.632 243.03 47.0677 243.03 47.3789C243.03 48.0012 243.248 48.3902 243.684 48.5458C244.151 48.7014 245.006 48.7792 246.251 48.7792L245.551 52C245.333 52.0622 244.991 52.1089 244.524 52.14C244.088 52.1712 243.59 52.2023 243.03 52.2334C242.501 52.2956 241.941 52.3267 241.35 52.3267C240.79 52.3579 240.292 52.3734 239.856 52.3734C239.078 52.3734 238.316 52.3112 237.569 52.1867C236.822 52.0934 236.153 51.8911 235.562 51.5799C234.97 51.2376 234.488 50.7552 234.115 50.1329C233.772 49.5105 233.601 48.6703 233.601 47.6123C233.601 47.2388 233.617 46.772 233.648 46.2119C233.71 45.6518 233.819 45.0294 233.975 44.3448L235.935 35.0558H232.294L232.948 31.9284Z" fill="white"/>
<path d="M13.3116 3.49713V-0.746337H9.87548L9.16093 2.6147L13.3116 3.49713ZM45.4687 3.49713L49.6211 4.37133L50.6985 -0.746337H45.4687V3.49713ZM44.2465 9.3022V13.5457H47.6897L48.399 10.1764L44.2465 9.3022ZM28.5881 9.3022V5.05873H25.1537L24.4379 8.41772L28.5881 9.3022ZM25.6092 23.2802L21.4589 22.3957L20.3661 27.5237H25.6092V23.2802ZM38.6706 23.2802L42.8253 24.1435L43.8865 19.0367H38.6706V23.2802ZM37.4485 29.1616V33.4051H40.9008L41.6032 30.025L37.4485 29.1616ZM24.3871 29.1616V24.9182H20.9558L20.2376 28.2735L24.3871 29.1616ZM19.4986 52V56.2435H22.9299L23.6481 52.8882L19.4986 52ZM3 52L-1.1507 51.1176L-2.24046 56.2435H3V52ZM13.3116 7.7406H45.4687V-0.746337H13.3116V7.7406ZM41.3162 2.62293L40.0941 8.428L48.399 10.1764L49.6211 4.37133L41.3162 2.62293ZM44.2465 5.05873H28.5881V13.5457H44.2465V5.05873ZM24.4379 8.41772L21.4589 22.3957L29.7595 24.1647L32.7384 10.1867L24.4379 8.41772ZM25.6092 27.5237H38.6706V19.0367H25.6092V27.5237ZM34.5159 22.4169L33.2938 28.2983L41.6032 30.025L42.8253 24.1435L34.5159 22.4169ZM37.4485 24.9182H24.3871V33.4051H37.4485V24.9182ZM20.2376 28.2735L15.3491 51.1118L23.6481 52.8882L28.5366 30.0498L20.2376 28.2735ZM19.4986 47.7565H3V56.2435H19.4986V47.7565ZM7.1507 52.8824L17.4623 4.37957L9.16093 2.6147L-1.1507 51.1176L7.1507 52.8824ZM44.1546 21.9817L42.2868 18.1714L40.4352 19.0791L40.0047 21.0957L44.1546 21.9817ZM52.0984 19.2319L52.9608 23.3868L52.9899 23.3808L53.0189 23.3743L52.0984 19.2319ZM69.3608 19.0792L68.378 23.2072L68.378 23.2072L69.3608 19.0792ZM74.4785 21.2942L71.9108 24.6727L71.9108 24.6727L74.4785 21.2942ZM77.6865 32.3697L73.482 31.7964L73.4691 31.8907L73.4605 31.9855L77.6865 32.3697ZM77.3046 35.1959L81.4544 36.0824L81.4602 36.0553L81.4657 36.0281L77.3046 35.1959ZM73.7146 52V56.2435H77.1473L77.8645 52.8866L73.7146 52ZM61.4171 52L57.3321 53.1489L58.2024 56.2435H61.4171V52ZM60.0422 47.1115L64.1272 45.9626L63.2568 42.8681H60.0422V47.1115ZM59.5839 47.1115V42.8681H57.7139L56.4521 44.2482L59.5839 47.1115ZM53.8552 51.2362L55.5268 55.1365L55.5486 55.1272L55.5703 55.1176L53.8552 51.2362ZM43.8491 52.0764L45.0846 48.0168L43.8491 52.0764ZM40.7174 50.4724L38.0008 53.7323L38.0557 53.778L38.1122 53.8219L40.7174 50.4724ZM38.5023 47.6462L34.6741 49.4771L34.6902 49.5106L34.7069 49.5439L38.5023 47.6462ZM39.8008 37.1818L36.7019 34.2828L36.6986 34.2864L39.8008 37.1818ZM45.5295 33.6682L46.8451 37.7026L46.8711 37.6941L46.897 37.6853L45.5295 33.6682ZM53.5497 32.1406L53.2626 27.9068L53.2577 27.9071L53.5497 32.1406ZM62.5628 31.835V36.0785H66.0416L66.7239 32.6672L62.5628 31.835ZM62.9447 29.6963L67.1305 30.3939L67.1334 30.3761L67.1363 30.3581L62.9447 29.6963ZM62.41 24.6551L58.7115 26.7355L58.7902 26.8754L58.8793 27.0089L62.41 24.6551ZM55.4592 25.037L52.161 22.367L52.1533 22.3765L52.1456 22.3861L55.4592 25.037ZM53.8552 28.7797V33.0232H57.4297L58.037 29.5007L53.8552 28.7797ZM42.7034 28.7797L38.5534 27.8938L37.4584 33.0232H42.7034V28.7797ZM61.7226 35.425L65.8773 36.2883L66.9385 31.1815H61.7226V35.425ZM56.5286 36.0361L57.9304 40.0413L57.9851 40.0222L58.0392 40.0015L56.5286 36.0361ZM54.008 37.4873L51.1297 34.3692L51.0674 34.4268L51.0074 34.4867L54.008 37.4873ZM52.6331 39.5497L56.573 41.1256L56.573 41.1256L52.6331 39.5497ZM53.0914 44.5909L50.0908 47.5915L50.1508 47.6515L50.2131 47.709L53.0914 44.5909ZM58.5145 44.3618L56.0481 40.9087L56.0079 40.9374L55.9685 40.967L58.5145 44.3618ZM60.5005 41.3065L56.3458 40.4431L56.3425 40.4587L56.3394 40.4742L60.5005 41.3065ZM59.202 14.649L55.6229 12.3692L51.4677 18.8924H59.202V14.649ZM66.3055 3.49713V-0.746337H63.9773L62.7265 1.21733L66.3055 3.49713ZM79.4433 3.49713L82.1255 6.78549L91.3597 -0.746337H79.4433V3.49713ZM65.7709 14.649V18.8924H67.282L68.453 17.9373L65.7709 14.649ZM46.0224 25.792C48.3158 24.6678 50.6269 23.8712 52.9608 23.3868L51.2361 15.077C48.1722 15.7129 45.1875 16.7495 42.2868 18.1714L46.0224 25.792ZM53.0189 23.3743C55.4151 22.8419 58.1556 22.5588 61.2643 22.5588V14.0719C57.6513 14.0719 54.2812 14.3999 51.1779 15.0895L53.0189 23.3743ZM61.2643 22.5588C64.3348 22.5588 66.6754 22.8019 68.378 23.2072L70.3437 14.9511C67.7689 14.338 64.7117 14.0719 61.2643 14.0719V22.5588ZM68.378 23.2072C70.1442 23.6278 71.2494 24.17 71.9108 24.6727L77.0461 17.9158C75.1615 16.4834 72.8549 15.549 70.3437 14.9511L68.378 23.2072ZM71.9108 24.6727C72.6382 25.2255 72.9998 25.7571 73.1912 26.2548L81.1125 23.2081C80.2855 21.0579 78.8648 19.298 77.0461 17.9158L71.9108 24.6727ZM73.1912 26.2548C73.4824 27.0119 73.6722 27.9843 73.6722 29.238H82.1591C82.1591 27.1309 81.8397 25.0989 81.1125 23.2081L73.1912 26.2548ZM73.6722 29.238C73.6722 29.985 73.613 30.8353 73.482 31.7964L81.8911 32.943C82.0656 31.6636 82.1591 30.4261 82.1591 29.238H73.6722ZM73.4605 31.9855C73.3669 33.0151 73.2569 33.7969 73.1436 34.3637L81.4657 36.0281C81.6579 35.0671 81.8025 33.9648 81.9126 32.7539L73.4605 31.9855ZM73.1548 34.3093L69.5648 51.1134L77.8645 52.8866L81.4544 36.0824L73.1548 34.3093ZM73.7146 47.7565H61.4171V56.2435H73.7146V47.7565ZM65.502 50.8511L64.1272 45.9626L55.9572 48.2604L57.3321 53.1489L65.502 50.8511ZM60.0422 42.8681H59.5839V51.355H60.0422V42.8681ZM56.4521 44.2482C55.2156 45.6005 53.7873 46.6269 52.1401 47.3547L55.5703 55.1176C58.3024 53.9104 60.6932 52.187 62.7157 49.9749L56.4521 44.2482ZM52.1836 47.3358C50.5262 48.0461 48.9542 48.3676 47.4391 48.3676V56.8545C50.2014 56.8545 52.9067 56.2594 55.5268 55.1365L52.1836 47.3358ZM47.4391 48.3676C46.6364 48.3676 45.856 48.2515 45.0846 48.0168L42.6136 56.136C44.1846 56.6141 45.7976 56.8545 47.4391 56.8545V48.3676ZM45.0846 48.0168C44.3823 47.803 43.808 47.5002 43.3227 47.1228L38.1122 53.8219C39.46 54.8703 40.9735 55.6368 42.6136 56.136L45.0846 48.0168ZM43.434 47.2124C42.9894 46.8419 42.6094 46.3717 42.2978 45.7485L34.7069 49.5439C35.5155 51.1613 36.6122 52.5751 38.0008 53.7323L43.434 47.2124ZM42.3305 45.8153C42.1043 45.3424 41.9056 44.5983 41.9056 43.4452H33.4187C33.4187 45.551 33.78 47.6076 34.6741 49.4771L42.3305 45.8153ZM41.9056 43.4452C41.9056 41.5733 42.3918 40.6249 42.903 40.0772L36.6986 34.2864C34.3582 36.794 33.4187 40.0212 33.4187 43.4452H41.9056ZM42.8997 40.0808C43.8225 39.0944 45.087 38.2759 46.8451 37.7026L44.214 29.6338C41.2872 30.5882 38.7327 32.1121 36.7019 34.2828L42.8997 40.0808ZM46.897 37.6853C48.8894 37.007 51.1938 36.5566 53.8416 36.374L53.2577 27.9071C49.9986 28.1319 46.9562 28.6999 44.162 29.6511L46.897 37.6853ZM53.8367 36.3743C56.7458 36.1771 59.6544 36.0785 62.5628 36.0785V27.5916C59.4624 27.5916 56.3623 27.6967 53.2626 27.9068L53.8367 36.3743ZM66.7239 32.6672C66.839 32.0916 66.975 31.3264 67.1305 30.3939L58.759 28.9987C58.6089 29.8994 58.4903 30.5601 58.4017 31.0028L66.7239 32.6672ZM67.1363 30.3581C67.3118 29.2465 67.4173 28.1748 67.4173 27.1757H58.9304C58.9304 27.6024 58.8832 28.2112 58.7532 29.0345L67.1363 30.3581ZM67.4173 27.1757C67.4173 25.42 66.914 23.761 65.9408 22.3012L58.8793 27.0089C58.9135 27.0604 58.9206 27.0849 58.9218 27.0887C58.923 27.0925 58.9304 27.1159 58.9304 27.1757H67.4173ZM66.1085 22.5747C64.5043 19.7226 61.4684 19.1895 59.4311 19.1895V27.6764C59.8584 27.6764 59.8932 27.7392 59.711 27.6644C59.6046 27.6208 59.429 27.5316 59.2327 27.3663C59.031 27.1965 58.85 26.9816 58.7115 26.7355L66.1085 22.5747ZM59.4311 19.1895C56.7772 19.1895 54.0586 20.023 52.161 22.367L58.7575 27.707C58.7471 27.7198 58.7273 27.74 58.7021 27.7584C58.6776 27.7764 58.6688 27.7775 58.6905 27.7687C58.7392 27.749 58.9541 27.6764 59.4311 27.6764V19.1895ZM52.1456 22.3861C50.8203 24.0428 50.0315 25.982 49.6734 28.0587L58.037 29.5007C58.1881 28.624 58.4687 28.0681 58.7728 27.6879L52.1456 22.3861ZM53.8552 24.5363H42.7034V33.0232H53.8552V24.5363ZM46.8533 29.6657L48.3046 22.8676L40.0047 21.0957L38.5534 27.8938L46.8533 29.6657ZM61.7226 31.1815H60.3477V39.6685H61.7226V31.1815ZM60.3477 31.1815C58.4975 31.1815 56.6872 31.4347 55.0179 32.0706L58.0392 40.0015C58.5087 39.8227 59.2445 39.6685 60.3477 39.6685V31.1815ZM55.1268 32.0308C53.667 32.5418 52.2936 33.2948 51.1297 34.3692L56.8862 40.6054C57.0463 40.4577 57.3534 40.2433 57.9304 40.0413L55.1268 32.0308ZM51.0074 34.4867C50.0108 35.4833 49.2228 36.6495 48.6931 37.9737L56.573 41.1256C56.6544 40.9221 56.783 40.7135 57.0086 40.4879L51.0074 34.4867ZM48.6931 37.9737C48.2027 39.1998 47.9313 40.4971 47.9313 41.8411H56.4183C56.4183 41.6576 56.4524 41.4271 56.573 41.1256L48.6931 37.9737ZM47.9313 41.8411C47.9313 43.7174 48.4033 45.9039 50.0908 47.5915L56.092 41.5903C56.192 41.6903 56.2707 41.7947 56.3291 41.8921C56.3866 41.9879 56.4163 42.0632 56.4296 42.1033C56.4535 42.1748 56.4183 42.1112 56.4183 41.8411H47.9313ZM50.2131 47.709C51.6238 49.0112 53.4035 49.751 55.3829 49.751V41.264C55.4612 41.264 55.5915 41.2803 55.7367 41.3384C55.8791 41.3953 55.9565 41.4607 55.9696 41.4728L50.2131 47.709ZM55.3829 49.751C57.5357 49.751 59.4519 48.9631 61.0606 47.7565L55.9685 40.967C55.7439 41.1354 55.5903 41.2065 55.5098 41.2359C55.4363 41.2628 55.4006 41.264 55.3829 41.264V49.751ZM60.981 47.8148C62.9157 46.4329 64.1926 44.4832 64.6615 42.1387L56.3394 40.4742C56.2991 40.6758 56.2521 40.763 56.0481 40.9087L60.981 47.8148ZM64.6552 42.1698L65.8773 36.2883L57.5679 34.5617L56.3458 40.4431L64.6552 42.1698ZM62.781 16.9288L69.8846 5.77693L62.7265 1.21733L55.6229 12.3692L62.781 16.9288ZM66.3055 7.7406H79.4433V-0.746337H66.3055V7.7406ZM76.7612 0.20878L63.0887 11.3606L68.453 17.9373L82.1255 6.78549L76.7612 0.20878ZM65.7709 10.4055H59.202V18.8924H65.7709V10.4055ZM114.714 50.1668L116.306 54.1003L118.412 53.2476L118.87 51.0217L114.714 50.1668ZM107.915 52L107.29 47.8028L107.239 47.8104L107.188 47.8193L107.915 52ZM92.5626 51.8472L91.5109 55.9583L91.5664 55.9725L91.6222 55.9852L92.5626 51.8472ZM86.8339 49.2502L84.3573 52.696L84.3573 52.696L86.8339 49.2502ZM83.0148 44.7437L79.1989 46.6L79.209 46.6208L79.2193 46.6414L83.0148 44.7437ZM83.0148 30.3074L79.0806 28.717L79.0717 28.739L79.0631 28.7611L83.0148 30.3074ZM87.2922 24.044L84.4174 20.9228L84.3966 20.9419L84.3761 20.9613L87.2922 24.044ZM94.6249 19.843L93.2416 15.8313L93.2416 15.8313L94.6249 19.843ZM113.797 19.1555L112.849 23.2918L112.89 23.3012L112.931 23.3098L113.797 19.1555ZM119.831 22.7455L123.977 23.6523L124.422 21.6172L123.084 20.0203L119.831 22.7455ZM117.692 32.5225V36.7659H121.108L121.838 33.4293L117.692 32.5225ZM107.304 32.5225L103.068 32.2733L102.804 36.7659H107.304V32.5225ZM107.457 30.231L103.226 29.9055L103.226 29.9055L107.457 30.231ZM106.999 24.5787L103.203 26.4764L103.232 26.5339L103.263 26.5905L106.999 24.5787ZM101.499 25.648L104.849 28.2533L104.872 28.2239L104.894 28.1941L101.499 25.648ZM98.826 30.6893L94.832 29.2556L94.8213 29.2856L94.811 29.3157L98.826 30.6893ZM97.2983 36.8763L93.11 36.1944L93.1033 36.2352L93.0975 36.2762L97.2983 36.8763ZM96.9164 44.1326L92.6876 44.485L92.6889 44.5009L92.6904 44.5168L96.9164 44.1326ZM97.2219 45.7366L93.1574 46.956L93.2118 47.1371L93.282 47.3126L97.2219 45.7366ZM97.9858 46.9588L94.9852 49.9593L94.9852 49.9593L97.9858 46.9588ZM101.041 46.9588L102.819 50.8117L102.819 50.8117L101.041 46.9588ZM102.951 45.5839L105.951 48.5845L106.011 48.5245L106.069 48.4621L102.951 45.5839ZM104.707 43.0633L108.426 45.1083L108.426 45.1083L104.707 43.0633ZM106.006 39.3969V35.1534H102.575L101.857 38.5078L106.006 39.3969ZM116.929 39.3969L121.085 40.2518L122.134 35.1534H116.929V39.3969ZM113.121 46.2333C111.308 46.9672 109.368 47.4934 107.29 47.8028L108.541 56.1972C111.249 55.7937 113.841 55.0977 116.306 54.1003L113.121 46.2333ZM107.188 47.8193C105.139 48.1757 102.716 48.3676 99.8953 48.3676V56.8545C103.083 56.8545 106.007 56.6391 108.643 56.1807L107.188 47.8193ZM99.8953 48.3676C97.517 48.3676 95.3925 48.1387 93.5031 47.7093L91.6222 55.9852C94.2138 56.5742 96.9778 56.8545 99.8953 56.8545V48.3676ZM93.6143 47.7361C91.8726 47.2906 90.4599 46.6305 89.3106 45.8045L84.3573 52.696C86.467 54.2123 88.8733 55.2836 91.5109 55.9583L93.6143 47.7361ZM89.3106 45.8045C88.2519 45.0436 87.4261 44.0775 86.8103 42.8459L79.2193 46.6414C80.4367 49.0762 82.1569 51.1145 84.3573 52.696L89.3106 45.8045ZM86.8307 42.8873C86.2596 41.7135 85.8834 40.1152 85.8834 37.9456H77.3965C77.3965 41.0719 77.9368 44.0056 79.1989 46.6L86.8307 42.8873ZM85.8834 37.9456C85.8834 35.6755 86.26 33.6593 86.9665 31.8537L79.0631 28.7611C77.9365 31.6402 77.3965 34.7162 77.3965 37.9456H85.8834ZM86.949 31.8978C87.6871 30.0719 88.7646 28.4924 90.2083 27.1268L84.3761 20.9613C82.0516 23.1601 80.2776 25.7562 79.0806 28.717L86.949 31.8978ZM90.1671 27.1653C91.5987 25.8467 93.5059 24.7175 96.0083 23.8546L93.2416 15.8313C89.837 17.0053 86.8558 18.6768 84.4174 20.9228L90.1671 27.1653ZM96.0083 23.8546C98.4047 23.0283 101.428 22.5588 105.166 22.5588V14.0719C100.756 14.0719 96.7521 14.6208 93.2416 15.8313L96.0083 23.8546ZM105.166 22.5588C108.252 22.5588 110.796 22.8214 112.849 23.2918L114.745 15.0193C111.909 14.3694 108.7 14.0719 105.166 14.0719V22.5588ZM112.931 23.3098C114.458 23.6278 115.623 24.3301 116.578 25.4708L123.084 20.0203C120.882 17.3927 118.024 15.7017 114.662 15.0013L112.931 23.3098ZM115.686 21.8387L113.547 31.6157L121.838 33.4293L123.977 23.6523L115.686 21.8387ZM117.692 28.279H107.304V36.7659H117.692V28.279ZM111.541 32.7717C111.59 31.9242 111.64 31.1867 111.688 30.5565L103.226 29.9055C103.173 30.5992 103.12 31.3894 103.068 32.2733L111.541 32.7717ZM111.688 30.5565C111.749 29.7652 111.777 28.916 111.777 28.0159H103.29C103.29 28.7454 103.267 29.3728 103.226 29.9055L111.688 30.5565ZM111.777 28.0159C111.777 26.3233 111.633 24.2351 110.735 22.5669L103.263 26.5905C103.184 26.4437 103.16 26.3565 103.164 26.3695C103.166 26.3791 103.185 26.446 103.207 26.5867C103.252 26.8769 103.29 27.3394 103.29 28.0159H111.777ZM110.794 22.681C110.318 21.7291 109.578 20.8087 108.499 20.1519C107.425 19.4984 106.28 19.2659 105.242 19.2659V27.7528C105.019 27.7528 104.574 27.6985 104.086 27.4014C103.593 27.1011 103.323 26.7154 103.203 26.4764L110.794 22.681ZM105.242 19.2659C102.149 19.2659 99.7531 20.9039 98.1046 23.102L104.894 28.1941C105.162 27.8366 105.327 27.7372 105.342 27.7284C105.349 27.7248 105.333 27.7344 105.3 27.7432C105.285 27.7472 105.271 27.7498 105.259 27.7513C105.247 27.7528 105.241 27.7528 105.242 27.7528V19.2659ZM98.1498 23.0428C96.754 24.8374 95.6655 26.9337 94.832 29.2556L102.82 32.123C103.412 30.473 104.106 29.2085 104.849 28.2533L98.1498 23.0428ZM94.811 29.3157C94.0657 31.4941 93.5015 33.7894 93.11 36.1944L101.487 37.5581C101.808 35.5839 102.262 33.7545 102.841 32.0629L94.811 29.3157ZM93.0975 36.2762C92.7742 38.5393 92.5966 40.5841 92.5966 42.3758H101.084C101.084 41.1122 101.211 39.4907 101.499 37.4764L93.0975 36.2762ZM92.5966 42.3758C92.5966 43.064 92.6278 43.7676 92.6876 44.485L101.145 43.7802C101.103 43.2755 101.084 42.8079 101.084 42.3758H92.5966ZM92.6904 44.5168C92.7655 45.3437 92.9184 46.1593 93.1574 46.956L101.286 44.5173C101.22 44.2956 101.169 44.0418 101.142 43.7484L92.6904 44.5168ZM93.282 47.3126C93.6438 48.2171 94.1797 49.1539 94.9852 49.9593L100.986 43.9582C101.181 44.1526 101.207 44.2746 101.162 44.1606L93.282 47.3126ZM94.9852 49.9593C96.3028 51.2769 97.9467 51.6605 99.2843 51.6605V43.1736C99.3829 43.1736 99.6272 43.1863 99.9519 43.3009C100.295 43.422 100.663 43.6352 100.986 43.9582L94.9852 49.9593ZM99.2843 51.6605C100.613 51.6605 101.823 51.2715 102.819 50.8117L99.2628 43.1059C99.1907 43.1391 99.1352 43.1615 99.0957 43.176C99.056 43.1906 99.0359 43.196 99.0342 43.1964C99.0326 43.1969 99.0531 43.1914 99.0941 43.1857C99.1352 43.1799 99.1996 43.1736 99.2843 43.1736V51.6605ZM102.819 50.8117C104.011 50.2615 105.05 49.4854 105.951 48.5845L99.95 42.5833C99.6289 42.9044 99.3947 43.045 99.2628 43.1059L102.819 50.8117ZM106.069 48.4621C106.969 47.4871 107.745 46.3457 108.426 45.1083L100.989 41.0182C100.55 41.8177 100.155 42.3566 99.8325 42.7056L106.069 48.4621ZM108.426 45.1083C109.228 43.6492 109.784 42.0181 110.155 40.286L101.857 38.5078C101.617 39.6273 101.307 40.4405 100.989 41.0182L108.426 45.1083ZM106.006 43.6404H116.929V35.1534H106.006V43.6404ZM112.772 38.542L110.557 49.3119L118.87 51.0217L121.085 40.2518L112.772 38.542ZM135.374 52V56.2435H138.798L139.521 52.897L135.374 52ZM119.868 52L115.717 51.1214L114.633 56.2435H119.868V52ZM126.819 19.1555V14.9121H123.38L122.667 18.277L126.819 19.1555ZM142.477 19.1555L146.625 20.0526L147.737 14.9121H142.477V19.1555ZM143.699 12.2047L140.042 10.0532L139.994 10.1352L139.949 10.2193L143.699 12.2047ZM141.79 14.4198L139.244 11.0251L139.191 11.0648L139.139 11.1062L141.79 14.4198ZM139.117 15.7947L137.897 11.7302L137.897 11.7302L139.117 15.7947ZM130.867 14.8017L128.425 18.2721L128.425 18.2721L130.867 14.8017ZM129.492 7.23988L133.243 9.22534L133.266 9.18174L133.288 9.13761L129.492 7.23988ZM131.326 5.02479L133.835 8.44674L133.853 8.43325L133.872 8.41956L131.326 5.02479ZM134.075 3.6499L132.91 -0.430295L132.883 -0.422628L132.856 -0.414608L134.075 3.6499ZM142.401 4.64287L139.959 8.11321L139.959 8.11321L142.401 4.64287ZM135.374 47.7565H119.868V56.2435H135.374V47.7565ZM124.02 52.8786L130.97 20.0341L122.667 18.277L115.717 51.1214L124.02 52.8786ZM126.819 23.399H142.477V14.9121H126.819V23.399ZM138.33 18.2585L131.226 51.103L139.521 52.897L146.625 20.0526L138.33 18.2585ZM140.22 9.14944C140.22 9.6912 140.108 9.94116 140.042 10.0532L147.357 14.3563C148.31 12.737 148.707 10.9501 148.707 9.14944H140.22ZM139.949 10.2193C139.795 10.51 139.579 10.7739 139.244 11.0251L144.336 17.8146C145.631 16.8436 146.687 15.6308 147.45 14.1902L139.949 10.2193ZM139.139 11.1062C138.836 11.3491 138.44 11.5673 137.897 11.7302L140.336 19.8592C141.83 19.4111 143.217 18.7127 144.441 17.7334L139.139 11.1062ZM137.897 11.7302C137.277 11.9164 136.644 12.0095 135.985 12.0095V20.4965C137.465 20.4965 138.92 20.2841 140.336 19.8592L137.897 11.7302ZM135.985 12.0095C134.634 12.0095 133.829 11.6974 133.309 11.3314L128.425 18.2721C130.655 19.8412 133.262 20.4965 135.985 20.4965V12.0095ZM133.309 11.3314C133.242 11.2839 133.22 11.2563 133.19 11.189C133.146 11.09 133.048 10.8059 133.048 10.2188H124.561C124.561 13.3119 125.645 16.3158 128.425 18.2721L133.309 11.3314ZM133.048 10.2188C133.048 9.69033 133.152 9.3964 133.243 9.22534L125.742 5.25441C124.916 6.81469 124.561 8.5067 124.561 10.2188H133.048ZM133.288 9.13761C133.47 8.77355 133.659 8.57609 133.835 8.44674L128.816 1.60283C127.465 2.59376 126.431 3.87302 125.697 5.34214L133.288 9.13761ZM133.872 8.41956C134.27 8.12112 134.733 7.88287 135.295 7.71441L132.856 -0.414608C131.381 0.0279858 130.011 0.706329 128.779 1.63001L133.872 8.41956ZM135.241 7.7301C135.929 7.53368 136.631 7.43507 137.36 7.43507V-1.05187C135.848 -1.05187 134.361 -0.844947 132.91 -0.430295L135.241 7.7301ZM137.36 7.43507C138.634 7.43507 139.421 7.73491 139.959 8.11321L144.843 1.17254C142.631 -0.384189 140.057 -1.05187 137.36 -1.05187V7.43507ZM139.959 8.11321C140.043 8.17233 140.064 8.20605 140.089 8.26096C140.127 8.34446 140.22 8.60191 140.22 9.14944H148.707C148.707 6.06286 147.594 3.10805 144.843 1.17254L139.959 8.11321ZM157.828 52V56.2435H161.263L161.978 52.8832L157.828 52ZM142.246 52L138.094 51.1227L137.012 56.2435H142.246V52ZM153.092 0.670982V-3.57249H149.652L148.94 -0.206331L153.092 0.670982ZM168.751 0.670982L172.901 1.55421L173.992 -3.57249H168.751V0.670982ZM157.828 47.7565H142.246V56.2435H157.828V47.7565ZM146.398 52.8773L157.244 1.54829L148.94 -0.206331L138.094 51.1227L146.398 52.8773ZM153.092 4.91445H168.751V-3.57249H153.092V4.91445ZM164.6 -0.212242L153.677 51.1168L161.978 52.8832L172.901 1.55421L164.6 -0.212242ZM174.396 49.8061L170.687 47.7453L170.642 47.8259L170.601 47.9084L174.396 49.8061ZM173.229 51.2065L170.683 47.8117L170.63 47.8515L170.578 47.8929L173.229 51.2065ZM171.596 52.0467L170.376 47.9822L170.284 48.0097L170.194 48.0414L171.596 52.0467ZM166.601 51.4399L163.935 54.741L164.004 54.7969L164.075 54.8497L166.601 51.4399ZM165.807 46.492L162.012 44.5942L162.012 44.5942L165.807 46.492ZM166.928 45.0916L169.579 48.4052L169.579 48.4052L166.928 45.0916ZM168.515 44.2514L169.793 48.2979L169.855 48.2782L169.917 48.2567L168.515 44.2514ZM173.603 44.9049L170.997 48.2545L171.037 48.2851L171.077 48.3148L173.603 44.9049ZM170.62 47.8923C170.62 47.9415 170.614 47.9403 170.624 47.9021C170.634 47.8616 170.654 47.8051 170.687 47.7453L178.106 51.8669C178.807 50.6053 179.106 49.2432 179.106 47.8923H170.62ZM170.601 47.9084C170.603 47.9048 170.613 47.8853 170.635 47.8597C170.656 47.834 170.675 47.8178 170.683 47.8117L175.775 54.6012C176.804 53.83 177.619 52.8494 178.192 51.7039L170.601 47.9084ZM170.578 47.8929C170.572 47.8981 170.523 47.938 170.376 47.9822L172.815 56.1112C173.913 55.7819 174.953 55.2617 175.88 54.5201L170.578 47.8929ZM170.194 48.0414C170.039 48.0956 169.861 48.13 169.635 48.13V56.6169C170.779 56.6169 171.907 56.4334 172.997 56.0519L170.194 48.0414ZM169.635 48.13C169.238 48.13 169.142 48.0413 169.127 48.03L164.075 54.8497C165.74 56.0832 167.668 56.6169 169.635 56.6169V48.13ZM169.267 48.1387C169.35 48.2058 169.43 48.2889 169.499 48.3829C169.567 48.4762 169.608 48.5589 169.631 48.6152C169.673 48.7214 169.631 48.6841 169.631 48.4058H161.144C161.144 50.6208 161.832 53.0428 163.935 54.741L169.267 48.1387ZM169.631 48.4058C169.631 48.325 169.639 48.2936 169.637 48.3004C169.636 48.3035 169.634 48.3142 169.628 48.3308C169.622 48.3475 169.614 48.3676 169.603 48.3897L162.012 44.5942C161.398 45.8227 161.144 47.1258 161.144 48.4058H169.631ZM169.603 48.3897C169.61 48.3764 169.614 48.3694 169.615 48.3676C169.616 48.3658 169.615 48.3679 169.611 48.3727C169.607 48.3775 169.602 48.3834 169.596 48.3898C169.589 48.3962 169.583 48.4014 169.579 48.4052L164.277 41.778C163.308 42.5533 162.553 43.5117 162.012 44.5942L169.603 48.3897ZM169.579 48.4052C169.622 48.3708 169.681 48.333 169.793 48.2979L167.237 40.2049C166.166 40.5432 165.167 41.0656 164.277 41.778L169.579 48.4052ZM169.917 48.2567C170.093 48.1951 170.257 48.1681 170.429 48.1681V39.6812C169.293 39.6812 168.182 39.8721 167.113 40.2462L169.917 48.2567ZM170.429 48.1681C170.705 48.1681 170.86 48.2035 170.927 48.2243C170.961 48.2347 170.978 48.2431 170.985 48.2465C170.991 48.2497 170.994 48.2519 170.997 48.2545L176.208 41.5553C174.483 40.2138 172.454 39.6812 170.429 39.6812V48.1681ZM171.077 48.3148C170.984 48.2459 170.89 48.1563 170.806 48.0492C170.723 47.9427 170.67 47.8432 170.638 47.768C170.578 47.6247 170.62 47.6287 170.62 47.8923H179.106C179.106 45.6338 178.369 43.1547 176.129 41.495L171.077 48.3148ZM185.292 52V56.2435H187.515L188.781 54.4154L185.292 52ZM177.73 52L173.578 51.1227L172.496 56.2435H177.73V52ZM184.358 20.6323V16.3888H180.918L180.206 19.755L184.358 20.6323ZM193.927 20.6323L198.078 21.514L199.167 16.3888H193.927V20.6323ZM190.893 34.9158L186.742 34.0341L185.653 39.1593H190.893V34.9158ZM191.22 34.9158V39.1593H193.155L194.424 37.6982L191.22 34.9158ZM194.674 32.3952L196.217 36.3483L196.241 36.3386L196.266 36.3286L194.674 32.3952ZM201.255 32.1151L199.425 35.9433L199.523 35.9903L199.623 36.0321L201.255 32.1151ZM203.029 33.4221L206.379 30.8168L206.379 30.8168L203.029 33.4221ZM203.963 35.4292L208.089 34.4389L208.089 34.4389L203.963 35.4292ZM204.15 39.8637L208.382 40.166L208.382 40.166L204.15 39.8637ZM203.729 42.8044L207.886 43.6601L207.888 43.6484L207.89 43.6366L203.729 42.8044ZM202.796 46.1186L206.787 47.5598L206.793 47.5425L206.799 47.5252L202.796 46.1186ZM201.162 49.1993L197.74 46.6899L197.713 46.7276L197.686 46.7658L201.162 49.1993ZM198.642 51.4865L196.524 47.8091L196.5 47.8232L196.475 47.8378L198.642 51.4865ZM192.573 52.0934L191.583 56.2197L191.601 56.224L191.619 56.2282L192.573 52.0934ZM190.426 51.3465L188.528 55.142L188.565 55.1602L188.602 55.1778L190.426 51.3465ZM188.746 50.2729L185.85 53.3751L185.957 53.4745L186.07 53.5663L188.746 50.2729ZM187.719 48.9659L191.514 47.0682L190.341 44.7224H187.719V48.9659ZM187.392 48.9659V44.7224H185.169L183.903 46.5505L187.392 48.9659ZM192.433 46.6787L196.007 48.9661L196.028 48.9346L196.047 48.9027L192.433 46.6787ZM193.647 43.878L197.718 45.0754L197.723 45.0596L197.727 45.0438L193.647 43.878ZM194.3 40.6572L190.1 40.0571L190.092 40.1092L190.086 40.1614L194.3 40.6572ZM194.207 36.6896L190.354 38.4678L190.409 38.5864L190.471 38.7014L194.207 36.6896ZM191.406 36.7829L194.104 40.0586L194.16 40.0126L194.214 39.9648L191.406 36.7829ZM190.239 37.9032L186.926 35.2523L186.305 36.0286L186.093 36.9998L190.239 37.9032ZM188.419 46.2586L184.273 45.3552L183.921 46.9696L184.754 48.3967L188.419 46.2586ZM189.259 47.3322L186.259 50.3328L186.324 50.398L186.392 50.4603L189.259 47.3322ZM185.292 47.7565H177.73V56.2435H185.292V47.7565ZM181.881 52.8773L188.51 21.5096L180.206 19.755L173.578 51.1227L181.881 52.8773ZM184.358 24.8757H193.927V16.3888H184.358V24.8757ZM189.776 19.7506L186.742 34.0341L195.044 35.7975L198.078 21.514L189.776 19.7506ZM190.893 39.1593H191.22V30.6723H190.893V39.1593ZM194.424 37.6982C195.065 36.9596 195.668 36.5625 196.217 36.3483L193.131 28.442C191.128 29.2237 189.428 30.5069 188.016 32.1334L194.424 37.6982ZM196.266 36.3286C197.12 35.9828 197.873 35.8451 198.548 35.8451V27.3582C196.672 27.3582 194.841 27.7495 193.082 28.4617L196.266 36.3286ZM198.548 35.8451C199.227 35.8451 199.452 35.9565 199.425 35.9433L203.086 28.2869C201.627 27.5891 200.048 27.3582 198.548 27.3582V35.8451ZM199.623 36.0321C199.714 36.07 199.746 36.0947 199.742 36.0915C199.74 36.0901 199.732 36.0837 199.719 36.0717C199.707 36.0596 199.693 36.0446 199.68 36.0273L206.379 30.8168C205.434 29.6015 204.214 28.7509 202.888 28.1981L199.623 36.0321ZM199.68 36.0273C199.7 36.0532 199.773 36.154 199.837 36.4196L208.089 34.4389C207.779 33.1485 207.23 31.9112 206.379 30.8168L199.68 36.0273ZM199.837 36.4196C199.939 36.8458 199.999 37.3361 199.999 37.9032H208.486C208.486 36.7277 208.36 35.5686 208.089 34.4389L199.837 36.4196ZM199.999 37.9032C199.999 38.1817 199.978 38.712 199.917 39.5613L208.382 40.166C208.446 39.2727 208.486 38.496 208.486 37.9032H199.999ZM199.917 39.5613C199.87 40.2146 199.76 41.0135 199.568 41.9722L207.89 43.6366C208.134 42.417 208.304 41.2554 208.382 40.166L199.917 39.5613ZM199.573 41.9487C199.398 42.7977 199.142 43.7178 198.792 44.7119L206.799 47.5252C207.259 46.2165 207.625 44.9272 207.886 43.6601L199.573 41.9487ZM198.805 44.6773C198.534 45.4272 198.178 46.0927 197.74 46.6899L204.584 51.7087C205.515 50.4388 206.249 49.0504 206.787 47.5598L198.805 44.6773ZM197.686 46.7658C197.403 47.1698 197.034 47.5152 196.524 47.8091L200.759 55.164C202.302 54.2753 203.614 53.096 204.639 51.6328L197.686 46.7658ZM196.475 47.8378C196.26 47.9656 195.845 48.13 195.047 48.13V56.6169C197.05 56.6169 199.032 56.19 200.808 55.1353L196.475 47.8378ZM195.047 48.13C194.524 48.13 194.02 48.0722 193.528 47.9586L191.619 56.2282C192.745 56.4879 193.89 56.6169 195.047 56.6169V48.13ZM193.564 47.9671C193.044 47.8422 192.611 47.6868 192.251 47.5152L188.602 55.1778C189.548 55.6286 190.547 55.9711 191.583 56.2197L193.564 47.9671ZM192.324 47.551C191.955 47.3667 191.66 47.1731 191.422 46.9795L186.07 53.5663C186.827 54.1818 187.652 54.7039 188.528 55.142L192.324 47.551ZM191.641 47.1707C191.544 47.0796 191.494 47.0208 191.476 46.9977C191.458 46.975 191.479 46.9977 191.514 47.0682L183.923 50.8637C184.425 51.8673 185.123 52.6961 185.85 53.3751L191.641 47.1707ZM187.719 44.7224H187.392V53.2094H187.719V44.7224ZM183.903 46.5505L181.803 49.5846L188.781 54.4154L190.881 51.3813L183.903 46.5505ZM190.566 52.0891C193.113 52.0891 194.941 50.6321 196.007 48.9661L188.859 44.3912C188.864 44.3834 189.002 44.169 189.344 43.9554C189.72 43.7207 190.159 43.6022 190.566 43.6022V52.0891ZM196.047 48.9027C196.771 47.7266 197.317 46.4379 197.718 45.0754L189.576 42.6806C189.354 43.4342 189.091 44.0126 188.819 44.4547L196.047 48.9027ZM197.727 45.0438C198.097 43.749 198.362 42.4514 198.515 41.153L190.086 40.1614C189.99 40.9791 189.819 41.8287 189.567 42.7122L197.727 45.0438ZM198.501 41.2573C198.662 40.1338 198.777 39.0763 198.777 38.2299H190.29C190.29 38.4416 190.25 39.0023 190.1 40.0571L198.501 41.2573ZM198.777 38.2299C198.777 37.1434 198.591 35.8808 197.943 34.6777L190.471 38.7014C190.259 38.3074 190.29 38.0718 190.29 38.2299H198.777ZM198.06 34.9113C197.627 33.9726 196.906 33.1164 195.887 32.5402C194.913 31.9901 193.925 31.8393 193.133 31.8393V40.3262C192.871 40.3262 192.326 40.2766 191.711 39.9287C191.049 39.5548 190.601 39.002 190.354 38.4678L198.06 34.9113ZM193.133 31.8393C191.339 31.8393 189.792 32.5478 188.599 33.601L194.214 39.9648C194.167 40.0059 194.041 40.1045 193.829 40.1904C193.61 40.2794 193.368 40.3262 193.133 40.3262V31.8393ZM188.709 33.5073C188.09 34.0168 187.443 34.6062 186.926 35.2523L193.553 40.5541C193.529 40.5836 193.553 40.5508 193.657 40.4509C193.756 40.3555 193.902 40.2253 194.104 40.0586L188.709 33.5073ZM186.093 36.9998L184.273 45.3552L192.565 47.1619L194.386 38.8066L186.093 36.9998ZM184.754 48.3967C185.175 49.12 185.689 49.7631 186.259 50.3328L192.26 44.3316C192.145 44.2167 192.098 44.144 192.084 44.1204L184.754 48.3967ZM186.392 50.4603C187.533 51.5061 188.986 52.0891 190.566 52.0891V43.6022C190.814 43.6022 191.11 43.6469 191.418 43.7677C191.724 43.8879 191.961 44.052 192.127 44.2041L186.392 50.4603ZM215.677 42.6177V38.3742H212.136L211.502 41.8586L215.677 42.6177ZM215.397 44.5782L211.175 44.1559L211.164 44.2609L211.159 44.3663L215.397 44.5782ZM215.584 48.1724L211.519 49.3917L211.597 49.6497L211.706 49.8958L215.584 48.1724ZM216.051 48.9192L212.829 51.6809L213.041 51.9287L213.289 52.1411L216.051 48.9192ZM217.871 48.9192L215.973 45.1238L215.906 45.1576L215.839 45.1939L217.871 48.9192ZM218.945 48.1257L216.077 44.9976L216.009 45.0599L215.944 45.1251L218.945 48.1257ZM219.972 46.8654L216.475 44.4614L216.422 44.5377L216.373 44.6164L219.972 46.8654ZM220.765 45.185V40.9415H217.608L216.701 43.9656L220.765 45.185ZM228.42 45.185L232.544 46.187L233.818 40.9415H228.42V45.185ZM227.207 50.1796L229.519 53.7375L230.932 52.8191L231.33 51.1815L227.207 50.1796ZM225.06 51.2065L226.448 55.2165L226.448 55.2165L225.06 51.2065ZM222.492 51.9066L223.213 56.0884L223.283 56.0764L223.352 56.0621L222.492 51.9066ZM219.738 52.2334L219.456 47.9993L219.386 48.004L219.316 48.011L219.738 52.2334ZM212.736 51.9533L211.867 56.1068L211.867 56.1068L212.736 51.9533ZM209.236 50.5063L211.64 47.0095L211.64 47.0095L209.236 50.5063ZM206.855 47.799L203.039 49.6553L203.07 49.718L203.102 49.7796L206.855 47.799ZM206.715 39.0701L202.698 37.7026L202.685 37.7412L202.672 37.78L206.715 39.0701ZM209.142 35.1959L206.142 32.1953L206.142 32.1953L209.142 35.1959ZM213.717 32.4418L212.298 28.4427L212.287 28.4463L212.277 28.4501L213.717 32.4418ZM227.907 32.8619L225.671 36.4685L225.687 36.4784L225.703 36.4881L227.907 32.8619ZM229.914 40.1437L234.023 41.2041L234.027 41.1885L234.031 41.1729L229.914 40.1437ZM228.794 42.6177V46.8612H230.955L232.226 45.1136L228.794 42.6177ZM218.898 35.1025L221.485 38.466L221.503 38.4527L221.52 38.4392L218.898 35.1025ZM217.778 36.4095L221.34 38.7148L221.37 38.6689L221.399 38.6222L217.778 36.4095ZM216.844 38.2766L220.772 39.8833L220.784 39.8532L220.796 39.8229L216.844 38.2766ZM216.144 40.4705L212.018 39.4802L210.762 44.714H216.144V40.4705ZM221.465 40.4705V44.714H225.06L225.651 41.1681L221.465 40.4705ZM221.652 39.3035L217.477 38.5444L217.467 38.6012L217.458 38.6583L221.652 39.3035ZM221.792 38.1833L217.598 37.538L217.573 37.6972L217.561 37.8578L221.792 38.1833ZM211.502 41.8586C211.36 42.6426 211.249 43.409 211.175 44.1559L219.62 45.0004C219.669 44.5026 219.746 43.962 219.852 43.3768L211.502 41.8586ZM211.159 44.3663C211.125 45.0426 211.107 45.6751 211.107 46.2586H219.594C219.594 45.8463 219.607 45.3585 219.635 44.7901L211.159 44.3663ZM211.107 46.2586C211.107 46.6918 211.131 47.1337 211.171 47.5763L219.623 46.808C219.601 46.5659 219.594 46.3855 219.594 46.2586H211.107ZM211.171 47.5763C211.226 48.1854 211.34 48.793 211.519 49.3917L219.648 46.953C219.641 46.9294 219.63 46.8835 219.623 46.808L211.171 47.5763ZM211.706 49.8958C211.986 50.5263 212.357 51.13 212.829 51.6809L219.273 46.1576C219.371 46.2728 219.43 46.3786 219.462 46.4489L211.706 49.8958ZM213.289 52.1411C214.483 53.1647 215.862 53.4428 216.938 53.4428V44.9558C217.266 44.9558 218.054 45.0472 218.812 45.6974L213.289 52.1411ZM216.938 53.4428C218.152 53.4428 219.169 53.0449 219.903 52.6446L215.839 45.1939C215.888 45.167 216.284 44.9558 216.938 44.9558V53.4428ZM219.769 52.7147C220.609 52.2944 221.331 51.7407 221.945 51.1263L215.944 45.1251C215.909 45.1601 215.893 45.1717 215.897 45.1683C215.902 45.1646 215.927 45.1467 215.973 45.1238L219.769 52.7147ZM221.812 51.2538C222.508 50.6156 223.087 49.8867 223.57 49.1144L216.373 44.6164C216.233 44.8399 216.128 44.9512 216.077 44.9976L221.812 51.2538ZM223.468 49.2695C224.078 48.3821 224.526 47.4169 224.83 46.4043L216.701 43.9656C216.631 44.1978 216.549 44.3529 216.475 44.4614L223.468 49.2695ZM220.765 49.4285H228.42V40.9415H220.765V49.4285ZM224.297 44.183L223.083 49.1776L231.33 51.1815L232.544 46.187L224.297 44.183ZM224.894 46.6216C224.601 46.8125 224.204 47.0122 223.671 47.1965L226.448 55.2165C227.534 54.8406 228.568 54.3557 229.519 53.7375L224.894 46.6216ZM223.671 47.1965C223.048 47.4124 222.369 47.5987 221.632 47.7512L223.352 56.0621C224.42 55.8411 225.453 55.5607 226.448 55.2165L223.671 47.1965ZM221.771 47.7249C221.017 47.8549 220.246 47.9467 219.456 47.9993L220.02 56.4675C221.098 56.3956 222.162 56.2696 223.213 56.0884L221.771 47.7249ZM219.316 48.011C218.507 48.0919 217.762 48.13 217.078 48.13V56.6169C218.074 56.6169 219.103 56.5616 220.16 56.4558L219.316 48.011ZM217.078 48.13C215.774 48.13 214.622 48.0125 213.606 47.7999L211.867 56.1068C213.527 56.4542 215.269 56.6169 217.078 56.6169V48.13ZM213.606 47.7999C212.746 47.6198 212.115 47.3366 211.64 47.0095L206.832 54.0031C208.347 55.0452 210.051 55.7267 211.867 56.1068L213.606 47.7999ZM211.64 47.0095C211.237 46.7327 210.895 46.3618 210.608 45.8183L203.102 49.7796C203.998 51.4767 205.243 52.9107 206.832 54.0031L211.64 47.0095ZM210.671 45.9426C210.466 45.521 210.258 44.7812 210.258 43.5513H201.771C201.771 45.6821 202.124 47.7741 203.039 49.6553L210.671 45.9426ZM210.258 43.5513C210.258 42.4673 210.423 41.4087 210.758 40.3603L202.672 37.78C202.073 39.6568 201.771 41.5855 201.771 43.5513H210.258ZM210.732 40.4377C211.015 39.606 211.47 38.8694 212.143 38.1964L206.142 32.1953C204.574 33.7628 203.411 35.6091 202.698 37.7026L210.732 40.4377ZM212.143 38.1964C212.761 37.5787 213.708 36.956 215.156 36.4336L212.277 28.4501C209.929 29.2969 207.827 30.5102 206.142 32.1953L212.143 38.1964ZM215.136 36.441C216.468 35.9684 218.348 35.6584 220.905 35.6584V27.1715C217.737 27.1715 214.825 27.5461 212.298 28.4427L215.136 36.441ZM220.905 35.6584C223.716 35.6584 225.107 36.1189 225.671 36.4685L230.143 29.2554C227.595 27.6757 224.318 27.1715 220.905 27.1715V35.6584ZM225.703 36.4881C225.812 36.5545 225.867 36.6051 225.891 36.6299C225.913 36.6531 225.925 36.6711 225.936 36.6922C225.954 36.7252 226.044 36.9113 226.044 37.3897H234.531C234.531 34.0421 233.117 31.0631 230.111 29.2358L225.703 36.4881ZM226.044 37.3897C226.044 37.8165 225.98 38.384 225.797 39.1146L234.031 41.1729C234.346 39.9119 234.531 38.6434 234.531 37.3897H226.044ZM225.805 39.0834C225.666 39.621 225.496 39.938 225.362 40.1218L232.226 45.1136C233.088 43.9282 233.664 42.5958 234.023 41.2041L225.805 39.0834ZM228.794 38.3742H215.677V46.8612H228.794V38.3742ZM226.129 37.063C226.129 36.38 226.076 35.6212 225.897 34.8665C225.723 34.1368 225.366 33.1357 224.559 32.248L218.279 37.957C218.023 37.6758 217.869 37.4082 217.781 37.2187C217.692 37.0308 217.655 36.8911 217.641 36.8322C217.617 36.731 217.642 36.7812 217.642 37.063H226.129ZM224.559 32.248C223.499 31.0827 222.01 30.3456 220.298 30.3456V38.8325C219.944 38.8325 219.538 38.7589 219.137 38.575C218.742 38.3938 218.46 38.1559 218.279 37.957L224.559 32.248ZM220.298 30.3456C218.742 30.3456 217.37 30.9061 216.276 31.7658L221.52 38.4392C221.427 38.5123 221.266 38.6171 221.036 38.7015C220.8 38.7878 220.547 38.8325 220.298 38.8325V30.3456ZM216.311 31.739C215.395 32.4435 214.696 33.314 214.157 34.1967L221.399 38.6222C221.468 38.5085 221.516 38.4476 221.536 38.4243C221.556 38.4014 221.541 38.4229 221.485 38.466L216.311 31.739ZM214.215 34.1042C213.689 34.9179 213.255 35.8047 212.892 36.7303L220.796 39.8229C220.994 39.317 221.182 38.9591 221.34 38.7148L214.215 34.1042ZM212.917 36.6699C212.548 37.5701 212.251 38.5089 212.018 39.4802L220.27 41.4608C220.411 40.8762 220.58 40.3524 220.772 39.8833L212.917 36.6699ZM216.144 44.714H221.465V36.227H216.144V44.714ZM225.651 41.1681C225.716 40.7759 225.781 40.3694 225.846 39.9488L217.458 38.6583C217.398 39.0467 217.339 39.4182 217.28 39.7729L225.651 41.1681ZM225.827 40.0626C225.919 39.5556 225.983 39.0355 226.023 38.5087L217.561 37.8578C217.539 38.1402 217.509 38.3668 217.477 38.5444L225.827 40.0626ZM225.986 38.8285C226.075 38.2504 226.129 37.6583 226.129 37.063H217.642C217.642 37.1523 217.633 37.307 217.598 37.538L225.986 38.8285ZM232.948 31.9284L232.051 27.7808L229.358 28.3631L228.794 31.0604L232.948 31.9284ZM235.982 31.0882L237.409 35.0844L237.409 35.0844L235.982 31.0882ZM238.362 29.9212L236.113 26.3228L236.079 26.3445L236.044 26.3668L238.362 29.9212ZM240.463 28.1941L237.462 25.1935L237.427 25.2284L237.393 25.2641L240.463 28.1941ZM242.657 25.6735V21.43H240.587L239.313 23.061L242.657 25.6735ZM247.465 25.6735L251.612 26.5711L252.725 21.43H247.465V25.6735ZM246.111 31.9284L241.964 31.0308L240.851 36.1719H246.111V31.9284ZM249.752 31.9284L253.918 32.7367L254.898 27.6849H249.752V31.9284ZM249.145 35.0558V39.2993H252.644L253.311 35.8641L249.145 35.0558ZM245.458 35.0558V30.8124H242.013L241.305 34.1827L245.458 35.0558ZM243.544 44.1581L247.69 45.0595L247.693 45.0454L247.696 45.0312L243.544 44.1581ZM243.17 46.0719L247.356 46.7695L247.356 46.7695L243.17 46.0719ZM243.684 48.5458L242.257 52.5421L242.299 52.5573L242.342 52.5715L243.684 48.5458ZM246.251 48.7792L250.398 49.6806L251.516 44.5357H246.251V48.7792ZM245.551 52L246.717 56.0802L249.158 55.3826L249.698 52.9014L245.551 52ZM244.524 52.14L244.242 47.906L244.232 47.9066L244.222 47.9073L244.524 52.14ZM243.03 52.2334L242.795 47.9965L242.664 48.0037L242.534 48.019L243.03 52.2334ZM241.35 52.3267V48.0833H241.232L241.114 48.0898L241.35 52.3267ZM237.569 52.1867L238.267 48.001L238.181 47.9867L238.095 47.976L237.569 52.1867ZM235.562 51.5799L233.436 55.2523L233.51 55.2952L233.585 55.335L235.562 51.5799ZM234.115 50.1329L230.397 52.1779L230.435 52.2477L230.476 52.3161L234.115 50.1329ZM233.648 46.2119L229.43 45.7433L229.418 45.8596L229.411 45.9765L233.648 46.2119ZM233.975 44.3448L238.113 45.2852L238.12 45.2532L238.127 45.2211L233.975 44.3448ZM235.935 35.0558L240.087 35.9321L241.168 30.8124H235.935V35.0558ZM232.294 35.0558L228.141 34.1879L227.072 39.2993H232.294V35.0558ZM233.845 36.076C235.13 35.7981 236.325 35.4716 237.409 35.0844L234.555 27.0919C233.896 27.3272 233.068 27.5608 232.051 27.7808L233.845 36.076ZM237.409 35.0844C238.568 34.6705 239.664 34.1384 240.681 33.4756L236.044 26.3668C235.629 26.6376 235.138 26.8834 234.555 27.0919L237.409 35.0844ZM240.611 33.5197C241.68 32.8518 242.653 32.046 243.533 31.1241L237.393 25.2641C236.966 25.7115 236.538 26.0571 236.113 26.3228L240.611 33.5197ZM243.464 31.1947C244.301 30.3575 245.147 29.3795 246.001 28.286L239.313 23.061C238.611 23.9592 237.994 24.6615 237.462 25.1935L243.464 31.1947ZM242.657 29.917H247.465V21.43H242.657V29.917ZM243.317 24.7759L241.964 31.0308L250.258 32.826L251.612 26.5711L243.317 24.7759ZM246.111 36.1719H249.752V27.6849H246.111V36.1719ZM245.586 31.1201L244.979 34.2475L253.311 35.8641L253.918 32.7367L245.586 31.1201ZM249.145 30.8124H245.458V39.2993H249.145V30.8124ZM241.305 34.1827L239.391 43.2849L247.696 45.0312L249.61 35.929L241.305 34.1827ZM239.397 43.2566C239.231 44.0218 239.092 44.7297 238.985 45.3743L247.356 46.7695C247.435 46.2938 247.545 45.7258 247.69 45.0595L239.397 43.2566ZM238.985 45.3743C238.879 46.0099 238.787 46.7168 238.787 47.3789H247.274C247.274 47.4212 247.271 47.3938 247.285 47.2708C247.297 47.155 247.319 46.9904 247.356 46.7695L238.985 45.3743ZM238.787 47.3789C238.787 48.1433 238.915 49.1811 239.491 50.2108C240.121 51.3363 241.113 52.1335 242.257 52.5421L245.111 44.5496C245.819 44.8025 246.484 45.3275 246.896 46.064C247.255 46.7046 247.274 47.2368 247.274 47.3789H238.787ZM242.342 52.5715C243.54 52.971 245.039 53.0227 246.251 53.0227V44.5357C245.706 44.5357 245.317 44.5182 245.06 44.4948C244.933 44.4833 244.866 44.4728 244.844 44.469C244.816 44.464 244.888 44.4744 245.026 44.5201L242.342 52.5715ZM242.104 47.8778L241.404 51.0986L249.698 52.9014L250.398 49.6806L242.104 47.8778ZM244.385 47.9198C244.473 47.8946 244.534 47.8823 244.554 47.8783C244.577 47.8739 244.58 47.8741 244.557 47.8771C244.536 47.88 244.499 47.8845 244.445 47.8898C244.39 47.895 244.323 47.9005 244.242 47.906L244.806 56.3741C245.326 56.3394 246.044 56.2724 246.717 56.0802L244.385 47.9198ZM244.222 47.9073C243.813 47.9365 243.339 47.9662 242.795 47.9965L243.266 56.4703C243.842 56.4383 244.363 56.4058 244.826 56.3727L244.222 47.9073ZM242.534 48.019C242.187 48.0599 241.793 48.0833 241.35 48.0833V56.5702C242.089 56.5702 242.816 56.5314 243.526 56.4478L242.534 48.019ZM241.114 48.0898C240.612 48.1177 240.195 48.13 239.856 48.13V56.6169C240.389 56.6169 240.968 56.598 241.585 56.5637L241.114 48.0898ZM239.856 48.13C239.305 48.13 238.777 48.086 238.267 48.001L236.871 56.3724C237.855 56.5364 238.851 56.6169 239.856 56.6169V48.13ZM238.095 47.976C237.792 47.9381 237.624 47.8699 237.538 47.8248L233.585 55.335C234.682 55.9122 235.853 56.2487 237.043 56.3974L238.095 47.976ZM237.688 47.9075C237.698 47.9134 237.71 47.9214 237.724 47.9316C237.737 47.9418 237.748 47.9519 237.757 47.9608C237.776 47.9801 237.773 47.9823 237.753 47.9496L230.476 52.3161C231.195 53.5153 232.183 54.5272 233.436 55.2523L237.688 47.9075ZM237.833 48.0879C237.905 48.2198 237.905 48.2736 237.888 48.1889C237.87 48.1033 237.845 47.92 237.845 47.6123H229.358C229.358 49.0617 229.582 50.6961 230.397 52.1779L237.833 48.0879ZM237.845 47.6123C237.845 47.3457 237.856 46.9637 237.885 46.4473L229.411 45.9765C229.377 46.5804 229.358 47.1319 229.358 47.6123H237.845ZM237.865 46.6805C237.906 46.3119 237.984 45.8502 238.113 45.2852L229.837 43.4043C229.654 44.2086 229.514 44.9916 229.43 45.7433L237.865 46.6805ZM238.127 45.2211L240.087 35.9321L231.783 34.1795L229.823 43.4685L238.127 45.2211ZM235.935 30.8124H232.294V39.2993H235.935V30.8124ZM236.448 35.9238L237.102 32.7963L228.794 31.0604L228.141 34.1879L236.448 35.9238Z" fill="#192494" mask="url(#path-1-outside-1_40_2899)"/>
</g>
<defs>
<filter id="filter0_d_40_2899" x="0.878265" y="0.670898" width="248.874" height="60.4271" filterUnits="userSpaceOnUse" color-interpolation-filters="sRGB">
<feFlood flood-opacity="0" result="BackgroundImageFix"/>
<feColorMatrix in="SourceAlpha" type="matrix" values="0 0 0 0 0 0 0 0 0 0 0 0 0 0 0 0 0 0 127 0" result="hardAlpha"/>
<feOffset dx="-2.12174" dy="8.48694"/>
<feComposite in2="hardAlpha" operator="out"/>
<feColorMatrix type="matrix" values="0 0 0 0 0.0980392 0 0 0 0 0.141176 0 0 0 0 0.580392 0 0 0 1 0"/>
<feBlend mode="normal" in2="BackgroundImageFix" result="effect1_dropShadow_40_2899"/>
<feBlend mode="normal" in="SourceGraphic" in2="effect1_dropShadow_40_2899" result="shape"/>
</filter>
</defs>
</svg>
