<svg width="9" height="9" viewBox="0 0 9 9" fill="none" xmlns="http://www.w3.org/2000/svg">
<path fill-rule="evenodd" clip-rule="evenodd" d="M0.284278 0.384696C-0.0945353 0.763509 -0.0945345 1.37769 0.284279 1.7565L3.02782 4.50005L0.28411 7.24376C-0.0947032 7.62257 -0.0947034 8.23675 0.28411 8.61556C0.662923 8.99438 1.2771 8.99438 1.65591 8.61556L4.39963 5.87185L7.1433 8.61552C7.52211 8.99433 8.13629 8.99433 8.5151 8.61552C8.89392 8.23671 8.89392 7.62253 8.5151 7.24372L5.77143 4.50004L8.51493 1.75654C8.89375 1.37773 8.89375 0.763552 8.51493 0.384739C8.13612 0.00592533 7.52194 0.00592565 7.14313 0.384739L4.39963 3.12824L1.65608 0.384696C1.27727 0.0058827 0.663092 0.00588252 0.284278 0.384696Z" fill="#FF4C3F"/>
</svg>
