<svg width="36" height="36" viewBox="0 0 36 36" fill="none" xmlns="http://www.w3.org/2000/svg">
<path d="M16.76 12.7259L23.83 19.7969L16.657 26.9709C16.325 27.3029 15.8867 27.5075 15.419 27.5489L15.243 27.5559H10.01C9.76118 27.5559 9.52111 27.464 9.33583 27.2979C9.15055 27.1318 9.0331 26.9032 9.006 26.6559L9 26.5459V21.3129C9.00011 20.8433 9.16543 20.3888 9.467 20.0289L9.587 19.8989L16.76 12.7249V12.7259ZM19.9 9.58586C20.2539 9.23192 20.7277 9.02354 21.2277 9.00188C21.7278 8.98021 22.2178 9.14685 22.601 9.46887L22.728 9.58586L26.971 13.8289C27.3247 14.1827 27.5329 14.6563 27.5545 15.1561C27.5762 15.6559 27.4097 16.1457 27.088 16.5289L26.971 16.6569L25.245 18.3829L18.175 11.3119L19.9 9.58586V9.58586Z" fill="#FFEC7A"/>
</svg>
