<svg width="25" height="24" viewBox="0 0 25 24" fill="none" xmlns="http://www.w3.org/2000/svg">
<g clip-path="url(#clip0_1587_869)">
<path d="M11.2561 6.16996L18.3261 13.241L11.1531 20.415C10.8211 20.747 10.3828 20.9516 9.91509 20.993L9.73909 21H4.50609C4.25727 21 4.0172 20.9081 3.83192 20.742C3.64664 20.5759 3.52919 20.3473 3.50209 20.1L3.49609 19.99V14.757C3.49621 14.2874 3.66153 13.8329 3.96309 13.473L4.08309 13.343L11.2561 6.16896V6.16996ZM14.3961 3.02996C14.75 2.67601 15.2238 2.46763 15.7238 2.44597C16.2239 2.42431 16.7139 2.59094 17.0971 2.91296L17.2241 3.02996L21.4671 7.27296C21.8208 7.62682 22.029 8.10038 22.0506 8.6002C22.0723 9.10003 21.9058 9.58983 21.5841 9.97296L21.4671 10.101L19.7411 11.827L12.6711 4.75596L14.3961 3.02996Z" fill="white"/>
</g>
<defs>
<clipPath id="clip0_1587_869">
<rect width="24" height="24" fill="white" transform="translate(0.5)"/>
</clipPath>
</defs>
</svg>
