<svg width="36" height="36" viewBox="0 0 36 36" fill="none" xmlns="http://www.w3.org/2000/svg">
<path fill-rule="evenodd" clip-rule="evenodd" d="M18 27.1666C23.0626 27.1666 27.1667 23.0626 27.1667 18C27.1667 12.9374 23.0626 8.83331 18 8.83331C12.9374 8.83331 8.83334 12.9374 8.83334 18C8.83334 23.0626 12.9374 27.1666 18 27.1666Z" fill="#FF4C3F"/>
<path fill-rule="evenodd" clip-rule="evenodd" d="M14.1435 14.1434C13.7855 14.5013 13.7855 15.0817 14.1435 15.4397L16.7362 18.0324L14.1434 20.6252C13.7854 20.9832 13.7854 21.5636 14.1434 21.9216C14.5014 22.2796 15.0818 22.2796 15.4398 21.9216L18.0325 19.3288L20.6253 21.9215C20.9833 22.2795 21.5637 22.2795 21.9217 21.9215C22.2797 21.5636 22.2797 20.9832 21.9217 20.6252L19.3289 18.0324L21.9216 15.4398C22.2795 15.0818 22.2795 14.5014 21.9216 14.1434C21.5636 13.7854 20.9832 13.7854 20.6252 14.1434L18.0325 16.7361L15.4399 14.1434C15.0819 13.7854 14.5015 13.7854 14.1435 14.1434Z" fill="white"/>
</svg>
