<svg width="88" height="88" viewBox="0 0 88 88" fill="none" xmlns="http://www.w3.org/2000/svg">
<circle cx="44" cy="44" r="40" stroke="#FF4B3F" stroke-width="7"/>
<path d="M46.852 62.8192C46.084 63.6064 45.1333 64 44 64C42.8667 64 41.9173 63.6064 41.152 62.8192C40.384 62.0347 40 61.0617 40 59.9C40 58.7383 40.384 57.7639 41.152 56.9767C41.9173 56.1922 42.8667 55.8 44 55.8C45.1333 55.8 46.084 56.1922 46.852 56.9767C47.6173 57.7639 48 58.7383 48 59.9C48 61.0617 47.6173 62.0347 46.852 62.8192Z" fill="#FF4B3F"/>
<path d="M46.852 49.0931C46.084 49.8803 45.1333 50.2739 44 50.2739C42.8667 50.2739 41.9173 49.8803 41.152 49.0931C40.384 48.3086 40 47.3356 40 46.1739V27.1C40 25.9383 40.384 24.9639 41.152 24.1767C41.9173 23.3922 42.8667 23 44 23C45.1333 23 46.084 23.3922 46.852 24.1767C47.6173 24.9639 48 25.9383 48 27.1V46.1739C48 47.3356 47.6173 48.3086 46.852 49.0931Z" fill="#FF4B3F"/>
</svg>
