<svg width="32" height="32" viewBox="0 0 32 32" fill="none" xmlns="http://www.w3.org/2000/svg">
<path d="M5.33333 26C4.95556 26 4.63911 25.872 4.384 25.616C4.128 25.3609 4 25.0444 4 24.6667C4 24.2889 4.128 23.9724 4.384 23.7173C4.63911 23.4613 4.95556 23.3333 5.33333 23.3333H26.6667C27.0444 23.3333 27.3609 23.4613 27.616 23.7173C27.872 23.9724 28 24.2889 28 24.6667C28 25.0444 27.872 25.3609 27.616 25.616C27.3609 25.872 27.0444 26 26.6667 26H5.33333ZM5.33333 17.3333C4.95556 17.3333 4.63911 17.2053 4.384 16.9493C4.128 16.6942 4 16.3778 4 16C4 15.6222 4.128 15.3053 4.384 15.0493C4.63911 14.7942 4.95556 14.6667 5.33333 14.6667H26.6667C27.0444 14.6667 27.3609 14.7942 27.616 15.0493C27.872 15.3053 28 15.6222 28 16C28 16.3778 27.872 16.6942 27.616 16.9493C27.3609 17.2053 27.0444 17.3333 26.6667 17.3333H5.33333ZM5.33333 8.66667C4.95556 8.66667 4.63911 8.53911 4.384 8.284C4.128 8.028 4 7.71111 4 7.33333C4 6.95556 4.128 6.63867 4.384 6.38267C4.63911 6.12756 4.95556 6 5.33333 6H26.6667C27.0444 6 27.3609 6.12756 27.616 6.38267C27.872 6.63867 28 6.95556 28 7.33333C28 7.71111 27.872 8.028 27.616 8.284C27.3609 8.53911 27.0444 8.66667 26.6667 8.66667H5.33333Z" fill="white"/>
</svg>
