<svg width="119" height="85" viewBox="0 0 119 85" fill="none" xmlns="http://www.w3.org/2000/svg">
<g clip-path="url(#clip0_1862_2091)">
<g clip-path="url(#clip1_1862_2091)">
<path d="M35.9116 54.2434C36.476 54.4924 37.1069 54.8742 37.1733 55.422C37.2563 56.1275 36.3432 56.5425 36.4262 57.1485C36.476 57.522 36.9159 57.9785 38.5511 58.3686C41.1989 59.7464 43.8466 61.1243 46.4944 62.4938C48.3287 62.5104 50.1631 62.5187 51.9974 62.5353C62.6383 56.858 73.2791 51.1889 83.92 45.5116C83.6378 45.2128 83.2643 44.7231 83.2477 44.0922C83.2311 43.3203 83.7706 42.9219 83.837 42.5567C83.9698 41.8014 82.1354 40.4485 74.4412 37.8422C72.4657 37.6679 70.482 37.5019 68.5065 37.3276C57.6415 42.9717 46.7766 48.6076 35.9116 54.2434Z" fill="white"/>
<path d="M95.3161 45.387L96.0466 45.0052L98.4453 43.7436L72.1088 29.9238L22.0419 56.1773L23.0546 56.7085L23.7518 57.0737L21.3281 58.9247L24.1004 60.3938L21.3281 62.5104L24.1004 63.9795L21.3281 66.0961L24.1004 67.5652L21.3281 69.6817L43.5063 81.4431L48.9263 84.2818L98.2544 58.0283L95.1999 56.0694L98.2544 54.4426L95.1999 52.4837L98.2544 50.8569L95.1999 48.898L98.2544 47.2712L95.3161 45.387ZM68.5978 37.286C70.0503 38.0497 72.1088 38.2074 73.8601 37.286L84.4014 42.8057C82.65 43.7353 82.9488 44.806 84.4014 45.5779L51.8895 62.6266C50.1298 61.7052 48.088 61.8629 46.6354 62.6183L36.1025 57.0903C37.555 56.3267 37.8455 55.256 36.0942 54.3347L68.5978 37.286Z" fill="#50D864"/>
<path d="M51.5574 63.2657L51.8894 63.44L85.9369 45.5779L84.7333 44.9388C84.0859 44.5985 83.9116 44.2997 83.9116 44.1918C83.9116 44.0756 84.0859 43.7934 84.7333 43.4448L85.9286 42.8056L73.8601 36.4726L73.528 36.6469C72.1253 37.3856 70.3242 37.3856 68.9297 36.6469L68.5977 36.4726L34.5503 54.3346L35.7621 54.9654C36.4178 55.3058 36.5921 55.5963 36.5921 55.7125C36.5921 55.8204 36.4178 56.1192 35.7787 56.4595L34.5669 57.0903L46.6437 63.4317L46.9757 63.2573C48.3618 62.5269 50.163 62.5352 51.5574 63.2657ZM46.652 61.8214L37.4637 56.999C37.9036 56.5342 38.0281 56.0777 38.0281 55.7208C38.0281 55.3722 37.9119 54.9073 37.4554 54.4425L68.6143 38.0994C70.2412 38.8216 72.2166 38.8216 73.8518 38.0994L83.0567 42.9219C82.6832 43.312 82.4923 43.7353 82.4923 44.2001C82.4923 44.557 82.6085 45.0135 83.065 45.4866L51.8728 61.8297C51.0428 61.4562 50.1464 61.2736 49.2417 61.2736C48.3535 61.2736 47.4654 61.4562 46.652 61.8214Z" fill="#1F9E36"/>
<path d="M96.7437 45.4452L99.9891 43.7353L72.1087 29.1104L20.498 56.1773L22.4237 57.1899L20 59.0326L22.7723 60.5017L20 62.6183L22.7723 64.0874L20 66.204L22.7723 67.6731L20 69.7896L43.1742 82.0822L48.9262 85.1035L99.6819 58.0947L96.6358 56.1275L99.6819 54.509L96.6358 52.5418L99.6819 50.9233L96.6358 48.9561L99.6819 47.3376L96.7437 45.4452ZM72.1087 30.7289L96.9097 43.7353L48.395 69.1837L23.5857 56.1773L72.1087 30.7289ZM96.835 57.9785L48.9262 83.4767L43.8465 80.8123L22.6561 69.5738L24.175 68.4118L43.1742 78.4966L48.9262 81.5178L95.1666 56.9077L96.835 57.9785ZM96.835 54.3928L95.2413 55.2394L52.9518 77.7495L48.9179 79.891L48.8183 79.8329L43.8382 77.2183L24.0339 66.7186L22.6561 65.9882L24.175 64.8261L43.1742 74.9109L48.9262 77.9321L95.1666 53.322L96.835 54.3928ZM96.835 50.8071L95.2413 51.6537L52.9518 74.1638L48.9179 76.3053L48.8183 76.2472L43.8382 73.6326L24.0339 63.1329L22.6561 62.4025L24.175 61.2404L43.1742 71.3252L48.9262 74.3465L95.1666 49.7364L96.835 50.8071ZM95.2413 48.068L52.9518 70.5782L48.9179 72.7196L48.8183 72.6615L43.8382 70.047L24.0339 59.5472L22.6561 58.8168L23.8264 57.9204L48.4033 70.8106L95.2828 46.2171L96.835 47.2214L95.2413 48.068Z" fill="#1F9E36"/>
<path d="M66.4645 60.2776L40.8252 46.1258L53.5494 39.6516L80.1184 53.4797V68.5114L66.4645 75.7492V60.2776Z" fill="#FCE900"/>
<path d="M65.7921 76.106L65.7423 60.0203L39.6133 46.0427L53.5493 38.8464L80.8404 52.5999V68.113L65.7921 76.106ZM42.618 46.0593L67.17 59.1985L67.2198 73.782L79.3962 67.2912V53.4465L53.5493 40.4152L42.618 46.0593Z" fill="#DDB922"/>
</g>
</g>
<defs>
<clipPath id="clip0_1862_2091">
<rect width="119" height="85" fill="white"/>
</clipPath>
<clipPath id="clip1_1862_2091">
<rect width="79.9891" height="55.9849" fill="white" transform="translate(20 29.1104)"/>
</clipPath>
</defs>
</svg>
