<svg width="62" height="44" viewBox="0 0 62 44" fill="none" xmlns="http://www.w3.org/2000/svg">
<g clip-path="url(#clip0_322_5515)">
<path d="M8.23291 20.7352C8.52496 20.8641 8.85136 21.0616 8.88572 21.3451C8.92866 21.7101 8.45624 21.9249 8.49919 22.2384C8.52496 22.4317 8.75258 22.6679 9.59865 22.8697C10.9687 23.5827 12.3387 24.2956 13.7088 25.0042C14.6579 25.0128 15.607 25.0171 16.5562 25.0257C22.0621 22.0881 27.568 19.1547 33.0739 16.2171C32.9279 16.0625 32.7346 15.8091 32.726 15.4827C32.7174 15.0833 32.9966 14.8771 33.031 14.6882C33.0997 14.2974 32.1505 13.5973 28.1693 12.2487C27.1471 12.1586 26.1207 12.0727 25.0985 11.9825C19.4766 14.9029 13.8548 17.8191 8.23291 20.7352Z" fill="white"/>
<path d="M38.9709 16.1527L39.3488 15.9551L40.59 15.3023L26.9627 8.1515L1.05661 21.7359L1.58057 22.0108L1.94133 22.1997L0.687256 23.1575L2.12171 23.9176L0.687256 25.0128L2.12171 25.773L0.687256 26.8681L2.12171 27.6283L0.687256 28.7235L12.1629 34.8092L14.9674 36.278L40.4913 22.6936L38.9108 21.6801L40.4913 20.8383L38.9108 19.8247L40.4913 18.9829L38.9108 17.9694L40.4913 17.1276L38.9709 16.1527ZM25.146 11.961C25.8976 12.3561 26.9627 12.4377 27.8689 11.961L33.3233 14.817C32.4171 15.298 32.5717 15.852 33.3233 16.2515L16.5006 25.0729C15.5901 24.5962 14.5336 24.6778 13.782 25.0686L8.33196 22.2083C9.08355 21.8132 9.23386 21.2592 8.32767 20.7824L25.146 11.961Z" fill="#50D864"/>
<path d="M16.3286 25.4036L16.5004 25.4938L34.1175 16.2515L33.4948 15.9208C33.1598 15.7447 33.0696 15.5901 33.0696 15.5342C33.0696 15.4741 33.1598 15.3281 33.4948 15.1477L34.1132 14.817L27.8686 11.5401L27.6968 11.6303C26.971 12.0125 26.0391 12.0125 25.3175 11.6303L25.1457 11.5401L7.52856 20.7825L8.1556 21.1089C8.49489 21.285 8.58508 21.4353 8.58508 21.4954C8.58508 21.5512 8.49489 21.7058 8.16419 21.8819L7.53715 22.2083L13.7861 25.4895L13.9578 25.3993C14.6751 25.0214 15.607 25.0257 16.3286 25.4036ZM13.7904 24.6564L9.03603 22.1611C9.26365 21.9206 9.32808 21.6844 9.32808 21.4997C9.32808 21.3193 9.26795 21.0788 9.03174 20.8383L25.1543 12.3819C25.9961 12.7555 27.0183 12.7555 27.8643 12.3819L32.6272 14.8771C32.434 15.079 32.3352 15.298 32.3352 15.5385C32.3352 15.7232 32.3953 15.9594 32.6315 16.2042L16.4918 24.6606C16.0623 24.4674 15.5985 24.3729 15.1303 24.3729C14.6708 24.3729 14.2112 24.4674 13.7904 24.6564Z" fill="#1F9E36"/>
<path d="M39.7095 16.1828L41.3888 15.298L26.9626 7.73064L0.257687 21.7359L1.25408 22.2599L0 23.2133L1.43446 23.9735L0 25.0687L1.43446 25.8288L0 26.924L1.43446 27.6842L0 28.7793L11.991 35.1399L14.9673 36.7032L41.2299 22.728L39.6537 21.7101L41.2299 20.8727L39.6537 19.8548L41.2299 19.0173L39.6537 17.9995L41.2299 17.162L39.7095 16.1828ZM26.9626 8.56812L39.7954 15.298L14.6924 28.4658L1.85534 21.7359L26.9626 8.56812ZM39.7568 22.6679L14.9673 35.8614L12.3389 34.4828L1.37433 28.6677L2.16027 28.0664L11.991 33.2846L14.9673 34.8479L38.8935 22.1138L39.7568 22.6679ZM39.7568 20.8125L38.9322 21.2506L17.0503 32.898L14.963 34.0061L14.9115 33.976L12.3346 32.6232L2.08726 27.1903L1.37433 26.8123L2.16027 26.2111L11.991 31.4292L14.9673 32.9925L38.8935 20.2585L39.7568 20.8125ZM39.7568 18.9572L38.9322 19.3953L17.0503 31.0427L14.963 32.1507L14.9115 32.1207L12.3346 30.7678L2.08726 25.3349L1.37433 24.957L2.16027 24.3557L11.991 29.5739L14.9673 31.1372L38.8935 18.4032L39.7568 18.9572ZM38.9322 17.5399L17.0503 29.1873L14.963 30.2954L14.9115 30.2653L12.3346 28.9125L2.08726 23.4796L1.37433 23.1016L1.97989 22.6378L14.6967 29.3076L38.9536 16.5822L39.7568 17.1018L38.9322 17.5399Z" fill="#1F9E36"/>
<path d="M24.0422 23.8575L10.7756 16.5349L17.3595 13.185L31.1071 20.3401V28.1179L24.0422 31.863V23.8575Z" fill="#FCE900"/>
<path d="M23.6942 32.0477L23.6684 23.7244L10.1484 16.492L17.3594 12.7684L31.4806 19.8848V27.9118L23.6942 32.0477ZM11.7031 16.5006L24.4071 23.2992L24.4329 30.8451L30.7333 27.4866V20.3229L17.3594 13.5801L11.7031 16.5006Z" fill="#DDB922"/>
</g>
<g clip-path="url(#clip1_322_5515)">
<path d="M28.4185 28.0364C28.7105 28.1652 29.0369 28.3628 29.0713 28.6462C29.1142 29.0113 28.6418 29.226 28.6847 29.5395C28.7105 29.7328 28.9381 29.969 29.7842 30.1709C31.1542 30.8838 32.5243 31.5967 33.8943 32.3054C34.8434 32.314 35.7926 32.3183 36.7417 32.3268C42.2476 29.3892 47.7535 26.4559 53.2595 23.5183C53.1134 23.3636 52.9202 23.1102 52.9116 22.7838C52.903 22.3844 53.1821 22.1783 53.2165 21.9893C53.2852 21.5985 52.3361 20.8984 48.3548 19.5499C47.3327 19.4597 46.3062 19.3738 45.284 19.2836C39.6622 22.204 34.0403 25.1202 28.4185 28.0364Z" fill="white"/>
<path d="M59.1565 23.4538L59.5344 23.2562L60.7756 22.6034L47.1483 15.4526L21.2422 29.037L21.7661 29.3119L22.1269 29.5009L20.8728 30.4586L22.3073 31.2188L20.8728 32.3139L22.3073 33.0741L20.8728 34.1693L22.3073 34.9295L20.8728 36.0246L32.3484 42.1103L35.1529 43.5791L60.6768 29.9948L59.0963 28.9812L60.6768 28.1394L59.0963 27.1258L60.6768 26.2841L59.0963 25.2705L60.6768 24.4287L59.1565 23.4538ZM45.3316 19.2621C46.0831 19.6572 47.1483 19.7388 48.0545 19.2621L53.5088 22.1181C52.6026 22.5991 52.7572 23.1532 53.5088 23.5526L36.6862 32.3741C35.7757 31.8973 34.7192 31.9789 33.9676 32.3698L28.5175 29.5094C29.2691 29.1143 29.4194 28.5603 28.5132 28.0836L45.3316 19.2621Z" fill="#50D864"/>
<path d="M36.5141 32.7048L36.6859 32.795L54.3031 23.5526L53.6803 23.2219C53.3453 23.0458 53.2552 22.8912 53.2552 22.8354C53.2552 22.7752 53.3453 22.6292 53.6803 22.4488L54.2988 22.1181L48.0542 18.8412L47.8824 18.9314C47.1566 19.3136 46.2246 19.3136 45.5031 18.9314L45.3313 18.8412L27.7141 28.0836L28.3411 28.41C28.6804 28.5861 28.7706 28.7364 28.7706 28.7965C28.7706 28.8523 28.6804 29.007 28.3497 29.183L27.7227 29.5094L33.9716 32.7907L34.1434 32.7005C34.8606 32.3225 35.7926 32.3268 36.5141 32.7048ZM33.9759 31.9575L29.2216 29.4622C29.4492 29.2217 29.5136 28.9855 29.5136 28.8008C29.5136 28.6204 29.4535 28.3799 29.2173 28.1394L45.3399 19.683C46.1817 20.0566 47.2038 20.0566 48.0499 19.683L52.8128 22.1783C52.6195 22.3801 52.5208 22.5991 52.5208 22.8397C52.5208 23.0243 52.5809 23.2605 52.8171 23.5053L36.6773 31.9618C36.2478 31.7685 35.784 31.674 35.3159 31.674C34.8563 31.674 34.3968 31.7685 33.9759 31.9575Z" fill="#1F9E36"/>
<path d="M59.8948 23.4839L61.5741 22.5992L47.1479 15.0318L20.443 29.037L21.4394 29.561L20.1853 30.5144L21.6198 31.2746L20.1853 32.3698L21.6198 33.1299L20.1853 34.2251L21.6198 34.9853L20.1853 36.0805L32.1763 42.441L35.1526 44.0043L61.4152 30.0291L59.839 29.0113L61.4152 28.1738L59.839 27.1559L61.4152 26.3184L59.839 25.3006L61.4152 24.4631L59.8948 23.4839ZM47.1479 15.8692L59.9807 22.5992L34.8777 35.7669L22.0406 29.037L47.1479 15.8692ZM59.9421 29.969L35.1526 43.1625L32.5242 41.7839L21.5596 35.9688L22.3456 35.3675L32.1763 40.5857L35.1526 42.149L59.0788 29.415L59.9421 29.969ZM59.9421 28.1136L59.1175 28.5517L37.2356 40.1992L35.1483 41.3072L35.0968 41.2771L32.5199 39.9243L22.2726 34.4914L21.5596 34.1135L22.3456 33.5122L32.1763 38.7303L35.1526 40.2936L59.0788 27.5596L59.9421 28.1136ZM59.9421 26.2583L59.1175 26.6964L37.2356 38.3438L35.1483 39.4519L35.0968 39.4218L32.5199 38.0689L22.2726 32.636L21.5596 32.2581L22.3456 31.6568L32.1763 36.875L35.1526 38.4383L59.0788 25.7043L59.9421 26.2583ZM59.1175 24.841L37.2356 36.4885L35.1483 37.5965L35.0968 37.5665L32.5199 36.2136L22.2726 30.7807L21.5596 30.4028L22.1652 29.9389L34.882 36.6087L59.1389 23.8833L59.9421 24.403L59.1175 24.841Z" fill="#1F9E36"/>
<path d="M44.2275 31.1587L30.9609 23.8361L37.5448 20.4861L51.2924 27.6412V35.4191L44.2275 39.1641V31.1587Z" fill="#FCE900"/>
<path d="M43.8797 39.3488L43.8539 31.0255L30.334 23.7931L37.5449 20.0695L51.6661 27.186V35.2129L43.8797 39.3488ZM31.8887 23.8017L44.5926 30.6003L44.6184 38.1462L50.9189 34.7877V27.624L37.5449 20.8812L31.8887 23.8017Z" fill="#DDB922"/>
</g>
<g clip-path="url(#clip2_322_5515)">
<path d="M23.2649 13.0046C23.5569 13.1334 23.8833 13.331 23.9177 13.6145C23.9606 13.9795 23.4882 14.1943 23.5312 14.5078C23.5569 14.701 23.7846 14.9373 24.6306 15.1391C26.0007 15.852 27.3707 16.565 28.7407 17.2736C29.6899 17.2822 30.639 17.2865 31.5882 17.2951C37.0941 14.3575 42.6 11.4241 48.1059 8.4865C47.9599 8.33189 47.7666 8.07849 47.758 7.75209C47.7494 7.35268 48.0286 7.14653 48.0629 6.95756C48.1317 6.56673 47.1825 5.86668 43.2013 4.51812C42.1791 4.42793 41.1526 4.34204 40.1305 4.25185C34.5086 7.1723 28.8868 10.0884 23.2649 13.0046Z" fill="white"/>
<path d="M54.0026 8.42205L54.3806 8.22449L55.6218 7.57169L41.9944 0.420883L16.0883 14.0053L16.6123 14.2801L16.9731 14.4691L15.719 15.4268L17.1535 16.187L15.719 17.2822L17.1535 18.0424L15.719 19.1375L17.1535 19.8977L15.719 20.9929L27.1946 27.0786L29.9991 28.5474L55.523 14.963L53.9425 13.9494L55.523 13.1077L53.9425 12.0941L55.523 11.2523L53.9425 10.2387L55.523 9.39697L54.0026 8.42205ZM40.1778 4.23035C40.9293 4.62547 41.9944 4.70707 42.9006 4.23035L48.355 7.08638C47.4488 7.56739 47.6034 8.12142 48.355 8.52083L31.5324 17.3423C30.6219 16.8656 29.5654 16.9472 28.8138 17.338L23.3637 14.4777C24.1153 14.0826 24.2656 13.5285 23.3594 13.0518L40.1778 4.23035Z" fill="#50D864"/>
<path d="M31.3603 17.673L31.5321 17.7632L49.1493 8.52083L48.5265 8.19014C48.1915 8.01405 48.1013 7.85944 48.1013 7.80361C48.1013 7.74348 48.1915 7.59746 48.5265 7.41708L49.145 7.08638L42.9004 3.80946L42.7286 3.89965C42.0028 4.28189 41.0708 4.28189 40.3493 3.89965L40.1775 3.80946L22.5603 13.0518L23.1873 13.3782C23.5266 13.5543 23.6168 13.7046 23.6168 13.7648C23.6168 13.8206 23.5266 13.9752 23.1959 14.1513L22.5689 14.4777L28.8178 17.7589L28.9896 17.6687C29.7068 17.2908 30.6388 17.2951 31.3603 17.673ZM28.8221 16.9257L24.0678 14.4304C24.2954 14.1899 24.3598 13.9537 24.3598 13.7691C24.3598 13.5887 24.2997 13.3482 24.0635 13.1077L40.1861 4.65124C41.0278 5.02489 42.05 5.02489 42.8961 4.65124L47.659 7.14651C47.4657 7.34836 47.3669 7.56739 47.3669 7.8079C47.3669 7.99258 47.4271 8.22879 47.6633 8.47359L31.5235 16.93C31.094 16.7367 30.6302 16.6423 30.1621 16.6423C29.7025 16.6423 29.243 16.7367 28.8221 16.9257Z" fill="#1F9E36"/>
<path d="M54.7413 8.45212L56.4205 7.5674L41.9944 0L15.2894 14.0053L16.2858 14.5292L15.0317 15.4827L16.4662 16.2428L15.0317 17.338L16.4662 18.0982L15.0317 19.1934L16.4662 19.9535L15.0317 21.0487L27.0228 27.4093L29.999 28.9726L56.2616 14.9974L54.6854 13.9795L56.2616 13.142L54.6854 12.1242L56.2616 11.2867L54.6854 10.2688L56.2616 9.43133L54.7413 8.45212ZM41.9944 0.837482L54.8272 7.5674L29.7242 20.7352L16.8871 14.0053L41.9944 0.837482ZM54.7885 14.9372L29.999 28.1308L27.3706 26.7522L16.4061 20.937L17.192 20.3358L27.0228 25.5539L29.999 27.1172L53.9252 14.3832L54.7885 14.9372ZM54.7885 13.0819L53.9639 13.52L32.082 25.1674L29.9947 26.2755L29.9432 26.2454L27.3663 24.8925L17.119 19.4596L16.4061 19.0817L17.192 18.4804L27.0228 23.6986L29.999 25.2619L53.9252 12.5279L54.7885 13.0819ZM54.7885 11.2265L53.9639 11.6646L32.082 23.3121L29.9947 24.4201L29.9432 24.39L27.3663 23.0372L17.119 17.6043L16.4061 17.2264L17.192 16.6251L27.0228 21.8432L29.999 23.4065L53.9252 10.6725L54.7885 11.2265ZM53.9639 9.80927L32.082 21.4567L29.9947 22.5648L29.9432 22.5347L27.3663 21.1818L17.119 15.7489L16.4061 15.371L17.0116 14.9072L29.7285 21.577L53.9854 8.85154L54.7885 9.37121L53.9639 9.80927Z" fill="#1F9E36"/>
<path d="M39.0737 16.1269L25.8071 8.8043L32.391 5.45438L46.1386 12.6095V20.3873L39.0737 24.1324V16.1269Z" fill="#FCE900"/>
<path d="M38.7259 24.317L38.7001 15.9937L25.1802 8.76134L32.3911 5.03777L46.5123 12.1542V20.1812L38.7259 24.317ZM26.7349 8.76993L39.4388 15.5686L39.4646 23.1145L45.765 19.756V12.5923L32.3911 5.84948L26.7349 8.76993Z" fill="#DDB922"/>
</g>
<defs>
<clipPath id="clip0_322_5515">
<rect width="41.3888" height="28.9683" fill="white" transform="translate(0 7.73064)"/>
</clipPath>
<clipPath id="clip1_322_5515">
<rect width="41.3888" height="28.9683" fill="white" transform="translate(20.1853 15.0318)"/>
</clipPath>
<clipPath id="clip2_322_5515">
<rect width="41.3888" height="28.9683" fill="white" transform="translate(15.0317)"/>
</clipPath>
</defs>
</svg>
