<svg width="221" height="68" viewBox="0 0 221 68" fill="none" xmlns="http://www.w3.org/2000/svg">
<g filter="url(#filter0_d_40_2898)">
<mask id="path-1-outside-1_40_2898" maskUnits="userSpaceOnUse" x="-3" y="-4" width="229" height="67" fill="black">
<rect fill="white" x="-3" y="-4" width="229" height="67"/>
<path d="M55.0249 16.414C55.0249 18.0548 54.7703 19.5259 54.2611 20.8272C53.8085 22.1285 53.1578 23.2884 52.3091 24.3068C51.4604 25.3253 50.4703 26.2306 49.3387 27.0227C48.2071 27.8148 46.9624 28.5503 45.6044 29.2293C46.2268 29.4556 46.9624 29.8234 47.811 30.3326C48.6597 30.7852 49.4801 31.4359 50.2723 32.2846C51.0644 33.1333 51.715 34.2366 52.2243 35.5945C52.7901 36.8958 53.073 38.5083 53.073 40.432C53.073 42.9781 52.5354 45.3262 51.4604 47.4762C50.3854 49.6262 48.7729 51.4933 46.6229 53.0776C44.5294 54.6052 41.9268 55.8217 38.8149 56.727C35.7596 57.5757 32.2234 58 28.2062 58H3L14.4574 4.10792H36.778C38.9846 4.10792 41.1629 4.27766 43.313 4.61714C45.5196 4.90004 47.4716 5.49412 49.169 6.3994C50.9229 7.30467 52.3374 8.57771 53.4124 10.2185C54.4874 11.8028 55.0249 13.8679 55.0249 16.414ZM31.9405 26.6832C33.1852 26.6832 34.2319 26.3154 35.0806 25.5799C35.9859 24.8443 36.7214 23.9391 37.2872 22.8641C37.853 21.7325 38.2774 20.5443 38.5603 19.2995C38.8432 17.9982 38.9846 16.8383 38.9846 15.8199C38.9846 14.1791 38.5886 12.7929 37.7965 11.6613C37.0609 10.4731 35.8728 9.87904 34.2319 9.87904H31.6859L28.0365 26.6832H31.9405ZM25.8299 52.6532C27.5273 52.6532 28.9418 52.1723 30.0733 51.2104C31.2049 50.2486 32.1385 49.0604 32.874 47.6459C33.6096 46.2314 34.1188 44.7604 34.4017 43.2327C34.7412 41.6485 34.9109 40.2623 34.9109 39.0741C34.9109 37.0938 34.4866 35.5379 33.6379 34.4063C32.8457 33.2181 31.5444 32.624 29.7339 32.624H26.5937L22.4351 52.6532H25.8299ZM72.1745 58H54.946L62.6692 21.5062H80.0674L72.1745 58ZM82.274 10.3883C82.274 11.6896 81.9911 12.8212 81.4253 13.783C80.9161 14.7449 80.2088 15.5653 79.3036 16.2443C78.4549 16.9232 77.4647 17.4324 76.3331 17.7719C75.2015 18.1114 74.0417 18.2811 72.8535 18.2811C70.5903 18.2811 68.6949 17.7436 67.1672 16.6686C65.6396 15.5936 64.8758 13.8962 64.8758 11.5764C64.8758 10.3317 65.1304 9.22838 65.6396 8.26652C66.1488 7.24809 66.8278 6.42769 67.6765 5.80531C68.5817 5.12636 69.6002 4.61714 70.7318 4.27766C71.9199 3.93818 73.1364 3.76844 74.3811 3.76844C76.5877 3.76844 78.4549 4.30595 79.9825 5.38097C81.5102 6.45598 82.274 8.12508 82.274 10.3883ZM118.341 55.9631C115.964 56.925 113.447 57.6039 110.787 58C108.185 58.4526 105.214 58.679 101.876 58.679C98.934 58.679 96.2182 58.3961 93.7287 57.8303C91.2958 57.2079 89.1741 56.246 87.3635 54.9447C85.553 53.6434 84.1385 51.9743 83.12 49.9374C82.1016 47.844 81.5924 45.3262 81.5924 42.384C81.5924 39.3287 82.1016 36.4997 83.12 33.8971C84.195 31.2378 85.7793 28.9181 87.8727 26.9378C90.0227 24.9575 92.7386 23.4016 96.0202 22.27C99.3018 21.1384 103.206 20.5726 107.732 20.5726C111.41 20.5726 114.607 20.8838 117.322 21.5062C120.038 22.0719 122.273 23.4016 124.027 25.495L121.651 36.3583H110.109C110.165 35.3964 110.222 34.5478 110.278 33.8122C110.335 33.0767 110.363 32.2563 110.363 31.351C110.363 29.5405 110.165 28.2674 109.769 27.5319C109.373 26.7398 108.722 26.3437 107.817 26.3437C106.233 26.3437 104.847 27.1358 103.658 28.7201C102.47 30.2477 101.48 32.1148 100.688 34.3214C99.9525 36.4715 99.3867 38.7629 98.9906 41.1959C98.6511 43.5722 98.4814 45.6091 98.4814 47.3065C98.4814 47.9288 98.5097 48.5795 98.5663 49.2585C98.6228 49.8808 98.736 50.4749 98.9057 51.0407C99.1321 51.6065 99.415 52.0591 99.7544 52.3986C100.094 52.7381 100.575 52.9078 101.197 52.9078C101.763 52.9078 102.414 52.7381 103.149 52.3986C103.885 52.0591 104.592 51.5499 105.271 50.871C105.95 50.1354 106.601 49.2019 107.223 48.0703C107.845 46.9387 108.326 45.5808 108.666 43.9965H120.802L118.341 55.9631ZM148.001 26.9378H148.595C149.67 25.8628 150.915 24.8726 152.33 23.9674C153.518 23.1753 154.932 22.468 156.573 21.8456C158.214 21.2233 160.053 20.9121 162.09 20.9121C165.032 20.9121 167.465 21.6759 169.388 23.2035C171.312 24.6746 172.274 26.7115 172.274 29.3141C172.274 30.1063 172.189 31.0115 172.019 32.03C171.85 32.9918 171.652 34.0385 171.425 35.1701C171.199 36.2451 170.944 37.3484 170.662 38.48C170.435 39.555 170.237 40.5452 170.067 41.4505L166.503 58H149.274L153.942 35.8491C154.055 35.1135 154.197 34.378 154.367 33.6425C154.536 32.8504 154.621 32.1431 154.621 31.5207C154.621 30.672 154.395 29.9931 153.942 29.4839C153.546 28.9181 152.924 28.6352 152.075 28.6352C151.057 28.6352 150.067 29.003 149.105 29.7385C148.199 30.474 147.492 31.1247 146.983 31.6905L141.382 58H124.068L136.12 0.967754H153.518L148.001 26.9378ZM201.379 20.5726C208.112 20.5726 213.006 21.7608 216.061 24.1371C219.286 26.6266 220.899 30.7569 220.899 36.528C220.899 40.0926 220.305 43.3176 219.117 46.2032C217.928 49.0321 216.259 51.3802 214.109 53.2473C209.809 56.8684 203.586 58.679 195.438 58.679C188.479 58.679 183.5 57.3493 180.501 54.6901C177.276 51.9177 175.663 47.7591 175.663 42.2143C175.663 38.5366 176.399 35.1984 177.87 32.1997C179.398 29.201 181.576 26.7115 184.405 24.7312C188.535 21.9588 194.193 20.5726 201.379 20.5726ZM195.608 52.9078C197.022 52.9078 198.239 52.1157 199.257 50.5315C200.332 48.9473 201.181 47.0236 201.803 44.7604C202.426 42.4406 202.878 40.0643 203.161 37.6313C203.501 35.1418 203.67 32.9918 203.67 31.1813C203.67 29.597 203.501 28.4089 203.161 27.6168C202.878 26.7681 202.228 26.3437 201.209 26.3437C199.682 26.3437 198.352 27.1641 197.22 28.8049C196.145 30.4457 195.268 32.3977 194.589 34.6609C193.91 36.9241 193.401 39.2439 193.062 41.6202C192.779 43.9965 192.637 45.9203 192.637 47.3913C192.637 51.069 193.628 52.9078 195.608 52.9078Z"/>
</mask>
<path d="M55.0249 16.414C55.0249 18.0548 54.7703 19.5259 54.2611 20.8272C53.8085 22.1285 53.1578 23.2884 52.3091 24.3068C51.4604 25.3253 50.4703 26.2306 49.3387 27.0227C48.2071 27.8148 46.9624 28.5503 45.6044 29.2293C46.2268 29.4556 46.9624 29.8234 47.811 30.3326C48.6597 30.7852 49.4801 31.4359 50.2723 32.2846C51.0644 33.1333 51.715 34.2366 52.2243 35.5945C52.7901 36.8958 53.073 38.5083 53.073 40.432C53.073 42.9781 52.5354 45.3262 51.4604 47.4762C50.3854 49.6262 48.7729 51.4933 46.6229 53.0776C44.5294 54.6052 41.9268 55.8217 38.8149 56.727C35.7596 57.5757 32.2234 58 28.2062 58H3L14.4574 4.10792H36.778C38.9846 4.10792 41.1629 4.27766 43.313 4.61714C45.5196 4.90004 47.4716 5.49412 49.169 6.3994C50.9229 7.30467 52.3374 8.57771 53.4124 10.2185C54.4874 11.8028 55.0249 13.8679 55.0249 16.414ZM31.9405 26.6832C33.1852 26.6832 34.2319 26.3154 35.0806 25.5799C35.9859 24.8443 36.7214 23.9391 37.2872 22.8641C37.853 21.7325 38.2774 20.5443 38.5603 19.2995C38.8432 17.9982 38.9846 16.8383 38.9846 15.8199C38.9846 14.1791 38.5886 12.7929 37.7965 11.6613C37.0609 10.4731 35.8728 9.87904 34.2319 9.87904H31.6859L28.0365 26.6832H31.9405ZM25.8299 52.6532C27.5273 52.6532 28.9418 52.1723 30.0733 51.2104C31.2049 50.2486 32.1385 49.0604 32.874 47.6459C33.6096 46.2314 34.1188 44.7604 34.4017 43.2327C34.7412 41.6485 34.9109 40.2623 34.9109 39.0741C34.9109 37.0938 34.4866 35.5379 33.6379 34.4063C32.8457 33.2181 31.5444 32.624 29.7339 32.624H26.5937L22.4351 52.6532H25.8299ZM72.1745 58H54.946L62.6692 21.5062H80.0674L72.1745 58ZM82.274 10.3883C82.274 11.6896 81.9911 12.8212 81.4253 13.783C80.9161 14.7449 80.2088 15.5653 79.3036 16.2443C78.4549 16.9232 77.4647 17.4324 76.3331 17.7719C75.2015 18.1114 74.0417 18.2811 72.8535 18.2811C70.5903 18.2811 68.6949 17.7436 67.1672 16.6686C65.6396 15.5936 64.8758 13.8962 64.8758 11.5764C64.8758 10.3317 65.1304 9.22838 65.6396 8.26652C66.1488 7.24809 66.8278 6.42769 67.6765 5.80531C68.5817 5.12636 69.6002 4.61714 70.7318 4.27766C71.9199 3.93818 73.1364 3.76844 74.3811 3.76844C76.5877 3.76844 78.4549 4.30595 79.9825 5.38097C81.5102 6.45598 82.274 8.12508 82.274 10.3883ZM118.341 55.9631C115.964 56.925 113.447 57.6039 110.787 58C108.185 58.4526 105.214 58.679 101.876 58.679C98.934 58.679 96.2182 58.3961 93.7287 57.8303C91.2958 57.2079 89.1741 56.246 87.3635 54.9447C85.553 53.6434 84.1385 51.9743 83.12 49.9374C82.1016 47.844 81.5924 45.3262 81.5924 42.384C81.5924 39.3287 82.1016 36.4997 83.12 33.8971C84.195 31.2378 85.7793 28.9181 87.8727 26.9378C90.0227 24.9575 92.7386 23.4016 96.0202 22.27C99.3018 21.1384 103.206 20.5726 107.732 20.5726C111.41 20.5726 114.607 20.8838 117.322 21.5062C120.038 22.0719 122.273 23.4016 124.027 25.495L121.651 36.3583H110.109C110.165 35.3964 110.222 34.5478 110.278 33.8122C110.335 33.0767 110.363 32.2563 110.363 31.351C110.363 29.5405 110.165 28.2674 109.769 27.5319C109.373 26.7398 108.722 26.3437 107.817 26.3437C106.233 26.3437 104.847 27.1358 103.658 28.7201C102.47 30.2477 101.48 32.1148 100.688 34.3214C99.9525 36.4715 99.3867 38.7629 98.9906 41.1959C98.6511 43.5722 98.4814 45.6091 98.4814 47.3065C98.4814 47.9288 98.5097 48.5795 98.5663 49.2585C98.6228 49.8808 98.736 50.4749 98.9057 51.0407C99.1321 51.6065 99.415 52.0591 99.7544 52.3986C100.094 52.7381 100.575 52.9078 101.197 52.9078C101.763 52.9078 102.414 52.7381 103.149 52.3986C103.885 52.0591 104.592 51.5499 105.271 50.871C105.95 50.1354 106.601 49.2019 107.223 48.0703C107.845 46.9387 108.326 45.5808 108.666 43.9965H120.802L118.341 55.9631ZM148.001 26.9378H148.595C149.67 25.8628 150.915 24.8726 152.33 23.9674C153.518 23.1753 154.932 22.468 156.573 21.8456C158.214 21.2233 160.053 20.9121 162.09 20.9121C165.032 20.9121 167.465 21.6759 169.388 23.2035C171.312 24.6746 172.274 26.7115 172.274 29.3141C172.274 30.1063 172.189 31.0115 172.019 32.03C171.85 32.9918 171.652 34.0385 171.425 35.1701C171.199 36.2451 170.944 37.3484 170.662 38.48C170.435 39.555 170.237 40.5452 170.067 41.4505L166.503 58H149.274L153.942 35.8491C154.055 35.1135 154.197 34.378 154.367 33.6425C154.536 32.8504 154.621 32.1431 154.621 31.5207C154.621 30.672 154.395 29.9931 153.942 29.4839C153.546 28.9181 152.924 28.6352 152.075 28.6352C151.057 28.6352 150.067 29.003 149.105 29.7385C148.199 30.474 147.492 31.1247 146.983 31.6905L141.382 58H124.068L136.12 0.967754H153.518L148.001 26.9378ZM201.379 20.5726C208.112 20.5726 213.006 21.7608 216.061 24.1371C219.286 26.6266 220.899 30.7569 220.899 36.528C220.899 40.0926 220.305 43.3176 219.117 46.2032C217.928 49.0321 216.259 51.3802 214.109 53.2473C209.809 56.8684 203.586 58.679 195.438 58.679C188.479 58.679 183.5 57.3493 180.501 54.6901C177.276 51.9177 175.663 47.7591 175.663 42.2143C175.663 38.5366 176.399 35.1984 177.87 32.1997C179.398 29.201 181.576 26.7115 184.405 24.7312C188.535 21.9588 194.193 20.5726 201.379 20.5726ZM195.608 52.9078C197.022 52.9078 198.239 52.1157 199.257 50.5315C200.332 48.9473 201.181 47.0236 201.803 44.7604C202.426 42.4406 202.878 40.0643 203.161 37.6313C203.501 35.1418 203.67 32.9918 203.67 31.1813C203.67 29.597 203.501 28.4089 203.161 27.6168C202.878 26.7681 202.228 26.3437 201.209 26.3437C199.682 26.3437 198.352 27.1641 197.22 28.8049C196.145 30.4457 195.268 32.3977 194.589 34.6609C193.91 36.9241 193.401 39.2439 193.062 41.6202C192.779 43.9965 192.637 45.9203 192.637 47.3913C192.637 51.069 193.628 52.9078 195.608 52.9078Z" fill="white"/>
<path d="M54.2611 20.8272L50.3094 19.2809L50.2798 19.3565L50.2532 19.4331L54.2611 20.8272ZM49.3387 27.0227L46.9052 23.5463L46.9052 23.5463L49.3387 27.0227ZM45.6044 29.2293L43.7067 25.4338L34.8827 29.8458L44.1543 33.2173L45.6044 29.2293ZM47.811 30.3326L45.6278 33.9713L45.7196 34.0264L45.8141 34.0768L47.811 30.3326ZM50.2723 32.2846L47.1701 35.18L47.1701 35.18L50.2723 32.2846ZM52.2243 35.5945L48.251 37.0845L48.2892 37.1865L48.3327 37.2865L52.2243 35.5945ZM51.4604 47.4762L47.665 45.5785L47.665 45.5785L51.4604 47.4762ZM46.6229 53.0776L49.1243 56.5054L49.1322 56.4996L49.1401 56.4938L46.6229 53.0776ZM38.8149 56.727L39.9506 60.8156L39.9755 60.8087L40.0002 60.8015L38.8149 56.727ZM3 58L-1.1507 57.1176L-2.24046 62.2435H3V58ZM14.4574 4.10792V-0.135548H11.0212L10.3067 3.22549L14.4574 4.10792ZM43.313 4.61714L42.6511 8.80868L42.7121 8.81831L42.7734 8.82616L43.313 4.61714ZM49.169 6.3994L47.172 10.1436L47.1973 10.1571L47.2227 10.1702L49.169 6.3994ZM53.4124 10.2185L49.8629 12.5441L49.8818 12.5728L49.9011 12.6012L53.4124 10.2185ZM35.0806 25.5799L32.4047 22.2865L32.3524 22.329L32.3015 22.3731L35.0806 25.5799ZM37.2872 22.8641L41.0424 24.8404L41.063 24.8013L41.0827 24.7618L37.2872 22.8641ZM38.5603 19.2995L42.6982 20.24L42.7027 20.2205L42.7069 20.201L38.5603 19.2995ZM37.7965 11.6613L34.1884 13.8949L34.2514 13.9967L34.3201 14.0948L37.7965 11.6613ZM31.6859 9.87904V5.63557H28.265L27.5391 8.97847L31.6859 9.87904ZM28.0365 26.6832L23.8897 25.7826L22.7725 30.9267H28.0365V26.6832ZM30.0733 51.2104L27.3251 47.9772L27.3251 47.9772L30.0733 51.2104ZM32.874 47.6459L36.6389 49.6037L36.6389 49.6037L32.874 47.6459ZM34.4017 43.2327L30.2524 42.3436L30.24 42.4016L30.2292 42.46L34.4017 43.2327ZM33.6379 34.4063L30.1071 36.7602L30.1724 36.8582L30.2431 36.9524L33.6379 34.4063ZM26.5937 32.624V28.3806H23.1408L22.4388 31.7614L26.5937 32.624ZM22.4351 52.6532L18.2802 51.7906L17.2201 56.8967H22.4351V52.6532ZM50.7815 16.414C50.7815 17.6162 50.5954 18.5501 50.3094 19.2809L58.2128 22.3735C58.9453 20.5016 59.2684 18.4934 59.2684 16.414H50.7815ZM50.2532 19.4331C49.9616 20.2714 49.5582 20.9794 49.0492 21.5902L55.5691 27.0234C56.7574 25.5974 57.6554 23.9856 58.2691 22.2213L50.2532 19.4331ZM49.0492 21.5902C48.451 22.308 47.7419 22.9606 46.9052 23.5463L51.7722 30.4991C53.1987 29.5005 54.4698 28.3425 55.5691 27.0234L49.0492 21.5902ZM46.9052 23.5463C45.9599 24.208 44.8965 24.8389 43.7067 25.4338L47.5022 33.0247C49.0282 32.2617 50.4543 31.4216 51.7722 30.4991L46.9052 23.5463ZM44.1543 33.2173C44.43 33.3175 44.9097 33.5404 45.6278 33.9713L49.9943 26.6938C49.015 26.1063 48.0236 25.5937 47.0546 25.2413L44.1543 33.2173ZM45.8141 34.0768C46.1748 34.2692 46.6331 34.6047 47.1701 35.18L53.3745 29.3892C52.3272 28.2671 51.1446 27.3012 49.808 26.5883L45.8141 34.0768ZM47.1701 35.18C47.5007 35.5342 47.8901 36.1222 48.251 37.0845L56.1975 34.1045C55.54 32.351 54.6281 30.7323 53.3745 29.3892L47.1701 35.18ZM48.3327 37.2865C48.5995 37.9001 48.8295 38.8954 48.8295 40.432H57.3164C57.3164 38.1212 56.9806 35.8915 56.1158 33.9025L48.3327 37.2865ZM48.8295 40.432C48.8295 42.3594 48.428 44.0524 47.665 45.5785L55.2559 49.3739C56.6429 46.5999 57.3164 43.5969 57.3164 40.432H48.8295ZM47.665 45.5785C46.922 47.0643 45.7764 48.4303 44.1057 49.6613L49.1401 56.4938C51.7694 54.5564 53.8488 52.1882 55.2559 49.3739L47.665 45.5785ZM44.1215 49.6497C42.5114 50.8246 40.3822 51.8516 37.6296 52.6524L40.0002 60.8015C43.4713 59.7917 46.5474 58.3858 49.1243 56.5054L44.1215 49.6497ZM37.6792 52.6383C35.0768 53.3612 31.9365 53.7565 28.2062 53.7565V62.2435C32.5102 62.2435 36.4424 61.7901 39.9506 60.8156L37.6792 52.6383ZM28.2062 53.7565H3V62.2435H28.2062V53.7565ZM7.1507 58.8824L18.6081 4.99036L10.3067 3.22549L-1.1507 57.1176L7.1507 58.8824ZM14.4574 8.35139H36.778V-0.135548H14.4574V8.35139ZM36.778 8.35139C38.7661 8.35139 40.723 8.50424 42.6511 8.80868L43.9748 0.4256C41.6029 0.0510814 39.2032 -0.135548 36.778 -0.135548V8.35139ZM42.7734 8.82616C44.5486 9.05376 45.9933 9.51496 47.172 10.1436L51.1659 2.65516C48.9499 1.47329 46.4905 0.746317 43.8526 0.408122L42.7734 8.82616ZM47.2227 10.1702C48.3309 10.7422 49.1914 11.5191 49.8629 12.5441L56.9619 7.89299C55.4834 5.63629 53.515 3.86716 51.1152 2.62856L47.2227 10.1702ZM49.9011 12.6012C50.3648 13.2846 50.7815 14.4421 50.7815 16.414H59.2684C59.2684 13.2937 58.6101 10.3209 56.9238 7.83581L49.9011 12.6012ZM31.9405 30.9267C34.0875 30.9267 36.1544 30.2647 37.8598 28.7866L32.3015 22.3731C32.2754 22.3958 32.2659 22.3991 32.2524 22.4038C32.2326 22.4108 32.1417 22.4397 31.9405 22.4397V30.9267ZM37.7565 28.8733C39.1253 27.7612 40.2208 26.4014 41.0424 24.8404L33.5321 20.8877C33.2221 21.4768 32.8465 21.9275 32.4047 22.2865L37.7565 28.8733ZM41.0827 24.7618C41.802 23.3233 42.3406 21.8134 42.6982 20.24L34.4223 18.3591C34.2141 19.2752 33.9041 20.1417 33.4918 20.9663L41.0827 24.7618ZM42.7069 20.201C43.0357 18.6884 43.2281 17.2175 43.2281 15.8199H34.7412C34.7412 16.4592 34.6506 17.308 34.4137 18.3981L42.7069 20.201ZM43.2281 15.8199C43.2281 13.4759 42.6523 11.1985 41.2728 9.22783L34.3201 14.0948C34.5248 14.3872 34.7412 14.8823 34.7412 15.8199H43.2281ZM41.4045 9.42773C39.7496 6.75435 37.042 5.63557 34.2319 5.63557V14.1225C34.5455 14.1225 34.5734 14.1788 34.4559 14.1201C34.3984 14.0913 34.3342 14.0483 34.276 13.9944C34.2189 13.9415 34.1921 13.9009 34.1884 13.8949L41.4045 9.42773ZM34.2319 5.63557H31.6859V14.1225H34.2319V5.63557ZM27.5391 8.97847L23.8897 25.7826L32.1833 27.5838L35.8327 10.7796L27.5391 8.97847ZM28.0365 30.9267H31.9405V22.4397H28.0365V30.9267ZM25.8299 56.8967C28.3815 56.8967 30.814 56.1502 32.8216 54.4437L27.3251 47.9772C27.0695 48.1944 26.673 48.4098 25.8299 48.4098V56.8967ZM32.8216 54.4437C34.4013 53.101 35.669 51.4689 36.6389 49.6037L29.1092 45.6882C28.608 46.6519 28.0085 47.3962 27.3251 47.9772L32.8216 54.4437ZM36.6389 49.6037C37.5631 47.8264 38.2128 45.9569 38.5742 44.0054L30.2292 42.46C30.0247 43.5639 29.656 44.6365 29.1092 45.6882L36.6389 49.6037ZM38.551 44.1219C38.9321 42.343 39.1544 40.6467 39.1544 39.0741H30.6674C30.6674 39.8778 30.5502 40.954 30.2524 42.3436L38.551 44.1219ZM39.1544 39.0741C39.1544 36.534 38.6142 33.969 37.0326 31.8602L30.2431 36.9524C30.3589 37.1068 30.6674 37.6536 30.6674 39.0741H39.1544ZM37.1686 32.0524C35.3782 29.3668 32.5345 28.3806 29.7339 28.3806V36.8675C30.1873 36.8675 30.3344 36.943 30.3055 36.9298C30.2884 36.922 30.2466 36.8995 30.1975 36.8577C30.1483 36.8158 30.1186 36.7775 30.1071 36.7602L37.1686 32.0524ZM29.7339 28.3806H26.5937V36.8675H29.7339V28.3806ZM22.4388 31.7614L18.2802 51.7906L26.59 53.5159L30.7486 33.4867L22.4388 31.7614ZM22.4351 56.8967H25.8299V48.4098H22.4351V56.8967ZM72.1745 58V62.2435H75.5983L76.3221 58.897L72.1745 58ZM54.946 58L50.7945 57.1214L49.7106 62.2435H54.946V58ZM62.6692 21.5062V17.2627H59.2297L58.5176 20.6276L62.6692 21.5062ZM80.0674 21.5062L84.215 22.4032L85.3267 17.2627H80.0674V21.5062ZM81.4253 13.783L77.7677 11.6315L77.7195 11.7135L77.675 11.7976L81.4253 13.783ZM79.3036 16.2443L76.7575 12.8495L76.7045 12.8892L76.6527 12.9307L79.3036 16.2443ZM76.3331 17.7719L75.1138 13.7074L75.1138 13.7074L76.3331 17.7719ZM67.1672 16.6686L64.7251 20.1389L64.7252 20.1389L67.1672 16.6686ZM65.6396 8.26652L69.3899 10.252L69.413 10.2084L69.4351 10.1643L65.6396 8.26652ZM67.6765 5.80531L70.1859 9.22727L70.2043 9.21378L70.2225 9.20009L67.6765 5.80531ZM70.7318 4.27766L69.566 0.197468L69.5391 0.205135L69.5124 0.213155L70.7318 4.27766ZM79.9825 5.38097L77.5404 8.8513L77.5404 8.8513L79.9825 5.38097ZM72.1745 53.7565H54.946V62.2435H72.1745V53.7565ZM59.0976 58.8786L66.8207 22.3847L58.5176 20.6276L50.7945 57.1214L59.0976 58.8786ZM62.6692 25.7496H80.0674V17.2627H62.6692V25.7496ZM75.9198 20.6091L68.027 57.103L76.3221 58.897L84.215 22.4032L75.9198 20.6091ZM78.0305 10.3883C78.0305 11.0602 77.8902 11.4233 77.7677 11.6315L85.0829 15.9346C86.092 14.2191 86.5175 12.319 86.5175 10.3883H78.0305ZM77.675 11.7976C77.4701 12.1845 77.1828 12.5305 76.7575 12.8495L81.8496 19.639C83.2349 18.6001 84.362 17.3053 85.1756 15.7685L77.675 11.7976ZM76.6527 12.9307C76.2643 13.2414 75.7701 13.5105 75.1138 13.7074L77.5525 21.8364C79.1594 21.3543 80.6455 20.605 81.9544 19.5578L76.6527 12.9307ZM75.1138 13.7074C74.3801 13.9275 73.6311 14.0376 72.8535 14.0376V22.5246C74.4523 22.5246 76.023 22.2952 77.5525 21.8364L75.1138 13.7074ZM72.8535 14.0376C71.2763 14.0376 70.2821 13.6717 69.6093 13.1983L64.7252 20.1389C67.1077 21.8155 69.9043 22.5246 72.8535 22.5246V14.0376ZM69.6093 13.1983C69.4868 13.1121 69.1192 12.8908 69.1192 11.5764H60.6323C60.6323 14.9015 61.7923 18.0751 64.7251 20.1389L69.6093 13.1983ZM69.1192 11.5764C69.1192 10.9235 69.2484 10.5192 69.3899 10.252L61.8893 6.28106C61.0123 7.93752 60.6323 9.73986 60.6323 11.5764H69.1192ZM69.4351 10.1643C69.668 9.69836 69.9246 9.41885 70.1859 9.22727L65.167 2.38336C63.7309 3.43652 62.6296 4.79782 61.8441 6.36879L69.4351 10.1643ZM70.2225 9.20009C70.711 8.83375 71.2764 8.54458 71.9511 8.34217L69.5124 0.213155C67.9239 0.689697 66.4525 1.41896 65.1304 2.41054L70.2225 9.20009ZM71.8975 8.35786C72.7038 8.1275 73.5278 8.01191 74.3811 8.01191V-0.475027C72.745 -0.475027 71.1361 -0.251132 69.566 0.197468L71.8975 8.35786ZM74.3811 8.01191C75.8761 8.01191 76.8501 8.3655 77.5404 8.8513L82.4246 1.91063C80.0597 0.246402 77.2994 -0.475027 74.3811 -0.475027V8.01191ZM77.5404 8.8513C77.6925 8.95832 78.0305 9.17478 78.0305 10.3883H86.5175C86.5175 7.07537 85.3278 3.95364 82.4246 1.91063L77.5404 8.8513ZM118.341 55.9631L119.933 59.8966L122.039 59.044L122.497 56.818L118.341 55.9631ZM110.787 58L110.162 53.8028L110.111 53.8104L110.06 53.8193L110.787 58ZM93.7287 57.8303L92.677 61.9413L92.7325 61.9555L92.7883 61.9682L93.7287 57.8303ZM87.3635 54.9447L84.8869 58.3905L84.8869 58.3905L87.3635 54.9447ZM83.12 49.9374L79.3042 51.7938L79.3142 51.8145L79.3246 51.8351L83.12 49.9374ZM83.12 33.8971L79.1859 32.3067L79.177 32.3287L79.1683 32.3508L83.12 33.8971ZM87.8727 26.9378L84.9979 23.8165L84.9771 23.8357L84.9566 23.855L87.8727 26.9378ZM96.0202 22.27L94.6369 18.2583L94.6369 18.2583L96.0202 22.27ZM117.322 21.5062L116.375 25.6424L116.416 25.6518L116.457 25.6604L117.322 21.5062ZM124.027 25.495L128.173 26.4018L128.618 24.3667L127.28 22.7698L124.027 25.495ZM121.651 36.3583V40.6018H125.066L125.796 37.2651L121.651 36.3583ZM110.109 36.3583L105.872 36.1091L105.608 40.6018H110.109V36.3583ZM110.278 33.8122L106.047 33.4868L106.047 33.4868L110.278 33.8122ZM109.769 27.5319L105.974 29.4296L106.002 29.4871L106.033 29.5437L109.769 27.5319ZM103.658 28.7201L107.008 31.3253L107.031 31.2959L107.053 31.2661L103.658 28.7201ZM100.688 34.3214L96.6941 32.8877L96.6833 32.9177L96.673 32.9479L100.688 34.3214ZM98.9906 41.1959L94.8023 40.514L94.7956 40.5548L94.7898 40.5957L98.9906 41.1959ZM98.5663 49.2585L94.3375 49.6109L94.3388 49.6267L94.3402 49.6426L98.5663 49.2585ZM98.9057 51.0407L94.8412 52.2601L94.8956 52.4412L94.9658 52.6167L98.9057 51.0407ZM99.7544 52.3986L96.7539 55.3992L96.7539 55.3992L99.7544 52.3986ZM103.149 52.3986L104.927 56.2515L104.927 56.2515L103.149 52.3986ZM105.271 50.871L108.272 53.8716L108.332 53.8116L108.389 53.7492L105.271 50.871ZM107.223 48.0703L110.941 50.1153L110.941 50.1153L107.223 48.0703ZM108.666 43.9965V39.7531H105.235L104.516 43.1074L108.666 43.9965ZM120.802 43.9965L124.959 44.8514L126.007 39.7531H120.802V43.9965ZM116.749 52.0297C114.698 52.8597 112.506 53.4538 110.162 53.8028L111.413 62.1972C114.387 61.7541 117.231 60.9902 119.933 59.8966L116.749 52.0297ZM110.06 53.8193C107.751 54.221 105.031 54.4355 101.876 54.4355V62.9224C105.398 62.9224 108.619 62.6843 111.515 62.1807L110.06 53.8193ZM101.876 54.4355C99.2036 54.4355 96.8075 54.1783 94.6692 53.6923L92.7883 61.9682C95.6289 62.6138 98.6644 62.9224 101.876 62.9224V54.4355ZM94.7804 53.7192C92.7954 53.2114 91.1705 52.4551 89.8401 51.4989L84.8869 58.3905C87.1776 60.0369 89.7961 61.2044 92.677 61.9413L94.7804 53.7192ZM89.8401 51.4989C88.6005 50.6079 87.6331 49.4749 86.9155 48.0397L79.3246 51.8351C80.6438 54.4736 82.5055 56.6788 84.8869 58.3905L89.8401 51.4989ZM86.9359 48.081C86.263 46.6979 85.8359 44.8478 85.8359 42.384H77.3489C77.3489 45.8045 77.9402 48.99 79.3042 51.7938L86.9359 48.081ZM85.8359 42.384C85.8359 39.8084 86.2633 37.5093 87.0717 35.4434L79.1683 32.3508C77.9399 35.4902 77.3489 38.8491 77.3489 42.384H85.8359ZM87.0542 35.4875C87.8998 33.3957 89.1358 31.5842 90.7888 30.0205L84.9566 23.855C82.4228 26.2519 80.4903 29.08 79.1859 32.3067L87.0542 35.4875ZM90.7476 30.0591C92.3942 28.5424 94.573 27.2577 97.4035 26.2816L94.6369 18.2583C90.9041 19.5455 87.6513 21.3726 84.9979 23.8165L90.7476 30.0591ZM97.4035 26.2816C100.128 25.3421 103.541 24.8161 107.732 24.8161V16.3291C102.87 16.3291 98.4755 16.9346 94.6369 18.2583L97.4035 26.2816ZM107.732 24.8161C111.186 24.8161 114.05 25.1098 116.375 25.6424L118.27 17.3699C115.163 16.6578 111.634 16.3291 107.732 16.3291V24.8161ZM116.457 25.6604C118.255 26.035 119.643 26.8703 120.774 28.2203L127.28 22.7698C124.903 19.9328 121.821 18.1089 118.188 17.3519L116.457 25.6604ZM119.882 24.5882L117.505 35.4515L125.796 37.2651L128.173 26.4018L119.882 24.5882ZM121.651 32.1148H110.109V40.6018H121.651V32.1148ZM114.345 36.6075C114.4 35.6639 114.455 34.8415 114.509 34.1377L106.047 33.4868C105.988 34.254 105.93 35.129 105.872 36.1091L114.345 36.6075ZM114.509 34.1377C114.576 33.2729 114.607 32.3416 114.607 31.351H106.12C106.12 32.171 106.094 32.8805 106.047 33.4868L114.509 34.1377ZM114.607 31.351C114.607 29.4773 114.443 27.2618 113.505 25.5201L106.033 29.5437C105.914 29.3225 105.961 29.3005 106.022 29.6906C106.077 30.0444 106.12 30.584 106.12 31.351H114.607ZM113.565 25.6341C113.069 24.6427 112.302 23.6926 111.19 23.016C110.084 22.3427 108.9 22.1002 107.817 22.1002V30.5872C107.639 30.5872 107.233 30.5427 106.778 30.2655C106.317 29.985 106.073 29.629 105.974 29.4296L113.565 25.6341ZM107.817 22.1002C104.566 22.1002 102.031 23.8175 100.264 26.174L107.053 31.2661C107.381 30.8294 107.61 30.6706 107.695 30.6222C107.752 30.5895 107.769 30.5872 107.817 30.5872V22.1002ZM100.309 26.1148C98.7943 28.0621 97.6068 30.3452 96.6941 32.8877L104.682 35.7552C105.353 33.8845 106.146 32.4333 107.008 31.3253L100.309 26.1148ZM96.673 32.9479C95.8542 35.3412 95.2334 37.8657 94.8023 40.514L103.179 41.8777C103.54 39.6602 104.051 37.6017 104.703 35.695L96.673 32.9479ZM94.7898 40.5957C94.4325 43.0965 94.2379 45.345 94.2379 47.3065H102.725C102.725 45.8731 102.87 44.0479 103.191 41.796L94.7898 40.5957ZM94.2379 47.3065C94.2379 48.0569 94.272 48.8255 94.3375 49.6109L102.795 48.906C102.747 48.3335 102.725 47.8008 102.725 47.3065H94.2379ZM94.3402 49.6426C94.4211 50.5318 94.5852 51.4068 94.8412 52.2601L102.97 49.8214C102.887 49.5431 102.825 49.2298 102.792 48.8743L94.3402 49.6426ZM94.9658 52.6167C95.3502 53.5777 95.9145 54.5598 96.7539 55.3992L102.755 49.398C102.836 49.479 102.876 49.5394 102.886 49.5555C102.895 49.5704 102.878 49.5457 102.846 49.4647L94.9658 52.6167ZM96.7539 55.3992C98.1054 56.7507 99.7974 57.1513 101.197 57.1513V48.6644C101.265 48.6644 101.481 48.6729 101.782 48.779C102.101 48.8916 102.449 49.092 102.755 49.398L96.7539 55.3992ZM101.197 57.1513C102.583 57.1513 103.858 56.7453 104.927 56.2515L101.371 48.5457C101.186 48.6309 101.078 48.6642 101.038 48.6745C100.999 48.6847 101.058 48.6644 101.197 48.6644V57.1513ZM104.927 56.2515C106.193 55.6674 107.303 54.8404 108.272 53.8716L102.27 47.8704C101.881 48.2594 101.576 48.4509 101.371 48.5457L104.927 56.2515ZM108.389 53.7492C109.357 52.7007 110.198 51.4659 110.941 50.1153L103.505 46.0253C103.003 46.9378 102.543 47.5702 102.153 47.9927L108.389 53.7492ZM110.941 50.1153C111.806 48.543 112.41 46.7762 112.815 44.8857L104.516 43.1074C104.243 44.3854 103.885 45.3343 103.505 46.0253L110.941 50.1153ZM108.666 48.24H120.802V39.7531H108.666V48.24ZM116.646 43.1417L114.184 55.1083L122.497 56.818L124.959 44.8514L116.646 43.1417ZM148.001 26.9378L143.851 26.0561L142.762 31.1813H148.001V26.9378ZM148.595 26.9378V31.1813H150.353L151.596 29.9384L148.595 26.9378ZM152.33 23.9674L154.617 27.5415L154.651 27.5201L154.684 27.4981L152.33 23.9674ZM156.573 21.8456L155.068 17.878L155.068 17.878L156.573 21.8456ZM169.388 23.2035L166.75 26.5267L166.78 26.5508L166.811 26.5744L169.388 23.2035ZM172.019 32.03L176.198 32.7674L176.202 32.7475L176.205 32.7276L172.019 32.03ZM171.425 35.1701L175.578 36.0443L175.582 36.0234L175.586 36.0023L171.425 35.1701ZM170.662 38.48L166.545 37.4508L166.525 37.528L166.509 37.6058L170.662 38.48ZM170.067 41.4505L174.216 42.344L174.228 42.2884L174.238 42.2325L170.067 41.4505ZM166.503 58V62.2435H169.93L170.651 58.8935L166.503 58ZM149.274 58L145.122 57.125L144.044 62.2435H149.274V58ZM153.942 35.8491L158.095 36.7241L158.119 36.6098L158.136 36.4943L153.942 35.8491ZM154.367 33.6425L158.501 34.5967L158.509 34.5642L158.516 34.5316L154.367 33.6425ZM153.942 29.4839L150.466 31.9173L150.607 32.1191L150.771 32.3031L153.942 29.4839ZM149.105 29.7385L146.527 26.3677L146.477 26.4056L146.429 26.4451L149.105 29.7385ZM146.983 31.6905L143.829 28.8518L143.069 29.696L142.832 30.8068L146.983 31.6905ZM141.382 58V62.2435H144.817L145.532 58.8836L141.382 58ZM124.068 58L119.916 57.1227L118.834 62.2435H124.068V58ZM136.12 0.967754V-3.27572H132.679L131.968 0.090441L136.12 0.967754ZM153.518 0.967754L157.669 1.84947L158.757 -3.27572H153.518V0.967754ZM148.001 31.1813H148.595V22.6943H148.001V31.1813ZM151.596 29.9384C152.434 29.1009 153.434 28.2988 154.617 27.5415L150.042 20.3932C148.397 21.4465 146.907 22.6247 145.595 23.9372L151.596 29.9384ZM154.684 27.4981C155.554 26.918 156.671 26.3471 158.078 25.8133L155.068 17.878C153.194 18.5889 151.482 19.4326 149.976 20.4366L154.684 27.4981ZM158.078 25.8133C159.168 25.4 160.486 25.1555 162.09 25.1555V16.6686C159.62 16.6686 157.26 17.0465 155.068 17.878L158.078 25.8133ZM162.09 25.1555C164.27 25.1555 165.717 25.7066 166.75 26.5267L172.027 19.8804C169.213 17.6452 165.794 16.6686 162.09 16.6686V25.1555ZM166.811 26.5744C167.597 27.1756 168.031 27.9189 168.031 29.3141H176.517C176.517 25.5041 175.027 22.1736 171.966 19.8327L166.811 26.5744ZM168.031 29.3141C168.031 29.8147 167.976 30.4794 167.834 31.3323L176.205 32.7276C176.402 31.5437 176.517 30.3978 176.517 29.3141H168.031ZM167.841 31.2925C167.677 32.2177 167.485 33.2324 167.264 34.3379L175.586 36.0023C175.818 34.8447 176.022 33.766 176.198 32.7674L167.841 31.2925ZM167.273 34.2959C167.058 35.316 166.816 36.3676 166.545 37.4508L174.778 39.5092C175.073 38.3293 175.34 37.1743 175.578 36.0443L167.273 34.2959ZM166.509 37.6058C166.277 38.7059 166.073 39.7272 165.897 40.6684L174.238 42.2325C174.401 41.3632 174.593 40.4042 174.814 39.3542L166.509 37.6058ZM165.919 40.557L162.355 57.1065L170.651 58.8935L174.216 42.344L165.919 40.557ZM166.503 53.7565H149.274V62.2435H166.503V53.7565ZM153.427 58.875L158.095 36.7241L149.79 34.9741L145.122 57.125L153.427 58.875ZM158.136 36.4943C158.233 35.8639 158.355 35.2315 158.501 34.5967L150.232 32.6883C150.039 33.5246 149.877 34.3631 149.748 35.2038L158.136 36.4943ZM158.516 34.5316C158.731 33.5296 158.865 32.5158 158.865 31.5207H150.378C150.378 31.7704 150.342 32.1712 150.217 32.7533L158.516 34.5316ZM158.865 31.5207C158.865 29.8981 158.415 28.1284 157.114 26.6647L150.771 32.3031C150.596 32.1066 150.485 31.8946 150.426 31.7169C150.371 31.5519 150.378 31.4701 150.378 31.5207H158.865ZM157.419 27.0504C156.043 25.0856 153.951 24.3917 152.075 24.3917V32.8787C152.036 32.8787 151.779 32.8726 151.422 32.7105C151.035 32.5345 150.698 32.2496 150.466 31.9173L157.419 27.0504ZM152.075 24.3917C149.958 24.3917 148.084 25.1767 146.527 26.3677L151.682 33.1093C151.877 32.9607 151.999 32.9065 152.046 32.8889C152.086 32.8741 152.089 32.8787 152.075 32.8787V24.3917ZM146.429 26.4451C145.432 27.2547 144.541 28.0603 143.829 28.8518L150.137 34.5292C150.443 34.189 150.966 33.6934 151.781 33.0319L146.429 26.4451ZM142.832 30.8068L137.231 57.1164L145.532 58.8836L151.133 32.5741L142.832 30.8068ZM141.382 53.7565H124.068V62.2435H141.382V53.7565ZM128.22 58.8773L140.271 1.84507L131.968 0.090441L119.916 57.1227L128.22 58.8773ZM136.12 5.21122H153.518V-3.27572H136.12V5.21122ZM149.367 0.0860359L143.851 26.0561L152.152 27.8195L157.669 1.84947L149.367 0.0860359ZM216.061 24.1371L213.456 27.4867L213.462 27.4915L213.468 27.4962L216.061 24.1371ZM219.117 46.2032L223.029 47.8464L223.035 47.8326L223.04 47.8188L219.117 46.2032ZM214.109 53.2473L216.843 56.4932L216.867 56.4724L216.892 56.4513L214.109 53.2473ZM180.501 54.6901L183.317 51.5152L183.292 51.4935L183.267 51.4722L180.501 54.6901ZM177.87 32.1997L174.089 30.2735L174.074 30.302L174.06 30.3308L177.87 32.1997ZM184.405 24.7312L182.04 21.2079L182.006 21.231L181.972 21.2548L184.405 24.7312ZM199.257 50.5315L195.746 48.1488L195.716 48.1924L195.688 48.2368L199.257 50.5315ZM201.803 44.7604L205.895 45.8856L205.898 45.8728L205.902 45.86L201.803 44.7604ZM203.161 37.6313L198.957 37.058L198.951 37.0996L198.946 37.1412L203.161 37.6313ZM203.161 27.6168L199.135 28.9587L199.191 29.1261L199.261 29.2883L203.161 27.6168ZM197.22 28.8049L193.727 26.3958L193.698 26.4372L193.671 26.4794L197.22 28.8049ZM194.589 34.6609L198.654 35.8803L198.654 35.8803L194.589 34.6609ZM193.062 41.6202L188.861 41.0201L188.854 41.0693L188.848 41.1186L193.062 41.6202ZM201.379 24.8161C207.794 24.8161 211.522 25.9828 213.456 27.4867L218.667 20.7875C214.49 17.5388 208.43 16.3291 201.379 16.3291V24.8161ZM213.468 27.4962C215.268 28.8851 216.655 31.4941 216.655 36.528H225.142C225.142 30.0197 223.305 24.3681 218.654 20.778L213.468 27.4962ZM216.655 36.528C216.655 39.6166 216.142 42.2821 215.193 44.5875L223.04 47.8188C224.468 44.353 225.142 40.5686 225.142 36.528H216.655ZM215.204 44.5599C214.248 46.8364 212.948 48.6355 211.327 50.0434L216.892 56.4513C219.571 54.1249 221.609 51.2279 223.029 47.8464L215.204 44.5599ZM211.376 50.0014C208.121 52.7428 203.025 54.4355 195.438 54.4355V62.9224C204.147 62.9224 211.498 60.994 216.843 56.4932L211.376 50.0014ZM195.438 54.4355C188.819 54.4355 185.141 53.1328 183.317 51.5152L177.686 57.865C181.859 61.5659 188.139 62.9224 195.438 62.9224V54.4355ZM183.267 51.4722C181.246 49.735 179.907 46.9234 179.907 42.2143H171.42C171.42 48.5948 173.306 54.1004 177.735 57.908L183.267 51.4722ZM179.907 42.2143C179.907 39.1181 180.522 36.4288 181.68 34.0686L174.06 30.3308C172.276 33.968 171.42 37.9551 171.42 42.2143H179.907ZM181.651 34.1259C182.855 31.7631 184.563 29.8001 186.839 28.2076L181.972 21.2548C178.589 23.6228 175.941 26.6389 174.089 30.2735L181.651 34.1259ZM186.77 28.2545C189.954 26.1172 194.679 24.8161 201.379 24.8161V16.3291C193.708 16.3291 187.117 17.8003 182.04 21.2079L186.77 28.2545ZM195.608 57.1513C198.93 57.1513 201.316 55.1756 202.827 52.8262L195.688 48.2368C195.41 48.6683 195.246 48.7707 195.265 48.7577C195.28 48.7481 195.329 48.7197 195.408 48.696C195.488 48.672 195.559 48.6644 195.608 48.6644V57.1513ZM202.769 52.9142C204.156 50.8698 205.176 48.4993 205.895 45.8856L197.712 43.6352C197.186 45.5478 196.509 47.0248 195.746 48.1488L202.769 52.9142ZM205.902 45.86C206.579 43.3363 207.07 40.7561 207.376 38.1215L198.946 37.1412C198.687 39.3725 198.272 41.545 197.705 43.6608L205.902 45.86ZM207.366 38.2047C207.722 35.5921 207.914 33.241 207.914 31.1813H199.427C199.427 32.7426 199.279 34.6916 198.957 37.058L207.366 38.2047ZM207.914 31.1813C207.914 29.4234 207.745 27.5394 207.062 25.9452L199.261 29.2883C199.239 29.2375 199.291 29.3441 199.342 29.7021C199.391 30.0462 199.427 30.5305 199.427 31.1813H207.914ZM207.187 26.2749C206.791 25.0859 206.026 23.9209 204.779 23.1076C203.58 22.3255 202.29 22.1002 201.209 22.1002V30.5872C201.147 30.5872 200.691 30.5741 200.143 30.2163C199.547 29.8274 199.249 29.2989 199.135 28.9587L207.187 26.2749ZM201.209 22.1002C197.873 22.1002 195.383 23.9949 193.727 26.3958L200.714 31.2141C201.034 30.7492 201.248 30.5992 201.295 30.5704C201.314 30.5581 201.305 30.5666 201.272 30.5762C201.257 30.5805 201.242 30.5835 201.229 30.5854C201.216 30.5872 201.209 30.5872 201.209 30.5872V22.1002ZM193.671 26.4794C192.331 28.5237 191.298 30.864 190.525 33.4416L198.654 35.8803C199.239 33.9315 199.959 32.3678 200.77 31.1305L193.671 26.4794ZM190.525 33.4416C189.784 35.9107 189.23 38.4376 188.861 41.0201L197.263 42.2203C197.573 40.0502 198.037 37.9375 198.654 35.8803L190.525 33.4416ZM188.848 41.1186C188.556 43.5722 188.394 45.682 188.394 47.3913H196.881C196.881 46.1585 197.002 44.4209 197.275 42.1218L188.848 41.1186ZM188.394 47.3913C188.394 49.4723 188.65 51.6957 189.644 53.5405C190.175 54.5265 190.958 55.4798 192.075 56.1711C193.203 56.8698 194.432 57.1513 195.608 57.1513V48.6644C195.794 48.6644 196.156 48.716 196.542 48.955C196.916 49.1865 197.08 49.4504 197.116 49.5169C197.14 49.5608 197.07 49.4442 197 49.0551C196.932 48.6757 196.881 48.1323 196.881 47.3913H188.394Z" fill="#192494" mask="url(#path-1-outside-1_40_2898)"/>
</g>
<defs>
<filter id="filter0_d_40_2898" x="0.878265" y="0.967773" width="220.021" height="66.1981" filterUnits="userSpaceOnUse" color-interpolation-filters="sRGB">
<feFlood flood-opacity="0" result="BackgroundImageFix"/>
<feColorMatrix in="SourceAlpha" type="matrix" values="0 0 0 0 0 0 0 0 0 0 0 0 0 0 0 0 0 0 127 0" result="hardAlpha"/>
<feOffset dx="-2.12174" dy="8.48694"/>
<feComposite in2="hardAlpha" operator="out"/>
<feColorMatrix type="matrix" values="0 0 0 0 0.0980392 0 0 0 0 0.141176 0 0 0 0 0.580392 0 0 0 1 0"/>
<feBlend mode="normal" in2="BackgroundImageFix" result="effect1_dropShadow_40_2898"/>
<feBlend mode="normal" in="SourceGraphic" in2="effect1_dropShadow_40_2898" result="shape"/>
</filter>
</defs>
</svg>
