<svg width="62" height="44" viewBox="0 0 62 44" fill="none" xmlns="http://www.w3.org/2000/svg">
<g clip-path="url(#clip0_322_5542)">
<g clip-path="url(#clip1_322_5542)">
<path d="M8.23291 20.7661C8.52496 20.8949 8.85136 21.0925 8.88572 21.3759C8.92866 21.741 8.45624 21.9557 8.49919 22.2692C8.52496 22.4625 8.75258 22.6987 9.59865 22.9006C10.9687 23.6135 12.3387 24.3264 13.7088 25.0351C14.6579 25.0437 15.607 25.0479 16.5562 25.0565C22.0621 22.1189 27.568 19.1856 33.0739 16.2479C32.9279 16.0933 32.7346 15.8399 32.726 15.5135C32.7174 15.1141 32.9966 14.908 33.031 14.719C33.0997 14.3282 32.1505 13.6281 28.1693 12.2796C27.1471 12.1894 26.1207 12.1035 25.0985 12.0133C19.4766 14.9337 13.8548 17.8499 8.23291 20.7661Z" fill="white"/>
<path d="M38.9709 16.1835L39.3488 15.9859L40.59 15.3331L26.9627 8.18233L1.05661 21.7667L1.58057 22.0416L1.94133 22.2306L0.687256 23.1883L2.12171 23.9485L0.687256 25.0436L2.12171 25.8038L0.687256 26.899L2.12171 27.6592L0.687256 28.7543L12.1629 34.84L14.9674 36.3088L40.4913 22.7245L38.9108 21.7109L40.4913 20.8691L38.9108 19.8555L40.4913 19.0138L38.9108 18.0002L40.4913 17.1584L38.9709 16.1835ZM25.146 11.9918C25.8976 12.3869 26.9627 12.4685 27.8689 11.9918L33.3233 14.8478C32.4171 15.3288 32.5717 15.8829 33.3233 16.2823L16.5006 25.1038C15.5901 24.627 14.5336 24.7086 13.782 25.0995L8.33196 22.2391C9.08355 21.844 9.23386 21.29 8.32767 20.8133L25.146 11.9918Z" fill="#50D864"/>
<path d="M16.3286 25.4345L16.5004 25.5247L34.1175 16.2823L33.4948 15.9516C33.1598 15.7755 33.0696 15.6209 33.0696 15.5651C33.0696 15.5049 33.1598 15.3589 33.4948 15.1785L34.1132 14.8478L27.8686 11.5709L27.6968 11.6611C26.971 12.0433 26.0391 12.0433 25.3175 11.6611L25.1457 11.5709L7.52856 20.8133L8.1556 21.1397C8.49489 21.3158 8.58508 21.4661 8.58508 21.5262C8.58508 21.582 8.49489 21.7367 8.16419 21.9127L7.53715 22.2391L13.7861 25.5204L13.9578 25.4302C14.6751 25.0522 15.607 25.0565 16.3286 25.4345ZM13.7904 24.6872L9.03603 22.1919C9.26365 21.9514 9.32808 21.7152 9.32808 21.5305C9.32808 21.3501 9.26795 21.1096 9.03174 20.8691L25.1543 12.4127C25.9961 12.7863 27.0183 12.7863 27.8643 12.4127L32.6272 14.908C32.434 15.1098 32.3352 15.3288 32.3352 15.5694C32.3352 15.754 32.3953 15.9902 32.6315 16.235L16.4918 24.6915C16.0623 24.4982 15.5985 24.4037 15.1303 24.4037C14.6708 24.4037 14.2112 24.4982 13.7904 24.6872Z" fill="#1F9E36"/>
<path d="M39.7095 16.2136L41.3888 15.3289L26.9626 7.76146L0.257687 21.7667L1.25408 22.2907L0 23.2441L1.43446 24.0043L0 25.0995L1.43446 25.8597L0 26.9548L1.43446 27.715L0 28.8102L11.991 35.1707L14.9673 36.734L41.2299 22.7588L39.6537 21.741L41.2299 20.9035L39.6537 19.8856L41.2299 19.0481L39.6537 18.0303L41.2299 17.1928L39.7095 16.2136ZM26.9626 8.59894L39.7954 15.3289L14.6924 28.4966L1.85534 21.7667L26.9626 8.59894ZM39.7568 22.6987L14.9673 35.8923L12.3389 34.5136L1.37433 28.6985L2.16027 28.0972L11.991 33.3154L14.9673 34.8787L38.8935 22.1447L39.7568 22.6987ZM39.7568 20.8434L38.9322 21.2814L17.0503 32.9289L14.963 34.0369L14.9115 34.0068L12.3346 32.654L2.08726 27.2211L1.37433 26.8432L2.16027 26.2419L11.991 31.46L14.9673 33.0233L38.8935 20.2893L39.7568 20.8434ZM39.7568 18.988L38.9322 19.4261L17.0503 31.0735L14.963 32.1816L14.9115 32.1515L12.3346 30.7986L2.08726 25.3658L1.37433 24.9878L2.16027 24.3865L11.991 29.6047L14.9673 31.168L38.8935 18.434L39.7568 18.988ZM38.9322 17.5707L17.0503 29.2182L14.963 30.3262L14.9115 30.2962L12.3346 28.9433L2.08726 23.5104L1.37433 23.1325L1.97989 22.6686L14.6967 29.3384L38.9536 16.613L39.7568 17.1327L38.9322 17.5707Z" fill="#1F9E36"/>
<path d="M24.0422 23.8884L10.7756 16.5658L17.3595 13.2158L31.1071 20.3709V28.1488L24.0422 31.8938V23.8884Z" fill="#FCE900"/>
<path d="M23.6942 32.0785L23.6684 23.7552L10.1484 16.5228L17.3594 12.7992L31.4806 19.9157V27.9426L23.6942 32.0785ZM11.7031 16.5314L24.4071 23.33L24.4329 30.8759L30.7333 27.5174V20.3537L17.3594 13.6109L11.7031 16.5314Z" fill="#DDB922"/>
</g>
<g clip-path="url(#clip2_322_5542)">
<path d="M28.4185 28.0672C28.7105 28.196 29.0369 28.3936 29.0713 28.677C29.1142 29.0421 28.6418 29.2568 28.6847 29.5703C28.7105 29.7636 28.9381 29.9998 29.7842 30.2017C31.1542 30.9146 32.5243 31.6275 33.8943 32.3362C34.8434 32.3448 35.7926 32.3491 36.7417 32.3577C42.2476 29.42 47.7535 26.4867 53.2595 23.5491C53.1134 23.3945 52.9202 23.1411 52.9116 22.8147C52.903 22.4152 53.1821 22.2091 53.2165 22.0201C53.2852 21.6293 52.3361 20.9293 48.3548 19.5807C47.3327 19.4905 46.3062 19.4046 45.284 19.3144C39.6622 22.2349 34.0403 25.151 28.4185 28.0672Z" fill="white"/>
<path d="M59.1565 23.4846L59.5344 23.2871L60.7756 22.6343L47.1483 15.4835L21.2422 29.0678L21.7661 29.3427L22.1269 29.5317L20.8728 30.4894L22.3073 31.2496L20.8728 32.3448L22.3073 33.1049L20.8728 34.2001L22.3073 34.9603L20.8728 36.0554L32.3484 42.1411L35.1529 43.61L60.6768 30.0256L59.0963 29.012L60.6768 28.1702L59.0963 27.1567L60.6768 26.3149L59.0963 25.3013L60.6768 24.4595L59.1565 23.4846ZM45.3316 19.2929C46.0831 19.688 47.1483 19.7696 48.0545 19.2929L53.5088 22.149C52.6026 22.63 52.7572 23.184 53.5088 23.5834L36.6862 32.4049C35.7757 31.9282 34.7192 32.0098 33.9676 32.4006L28.5175 29.5403C29.2691 29.1451 29.4194 28.5911 28.5132 28.1144L45.3316 19.2929Z" fill="#50D864"/>
<path d="M36.5141 32.7356L36.6859 32.8258L54.3031 23.5834L53.6803 23.2527C53.3453 23.0766 53.2552 22.922 53.2552 22.8662C53.2552 22.8061 53.3453 22.66 53.6803 22.4797L54.2988 22.149L48.0542 18.872L47.8824 18.9622C47.1566 19.3445 46.2246 19.3445 45.5031 18.9622L45.3313 18.872L27.7141 28.1144L28.3411 28.4408C28.6804 28.6169 28.7706 28.7672 28.7706 28.8273C28.7706 28.8832 28.6804 29.0378 28.3497 29.2139L27.7227 29.5403L33.9716 32.8215L34.1434 32.7313C34.8606 32.3533 35.7926 32.3576 36.5141 32.7356ZM33.9759 31.9883L29.2216 29.493C29.4492 29.2525 29.5136 29.0163 29.5136 28.8316C29.5136 28.6512 29.4535 28.4107 29.2173 28.1702L45.3399 19.7138C46.1817 20.0875 47.2038 20.0875 48.0499 19.7138L52.8128 22.2091C52.6195 22.4109 52.5208 22.63 52.5208 22.8705C52.5208 23.0552 52.5809 23.2914 52.8171 23.5362L36.6773 31.9926C36.2478 31.7993 35.784 31.7048 35.3159 31.7048C34.8563 31.7048 34.3968 31.7993 33.9759 31.9883Z" fill="#1F9E36"/>
<path d="M59.8948 23.5147L61.5741 22.63L47.1479 15.0626L20.443 29.0679L21.4394 29.5918L20.1853 30.5453L21.6198 31.3054L20.1853 32.4006L21.6198 33.1608L20.1853 34.2559L21.6198 35.0161L20.1853 36.1113L32.1763 42.4719L35.1526 44.0352L61.4152 30.0599L59.839 29.0421L61.4152 28.2046L59.839 27.1867L61.4152 26.3493L59.839 25.3314L61.4152 24.4939L59.8948 23.5147ZM47.1479 15.9001L59.9807 22.63L34.8777 35.7978L22.0406 29.0679L47.1479 15.9001ZM59.9421 29.9998L35.1526 43.1934L32.5242 41.8148L21.5596 35.9996L22.3456 35.3984L32.1763 40.6165L35.1526 42.1798L59.0788 29.4458L59.9421 29.9998ZM59.9421 28.1445L59.1175 28.5825L37.2356 40.23L35.1483 41.338L35.0968 41.308L32.5199 39.9551L22.2726 34.5222L21.5596 34.1443L22.3456 33.543L32.1763 38.7612L35.1526 40.3245L59.0788 27.5905L59.9421 28.1445ZM59.9421 26.2891L59.1175 26.7272L37.2356 38.3746L35.1483 39.4827L35.0968 39.4526L32.5199 38.0998L22.2726 32.6669L21.5596 32.2889L22.3456 31.6877L32.1763 36.9058L35.1526 38.4691L59.0788 25.7351L59.9421 26.2891ZM59.1175 24.8719L37.2356 36.5193L35.1483 37.6273L35.0968 37.5973L32.5199 36.2444L22.2726 30.8115L21.5596 30.4336L22.1652 29.9698L34.882 36.6395L59.1389 23.9141L59.9421 24.4338L59.1175 24.8719Z" fill="#1F9E36"/>
<path d="M44.2275 31.1895L30.9609 23.8669L37.5448 20.5169L51.2924 27.672V35.4499L44.2275 39.1949V31.1895Z" fill="#FCE900"/>
<path d="M43.8797 39.3796L43.8539 31.0563L30.334 23.8239L37.5449 20.1003L51.6661 27.2168V35.2437L43.8797 39.3796ZM31.8887 23.8325L44.5926 30.6311L44.6184 38.1771L50.9189 34.8185V27.6549L37.5449 20.9121L31.8887 23.8325Z" fill="#DDB922"/>
</g>
</g>
<defs>
<clipPath id="clip0_322_5542">
<rect width="61.5742" height="43.9816" fill="white"/>
</clipPath>
<clipPath id="clip1_322_5542">
<rect width="41.3888" height="28.9683" fill="white" transform="translate(0 7.76146)"/>
</clipPath>
<clipPath id="clip2_322_5542">
<rect width="41.3888" height="28.9683" fill="white" transform="translate(20.1853 15.0626)"/>
</clipPath>
</defs>
</svg>
