<svg width="198" height="302" viewBox="0 0 198 302" fill="none" xmlns="http://www.w3.org/2000/svg">
<g filter="url(#filter0_d_786_354)">
<mask id="path-1-outside-1_786_354" maskUnits="userSpaceOnUse" x="-6" y="73" width="119" height="121" fill="black">
<rect fill="white" x="-6" y="73" width="119" height="121"/>
<path d="M104.731 105.28C104.731 108.426 104.243 111.246 103.267 113.74C102.399 116.235 101.152 118.459 99.5247 120.411C97.8978 122.363 95.9997 124.099 93.8305 125.617C91.6612 127.135 89.2751 128.545 86.672 129.847C87.865 130.281 89.2751 130.986 90.902 131.962C92.5289 132.83 94.1016 134.077 95.6201 135.704C97.1386 137.331 98.3859 139.446 99.362 142.049C100.447 144.544 100.989 147.635 100.989 151.323C100.989 156.203 99.9586 160.704 97.8978 164.826C95.837 168.948 92.7458 172.527 88.6243 175.564C84.6112 178.492 79.6219 180.824 73.6565 182.56C67.7996 184.187 61.0207 185 53.3199 185H5L26.9636 81.6898H69.7519C73.9819 81.6898 78.1577 82.0152 82.2792 82.666C86.5093 83.2083 90.2512 84.3472 93.5051 86.0826C96.8674 87.818 99.579 90.2584 101.64 93.4038C103.701 96.4407 104.731 100.4 104.731 105.28ZM60.4784 124.966C62.8645 124.966 64.8711 124.261 66.498 122.851C68.2334 121.441 69.6434 119.706 70.728 117.645C71.8127 115.476 72.6261 113.198 73.1684 110.812C73.7107 108.317 73.9819 106.094 73.9819 104.142C73.9819 100.996 73.2227 98.3388 71.7042 96.1695C70.2942 93.8918 68.0165 92.753 64.8711 92.753H59.9903L52.9945 124.966H60.4784ZM48.7645 174.75C52.0183 174.75 54.7299 173.828 56.8991 171.985C59.0684 170.141 60.858 167.863 62.268 165.151C63.678 162.44 64.6542 159.62 65.1965 156.691C65.8472 153.654 66.1726 150.997 66.1726 148.719C66.1726 144.923 65.3592 141.941 63.7322 139.771C62.2138 137.494 59.7191 136.355 56.2483 136.355H50.2287L42.2567 174.75H48.7645Z"/>
</mask>
<path d="M104.731 105.28C104.731 108.426 104.243 111.246 103.267 113.74C102.399 116.235 101.152 118.459 99.5247 120.411C97.8978 122.363 95.9997 124.099 93.8305 125.617C91.6612 127.135 89.2751 128.545 86.672 129.847C87.865 130.281 89.2751 130.986 90.902 131.962C92.5289 132.83 94.1016 134.077 95.6201 135.704C97.1386 137.331 98.3859 139.446 99.362 142.049C100.447 144.544 100.989 147.635 100.989 151.323C100.989 156.203 99.9586 160.704 97.8978 164.826C95.837 168.948 92.7458 172.527 88.6243 175.564C84.6112 178.492 79.6219 180.824 73.6565 182.56C67.7996 184.187 61.0207 185 53.3199 185H5L26.9636 81.6898H69.7519C73.9819 81.6898 78.1577 82.0152 82.2792 82.666C86.5093 83.2083 90.2512 84.3472 93.5051 86.0826C96.8674 87.818 99.579 90.2584 101.64 93.4038C103.701 96.4407 104.731 100.4 104.731 105.28ZM60.4784 124.966C62.8645 124.966 64.8711 124.261 66.498 122.851C68.2334 121.441 69.6434 119.706 70.728 117.645C71.8127 115.476 72.6261 113.198 73.1684 110.812C73.7107 108.317 73.9819 106.094 73.9819 104.142C73.9819 100.996 73.2227 98.3388 71.7042 96.1695C70.2942 93.8918 68.0165 92.753 64.8711 92.753H59.9903L52.9945 124.966H60.4784ZM48.7645 174.75C52.0183 174.75 54.7299 173.828 56.8991 171.985C59.0684 170.141 60.858 167.863 62.268 165.151C63.678 162.44 64.6542 159.62 65.1965 156.691C65.8472 153.654 66.1726 150.997 66.1726 148.719C66.1726 144.923 65.3592 141.941 63.7322 139.771C62.2138 137.494 59.7191 136.355 56.2483 136.355H50.2287L42.2567 174.75H48.7645Z" fill="white"/>
<path d="M103.267 113.74L95.6913 110.776L95.6346 110.921L95.5835 111.068L103.267 113.74ZM93.8305 125.617L89.1655 118.953L89.1655 118.953L93.8305 125.617ZM86.672 129.847L83.034 122.571L66.1187 131.029L83.892 137.492L86.672 129.847ZM90.902 131.962L86.7167 138.937L86.8928 139.043L87.0739 139.14L90.902 131.962ZM95.6201 135.704L89.6732 141.254L89.6732 141.254L95.6201 135.704ZM99.362 142.049L91.7453 144.905L91.8187 145.101L91.902 145.293L99.362 142.049ZM97.8978 164.826L90.6219 161.188L90.6219 161.188L97.8978 164.826ZM88.6243 175.564L93.4194 182.135L93.4346 182.124L93.4497 182.113L88.6243 175.564ZM73.6565 182.56L75.8337 190.397L75.8813 190.384L75.9288 190.37L73.6565 182.56ZM5 185L-2.95683 183.308L-5.04588 193.135H5V185ZM26.9636 81.6898V73.5552H20.3765L19.0067 79.9982L26.9636 81.6898ZM82.2792 82.666L81.0105 90.7011L81.1274 90.7196L81.2448 90.7346L82.2792 82.666ZM93.5051 86.0826L89.677 93.2602L89.7254 93.286L89.7742 93.3112L93.5051 86.0826ZM101.64 93.4038L94.8354 97.8618L94.8715 97.9169L94.9085 97.9714L101.64 93.4038ZM66.498 122.851L61.3684 116.538L61.2681 116.619L61.1704 116.704L66.498 122.851ZM70.728 117.645L77.9265 121.434L77.966 121.359L78.0039 121.283L70.728 117.645ZM73.1684 110.812L81.1008 112.615L81.1093 112.577L81.1174 112.54L73.1684 110.812ZM71.7042 96.1695L64.7876 100.451L64.9084 100.646L65.04 100.834L71.7042 96.1695ZM59.9903 92.753V84.6183H53.4326L52.0409 91.0266L59.9903 92.753ZM52.9945 124.966L45.0451 123.24L42.9036 133.101H52.9945V124.966ZM56.8991 171.985L51.6307 165.786L51.6307 165.786L56.8991 171.985ZM62.268 165.151L69.4852 168.904L69.4852 168.904L62.268 165.151ZM65.1965 156.691L57.2424 154.987L57.2185 155.098L57.1978 155.21L65.1965 156.691ZM63.7322 139.771L56.9638 144.284L57.089 144.471L57.2245 144.652L63.7322 139.771ZM50.2287 136.355V128.22H43.6095L42.2639 134.701L50.2287 136.355ZM42.2567 174.75L34.2919 173.097L32.2596 182.885H42.2567V174.75ZM96.5962 105.28C96.5962 107.585 96.2395 109.375 95.6913 110.776L110.842 116.705C112.246 113.116 112.866 109.267 112.866 105.28H96.5962ZM95.5835 111.068C95.0245 112.675 94.2513 114.032 93.2755 115.203L105.774 125.618C108.052 122.885 109.773 119.795 110.95 116.413L95.5835 111.068ZM93.2755 115.203C92.1288 116.579 90.7693 117.83 89.1655 118.953L98.4954 132.281C101.23 130.367 103.667 128.147 105.774 125.618L93.2755 115.203ZM89.1655 118.953C87.3534 120.221 85.3149 121.431 83.034 122.571L90.3099 137.123C93.2352 135.66 95.969 134.05 98.4954 132.281L89.1655 118.953ZM83.892 137.492C84.4206 137.684 85.3401 138.111 86.7167 138.937L95.0872 124.987C93.21 123.86 91.3095 122.878 89.4519 122.202L83.892 137.492ZM87.0739 139.14C87.7654 139.508 88.6439 140.152 89.6732 141.254L101.567 130.154C99.5593 128.002 97.2924 126.151 94.73 124.784L87.0739 139.14ZM89.6732 141.254C90.307 141.933 91.0536 143.061 91.7453 144.905L106.979 139.193C105.718 135.831 103.97 132.728 101.567 130.154L89.6732 141.254ZM91.902 145.293C92.4134 146.469 92.8543 148.377 92.8543 151.323H109.124C109.124 146.893 108.48 142.618 106.822 138.806L91.902 145.293ZM92.8543 151.323C92.8543 155.017 92.0846 158.263 90.6219 161.188L105.174 168.464C107.833 163.146 109.124 157.389 109.124 151.323H92.8543ZM90.6219 161.188C89.1978 164.036 87.0015 166.655 83.7988 169.015L93.4497 182.113C98.4902 178.399 102.476 173.859 105.174 168.464L90.6219 161.188ZM83.8291 168.993C80.7427 171.245 76.6611 173.214 71.3843 174.749L75.9288 190.37C82.5828 188.435 88.4797 185.74 93.4194 182.135L83.8291 168.993ZM71.4793 174.722C66.4906 176.107 60.4708 176.865 53.3199 176.865V193.135C61.5705 193.135 69.1085 192.266 75.8337 190.397L71.4793 174.722ZM53.3199 176.865H5V193.135H53.3199V176.865ZM12.9568 186.692L34.9204 83.3815L19.0067 79.9982L-2.95683 183.308L12.9568 186.692ZM26.9636 89.8245H69.7519V73.5552H26.9636V89.8245ZM69.7519 89.8245C73.5629 89.8245 77.3144 90.1175 81.0105 90.7011L83.548 74.6309C79.001 73.913 74.4009 73.5552 69.7519 73.5552V89.8245ZM81.2448 90.7346C84.648 91.1709 87.4173 92.055 89.677 93.2602L97.3331 78.9049C93.0851 76.6393 88.3705 75.2457 83.3137 74.5974L81.2448 90.7346ZM89.7742 93.3112C91.8985 94.4076 93.5482 95.897 94.8354 97.8618L108.444 88.9457C105.61 84.6197 101.836 81.2283 97.236 78.8539L89.7742 93.3112ZM94.9085 97.9714C95.7975 99.2814 96.5962 101.5 96.5962 105.28H112.866C112.866 99.2989 111.604 93.6 108.371 88.8361L94.9085 97.9714ZM60.4784 133.101C64.5941 133.101 68.5564 131.832 71.8256 128.998L61.1704 116.704C61.1204 116.747 61.1023 116.754 61.0764 116.763C61.0384 116.776 60.864 116.832 60.4784 116.832V133.101ZM71.6277 129.165C74.2516 127.033 76.3516 124.426 77.9265 121.434L63.5295 113.856C62.9352 114.986 62.2152 115.85 61.3684 116.538L71.6277 129.165ZM78.0039 121.283C79.3827 118.525 80.4153 115.631 81.1008 112.615L65.2361 109.009C64.8369 110.765 64.2426 112.426 63.4522 114.007L78.0039 121.283ZM81.1174 112.54C81.7478 109.64 82.1166 106.821 82.1166 104.142H65.8472C65.8472 105.367 65.6737 106.994 65.2194 109.084L81.1174 112.54ZM82.1166 104.142C82.1166 99.648 81.0128 95.2824 78.3684 91.5046L65.04 100.834C65.4325 101.395 65.8472 102.344 65.8472 104.142H82.1166ZM78.6208 91.8878C75.4483 86.763 70.258 84.6183 64.8711 84.6183V100.888C65.4722 100.888 65.5256 100.996 65.3005 100.883C65.1901 100.828 65.067 100.745 64.9555 100.642C64.846 100.541 64.7947 100.463 64.7876 100.451L78.6208 91.8878ZM64.8711 84.6183H59.9903V100.888H64.8711V84.6183ZM52.0409 91.0266L45.0451 123.24L60.9438 126.693L67.9396 94.4794L52.0409 91.0266ZM52.9945 133.101H60.4784V116.832H52.9945V133.101ZM48.7645 182.885C53.656 182.885 58.3189 181.454 62.1675 178.183L51.6307 165.786C51.1408 166.203 50.3807 166.616 48.7645 166.616V182.885ZM62.1675 178.183C65.1958 175.609 67.6258 172.48 69.4852 168.904L55.0508 161.398C54.0901 163.246 52.9409 164.673 51.6307 165.786L62.1675 178.183ZM69.4852 168.904C71.2569 165.497 72.5024 161.914 73.1951 158.173L57.1978 155.21C56.8059 157.326 56.0991 159.382 55.0508 161.398L69.4852 168.904ZM73.1506 158.396C73.8813 154.986 74.3073 151.734 74.3073 148.719H58.038C58.038 150.26 57.8132 152.323 57.2424 154.987L73.1506 158.396ZM74.3073 148.719C74.3073 143.85 73.2718 138.933 70.24 134.891L57.2245 144.652C57.4466 144.948 58.038 145.996 58.038 148.719H74.3073ZM70.5007 135.259C67.0684 130.111 61.6171 128.22 56.2483 128.22V144.489C57.1175 144.489 57.3996 144.634 57.3441 144.609C57.3113 144.594 57.2312 144.551 57.1371 144.471C57.0429 144.39 56.986 144.317 56.9638 144.284L70.5007 135.259ZM56.2483 128.22H50.2287V144.489H56.2483V128.22ZM42.2639 134.701L34.2919 173.097L50.2215 176.404L58.1935 138.008L42.2639 134.701ZM42.2567 182.885H48.7645V166.616H42.2567V182.885Z" fill="#192494" mask="url(#path-1-outside-1_786_354)"/>
</g>
<g filter="url(#filter1_d_786_354)">
<mask id="path-3-outside-2_786_354" maskUnits="userSpaceOnUse" x="98" y="136" width="100" height="107" fill="black">
<rect fill="white" x="98" y="136" width="100" height="107"/>
<path d="M126.767 143.021H188.412L186.069 154.149H156.052L150.341 180.945H175.38L173.037 192.219H147.999L138.628 236H107L126.767 143.021Z"/>
</mask>
<path d="M126.767 143.021H188.412L186.069 154.149H156.052L150.341 180.945H175.38L173.037 192.219H147.999L138.628 236H107L126.767 143.021Z" fill="white"/>
<path d="M126.767 143.021V136.021H121.099L119.92 141.565L126.767 143.021ZM188.412 143.021L195.262 144.463L197.039 136.021H188.412V143.021ZM186.069 154.149V161.149H191.749L192.919 155.591L186.069 154.149ZM156.052 154.149V147.149H150.387L149.206 152.69L156.052 154.149ZM150.341 180.945L143.495 179.486L141.692 187.945H150.341V180.945ZM175.38 180.945L182.234 182.369L183.984 173.945H175.38V180.945ZM173.037 192.219V199.219H178.732L179.891 193.643L173.037 192.219ZM147.999 192.219V185.219H142.338L141.154 190.754L147.999 192.219ZM138.628 236V243H144.288L145.472 237.465L138.628 236ZM107 236L100.153 234.544L98.3554 243H107V236ZM126.767 150.021H188.412V136.021H126.767V150.021ZM181.562 141.579L179.219 152.707L192.919 155.591L195.262 144.463L181.562 141.579ZM186.069 147.149H156.052V161.149H186.069V147.149ZM149.206 152.69L143.495 179.486L157.188 182.404L162.898 155.608L149.206 152.69ZM150.341 187.945H175.38V173.945H150.341V187.945ZM168.526 179.521L166.184 190.795L179.891 193.643L182.234 182.369L168.526 179.521ZM173.037 185.219H147.999V199.219H173.037V185.219ZM141.154 190.754L131.783 234.535L145.472 237.465L154.844 193.684L141.154 190.754ZM138.628 229H107V243H138.628V229ZM113.847 237.456L133.614 144.477L119.92 141.565L100.153 234.544L113.847 237.456Z" fill="#192494" mask="url(#path-3-outside-2_786_354)"/>
</g>
<defs>
<filter id="filter0_d_786_354" x="0.932672" y="81.6898" width="103.798" height="119.579" filterUnits="userSpaceOnUse" color-interpolation-filters="sRGB">
<feFlood flood-opacity="0" result="BackgroundImageFix"/>
<feColorMatrix in="SourceAlpha" type="matrix" values="0 0 0 0 0 0 0 0 0 0 0 0 0 0 0 0 0 0 127 0" result="hardAlpha"/>
<feOffset dx="-4.06733" dy="16.2693"/>
<feComposite in2="hardAlpha" operator="out"/>
<feColorMatrix type="matrix" values="0 0 0 0 0.0980392 0 0 0 0 0.141176 0 0 0 0 0.580392 0 0 0 1 0"/>
<feBlend mode="normal" in2="BackgroundImageFix" result="effect1_dropShadow_786_354"/>
<feBlend mode="normal" in="SourceGraphic" in2="effect1_dropShadow_786_354" result="shape"/>
</filter>
<filter id="filter1_d_786_354" x="102.933" y="143.021" width="85.4789" height="109.248" filterUnits="userSpaceOnUse" color-interpolation-filters="sRGB">
<feFlood flood-opacity="0" result="BackgroundImageFix"/>
<feColorMatrix in="SourceAlpha" type="matrix" values="0 0 0 0 0 0 0 0 0 0 0 0 0 0 0 0 0 0 127 0" result="hardAlpha"/>
<feOffset dx="-4.06733" dy="16.2693"/>
<feComposite in2="hardAlpha" operator="out"/>
<feColorMatrix type="matrix" values="0 0 0 0 0.0980392 0 0 0 0 0.141176 0 0 0 0 0.580392 0 0 0 1 0"/>
<feBlend mode="normal" in2="BackgroundImageFix" result="effect1_dropShadow_786_354"/>
<feBlend mode="normal" in="SourceGraphic" in2="effect1_dropShadow_786_354" result="shape"/>
</filter>
</defs>
</svg>
