<svg width="200" height="200" viewBox="0 0 200 200" fill="none" xmlns="http://www.w3.org/2000/svg">
<mask id="path-1-inside-1_80_1812" fill="white">
<path d="M80.512 97.9243H70.792C70.032 97.9243 69.5027 97.7673 69.204 97.4532C68.9531 97.0999 68.9004 96.5503 69.0461 95.8044L70.5183 88.2668L63.6962 76.1949C63.0139 74.9779 62.601 73.918 62.4573 73.015C62.3537 72.1121 62.4782 70.7577 62.831 68.9518L65.0393 57.6455C65.185 56.8996 65.4485 56.3696 65.8299 56.0555C66.2589 55.7022 66.8534 55.5255 67.6134 55.5255H76.8534C77.6134 55.5255 78.1189 55.7022 78.3699 56.0555C78.6685 56.3696 78.745 56.8996 78.5993 57.6455L76.713 67.303C76.6363 67.6955 76.5758 68.1078 76.5315 68.5396C76.4871 68.9714 76.5666 69.3836 76.7699 69.7762L78.7018 74.0161C78.8328 74.3694 78.9829 74.6246 79.1523 74.7816C79.3616 74.9387 79.6263 75.0172 79.9463 75.0172H80.5463C80.8663 75.0172 81.1416 74.9387 81.3723 74.7816C81.6429 74.6246 81.9128 74.3694 82.1818 74.0161L85.7699 69.7762C86.1266 69.3836 86.3671 68.9714 86.4915 68.5396C86.6158 68.1078 86.7163 67.6955 86.793 67.303L88.6793 57.6455C88.825 56.8996 89.0885 56.3696 89.4699 56.0555C89.8989 55.7022 90.4934 55.5255 91.2534 55.5255H100.193C100.953 55.5255 101.459 55.7022 101.71 56.0555C102.009 56.3696 102.085 56.8996 101.939 57.6455L99.731 68.9518C99.3782 70.7577 98.9537 72.1121 98.4573 73.015C97.961 73.918 97.1539 74.9779 96.0362 76.1949L84.5468 88.3257L83.0861 95.8044C82.9404 96.5503 82.6531 97.0999 82.224 97.4532C81.8427 97.7673 81.272 97.9243 80.512 97.9243Z"/>
</mask>
<path d="M80.512 97.9243H70.792C70.032 97.9243 69.5027 97.7673 69.204 97.4532C68.9531 97.0999 68.9004 96.5503 69.0461 95.8044L70.5183 88.2668L63.6962 76.1949C63.0139 74.9779 62.601 73.918 62.4573 73.015C62.3537 72.1121 62.4782 70.7577 62.831 68.9518L65.0393 57.6455C65.185 56.8996 65.4485 56.3696 65.8299 56.0555C66.2589 55.7022 66.8534 55.5255 67.6134 55.5255H76.8534C77.6134 55.5255 78.1189 55.7022 78.3699 56.0555C78.6685 56.3696 78.745 56.8996 78.5993 57.6455L76.713 67.303C76.6363 67.6955 76.5758 68.1078 76.5315 68.5396C76.4871 68.9714 76.5666 69.3836 76.7699 69.7762L78.7018 74.0161C78.8328 74.3694 78.9829 74.6246 79.1523 74.7816C79.3616 74.9387 79.6263 75.0172 79.9463 75.0172H80.5463C80.8663 75.0172 81.1416 74.9387 81.3723 74.7816C81.6429 74.6246 81.9128 74.3694 82.1818 74.0161L85.7699 69.7762C86.1266 69.3836 86.3671 68.9714 86.4915 68.5396C86.6158 68.1078 86.7163 67.6955 86.793 67.303L88.6793 57.6455C88.825 56.8996 89.0885 56.3696 89.4699 56.0555C89.8989 55.7022 90.4934 55.5255 91.2534 55.5255H100.193C100.953 55.5255 101.459 55.7022 101.71 56.0555C102.009 56.3696 102.085 56.8996 101.939 57.6455L99.731 68.9518C99.3782 70.7577 98.9537 72.1121 98.4573 73.015C97.961 73.918 97.1539 74.9779 96.0362 76.1949L84.5468 88.3257L83.0861 95.8044C82.9404 96.5503 82.6531 97.0999 82.224 97.4532C81.8427 97.7673 81.272 97.9243 80.512 97.9243Z" fill="url(#paint0_linear_80_1812)" fill-opacity="0.8"/>
<path d="M69.204 97.4532L68.3293 98.1053L68.3599 98.1484L68.3964 98.1868L69.204 97.4532ZM70.5183 88.2668H71.5183L71.582 87.9409L71.4344 87.6798L70.5183 88.2668ZM63.6962 76.1949L62.7789 76.7797L62.7802 76.782L63.6962 76.1949ZM62.4573 73.015L61.4448 73.3008L61.447 73.3192L61.4498 73.3375L62.4573 73.015ZM65.8299 56.0555L65.2583 55.3615L65.2583 55.3615L65.8299 56.0555ZM78.3699 56.0555L77.4951 56.7075L77.5258 56.7507L77.5622 56.789L78.3699 56.0555ZM76.5315 68.5396L75.5182 68.6285L75.5182 68.6285L76.5315 68.5396ZM76.7699 69.7762L77.7158 69.2478L77.7079 69.2304L77.6991 69.2134L76.7699 69.7762ZM78.7018 74.0161L79.669 73.5395L79.6593 73.5131L79.6477 73.4877L78.7018 74.0161ZM79.1523 74.7816L78.3779 75.548L78.4066 75.5746L78.4381 75.5983L79.1523 74.7816ZM81.3723 74.7816L80.9771 73.965L80.9363 73.9887L80.8973 74.0153L81.3723 74.7816ZM82.1818 74.0161L81.4423 73.4877L81.4208 73.5131L81.4007 73.5395L82.1818 74.0161ZM85.7699 69.7762L85.0606 69.2134L85.0452 69.2304L85.0304 69.2478L85.7699 69.7762ZM86.4915 68.5396L87.47 68.6285L87.47 68.6285L86.4915 68.5396ZM101.71 56.0555L100.835 56.7075L100.866 56.7507L100.902 56.789L101.71 56.0555ZM98.4573 73.015L97.5758 72.6926L97.5758 72.6926L98.4573 73.015ZM96.0362 76.1949L96.7271 76.7777L96.734 76.7704L96.7408 76.763L96.0362 76.1949ZM84.5468 88.3257L83.856 87.743L83.6099 88.0028L83.5468 88.3257H84.5468ZM82.224 97.4532L82.7956 98.1472L82.7956 98.1472L82.224 97.4532ZM80.7037 96.9429H70.9837L70.6003 98.9058H80.3203L80.7037 96.9429ZM70.9837 96.9429C70.334 96.9429 70.0918 96.8039 70.0117 96.7197L68.3964 98.1868C68.9136 98.7307 69.7301 98.9058 70.6003 98.9058L70.9837 96.9429ZM70.0788 96.8012C70.0115 96.7064 69.9215 96.4421 70.0461 95.8044H68.0461C67.8793 96.6585 67.8946 97.4934 68.3293 98.1053L70.0788 96.8012ZM70.0461 95.8044L71.5183 88.2668H69.5183L68.0461 95.8044H70.0461ZM71.4344 87.6798L64.6123 75.6079L62.7802 76.782L69.6023 88.8539L71.4344 87.6798ZM64.6135 75.6101C63.9531 74.4321 63.5874 73.4632 63.4648 72.6926L61.4498 73.3375C61.6145 74.3727 62.0748 75.5238 62.7789 76.7797L64.6135 75.6101ZM63.4698 72.7293C63.3825 71.9687 63.4832 70.7322 63.831 68.9518H61.831C61.4732 70.7832 61.3249 72.2555 61.4448 73.3008L63.4698 72.7293ZM63.831 68.9518L66.0393 57.6455H64.0393L61.831 68.9518H63.831ZM66.0393 57.6455C66.1667 56.9932 66.3545 56.7881 66.4014 56.7495L65.2583 55.3615C64.5425 55.951 64.2033 56.8059 64.0393 57.6455H66.0393ZM66.4014 56.7495C66.5175 56.6539 66.7975 56.507 67.4217 56.507L67.8051 54.5441C66.9093 54.5441 66.0003 54.7505 65.2583 55.3615L66.4014 56.7495ZM67.4217 56.507H76.6617L77.0451 54.5441H67.8051L67.4217 56.507ZM76.6617 56.507C77.2988 56.507 77.4607 56.6591 77.4951 56.7075L79.2446 55.4035C78.777 54.7452 77.928 54.5441 77.0451 54.5441L76.6617 56.507ZM77.5622 56.789C77.6031 56.8321 77.7215 57.0202 77.5993 57.6455H79.5993C79.7686 56.779 79.7339 55.9071 79.1775 55.322L77.5622 56.789ZM77.5993 57.6455L75.713 67.303H77.713L79.5993 57.6455H77.5993ZM75.713 67.303C75.63 67.7281 75.5653 68.1701 75.5182 68.6285L77.5447 68.4507C77.5863 68.0454 77.6427 67.663 77.713 67.303H75.713ZM75.5182 68.6285C75.4546 69.2482 75.5727 69.8214 75.8408 70.3391L77.6991 69.2134C77.5605 68.9459 77.5197 68.6947 77.5447 68.4507L75.5182 68.6285ZM75.824 70.3046L77.7559 74.5445L79.6477 73.4877L77.7158 69.2478L75.824 70.3046ZM77.7345 74.4927C77.8848 74.898 78.0862 75.2775 78.3779 75.548L79.9267 74.0153C79.8797 73.9717 79.7808 73.8409 79.669 73.5395L77.7345 74.4927ZM78.4381 75.5983C78.8061 75.8744 79.2596 75.9986 79.7546 75.9986L80.138 74.0357C79.9929 74.0357 79.9171 74.003 79.8665 73.965L78.4381 75.5983ZM79.7546 75.9986H80.3546L80.738 74.0357H80.138L79.7546 75.9986ZM80.3546 75.9986C80.8437 75.9986 81.3654 75.8761 81.8473 75.548L80.8973 74.0153C80.9021 74.012 80.9002 74.015 80.8819 74.0203C80.8611 74.0262 80.8154 74.0357 80.738 74.0357L80.3546 75.9986ZM81.7675 75.5983C82.2377 75.3254 82.6314 74.9281 82.9629 74.4927L81.4007 73.5395C81.1942 73.8108 81.0481 73.9238 80.9771 73.965L81.7675 75.5983ZM82.9213 74.5445L86.5094 70.3046L85.0304 69.2478L81.4423 73.4877L82.9213 74.5445ZM86.4792 70.3391C86.9495 69.8214 87.2916 69.2482 87.47 68.6285L85.5129 68.4507C85.4427 68.6947 85.3037 68.9459 85.0606 69.2134L86.4792 70.3391ZM87.47 68.6285C87.602 68.1701 87.71 67.7281 87.793 67.303H85.793C85.7227 67.663 85.6296 68.0454 85.5129 68.4507L87.47 68.6285ZM87.793 67.303L89.6793 57.6455H87.6793L85.793 67.303H87.793ZM89.6793 57.6455C89.8067 56.9932 89.9945 56.7881 90.0414 56.7495L88.8983 55.3615C88.1825 55.951 87.8433 56.8059 87.6793 57.6455H89.6793ZM90.0414 56.7495C90.1575 56.6539 90.4375 56.507 91.0617 56.507L91.4451 54.5441C90.5493 54.5441 89.6403 54.7505 88.8983 55.3615L90.0414 56.7495ZM91.0617 56.507H100.002L100.385 54.5441H91.4451L91.0617 56.507ZM100.002 56.507C100.639 56.507 100.801 56.6591 100.835 56.7075L102.585 55.4035C102.117 54.7452 101.268 54.5441 100.385 54.5441L100.002 56.507ZM100.902 56.789C100.943 56.8321 101.061 57.0202 100.939 57.6455H102.939C103.109 56.779 103.074 55.9071 102.518 55.322L100.902 56.789ZM100.939 57.6455L98.731 68.9518H100.731L102.939 57.6455H100.939ZM98.731 68.9518C98.3841 70.7274 97.9849 71.9484 97.5758 72.6926L99.3388 73.3375C99.9225 72.2758 100.372 70.788 100.731 68.9518H98.731ZM97.5758 72.6926C97.1465 73.4735 96.4142 74.4482 95.3317 75.6269L96.7408 76.763C97.8936 75.5077 98.7754 74.3624 99.3388 73.3375L97.5758 72.6926ZM95.3454 75.6122L83.856 87.743L85.2377 88.9084L96.7271 76.7777L95.3454 75.6122ZM83.5468 88.3257L82.0861 95.8044H84.0861L85.5468 88.3257H83.5468ZM82.0861 95.8044C81.9664 96.417 81.7686 96.6636 81.6525 96.7592L82.7956 98.1472C83.5376 97.5362 83.9144 96.6836 84.0861 95.8044H82.0861ZM81.6525 96.7592C81.6056 96.7979 81.3683 96.9429 80.7037 96.9429L80.3203 98.9058C81.1757 98.9058 82.0798 98.7367 82.7956 98.1472L81.6525 96.7592Z" fill="white" mask="url(#path-1-inside-1_80_1812)"/>
<mask id="path-3-inside-2_80_1812" fill="white">
<path d="M120.993 138.757H87.6726C86.7859 138.757 86.1684 138.574 85.8199 138.208C85.5271 137.796 85.4657 137.154 85.6357 136.284L87.9437 124.467C88.4626 121.811 89.1442 119.635 89.9885 117.941C90.8884 116.2 91.9358 114.78 93.1305 113.681C94.3252 112.582 95.6618 111.712 97.1404 111.071C98.619 110.429 100.196 109.88 101.872 109.422L111.816 106.536C112.598 106.353 113.142 106.078 113.447 105.712C113.799 105.345 114.046 104.796 114.189 104.063C114.323 103.376 114.273 102.918 114.037 102.689C113.811 102.414 113.348 102.277 112.648 102.277H97.458C96.5713 102.277 95.9538 102.094 95.6054 101.727C95.3125 101.315 95.2511 100.674 95.4211 99.8035L96.9911 91.7654C97.1611 90.8952 97.4685 90.2769 97.9134 89.9104C98.4139 89.4982 99.1075 89.2921 99.9942 89.2921H120.644C124.611 89.2921 127.452 90.2769 129.167 92.2463C130.938 94.17 131.461 96.9867 130.737 100.697L129.475 107.155C128.804 110.59 127.31 113.223 124.992 115.055C122.674 116.887 119.737 118.307 116.18 119.315L106.083 122.269C105.347 122.452 104.817 122.658 104.492 122.887C104.214 123.116 104.004 123.597 103.861 124.33L103.579 125.773H123.529C124.415 125.773 125.005 125.979 125.298 126.391C125.646 126.758 125.736 127.376 125.566 128.246L123.996 136.284C123.826 137.154 123.49 137.796 122.99 138.208C122.545 138.574 121.879 138.757 120.993 138.757Z"/>
</mask>
<path d="M120.993 138.757H87.6726C86.7859 138.757 86.1684 138.574 85.8199 138.208C85.5271 137.796 85.4657 137.154 85.6357 136.284L87.9437 124.467C88.4626 121.811 89.1442 119.635 89.9885 117.941C90.8884 116.2 91.9358 114.78 93.1305 113.681C94.3252 112.582 95.6618 111.712 97.1404 111.071C98.619 110.429 100.196 109.88 101.872 109.422L111.816 106.536C112.598 106.353 113.142 106.078 113.447 105.712C113.799 105.345 114.046 104.796 114.189 104.063C114.323 103.376 114.273 102.918 114.037 102.689C113.811 102.414 113.348 102.277 112.648 102.277H97.458C96.5713 102.277 95.9538 102.094 95.6054 101.727C95.3125 101.315 95.2511 100.674 95.4211 99.8035L96.9911 91.7654C97.1611 90.8952 97.4685 90.2769 97.9134 89.9104C98.4139 89.4982 99.1075 89.2921 99.9942 89.2921H120.644C124.611 89.2921 127.452 90.2769 129.167 92.2463C130.938 94.17 131.461 96.9867 130.737 100.697L129.475 107.155C128.804 110.59 127.31 113.223 124.992 115.055C122.674 116.887 119.737 118.307 116.18 119.315L106.083 122.269C105.347 122.452 104.817 122.658 104.492 122.887C104.214 123.116 104.004 123.597 103.861 124.33L103.579 125.773H123.529C124.415 125.773 125.005 125.979 125.298 126.391C125.646 126.758 125.736 127.376 125.566 128.246L123.996 136.284C123.826 137.154 123.49 137.796 122.99 138.208C122.545 138.574 121.879 138.757 120.993 138.757Z" fill="url(#paint1_linear_80_1812)" fill-opacity="0.8"/>
<path d="M85.8199 138.208L84.9452 138.86L84.9758 138.903L85.0123 138.941L85.8199 138.208ZM89.9885 117.941L89.0926 117.645L89.0886 117.653L89.0846 117.661L89.9885 117.941ZM93.1305 113.681L93.7568 114.328L93.7568 114.328L93.1305 113.681ZM101.872 109.422L101.971 110.363L101.98 110.361L101.989 110.358L101.872 109.422ZM111.816 106.536L111.759 105.584L111.73 105.591L111.7 105.6L111.816 106.536ZM113.447 105.712L112.762 105.123L112.73 105.156L112.701 105.192L113.447 105.712ZM114.037 102.689L113.195 103.383L113.221 103.414L113.25 103.443L114.037 102.689ZM95.6054 101.727L94.7306 102.379L94.7612 102.422L94.7977 102.461L95.6054 101.727ZM97.9134 89.9104L97.3418 89.2165L97.3418 89.2165L97.9134 89.9104ZM129.167 92.2463L128.338 92.9559L128.344 92.9636L128.351 92.9711L129.167 92.2463ZM124.992 115.055L124.441 114.345L124.441 114.345L124.992 115.055ZM116.18 119.315L116.071 118.376L116.061 118.379L116.18 119.315ZM106.083 122.269L106.156 123.217L106.179 123.212L106.202 123.205L106.083 122.269ZM104.492 122.887L103.999 122.133L103.959 122.162L103.921 122.193L104.492 122.887ZM103.579 125.773H102.579L102.387 126.754H103.387L103.579 125.773ZM125.298 126.391L124.423 127.043L124.454 127.086L124.49 127.125L125.298 126.391ZM122.99 138.208L123.561 138.902L123.562 138.902L122.99 138.208ZM121.184 137.776H87.8643L87.4809 139.739H120.801L121.184 137.776ZM87.8643 137.776C87.0879 137.776 86.7574 137.611 86.6276 137.474L85.0123 138.941C85.5793 139.538 86.484 139.739 87.4809 139.739L87.8643 137.776ZM86.6947 137.556C86.5856 137.402 86.4868 137.046 86.6357 136.284H84.6357C84.4446 137.263 84.4687 138.189 84.9452 138.86L86.6947 137.556ZM86.6357 136.284L88.9437 124.467H86.9437L84.6357 136.284H86.6357ZM88.9437 124.467C89.4524 121.863 90.1099 119.791 90.8924 118.22L89.0846 117.661C88.1784 119.48 87.4728 121.759 86.9437 124.467H88.9437ZM90.8844 118.236C91.7336 116.594 92.697 115.303 93.7568 114.328L92.5041 113.035C91.1745 114.258 90.0433 115.807 89.0926 117.645L90.8844 118.236ZM93.7568 114.328C94.8424 113.329 96.055 112.539 97.4025 111.954L96.8783 110.187C95.2687 110.885 93.8079 111.835 92.5041 113.035L93.7568 114.328ZM97.4025 111.954C98.8223 111.339 100.344 110.808 101.971 110.363L101.774 108.48C100.048 108.952 98.4156 109.52 96.8783 110.187L97.4025 111.954ZM101.989 110.358L111.932 107.473L111.7 105.6L101.756 108.485L101.989 110.358ZM111.873 107.488C112.737 107.286 113.615 106.927 114.193 106.232L112.701 105.192C112.669 105.23 112.46 105.42 111.759 105.584L111.873 107.488ZM114.132 106.301C114.718 105.69 115.028 104.89 115.189 104.063H113.189C113.064 104.701 112.879 105.001 112.762 105.123L114.132 106.301ZM115.189 104.063C115.333 103.329 115.369 102.464 114.825 101.935L113.25 103.443C113.205 103.399 113.227 103.381 113.239 103.486C113.251 103.593 113.245 103.777 113.189 104.063H115.189ZM114.88 101.995C114.421 101.438 113.617 101.295 112.84 101.295L112.456 103.258C112.745 103.258 112.939 103.287 113.061 103.324C113.182 103.359 113.203 103.393 113.195 103.383L114.88 101.995ZM112.84 101.295H97.6497L97.2663 103.258H112.456L112.84 101.295ZM97.6497 101.295C96.8733 101.295 96.5429 101.13 96.413 100.994L94.7977 102.461C95.3647 103.057 96.2694 103.258 97.2663 103.258L97.6497 101.295ZM96.4801 101.075C96.371 100.921 96.2722 100.566 96.4211 99.8035H94.4211C94.23 100.782 94.2541 101.708 94.7306 102.379L96.4801 101.075ZM96.4211 99.8035L97.9911 91.7654H95.9911L94.4211 99.8035H96.4211ZM97.9911 91.7654C98.1428 90.9888 98.3745 90.6954 98.485 90.6044L97.3418 89.2165C96.5625 89.8583 96.1794 90.8015 95.9911 91.7654H97.9911ZM98.485 90.6044C98.6725 90.45 99.0516 90.2736 99.8025 90.2736L100.186 88.3107C99.1634 88.3107 98.1553 88.5465 97.3418 89.2165L98.485 90.6044ZM99.8025 90.2736H120.452L120.836 88.3107H100.186L99.8025 90.2736ZM120.452 90.2736C124.258 90.2736 126.823 91.2165 128.338 92.9559L129.997 91.5367C128.081 89.3372 124.964 88.3107 120.836 88.3107L120.452 90.2736ZM128.351 92.9711C129.903 94.657 130.425 97.1749 129.737 100.697H131.737C132.498 96.7986 131.973 93.683 129.983 91.5215L128.351 92.9711ZM129.737 100.697L128.475 107.155H130.475L131.737 100.697H129.737ZM128.475 107.155C127.841 110.404 126.461 112.748 124.441 114.345L125.543 115.766C128.159 113.698 129.768 110.775 130.475 107.155H128.475ZM124.441 114.345C122.29 116.045 119.516 117.4 116.071 118.376L116.289 120.253C119.958 119.214 123.058 117.73 125.543 115.766L124.441 114.345ZM116.061 118.379L105.964 121.333L106.202 123.205L116.299 120.251L116.061 118.379ZM106.011 121.321C105.245 121.511 104.527 121.761 103.999 122.133L104.985 123.641C105.107 123.556 105.45 123.393 106.156 123.217L106.011 121.321ZM103.921 122.193C103.564 122.487 103.342 122.861 103.197 123.192C103.048 123.534 102.941 123.92 102.861 124.33H104.861C104.924 124.007 104.993 123.787 105.054 123.647C105.12 123.497 105.142 123.517 105.064 123.581L103.921 122.193ZM102.861 124.33L102.579 125.773H104.579L104.861 124.33H102.861ZM103.387 126.754H123.337L123.72 124.791H103.77L103.387 126.754ZM123.337 126.754C124.101 126.754 124.347 126.936 124.423 127.043L126.173 125.739C125.663 125.022 124.73 124.791 123.72 124.791L123.337 126.754ZM124.49 127.125C124.581 127.22 124.712 127.496 124.566 128.246H126.566C126.759 127.255 126.712 126.295 126.106 125.658L124.49 127.125ZM124.566 128.246L122.996 136.284H124.996L126.566 128.246H124.566ZM122.996 136.284C122.852 137.021 122.606 137.359 122.418 137.514L123.562 138.902C124.375 138.232 124.8 137.288 124.996 136.284H122.996ZM122.418 137.514C122.308 137.605 121.976 137.776 121.184 137.776L120.801 139.739C121.783 139.739 122.782 139.544 123.561 138.902L122.418 137.514Z" fill="white" mask="url(#path-3-inside-2_80_1812)"/>
<path d="M83.512 99.9243H73.792C73.032 99.9243 72.5027 99.7673 72.204 99.4532C71.9531 99.0999 71.9004 98.5503 72.0461 97.8044L73.5183 90.2668L66.6962 78.1949C66.0139 76.9779 65.601 75.918 65.4573 75.015C65.3537 74.1121 65.4782 72.7577 65.831 70.9518L68.0393 59.6455C68.185 58.8996 68.4485 58.3696 68.8299 58.0555C69.2589 57.7022 69.8534 57.5255 70.6134 57.5255H79.8534C80.6134 57.5255 81.1189 57.7022 81.3699 58.0555C81.6685 58.3696 81.745 58.8996 81.5993 59.6455L79.713 69.303C79.6363 69.6955 79.5758 70.1078 79.5315 70.5396C79.4871 70.9714 79.5666 71.3836 79.7699 71.7762L81.7018 76.0161C81.8328 76.3694 81.9829 76.6246 82.1523 76.7816C82.3616 76.9387 82.6263 77.0172 82.9463 77.0172H83.5463C83.8663 77.0172 84.1416 76.9387 84.3723 76.7816C84.6429 76.6246 84.9128 76.3694 85.1818 76.0161L88.7699 71.7762C89.1266 71.3836 89.3671 70.9714 89.4915 70.5396C89.6158 70.1078 89.7163 69.6955 89.793 69.303L91.6793 59.6455C91.825 58.8996 92.0885 58.3696 92.4699 58.0555C92.8989 57.7022 93.4934 57.5255 94.2534 57.5255H103.193C103.953 57.5255 104.459 57.7022 104.71 58.0555C105.009 58.3696 105.085 58.8996 104.939 59.6455L102.731 70.9518C102.378 72.7577 101.954 74.1121 101.457 75.015C100.961 75.918 100.154 76.9779 99.0362 78.1949L87.5468 90.3257L86.0861 97.8044C85.9404 98.5503 85.6531 99.0999 85.224 99.4532C84.8427 99.7673 84.272 99.9243 83.512 99.9243Z" fill="url(#paint2_linear_80_1812)" fill-opacity="0.8"/>
<path d="M123.993 142.757H90.6726C89.7859 142.757 89.1684 142.574 88.8199 142.208C88.5271 141.796 88.4657 141.154 88.6357 140.284L90.9437 128.467C91.4626 125.811 92.1442 123.635 92.9885 121.941C93.8884 120.2 94.9358 118.78 96.1305 117.681C97.3252 116.582 98.6618 115.712 100.14 115.071C101.619 114.429 103.196 113.88 104.872 113.422L114.816 110.536C115.598 110.353 116.142 110.078 116.447 109.712C116.799 109.345 117.046 108.796 117.189 108.063C117.323 107.376 117.273 106.918 117.037 106.689C116.811 106.414 116.348 106.277 115.648 106.277H100.458C99.5713 106.277 98.9538 106.094 98.6054 105.727C98.3125 105.315 98.2511 104.674 98.4211 103.804L99.9911 95.7654C100.161 94.8952 100.469 94.2769 100.913 93.9104C101.414 93.4982 102.108 93.2921 102.994 93.2921H123.644C127.611 93.2921 130.452 94.2769 132.167 96.2463C133.938 98.17 134.461 100.987 133.737 104.697L132.475 111.155C131.804 114.59 130.31 117.223 127.992 119.055C125.674 120.887 122.737 122.307 119.18 123.315L109.083 126.269C108.347 126.452 107.817 126.658 107.492 126.887C107.214 127.116 107.004 127.597 106.861 128.33L106.579 129.773H126.529C127.415 129.773 128.005 129.979 128.298 130.391C128.646 130.758 128.736 131.376 128.566 132.246L126.996 140.284C126.826 141.154 126.49 141.796 125.99 142.208C125.545 142.574 124.879 142.757 123.993 142.757Z" fill="url(#paint3_linear_80_1812)" fill-opacity="0.8"/>
<defs>
<linearGradient id="paint0_linear_80_1812" x1="73.1472" y1="43.2413" x2="99.0613" y2="48.722" gradientUnits="userSpaceOnUse">
<stop stop-color="#524DF5"/>
<stop offset="0.935908" stop-color="#9A1AFF"/>
</linearGradient>
<linearGradient id="paint1_linear_80_1812" x1="106.147" y1="75.2413" x2="127.766" y2="79.7552" gradientUnits="userSpaceOnUse">
<stop stop-color="#524DF5"/>
<stop offset="0.935908" stop-color="#9A1AFF"/>
</linearGradient>
<linearGradient id="paint2_linear_80_1812" x1="76.1472" y1="45.2413" x2="102.061" y2="50.722" gradientUnits="userSpaceOnUse">
<stop stop-color="#524DF5"/>
<stop offset="0.935908" stop-color="#9A1AFF"/>
</linearGradient>
<linearGradient id="paint3_linear_80_1812" x1="109.147" y1="79.2413" x2="130.766" y2="83.7552" gradientUnits="userSpaceOnUse">
<stop stop-color="#524DF5"/>
<stop offset="0.935908" stop-color="#9A1AFF"/>
</linearGradient>
</defs>
</svg>
